<svg xmlns="http://www.w3.org/2000/svg" width="2675" height="2037" viewBox="0 0 2675 2037"><g fill="none" fill-rule="evenodd" transform="translate(-34.524 3.691)"><g fill="#FCD872" transform="rotate(-5 11704.618 511.035)"><path d="M938.094073,-1.57593185e-13 C943.994073,-1.57593185e-13 960.969973,55.3349507 960.969973,71.2649507 C960.969973,73.0349507 845.47,160.049842 754.61,250.909842 C775.85,250.909842 792.96,260.349842 805.35,272.149842 C820.69,286.309842 831.9,298.699842 831.9,313.449842 C831.9,322.299842 828.95,333.509842 826,340.589842 C804.17,393.689842 715.08,508.149842 652.54,508.149842 C628.35,508.149842 611.24,492.809842 586.46,465.669842 C568.232245,445.879708 566.094129,434.364246 565.842908,425.036745 L565.828928,424.424851 C565.825078,424.2219 565.82199,424.019941 565.819511,423.81891 L565.813754,423.218535 C565.811639,422.919674 565.810558,422.622756 565.81,422.32756 L565.81,421.419842 C565.81,396.049842 578.79,369.499842 590,350.029842 C621.86,295.749842 663.16,255.629842 734.55,185.419842 C827.18,93.9698424 932.784073,-1.57593185e-13 938.094073,-1.57593185e-13 Z M764.05,279.229842 C727.47,279.229842 627.17,400.769842 627.17,435.579842 C627.17,440.889842 628.35,447.379842 636.02,447.379842 C645.46,447.379842 655.49,442.069842 674.96,425.549842 C706.23,398.999842 774.08,319.939842 775.26,288.669842 C775.26,282.179842 769.36,279.229842 764.05,279.229842 Z"/><path fill-rule="nonzero" d="M86.73 523.489842C125.67 523.489842 208.86 466.259842 304.44 381.299842 334.53 381.299842 366.39 380.119842 397.07 378.939842 380.55 413.159842 377.01 433.809842 377.01 452.689842 377.01 463.899842 394.71 517.589842 430.7 517.589842 477.31 517.589842 581.15 426.139842 581.15 405.489842 581.15 402.539842 578.2 387.789842 571.12 387.789842 568.17 387.789842 564.04 390.739842 561.68 392.509842 513.3 435.579842 457.25 475.699842 440.14 475.699842 436.6 475.699842 434.24 473.929842 434.24 469.799842 434.24 450.919842 457.25 411.389842 482.03 375.399842 509.17 374.219842 534.54 373.629842 556.37 373.629842 561.09 373.629842 564.63 372.449842 564.63 369.499842 564.63 358.879842 549.29 334.689842 518.61 324.659842L538.08 298.109842C621.86 174.799842 717.44 89.8398424 717.44 78.0398424 717.44 63.2898424 638.97 21.3998424 608.88 21.3998424 602.39 21.3998424 598.26 27.8898424 592.36 33.7898424 532.77 98.0998424 411.82 229.079842 276.71 338.229842 257.24 338.819842 236 339.409842 212.99 339.409842 195.29 339.409842 179.36 333.509842 174.64 333.509842 170.51 333.509842 168.74 341.179842 168.74 345.899842 168.74 359.469842 171.69 373.039842 223.61 378.939842 181.13 410.209842 137.47 438.529842 94.4 460.949842 86.14 465.079842 71.39 471.569842 59 471.569842 43.66 471.569842 38.94 460.949842 38.94 447.379842 38.94 428.499842 43.07 414.339842 54.28 394.869842 84.96 341.769842 138.06 304.009842 188.8 272.149842 197.06 266.839842 198.83 259.169842 198.83 250.909842L198.829148 249.892426 198.829148 249.892426 198.827125 249.380185 198.827125 249.380185 198.823185 248.866441C198.752483 241.752196 197.948242 234.389842 188.8 234.389842 185.26 234.389842 122.72 250.909842 75.52 286.309842 37.17 315.219842 1.85598108e-13 356.519842 1.85598108e-13 404.899842 1.85598108e-13 458.589842 28.91 495.169842 70.8 519.949842 74.93 522.309842 80.24 523.489842 86.73 523.489842ZM359.31 331.149842C427.16 266.249842 499.14 190.729842 564.04 114.029842 570.53 106.359842 572.89 103.999842 575.84 103.999842 578.2 103.999842 578.79 105.179842 578.79 106.949842 578.79 108.719842 577.61 111.669842 575.84 114.029842 503.86 209.609842 457.84 275.689842 428.34 323.479842 406.51 325.249842 384.09 328.199842 359.31 331.149842ZM876.24 508.149842C934.06 508.149842 992.47 466.849842 1035.54 427.319842 1059.73 405.489842 1083.33 378.349842 1083.33 371.859842 1083.33 369.499842 1082.74 365.959842 1078.02 365.959842 1072.71 365.959842 1016.07 418.469842 908.1 457.999842 901.02 460.359842 888.04 463.899842 877.42 463.899842 859.13 463.899842 854.41 451.509842 854.41 442.069842 854.41 431.449842 860.9 416.699842 872.11 399.589842 885.09 413.159842 902.79 420.239842 915.18 420.239842 959.43 420.239842 1056.78 339.999842 1056.78 283.359842 1056.78 275.689842 1055.01 265.659842 1033.77 246.189842 1019.02 229.669842 1002.5 217.279842 990.11 217.279842 967.69 217.279842 931.7 236.159842 884.5 278.639842 838.48 319.939842 794.23 367.729842 794.23 423.779842 794.23 447.379842 850.28 508.149842 876.24 508.149842ZM903.38 384.839842C900.43 384.839842 893.94 384.249842 889.22 377.169842 916.36 344.129842 955.89 308.139842 995.42 280.999842 998.37 279.229842 1003.68 276.869842 1007.81 276.869842 1011.94 276.869842 1014.89 278.639842 1014.89 283.359842 1014.89 301.649842 937.01 384.839842 903.38 384.839842ZM1036.72 491.629842C1048.52 491.629842 1058.55 470.979842 1063.86 465.079842 1132.3 391.329842 1196.61 334.689842 1231.42 316.399842 1234.96 314.629842 1237.32 314.039842 1239.68 314.039842 1253.25 314.039842 1258.56 337.639842 1269.18 337.639842 1274.49 337.639842 1324.05 304.009842 1324.05 270.969842 1324.05 259.169842 1315.79 245.599842 1301.04 245.599842 1277.44 245.599842 1213.72 291.029842 1178.32 317.579842 1178.32 314.629842 1190.71 301.059842 1203.1 285.719842 1209 278.049842 1214.9 271.559842 1214.9 264.479842 1214.9 253.859842 1201.33 232.029842 1188.35 232.029842 1185.4 232.029842 1182.45 233.209842 1179.5 236.159842 1139.74495 276.83943 1108.68244 310.637419 1076.66405 344.932019L1074.13413 347.640653C1066.11528 356.222115 1058.02082 364.84675 1049.7 373.629842 1031.41 392.509842 1006.63 417.879842 1006.63 444.429842 1006.63 467.439842 1029.05 491.629842 1036.72 491.629842ZM1240.98 736.479842C1247.47 736.479842 1262.22 695.179842 1299.98 637.359842 1372.55 525.849842 1458.69 419.059842 1564.89 319.349842 1568.43 315.809842 1570.79 312.859842 1570.79 309.909842 1570.79 307.549842 1569.02 304.599842 1565.48 301.059842 1545.4613 282.581042 1528.5686 280.625369 1513.24782 278.486602L1512.19369 278.338608C1510.26562 278.066008 1508.3621 277.784342 1506.48 277.459842 1478.75 245.599842 1461.05 236.159842 1443.35 236.159842 1370.19 236.159842 1256.91 339.409842 1229.18 408.439842 1225.64 416.699842 1223.87 423.779842 1223.87 429.089842 1223.87 457.999842 1255.14 505.789842 1278.15 505.789842 1302.93 505.789842 1315.32 488.679842 1347.77 468.619842 1292.9 521.719842 1247.47 572.459842 1193.78 653.879842 1190.24 659.189842 1186.11 668.039842 1186.11 673.349842 1186.11 685.149842 1215.02 724.089842 1231.54 734.119842 1233.31 735.299842 1237.44 736.479842 1240.98 736.479842ZM1301.16 457.999842C1294.08 457.999842 1292.31 450.329842 1292.31 445.609842 1292.31 429.089842 1334.79 386.609842 1347.18 375.399842 1400.87 326.429842 1456.33 291.619842 1465.77 291.619842 1474.03 291.619842 1479.34 302.239842 1479.34 306.959842 1479.34 307.549842 1477.57 312.269842 1453.38 335.279842 1404.41 382.479842 1310.6 457.999842 1301.16 457.999842ZM1595.58 508.149842C1653.4 508.149842 1711.81 466.849842 1754.88 427.319842 1779.07 405.489842 1802.67 378.349842 1802.67 371.859842 1802.67 369.499842 1802.08 365.959842 1797.36 365.959842 1792.05 365.959842 1735.41 418.469842 1627.44 457.999842 1620.36 460.359842 1607.38 463.899842 1596.76 463.899842 1578.47 463.899842 1573.75 451.509842 1573.75 442.069842 1573.75 431.449842 1580.24 416.699842 1591.45 399.589842 1604.43 413.159842 1622.13 420.239842 1634.52 420.239842 1678.77 420.239842 1776.12 339.999842 1776.12 283.359842 1776.12 275.689842 1774.35 265.659842 1753.11 246.189842 1738.36 229.669842 1721.84 217.279842 1709.45 217.279842 1687.03 217.279842 1651.04 236.159842 1603.84 278.639842 1557.82 319.939842 1513.57 367.729842 1513.57 423.779842 1513.57 447.379842 1569.62 508.149842 1595.58 508.149842ZM1622.72 384.839842C1619.77 384.839842 1613.28 384.249842 1608.56 377.169842 1635.7 344.129842 1675.23 308.139842 1714.76 280.999842 1717.71 279.229842 1723.02 276.869842 1727.15 276.869842 1731.28 276.869842 1734.23 278.639842 1734.23 283.359842 1734.23 301.649842 1656.35 384.839842 1622.72 384.839842ZM1835.71 508.149842C1919.49 508.149842 2043.39 398.999842 2043.39 381.889842 2043.39 370.089842 2035.72 363.599842 2032.18 363.599842 2028.64 363.599842 2023.92 366.549842 2019.2 370.679842 1970.82 411.389842 1887.04 472.159842 1840.43 472.159842 1830.4 472.159842 1819.78 469.209842 1819.78 455.049842 1819.78 430.269842 1837.48 397.819842 1865.21 362.419842 1872.29 373.039842 1877.6 375.989842 1887.04 375.989842 1913 375.989842 2111.83 240.289842 2177.32 165.359842 2187.35 153.559842 2196.79 141.759842 2196.79 126.419842 2196.79 99.2798424 2157.85 65.6498424 2122.45 65.6498424 2094.72 65.6498424 2051.06 95.7398424 2021.56 115.799842 1915.36 188.959842 1761.37 340.589842 1761.37 426.729842 1761.37 470.389842 1793.82 508.149842 1835.71 508.149842ZM1894.71 335.279842C1892.35 335.279842 1891.17 333.509842 1890.58 331.739842 1980.26 229.079842 2124.81 118.159842 2133.66 118.159842 2139.56 118.159842 2141.92 120.519842 2141.92 127.599842 2141.92 157.099842 1908.87 335.279842 1894.71 335.279842ZM2083.51 508.149842C2141.33 508.149842 2199.74 466.849842 2242.81 427.319842 2267 405.489842 2290.6 378.349842 2290.6 371.859842 2290.6 369.499842 2290.01 365.959842 2285.29 365.959842 2279.98 365.959842 2223.34 418.469842 2115.37 457.999842 2108.29 460.359842 2095.31 463.899842 2084.69 463.899842 2066.4 463.899842 2061.68 451.509842 2061.68 442.069842 2061.68 431.449842 2068.17 416.699842 2079.38 399.589842 2092.36 413.159842 2110.06 420.239842 2122.45 420.239842 2166.7 420.239842 2264.05 339.999842 2264.05 283.359842 2264.05 275.689842 2262.28 265.659842 2241.04 246.189842 2226.29 229.669842 2209.77 217.279842 2197.38 217.279842 2174.96 217.279842 2138.97 236.159842 2091.77 278.639842 2045.75 319.939842 2001.5 367.729842 2001.5 423.779842 2001.5 447.379842 2057.55 508.149842 2083.51 508.149842ZM2110.65 384.839842C2107.7 384.839842 2101.21 384.249842 2096.49 377.169842 2123.63 344.129842 2163.16 308.139842 2202.69 280.999842 2205.64 279.229842 2210.95 276.869842 2215.08 276.869842 2219.21 276.869842 2222.16 278.639842 2222.16 283.359842 2222.16 301.649842 2144.28 384.839842 2110.65 384.839842ZM182.66 1030.10984C193.87 1030.10984 203.31 1005.32984 231.04 967.569842L245.2 948.689842C280.01 982.319842 330.75 1001.78984 381.49 1001.78984 422.2 1001.78984 462.91 994.709842 502.44 984.089842 667.64 938.659842 757.91 849.569842 757.91 752.809842 757.91 679.059842 694.19 582.889842 611 561.649842 582.09 554.569842 552 551.029842 522.5 551.029842 390.34 551.029842 183.25 635.989842 183.25 676.109842 183.25 686.139842 187.97 706.199842 192.1 706.199842 198.59 706.199842 199.18 690.859842 254.64 672.569842 323.08 650.149842 380.31 633.629842 447.57 627.139842 439.31 631.269842 431.05 637.169842 422.2 644.839842 403.32 660.769842 294.17 755.169842 217.47 838.949842 216.627143 835.859366 215.984966 832.96957 215.455871 830.36009L215.300447 829.585735C213.727647 821.672609 213.157381 816.529842 210.98 816.529842 206.5668 816.529842 204.063312 826.078402 202.912991 835.343234L202.81499 836.159732C202.358153 840.100165 202.144449 843.936399 202.13071 846.905788L202.13 855.469842 195.05 863.729842C180.89 880.839842 143.13 912.699842 143.13 942.199842 143.13 973.469842 166.14 1030.10984 182.66 1030.10984ZM369.1 911.519842C333.11 911.519842 305.97 907.979842 284.73 901.489842 362.02 812.989842 471.17 707.969842 535.48 653.689842 539.02 650.739842 540.2 648.379842 540.2 646.019842 540.2 642.479842 524.86 631.269842 508.34 624.189842 566.16 624.189842 708.35 638.349842 708.35 713.869842 708.35 759.889842 634.6 821.839842 599.2 840.129842 520.14 881.429842 453.47 911.519842 369.1 911.519842ZM775.6 1004.14984C833.42 1004.14984 891.83 962.849842 934.9 923.319842 959.09 901.489842 982.69 874.349842 982.69 867.859842 982.69 865.499842 982.1 861.959842 977.38 861.959842 972.07 861.959842 915.43 914.469842 807.46 953.999842 800.38 956.359842 787.4 959.899842 776.78 959.899842 758.49 959.899842 753.77 947.509842 753.77 938.069842 753.77 927.449842 760.26 912.699842 771.47 895.589842 784.45 909.159842 802.15 916.239842 814.54 916.239842 858.79 916.239842 956.14 835.999842 956.14 779.359842 956.14 771.689842 954.37 761.659842 933.13 742.189842 918.38 725.669842 901.86 713.279842 889.47 713.279842 867.05 713.279842 831.06 732.159842 783.86 774.639842 737.84 815.939842 693.59 863.729842 693.59 919.779842 693.59 943.379842 749.64 1004.14984 775.6 1004.14984ZM802.74 880.839842C799.79 880.839842 793.3 880.249842 788.58 873.169842 815.72 840.129842 855.25 804.139842 894.78 776.999842 897.73 775.229842 903.04 772.869842 907.17 772.869842 911.3 772.869842 914.25 774.639842 914.25 779.359842 914.25 797.649842 836.37 880.839842 802.74 880.839842ZM1107.77 998.249842C1139.63 998.249842 1176.8 972.879842 1213.97 941.609842 1249.96 911.519842 1270.02 888.509842 1270.02 881.429842 1270.02 873.759842 1264.12 864.909842 1256.45 864.909842 1254.09 864.909842 1252.91 865.499842 1251.14 867.269842 1206.3 911.519842 1137.27 955.179842 1120.16 955.179842 1111.9 955.179842 1111.31 947.509842 1111.31 945.739842 1111.31 922.729842 1201.58 847.799842 1241.7 811.219842 1246.42 806.499842 1247.01 804.139842 1247.01 801.189842 1247.01 785.849842 1212.2 755.169842 1197.45 755.169842 1195.95231 755.169842 1194.45462 755.592268 1192.95692 756.079683L1192.14 756.349842 1192.14 756.349842C1132.55 785.259842 1070.6 826.559842 1063.52 827.739842 1065.8328 823.981542 1073.10367 815.831813 1079.91839 807.316604L1080.7502 806.272373C1087.51866 797.734035 1093.61 788.994542 1093.61 784.079842 1093.61 772.869842 1075.32 748.679842 1067.06 748.679842 1065.29 748.679842 1063.52 749.269842 1061.16 752.219842 1012.78 812.399842 973.25 848.389842 906.58 914.469842 899.5 921.549842 894.19 931.579842 894.19 938.659842 894.19 958.129842 911.89 984.089842 927.23 992.939842 930.18 994.119842 932.54 995.299842 934.31 995.299842 937.26 995.299842 939.62 993.529842 942.57 989.399842 989.18 939.249842 1054.67 880.249842 1095.38 853.109842 1097.15 851.929842 1100.69 850.159842 1103.05 850.159842 1104.23 850.159842 1104.82 850.749842 1104.82 851.339842 1104.82 853.109842 1103.05 854.879842 1102.46 855.469842 1080.04 877.889842 1049.95 909.159842 1049.95 939.249842 1049.95 971.109842 1078.27 998.249842 1107.77 998.249842ZM1275.33 998.249842C1297.75 998.249842 1327.84 984.679842 1349.08 969.339842 1434.63 909.159842 1455.87 881.429842 1455.87 872.579842 1455.87 864.909842 1449.97 856.059842 1445.84 856.059842 1439.35 856.059842 1435.22 859.009842 1429.91 864.319842 1356.16 932.169842 1317.81 942.199842 1305.42 942.199842 1297.75 942.199842 1295.39 939.249842 1295.39 934.529842 1295.39 909.749842 1386.84 819.479842 1461.18 749.269842 1517.23 745.729842 1576.23 739.239842 1576.23 728.029842 1576.23 720.359842 1572.1 712.689842 1563.25 702.659842 1553.81 692.039842 1546.14 687.909842 1527.26 687.319842 1542.6 673.749842 1553.22 664.309842 1553.22 660.769842 1553.22 658.999842 1552.63 657.229842 1551.45 655.459842 1548.264 650.787042 1543.39579 644.049714 1538.1942 637.339913L1537.32441 636.222227C1528.30949 624.682846 1518.528 613.569842 1514.87 613.569842 1510.74 613.569842 1501.3 623.009842 1411.62 707.379842 1391.56 710.329842 1369.73 712.099842 1346.72 712.099842 1325.48 712.099842 1318.4 706.199842 1312.5 706.199842 1309.55 706.199842 1308.96 708.559842 1308.96 710.919842 1308.96 739.829842 1324.3 751.629842 1363.24 752.219842 1257.04 851.929842 1218.69 894.999842 1218.69 928.629842 1218.69 949.279842 1248.19 998.249842 1275.33 998.249842ZM1462.36 1002.37984C1483.01 1002.37984 1507.79 982.909842 1551.45 943.379842 1551.45 975.829842 1571.51 998.249842 1596.29 998.249842 1637 998.249842 1744.38 903.259842 1744.38 882.609842 1744.38 878.479842 1739.66 864.909842 1731.99 864.909842 1729.04 864.909842 1727.86 866.089842 1726.68 867.269842 1670.04 926.859842 1608.68 957.539842 1603.37 957.539842 1599.83 957.539842 1597.47 955.179842 1597.47 952.229842 1597.47 933.939842 1674.76 853.109842 1728.45 815.939842 1729.04 815.349842 1730.81 814.169842 1730.81 812.399842 1730.81 807.089842 1706.62 788.799842 1676.53 776.409842 1657.06 757.529842 1635.82 730.389842 1610.45 730.389842 1572.1 730.389842 1427.55 840.719842 1405.13 902.079842 1402.77 907.979842 1402.18 913.879842 1402.18 918.599842 1402.18 939.839842 1410.44 951.639842 1419.29 968.159842 1430.5 988.809842 1444.07 1002.37984 1462.36 1002.37984ZM1462.95 964.029842C1460 964.029842 1454.69 959.309842 1454.69 954.589842 1454.69 940.429842 1477.7 914.469842 1497.17 893.819842 1524.31 864.909842 1549.68 842.489842 1584.49 818.299842 1587.794 816.057842 1591.334 813.745042 1594.93536 811.479442L1596.01743 810.801296C1596.37862 810.575798 1596.74025 810.35089 1597.10214 810.12669L1598.18844 809.456332C1611.59153 801.21769 1625.1174 794.109842 1629.92 794.109842 1635.82 794.109842 1639.36 797.649842 1639.36 801.779842 1639.36 802.959842 1638.77 804.729842 1638.18 805.909842 1635.23 811.809842 1512.51 941.019842 1468.85 962.259842 1466.49 963.439842 1464.72 964.029842 1462.95 964.029842ZM1786.27 1004.14984C1870.05 1004.14984 1993.95 894.999842 1993.95 877.889842 1993.95 866.089842 1986.28 859.599842 1982.74 859.599842 1979.2 859.599842 1974.48 862.549842 1969.76 866.679842 1921.38 907.389842 1837.6 968.159842 1790.99 968.159842 1780.96 968.159842 1770.34 965.209842 1770.34 951.049842 1770.34 926.269842 1788.04 893.819842 1815.77 858.419842 1822.85 869.039842 1828.16 871.989842 1837.6 871.989842 1863.56 871.989842 2062.39 736.289842 2127.88 661.359842 2137.91 649.559842 2147.35 637.759842 2147.35 622.419842 2147.35 595.279842 2108.41 561.649842 2073.01 561.649842 2045.28 561.649842 2001.62 591.739842 1972.12 611.799842 1865.92 684.959842 1711.93 836.589842 1711.93 922.729842 1711.93 966.389842 1744.38 1004.14984 1786.27 1004.14984ZM1845.27 831.279842C1842.91 831.279842 1841.73 829.509842 1841.14 827.739842 1930.82 725.079842 2075.37 614.159842 2084.22 614.159842 2090.12 614.159842 2092.48 616.519842 2092.48 623.599842 2092.48 653.099842 1859.43 831.279842 1845.27 831.279842Z"/></g><path fill="#586B74" d="M2614.40314,271.593945 C2617.16457,271.593945 2619.40314,273.832522 2619.40314,276.593945 L2619.40314,1076.59395 C2619.40314,1079.35537 2617.16457,1081.59395 2614.40314,1081.59395 L2499.40314,1081.59395 C2496.64172,1081.59395 2494.40314,1079.35537 2494.40314,1076.59395 L2494.40314,1056.59395 L2290.61814,1002.59395 L1167.40314,911.593945 L1167.40314,431.593945 L2290.61814,336.593945 L2494.40314,283.593945 L2494.40314,276.593945 C2494.40314,273.832522 2496.64172,271.593945 2499.40314,271.593945 L2614.40314,271.593945 Z M1167.40314,431.593945 L1167.40314,911.593945 C1151.49732,911.593945 1136.98596,902.517546 1130.02563,888.21549 L1068.88914,762.593945 L993.403143,762.593945 C990.641719,762.593945 988.403143,760.355369 988.403143,757.593945 L988.403143,734.593945 L968.403143,734.593945 L968.403143,757.593945 C968.403143,760.355369 966.164566,762.593945 963.403143,762.593945 L943.403143,762.593945 C940.641719,762.593945 938.403143,760.355369 938.403143,757.593945 L938.403143,734.593945 L918.403143,734.593945 L918.403143,757.593945 C918.403143,760.355369 916.164566,762.593945 913.403143,762.593945 L893.403143,762.593945 C890.641719,762.593945 888.403143,760.355369 888.403143,757.593945 L888.403143,572.593945 C888.403143,569.832522 890.641719,567.593945 893.403143,567.593945 L913.403143,567.593945 C916.164566,567.593945 918.403143,569.832522 918.403143,572.593945 L918.403143,584.593945 L938.403143,584.593945 L938.403143,572.593945 C938.403143,569.832522 940.641719,567.593945 943.403143,567.593945 L963.403143,567.593945 C966.164566,567.593945 968.403143,569.832522 968.403143,572.593945 L968.403143,584.593945 L988.403143,584.593945 L988.403143,572.593945 C988.403143,569.832522 990.641719,567.593945 993.403143,567.593945 L1068.93414,567.593945 L1129.17654,454.539757 C1136.7018,440.417017 1151.4006,431.593945 1167.40314,431.593945 Z" transform="rotate(-20 1753.903 676.594)"/><path fill="#8498A3" d="M2619.40314,1011.59395 L2619.40314,1051.59395 L2544.40314,1051.59395 C2533.35745,1051.59395 2524.40314,1042.63964 2524.40314,1031.59395 C2524.40314,1020.54825 2533.35745,1011.59395 2544.40314,1011.59395 L2619.40314,1011.59395 Z M2454.84488,342.593945 L2454.84488,996.593945 L2202.41789,887.544752 C2191.77254,882.945932 2180.40842,880.233738 2168.8336,879.529429 L1186.18842,819.737 C1175.63398,819.094779 1167.40314,810.34788 1167.40314,799.773923 L1167.40314,535.377133 C1167.40314,524.818259 1175.61128,516.078382 1186.14939,515.41647 L2169.91073,453.625146 C2180.78263,452.942268 2191.46991,450.487589 2201.55019,446.358124 L2454.84488,342.593945 Z M2619.40314,931.593945 L2619.40314,971.593945 L2544.40314,971.593945 C2533.35745,971.593945 2524.40314,962.63964 2524.40314,951.593945 C2524.40314,940.54825 2533.35745,931.593945 2544.40314,931.593945 L2619.40314,931.593945 Z M2619.40314,861.593945 L2619.40314,901.593945 L2544.40314,901.593945 C2533.35745,901.593945 2524.40314,892.63964 2524.40314,881.593945 C2524.40314,870.54825 2533.35745,861.593945 2544.40314,861.593945 L2619.40314,861.593945 Z M2619.40314,791.593945 L2619.40314,831.593945 L2544.40314,831.593945 C2533.35745,831.593945 2524.40314,822.63964 2524.40314,811.593945 C2524.40314,800.54825 2533.35745,791.593945 2544.40314,791.593945 L2619.40314,791.593945 Z M1167.40314,567.593945 L1167.40314,776.593945 C1153.38469,776.593945 1140.00981,770.710313 1130.5372,760.376554 L1071.0316,695.461355 C1069.34099,693.617057 1068.40314,691.206025 1068.40314,688.704109 L1068.40314,632.479218 C1068.40314,629.396469 1069.82497,626.486025 1072.25665,624.591215 L1128.04954,581.116236 C1139.11154,572.496492 1152.69219,567.751051 1166.70229,567.597779 L1167.40314,567.593945 Z M2619.40314,721.593945 L2619.40314,761.593945 L2544.40314,761.593945 C2533.35745,761.593945 2524.40314,752.63964 2524.40314,741.593945 C2524.40314,730.54825 2533.35745,721.593945 2544.40314,721.593945 L2619.40314,721.593945 Z M918.403143,639.593945 L918.403143,704.593945 L888.403143,704.593945 L888.403143,639.593945 L918.403143,639.593945 Z M968.403143,639.593945 L968.403143,704.593945 L938.403143,704.593945 L938.403143,639.593945 L968.403143,639.593945 Z M1033.40314,639.593945 C1038.92599,639.593945 1043.40314,644.071098 1043.40314,649.593945 L1043.40314,694.593945 C1043.40314,700.116793 1038.92599,704.593945 1033.40314,704.593945 L988.403143,704.593945 L988.403143,639.593945 L1033.40314,639.593945 Z M2619.40314,651.593945 L2619.40314,691.593945 L2544.40314,691.593945 C2533.35745,691.593945 2524.40314,682.63964 2524.40314,671.593945 C2524.40314,660.54825 2533.35745,651.593945 2544.40314,651.593945 L2619.40314,651.593945 Z M2619.40314,581.593945 L2619.40314,621.593945 L2544.40314,621.593945 C2533.35745,621.593945 2524.40314,612.63964 2524.40314,601.593945 C2524.40314,590.54825 2533.35745,581.593945 2544.40314,581.593945 L2619.40314,581.593945 Z M2619.40314,511.593945 L2619.40314,551.593945 L2544.40314,551.593945 C2533.35745,551.593945 2524.40314,542.63964 2524.40314,531.593945 C2524.40314,520.54825 2533.35745,511.593945 2544.40314,511.593945 L2619.40314,511.593945 Z M2619.40314,441.593945 L2619.40314,481.593945 L2544.40314,481.593945 C2533.35745,481.593945 2524.40314,472.63964 2524.40314,461.593945 C2524.40314,450.54825 2533.35745,441.593945 2544.40314,441.593945 L2619.40314,441.593945 Z M2619.40314,371.593945 L2619.40314,411.593945 L2544.40314,411.593945 C2533.35745,411.593945 2524.40314,402.63964 2524.40314,391.593945 C2524.40314,380.54825 2533.35745,371.593945 2544.40314,371.593945 L2619.40314,371.593945 Z M2619.40314,301.593945 L2619.40314,341.593945 L2544.40314,341.593945 C2533.35745,341.593945 2524.40314,332.63964 2524.40314,321.593945 C2524.40314,310.54825 2533.35745,301.593945 2544.40314,301.593945 L2619.40314,301.593945 Z" transform="rotate(-20 1753.903 676.594)"/><path fill="#9CACB5" d="M2296.00545,694.444487 C2351.23392,694.444487 2396.00545,739.216012 2396.00545,794.444487 L2396.00545,940.444487 L2247.80343,876.25965 C2237.01355,871.586659 2225.48407,868.853237 2213.74474,868.184979 L2103.25481,861.895372 C2144.12761,830.526311 2168.89543,806.042683 2177.55829,788.444487 C2186.22115,770.846292 2188.06126,739.512959 2183.07862,694.444487 L2296.00545,694.444487 Z M1220.63486,660.217464 C1248.19407,703.662737 1270.86074,734.329404 1288.63486,752.217464 C1306.40898,770.105525 1335.74232,791.772191 1376.63486,817.217464 L1376.63486,817.217464 L1220.63486,807.217464 Z" transform="rotate(-20 1808.32 800.331)"/><path stroke="#000" stroke-linecap="round" stroke-width="10" d="M2423.66836,2.11615525 C2426.26325,1.1716927 2429.13246,2.50962812 2430.07693,5.10451764 L2703.69304,756.858614 C2704.6375,759.453504 2703.29957,762.322716 2700.70468,763.267178 L2592.64003,802.599495 C2590.04514,803.543957 2587.17593,802.206022 2586.23146,799.611132 L2579.39106,780.81728 L2369.42671,799.772455 L1282.82603,1098.42258 L1118.65636,647.370122 L2141.64129,173.937169 L2315.00949,54.4348839 L2312.61535,47.8570356 C2311.67089,45.262146 2313.00882,42.3929343 2315.60371,41.4484717 L2423.66836,2.11615525 Z M1118.65636,647.370122 L1282.82603,1098.42258 C1267.87945,1103.86269 1251.13892,1100.29684 1239.70676,1089.23788 L1139.29215,992.102152 L1068.35852,1017.91988 C1065.76363,1018.86435 1062.89441,1017.52641 1061.94995,1014.93152 L1054.08349,993.318592 L1035.28964,1000.15899 L1043.1561,1021.77192 C1044.10056,1024.36681 1042.76263,1027.23603 1040.16774,1028.18049 L1021.37388,1035.02089 C1018.77899,1035.96535 1015.90978,1034.62742 1014.96532,1032.03253 L1007.09886,1010.4196 L988.305005,1017.26 L996.171468,1038.87293 C997.115931,1041.46782 995.777995,1044.33703 993.183106,1045.2815 L974.389253,1052.1219 C971.794364,1053.06636 968.925152,1051.72843 967.98069,1049.13354 L904.706963,875.290401 C903.7625,872.695512 905.100436,869.8263 907.695325,868.881838 L926.489178,862.041435 C929.084067,861.096972 931.953279,862.434908 932.897742,865.029797 L937.001983,876.306109 L955.795836,869.465706 L951.691594,858.189394 C950.747131,855.594505 952.085067,852.725293 954.679956,851.78083 L973.473809,844.940428 C976.068698,843.995965 978.93791,845.333901 979.882373,847.92879 L983.986614,859.205101 L1002.78047,852.364699 L998.676225,841.088387 C997.731763,838.493498 999.069698,835.624286 1001.66459,834.679823 L1072.64051,808.8467 L1090.58304,682.006399 C1092.82421,666.161576 1103.6189,652.843312 1118.65636,647.370122 Z M2317.52434,54.30899 L2586.02434,795.80899 M1074.52434,812.30899 L1135.52434,990.30899 M934.024342,869.80899 L993.024342,1035.80899 M983.024342,856.80899 L1040.02434,1016.80899 M1003.02434,848.80899 L1060.02434,1008.80899 M954.024342,861.80899 L1011.02434,1021.80899"/><path fill="#586B74" fill-rule="nonzero" d="M1275.34374,750.938172 C1278.2703,750.938172 1285.47414,735.855132 1297.63062,719.646492 C1305.96006,743.959452 1335.90102,749.137212 1359.53862,749.137212 C1376.87286,749.137212 1393.75686,746.210652 1410.41574,741.708252 C1426.17414,737.430972 1452.7383,727.975932 1452.7383,702.312252 C1452.7383,693.757692 1450.71222,677.323932 1442.15766,667.193532 C1442.4233,667.060711 1449.74173,665.28224 1457.77876,663.013993 L1458.59831,662.78168 C1458.73524,662.742695 1458.8723,662.703581 1459.00948,662.664342 L1459.8337,662.427471 L1459.8337,662.427471 L1460.65916,662.187898 C1460.93436,662.107621 1461.20952,662.026938 1461.4844,661.945894 L1462.30793,661.701729 L1462.30793,661.701729 L1463.12827,661.455673 L1463.12827,661.455673 L1463.94395,661.207996 C1467.46628,660.131607 1470.81544,659.017173 1473.44934,657.963612 C1476.01571,656.916804 1478.66819,655.834539 1481.3232,654.713779 L1482.38514,654.263415 C1497.0717,648.004776 1511.49462,640.555082 1511.49462,631.399452 C1511.49462,621.719292 1509.46854,614.290332 1497.31206,593.804412 C1487.18166,573.993852 1481.55366,568.816092 1451.83782,568.816092 C1399.60998,568.816092 1348.50774,581.873052 1301.45766,603.934812 C1295.82966,606.636252 1281.6471,613.389852 1281.6471,623.520252 C1281.6471,626.897052 1281.87222,632.299932 1282.7727,632.299932 C1283.22294,632.299932 1283.8983,631.849692 1284.79878,631.399452 C1307.98614,616.991772 1337.70198,609.337692 1367.41782,605.285532 C1351.4343,619.017852 1332.52422,637.252572 1316.76582,652.560732 C1296.2799,672.371292 1258.0095,707.264892 1258.0095,720.546972 C1258.0095,728.426172 1262.06166,734.954652 1266.33894,741.708252 C1271.5167,749.812572 1275.11862,750.938172 1275.34374,750.938172 Z M1366.29222,647.608092 L1376.1975,638.153052 C1391.50566,623.295132 1402.31142,614.065212 1402.31142,611.814012 C1402.31142,609.562812 1396.00806,605.510652 1390.15494,602.809212 C1411.99158,601.008252 1432.92774,600.783132 1449.58662,600.783132 C1470.52278,600.783132 1487.85702,602.133852 1487.85702,611.138652 C1487.85702,628.472892 1404.78774,645.807132 1366.29222,647.608092 Z M1346.03142,716.494812 L1345.2552,716.494812 C1336.39707,716.486302 1312.0383,716.21116 1312.0383,707.039772 C1312.0383,701.456796 1322.68225,689.902827 1333.88348,678.869805 L1334.96887,677.803938 C1341.4876,671.421105 1348.08452,665.284514 1352.78502,660.665052 C1352.10966,664.942332 1351.88454,670.345212 1351.88454,677.774172 C1351.88454,679.350012 1352.5599,679.800252 1353.91062,679.800252 C1354.58598,679.800252 1355.26134,679.800252 1356.16182,679.575132 C1356.2091,679.568378 1356.274,679.557572 1356.35614,679.542963 L1356.54329,679.508749 C1359.86674,678.889078 1380.21589,674.622492 1405.23798,674.622492 C1421.89686,674.622492 1436.52966,677.323932 1436.52966,686.778972 C1436.52966,699.160572 1417.39446,705.238812 1405.91334,708.390492 C1386.77814,713.793372 1365.39174,716.494812 1346.03142,716.494812 Z M1502.03958,747.786492 C1524.10134,747.786492 1546.38822,732.028092 1562.82198,716.945052 C1563.04174,716.746732 1563.26138,716.547263 1563.48076,716.34678 L1564.13806,715.742418 C1564.35684,715.540039 1564.57525,715.336778 1564.79318,715.13277 L1565.44539,714.518637 C1573.68543,706.714598 1581.0567,698.024252 1581.0567,695.783772 C1581.0567,694.883292 1580.83158,693.532572 1579.03062,693.532572 C1577.00454,693.532572 1555.39302,713.568252 1514.19606,728.651292 C1511.49462,729.551772 1506.54198,730.902492 1502.48982,730.902492 C1495.5111,730.902492 1493.71014,726.174972 1493.71014,722.573052 C1493.71014,718.520892 1496.18646,712.892892 1500.46374,706.364412 C1505.41638,711.542172 1512.16998,714.243612 1516.8975,714.243612 C1533.7815,714.243612 1570.9263,683.627292 1570.9263,662.015772 C1570.9263,659.089212 1570.25094,655.262172 1562.14662,647.833212 C1556.51862,641.529852 1550.21526,636.802332 1545.48774,636.802332 C1536.93318,636.802332 1523.20086,644.006172 1505.19126,660.214812 C1487.6319,675.973212 1470.7479,694.207932 1470.7479,715.594332 C1470.7479,724.599132 1492.1343,747.786492 1502.03958,747.786492 Z M1512.3951,700.736412 C1511.2695,700.736412 1508.79318,700.511292 1506.99222,697.809852 C1517.34774,685.203132 1532.43078,671.470812 1547.51382,661.115292 C1548.63942,660.439932 1550.6655,659.539452 1552.24134,659.539452 C1553.81718,659.539452 1554.94278,660.214812 1554.94278,662.015772 C1554.94278,668.994492 1525.22694,700.736412 1512.3951,700.736412 Z M1563.27222,741.483132 C1567.77462,741.483132 1571.60166,733.603932 1573.62774,731.352732 C1599.74166,703.212732 1624.27974,681.601212 1637.56182,674.622492 C1638.91254,673.947132 1639.81302,673.722012 1640.7135,673.722012 C1643.14388,673.722012 1644.87986,675.705993 1646.45693,677.811442 L1646.86508,678.362221 C1648.4861,680.56656 1649.98477,682.726812 1651.9695,682.726812 C1653.99558,682.726812 1672.90566,669.894972 1672.90566,657.288252 C1672.90566,652.785852 1669.75398,647.608092 1664.12598,647.608092 C1658.36291,647.608092 1646.32962,654.708196 1634.87171,662.475895 L1633.79942,663.205877 C1627.73506,667.351296 1621.89347,671.628396 1617.30102,675.072732 C1617.30102,673.947132 1622.02854,668.769372 1626.75606,662.916252 C1629.00726,659.989692 1631.25846,657.513372 1631.25846,654.811932 C1631.25846,650.759772 1626.0807,642.430332 1621.12806,642.430332 C1620.00246,642.430332 1618.87686,642.880572 1617.75126,644.006172 C1604.72028,657.340202 1594.13697,668.736486 1583.66742,679.97979 L1580.97629,682.868677 C1576.78941,687.360754 1572.58873,691.85283 1568.22486,696.459132 C1561.24614,703.662972 1551.7911,713.343132 1551.7911,723.473532 C1551.7911,732.253212 1560.34566,741.483132 1563.27222,741.483132 Z M1686.18774,747.786492 C1708.2495,747.786492 1730.53638,732.028092 1746.97014,716.945052 C1747.62942,716.350092 1748.28755,715.744794 1748.94134,715.13277 L1749.59355,714.518637 C1757.83359,706.714598 1765.20486,698.024252 1765.20486,695.783772 C1765.20486,694.883292 1764.97974,693.532572 1763.17878,693.532572 C1761.1527,693.532572 1739.54118,713.568252 1698.34422,728.651292 C1695.64278,729.551772 1690.69014,730.902492 1686.63798,730.902492 C1679.65926,730.902492 1677.8583,726.174972 1677.8583,722.573052 C1677.8583,718.520892 1680.33462,712.892892 1684.6119,706.364412 C1689.56454,711.542172 1696.31814,714.243612 1701.04566,714.243612 C1717.92966,714.243612 1755.07446,683.627292 1755.07446,662.015772 C1755.07446,659.089212 1754.3991,655.262172 1746.29478,647.833212 C1740.66678,641.529852 1734.36342,636.802332 1729.6359,636.802332 C1721.08134,636.802332 1707.34902,644.006172 1689.33942,660.214812 C1671.78006,675.973212 1654.89606,694.207932 1654.89606,715.594332 C1654.89606,724.599132 1676.28246,747.786492 1686.18774,747.786492 Z M1696.54326,700.736412 C1695.41766,700.736412 1692.94134,700.511292 1691.14038,697.809852 C1701.4959,685.203132 1716.57894,671.470812 1731.66198,661.115292 C1732.78758,660.439932 1734.81366,659.539452 1736.3895,659.539452 C1737.96534,659.539452 1739.09094,660.214812 1739.09094,662.015772 C1739.09094,668.994492 1709.3751,700.736412 1696.54326,700.736412 Z M1764.30438,745.535292 C1772.85894,745.535292 1784.34006,740.357532 1792.44438,734.504412 C1825.08678,711.542172 1833.1911,700.961532 1833.1911,697.584732 C1833.1911,694.658172 1830.9399,691.281372 1829.36406,691.281372 C1826.88774,691.281372 1825.3119,692.406972 1823.28582,694.433052 C1795.14582,720.321852 1780.51302,724.148892 1775.7855,724.148892 C1772.85894,724.148892 1771.95846,723.023292 1771.95846,721.222332 C1771.95846,711.767292 1806.85206,677.323932 1835.21718,650.534652 C1835.85877,650.49413 1836.50138,650.452595 1837.14436,650.410029 L1838.43063,650.323517 L1838.43063,650.323517 L1840.35943,650.188521 L1840.35943,650.188521 L1841.64323,650.094992 C1842.28449,650.047514 1842.92463,649.998963 1843.56301,649.949319 L1844.83726,649.84857 C1862.85066,648.400514 1879.11558,646.06602 1879.11558,642.430332 C1879.11558,639.503772 1877.53974,636.577212 1874.16294,632.750172 C1870.56102,628.698012 1867.63446,627.122172 1860.43062,626.897052 C1866.28374,621.719292 1870.3359,618.117372 1870.3359,616.766652 C1870.3359,616.091292 1870.11078,615.415932 1869.66054,614.740572 C1866.28374,609.787932 1857.9543,598.757052 1855.7031,598.757052 C1854.12726,598.757052 1850.52534,602.358972 1816.3071,634.551132 C1808.65302,635.676732 1800.32358,636.352092 1791.5439,636.352092 C1783.43958,636.352092 1780.73814,634.100892 1778.48694,634.100892 C1777.36134,634.100892 1777.13622,635.001372 1777.13622,635.901852 C1777.13622,646.932732 1782.98934,651.435132 1797.84726,651.660252 C1757.32566,689.705532 1742.69286,706.139292 1742.69286,718.971132 C1742.69286,726.850332 1753.94886,745.535292 1764.30438,745.535292 Z M1845.12246,745.535292 C1867.85958,745.535292 1920.31254,704.113212 1920.31254,691.056252 C1920.31254,689.930652 1919.8623,688.805052 1918.96182,688.805052 C1918.28646,688.805052 1917.6111,689.030172 1916.71062,689.705532 C1897.57542,706.139292 1858.85478,725.724732 1840.84518,725.724732 C1836.5679,725.724732 1833.86646,724.599132 1833.86646,720.772092 C1833.86646,713.118012 1840.16982,705.914172 1852.55142,694.207932 C1863.13206,684.077532 1872.5871,675.748092 1877.0895,675.748092 C1877.31462,684.077532 1882.7175,692.406972 1887.89526,692.406972 C1891.7223,692.406972 1898.70102,684.302652 1901.40246,681.601212 C1908.38118,674.397372 1914.45942,667.643772 1914.45942,663.366492 C1914.45942,660.214812 1910.18214,657.063132 1906.12998,653.010972 C1898.4759,645.131772 1893.9735,643.781052 1889.92134,643.781052 C1878.89046,643.781052 1855.47798,656.162652 1834.54182,677.098812 C1825.3119,686.328732 1819.45878,694.207932 1819.45878,707.940252 C1819.45878,722.798172 1830.03942,742.608732 1837.46838,744.634812 C1839.9447,745.310172 1842.64614,745.535292 1845.12246,745.535292 Z M1907.03046,746.435772 C1909.50678,746.435772 1913.33382,737.430972 1915.13478,735.404892 C1946.42646,697.134492 1966.23702,680.250492 1983.79638,672.821532 C1982.72481,673.877344 1981.64331,674.940879 1980.55853,676.010745 L1979.62806,676.929291 C1965.50847,690.883112 1951.15398,705.839882 1951.15398,718.746012 C1951.15398,730.002012 1957.68246,745.760412 1970.5143,745.760412 C1986.04758,745.760412 2028.59526,709.741212 2028.59526,703.437852 C2028.59526,700.286172 2026.34406,696.684252 2024.09286,696.684252 C2023.64262,696.684252 2023.30945,696.720271 2022.96186,696.857144 L2022.85702,696.901296 C2021.48507,697.516295 2019.69402,699.763893 2009.68518,707.490012 L2009.25911,707.820021 L2009.25911,707.820021 L2008.40536,708.477868 C1995.72801,718.212548 1982.52397,726.850332 1978.16838,726.850332 C1976.59254,726.850332 1975.24182,725.949852 1975.24182,723.698652 C1975.24182,712.217532 2009.68518,685.203132 2020.49094,675.973212 C2024.31798,672.596412 2025.21846,671.470812 2025.21846,668.769372 C2025.21846,659.539452 2012.1615,652.335612 2005.18278,652.335612 C1993.47654,652.335612 1984.92198,657.738492 1970.28918,664.942332 C1976.81766,656.612892 2004.2823,638.153052 2042.10246,599.432412 C2046.60486,594.930012 2050.4319,590.202492 2050.4319,584.574492 C2050.4319,582.098172 2044.57878,567.915612 2042.10246,567.915612 C2040.97686,567.915612 2040.3015,568.590972 2039.1759,569.716572 C2020.26582,587.275932 1927.51638,666.067932 1889.92134,720.997212 C1888.57062,723.023292 1887.89526,725.049372 1887.89526,726.174972 C1887.89526,734.504412 1902.75318,746.435772 1907.03046,746.435772 Z M2107.61238,643.555932 C2116.16694,643.555932 2126.07222,629.148252 2126.07222,623.745372 C2126.07222,614.740572 2117.29254,608.662332 2113.4655,608.662332 C2109.18822,608.662332 2094.78054,614.515452 2094.78054,628.022652 C2094.78054,636.126972 2103.3351,643.555932 2107.61238,643.555932 Z M2028.37014,745.760412 C2040.52662,745.760412 2079.02214,718.295772 2086.00086,708.615612 C2086.4511,707.940252 2087.80182,706.589532 2087.80182,705.013692 C2087.80182,703.888092 2085.55062,698.485212 2083.29942,698.485212 C2081.7624,698.485212 2078.14388,701.34726 2074.43564,704.379776 L2073.81712,704.886312 C2073.714,704.970844 2073.61091,705.055392 2073.50787,705.139899 L2072.89069,705.645978 C2071.14595,707.075842 2069.4429,708.460356 2067.99126,709.516092 C2049.75654,722.798172 2037.14982,729.551772 2031.97206,729.551772 C2030.84646,729.551772 2030.62134,728.876412 2030.62134,728.201052 C2030.62134,724.374012 2040.75174,713.568252 2088.7023,667.193532 C2090.05302,665.842812 2090.27814,664.492092 2090.27814,663.816732 C2090.27814,659.989692 2074.29462,646.482492 2072.49366,646.482492 L2072.26802,646.482492 C2071.43685,646.491872 2070.54262,646.595052 2068.89174,647.833212 C2063.03862,652.110492 2007.43398,703.662972 2007.43398,723.248412 C2007.43398,734.504412 2015.5383,745.760412 2028.37014,745.760412 Z" transform="rotate(-20 1692.04 659.427)"/></g></svg>