<svg xmlns="http://www.w3.org/2000/svg" width="1000" height="570"><defs><linearGradient id="a" x1="26.74%" x2="75.412%" y1="93.581%" y2="93.581%"><stop offset="0%" stop-color="#A2BB68"/><stop offset="100%" stop-color="#D7478C"/></linearGradient></defs><path fill="url(#a)" fill-rule="evenodd" d="M308.428 56.078c-9.534 0-18.54 1.25-26.669 3.8-29.584 9.284-35.834 45.038-35.866 73.398-.006 4.728 1.132 9.299 2.546 13.748-.302-13.557-.334-26.463 3.116-39.378 2.088-7.82 8.405-19.284 13.792-25.034 6.219-6.638 15.266-8.375 23.296-9.199 28.044-2.873 66.234 13.406 89.85 29.751a16.393 16.393 0 011.993 1.63 15.71 15.71 0 002.588-2.022c4.156-3.993 5.916-8.32 5.233-12.859-1.149-7.636-8.674-13.942-15.334-17.298-21.554-10.86-44.236-16.537-64.545-16.537zm244.745 40.89c13.25 0 23.593 4.943 31.466 14.99 5.296 6.759 6.959 11.74 8.325 19.113.256 1.385.425 2.99.603 4.689.574 5.472 1.287 12.282 5.47 14.64 3.25 1.834 8.977-.432 14.029-2.432 3.382-1.337 6.649-2.63 9.379-2.817.418-4.386 1.03-8.738 1.633-13.017 2.897-20.575 5.634-40.01-14.097-56.247-13.271-10.922-32.343-15.908-51.022-13.335-17.588 2.423-32.266 10.925-41.331 23.939-8.23 11.814-9.754 24.342-9.438 37.459 6.247-14.086 20.372-24.279 37.165-26.454a60.905 60.905 0 017.818-.528zm72.045 52.195c-.204 3.122-.277 6.245-.142 9.348.004.112.01.224.016.337.03-.131.058-.26.084-.384 1.188-5.85.676-8.287.042-9.301zm-353.917-2.136c-2.174 0-3.732.805-4.654 2.411-2.381 4.15-.702 12.842 2.593 20.212 4.614-7.992 8.077-16.329 6.162-21.905-1.548-.479-2.916-.718-4.101-.718zm234.839-5.817c-3.712 15.294-4.077 26.905-1.031 33.707 2.504-11.095 1.854-22.542 1.031-33.707zm-223.811 39.707a1.545 1.545 0 011.524 1.3c4.23 26.386 31.052 55.872 60.628 55.872h.051c14.047-.016 15.318-5.961 17.426-15.81.584-2.731 1.246-5.827 2.273-8.99.337-1.042.62-2.205.919-3.435 1.097-4.524 2.464-10.152 7.766-11.232 5.398-1.1 9.956-2.198 11.046-4.514.753-1.6.13-4.23-1.903-8.044-3.19-5.98-5.168-13.562-5.428-20.804-.137-3.777 2.1-6.527 4.261-9.188 1.719-2.113 3.341-4.11 3.91-6.61 2.798-12.274 2.282-31.7-4.982-40.827-7.407 3.247-16.083 1.112-23.926-.818-5.49-1.351-10.676-2.632-15.128-2.173-4.977.51-8.222 1.814-9.92 3.99-2.318 2.972-1.658 7.538-.96 12.372.815 5.63 1.737 12.01-2.495 16.509-3.152 3.348-7.57 3.85-11.842 4.336-3.148.359-6.121.697-8.384 2.13-7.886 4.997-8.182 16.44-7.943 21.127a1.544 1.544 0 01-1.693 1.616c-1.977-.195-3.75-.588-5.465-.968-1.931-.427-3.755-.831-5.862-.974a1.543 1.543 0 01-1.437-1.452c-.087-1.507-.098-3.077-.11-4.737-.055-7.702-.112-15.666-7.554-18.349-4.1-1.478-8.131-1.225-11.058.693-2.886 1.892-4.567 5.319-4.863 9.911-.477 7.404.279 22.056.287 22.202.027.507-.197.993-.597 1.303-2.105 1.627-4.314 2.288-6.574 1.961-2.852-.413-5.366-2.36-7.539-4.703.104 1.217.16 2.365.159 3.398-.007 4.582-.29 9.303-.565 13.869-.315 5.224-.638 10.6-.528 15.68 2.048-3.677 4.468-7.28 6.93-10.942 1.06-1.577 2.129-3.17 3.183-4.789 1.038-1.595 2.364-3.506 3.767-5.53 2.276-3.282 5.031-7.255 7.62-11.445-4.235-8.347-6.713-19.098-3.355-24.95 1.608-2.801 5.187-5.57 13.107-2.858.41.14.743.447.915.844 3.128 7.19-1.359 17.52-7.106 27.08 1.63 2.973 3.496 5.52 5.393 7.158 3.111 2.687 4.604 1.51 5.094 1.123.278-.219.616-.332.958-.332zm-38.185 36.663c-1.184 4.77-1.235 9.82.47 15.496 1.156 3.851 3.09 7.481 5.603 10.723a75.57 75.57 0 00-.563-4.295c-.721-4.456-1.925-8.655-3.09-12.716-.856-2.987-1.728-6.027-2.42-9.208zm-2.812-51.96c-15.923 16.907-25.209 47.523-28.336 93.436 8.94-5.723 24.366-8.908 33.442-4.57 1.494.715 3.092 1.756 4.478 3.27l-.033-1.26c-.066-2.484-.132-5.006-.27-7.555-4.136-4.286-7.288-9.419-8.956-14.977-2.593-8.627-1.468-15.96 1.414-22.814a51.45 51.45 0 01-.241-2.948c-.316-5.962.068-12.34.438-18.51.273-4.52.554-9.196.56-13.688.003-2.39-.287-5.173-.723-7.945-.252-.345-.497-.684-.734-1.012-.358-.497-.708-.98-1.039-1.427zm13.16 104.47c.193.14.354.323.466.537a1.427 1.427 0 00-.514-.572l.047.035zm67.78 1.83c5.624 0 12.12 2.239 19.41 6.693-.476-4.124-.87-7.87-1.313-12.073l-.03-.29c-.096-.92-.187-1.87-.28-2.84-.37-3.868-.778-8.12-1.703-11.837-2.494 4.245-6.229 7.725-9.866 11.115-2.236 2.084-4.548 4.24-6.469 6.496a67.478 67.478 0 00-2.322 2.901 19.77 19.77 0 012.572-.164zm-62.118 9.205c4.558 6.801 10.764 11.961 17.343 14.09 7.376 2.389 15.023 1.01 22.114-3.985a31.718 31.718 0 003.16-2.56c.438-1.729.87-3.472 1.304-5.222 2.784-11.223 5.65-22.78 10.468-33.39-9.03 5.099-15.162 8.163-18.255 9.12-7.257 2.248-15.563 2.906-22.786 1.808-7.23-1.1-14.084-4.366-19.665-9.041.055 1.503.093 2.993.132 4.47.073 2.78.143 5.46.304 8.126.279 1.368.415 2.897.37 4.606a1.545 1.545 0 01-.263.822c.246.156.45.381.58.662a1.559 1.559 0 01.134.36c.057.152.12.327.185.522.258.708.532 1.407.823 2.098 1.84 1.902 3.07 4.575 4.052 7.514zm182.942 19.519c-.85.396-1.602.917-2.195 1.594-.836.953-1.141 1.725-.91 2.294.36.884 1.526 1.645 3.22 2.303a716.655 716.655 0 01-.115-6.191zm3.227 7.155c6.707 1.698 17.05 2.51 23.058 2.98 5.342.42 8.43.678 9.783 1.126 1.233.408 2.42.899 3.559 1.471a19.066 19.066 0 00-.681-1.026c-3.627-5.097-19.335-12.23-31.045-12.821-1.488-.075-3.193-.053-4.825.214a716.4 716.4 0 00.15 8.056zm174.406-125.9c-2.276 3.43-4.602 6.776-6.869 10.035-12.88 18.523-25.045 36.019-22.799 61.797 2.503 28.707 19.805 50.742 47.771 61.21-14.618-19.989-6.739-51.97-1.393-73.669l.121-.49c2.688-10.911 3.478-19.249 2.303-28.039-12.824-6.623-15.9-17.947-19.134-30.844zm82.974 121.694a147.9 147.9 0 00.153 10.46c.034.718.069 1.434.106 2.148 1.649-1.132 2.924-2.385 3.664-3.773.902-1.693.938-3.506.11-5.546-.618-1.524-1.972-2.625-4.033-3.289zm-5.666-.743c-11.348 0-27.69 6.62-31.341 10.618-4.35 4.762-6.198 11.443-6.803 18.571 2.163-1.956 4.732-3.581 7.795-4.791 1.733-.685 4.927-1.35 8.97-2.195 7.046-1.47 17.374-3.625 24.304-7.104a636.996 636.996 0 01-.191-3.748 150.817 150.817 0 01-.144-11.222 24.758 24.758 0 00-2.59-.13zm-321.812-17.538c-4.828 0-10.604 9.012-13.798 13.995-.792 1.235-1.475 2.301-2.037 3.082-12.073 16.76-17.37 36.473-22.493 55.538-.708 2.637-1.422 5.295-2.159 7.96 2.656-3.535 5.14-7.36 7.64-11.694 5.747-9.963 11.784-19.965 17.621-29.638 4.14-6.861 8.42-13.954 12.552-20.959.19-.321.409-.684.648-1.081 2.072-3.444 6.925-11.506 5.42-15.218-.237-.584-.75-1.414-2.456-1.865a3.668 3.668 0 00-.938-.12zm-74.742 79.124l26.669 10.31a90.36 90.36 0 002.668-2.86c.328-1.107.648-2.217.964-3.327l-27.103-10.933-3.198 6.81zm55.434 10.93l7.122 2.874c1.617-1.31 3.392-2.632 5.548-3.666-4.745-.603-8.854-.36-12.67.793zm-24.26 1.121l10 3.866.727-.596 1.152-.946a39.994 39.994 0 014.561-3.269l-12.903-5.205a91.478 91.478 0 01-2.61 3.097 278.088 278.088 0 01-.927 3.053zm327.004-39.664c-.099 6.209.511 12.506 1.038 17.972.132 1.354.258 2.666.37 3.923.253 2.846.395 5.95.547 9.235.229 4.968.47 10.194 1.11 15.173l13.529-39.298c.197-.512 4.53-11.225 19.664-11.225h5.953c-.249-3.718-.497-7.5-.723-11.33-7.149 3.317-16.663 5.302-23.86 6.803-3.745.781-6.98 1.456-8.467 2.044-3.85 1.52-6.833 3.828-9.16 6.703zm-307.95 47.03c1.64.149 3.05-.008 4.322-.38a94.758 94.758 0 014.793-3.2l-8.05-3.247c-2.126 1.069-4.195 2.455-6.277 4.169l-.533.437 5.744 2.22zM159.254 242.619c-.39 0-.776.035-1.155.107-1.775.337-2.952 1.24-3.7 2.84-4.855 10.381 10.765 42.716 16.62 53.225 8.647 15.52 15.86 29.724 16.529 46.388.71 17.706-12.269 28.987-24.825 39.896 10.37-3.626 23.194-6.579 33.065-3.94 1.012-5.025-.418-13.847-1.238-18.908a219.59 219.59 0 01-.345-2.169c-1.342-8.85-1.682-17.111-1.961-26.22-.53-17.314-1.628-37.544-5.752-56.325-1.943-8.845-16.572-34.894-27.238-34.894zm230.97 135.532c3.98 2.155 8.061 4.839 12.223 8.042a37.275 37.275 0 00-1.807-4.324c-3.114-1.47-6.81-2.731-10.416-3.718zm12.725 1.48c3.742 1.916 6.697 4.173 7.9 6.694.274.574.5 1.238.598 1.971 3.727-10.175 6.13-22.787 7.688-30.968.248-1.3.476-2.502.69-3.584 3.851-19.602 5.849-41.975 5.776-64.698-.01-2.989.11-6.039.224-8.988.476-12.189.968-24.794-7-39.075-6.178-11.074-15.982-22.568-23.081-29.842 7.59 11.498 16.28 26.74 19.45 34.096 7.442 17.266 11.854 71.798-22.308 92.306-5.172 3.104-7.99 6.233-8.614 9.564-1.003 5.34 3.585 11.264 8.898 18.122 3.346 4.32 7.037 9.085 9.78 14.401zm3.573 9.867c.468.399.94.806 1.408 1.218.748-1.339.472-2.349.132-3.06-.54-1.132-1.587-2.216-2.99-3.239a34.173 34.173 0 011.45 5.08zm-30.9 1.777c-2.6.072-5.019.43-6.908 1.198-.513.21-.972.442-1.375.7 2.597-.215 5.236-.996 7.982-1.809l.301-.09zm113.62-68.66c1.363 7.42 1.083 15.845.825 23.625-.146 4.43-.285 8.615-.123 12.33.131 3.004-.056 6.675-.253 10.56-.49 9.66-1.076 21.18 2.906 28.002.43-.973.81-1.909 1.128-2.799 5.564-15.584 8.485-46.977-.5-65.381-1.164-2.384-2.493-4.498-3.983-6.337zm-82.132 73.17c-.01.667-.042 1.342-.098 2.024.485-.784.956-1.62 1.41-2.5-.08-.075-.16-.148-.24-.22-.34.27-.698.5-1.072.695zm254.617 4.407c.927 0 1.851.006 2.77.019-.98-1.741-1.785-3.63-2.453-5.625l-1.932 5.612c.54-.004 1.077-.006 1.615-.006zm-5.109-58.626c-3.326 6.549-4.597 14.804-5.323 23.182-.254 2.923-.274 5.847-.292 8.674-.036 5.263-.073 10.706-1.662 16.016-1.061 3.549-3.048 6.551-4.97 9.453-.444.672-.881 1.332-1.302 1.99a309.44 309.44 0 0113.761-.634l3.787-10.995c-1.422-6.734-1.765-14.19-2.086-21.156-.15-3.252-.291-6.323-.539-9.106-.11-1.248-.236-2.552-.367-3.898-.403-4.165-.85-8.793-1.007-13.526zm-256.084 54.822c1.342 1.756 2.26 3.725 2.627 5.715.482-1.887.752-3.717.837-5.495-1.1.08-2.265-.015-3.464-.22zm-86.594-5.068c.897 3.848 1.142 8.15.602 11.788 4.415-3.438 7.95-7.86 10.24-13.525 1.462-3.615 2.78-7.327 3.999-11.087-3.058 3.002-6.44 5.955-10.302 9.034a158.675 158.675 0 00-4.54 3.79zm93.29 11.457c3.499.97 7.925 1.722 11.152 2.196a283.433 283.433 0 00-7.618-7.488c-1.087 2-2.262 3.79-3.534 5.292zm87.507-2.89c.648.62 1.37 1.162 2.175 1.614 9.214 5.166 28.62 4.366 42.79 3.781 4.09-.169 7.954-.328 11.094-.328 17.987 0 36.585 0 55.18-.92 4.04-.2 9.36-.712 15.522-1.305 5.46-.524 11.503-1.105 17.79-1.579.79-1.365 1.657-2.675 2.508-3.962 1.88-2.84 3.656-5.525 4.587-8.634 1.463-4.889 1.497-9.874 1.532-15.152.02-2.888.04-5.875.304-8.92.93-10.732 2.743-21.29 8.377-28.812.265-9.088 2.095-18.017 7.82-24.284 4.844-5.305 24.256-12.637 36.328-11.496.394-7.902 1.467-14.924 2.841-23.915l.383-2.514c1.975-12.986.139-36.836-13.196-45.555-8-5.231-17.392-6.902-27.336-8.67-5.667-1.008-11.527-2.05-17.04-3.816a46.801 46.801 0 01-3.232-1.165c.882 8.47-.007 16.71-2.607 27.267l-.12.49c-5.569 22.597-13.964 56.68 4.11 74.886.179.09.338.213.47.365 1.058 1.217.542 2.045.14 2.43-.382.365-1.17.818-2.255-.095-32.149-10.026-52.154-33.91-54.917-65.599-2.344-26.892 10.132-44.833 23.34-63.828 2.897-4.167 5.894-8.476 8.742-12.905a1.542 1.542 0 012.795.456c.221.87.436 1.732.65 2.583 3.164 12.634 5.613 22.41 15.712 28.565-.616-3.165-1.476-6.442-2.585-9.961-1.481-4.703-3.75-9.492-6.153-14.563-2.342-4.942-4.73-9.982-6.38-15.032-3.627 6.652-9.218 13.69-15.505 15.926-3.392 1.204-6.706.856-9.67-1.002a733.665 733.665 0 00-3.284 5.12c-9.223 14.47-17.934 28.137-35.65 35.956-9.632 4.253-18.698 4.419-26.945.495-10.153-4.83-18.347-15.899-22.606-30.478-14.319 1.096-28.285 6.151-43.83 15.85-15.048 9.39-16.911 21.195-18.704 39.678-1.478 15.228-1.902 30.53-1.775 45.76 1.508-.208 3.18-.267 5.014-.173 11.775.593 28.946 7.849 33.406 14.113 1.297 1.823 2.312 3.859 3.102 6.053 3.328 2.762 6.118 6.433 8.34 10.985 9.783 20.04 6.162 52.289.635 67.775-.51 1.427-1.16 2.937-1.897 4.514zm-151.511-16.003c-7.13 5.902-18.296 15.69-19.372 23.276 4.798-1.983 11.53-7.431 18.607-13.158 2.943-2.381 5.93-4.797 8.907-7.08-.06-.005-.12-.012-.179-.018a1.528 1.528 0 01-.397-.096l-7.566-2.924zm324.956 16.419c12.91.459 24.656 2.437 32.202 7.378 4.865-24.486 3.343-47.594 1.697-71.99h-6.163c-12.95 0-16.618 8.83-16.768 9.206l-15.332 44.537c.93 4.095 2.298 7.831 4.364 10.869zm-546.428 12.295c1.85.63 4.012.465 6.559-.497 8.674-3.274 15.219-10.768 21.548-18.015l.556-.637c-9.664 4.485-21.863 11.227-28.663 19.149zM638.06 410.9c5.076.823 9.793 1.613 14.275 2.41l3.43-9.962c-4.87.135-9.778.41-14.572.755-.326.64-.622 1.29-.882 1.957-.412 1.06-.857 1.867-1.251 2.58-.454.823-.804 1.457-1 2.26zm-355.462 1.18c.987.579 2.37.996 4.052 1.232 8.892-1.206 17.264-3.505 24.102-7.61 1.18-3.048 1.273-7.786.524-12.094-3.05 2.603-6.23 5.202-9.773 7.395-2.17 1.343-4.687 2.544-7.12 3.704-4.4 2.096-8.933 4.258-11.785 7.373zm-80.794-.355c4.367 0 8.72.241 13.258.492 4.514.25 9.181.509 13.947.514 2.406.002 5.505.175 8.786.358 9.18.51 20.603 1.145 26.389-1.219 3.341-1.365 4.411-4.5 5.766-8.47.78-2.286 1.611-4.722 2.987-6.986-11.54-2.179-27.347-2.928-38.892.124l-.608.161c-9.48 2.502-26.42 6.973-33.336 15.039.568-.01 1.135-.013 1.703-.013zm64.107 2.757c4.664.032 9.412-.101 14.082-.466a6.692 6.692 0 01-.717-.686 1.545 1.545 0 01-.1-1.939c3.18-4.371 8.619-6.964 13.878-9.471 2.467-1.177 4.797-2.288 6.823-3.542 3.826-2.368 7.14-5.176 10.604-8.156-.658-2.165-1.552-4.019-2.642-5.205-2.343.606-4.722 1.143-7.03 1.665-6.695 1.513-13.619 3.077-19.981 6.407a13.05 13.05 0 00-3.557 2.693 1.54 1.54 0 01-.875 1.046c-1.718 2.278-2.63 4.952-3.523 7.57-1.357 3.976-2.759 8.08-6.962 10.084zm102.194 14.675c2.919 1.041 7.502.753 12.52-.892.208-.07.416-.139.62-.21-3.288-1.25-8.371-1.083-13.14 1.102zm-170.467-44.134c-2.915 5.029-12.027 10.116-19.387 14.225-2.412 1.346-4.495 2.509-5.993 3.47-10.145 6.506-22.485 15.427-27.901 26.758-2.224 4.653-2.522 8.936-.759 10.909 1.37 1.532 4.165 1.667 7.874.382 5.473-1.897 10.3-6.892 14.968-11.723 2.298-2.379 4.468-4.625 6.693-6.49 1.408-1.182 3.492-2.727 5.905-4.517 9.277-6.878 24.804-18.392 24.646-26.424-.04-1.956-1.08-3.604-3.181-5.039a16.378 16.378 0 00-2.865-1.551zm295.699 17.754c-.46.923-.935 1.864-1.418 2.817-5.584 11.03-11.912 23.532-4.31 31.975 7.127 7.916 24.026 5.714 36.365 4.107 2.191-.285 4.262-.556 6.083-.74 4.415-.447 8.822-.91 13.225-1.374 26.798-2.82 54.51-5.734 82.267-4.443 8.866.413 11.438 1.987 14.416 3.81.904.553 1.82 1.114 2.975 1.667l8.377-24.331c-4.753-.84-9.776-1.677-15.217-2.554a1.545 1.545 0 01-1.297-1.573c.074-2.309.826-3.671 1.554-4.99.363-.659.738-1.34 1.076-2.208.075-.191.152-.381.231-.57-5.597.444-10.971.961-15.869 1.433-6.2.595-11.555 1.11-15.665 1.314-18.672.924-37.31.924-55.333.924-3.076 0-6.909.158-10.967.325-15.35.632-34.452 1.42-44.427-4.173a13.883 13.883 0 01-2.066-1.416zm204.822 40.16c8.084 0 15.086.447 19.268 1.971 1.094.398 2.114.705 3.05.918-1.555-1.59-2.988-3.217-4.405-4.825-5.124-5.814-9.965-11.307-19.848-14.269-14.693-4.403-27.059-7.229-41.832-9.916l-8.582 24.93c1.358.453 3.002.893 5.07 1.313 5.8 1.174 16.958.768 28.773.34 6.295-.23 12.682-.462 18.506-.462zm-42.75-29.074c14.675 2.68 27.03 5.514 41.701 9.911 10.73 3.216 16.093 9.301 21.279 15.186 2.08 2.361 4.196 4.762 6.695 7.01.635-.197 1.119-.524 1.435-.98 1.63-2.35-.348-8.395-4.232-12.938-4.134-4.837-20.274-11.741-26.35-14.341l-1.236-.53c-3.196-1.375-6.296-2.29-9.295-3.175-6.26-1.845-12.171-3.59-17.455-9.094-.49-.51-.95-1.041-1.387-1.597-2.467-.062-4.978-.07-7.513-.035l-3.642 10.583zm-13.312 38.666h86.475a41.31 41.31 0 01-4.432-3.273c-1.917.138-4.438-.233-7.77-1.447-6.628-2.414-22.555-1.836-36.605-1.325-12.003.436-23.339.85-29.498-.4-2.206-.446-3.984-.926-5.462-1.42l-2.708 7.865zm-393.387 6.292c4.148 0 8.29.14 12.369.538 21.662 2.118 53.816 3.004 83.977-4.796 11.061-2.861 24.888-7.043 33.701-14.054 5.087-4.047 7.065-7.783 5.455-10.283-.873.361-1.753.687-2.624.973-7.73 2.534-14.33 2.16-17.657-1.004a1.545 1.545 0 01.25-2.43c7.014-4.351 16.055-4.704 20.72-1.222 4.911-2.373 8.456-5.6 8.954-8.395.295-1.652-.46-3.167-2.309-4.631a1.546 1.546 0 01.772-2.743c4.615-.566 7.41-2.63 7.869-5.815.565-3.916-2.516-8.533-7.067-10.686l-.159-.055c-2.6-.892-5.056-1.734-6.701-1.786-3.316-.104-6.594.864-10.061 1.891-3.974 1.177-8.084 2.394-12.32 1.868a1.543 1.543 0 01-1.237-2.119c.807-1.964 2.46-3.464 4.91-4.46 7.65-3.109 21.246-.584 26.388 1.643.114.048.226.1.337.15 3.377 1.156 7.031 2.378 9.69 2.105a26.948 26.948 0 00-.271-2.359 92.362 92.362 0 00-2.057-1.674c-8.97-7.08-17.508-11.661-25.377-13.62l-.056-.013c-.153.01-.294.024-.423.044-4.665.674-7.654 2.974-10.465 5.293l-.053.045c-.145.118-.288.237-.432.356-2.216 1.836-4.48 3.71-7.423 4.7-4.298 3.073-8.698 6.634-13.006 10.12-8.727 7.061-16.263 13.161-21.785 14.394a1.54 1.54 0 01-1.87-1.332c-1.02-8.918 10.664-19.723 19.181-26.856l-8.207-3.173c-1.24 3.825-2.583 7.61-4.077 11.305-2.9 7.17-7.688 12.844-14.47 17.09a9.14 9.14 0 01-.721 1.23c-3.006 4.275-12.597 7.053-20.095 7.497-1.583.092-3.72.12-5.871-.157-14.676 1.942-30.29 1.028-43.075.28l-1.855-.107c-16.39-.95-55.704-1.552-66.708 13.316-3.389 4.577-3.787 10.178-1.22 17.123 4.144 11.201 21.877 11.793 34.826 12.226 1.73.057 3.364.112 4.857.19 6.634.341 13.472.07 20.713-.218 4.837-.192 9.764-.389 14.683-.389zm282.638 2.384l86.277 52.927 20.145-58.515H531.348v5.588zM618.458 518c-.282 0-.561-.076-.807-.228l-88.654-54.386a1.545 1.545 0 01-.737-1.316v-7.996c0-.853.691-1.544 1.544-1.544h109.029l3.097-8.996c-1.447-.667-2.541-1.337-3.576-1.97-2.723-1.667-4.874-2.984-12.949-3.36-27.528-1.283-55.117 1.621-81.8 4.43-4.406.463-8.818.928-13.238 1.376-1.776.179-3.826.446-5.994.729-13.02 1.695-30.847 4.018-39.059-5.103-9.018-10.015-1.883-24.11 3.85-35.436.656-1.295 1.299-2.565 1.901-3.796-5.675-7.437-5.01-20.54-4.456-31.43.193-3.812.376-7.411.251-10.27-.167-3.833-.027-8.075.122-12.566.31-9.367.653-19.706-1.946-27.664a22.88 22.88 0 00-6.842-3.638c-1.065-.352-4.945-.657-9.055-.979-8.824-.691-16.874-1.45-22.733-2.867.339 12.15.93 24.224 1.512 36.144.219 4.477.354 9.643.496 15.113.755 28.911 1.787 68.506 16.523 86.935a1.543 1.543 0 01-1.206 2.508h-72.415a1.545 1.545 0 01-1.533-1.715c1.049-9.469 6.542-26.83 10.611-39.248-1.25 1.12-2.87 1.978-4.813 2.536 1.467 2.031 1.571 3.989 1.314 5.428-.722 4.047-4.935 7.689-9.868 10.233 1.248 2.267 2.2 7.203-6.348 14.002-9.267 7.373-23.492 11.69-34.85 14.627-30.598 7.913-63.14 7.022-85.05 4.88-8.704-.85-17.816-.487-26.63-.137-6.99.279-14.22.568-20.994.215-1.476-.075-3.092-.13-4.802-.186-13.823-.462-32.755-1.095-37.617-14.242-2.917-7.886-2.368-14.626 1.633-20.03 5.434-7.341 16.577-11.268 29.03-13.239a97.867 97.867 0 00-4.254.104 1.544 1.544 0 01-1.423-2.292c5.963-10.74 26.105-16.056 36.927-18.913l.607-.16c12.294-3.25 29.137-2.375 41.103-.007 1.468-21.907-1.527-44.397-4.332-61.67-2.177-13.412-5.32-26.052-9.61-38.643-.564-1.655-1.045-3.48-1.555-5.411-.453-1.72-.929-3.522-1.484-5.235a48.062 48.062 0 01-3.879-7.2 1.528 1.528 0 01-.426-.636 30.942 30.942 0 01-.274-.859c-.119-.378-.286-.915-.43-1.344a55.13 55.13 0 01-.191-.538l-.028-.067a1.611 1.611 0 01-.113-.397c-.072-.4.017-.807.237-1.136a1.54 1.54 0 01-.709-1.14 94.966 94.966 0 01-.357-4.29c-.777-3.554-2.819-6.139-6.102-7.707-8.84-4.228-25.46-.15-32.861 6.155a1.542 1.542 0 01-2.542-1.268c3.022-49.708 13.053-82.411 30.664-99.978a1.51 1.51 0 011.156-.45c.126.005.25.026.368.06-.733-3.213-1.517-5.897-2.038-7.2-3.422 1.26-13.52 4.928-18.457 6.192-5.9 1.51-11.385 2.567-17.192 3.686-2.047.394-4.115.793-6.223 1.217-14.266 2.865-29.76 7.595-47.364 14.459-15.343 5.982-30.084 14.256-34.023 34.131-2.083 10.516-3.79 21.428-5.44 31.98-1.601 10.246-3.258 20.842-5.276 31.216-5.043 25.916-1.548 50.18 2.154 75.867 1.346 9.346 2.738 19.01 3.67 28.702.076.797.152 1.643.232 2.53.78 8.673 1.931 21.474 7.163 26.386 7.637-9.166 21.773-16.795 34.212-22.19.677-.294 1.387-.596 2.122-.901 1.699-1.805 3.444-3.54 5.258-5.115 12.009-10.433 24.426-21.221 23.775-37.449-.643-15.985-7.69-29.842-16.14-45.01-.235-.418-23.262-42.05-16.721-56.034 1.172-2.507 3.165-4.044 5.921-4.566 14.014-2.66 30.16 28.853 31.985 37.158 4.178 19.027 5.288 39.437 5.822 56.891.276 9.009.611 17.171 1.928 25.853.094.622.21 1.342.34 2.139.925 5.71 2.387 14.724 1.12 20.393a19.645 19.645 0 013.524 1.898c2.945 2.01 4.47 4.542 4.528 7.529.189 9.624-15.507 21.263-25.894 28.965-2.373 1.759-4.422 3.279-5.76 4.4-2.101 1.763-4.217 3.953-6.456 6.271-4.92 5.092-10.008 10.357-16.178 12.495-6.36 2.203-9.594.54-11.187-1.242-2.636-2.95-2.53-8.429.275-14.298 5.752-12.033 18.53-21.298 29.02-28.025 1.578-1.012 3.7-2.196 6.155-3.567 6.39-3.568 14.995-8.373 17.872-12.527-11.601-2.88-28.137 2.667-37.4 6.447-1.674 1.8-3.33 3.696-5.03 5.645-6.58 7.532-13.383 15.323-22.784 18.872-3.635 1.373-6.86 1.422-9.606.145-1.951 2.855-3.139 5.839-3.225 8.907-.192 6.857.836 22.975 14.49 24.57a1.543 1.543 0 01-.178 3.078H55.544a1.544 1.544 0 010-3.088h66.894c-6.094-4.335-9.28-12.876-8.952-24.645.103-3.675 1.472-7.195 3.743-10.53-6.31-5.67-7.538-19.328-8.37-28.58-.08-.878-.155-1.72-.23-2.51-.925-9.62-2.312-19.246-3.654-28.556-3.574-24.812-7.27-50.469-2.128-76.897 2.008-10.319 3.66-20.885 5.257-31.103 1.655-10.583 3.365-21.527 5.462-32.104 4.239-21.391 20.54-30.409 35.93-36.408 17.772-6.93 33.433-11.71 47.877-14.61 2.117-.425 4.192-.825 6.248-1.221 5.76-1.11 11.2-2.158 17.009-3.645 5.713-1.463 19.155-6.468 19.29-6.518.16-.06.328-.093.498-.098.459-.01.927.176 1.289.528 1.246 1.214 3.182 8.232 4.31 15.102 2.439 3.299 5.505 6.986 8.72 7.451 1.21.174 2.392-.119 3.604-.895-.157-3.286-.668-15.09-.242-21.713.456-7.074 3.65-10.59 6.25-12.295 3.748-2.455 8.778-2.826 13.799-1.016 9.467 3.413 9.537 13.293 9.594 21.232.009 1.131.016 2.219.048 3.26 1.774.21 3.38.565 4.943.911 1.131.25 2.221.493 3.352.678-.04-5.952 1.123-16.785 9.428-22.046 2.861-1.814 6.331-2.208 9.687-2.59 3.892-.443 7.566-.86 9.942-3.385 3.212-3.414 2.473-8.532 1.688-13.951-.76-5.263-1.547-10.703 1.582-14.713 2.243-2.874 6.182-4.563 12.04-5.163 4.984-.508 10.422.83 16.18 2.246 7.2 1.772 14.583 3.59 20.822 1.42a12.93 12.93 0 00-.718-.535c-23.165-16.033-60.513-32.016-87.778-29.218-7.462.766-15.835 2.343-21.358 8.237-5.1 5.444-11.082 16.307-13.062 23.72-3.608 13.504-3.283 27.21-2.938 41.723.055 2.313.11 4.635.149 6.967a1.543 1.543 0 01-3.015.492 216.153 216.153 0 00-1.61-4.802c-2.127-6.189-4.327-12.59-4.319-19.55.049-42.15 13.2-68.548 38.03-76.34 26.192-8.219 61.156-3.386 93.528 12.925 7.35 3.704 15.674 10.796 16.997 19.597.83 5.508-1.296 10.883-6.146 15.544a19.173 19.173 0 01-2.657 2.14c7.862 10.448 8.054 30.728 5.256 43.009-.729 3.204-2.745 5.684-4.525 7.873-1.967 2.42-3.666 4.51-3.572 7.128.245 6.79 2.091 13.884 5.068 19.463 2.593 4.864 3.202 8.199 1.972 10.812-1.707 3.625-6.558 4.867-13.224 6.225-3.145.64-4.173 3.953-5.382 8.934-.3 1.233-.609 2.507-.983 3.659-.977 3.013-1.594 5.896-2.19 8.683-2.093 9.784-3.9 18.234-20.44 18.252h-.055c-30.323.002-57.867-29.358-63.31-56.43-1.693.451-4.036.2-6.912-2.282-1.773-1.53-3.574-3.813-5.219-6.519-2.3 3.623-4.69 7.069-6.8 10.111-1.45 2.092-2.704 3.898-3.717 5.455a393.88 393.88 0 01-3.21 4.827c-3.52 5.24-6.831 10.167-9.084 15.254.626 5.012 1.933 9.571 3.303 14.345 1.19 4.148 2.419 8.436 3.17 13.074.47 2.912.748 5.783.925 8.61 5.486 5.357 12.682 9.148 20.34 10.312 6.776 1.032 14.579.41 21.407-1.703 2.24-.693 7.718-3.136 21.103-10.829.962-.552.962-.552 1.103-.607a1.546 1.546 0 011.912 2.163c-5.08 9.663-8.186 20.48-10.917 31.222 1.854-2.124 3.965-3.715 6.323-4.76 1.527-2.145 3.104-4.278 4.77-6.236 2.037-2.392 4.416-4.61 6.716-6.754 4.559-4.249 8.866-8.263 10.802-13.556.219-.599.782-1 1.42-1.013.627-.04 1.216.366 1.457.956 1.965 4.778 2.55 10.898 3.068 16.299.093.96.182 1.902.278 2.813l.03.29c.553 5.263 1.031 9.807 1.691 15.27a1.543 1.543 0 01-2.391 1.468c-10.414-6.966-18.984-9.372-25.474-7.152-.123.042-.245.086-.366.132l-1.215 1.728c-3.085 4.4-6.25 8.912-10.164 12.664-.177.43-.53.744-.95.88a34.282 34.282 0 01-3.183 2.545c-7.915 5.577-16.506 7.099-24.842 4.4-5.185-1.678-10.062-4.926-14.212-9.291a56.327 56.327 0 001.006 3.375c4.345 12.756 7.53 25.56 9.736 39.144 2.733 16.835 5.645 38.59 4.502 60.068.56-.386 1.164-.752 1.818-1.094 6.72-3.518 13.843-5.127 20.733-6.684 2.555-.577 5.197-1.175 7.75-1.858a1.551 1.551 0 011.387.306c1.533 1.275 2.79 3.407 3.717 5.955a140.828 140.828 0 013.572-2.958c3.413-2.721 6.442-5.341 9.197-7.988l-26.928-10.41a1.545 1.545 0 01-.841-2.096l4.524-9.63a1.545 1.545 0 011.974-.776l28.142 11.352c.783-2.826 1.541-5.646 2.293-8.442 5.195-19.333 10.566-39.323 22.967-56.542.514-.712 1.177-1.747 1.944-2.943 4.097-6.392 10.953-17.088 18.125-15.194 2.253.595 3.776 1.837 4.528 3.69 2.085 5.141-2.937 13.487-5.636 17.97-.234.388-.448.744-.633 1.058-4.14 7.017-8.424 14.118-12.569 20.985-5.83 9.66-11.858 19.649-17.59 29.585-2.581 4.475-5.144 8.421-7.886 12.069l14.5 5.848c7.752-3.49 15.378-2.97 23.879-.904l.251-.002c4.45 0 13.634 1.757 21.428 4.785-2.269-3.665-4.937-7.108-7.494-10.411-5.769-7.447-10.75-13.878-9.493-20.584.799-4.248 4.089-8.055 10.06-11.64 17.729-10.642 23.532-30.591 25.28-45.452 2.012-17.127-.598-34.588-4.217-42.985-4.185-9.706-18.143-33.381-26.154-43.396a1.541 1.541 0 01.905-2.478c.706-.14 2.85-.565 14.907 12.719 8.083 8.904 15.191 18.444 19.504 26.174 8.39 15.04 7.881 28.085 7.39 40.7-.12 3.052-.232 5.934-.222 8.857.073 22.924-1.944 45.506-5.836 65.305-.21 1.076-.438 2.272-.685 3.565-1.972 10.353-4.905 25.753-9.96 36.692a277.491 277.491 0 0111.48 11.43 1.544 1.544 0 01-1.296 2.591c-.459-.05-10.53-1.184-17.012-3.164l-.596 1.808c-3.572 10.833-10.06 30.508-11.706 41.34h67.6c-13.623-20.057-14.617-58.148-15.351-86.275-.143-5.45-.277-10.6-.494-15.043-.6-12.257-1.206-24.68-1.541-37.184-3.208-1.092-5.39-2.507-6.161-4.404-.487-1.197-.631-3.121 1.447-5.493 1.12-1.28 2.617-2.239 4.477-2.873-.146-15.547.27-31.185 1.783-46.77 1.632-16.809 3.04-31.326 20.144-41.998 16.446-10.262 31.227-15.472 46.515-16.398.741-.046 1.39.43 1.582 1.134 3.916 14.313 11.679 25.145 21.3 29.723 7.397 3.52 15.599 3.341 24.372-.531 16.862-7.443 24.938-20.116 34.292-34.791a609.25 609.25 0 014.184-6.504 1.542 1.542 0 012.27-.347c2.49 2.043 5.13 2.529 8.07 1.483 6.183-2.2 12.09-10.568 15.303-17.43-.478-2.09-.79-4.178-.88-6.257-.151-3.46-.054-6.924.193-10.371-2.21.283-5.217 1.473-7.982 2.567-5.695 2.253-12.15 4.805-16.682 2.25-5.57-3.142-6.376-10.83-7.024-17.008-.172-1.637-.334-3.183-.569-4.448-1.274-6.88-2.818-11.518-7.719-17.772-8.628-11.013-20.555-15.364-36.456-13.305-17.238 2.234-31.451 13.435-36.21 28.536a206.814 206.814 0 00-.958 3.12c.141 2.168.304 4.35.47 6.548.996 13.311 2.027 27.076-1.883 40.521a1.544 1.544 0 01-2.686.537c-7.843-9.756-4.101-30.75.983-47.961-1.005-16.012-.735-32.257 9.626-47.132 9.563-13.73 24.992-22.69 43.444-25.232 19.513-2.69 39.48 2.548 53.405 14.009 21.067 17.338 18.081 38.55 15.193 59.06-.602 4.277-1.214 8.625-1.627 12.99.467.19.902.447 1.303.782 2.32 1.943 2.76 5.992 1.39 12.743-.337 1.657-1.051 3.793-2.077 6.133 1.502 5.888 4.361 11.923 7.153 17.813 2.34 4.942 4.762 10.052 6.307 14.957 1.431 4.543 2.465 8.695 3.11 12.719 1.42.647 2.963 1.24 4.645 1.78 5.315 1.702 11.07 2.726 16.637 3.716 9.812 1.745 19.958 3.55 28.486 9.126 14.648 9.578 16.731 34.314 14.559 48.604l-.384 2.515c-1.378 9.024-2.45 16.04-2.824 23.97 3.431.886 5.71 2.667 6.784 5.31 1.176 2.9 1.093 5.645-.247 8.16-1.212 2.271-3.41 4.191-6.198 5.83.247 4.361.53 8.669.815 12.892h198.385c.934-.113 6.677-.644 9.479 3.028 2.046 2.686 1.907 6.75-.417 12.082l-55.47 161.72a1.548 1.548 0 01-1.46 1.042H633.17v4.437h311.48c.85 0 1.545.692 1.545 1.544 0 .853-.695 1.544-1.544 1.544H631.626c-.852 0-1.544-.69-1.544-1.544v-7.525c0-.852.692-1.543 1.544-1.543h222.756l55.13-160.736.047-.118c1.837-4.19 2.115-7.311.818-9.026-1.559-2.057-5.372-2.023-6.708-1.832-.07.01-.146.015-.216.015H705.176c1.709 25.317 3.265 49.266-2.255 74.975a1.542 1.542 0 01-2.487.87c-6.322-5.172-17.188-7.395-29.548-8.052 4.536 4.36 9.588 5.85 15.394 7.562 3.085.91 6.277 1.851 9.642 3.3l1.23.527c11.313 4.84 23.426 10.428 27.482 15.173 4.285 5.012 7.29 12.57 4.422 16.705-.34.49-.789.969-1.38 1.376a37.575 37.575 0 007.669 4.536 1.543 1.543 0 01-.625 2.955h-93.685l-21.117 61.341a1.543 1.543 0 01-1.46 1.041z"/></svg>