<svg xmlns="http://www.w3.org/2000/svg" width="1000" height="452"><defs><linearGradient id="a" x1="26.74%" x2="75.412%" y1="93.581%" y2="93.581%"><stop offset="0%" stop-color="#A2BB68"/><stop offset="100%" stop-color="#D7478C"/></linearGradient></defs><path fill="url(#a)" fill-rule="evenodd" d="M585.857 35.985c5.424.342 11.34.63 17.645.812 26.359.764 64.7-.209 101.805-8.694l.904-22.957c-4.315 3.452-13.9 9.964-30.92 16.167-14.11 5.143-30.459 9.01-48.594 11.493-12.743 1.745-26.403 2.806-40.84 3.18zM696.493 330.91c10.576 29.92 19.452 51.266 21.438 55.976l104.995-3.47c-18.913-24.407-36.43-57.718-52.094-99.076-12.927-34.138-24.634-73.815-34.794-117.93-15.671-68.045-22.812-125.988-24.065-136.72a281.37 281.37 0 01-3.662.896L696.493 330.91zm-17.077 58.714h11.666l2.29-58.244c-9.377-26.578-20.056-59.811-28.457-94.158-11.294-46.153-16.333-85.273-14.98-116.274 1.418-32.524 9.918-56.215 25.313-70.655-11.07 5.016-28.874 13.975-47.978 27.135-18.399 12.673-34.383 26.708-47.513 41.714-16.379 18.721-28.334 39.017-35.532 60.323-18.453 54.614-6.175 116.23 36.5 183.152 3.49.181 18.387.747 36.651-1.394 12.198-1.431 23.487-3.774 33.559-6.96 12.53-3.965 23.19-9.257 31.679-15.724a1.549 1.549 0 012.48 1.408l-5.678 49.677zm18.79 20.741h117.267l-7.942-6.947-100.023.126-9.303 6.821zm-262.413 29.67c3.73.658 7.6 1.306 11.715 1.91 18.943 2.787 27.61-.007 40.733-4.232 4.67-1.503 10.036-3.234 16.669-4.94-2.844-.721-5.473-1.414-7.898-2.049-1.454-.38-2.828-.741-4.125-1.074-11.056-2.851-35.415 3.879-57.094 10.385zm-97.978 4.718c20.83 3.427 46.307 6 63.125 2.095 5.974-1.387 13.523-3.608 21.65-6.06-17.46-3.14-31.947-5.054-48.765.553-8.825 2.942-20.91 4.084-36.01 3.412zm42.255 7.182c-11.483 0-25.23-1.28-41.137-3.837-20.465-3.288-37.066-7.586-37.231-7.63a1.547 1.547 0 01-1.12-1.846 1.547 1.547 0 011.815-1.17c.457.09 45.976 9.106 70.446.95 19.146-6.381 35.088-3.458 55.274.243.32.06.643.116.966.176 24.453-7.41 51.679-15.499 64.577-12.172 1.301.333 2.68.697 4.14 1.08 3.982 1.043 8.525 2.236 13.657 3.468 2.404-.54 4.96-1.067 7.683-1.578 10.65-1.994 28.045-3.779 50.416-.95 8.752 1.105 15.5 2.559 19.225 3.465-3.75-8.778-6.697-21.082-6.836-21.663a1.552 1.552 0 011.508-1.909h34.848l14.13-6.182c.185-.08.387-.124.588-.13l41.935-.872.989-8.655H395.795l-13.065 19.163c-.29.424-.767.677-1.281.677h-49.597a1.546 1.546 0 01-1.439-.974l-5.41-13.528a1.544 1.544 0 01.193-1.498c.32-.43.842-.663 1.38-.62l39.385 3.425-11.818-54.228v41.524a1.55 1.55 0 01-2.311 1.35c-10.393-5.875-16.643-13.99-18.578-24.118-1.353-7.087-1.18-19.068 7.327-35.894a111.74 111.74 0 018.884-14.613c-10.867.362-20.361 3.608-28.256 9.672-6.942 5.334-12.7 12.854-17.113 22.358-6.382 13.743-8.086 27.75-8.474 31.95l48.335 12.304a1.55 1.55 0 01-.383 3.05H1.792a1.548 1.548 0 110-3.1h329.414l-37.614-9.573a1.549 1.549 0 01-1.164-1.583c.038-.703 1.007-17.402 8.822-34.274 4.62-9.98 10.687-17.906 18.032-23.56 9.212-7.089 20.431-10.583 33.337-10.366a1.55 1.55 0 011.18 2.52c-.057.07-5.586 6.974-10.483 16.672-4.463 8.843-9.305 21.898-7.017 33.863 1.612 8.425 6.565 15.344 14.744 20.602v-53.169a1.55 1.55 0 013.063-.33l15.331 70.34a1.549 1.549 0 01-1.648 1.873l-38.974-3.389 4.085 10.215h47.73l13.066-19.163c.289-.424.77-.677 1.28-.677h281.32l5.318-46.526c-8.264 5.743-18.262 10.49-29.778 14.13-10.266 3.246-21.759 5.627-34.16 7.078-21.09 2.47-37.769 1.372-37.937 1.361a1.553 1.553 0 01-1.198-.71c-43.554-68.022-56.085-130.77-37.247-186.501 7.337-21.706 19.507-42.364 36.172-61.4 13.309-15.204 29.5-29.412 48.12-42.232 31.684-21.813 59.86-32.196 60.142-32.298a1.55 1.55 0 011.315 2.792c-10.889 6.386-19.287 16.431-24.964 29.858-5.212 12.32-8.254 27.76-9.047 45.892-1.343 30.702 3.665 69.523 14.884 115.384 7.613 31.121 17.102 61.338 25.79 86.48l11.475-291.62c-15.284 3.453-31.873 5.916-49.445 7.338-16.7 1.35-34.32 1.77-52.376 1.244-30.741-.894-52.4-4.268-52.614-4.302a1.55 1.55 0 01-1.299-1.686 1.538 1.538 0 011.612-1.392c27.36 1.225 52.58.303 74.953-2.742 17.888-2.433 34.006-6.22 47.906-11.257C697.559 9.95 706.692.62 706.782.525a1.55 1.55 0 012.668 1.132l-1.013 25.711c1.498-.36 2.996-.734 4.487-1.12.436-.113.898-.03 1.27.225.37.257.61.66.659 1.108.067.624 6.957 63.255 24.212 138.167 10.13 43.973 21.795 83.508 34.672 117.509 16.07 42.43 34.073 76.288 53.512 100.638a1.55 1.55 0 01-1.162 2.515l-109.116 3.605a1.533 1.533 0 01-1.475-.934c-.16-.377-8.582-20.07-19.329-49.871l-2.048 52.025a1.549 1.549 0 01-1.55 1.487h-13.51l-1.182 10.351a1.551 1.551 0 01-1.506 1.374l-42.98.894-14.145 6.19c-.196.086-.408.13-.623.13H585.44c1.139 4.431 4.168 15.532 7.51 22.094a1.55 1.55 0 01-1.813 2.193c-.087-.026-8.879-2.557-22.032-4.215-12.115-1.526-30.514-2.603-49.393.932l-1.03.194c18.713 4.124 43.92 8.153 76.337 8.166 2.877-.591 35.189-7.02 51.289.135 14.842 6.596 36.015 6.49 49.636 4.393 4.026-.62 8.15-1.669 12.138-2.684 7.79-1.983 14.515-3.695 18.549-1.678 2.44 1.219 11.325 4.945 23.249 1.694 9.86-2.689 30.97-5.496 37.6-4.548 1.232.175 4.357-.034 8.311-.297 15.055-1.005 42.877-2.862 60.915 8.476 3.099-2.071 14.542-10.576 18.747-25.837h-47.611c-.375 0-.739-.137-1.02-.385l-7.808-6.83h-125.54a1.55 1.55 0 01-.916-2.798l13.525-9.92c.266-.196.586-.3.914-.302l101.116-.126c.377 0 .739.137 1.02.384l11.046 9.662h36.614l-16.567-18.146a1.552 1.552 0 011.144-2.596H998.28a1.55 1.55 0 110 3.1H844.881l16.568 18.148a1.546 1.546 0 01-1.144 2.593h-36.586l4.706 4.117h49.016a1.55 1.55 0 011.51 1.893c-1.33 5.847-4.568 14.546-12.453 22.782-4.721 4.927-8.85 7.342-9.024 7.443a1.55 1.55 0 01-1.632-.052c-17.128-11.366-44.917-9.51-59.845-8.515-4.458.3-7.402.496-8.957.274-5.751-.821-26.133 1.684-36.345 4.47-12.983 3.541-22.764-.57-25.45-1.913-3.003-1.5-9.512.155-16.4 1.91-4.06 1.034-8.256 2.103-12.432 2.744-14.034 2.159-35.91 2.244-51.364-4.623-15.586-6.93-49.215.028-49.553.1-.106.021-.212.031-.32.031-36.775 0-64.337-5.118-83.75-9.749-9.192 2.084-16.036 4.29-22.234 6.286-13.05 4.205-22.48 7.242-42.136 4.35-6.403-.94-12.203-1.984-17.792-3.007l-.979.297c-9.982 3.027-19.411 5.883-26.645 7.565-5.938 1.379-13.146 2.068-21.57 2.068z"/></svg>