<svg xmlns="http://www.w3.org/2000/svg" width="2000" height="981"><defs><linearGradient id="a" x1="26.74%" x2="75.412%" y1="93.581%" y2="93.581%"><stop offset="0%" stop-color="#A2BB68"/><stop offset="100%" stop-color="#D7478C"/></linearGradient></defs><path fill="url(#a)" fill-rule="evenodd" d="M388.545 45.039c.328 5.02.4 16.36-.43 29.065 3.362-2.928 7.497-6.672 12.099-15.2a26.415 26.415 0 002-4.743c-.182-.52-.352-1.05-.523-1.593-.543-1.713-1.104-3.485-2.126-4.795a3.517 3.517 0 01-.002-4.326 41.452 41.452 0 002.298-3.266c-.207-.446-.434-.86-.676-1.238-.673-1.051-2.102-2.805-4.085-2.677-2.684.166-5.849 3.427-8.555 8.773zm618.573-18.188c-10.089 0-19.007 2.804-26.312 8.35-12.274 9.322-19.11 25.625-19.249 45.904-.132 19.56 6.822 33.892 18.605 38.338 11.368 4.285 25.334-.988 37.842-14.138-5.646-5.687-8.874-13.75-8.968-22.672-.112-10.46 4.204-20.212 11.546-26.086a3.527 3.527 0 014.448.034c3.87 3.19 6.355 6.763 8.545 9.913 3.937 5.663 5.917 8.51 13.024 6.946a9.14 9.14 0 002.855-1.176c-.358-8.026-1.774-15.865-4.5-22.73-4.332-10.912-11.293-17.73-20.689-20.26-6.005-1.618-11.745-2.423-17.147-2.423zm-685.363 87.644c11.986 0 23.652 4.04 34.234 10.702 5.311-.391 10.433-1.923 14.282-5.478 9.934-9.175 12.713-57.81 11.172-75.059-.055-.629.06-1.26.331-1.831 5.165-10.794 10.948-13.349 14.89-13.592 3.246-.218 6.358 1.136 8.781 3.735 1.926-5.216 2.502-10.514 1.545-15.197-17.611-9.208-53.68-16.087-76.033-4.992-28.267 14.031-25.76 47.393-19.578 78.179.6 2.986 1.045 5.692 1.44 8.08 1.24 7.506 1.984 12.02 5.618 15.557a53.67 53.67 0 013.318-.104zm85.848-54.653a34.318 34.318 0 01-1.18 2.403c-5.374 9.957-10.377 14.305-14.033 17.478-5.353 4.648-7.356 6.388-4.055 25.838.82 4.826.282 10.372-.29 16.246-.736 7.607-1.448 14.951.53 20.787 1.421-1.925 3.209-3.624 4.98-5.307 2.727-2.59 5.546-5.27 7.89-9.143 3.64-6.02 4.168-11.395 4.725-17.088.592-6.064 1.204-12.326 5.748-18.765-.027-8.374-1.05-19.087-1.88-27.77-.118-1.237-.233-2.43-.338-3.568-.686-.358-1.4-.733-2.097-1.111zm551.218 80.626c9.618 0 18.624 1.629 27.426 3.223 10.468 1.892 20.166 3.648 30.038 2.676.46-7.959 5.808-11.667 11.03-15.289 4.102-2.845 8.34-5.786 11.643-11.139 5.89-9.543 9.972-24.658 10.524-39.984-.446.14-.904.26-1.37.365-11.72 2.565-16.295-4.008-20.33-9.808-1.5-2.159-3.037-4.369-5.002-6.416-4.307 4.611-6.768 11.297-6.69 18.462.086 8.16 3.393 15.33 9.07 19.678a3.529 3.529 0 011.366 2.442 3.523 3.523 0 01-.85 2.664c-15.104 17.346-33.051 24.331-48.007 18.688-14.66-5.53-23.318-22.343-23.165-44.973.155-22.511 7.979-40.788 22.033-51.462 13.018-9.889 30.156-12.352 49.565-7.123 11.498 3.1 20.282 11.558 25.41 24.467 2.15 5.421 3.568 11.299 4.355 17.352 2.042-4.26 3.25-9.163 3.65-12.859 2.676-24.817-18.653-33.72-40.73-40.713-23.333-7.39-43.987-3.442-58.164 11.121C944.24 38.665 939.8 67.152 949.31 94.417c1.971 5.653 4.503 9.603 6.737 13.09 5.801 9.05 8.756 15.357-3.034 30.36a38.407 38.407 0 01-2.672 3.047 78.69 78.69 0 018.48-.446zm-594.813-9.573c8.234 6.546 15.592 14.625 21.645 23.43.249.363.494.724.735 1.085a17.784 17.784 0 01-.641-3.449c-6.89-8.498-5.708-20.661-4.72-30.832.266-2.75.525-5.421.627-7.897-1.761 5.096-3.932 9.197-6.594 11.657-3.223 2.977-7.025 4.877-11.052 6.006zm1141.61 10.52c2.033 0 3.917.54 5.652 1.617 5.392 3.356 7.452 11.218 7.922 19.043 1.279-.454 2.55-.882 3.79-1.3 6.51-2.193 13.243-4.461 17.27-8.425 11.695-11.514 17.77-31.004 15.474-49.654-1.96-15.955-9.78-29.057-21.455-35.945-16.807-9.919-34.153-11.695-47.585-4.869-13.522 6.871-22.01 21.466-23.9 41.099-1.959 20.353 1.834 37.272 11.274 50.288 2.2 3.036 5.237 5.682 8.45 8.177.937-4.61 3.804-8.981 8.574-13.052 5.44-4.647 10.304-6.978 14.534-6.978zm-16.25 25.182c4.48 3.417 8.881 7.214 11.575 12.114.628-6.857 5.46-10.928 11.336-13.808-.162-7.149-1.622-13.953-4.741-15.893-3.181-1.981-8.802 2.116-11.87 4.736-4.928 4.209-6.995 8.382-6.314 12.76.003.03.009.06.014.09zm22.52 6.64c-3.42 2.452-4.611 5.42-3.601 10.075.196.901.42 1.732.674 2.502l.197-.718c.557-2.02 1.16-4.216 1.784-6.64.402-1.56.718-3.332.945-5.22zM538.692 144.3c-2.652 3.7-5.742 7.214-8.793 10.68-6.753 7.676-13.13 14.923-14.715 23.53-1.577 8.568.303 15.212 3.8 21.093 2.427-4.075 4.875-7.698 7.255-11.22 7.435-11.005 13.307-19.698 13.252-34.446-.01-3.006-.273-6.299-.799-9.637zm485.212 7.913c.365 1.431.886 3.034 1.577 4.84 4.07 10.658 13.363 14.539 24.122 19.033 3.562 1.487 7.245 3.026 10.777 4.866 16.456 8.575 32.35 17.906 42.283 30.186-12.857-27.474-31.538-60.61-57.177-68.384-7.453 5.016-14.624 7.93-21.582 9.459zM360.48 197.367c-8.507 5.574-11.133 20.912-11.029 37.705 1.2-3.138 2.654-6.318 4.167-9.626 4.323-9.449 8.775-19.182 6.862-28.08zm159.984 15.91c-2.11 7.388-1.792 15.29.897 22.679 1.63-.22 3.281-.458 4.944-.697 3.137-.45 6.348-.91 9.578-1.28-1.956-5.811-6.663-10.995-11.599-16.432a278.026 278.026 0 01-3.82-4.27zm592.38 22.14c.475.189.953.384 1.42.583a65.23 65.23 0 01-1.698-3.034c.115.807.208 1.625.279 2.451zM515.33 120.163c-2.634 11.176-6.998 22.017-11.61 33.478-7.018 17.433-14.273 35.462-14.982 54.84-.453 12.387 1.569 20.423 6.185 24.566 4.352 3.907 11.28 4.386 19.258 3.72-3.188-9.872-2.857-20.439 1.09-29.998-5.509-7.753-9.328-17-7.02-29.532 1.936-10.52 9.264-18.85 16.352-26.905 4.632-5.265 9.096-10.34 11.794-15.7-1.867-5.71-4.607-10.849-8.285-14.101-2.797-2.472-5.884-3.627-9.426-3.516-.887.996-1.617 1.621-2.28 2.19-.356.305-.698.599-1.076.958zm-77.804 116.672c10.618 0 21.66 1.174 32.49 2.324 8.164.868 16.48 1.75 24.588 2.123a20.025 20.025 0 01-4.396-2.996c-6.266-5.626-9.052-15.46-8.518-30.062.753-20.607 8.243-39.215 15.486-57.21 4.64-11.528 9.023-22.417 11.503-33.39.14-.613.44-1.176.87-1.634.911-.97 1.629-1.585 2.262-2.127.804-.69 1.386-1.189 2.33-2.404a3.528 3.528 0 012.37-1.338c6.133-.722 11.604 1.005 16.277 5.138 2.422 2.141 4.45 4.775 6.136 7.68-1.129-13.376-15.54-27.475-26.403-32.983-14.2-7.198-27.832-8.701-40.512-4.467-22.268 7.433-36.414 30.573-42.864 43.705-.922 1.877-1.83 3.84-2.749 5.823-4.935 10.667-10.037 21.696-19.185 24.677-3.592 1.173-7.462.951-11.537-.658.016.03.036.06.052.088 5.464 7.08 7.35 17.118 7.403 28.37 2.476 4.67 5.306 9.395 8.878 14.14a814.362 814.362 0 004.63 6.084c8.047 10.51 12.288 16.046 16.869 29.177 1.333-.041 2.67-.06 4.02-.06zm1092.92-36.878c10.706 5.263 21.386 9.776 29.116 13.042 6.365 2.689 11.39 4.812 14.112 6.295 12.826 6.99 23.162 15.64 30.907 25.772-7.728-24.804-26.042-45.6-54.465-47.91-4.046-.332-9.073.693-14.394 1.778-1.69.343-3.462.704-5.276 1.023zm-1127.922.431c-.795 8.9-2.253 18.115-3.646 26.92-1.075 6.785-2.112 13.342-2.772 19.264 6.31-3.37 12.958-5.99 19.95-7.598 3.282-.754 6.666-1.28 10.124-1.62-3.959-10.75-7.781-15.741-15.146-25.357a897.261 897.261 0 01-4.664-6.131 101.261 101.261 0 01-3.846-5.478zm1110.73-.558c-.251 6.154 2.291 11.223 10.406 20.75 8.063 9.469 24.71 14.733 40.809 19.824 15.042 4.757 30.411 9.619 40.45 18.166-7.408-13.43-19.024-24.591-34.623-33.094-2.415-1.316-7.3-3.38-13.481-5.99-13.877-5.862-28.167-12.157-40.483-18.91a20.55 20.55 0 01-3.079-.746zM395.438 255.047a70.24 70.24 0 00-.044 1.892c-.027 2.957.007 5.721.106 8.304 11.231-6.807 22.258-14.324 30.84-20.825-2.99.312-5.898.775-8.703 1.42-7.822 1.797-15.222 5.014-22.199 9.209zm-28.638 24.063c.236.346.466.688.695 1.03 6.525-2.837 13.792-6.62 21.167-10.857-.203-2.959-.31-6.133-.328-9.546-7.751 5.586-14.93 12.273-21.534 19.373zm-13.747-6.843a238.3 238.3 0 001.853 9.623c.952-1.118 1.92-2.236 2.9-3.346a169.122 169.122 0 00-4.753-6.277zM564 260.926c.803 0 1.587.273 2.219.783 8.01 6.471 16.775 17.63 22.456 29.985a12.852 12.852 0 003.447-1.342c10.131-5.68 8.087-28.31 6.971-38.434-1.17-1.02-1.765-1.668-2.625-2.635-.203-.227-.427-.478-.688-.765-20.27-4.75-45.166-3.96-68.526-1.877 8.616 11.214 22 16.55 36.2 14.327.183-.03.365-.042.546-.042zm-167.939 12.206c1.182 10.707 3.95 17.431 8.631 21.494 6.894 5.976 19.38 7.089 41.747 3.725 11.431-1.72 23.465-4.884 36.206-8.237 23.315-6.132 47.425-12.473 70.168-10.367 6.473.599 12.27 3.698 17.877 6.693 3.438 1.838 6.672 3.565 9.8 4.594-5.09-9.674-11.963-18.024-17.554-22.882-17.012 2.092-32.882-4.992-42.691-19.16a50.013 50.013 0 01-1.05-1.58c-1.577.16-3.148.324-4.703.491-14.38 1.534-30.06-.13-45.225-1.741-11.252-1.194-22.775-2.429-33.555-2.268a3.52 3.52 0 01-1.313 3.2c-9.594 7.577-23.835 17.445-38.338 26.038zm672.645-17.758c-1.567 2.958-2.736 12.35-3.533 18.768-.339 2.712-.679 5.454-1.06 8.088-1.174 8.147-1.204 16.227-.619 24.381a233.704 233.704 0 0114.631-20.744c-.014-.315-.024-.63-.037-.943-.3-7.419-.58-14.425-3.429-20.117-3.114-6.218-5.027-8.563-5.953-9.433zm16.583 32.825c.38 7.606 1.21 14.683 5.516 19.99 5.12-2.206 11.601-5.538 17.944-9.378 1.049-2.823 2.773-5.34 5.287-7.483a3.525 3.525 0 013.835-.488c.536.26 1.067.53 1.594.806 6.722-5.018 12.013-10.253 13.37-14.681 2.448-7.99-3.843-18.554-10.34-28.352a63.737 63.737 0 00-9.661-5.48c-.533 6.367-2.343 13.33-5.686 20.976a3.515 3.515 0 01-.783 1.125c-7.654 7.371-14.688 15.045-21.076 22.965zm-531.76 22.33c-.866 0-1.252.497-1.48.789-2.413 3.106-2.607 11.27-.615 18.893l.025-.083c1.685-5.939 3.424-12.063 4.253-18.89-.952-.526-1.658-.709-2.183-.709zm169.917-42.222c-.271 0-.536.025-.791.08-2.568.547-5.512 4.172-8.513 10.483-4.703 9.885-2.932 23.357-1.222 36.385.838 6.381 1.634 12.442 1.682 18.04a328.26 328.26 0 002.222-5.068c4.588-10.655 14.132-32.828 14.11-45.96-.008-4.77-1.079-8.796-2.787-12.18-1.744-1.106-3.324-1.78-4.7-1.78zm839.285 32.647c-2.297 0-3.666.898-4.586 1.729-5.462 4.93-6.778 18.694-6.02 34.524 1.38-3.564 2.862-7.079 4.327-10.546 3.689-8.74 7.196-17.044 8.84-25.387-.964-.225-1.812-.32-2.561-.32zM316.171 121.783c-6.113.803-12.335 2.882-18.574 6.52-7.974 4.648-17.185 12.162-26.093 19.427-5.924 4.83-11.519 9.394-16.856 13.246-13.63 9.838-24.722 22.184-34.677 34.061-16.844 20.094-26.84 44.636-36.505 68.37-4.842 11.887-9.848 24.179-15.687 35.908-1.538 3.086-3.282 6.157-4.969 9.128-7.176 12.639-13.374 23.552-5.612 35.187 2.197 3.293 4.577 5.305 7.17 6.498 3.208-1.98 7.022-3.096 11.405-3.332 3.258-.174 6.263-.05 9.019.373.023-.306.086-.61.19-.906 1.271-3.582 2.266-7.389 3.229-11.07 3.697-14.166 7.521-28.81 27.234-33.46a3.53 3.53 0 012.195.19c7.788 3.324 19.399 8.275 23.893 19.097.758.364 1.303.61 1.721.796 1.984.889 2.32 1.187 4.366 3.243l.113.113c41.67 10.366 72.844 2.004 92.671-24.855 2.975-4.03 6.133-8.186 9.476-12.345a3.518 3.518 0 01-1.29-2.006c-2.037-8.83-18.971-86.57 12.936-96.836a3.53 3.53 0 014.323 1.963c5.441 12.67-.54 25.744-5.817 37.28-2.063 4.51-4.013 8.773-5.219 12.777-4.789 15.893-3.574 17.434 3.169 25.98 1.389 1.762 2.935 3.721 4.676 6.097 7.837-8.3 16.478-16.045 25.945-22.21.554-7.412 1.899-15.917 3.306-24.809 1.943-12.278 4.022-25.408 4.186-36.945-1.744-3.38-3.322-6.717-4.879-10.01-3.424-7.237-6.658-14.074-11.378-20.94-6.703-9.752-15.498-19.16-25.605-26.036-9.338.25-18.471-2.189-23.475-3.812-6.547-2.127-11.203-4.27-14.587-6.682zm374.813 129.853c-13.492 0-27.54 4.712-35.3 15.759-14.947 21.274-2.482 46.048 9.573 70.007 2.391 4.75 4.74 9.417 6.87 14.014 5.672-1.396 11.35-2.424 16.842-3.245 1.608-.24 3.1-.452 4.485-.65 7.034-1.001 10.987-1.563 13.901-3.486.048-2.107.087-4.115.124-5.995l.063-3.163c.115-5.537-.724-11.934-1.615-18.706-1.842-14.04-3.75-28.56 1.844-40.322 4.15-8.723 8.41-13.284 13.411-14.35l.055-.011c-4.884-4.126-10.482-6.357-13.896-7.43-5.004-1.573-10.63-2.422-16.357-2.422zm-467.559 99.56c1.924 0 3.853.1 5.776.363 12.792 1.747 22.998 6.453 32.868 11.005 4.39 2.025 8.93 4.117 13.682 5.948 31.56 12.16 50.042 1.741 75.08-23.158 23.31-23.184 28.752-32.615 13.928-56.504-3.12 1.171-6.05 2.094-8.715 2.708-3.525 4.355-6.847 8.716-9.962 12.937-21.54 29.178-56.47 38.609-101.031 27.266a3.524 3.524 0 01-1.626-.925l-.811-.817c-1.382-1.39-1.382-1.39-2.245-1.776-.678-.305-1.659-.743-3.239-1.545a3.515 3.515 0 01-1.74-2c-2.877-8.406-12.171-12.718-19.427-15.831-14.62 3.946-17.55 15.164-20.929 28.102-.857 3.282-1.738 6.66-2.839 9.994 4.35 6.028 11.11 5.758 21.423 4.823 3.216-.292 6.505-.59 9.807-.59zm891.356-47.854c-3.396 16.539 20.01 48.462 36.258 70.62 7.337 10.006 13.673 18.648 16.403 24.233 1.527 3.12 2.93 6.07 4.262 8.873-.062-5.517-.387-10.274-1.3-13.58-9.666-35.055-24.064-76.64-50.554-93.478a143.393 143.393 0 01-5.07 3.332zm-718.33 33.76c-.074 0-.146.001-.22.003-5.546.185-9.504 7.323-10.079 18.185-.598 11.255 4.36 25.08 9.155 38.444 1.878 5.234 3.688 10.283 5.129 15.067 6.624-18.033 11.238-35.57 9.098-53.331-1.446-12.002-7.772-18.369-13.083-18.369zm441.97-28.1c-14.707 29.814-19.767 80.99-18.715 106.673 19.783-32 19.86-69.67 18.715-106.673zM619.21 409.64c3.67 2.611 10.066 5 15.796 7.142 4.798 1.792 9.223 3.445 12.663 5.319 1.709-6.536 4.99-11.896 10.446-15.484a3.541 3.541 0 013.759-.076c3.873 2.33 6.442 4.79 8.341 7.41l.556-2.709c2.142-10.413 4.164-20.249 3.276-30.483-.58-6.67-2.837-13.69-5.93-20.999-22.204 6.527-42.013 19.631-48.907 49.88zm56.203 14.873c.32.801.65 1.63 1.009 2.49a55.266 55.266 0 012.817 8.827c22.707-12.331 26.831-54.398 27.887-83.867-3.232 1.134-7.248 1.76-12.675 2.532-1.372.196-2.846.405-4.438.643-4.99.745-10.031 1.645-15.007 2.81 3.14 7.565 5.436 14.948 6.067 22.204.979 11.253-1.245 22.059-3.394 32.508-.802 3.896-1.615 7.85-2.266 11.853zm875.312-44.308c-.463 9.122-.255 18.437.265 28.815.746 14.858 3.167 26.584 6.75 37.008 2.302-1.755 4.896-3.203 7.779-4.336-2.608-8.653-4.659-17.726-6.575-26.192-1.437-6.35-2.792-12.345-4.214-17.31-.07-.238-1.92-7.454-4.005-17.985zm-372.154 40.806c5.318 9.99 11 17.925 21.39 26.162-1.217-5.853-3.649-12.03-6.285-18.72-.477-1.216-.96-2.441-1.44-3.677-5.029-12.946-8.975-31.038-13.152-50.192-8.359-38.336-18.076-82.903-40.33-110.618 1.737 5.124 2.31 10.21.824 15.06-1.684 5.499-7.032 11.243-13.703 16.54 27.073 18.943 41.586 60.727 51.33 96.052 1.888 6.846 1.668 17.288 1.366 29.393zm-592.797-80.658c-8.761 21.201 6.598 73.888 19.385 117.49 9.242-37.362 8.87-101.071-15.88-121.956a34.128 34.128 0 01-2.262 3.022c-.418.498-.832.979-1.243 1.444zM817.82 429.22c5.076 5.96 13.148 20.006 20.923 36.834 3.178-14.972 8.631-29.305 14.261-44.094 4.884-12.835 9.934-26.106 13.397-39.965 2.303-9.221 4.057-18.664 5.755-27.796 1.668-8.971 3.392-18.249 5.64-27.347 1.125-4.555 2.617-8.795 3.934-12.535 4.86-13.804 7.078-20.104-8.978-26.31-7.866-3.042-14.827-1.979-21.282 3.244-2.253 1.824-4.369 4.076-6.356 6.691.035 1.088.072 2.178.11 3.27 1.456 43.734 2.96 88.96-25.326 126.676a3.535 3.535 0 01-2.078 1.332zm576.575-17.503c-1.768 0-4.395 2.22-7.197 6.124-3.881 5.408-3.347 13.035-2.217 18.485 2.822 13.602 11.606 26.234 18.123 30.14.137.08.268.172.391.269 1.227-5.41 1.924-10.977 1.881-16.801-.104-13.733-4.628-36.297-10.427-38.136a1.896 1.896 0 00-.554-.08zm-216.069 22.628c-.081 18.885 1.566 37.64 12.998 40.21.418-.395.817-.787 1.201-1.182-.04-.104-.083-.204-.12-.308a3.522 3.522 0 01.282-3.062 3.524 3.524 0 012.583-1.671c.475-.062.95-.099 1.427-.118 2.491-3.835 3.7-7.71 4-11.695-10.436-7.385-17.09-14.405-22.37-22.174zm414.639 39.02a20.178 20.178 0 008.075 2.297c-.975-5.907-2.405-8.314-3.124-8.83-.43.194-2.233 1.283-4.951 6.532zm4.915-13.62c.393 0 .79.031 1.19.1 4.673.79 7.73 6.147 9.14 15.967 7.413-.278 12.886-2.037 16.34-5.26-3.33-13.014-11.298-22.082-31.372-24.376-7.226-.828-13.445-.759-18.713.213 3.26 9.22 7.328 17.36 12.764 22.71 3.438-6.319 6.92-9.354 10.651-9.354zm-538.815-130.711c-21.022 42.648-25.949 89.765-13.215 136.176 1.46 5.32 3.403 11.345 5.67 18.02 8.77-16.09 9.194-41.368 9.552-62.81.178-10.63.347-20.673 1.52-28.395 3.022-19.887.128-38.907-2.668-57.302-.287-1.89-.577-3.786-.859-5.689zm144.485 147.58c2.897 2.609 6.86 5.148 11.41 7.521-3.853-3.285-7.732-5.988-11.41-7.522zM566.38 352.72c4.58 12.558 4.821 30.969 5.028 46.614.093 7.11.174 13.251.66 17.578 2.98 26.58 6.876 44.912 18.911 65.628l.511.882c.864 1.488 1.744 3 2.63 4.536.846-2.051 1.67-4.03 2.456-5.922 1.946-4.685 3.662-8.812 4.83-11.911-.913-3.135-1.844-6.31-2.778-9.498-11.896-40.565-24.98-85.175-21.806-112.113-3.879 2.662-7.371 3.887-10.441 4.206zm993.999 100.28c4.094 9.937 9.239 18.982 14.922 28.973 1.377 2.423 2.768 4.867 4.177 7.378a114.72 114.72 0 013.052-9.53 113.996 113.996 0 011.54-3.974c-7.337-6.286-12.463-16.27-16.388-27.49-2.81 1.172-5.24 2.718-7.303 4.644zM204.74 392.028c-2.127 11.95-6.076 24.467-9.456 35.177-1.852 5.866-3.45 10.931-4.45 14.957-.916 3.681-2.28 7.784-3.725 12.128-4.302 12.935-9.572 28.782-3.856 38.4 14.83-11.19 18.068-47.567 19.849-67.583.181-2.036.35-3.94.518-5.675.77-8.007 1.234-17.992 1.12-27.404zm585.28 47.889c1.72 4.82 3.46 10.096 5.27 15.725 2.543 7.897 4.942 15.356 7.014 19.526 3.505 7.064 7.566 12.445 11.9 17.62a56.64 56.64 0 00-.998-8.8c-.836-4.285-2.622-8.95-4.51-13.89-5.112-13.357-11.472-29.984 3.158-42.377a3.521 3.521 0 011.881-.813 3.555 3.555 0 01-.141-.567c-.423-2.618-.728-5.904-.901-9.716a31.495 31.495 0 01-2.558 8.406c-4.133 8.954-12.205 14.76-20.115 14.886zm540.578-7.191c-11.74 0-24.203 8.3-28.01 27.966-2.749 14.187 1.02 24.355 6.536 33.864 3.659-.3 7.4-.428 11.246-.264 21.546.9 34.865.151 37.11-25.583 1.922-22.041-10.803-33.98-23.44-35.744a24.897 24.897 0 00-3.442-.24zm-676.593 13.93c1.78 14.3 6.31 30.478 10.158 44.21.416 1.482.825 2.941 1.224 4.375 5.445-17.43 9.5-34.577 8.21-49.817-.796.18-1.607.338-2.434.47-.99.16-2.007-.109-2.788-.744a3.532 3.532 0 01-1.296-2.578c-.259-5.943.235-11.672 1.065-17.25-1.97-4.93-3.515-8.271-7.936-11.453-3.523 3.136-5.517 7.808-6.405 13.47 3.198 5.304 2.405 12.336.202 19.318zM546.86 362.669c-15.337 29.086-4.375 67.449 6.284 104.75 3.154 11.036 6.21 21.731 8.46 31.863-1.633-12.61-3.707-25.537-5.733-38.192-2.778-17.333-5.652-35.26-7.423-52.401-1.11-10.737-1.216-21.172-1.32-31.261-.053-5.075-.103-9.91-.268-14.76zm685.733 128.992c11.616 4.119 23.378 6.934 30.182 7.485 5.51.446 10.742.215 15.924-.343-3.135-3.096-8.021-6.012-15.127-9.151l-.62-.275c-20.046-8.86-37.629-16.632-55.65-28.38a30.08 30.08 0 01-3.037 8.402c9.793 3.288 19.725 12.835 28.328 22.262zm-142.33-254.052c-33.018 0-54.384 54.847-64.856 81.73-19.582 50.257-27.303 108.757-20.658 156.487 1.27 9.118 3.257 17.883 5.759 26.365 10.921-.55 20.516-2.265 27.548-5.587 3.265-1.545 6.058-3.668 8.45-6.262-3.02-8.737-5.604-16.51-7.457-23.269-14.116-51.445-7.332-103.68 18.372-150.15-1.387-11.78-2.012-23.733-.287-35.698.374-2.588.707-5.284 1.04-7.95 1.75-14.067 3.015-24.23 9.275-25.304 4.353-.745 8.276 3.215 13.52 13.688 2.505 5.004 3.394 10.54 3.813 16.136a258.899 258.899 0 0116.178-17.138c3.177-7.427 4.819-14.088 5.043-20.17a66.31 66.31 0 00-11.839-2.625 30.338 30.338 0 00-3.901-.253zm-153.845-86.223c-2.285 1.374-4.612 2.692-6.917 3.997-6.72 3.805-13.671 7.74-18.843 12.717-23.64 22.75-27.35 55.903-11.029 98.534 2.05 5.352 4.657 10.548 7.177 15.576 5.088 10.145 10.351 20.64 11.568 33.243 1.433 14.85-1.857 29.177-5.04 43.03-1.824 7.947-3.713 16.165-4.614 24.217-1.144 10.225-4.155 21.393-7.345 33.215-10.526 39.028-15.206 65.236 14.448 73.59 22.47 6.334 58.391 13.041 87.392 12.887-2.345-8.229-4.217-16.734-5.451-25.597-6.803-48.866 1.073-108.682 21.068-160.009 11.53-29.595 35.525-91.174 76.239-85.909a75.887 75.887 0 0110.447 2.09c-3.144-18.282-20.693-31.331-48.4-45.77-3.265-1.703-6.81-3.182-10.235-4.613-11.23-4.69-22.84-9.54-27.988-23.019-.872-2.278-1.505-4.354-1.934-6.253-11.046 1.094-21.602-.813-31.97-2.69-12.186-2.206-24.785-4.486-38.447-2.055-3.101.551-6.54 1.567-10.126 2.82zm-327.596 318.98c4.302 14.803 8.063 28.305 10.348 39.389 4.285-10.973 8.959-21.594 13.764-32.508 1.74-3.956 3.508-7.974 5.294-12.088.64-1.479 1.485-3.208 2.464-5.213 1.892-3.885 4.365-8.96 6.104-13.935-.649-5.81-.848-11.356-.388-16.437-2.763-2.045-8.832-4.31-13.871-6.196-5.39-2.013-10.909-4.075-15.178-6.57-.825 21.531-4.39 41.558-8.537 53.558zm826.163-163.4c-.912 0-3.18.492-7.841 3.944-10.026 7.426-10.054 26.865-10.075 42.487-.007 5.26-.014 10.232-.4 14.347-4.443 47.465-3.41 87.606 3.452 134.22 1.29 8.74 2.897 16.137 4.925 22.376.633-7.15.698-13.61-.353-18.624-9.57-45.718-16.133-95.201.508-147.277.26-.808.635-1.935 1.097-3.313 2.075-6.202 5.936-17.746 8.306-28.317 3.891-17.357.92-19.742.889-19.765-.006-.002-.154-.078-.508-.078zM397.997 434.28c-10.015 24.901-19.742 50.563-14.846 75.829 1.06 5.46 3.587 10.348 7.175 14.727 5.716-29.569 10.542-61.047 7.671-90.556zm200.552 61.489c5.492 9.917 10.81 20.608 14.24 31.63.465-1.406.939-2.806 1.418-4.193-.985-10.148-4.84-25.203-9.625-42.064-.478 1.155-.978 2.356-1.493 3.596-1.386 3.335-2.929 7.046-4.54 11.031zm643.171 6.209c1.804 2.058 3.415 3.868 4.847 5.37 3.458 3.624 8.054 7.585 12.923 11.78 5.62 4.844 11.367 9.795 16 14.766.217-.17.427-.326.632-.474 5.26-12.898 8.569-21.29 6.663-28.016-6.573.856-13.381 1.347-20.578.76-4.565-.367-12.055-1.824-20.487-4.186zm-420.656-1.164c2.907 3.435 5.827 7.07 8.592 11.216 5.309 7.964 7.878 16.15 10.26 24.098-.393-8.411-1.474-16.999-2.363-24.066-.423-3.374-.81-6.459-1.077-9.109-.846-8.392-.695-16.4.182-24.169-8.032-18.824-17.068-35.66-22.75-43.197-7.479 8.846-3.168 20.122 1.376 31.997 1.913 5.002 3.893 10.174 4.845 15.06 1.235 6.33 1.369 12.352.935 18.17zm762.051 10.387c-.382 7.611.099 15.6 1.407 24.413.198 1.319.42 2.666.662 4.04.379-.487.728-.99 1.042-1.513 3.73-6.184 2.718-15.18-3.012-26.738a10.694 10.694 0 01-.099-.202zm-967.169 29.937c.153 1.074.28 2.144.383 3.22.116-.004.229-.005.343-.007l.228-.953c.859-3.599 1.238-5.183.439-7.006-.474 1.567-.94 3.15-1.393 4.746zm-50.67-4.778a220.81 220.81 0 01-.66 11.893c.888-3.326.95-7.228.66-11.893zm990.198-76.848c-9.761 18.603-1.027 53.256 6.76 84.145.541 2.155 1.079 4.28 1.602 6.38 5.835-1.194 11.042-2.856 15.141-5.207a187.035 187.035 0 01-1.432-8.182c-2.02-13.611-2.175-25.395-.336-36.813-2.735-5.054-5.413-9.764-8.04-14.383-5.096-8.96-9.778-17.185-13.695-25.94zm-170.08 37.757c-1.139.15-2.283.284-3.422.416-5.145.597-10.468 1.216-14.74 3.203-8.698 4.04-13.674 8.244-14.792 12.489-1.502 5.715 3.514 12.711 9.324 20.816.696.972 1.401 1.956 2.11 2.958a81.54 81.54 0 018.284 14.757c2.017-17.414 9.124-32.599 16.214-47.282a733.718 733.718 0 00-2.978-7.357zm45.263 39.724c11.912 19.632 33.189 20.326 71.954 17.19 5.896-.477 12.718-.657 19.94-.845 11.078-.289 23.375-.613 34.312-2.122-.485-1.933-.975-3.882-1.469-5.838-8.719-34.595-18.573-73.686-3.195-93.81-4.395-11.724-7.386-24.915-8.251-42.198-.993-19.735-.871-35.772 2.726-53.903-2.926-23.156-3.384-48.869 6.742-58.009 3.05-2.754 8.511-5.312 17.168-1.866a3.521 3.521 0 012.187 3.768c-1.459 10.23-5.71 20.3-9.821 30.039-3.523 8.346-7.166 16.976-8.975 25.56l-.189.911c1.996 16.055 5.216 31.624 7.725 40.383 1.477 5.155 2.854 11.247 4.313 17.695 1.884 8.334 3.914 17.304 6.462 25.754 6.23-1.287 13.47-1.462 21.694-.523 20.213 2.314 30.093 11.052 35.026 22.744 2.172-11.112-3.064-27.47-7.446-41.143-2.103-6.573-4.092-12.78-5.196-18.05-5.706-27.269-3.987-60.129-2.465-89.117.189-3.63.374-7.179.54-10.623.377-7.832-.14-15.282-1.531-22.31-.148.03-.3.049-.453.06-1.82.101-3.387-1.13-3.705-2.892-3.064-17.02-24.118-23.68-46.412-30.728-17.049-5.391-34.677-10.968-44.052-21.974-11.346-13.322-13.25-20.32-11.7-29.499a16.29 16.29 0 01-1.392-1.692c-.63-.41-1.251-.822-1.86-1.236-.05.356-.11.717-.174 1.08a3.526 3.526 0 01-1.559 2.332c-11.42 7.371-25.31 9.275-38.744 11.115-18.793 2.576-36.54 5.007-46.884 21.604-5.342 8.568-4.845 17.635-4.321 27.233.444 8.131.906 16.539-2.19 24.993-3.416 9.337-9.735 16.514-15.848 23.453-7.07 8.03-13.75 15.615-16.75 26.562-7.487 27.32-5.542 55.963-3.66 83.664.456 6.717.927 13.665 1.26 20.492.9 18.601 8.116 36.656 15.308 54.137 3.156-.744 5.69-1.887 7.187-3.961 1.95-2.698 2.338-7.34 1.157-13.802-8.649-6.076-17.273-20.522-20.041-33.865-2.031-9.79-.86-18.094 3.389-24.015 5.277-7.352 10.52-10.267 15.617-8.653 4.455 1.41 7.624 6.2 9.873 12.155.152-16.185 1.057-32.68 2.693-50.156.354-3.793.361-8.605.368-13.701.023-17.198.055-38.6 12.926-48.133 2.7-2 10.918-8.093 16.692-3.91 6.914 5.009 4.989 21.238-6.649 56.015-.447 1.34-.814 2.436-1.065 3.223-16.147 50.522-9.695 98.92-.322 143.694 1.826 8.732.83 20.18-.94 32.718zm-584.298 17.32c.238.499.481.999.735 1.495 2.532-.938 4.253-2.905 5.337-6.048 3.886-11.272-1.35-33.119-9.417-55.009.067 2.47.224 4.967.478 7.496.262 2.6.643 5.627 1.06 8.938 1.657 13.184 3.743 29.773 1.807 43.129zm-664.223-27.65c1.804 8.77 5.445 20.915 8.236 29.827.785-1.007 1.439-2.26 1.963-3.763.846-2.421-.136-8.19-3.301-15.333l-.086-.051a3.514 3.514 0 01-1.464-1.703c-1.368-3.372-3.193-6.293-5.348-8.978zm277.34 30.408c5.62 1.262 10.597 2.245 14.489 3.01 18.312 3.612 52.107 8.726 72.69 2.406 2.247-.688 4.24-1.409 6.001-2.17-3.992-3.07-8.477-5.584-13.448-7.532-22.523-8.823-52.414-8.166-74.38 1.629a71.019 71.019 0 00-5.352 2.657zm360.4-46.552c-.492 3.032-1.062 6.024-1.624 8.989-1.457 7.649-2.963 15.558-3.042 23.841-.115 11.811 4.658 27.754 10.39 29.522 3.435 1.056 7.596-4.251 9.776-7.509 1.777-2.655 2.951-6.111 3.68-10.062-2.4-5.466-4.015-10.868-5.593-16.138-2.43-8.128-4.727-15.803-9.677-23.228a94.148 94.148 0 00-3.91-5.415zm766.93 37.477c.26 1.266.529 2.548.798 3.847 1.548 7.418 3.172 15.203 4.08 22.84 11.347-26.85 10.904-53.379 10.394-83.703l-.044-2.69c-.033-2.01-.107-3.845-.216-5.517-.43-.027-.866-.053-1.307-.085-3.85-.276-7.32-1.26-10.452-2.828-.296.752-.6 1.546-.908 2.388-2.03 5.525-3.546 10.933-4.567 16.414a364.918 364.918 0 014.95 9.614c6.869 13.854 7.787 25.125 2.732 33.5-1.431 2.372-3.274 4.43-5.46 6.22zM564.318 561.43c4.29 4.665 7.876 10.097 10.74 16.275-6.387-21.376 5.245-55.352 15.687-81.45a925.543 925.543 0 00-5.353-9.297l-.514-.882c-13.906-23.942-17.31-46.006-19.82-68.38-.523-4.672-.606-10.972-.701-18.269-.215-16.226-.496-37.545-6.22-48.084a17.336 17.336 0 01-2.323-1.31 65.604 65.604 0 00-1.85 2.097 59.735 59.735 0 00-.158 7.677c.254 5.829.314 11.785.373 17.547.103 9.929.207 20.198 1.282 30.61 1.753 16.945 4.61 34.773 7.372 52.013 3.218 20.077 6.545 40.836 8.093 60.096.198 2.453.422 4.796.635 7.038 1.386 14.486 2.491 26.031-7.243 34.32zm390.292-26.77c-3.95 0-5.626 1.577-6.554 2.804-2.768 3.657-5.742 14.488 4.913 46.024l.659-1.57c4.768-11.335 14.687-34.926 9.167-43.737-1.35-2.157-3.74-3.3-7.3-3.497a15.492 15.492 0 00-.885-.025zm-76.392-39.55c-19.374 9.968-15.416 54.724-8.19 90.311 1.774-6.892 4.38-14.185 7.102-21.809 8.88-24.854 18.053-50.53 1.088-68.502zm717.686 87.387c4.46 3.199 9.248 3.368 12.67 2.857 8.125-1.204 16.518-7.22 20.883-14.972 6.344-11.27 3.548-25.165 1.078-37.427-.584-2.898-1.134-5.633-1.552-8.26-1.333-8.39-1.566-17.147-1.793-25.612-.201-7.424-.388-14.428-1.2-20.767-4.361 2.725-10.03 4.226-17.097 4.527.097 1.683.162 3.461.194 5.328l.044 2.69c.552 33.026 1.032 61.669-13.227 91.636zM595.167 504.303c-9.809 25.364-19.9 57.583-12.143 74.641 2.006 4.413 5.1 7.51 9.422 9.419 12.18-11.805 16.888-24.447 17.078-37.246a3.514 3.514 0 01-2.42-4.24 275.944 275.944 0 011.64-6.177c-1.963-12.354-7.367-24.686-13.577-36.397zm69.02 16.889c-5.662 16.668-10.784 32.399-12.083 46.268-.765 8.162.266 15.272 3.07 21.26 7.37-20.916 11.29-42.085 9.101-66.651a46.154 46.154 0 00-.088-.877zm829.737 66.047c3.24.846 6.397 1.88 9.347 3.113 1.424-2.928 2.109-5.763 1.726-8.08-.559-3.4-3.675-5.455-9.271-6.126-1.206 3.927-1.807 7.626-1.802 11.093zm1.11 7.647a23.784 23.784 0 001.819 4.358 37.901 37.901 0 002.523-2.847 64.307 64.307 0 00-4.341-1.51zm-215.014-55.604a39.18 39.18 0 011.846 2.72c11.182 18.123 2.746 37.356-4.7 54.327-.783 1.787-1.56 3.558-2.307 5.31a5.372 5.372 0 01-.068.157c17.9-9.847 32.01-23.827 41.673-45.989 9.599-22.013 1.578-34.324-7.71-48.58a338.17 338.17 0 01-3.354-5.22c-3.982.473-7.949 1.121-12.02 1.785-1.187.195-2.38.39-3.58.58 2.113 9.01-2.145 19.442-7.546 32.685a3.52 3.52 0 01-1.396 1.655 15.25 15.25 0 00-.838.57zm292.495 62.77c1.478 0 2.992.144 4.547.43a3.522 3.522 0 012.828 2.853c.064.352.12.704.17 1.051.075-.107.151-.215.225-.324 8.751-12.818 4.322-34.052.415-52.783-.085-.417-.171-.83-.258-1.24-4.339 2.152-9.4 3.717-14.913 4.864 4.659 19.279 7.633 35.485 3.944 45.086-.037.1-.08.196-.127.293a21.613 21.613 0 013.169-.23zm-815.122-169.61c-1.537 7.87-.818 17.304-.116 26.524.546 7.173 1.063 13.947.541 19.986-.474 5.482-.98 10.942-1.486 16.407-1.298 14.027-2.642 28.53-3.426 43.35-1.649 31.13-10.673 52.221-23.521 72.401 4.164-.493 8.24-1.123 12.145-1.866 24.238-4.603 25.652-11.042 21.169-36.58-3.71-21.132-5.204-36.343-2.474-56.175l.421-3.046c2.606-18.82 4.856-35.072 1.911-53.268-.23-1.424-.763-3.682-1.38-6.295-1.821-7.705-3.415-15.142-3.784-21.439zm684.663 178.781c13.478 2.217 33.503-.493 44.186-4.613 1.733-.668 3.464-1.608 5.138-2.747a31.424 31.424 0 01-4.015-10.917c-8.917-1.79-18.263-2.167-24.997-.801-12.787 2.595-18.3 8.3-20.312 19.078zm-782.05-15.14c.782.886 1.62 1.737 2.515 2.549 12.938 11.751 35.891 14.722 57.926 13.294 14.16-21.133 23.72-41.574 25.415-73.59.793-14.957 2.142-29.531 3.447-43.625.504-5.453 1.008-10.897 1.48-16.364.475-5.47-.02-11.968-.544-18.846-1.127-14.768-2.29-30.037 5.233-40.92 4.384-6.345 9.084-9.196 13.952-8.48 7.224 1.068 12.597 9.43 17.796 22.398.25.08.51.146.774.2 4.865.99 12.082-2.71 15.73-10.617 6.577-14.244-2.273-28.151-11.082-40.07-7.414-10.028-21.516-13.033-35.154-15.94-15.153-3.228-30.821-6.566-33.404-20.91a3.519 3.519 0 011.49-3.537c27.03-18.31 33.005-24.088 18.129-59.085-2.137-1.594-4.152-3.256-6.016-4.83.192 1.482.29 3 .294 4.544.025 14.588-9.909 37.665-14.684 48.755-3.464 8.043-6.033 13.02-8.974 16.254-.864 31.796-4.533 82.5-33.86 95.848 2.2 19.984-4.296 42.404-11.736 64.67 1.292 5.244 2.228 9.867 2.567 13.665 2.479 27.825-2.455 51.28-11.294 74.638zm849.542-2.605c2.715 1.62 5.097 3.463 7.001 5.536 3.955 4.312 6.394 9.723 7.706 15.752 1.777-.405 3.549-.786 5.312-1.162 12.4-2.66 24.126-5.177 33.548-14.772 2.622-8.022-.345-23.348-4.55-40.718-11.315 1.624-23.915 1.953-35.83 2.264-7.122.187-13.848.363-19.554.825-34.196 2.767-58.706 3.401-73.966-14.63-.171 1.1-.346 2.202-.52 3.31-3.726 23.7-7.95 50.564 3.655 58.069.858.554 1.839 1.045 2.918 1.479 2.422-11.865 9.06-20.813 25.695-24.188 6.559-1.332 16.244-1.226 25.952.475.164-4.303 1.072-9.126 3.033-14.498.525-1.442 1.955-2.344 3.461-2.314 14.481.604 17.837 7.916 18.547 12.22.637 3.865-.358 8.161-2.408 12.352zm-8.5 11.477c4.115 4.307 9.711 7.587 16.034 9.93-1.116-4.289-2.957-8.089-5.734-11.11-1.427-1.557-3.303-2.99-5.501-4.286a45.637 45.637 0 01-4.8 5.466zm-226.277-60.906c-13.973 14.398-39.234 50.505-39.198 67.253.006 2.715.686 4.2 1.462 5.078 9.21-2.58 17.842-5.432 25.861-8.839 2.64-3.836 4.817-7.117 5.475-8.661a509.997 509.997 0 012.336-5.378c7.08-16.137 14.398-32.824 5.154-47.809-.337-.542-.7-1.091-1.09-1.644zm297.783 65.05c-3.527 0-6.648 1.193-9.476 3.605-1.728 1.475-3.31 3.344-4.753 5.566 6.077-1.106 11.051-2.916 14.994-5.476a28.215 28.215 0 00-.046-3.679c-.241-.01-.481-.015-.72-.015zm-35.463 10.06c4.291.357 8.57.4 12.675.137a49.515 49.515 0 012.774-4.944c-5.025 2.18-10.236 3.603-15.45 4.807zM261.884 588.514c2.139 9.121 10.884 19.108 19.388 28.82l2.222 2.542c-5.144-14.213-12.228-25.91-21.61-31.362zm1010.921 50.688a86.779 86.779 0 01-.485 1.602l1.8-.431a7.559 7.559 0 00-1.315-1.17zm-260.119-130.064c6.746 20.31 16.216 39.09 25.48 57.458 12.783 25.35 25.173 49.92 30.498 77.242.108-.21.215-.42.321-.632 18.203-36.552-3.294-97.99-18.99-142.851-.312-.89-.618-1.77-.923-2.643a34.087 34.087 0 01-8 5.258c-7.603 3.593-17.456 5.476-28.386 6.168zM1376.56 622.35c-1.887 9.49-4.6 19.447-8.143 29.86a25.81 25.81 0 00-.113.342c.136-.158.27-.32.402-.484 5.544-6.85 7.563-17.706 7.854-29.718zm-414.792-14.138c9.45 24.776 22.318 50.76 42.408 60.346a83.465 83.465 0 00-1.109-7.767c-5.01-26.325-17.209-55.423-29.946-57.497-3.957-.644-7.83 1.502-11.353 4.918zm-15.514 26.24c-6.293 17.736-7.884 38.853-7.5 59.431 6.07-3.52 8.304-10.577 8.683-25.388.218-8.588-.254-17-.713-25.137-.169-2.992-.336-5.957-.47-8.907zm356.705 49.59c-.863.611-1.593 1.245-2.224 2.068-1.287 1.678-1.223 4.935-.391 8.922 1.715-2.03 3.46-3.983 5.23-5.832-.547-1.965-1.399-3.708-2.615-5.158zM874.009 603.01c1.857 7.44 3.701 13.91 5.256 18.81 2.858 9.014 8.43 18.084 13.818 26.858 6.425 10.46 13.07 21.28 15.746 32.745 1.27 5.445 1.6 10.97 1.278 16.502.55-.017 1.114-.036 1.686-.06l.255-.01c8.278-.326 14.723-.58 19.704-1.553-.695-27.463 1.899-56.354 14.084-78.061.07-.125.141-.248.21-.373.256-7.706 1.132-15.485 3.19-23.574-.649-1.868-1.278-3.689-1.889-5.458l-.433-1.258c-9.495-27.51-10.99-45.76-4.486-54.357 2.09-2.763 6.108-5.98 13.455-5.568 5.935.33 10.27 2.613 12.89 6.795 7.46 11.907-2.62 35.876-8.642 50.199-1.365 3.247-2.543 6.05-2.985 7.515a92.08 92.08 0 00-.54 1.857c.818 2.335 1.66 4.712 2.534 7.121 4.949-4.02 9.999-5.622 15.116-4.796 19.324 3.146 31.557 41.165 35.74 63.135a88.355 88.355 0 011.442 11.718c7.326 1.864 15.509 1.651 24.711-1.309 11.486-3.694 20.326-9.374 26.758-17.234-4.177-29.613-17.376-55.793-31.04-82.89-9.684-19.204-19.592-38.85-26.516-60.335-33.453.604-74.022-8.233-91.444-13.144-38.58-10.871-28.36-48.767-19.343-82.201 3.116-11.556 6.06-22.475 7.147-32.166.945-8.454 2.879-16.87 4.748-25.009 3.198-13.919 6.217-27.067 4.895-40.78-1.092-11.299-5.835-20.754-10.855-30.766-2.599-5.18-5.284-10.535-7.458-16.213-17.427-45.52-13.146-81.224 12.723-106.121.067-.066.136-.13.203-.194-.767.223-1.527.435-2.276.628-18.329 4.726-30.93 10.699-41.107 27.238-17.713 28.784-18.713 61.89-17.78 97.04a36.936 36.936 0 012.226-1.96c8.474-6.855 17.983-8.317 28.268-4.34 22.431 8.67 17.893 21.563 13.086 35.215-1.326 3.764-2.696 7.66-3.741 11.885-2.199 8.898-3.904 18.073-5.552 26.946-1.716 9.235-3.492 18.786-5.847 28.216-3.565 14.265-8.69 27.733-13.649 40.76-6.795 17.857-13.326 35.021-15.69 53.3 5.765 13.734 10.915 28.416 13.948 41.615 2.158-15.305 7.992-27.409 19.952-31.758a3.52 3.52 0 013.627.747c22.5 21.185 11.79 51.163 2.342 77.614-3.38 9.462-6.574 18.398-8.081 26.364a182.867 182.867 0 00-1.684 10.665zm-1.6 20.513c-.428 14.118.472 28.54 2.71 42.025 4.365 26.312 8.087 32.207 27.944 32.47.328-5.067.044-10.081-1.104-14.996-2.415-10.353-8.758-20.679-14.888-30.664-5.61-9.132-11.41-18.575-14.53-28.412l-.133-.423zm493.764 39.699c-.895 9.751.5 20.318 1.857 30.633.254 1.915.506 3.835.746 5.754 3.33-13.815 8.068-28.196 14.597-45.004 17.294-44.513 21.758-79.759 14.933-117.855-1.391-7.764-3.692-15.37-6.466-23.033-6.476 13.755-12.312 28.104-13.1 44.14-.27 5.488.754 14.02 1.941 23.902 3.11 25.882 6.977 58.094-6.49 74.737-2.268 2.803-4.946 5.048-8.018 6.726zm-63.466 40.06a138.46 138.46 0 001.975 5.337c.756-3.288 1.322-6.542 1.564-9.621a170.07 170.07 0 00-3.539 4.284zm-539.614-85.874c-4.811 15.174-1.666 36.29 1.143 55.155 1.414 9.498 2.75 18.467 3.061 26.287.162 4.094.14 8.158-.03 12.19 5.235-10.968 8.068-28.698 7.384-47.642-.716-19.78-5.037-36.668-11.558-45.99zm-62.681 62.263c-6.457 12.562-11.387 26.331-14.947 41.921 6.561-8.981 10.013-22.589 13.163-35.004.6-2.369 1.188-4.684 1.784-6.917zm-406.265 42.518c3.258.54 6.272 1.766 9.027 3.677l.283.2c13.52-19.36 29.595-39.424 62.857-32.032 7.231 1.608 13.187 4.554 17.72 8.709 2.799-21.186.621-43.018-1.646-65.729-.44-4.407-.884-8.856-1.298-13.35l-.363-4.029c-2.523-28.13-7.217-80.492-33.055-88.865-19.887-6.445-44.568-5.943-68.438-5.466-16.56.333-33.68.684-48.652-1.396-2.38-.327-6.443-1.27-11.588-2.458-7.446-1.724-28.322-6.55-35.687-5.765 3.743 3.839 6.788 8.677 8.352 11.375a80.996 80.996 0 012.296 4.256c1.181-.069 2.779-.148 4.516.562a3.521 3.521 0 011.897 1.847c4.827 11.024 14.643 22.72 23.464 32.819.693.792.995 1.856.82 2.895-3.413 20.455.083 56.646 2.398 80.595l.395 4.108c1.815 18.92 3.91 33.974 12.805 41.288 6.026 4.957 15.212 6.642 28.9 5.304 12.203-1.194 20.631-4.11 25.593-8.88.002-.479.003-.965.003-1.46.029-15.22-1.821-34.847-6.114-53.02-3.68-5.135-8.217-10.317-12.669-15.402-11.152-12.738-22.683-25.905-21.548-39.343a3.517 3.517 0 011.552-2.629 3.505 3.505 0 013.024-.433c18.936 5.97 29.893 29.681 35.972 54.55 3.22 4.602 5.836 9.266 7.325 13.989 6.862 21.82 7.109 35.179.825 44.666a24.118 24.118 0 01-1.353 1.843c-.232 12.819-1.625 21.596-7.613 27.574zM192.73 563.92c1.874 5.862 3.353 10.493 3.988 13.081 3.428 14.007 6.18 28.58 8.84 42.673 2.125 11.255 4.324 22.896 6.831 34.031 1.573 6.982 2.257 14.884 2.984 23.253 1.151 13.268 2.34 26.988 7.294 35.635 9.352 16.337 28.798 14.817 46.287 12.114 20.557-3.175 24.734-8.543 25.58-23.911-6.026 3.629-14.207 5.921-24.696 6.946-15.672 1.532-26.503-.65-34.072-6.874-10.987-9.037-13.369-25.486-15.34-46.055l-.397-4.101c-2.426-25.116-5.727-59.276-2.592-80.777-6.522-7.497-13.058-15.326-18.108-23.325.519 3.168.489 6.082-.335 8.44-1.528 4.372-3.824 7.136-6.264 8.87zm464.436 39.358c-4.36 10.619-9.45 21.305-14.945 32.469-7.481 15.197-12.47 56.349-4.489 78.36 2.416 6.663 5.767 10.99 9.962 12.854.353.158.705.312 1.053.461 6.243-24.693 23.503-48.576 38.883-69.86 2.081-2.876 4.133-5.718 6.128-8.516 3.835-5.383 7.54-10.428 11.125-15.307 3.692-5.028 7.217-9.827 10.539-14.526-19.168.657-42.803-1.886-57.648-15.37-.204-.189-.407-.375-.608-.565zm52.882 66.46c.06.163.107.33.144.503 1 4.754 1.136 11.992 1.293 20.377.225 11.961.566 30.038 4.854 33.978 2.31 2.12 5.776 3.476 10.1 4.004.997-23.017-.963-43.343-8.5-53.32-2.201-2.914-4.81-4.75-7.891-5.541zm-54.645 60.146c8.36 2.551 15.25 2.446 20.924-.305l.312-.153c4.78-25.623 12.792-46.694 24.614-65.427a3.52 3.52 0 012.646-1.63c8.009-.751 14.808 2.23 19.67 8.67 8.556 11.323 10.756 33.3 9.712 57.736a46.143 46.143 0 001.654-.125c9.793-.891 18.983-4.395 24.577-8.12.704-7.07 1.023-14.209.737-21.402-.294-7.44-1.604-16.226-2.988-25.53-3.123-20.958-6.639-44.569.317-61.668-3.893 1.705-8.743 3.097-14.731 4.235a184.887 184.887 0 01-18.47 2.509c-4.305 6.295-8.946 12.613-13.807 19.23-3.57 4.86-7.26 9.885-11.066 15.227-2.003 2.81-4.064 5.663-6.154 8.554-15.16 20.976-32.197 44.555-37.947 68.199zm673.943-55.61a3.53 3.53 0 013.235 2.122c11.101 25.618 15.74 48.13 13.797 70.124.305-.148.612-.3.922-.456 19.237-9.602 16.689-28.921 13.739-51.29-1.262-9.579-2.553-19.364-2.128-28.803a35.153 35.153 0 01-4.844.778c-11.184 1.04-21.736-6.138-31.94-13.074-6.933-4.712-13.48-9.163-19.59-10.663-3.476-.863-10.762.484-18.41 2.225 3.748 13.696 1.705 34.795.049 51.884-.735 7.598-1.372 14.157-1.254 17.992.03.994.083 1.975.156 2.944 3.681-5.233 7.62-10.813 11.755-16.182-2.54-8.554-3.063-15.659.301-20.045 1.92-2.504 4.139-3.856 6.283-5.163 1.25-.76 2.96-.751 4.117.143 2.52 1.94 4.328 4.344 5.57 7.078 5.712-4.993 11.635-8.552 17.654-9.564.196-.035.392-.05.588-.05zm-44.78 53.886c1.403 6.466 3.524 12.55 5.72 18.844l.072.204c2.197-3.144 4.036-6.837 5.416-10.962.582-1.737 1.303-3.744 2.097-5.948 1.155-3.207 2.477-6.882 3.729-10.755-1.448-3.298-2.802-6.524-3.995-9.63-3.208 4.309-6.253 8.633-9.047 12.602-1.393 1.98-2.721 3.867-3.992 5.645zm24.556-9.043c.735 1.64 1.414 3.125 1.989 4.386 1.426 3.115 2.655 5.805 3.408 7.737 4.406 11.299 7.703 17.771 12.496 19.617 2.868 1.105 6.72.753 12.048-1.175 2.678-21.201-1.296-42.71-11.784-67.741-4.634 1.558-9.42 5.085-14.15 9.667.953 8.462-1.236 18.439-4.007 27.509zm-39.575-70.432c-2.17 5.677-4.884 12.035-7.81 18.891-13.243 31.04-31.379 73.55-9.392 85.89a51.335 51.335 0 005.438 2.659c3.117-7.726 7.807-15.326 14.566-23.468 1.43-1.725 3.018-3.819 4.71-6.14a76.048 76.048 0 01-1.186-11.188c-.132-4.284.526-11.049 1.282-18.886 1.375-14.192 3.597-37.114.125-49.588-.213.053-.425.104-.636.155a580.662 580.662 0 01-7.097 1.675zm-813.41 107.55c-.048.43.067 1.019.317 1.73.314-.634.62-1.264.919-1.891-.66.012-1.044.097-1.236.16zm808.402 1.998c4.898.993 9.451.693 13.62-.912 2.413-.932 4.703-2.325 6.814-4.119-.443-1.29-.894-2.583-1.347-3.88-1.57-4.5-3.161-9.067-4.494-13.846-.459.583-.91 1.141-1.353 1.676-6.102 7.35-10.373 14.16-13.24 21.08zm289.833-132.268c-12.863 31.193-11.087 97.673-10.061 136.16.116 4.396.227 8.525.312 12.314 12.254-28.65 15.28-57.81 16.645-85.205.24-4.805.259-9.69.278-14.414.042-9.702.083-19.733 2.058-29.245 1.058-5.097 2.918-9.88 4.716-14.503 1.245-3.2 2.462-6.33 3.39-9.479-3.8 1.678-8.117 2.93-12.934 3.75-1.439.244-2.91.452-4.404.622zM467.356 750.857c.147.044.295.09.44.136 12.825 4.018 20.495 14.41 25.95 24.648.354-.256.709-.508 1.061-.761 6.057-4.333 11.777-8.427 16.202-13.174 31.854-34.18 35.485-84.4 35.444-119.2-.021-18.558 3.015-37.6 5.953-56.017 1.04-6.518 2.09-13.104 3.01-19.71-2 .87-4.222 1.683-6.688 2.442-22.058 6.769-57.165 1.507-76.128-2.23-6.947-1.369-14.084-2.894-21.192-4.642-7.552 5.85-13.048 13.123-16.177 21.506-11.182 29.955 2.216 51.55 16.403 74.418 10.064 16.226 20.474 33.001 22.292 53.37 1.112 12.461-.993 25.21-6.57 39.214zm-6.707 14.384c3.41 4.825 8.232 10.394 12.602 14.159 1.424 1.227 2.963 2.467 4.52 3.722 1.023.824 2.051 1.652 3.061 2.488 2.317-2.037 4.724-3.94 7.16-5.772-4.926-9.49-11.49-18.735-22.307-22.126a71.535 71.535 0 00-1.132-.341c-1.187 2.576-2.49 5.2-3.904 7.87zm877.749 14.5c2.003.173 4.276.627 6.841 1.458 4.604 1.497 8.848 4.547 12.612 8.646 3.973-9.345 4.096-22.413 4.172-30.273l.007-.816a345.71 345.71 0 01.5-15.834c-2.91 3.636-6.839 6.828-12.075 9.44a101.283 101.283 0 01-5.115 2.392c-1.362 8.307-3.675 16.592-6.942 24.987zm-1048.29-50.839c-3.543 0-7.519.993-11.983 2.98-15.495 6.893-9.481 35.328-1.98 60.187 7.343-14.574 14.518-34.64 11.933-42.627a3.515 3.515 0 01.684-3.383c3.743-4.337 7.157-9.131 10.678-14.202a8.508 8.508 0 00-.29-.205c-2.642-1.833-5.641-2.75-9.043-2.75zm1041.138 66.565c1.596 2.647 5.034 5.207 10.594 5.429 4.658.186 8.345-1.083 11.28-3.87.288-.275.565-.559.836-.856-3.353-4.077-7.068-7.028-10.896-8.27-2.897-.941-5.509-1.318-7.607-1.131a174.426 174.426 0 01-4.207 8.698zm-834.32-13.437a414.53 414.53 0 012.013 4.36c3.239 7.09 6.587 14.416 9.67 14.587 2.355.12 8.342-3.098 22.13-26.162 23.23-38.854 58.99-133.72 40.61-187.42-2.292-6.695-5.377-12.57-9.237-17.596-.855 5.967-1.802 11.91-2.742 17.798-2.893 18.143-5.885 36.904-5.864 54.901.04 35.99-3.784 88.006-37.334 124.006-4.907 5.265-10.905 9.556-17.258 14.1-.661.476-1.324.95-1.987 1.426zM386.913 723.29a117.48 117.48 0 01-3.154 9.224c-7.365 18.941-20.644 34.972-33.483 50.475-5.77 6.966-11.64 14.055-16.994 21.44.457-.344.913-.685 1.37-1.027 11.565-8.668 23.525-17.63 33.564-28.567 11.507-12.535 21.083-34.73 18.697-51.545zm-78.29 7.694c10.495 12.926 14.708 39.335 12.535 78.732 7-11.073 15.442-21.266 23.682-31.215 13.058-15.766 25.392-30.657 32.346-48.536 2.353-6.054 4.097-12.155 5.358-18.307-3.747-5.35-9.692-8.954-17.76-10.748-29.335-6.524-42.746 10.776-56.16 30.074zm86.115-192.113c-.397 1.967-.791 3.923-1.186 5.866l-.563 2.785c-7.072 34.975 1.557 57.937 12.482 87.006 3.075 8.184 6.256 16.645 9.35 26.033 7.494 22.746 2.514 45.36-2.303 67.231-3.983 18.085-8.102 36.783-5.115 55.458 1.294 8.09 4.02 14.343 6.655 20.388 1.93 4.43 3.815 8.753 4.887 13.405.141-2.236.515-4.627 1.159-7.203 2.625-10.502 10.84-19.253 18.783-27.715 5.267-5.614 10.255-10.926 13.529-16.522-2.821-4.801-4.323-9.543-2.439-12.924 1.956-3.506 6.094-4.02 10.43-3.446 5.45-13.345 7.53-25.352 6.495-36.962-1.67-18.705-11.63-34.76-21.262-50.289-14.458-23.302-29.407-47.398-17.017-80.584 3.01-8.066 7.89-15.21 14.429-21.218-18.285-5.021-35.732-11.728-48.314-21.309zM279.075 801.443c.716 2.233 1.421 4.4 2.102 6.489 2.625 8.07 4.894 15.039 6.208 20.568 1.218 5.134 2.423 10.4 3.54 15.773 6.561-9.306 14.284-17.106 22.458-24.153.201-2.522.39-5.12.558-7.793 2.288-36.722-1.092-62.854-9.559-75.232-2.909 4.17-5.914 8.34-9.105 12.178 2.257 12.795-8.058 37.774-16.202 52.17zm177.69-29.535c-3.558 5.257-8.208 10.212-12.732 15.032-7.328 7.807-14.906 15.88-17.087 24.605-3.61 14.43 3.036 21.034 12.234 30.175 2.76 2.743 5.61 5.574 8.37 8.83 4.7-21.045 12.893-40.093 23.551-54.521a60.097 60.097 0 014.616-5.5c-.793-.65-1.59-1.293-2.375-1.927-1.618-1.303-3.216-2.592-4.699-3.869-.125-.107-6.462-5.879-11.878-12.825zm24.25 23.283a52.527 52.527 0 00-4.238 5.02c-10.075 13.633-17.837 31.724-22.324 51.78 1.11-1.795 2.225-3.577 3.33-5.346 7.214-11.548 14.027-22.456 17.43-32.43a3.52 3.52 0 011.63-1.946c5.587-3.085 8.664-6.158 8.902-8.882.218-2.514-1.83-5.342-4.73-8.196zM1525.444 624.6c.807 21.205-8.053 46.3-13.205 58.95-12.303 30.21-22.79 59.928-16.071 91.34 6.35 29.69 9.604 48.174 2.664 82.856-.074.375-.155.757-.24 1.143 6.39-14.961 15.164-29.45 23.698-43.548 5.506-9.096 10.778-17.805 15.41-26.539.1-6.294-.146-15.547-.437-26.489-1.074-40.153-2.725-102.006 9.479-135.82-7.007.181-14.302-.42-21.298-1.893zm-197.646 177.766c1.917 3.749 3.984 7.52 6.149 11.478 8.791 16.059 17.86 32.63 18.806 50.979 10.375-1.807 13.996-10.906 15.163-18.633 2.145-14.19-2.401-31.874-9.838-44.153l-.095.091c-4.329 4.113-9.86 6.071-16.425 5.804-6.197-.249-10.746-2.596-13.76-5.566zm-64.148 124.569c9.445 2.472 12.145.875 12.866.065 3.026-3.384-1.947-16.088-5.575-25.362-3.747-9.572-7.284-18.614-7.05-25.54.54-15.91 7.182-31.392 13.607-46.364 5.297-12.35 10.777-25.121 12.669-37.859 1.795-12.065.001-21.971-2.881-31.557a29.766 29.766 0 01-6.59 3.573c-5.751 2.215-11.94 2.562-18.494 1.053-3.422 12.001-3.188 24.93-1.414 41.986.166 1.585.333 3.127.501 4.64 1.254 11.424 2.334 21.286-.005 34.141-1.811 9.954-6.059 15.788-9.805 20.933-2.56 3.514-4.98 6.833-6.595 11.302-7.892 21.822-.35 41.483 18.766 48.989zM683.014 733.824c-2.325 13.385-3.783 28.058-4.453 44.343-.545 13.243-2.476 26.671-4.341 39.657-3.659 25.443-7.115 49.475-1.1 72.402 1.31 4.995 5.434 12.841 9.797 21.149 3.32 6.314 6.907 13.139 9.947 19.97-.59-4.185-1.058-8.627-1.545-13.221-.194-1.837-.391-3.705-.6-5.596-.597-5.4-1.644-9.808-2.658-14.069-2.29-9.636-4.269-17.958 1.121-30.842 2.377-5.673 5.757-11.012 9.026-16.17 3.475-5.487 7.067-11.157 9.458-17.239 5.402-13.75 15.734-58.897 18.383-98.56-5.177-.558-10.472-2.185-14.485-5.87-6.309-5.796-6.799-21.757-7.102-37.529-4.15 16.133-9.257 33.265-21.448 41.575zM287.487 864.883c-8.757 20.154-12.217 45.529-4.554 66.966a3.45 3.45 0 011.003-.315l.134-.021c6.896-22.531 6.58-44.895 3.417-66.63zm724.034-186.33c-.552 17.102-6.203 31.847-12.094 47.224-3.44 8.974-6.998 18.257-9.802 28.562-3.738 13.732-2.033 28.621-.386 43.02 2.068 18.058 4.204 36.73-4.055 53.904-2.463 5.122-6.073 9.198-9.564 13.14-4.57 5.162-8.888 10.036-9.826 16.577-1.601 11.17 1.93 13.225 8.964 17.32 3.55 2.065 7.968 4.637 12.217 8.898 4.165 4.179 6.605 8.464 8.756 12.248 3.313 5.823 5.93 10.422 13.848 13.416 8.176 3.088 21.205-.93 28.746-4.267 1.668-11.836-4-20.462-10.516-30.379-3.145-4.787-6.399-9.739-8.85-15.246-8.172-18.374-10.265-36.142-6.782-57.612 3.82-23.56 14.565-44.301 24.954-64.357 7.748-14.956 15.758-30.42 20.647-46.724 5.699-18.995 7.31-36.244 6.124-52.39-6.77 6.48-15.324 11.4-25.591 14.704-9.938 3.196-18.826 3.632-26.79 1.961zm372.008 249.933c12.409 6.512 20.908 8.434 25.957 5.872 7.129-3.62 8.954-17.007 11.265-33.955.454-3.328.926-6.786 1.462-10.343 1.687-11.197 2.477-21.585 3.244-31.634 1.668-21.932 3.245-42.648 13.77-67.29 5.745-13.456 13.317-26.448 20.64-39.01 7.886-13.534 15.335-26.318 20.643-39.546 5.257-13.102 7.151-26.38 9.156-40.439 2.28-15.993 4.637-32.53 12.404-48.532a3.523 3.523 0 011.433-1.529c1.901-1.076 3.85-2.009 5.83-2.826-5.294-2.546-9.998-5.791-13.722-9.788-2.24 1.567-4.55 2.836-6.827 3.715-10.239 3.946-31.62 7.672-47.543 5.082-.238 3.974-.211 8.47-.035 13.542.244 6.996 1.756 14.2 3.22 21.168 2.548 12.136 5.184 24.683 1.627 37.382-2.655 9.49-8.364 17.696-13.888 25.633-4.943 7.103-10.056 14.45-12.72 22.482-5.76 17.378-10.95 41.465-9.553 56.108.49 5.13 1.075 9.1 1.544 12.288 1.817 12.317 1.894 15.846-7.326 32.109-5.684 10.03-5.86 15.972-6.084 23.492-.157 5.309-.335 11.327-2.59 19.414-1.86 6.683-4.733 11.763-7.268 16.242-4.812 8.512-8.644 15.29-4.64 30.363zm109.252-50.042l-.461 1.407c-6.106 18.578-14.305 43.513-9.395 55.935 7.615-5.786 8.23-23.504 8.776-39.316.22-6.4.435-12.588 1.08-18.026zm-1174.99 63.003c13.644 3.006 31.553.349 45.801-6.761-.605-3.143-2.003-5.672-4.043-7.248-1.985-1.537-4.526-2.068-7.335-1.547a3.502 3.502 0 01-2.831-.7c-.819-.646-1.538-1.23-2.19-1.76-4.11-3.346-4.964-4.041-12.852-4.749a3.536 3.536 0 01-2.456-1.331c-18.867-23.952-22.27-40.861-21.459-61.71-6.162 28.855-5.309 62.853 7.365 85.806zm415.102-205.604c-2.784 42.247-14.105 89.34-18.661 100.938-2.636 6.706-6.413 12.667-10.065 18.428-3.254 5.142-6.331 9.998-8.477 15.125-4.507 10.77-2.937 17.367-.767 26.498 1.014 4.261 2.162 9.091 2.805 14.923.212 1.904.41 3.78.605 5.63 1.81 17.093 3.37 31.856 11.274 36.347 5.344 3.034 14.08 1.805 26.675-3.764 2.146-11.972-2.715-22.408-7.85-33.429-5.968-12.811-12.137-26.058-9.023-43.342 2.704-15.01 8.66-29.474 14.419-43.461 5.997-14.567 12.198-29.63 14.523-45 1.346-8.896 3.14-17.829 4.877-26.466 1.915-9.527 3.864-19.215 5.237-29.039-6.589 3.284-14.844 5.7-22.89 6.433a53.5 53.5 0 01-2.682.18zM451.91 871.676c.494 24.903 11.699 77.378 27.432 83.285 5.002 1.865 10.688-1.979 16.923-11.464-1.834-9.338-8.966-14.132-17.168-19.647-7.808-5.25-16.657-11.199-20.53-22.042-2.67-7.481-3.572-13.538-4.367-18.886-.589-3.95-1.123-7.543-2.29-11.246zm457.757 82.78c.716 0 1.418.218 2.008.627.819.565 1.358 1.215 1.714 1.865a13.22 13.22 0 011.497-1.619 3.533 3.533 0 013.839-.604c7.162 3.26 13.035 1.576 16.7-.406 6.071-3.288 10.81-9.86 11.793-16.358 1.342-8.867-2.733-21.387-6.674-33.494-2.408-7.393-4.681-14.378-5.709-20.481-4.285-25.444-2.32-51.106-.423-75.922 1.596-20.832 3.242-42.372 1.05-63.204-1.283-12.206-2.787-26.509-3.459-41.474-5.522.95-12.076 1.207-19.677 1.506l-.256.009c-.922.038-1.828.067-2.71.091-1.745 11.644-5.859 23.169-9.669 33.845l-.751 2.1c-15.546 43.67-9.36 63.808 9.623 102.6 11.096 22.672 5.128 44.053-.645 64.73-4.24 15.192-8.253 29.569-6.153 44.618 2.115 1.427 4.12 1.803 7.678 1.578a3.17 3.17 0 01.224-.007zm-525.519-75.615c1.28 3.806 3.513 4.951 6.674 6.57 2.72 1.395 5.805 2.973 8.532 6.37l.952 1.185c6.944 8.62 7.2 9.244 9.148 22.22l.352 2.336c.351 2.319.639 4.632.92 6.923 1.847 14.928 3.305 26.722 20.385 33.742a3.527 3.527 0 012.097 2.474c.705 3.096 3.815 5.895 7.922 7.131 4.402 1.324 8.646.574 11.358-2.009 1.894-2.27.526-16.303-1.807-23.924-25.593-23.536-18.81-49.275-5.697-73.696.007-2.463.129-4.495.361-5.992.133-.833.268-1.662.41-2.49a70.227 70.227 0 00-3.29-4.23c-2.656-3.17-5.504-6.002-8.26-8.74-6.183-6.145-12.148-12.07-14.389-20.398-.176 3.637-.975 7.564-2.657 11.925-5.944 15.414-19.82 29.115-33.01 40.603zm269.898-142.014c-3.105 20.52-.405 43.739 2.208 66.212 2.114 18.185 4.3 36.988 3.367 54.209-.273 5.055-1.176 12.296-2.221 20.679-3.594 28.805-9.61 77.013 4.797 91.721 3.305 3.374 7.566 4.735 13.016 4.19 8.541-.876 13.882-3.507 16.324-8.05 6.076-11.3-6.027-34.328-14.862-51.142-4.757-9.047-8.864-16.863-10.378-22.635-6.374-24.304-2.656-50.172.941-75.187 1.843-12.814 3.747-26.06 4.278-38.947.601-14.625 1.83-28 3.741-40.345-6.197 1.86-13.217 1.632-21.21-.705zM672.917 981c-6.288 0-11.58-2.155-15.763-6.429-16.784-17.132-10.749-65.506-6.755-97.514 1.03-8.253 1.918-15.38 2.18-20.191.898-16.622-1.251-35.123-3.332-53.016-2.722-23.408-5.536-47.613-1.965-69.407-.81-.329-1.63-.68-2.458-1.047-6.013-2.677-10.63-8.36-13.723-16.893-8.83-24.36-3.183-67.67 4.79-83.867 6.004-12.195 11.512-23.802 16.079-35.362-5.708-8.163-8.023-18.372-6.887-30.472 1.474-15.73 7.414-33.165 13.702-51.627a1781.29 1781.29 0 002.606-7.68c-1.148-4.488-2.54-9.452-4.019-14.733-3.008-10.74-6.26-22.353-8.486-33.578a374.588 374.588 0 01-1.855 3.842c-.94 1.932-1.752 3.597-2.334 4.934-1.79 4.125-3.564 8.152-5.31 12.121-6.472 14.706-12.71 28.877-18.035 44.055.152 2.062.189 3.944.097 5.638 4.306 5.73 3.736 9.283 2.311 15.254-.243 1.021-.514 2.155-.784 3.439a3.525 3.525 0 01-3.216 2.785 66.338 66.338 0 01-3.135.143c-.203 14.901-5.872 29.803-20.993 43.648a3.533 3.533 0 01-3.507.74c-6.525-2.194-11.425-6.248-14.596-12.067.168.463.332.93.494 1.4 19.127 55.882-17.415 153.478-41.229 193.31-12.807 21.424-21.056 29.965-28.572 29.583-7.342-.405-11.03-8.476-15.7-18.692-.451-.99-.911-1.997-1.384-3.017a110.127 110.127 0 00-4.995 4.04c4.142 4.116 7.072 8.541 6.626 13.656-.439 5.049-4.149 9.558-11.328 13.763-3.77 10.358-10.532 21.18-17.675 32.613-2.625 4.205-5.265 8.427-7.774 12.66 3.396 6.84 4.273 12.736 5.184 18.857.783 5.271 1.594 10.723 4.034 17.555 3.093 8.657 10.248 13.47 17.823 18.562 9.13 6.138 18.57 12.484 20.425 25.767a3.506 3.506 0 01-.512 2.369c-8.553 13.515-17.325 18.696-26.086 15.412-18.057-6.78-28.195-50.873-31.04-78.907-7.91 18.91-8.77 37.525 10.287 54.622.45.403.79.917.984 1.493 1.033 3.05 6.691 26.003.26 32.122-4.573 4.351-11.4 5.718-18.257 3.65-5.872-1.766-10.392-5.7-12.217-10.5-19.44-8.713-21.324-23.964-23.151-38.724-.275-2.231-.552-4.482-.894-6.735l-.354-2.344c-1.721-11.468-1.721-11.468-7.668-18.851l-.96-1.192c-1.784-2.224-3.852-3.282-6.248-4.511-4.031-2.064-9.046-4.631-10.876-13.335a3.52 3.52 0 011.146-3.391c13.01-11.206 27.069-24.632 32.704-39.245 4.584-11.887 1.409-19.171-2.987-29.257-2.678-6.149-5.716-13.116-7.151-22.089-3.197-19.994 1.066-39.355 5.19-58.081 4.826-21.91 9.384-42.603 2.492-63.518-3.049-9.249-6.201-17.643-9.252-25.758-11.323-30.127-20.266-53.923-12.793-90.875l.564-2.789c.652-3.22 1.31-6.476 1.968-9.763-6.316-6.235-10.712-13.53-12.38-22.13-5.503-28.393 5.694-56.157 16.521-83.005 1.099-2.723 2.19-5.43 3.26-8.123-.15-.784-.306-1.57-.47-2.35-1.353-6.475-4.033-13.946-6.871-21.857-5.03-14.023-10.23-28.523-9.557-41.194.95-17.939 9.345-24.6 16.884-24.852 8.663-.305 18.553 8.054 20.543 24.563 2.705 22.448-4.693 44.71-13.227 66.396 6.302 35.617.033 74.32-6.986 109.895 13.721 11.792 35.34 19.18 53.513 23.84 3.673-2.55 7.72-4.817 12.113-6.777 23.581-10.518 55.663-11.223 79.834-1.755 5.595 2.192 10.645 5.013 15.137 8.45 1.162-10.848 1.739-21.672 1.106-32.249-.928-15.495-6.143-33.75-11.666-53.077-11.748-41.111-24.942-87.288.804-120.026.313-2.66.764-5.21 1.296-7.684-6.252-11.215-7.183-27.948-1.983-34.64 1.335-1.72 6.37-6.827 15.075-.34a3.523 3.523 0 011.404 3.14c-.76 8.326-2.77 15.404-4.713 22.249-.8 2.811-1.584 5.576-2.268 8.374l.148.202a3.533 3.533 0 012.823.712c1.432 1.137 2.694 2.532 3.809 4.145 5.882 1.329 12.257-3.723 17.284-9.292 1.277-2.754 2.915-5.105 4.958-7.001 2.294-4.69 3.155-10.144 2.559-16.284-.453-4.666-1.693-9.378-3.447-13.937-5.948-.545-11.56-3.546-16.747-6.319-5.22-2.79-10.15-5.421-15.2-5.89-21.506-1.991-45 4.187-67.721 10.165-12.932 3.402-25.144 6.614-36.952 8.39-24.956 3.756-38.693 2.2-47.42-5.372-5.56-4.82-8.977-12.065-10.6-23.006-6.243 3.505-12.409 6.67-18.148 9.214 15.858 26.428 9.608 39.207-15.516 64.193-25.963 25.82-47.799 38.144-82.594 24.741-4.963-1.914-9.609-4.055-14.1-6.128-9.831-4.534-19.118-8.816-30.866-10.42-4.43-.602-9.29-.164-13.99.264-2.632.238-5.353.484-8.057.534 8.689 13.48 4.928 55.716 4.441 60.77-.166 1.72-.333 3.606-.513 5.622-2.137 24.02-5.714 64.218-26.129 74.797a3.53 3.53 0 01-4.235-.76c-11.133-12.252-4.597-31.905.654-47.695 1.4-4.21 2.723-8.186 3.572-11.604 1.053-4.238 2.682-9.4 4.569-15.377 6.543-20.74 16.435-52.082 6.41-64.993-.288-.37-.592-.725-.912-1.063-4.09-1.337-8.686-1.002-13.748-.63-4.713.343-9.731.71-14.594-.418-.35.345-.68.712-1 1.099-8.962 10.95-5.05 37.42-1.906 58.689 1.451 9.804 2.82 19.066 2.825 25.942.009 12.221-3.932 25.917-7.742 39.161-6.46 22.461-13.141 45.684-.674 61.593 5.314 6.777 17.967 15.625 26.765 15.2-6.395-20.331-9.895-33.468-9.875-41.188-.83-.737-1.68-1.475-2.543-2.22a3.513 3.513 0 01-.874-4.194 3.53 3.53 0 013.828-1.934c.747.141 1.49.38 2.225.692 5.214-4.176 18.944-1.994 43.843 3.763 4.775 1.104 8.9 2.059 10.966 2.344 14.417 2 30.506 1.678 47.539 1.331 24.452-.491 49.74-1.002 70.757 5.807 30.27 9.808 35.236 65.186 37.903 94.937l.364 4.01c.41 4.479.853 8.909 1.29 13.298 2.548 25.528 4.988 49.97.595 73.994a32.078 32.078 0 012.539 5.946c6.241 19.81-4.823 47.76-19.126 63.34-10.48 11.417-22.706 20.58-34.529 29.44-5.703 4.275-11.293 8.462-16.648 12.838a105.073 105.073 0 00-2.066 4.104c-.085.178-.168.356-.252.536-.277 3.092-.56 6.043-.829 8.835-2.962 30.821-4.612 47.984 17.417 76.47 8.285.868 10.38 2.278 15.142 6.154.298.243.612.496.942.764 4.177-.388 8.128.697 11.277 3.134 4.115 3.182 6.617 8.355 7.048 14.562a3.525 3.525 0 01-1.829 3.335c-16.762 9.135-38.148 12.34-54.483 8.163a3.524 3.524 0 01-2.172-1.641c-17.86-30.654-15.535-78.898-2.965-112.996-4.67 4.658-9.032 9.685-12.974 15.323a85.087 85.087 0 00-3.629 5.659c4.696 26.312 6.334 54.79-3.242 83-.496 1.46-1.93 2.44-3.431 2.388-.029 0-.057-.002-.085-.004-.38.817-.945 1.682-1.878 2.362a3.54 3.54 0 01-2.948.563 3.526 3.526 0 01-2.317-1.907c-13.102-27.699-6.98-63.138 6.526-87.677-1.458-7.724-3.183-15.357-4.965-22.878-1.247-5.247-3.476-12.09-6.055-20.013l-.302-.931c-.024.03-.045.06-.068.09-6.078 8.05-15.596 12.702-24.8 17.2-8.869 4.337-17.244 8.433-21.793 15.077-10.56 15.419-4.653 20.754 5.133 29.591 4.403 3.978 9.394 8.487 12.908 14.476 5.62 9.579 5.939 20.41 6.247 30.882.261 8.894.511 17.32 3.846 24.674 5.088 1.988 9.401 2.95 13.525 3.378h19.34c.852-.007 1.722-.011 2.612 0 1.94.019 3.5 1.602 3.49 3.54a3.525 3.525 0 01-3.527 3.503h-2.532c-2.102.02-4.114.088-6.078.155-4.471.148-8.826.295-13.518-.155H3.526A3.525 3.525 0 010 948.066a3.524 3.524 0 013.526-3.521h245.906c-4.127-8.776-4.413-18.464-4.688-27.844-.296-10.03-.577-19.504-5.284-27.53-2.964-5.053-7.33-8.997-11.555-12.811-9.494-8.577-20.257-18.297-6.222-38.792 5.598-8.177 15.215-12.879 24.514-17.425 8.46-4.136 17.207-8.413 22.27-15.118.92-1.217 1.912-2.698 2.945-4.385-7.888-24.87-15.532-53.876-4.672-68.472-14.799 2.168-38.561 4.242-50.197-16.077-5.723-9.995-6.98-24.498-8.197-38.527-.705-8.124-1.37-15.797-2.837-22.316-2.535-11.255-4.744-22.954-6.881-34.27-2.645-14.002-5.378-28.483-8.762-42.305-.559-2.285-2.01-6.839-3.708-12.153-12.025 1.83-27.726-9.077-34.493-17.712-14.688-18.738-7.5-43.717-.552-67.875 3.844-13.366 7.476-25.989 7.467-37.214-.005-6.362-1.336-15.375-2.749-24.919-3.475-23.519-7.412-50.133 3.015-63.661-2.664-1.69-5.2-4.128-7.518-7.603-10.17-15.244-1.925-29.76 5.348-42.567 1.64-2.888 3.336-5.876 4.787-8.79 5.721-11.493 10.676-23.658 15.468-35.426 9.873-24.235 20.08-49.297 37.63-70.236 10.25-12.227 21.698-24.96 35.956-35.251 5.168-3.73 10.685-8.228 16.526-12.993 9.118-7.436 18.547-15.125 26.998-20.052 5.427-3.164 10.904-5.282 16.366-6.49-2.497-4.083-3.473-9.045-4.547-15.543-.385-2.333-.82-4.974-1.397-7.842-6.707-33.4-9.175-69.722 23.354-85.87 25.411-12.617 65.086-4.693 83.956 5.877a3.528 3.528 0 011.672 2.125c2.258 8.091.761 17.726-3.886 26.47.881 3.503 1.072 7.644.215 12.037 1.084.625 2.396 1.31 3.516 1.895l1.407.74a3.517 3.517 0 011.85 2.79c.15 1.671.327 3.502.512 5.443.884 9.239 1.982 20.738 1.91 29.625a3.527 3.527 0 01-.728 2.113c-3.98 5.189-4.477 10.269-5.052 16.15-.582 5.934-1.24 12.658-5.71 20.045-2.83 4.682-6.287 7.966-9.062 10.603-2.809 2.668-4.806 4.568-5.46 6.908a16.86 16.86 0 002.967 2.072c3.509 1.948 6.485 2.481 9.098 1.63 6.222-2.03 10.87-12.075 14.973-20.937.94-2.032 1.873-4.044 2.816-5.97 11.975-24.38 28.654-41.171 46.96-47.283 14.542-4.851 29.996-3.215 45.94 4.868 12.816 6.498 31.305 24.453 30.294 42.362-.18 3.218-.941 6.243-2.11 9.12 1.936 7.005 2.632 13.976 2.65 18.753.063 16.916-6.667 26.877-14.458 38.41-2.739 4.053-5.572 8.246-8.294 13.035a25.62 25.62 0 00-.316.567c1.888 2.328 3.948 4.596 6.034 6.892 6.39 7.04 12.996 14.318 14.19 23.83a3.525 3.525 0 01-.233 1.768c19.166-1.004 38.494-.548 55.019 3.51a3.524 3.524 0 011.73 1.01c.655.696 1.123 1.222 1.52 1.668.895 1.003 1.304 1.461 2.946 2.812a3.512 3.512 0 011.262 2.326c1.407 12.5 4.334 38.508-10.371 46.752a20.43 20.43 0 01-4.214 1.794c1.634 4.628 2.77 9.329 3.216 13.942.614 6.325-.062 12.093-2.012 17.25 15.917 12.305 22.805 37.488 24.525 63.9 9.965-22.954 28.58-34.105 48.138-40.069-1.957-4.17-4.096-8.42-6.271-12.744-12.382-24.607-26.415-52.497-9.046-77.216 12.983-18.478 40.369-22.038 59.549-16.01 10.97 3.45 19.227 9.715 23.965 17.811 2.289 1.616 4.614 3.599 7.062 5.686 2.58 2.197 5.244 4.468 8.165 6.59.513.373.915.879 1.166 1.462 16.057 37.43 10.697 47.31-18.2 67.15 3.045 7.967 14.38 10.384 27.349 13.147 14.227 3.032 30.353 6.467 39.354 18.645 4.757 6.434 12.207 16.511 14.224 28.125.392-31.963 7.58-83.856 25.447-110.056-1.208-37.681-1.501-76.248 18.584-108.888 11.374-18.481 25.785-25.322 45.353-30.368 5.924-1.53 12.726-4.28 19.307-6.941 4.044-1.638 8.158-3.3 12.167-4.723 5.54-3.364 10.502-6.928 14.064-11.46 9.297-11.831 7.484-14.66 2.64-22.215-2.321-3.625-5.211-8.136-7.456-14.57-10.54-30.219-5.59-60.799 12.916-79.805C971.47.598 995.289-4.116 1020.919 4.005c17.17 5.437 49.13 15.562 45.608 48.18-.721 6.69-3.576 17.147-9.898 23.37.164 18.307-4.652 36.712-11.664 48.08-4.076 6.603-9.371 10.276-13.626 13.227-4.011 2.782-6.901 4.786-7.8 8.267 6.204-1.528 12.554-4.35 19.273-9.09a3.535 3.535 0 012.927-.53c35.555 9.275 57.861 59.884 71.187 90.122l.877 1.986c1.74 3.94 4.935 8.7 8.32 13.74l1.338 1.994c35.726 25.238 48.132 82.12 58.514 129.734 4.117 18.879 8.005 36.709 12.836 49.142.476 1.225.956 2.442 1.428 3.645 3.636 9.23 7.175 18.21 7.617 27.031 18.711 12.688 36.96 20.755 57.95 30.032l.62.275c10.503 4.643 16.905 9.37 20.41 14.5a609.7 609.7 0 005.407-.868c3.059-.5 6.157-1.005 9.304-1.437-5.184-9.723-8.779-21.09-5.884-36.052 5.036-25.996 23.94-35.51 39.355-33.365 15.83 2.211 31.811 16.713 29.487 43.331-2.94 33.751-24.984 32.823-44.43 32.008a77.419 77.419 0 00-6.74.014l1.33 2.044c9.529 14.625 19.381 29.745 8.266 55.236-12.316 28.245-31.154 44.004-55.41 54.627l-1.543 2.226c-5.074 7.305-16.84 24.248-16.567 28.553 1.684 1.053 8.229.007 14.85-1.391 1.169-3.279 2.086-6.24 2.643-8.764a3.521 3.521 0 013.838-2.741c4.913.552 8.372 3.282 10.752 7.483 9.287-2.157 17.616-3.7 22.73-2.444 7.342 1.805 14.728 6.827 21.872 11.683 9.174 6.235 18.665 12.672 27.324 11.883 2.264-.21 4.341-.64 6.24-1.303.462-2.884 1.137-5.719 2.079-8.488 15.79-46.422 14.57-83.004-3.627-108.735-.696-.986-1.395-1.958-2.082-2.919-6.561-9.149-12.757-17.791-10.41-26.706 1.723-6.55 7.645-11.979 18.637-17.085 5.3-2.463 11.198-3.148 16.902-3.812.49-.056.975-.114 1.456-.17-7.204-17.554-14.264-35.699-15.197-54.932-.328-6.758-.798-13.671-1.25-20.355-1.922-28.284-3.909-57.53 3.895-86 3.43-12.518 10.965-21.077 18.254-29.353 5.944-6.749 11.56-13.125 14.52-21.223 2.6-7.094 2.199-14.426 1.772-22.19-.56-10.266-1.14-20.882 5.375-31.338 12.095-19.402 32.337-22.177 51.913-24.86 12.674-1.737 24.678-3.381 34.54-9.225.132-1.196.144-2.317.05-3.38-6.62-5.382-11.382-11.02-13.336-16.922-.325-.243-.656-.488-.991-.736-4.969-3.684-10.105-7.49-13.813-12.604-10.477-14.445-14.71-32.981-12.582-55.092 2.13-22.117 11.976-38.702 27.724-46.703 15.63-7.941 35.446-6.087 54.372 5.084 13.571 8.01 22.634 23.006 24.866 41.147 2.592 21.061-4.124 42.339-17.522 55.529-5.188 5.104-12.702 7.636-19.97 10.084-2.225.75-4.237 1.454-6.03 2.148-.233 4.437-.841 8.313-1.43 10.609a397.463 397.463 0 01-1.816 6.758 274.539 274.539 0 00-1.238 4.585c1.343.792 2.713 1.576 4.105 2.349 4.048.347 9.198-.587 15.486-1.865 5.571-1.134 11.335-2.31 16.375-1.896 39.761 3.229 61.713 38.494 64.783 74.133 4.66 11.723 6.698 24.802 6.014 39.057-.166 3.453-.352 7.012-.543 10.653-1.497 28.56-3.193 60.932 2.328 87.307 1.027 4.915 2.962 10.952 5.009 17.346 6.136 19.156 13.072 40.812 3.856 53.889 1.62 8.299 1.865 17.386 2.107 26.373.22 8.24.45 16.761 1.708 24.697.395 2.484.933 5.152 1.5 7.976 2.577 12.794 5.782 28.719-1.845 42.268-5.463 9.699-15.666 16.957-25.995 18.487-6.39.945-12.28-.33-17.248-3.7-.312 7.906-2.052 15.261-6.248 21.406a30.522 30.522 0 01-6.078 6.561c-.857 6.017-3.02 11.58-5.142 17.03-1.77 4.557-3.445 8.86-4.385 13.384-1.83 8.82-1.867 18.06-1.91 27.845-.018 4.802-.038 9.77-.285 14.735-1.504 30.143-4.99 62.418-20.185 94.204a212.495 212.495 0 01-3.42 6.825c-.05 1.77-.134 3.29-.258 4.534-1.12 11.154-6.08 25.924-11.332 41.56-9.88 29.419-21.079 62.765-9.57 79.698 4.885 7.188 13.617 11.03 26.69 11.741a3.527 3.527 0 013.24 2.705c.395 1.66 1.382 4.073 2.036 5.668.36.88.64 1.58.758 1.95a3.516 3.516 0 01-.058 2.322c-.349.919-.395 2.405-.319 3.757l440.579-.003a3.517 3.517 0 013.526 3.521 3.519 3.519 0 01-3.526 3.522h-443.675c-.975 0-1.91-.403-2.578-1.115-1.499-1.602-1.777-7.19-1.012-10.748-.069-.163-.143-.345-.222-.537-.47-1.146-1.092-2.666-1.617-4.183-13.906-1.219-23.877-6.139-29.657-14.643-13.473-19.821-1.682-54.925 8.72-85.897 3.083-9.182 6.064-18.059 8.175-25.93-2.084 3.51-4.195 6.996-6.286 10.45-10.165 16.79-20.675 34.155-26.81 51.855-2.074 5.999-2.41 15.651-2.764 25.874-.682 19.723-1.453 42.076-16.135 47.133a3.53 3.53 0 01-4.053-1.33c-9.663-13.996-.392-42.2 7.06-64.863 2.674-8.142 5.203-15.833 6.296-21.286 6.682-33.39 3.688-50.396-2.647-80.005-7.132-33.341 4.209-65.446 16.437-95.469 4.004-9.829 13.908-36.554 12.677-57.36-3.636 1.075-7.129 2.383-10.445 4.149-6.903 14.689-9.036 29.643-11.29 45.451-1.976 13.85-4.018 28.176-9.592 42.067-5.499 13.706-13.426 27.31-21.094 40.467-7.215 12.377-14.674 25.177-20.247 38.228-10.068 23.576-11.602 43.728-13.226 65.062-.776 10.177-1.576 20.698-3.302 32.152-.531 3.521-.998 6.946-1.448 10.242-2.588 18.994-4.634 33.992-15.058 39.284-7.546 3.831-18.291 1.716-33.821-6.654a3.523 3.523 0 01-1.714-2.124c-5.456-18.918-.434-27.796 4.88-37.197 2.45-4.333 4.985-8.812 6.616-14.667 2.024-7.263 2.18-12.588 2.334-17.735.231-7.818.45-15.204 6.998-26.755 8.377-14.778 8.088-16.738 6.484-27.613-.48-3.268-1.08-7.337-1.587-12.646-1.594-16.733 4.325-42.236 9.88-58.99 2.984-9 8.392-16.771 13.621-24.286 5.43-7.8 10.555-15.166 12.891-23.509 3.09-11.043.744-22.214-1.74-34.041-1.525-7.26-3.1-14.766-3.366-22.37-.187-5.4-.247-10.605.138-15.466-2.14-.726-4.084-1.625-5.778-2.72-15.451-9.99-11.049-37.993-6.789-65.074.57-3.617 1.143-7.258 1.665-10.852-4.634-8.59-8.044-19.97-10.25-34.95-1.551-10.533-2.809-20.735-3.773-30.77-3.131 11.479-8.236 22.21-13.309 32.705 3.886 10.02 7.334 20.237 9.188 30.585 6.976 38.935 2.257 76.45-15.3 121.645-15.23 39.2-20.494 64.857-20.866 101.677l-.01.81c-.087 9.333-.239 25.327-6.422 36.369 9.553 14.3 14.622 35.457 12.238 51.233-2.365 15.647-11.67 24.736-25.536 24.942-.961.037-1.868-.357-2.541-1.028a3.515 3.515 0 01-1.037-2.538c.227-18.062-9.049-35.006-18.018-51.394-2.465-4.504-5.015-9.161-7.264-13.684a3.511 3.511 0 01.107-3.332 201.482 201.482 0 002.895-5.166c-1.063-4.175-.134-8.374 2.603-11.33.9-.973 2.292-2.117 4.31-2.943 3.347-7.881 5.798-15.597 7.37-23.302-5.334 1.444-9.586 1.392-13.3-.04-7.972-3.068-12.041-12.119-16.53-23.632-.482-1.236-1.222-2.904-2.102-4.848-.46 1.296-.91 2.543-1.339 3.733a288.98 288.98 0 00-2.045 5.8c-2.19 6.541-5.427 12.206-9.412 16.648 3.587 11.11 6.286 23.024 4.093 37.783-2.028 13.64-7.69 26.835-13.164 39.597-6.452 15.037-12.546 29.24-13.04 43.826-.186 5.48 3.249 14.254 6.569 22.74 5.235 13.374 10.179 26.008 4.268 32.618-4.75 5.316-13.758 3.69-20.125 2.004a3.953 3.953 0 01-.37-.122c-22.731-8.8-32.201-32.66-23.03-58.022 1.954-5.405 4.786-9.291 7.52-13.049 3.626-4.978 7.048-9.679 8.574-18.05 2.156-11.846 1.124-21.238-.067-32.113-.168-1.527-.34-3.083-.507-4.678-1.856-17.872-2.05-31.804 1.709-44.864a58.712 58.712 0 01-6.59-3.19c-27.5-15.434-8.725-59.436 6.359-94.79 2.132-5 4.216-9.884 6.043-14.422-9.33 1.657-15.384 1.427-17.967-2.713-3.02-4.837 1.105-13.084 12.446-29.807-5.928 2.106-12.134 4.003-18.598 5.778a3.536 3.536 0 01-2.793-.404c-2.664-1.648-5.845-5.057-5.86-11.93-.042-19.167 26.512-57.142 41.77-72.672-4.361-4.668-9.945-9.482-15.41-14.187-5.002-4.31-9.724-8.381-13.42-12.255-2.006-2.102-4.266-4.69-6.884-7.69-1.838-2.1-3.837-4.39-5.948-6.727-12.77-4.628-25.458-10.938-32.174-18.381a54.282 54.282 0 01-1.658 1.525c-.733.647-1.71.97-2.68.868-21.753-2.124-21.278-33.46-20.64-59.142-2.005-3.868-3.964-7.987-6.086-12.452-1.34-2.816-2.751-5.78-4.285-8.922-2.456-5.02-8.62-13.426-15.758-23.162-16.27-22.19-37.07-50.552-37.86-70.454-6.563 3.68-12.583 6.515-16.303 7.99a3.533 3.533 0 01-3.75-.74c-5.433-5.236-7.563-11.68-8.508-18.461a220.657 220.657 0 00-14.227 21.936c.638 5.029 1.412 10.11 2.197 15.275 2.877 18.912 5.852 38.471 2.67 59.412-1.105 7.26-1.269 17.071-1.443 27.456-.411 24.583-.898 53.888-13.654 71.246l2.184 6.25c16.109 46.042 38.173 109.1 18.648 148.31a57.068 57.068 0 01-4.95 8.167c2.277 18.803 1.004 39.049-5.816 61.791-5.08 16.932-13.242 32.693-21.14 47.936-10.134 19.568-20.615 39.8-24.256 62.247-3.293 20.31-1.419 36.347 6.267 53.627 2.216 4.983 5.31 9.692 8.301 14.243 7.033 10.708 14.308 21.778 11.246 37.341a3.525 3.525 0 01-1.935 2.495c-2.248 1.078-22.357 10.398-35.935 5.258-10.297-3.891-13.95-10.311-17.484-16.523-2.028-3.562-4.124-7.248-7.622-10.757-3.597-3.61-7.244-5.731-10.77-7.783-7.543-4.39-14.668-8.536-12.395-24.4 1.238-8.632 6.467-14.536 11.526-20.246 3.316-3.745 6.45-7.285 8.49-11.525 7.377-15.341 5.448-32.203 3.404-50.055-1.722-15.059-3.505-30.63.587-45.667 2.897-10.644 6.519-20.095 10.02-29.232 6.101-15.921 11.562-30.173 11.684-46.784-23.09-8.97-37.685-36.333-47.915-62.135a76.002 76.002 0 00-3.55 5.488c-.165 7.649.265 15.293.707 23.133.466 8.28.947 16.839.722 25.713-.528 20.62-5.64 29.141-15.502 32.89.627 15.328 2.179 30.07 3.493 42.56 2.256 21.466.583 43.331-1.034 64.477-1.865 24.394-3.796 49.62.346 74.215.941 5.591 3.135 12.335 5.46 19.473 4.195 12.886 8.533 26.21 6.94 36.723-1.297 8.572-7.486 17.212-15.405 21.498-6.384 3.46-13.559 4.01-20.458 1.635-.84 1.215-1.994 2.867-4.598 3.916a3.54 3.54 0 01-2.527.04c-3.017-1.096-3.886-3.063-4.122-4.538-3.795-.08-7.129-1.008-10.807-3.987a3.511 3.511 0 01-1.259-2.164c-2.809-17.09 1.726-33.33 6.11-49.036 5.668-20.302 11.021-39.48 1.102-59.75-19.48-39.802-26.307-62.053-9.93-108.048l.75-2.106c3.712-10.4 7.497-21.006 9.206-31.462-23.15-.61-29.186-8.744-34.091-38.311-3.373-20.322-3.802-42.73-1.32-63.202-3.288-13.094-7.11-30.876-8.933-48.644-2.518 4.867-6.686 7.781-12.202 8.487a3.462 3.462 0 01-1.476-.125c-.795 2.217-1.782 4.252-2.992 6.06-5.81 8.683-11.77 12.155-17.718 10.324-10.689-3.294-15.486-23.62-15.363-36.32.087-8.91 1.652-17.134 3.165-25.087.968-5.09 1.913-10.056 2.456-15.059-.375-.436-.749-.871-1.123-1.303-5.781-6.708-11.762-13.646-16.67-23.533-2.304-4.643-4.67-11.992-7.408-20.5-1.89-5.876-4.288-13.32-6.952-20.236-4.022-2.672-6.58-7.476-7.212-13.737-3.9-1.84-6.818-2.316-8.135-1.31-4.46 3.426.062 22.55 1.763 29.75.649 2.743 1.208 5.115 1.48 6.786 3.111 19.24.683 36.783-1.889 55.358l-.42 3.04c-2.604 18.915-1.153 33.572 2.432 53.997 3.135 17.85 3.669 29.256-5.427 36.579.047.038.097.082.144.125 9.94 9.107 16.42 29.666 17.338 54.995.694 19.21-2.123 44.458-12.112 57.717-.892 1.183-2.034 2.343-3.383 3.461-1.377 12.035-3.742 23.8-6.06 35.334-1.721 8.556-3.499 17.404-4.82 26.132-2.452 16.213-8.817 31.673-14.974 46.624-5.62 13.648-11.429 27.76-14 42.034-2.719 15.088 2.973 27.306 8.478 39.123 5.638 12.105 11.47 24.623 7.98 39.663a3.528 3.528 0 01-1.96 2.407c-15.898 7.302-26.934 8.644-34.729 4.214-2.493-1.418-4.512-3.35-6.167-5.712.65 5.564.11 10.676-2.203 14.98-3.584 6.665-10.924 10.608-21.82 11.72a29.48 29.48 0 01-3.012.159z"/></svg>