<svg xmlns="http://www.w3.org/2000/svg" width="1000" height="674"><defs><linearGradient id="a" x1="26.74%" x2="75.412%" y1="93.581%" y2="93.581%"><stop offset="0%" stop-color="#A2BB68"/><stop offset="100%" stop-color="#D7478C"/></linearGradient></defs><path fill="url(#a)" fill-rule="evenodd" d="M384.597 51.938a15.043 15.043 0 011.75 3.73c2.613-2.127 2.663-5.71 2.503-10.904-.186-6.04-.417-13.558 7.062-17.892 6.363-3.687 10.11-1.823 14.857.538.947.47 1.926.958 3.011 1.448 2.096.948 5.157 1.355 8.115 1.748 3.518.468 6.84.91 9.131 2.247 3.71 2.165 5.898 7.4 6.861 13.94 3.415-7.41 4.826-15.869-1.662-26.398-3.192-5.182-10.207-9.064-18.765-10.386-8.853-1.365-17.328.352-22.117 4.485-8.917 7.693-9.68 20.248-10.417 32.388a377.3 377.3 0 01-.329 5.056zm-6.714-.852c-1.805 0-3.036 2.423-3.62 3.911-2.13 5.41.478 11.423 3.763 15.248.323-1.568.633-3.108.935-4.606.298-1.474.589-2.914.876-4.31.542-2.634.868-5.434 1.111-8.363-.908-1.082-1.926-1.76-2.822-1.866a2.033 2.033 0 00-.243-.014zm56.918 8.402c-1.808 3.055-3.362 5.96-3.978 8.685-.394 1.749-.769 3.381-1.122 4.922-1.475 6.44-2.575 11.243-3.3 16.255 3.242-4.925 5.536-11.601 6.848-17.928a80.33 80.33 0 001.552-11.934zm-57.39 36.222a1.777 1.777 0 011.733 1.379c.81 3.523 2.746 6.62 5.32 9.148-2.062-2.981-3.81-6.24-5.094-9.552-1.81-4.669-.029-9.126 1.401-12.707 1.861-4.662 2.074-5.976-.311-7.183l-.165-.084c-1.436 6.572-3.122 13.382-5.269 19.633.643-.2 1.276-.39 1.898-.566a1.75 1.75 0 01.487-.068zm17.604 16.734c3.167.975 6.406 1.313 9.323.897 4.202-.598 11.15-3.3 10.5-14.683a1.777 1.777 0 011.562-1.866c2.136-.257 4.09-1.21 5.858-2.67.648-7.295 1.974-13.08 3.976-21.82.353-1.538.725-3.167 1.12-4.911.894-3.962 3.268-7.884 5.783-12.036.565-.934 1.137-1.878 1.7-2.839-.386-8.257-2.358-14.698-5.605-16.593-1.674-.978-4.791-1.392-7.806-1.793-3.214-.428-6.538-.87-9.111-2.033a92.036 92.036 0 01-3.13-1.505c-4.516-2.245-6.782-3.37-11.488-.645-5.644 3.27-5.472 8.826-5.292 14.708.18 5.856.385 12.494-6.575 15.394a1.776 1.776 0 01-2.057-.509c-.132.846-.281 1.68-.451 2.504-.287 1.393-.577 2.829-.873 4.299-.436 2.158-.89 4.402-1.37 6.695.337.227.668.423.988.585 5.548 2.808 3.585 7.723 2.008 11.673-1.323 3.313-2.692 6.74-1.388 10.104 2.278 5.877 6.128 11.556 10.563 15.582.565.514 1.155 1.001 1.765 1.462zm9.101 4.506c4.273 1.2 8.54 1.22 11.762-.204 3.922-1.733 5.912-5.357 5.915-10.769.002-2.704.056-5.13.163-7.37a14.223 14.223 0 01-3.52 1.417c0 9.366-4.998 15.613-13.596 16.836-.24.035-.481.064-.724.09zm25.303 5.99c.882 2.217 2.792 4.306 5.195 6.318-1.174-2.281-2.602-4.203-4.327-5.612l-.334-.276c-.211-.172-.383-.314-.534-.43zm130.957 56.63c-.036.189-.07.38-.103.571l.411-.218a9.67 9.67 0 00-.308-.353zm-249.26 3.443l6.13 3.615c4.084-12.012 9.25-24.13 16.002-37.591 14.134-28.172 31.111-41.19 33.849-43.166a54.865 54.865 0 001.754-3.53c-.675.271-1.35.552-2.025.842-29.793 12.752-43.935 46.284-55.71 79.83zm217.14-6.064c-.353 5.377 1.477 10.047 3.99 14.638-.267-5.36-.827-11.753-3.99-14.638zm-167.162 3.194c-5.257 5.728-8.33 13.471-10.043 21.576.699-.458 1.452-1.068 2.29-1.845 4.58-4.248 7.465-12.96 7.753-19.731zm81.82 59.13c.79 1.783 1.713 3.475 2.724 5.12 1.24-17.247.185-27.233-3.158-29.748-.393-.297-1.011-.62-2.09-.4l-.005.072c.195 1.07.418 2.164.67 3.284 1.69 7.553 2.119 14.62 1.859 21.672zm-93.784-16.626c.025 5.996.463 11.303.887 15.074.535 4.752 1.765 9.677 2.956 14.44.59 2.358 1.187 4.747 1.711 7.154l.122-1.628c.453-6.019.88-11.704.116-16.388-1.623-9.942-3.96-16.397-5.792-18.652zm189.264 40.344c3.055 4.614 5.009 5.4 5.72 5.074 2.265-1.033 3.638-10.564 1.049-18.499-.787-2.41-2.532-6.37-5.526-5.755-1.544.316-2.56 1.054-3.195 2.32-1.778 3.542-.365 10.155 1.952 16.86zm21.384-78.555c-1.025 16.602 7.513 34.419 10.492 40.067 6.739 12.78 10.28 25.409 14.028 38.778 1.155 4.12 2.35 8.38 3.658 12.706 1.28 4.24 2.498 8.638 3.456 13.077-.489-3.064-.895-6.143-1.297-9.19-.857-6.498-1.668-12.637-3.19-18.397-3.96-14.97-8.836-29.334-13.901-43.955-.8-2.305-1.682-5.899-2.704-10.062-1.806-7.356-4.486-18.277-7.724-24.526-.94.497-1.88.998-2.818 1.502zm-18.237 135.126c1.045.5 1.912 1.098 2.633 1.786.706-.096 1.356-.18 1.944-.248 3.012-11.693 2.309-24.9-1.935-35.576-.32-.803-.98-2.208-1.815-3.987-2.114-4.501-5.05-10.754-7.24-17.044a49.58 49.58 0 01-.81-1.3c-6.256-10.402-2.612-19.576.911-28.449 2.246-5.656 4.568-11.504 4.37-17.747-.131-4.075-1.448-7.744-3.273-11.327a11.712 11.712 0 01-1.205 1.72c-7.494 8.833-9.052 32.727-7.746 46.093.843 8.618 3.872 16.903 6.801 24.914 2.736 7.485 5.565 15.224 6.66 23.3.807 5.955.985 11.914.705 17.865zM374.748 301.15c.636 0 1.263.01 1.884.033 17.462.626 34.294 1.313 51.455 2.099 11.195.512 12.574 3.51 16.08 14.885.823 2.67 1.579 5.373 2.262 8.1.08-2.37.161-4.703.242-6.995.111-3.167.22-6.259.317-9.26.252-7.844-.742-14.945-1.704-21.812-1.153-8.233-2.346-16.747-1.354-26.428.066-.653.17-1.56.3-2.673.364-3.16.677-6.156.937-8.988a73.506 73.506 0 01-2.692-4.086c-.484 5.355-1.254 10.788-2.065 16.506l-.38 2.678c-2.49 17.684-8.15 29.055-28.644 31.102-1.217.122-2.54.266-3.947.42-14.593 1.596-36.649 4.005-46.589-6.387-2.719-2.84-4.383-6.247-5.363-9.959-.665 3.497-1.634 6.916-2.587 10.276-.966 3.408-1.886 6.653-2.484 9.895 4.924 1.52 11.098 1.185 17.085.862 2.52-.137 4.933-.268 7.247-.268zm155.433 20.153c-6.314 0-14.537.865-19.92 2.209a22.638 22.638 0 00-7.496 3.379c12.021-1.172 23.903-2.954 32.764-4.282l2.284-.343.018-.267a21.6 21.6 0 00-2.937-.488c-1.356-.141-2.962-.208-4.713-.208zm7.023-122.004h.062c.483.017.938.23 1.262.59 10.184 11.33 14.465 25.405 18.605 39.016 2.497 8.21 5.078 16.7 8.93 24.45 1.698 3.417 3.677 6.898 5.593 10.265 4.093 7.197 8.325 14.639 10.536 22.569.908 3.253.69 9.236.46 15.571-.152 4.183-.43 11.86.249 15.61.239-.32.489-.604.741-.862.9-1.142 1.7-2.278 2.323-3.439 7.052-13.126 3.242-30.647-1.415-46.054-1.318-4.36-2.517-8.638-3.677-12.775-3.696-13.182-7.188-25.633-13.75-38.08-2.97-5.632-11.228-22.872-10.969-39.764l-2.32 1.263c-5.94 3.235-12.077 6.577-18.277 9.538.432.71.864 1.42 1.292 2.138a1.76 1.76 0 01.355-.036zm-88.364 49.842c.785 1.09 1.59 2.173 2.403 3.268 3.814 5.135 7.756 10.445 10.185 17.17 3.065 8.49 1.37 17.953-.173 24.332-.587 2.43-1.768 5.489-3.019 8.728-2.325 6.02-4.961 12.844-4.302 16.872.997 6.094 11.757 9.046 31.108 8.545 3.788-.099 7.719-.323 11.686-.633 3.356-3.473 7.5-6.07 12.671-7.36 7.2-1.798 19.29-2.772 25.863-2.087 1.001.104 1.92.247 2.764.429.208-5.425.014-10.84-.716-16.233-1.042-7.692-3.682-14.911-6.476-22.554-3.005-8.221-6.113-16.722-7-25.79-1.105-11.302-.462-38.086 8.574-48.736.588-.694.952-1.385 1.336-2.115.168-.32.342-.653.541-.994-.62-1.057-1.267-2.117-1.919-3.186-4.511-7.401-9.177-15.053-7.279-25.06a1.779 1.779 0 012.331-1.347c7.64 2.65 8.11 13.006 8.454 20.567l.006.135c5.492-2.694 10.951-5.667 16.254-8.554 1.407-.767 2.833-1.543 4.268-2.32a39.988 39.988 0 011.02-5.738c.02-.356.145-.687.347-.96a1.81 1.81 0 012.12-.643c.171.066.327.157.465.265.62.3 1.216.711 1.789 1.223-4.212-28.815-29.34-43.197-44.367-49.306a1.778 1.778 0 01-.656-2.831c5.35-5.978 5.95-14.392 5.513-20.398-1.316-18.046-14.74-47.947-33.613-55.648-9.42-3.844-18.947-1.606-28.315 6.65-11.857 10.452-16.698 26.613-15.231 50.86 1.062 17.565 5.123 29.702 21.617 35.333.292-1.983.985-3.62 1.617-5.111 1.083-2.555 1.866-4.401.572-7.35-.841-1.919-3.936-4.72-6.667-7.189-2.137-1.934-4.156-3.76-5.33-5.331-6.452-8.642-7.287-19.976-2.413-32.777a1.78 1.78 0 011.502-1.139c4.54-.41 8.835-.383 12.99-.36 6.767.041 13.162.078 19.877-1.738a1.78 1.78 0 012.144 1.13c.855 2.45 1.774 4.94 2.661 7.348 5.964 16.175 12.116 32.856 4.32 50.489 5.643-2.885 10.7-7.325 15.08-13.248.347-.47.91-.735 1.489-.72a1.78 1.78 0 011.439.82c7.533 11.774-3.874 20.237-12.203 26.416-1.583 1.174-3.078 2.284-4.425 3.378-4.471 3.63-8.82 7.421-13.026 11.086-5.717 4.983-11.628 10.135-17.772 14.806-.408.31-.932.431-1.433.327a1.776 1.776 0 01-1.19-.862c-3.05-5.351-5.028-11.158-6.94-16.773-2.01-5.897-3.906-11.467-6.912-16.387-1.949-3.188-6.486-6.304-11.003-9.323 2.71 13.132 1.317 28.253.848 32.412-.407 3.617-.871 6.968-1.32 10.208-1.435 10.372-2.62 18.935-1.18 29.6 2.197-.407 3.788.301 4.805 1.067 5.826 4.383 5.703 20.809 4.221 37.337zm140.448 75.257l.032.085c.854 2.427.897 4.612.636 6.68 3.716-2.324 7.862-3.662 12.063-3.909.664-4.783-1.6-10.035-5.154-18.282l-.467-1.084c-1.697-3.943-2.89-8.127-3.805-12.412 1.52 10.182 1.195 20.289-3.305 28.922zm-.879 15.838c1.112.24 2.672.509 3.53.612 4.64-3.824 7.477-6.91 8.945-9.922-4.182.52-8.256 2.298-11.719 5.193-.083.068-.164.138-.244.207-.273 1.291-.488 2.569-.512 3.91zM319.334 191.648c-.297.92-.587 1.843-.87 2.766-1.32 4.293-2.823 8.663-4.275 12.89-4.221 12.284-8.586 24.986-9.38 38.092-.815 13.415 1.254 25.587 3.443 38.474.636 3.743 1.294 7.615 1.868 11.485 2.452 16.541 4.068 32.116 5.24 50.5.469 7.362 4.176 13.108 10.172 15.764 6.257 2.773 13.822 1.566 19.744-3.146.677-.538 1.677-1.732 2.644-2.886a69.33 69.33 0 011.796-2.086c.01-.019.021-.04.033-.058.796-1.313 3.215-5.306 6.565-4.387.66.181 1.252.55 1.78 1.06.155-.046.268-.098.313-.16.015-.02.351-.508-.118-2.568-.498-2.186-4.96-3.753-8.895-5.135-3.615-1.27-7.353-2.584-9.51-4.724-9.417-9.348-8.42-25.746-7.543-40.212.236-3.887.46-7.557.46-10.85 0-4.16-.269-9.062-.553-14.253-.724-13.242-1.544-28.25 1.693-38 .73-2.202 6.16-12.97 11.69-15.485.11-3.997.419-8.206 1.033-12.426-2.78-.48-5.265-2.508-8.052-4.783-.704-.574-1.447-1.18-2.242-1.804-5.962-4.676-9.557-5.777-16.084-7.775l-.952-.293zm81.871 189.371c-.858 2.326-1.706 6.546-2.031 14.193 1.263-4.902 2.07-9.684 2.031-14.193zm201.449-38.691c2.085 12.297 2.805 24.527 2.199 37.314-.064 1.33-.3 2.9-.551 4.562-.644 4.264-1.446 9.568.622 11.981 1.258 1.467 2.474 2.19 3.338 1.994 1.098-.257 2.169-1.95 2.795-4.416.486-1.917-.037-6-.498-9.603-.324-2.526-.63-4.912-.63-6.72 0-1.875.032-3.76.065-5.648.062-3.64.13-7.408-.062-11.044-.086-1.639-.149-3.33-.21-5.055-1.087-5.747-2.691-10.68-5.285-12.595a4.047 4.047 0 00-1.783-.77zm-26.841 58.936c1.722.688 3.786.96 5.63.757.03-8.447-1.037-16.743-2.07-24.78-1.002-7.801-2.039-15.866-2.04-23.93-.002-7.072 3.025-13.864 8.358-18.865.024-.106.05-.212.073-.32.434-1.915.83-3.661.767-5.464-.08.073-.158.146-.234.22-.248.313-.5.623-.757.932-.264.438-.47.966-.61 1.674-.099.503-.41.94-.855 1.195a1.753 1.753 0 01-1.158.219c-2.06 2.429-4.04 4.939-4.992 7.604-2.238 6.26-2.93 15.782-3.28 23.379-.496 10.683.191 21.676.856 32.31.105 1.693.211 3.382.312 5.07zm94.086-1.11c-7.297 0-15.032 1.997-21.404 4.614 5.538-.346 11.375-.263 17.054-.184 6.505.088 13.192.184 19.437-.362-4.246-2.913-9.54-4.068-15.087-4.068zm-372.318 25.052c2.03.117 4.074.244 6.12.383.16-1.339.315-2.675.468-4.003.66-5.728 1.343-11.65 2.478-17.226.855-4.199 1.34-8.865 1.852-13.805 1.079-10.39 2.192-21.117 6.913-29.406-.786-.74-1.697-1.306-2.523-1.085-2.355.636-5.954 6.011-9.72 28-.169.98-.305 1.773-.41 2.322-.888 4.625-1.416 9.412-1.973 14.48-.746 6.775-1.509 13.708-3.205 20.34zm53.692 1.59c1.592.001 3.21.218 4.832.619a47.75 47.75 0 01-.21-3.794c-.084-5.936.505-11.868 1.075-17.604.386-3.88.784-7.894.972-11.877.104-2.219.225-4.461.346-6.72.38-7.059.772-14.358.698-21.553-.046-4.508-1.358-9.558-2.527-11.966-1.143.092-2.208.205-2.886.775l-.082.07c7.692 15.018 4.334 32.501 1.081 49.423-1.525 7.941-2.974 15.478-3.3 22.626zm-44.02-.959c4.94.36 9.865.776 14.64 1.238 2.178.211 4.938.247 7.862.283 6.097.077 12.843.162 17.96 1.78a1.768 1.768 0 01-.06-.485c.133-8.023 1.805-16.732 3.424-25.155 3.048-15.859 6.192-32.228-.173-45.938l-.258.308c-1.13 1.35-2.198 2.623-3.156 3.386-6.962 5.54-15.931 6.927-23.401 3.614a20.092 20.092 0 01-4.918-3.08.658.658 0 01-.044.074c-4.878 7.734-6.003 18.575-7.092 29.06-.522 5.029-1.014 9.779-1.904 14.146-1.105 5.427-1.78 11.272-2.43 16.924-.148 1.276-.295 2.56-.45 3.845zm-12.136 6.964c2.351.77 4.83 1.186 7.404 1.403.271-1.682.514-3.38.738-5.083-2.233-.15-4.464-.287-6.675-.412a54.626 54.626 0 01-1.467 4.092zm55.566-2.437c.189.1.373.204.553.312 3.07 1.84 5.19 4.509 6.594 7.702-.127-.718-.259-1.44-.392-2.167-.296-1.62-.596-3.262-.852-4.943-2.015-.653-4.002-.985-5.903-.904zm-46.235 12.37c5.484.334 10.943 1.384 16.243 2.405 3.616.696 7.354 1.415 10.962 1.87 3.049.385 6.22.532 9.367.614-1.477-8.89-6.376-9.104-16.545-9.543-.834-.037-1.694-.074-2.58-.118-2.882-.143-5.88-.092-8.782-.042-2.529.042-5.088.087-7.63.003a91.476 91.476 0 01-1.035 4.812zm40.182 4.963c3.943.074 7.979.152 11.91.588-.488-6.342-2.47-11.765-7.133-14.56-4.371-2.618-12.87-2.727-19.698-2.812-3-.038-5.833-.074-8.16-.3a624.5 624.5 0 00-14.735-1.244c-.22 1.678-.455 3.354-.72 5.02 2.264.056 4.588.017 6.958-.023 2.96-.05 6.02-.103 9.018.045.879.044 1.731.08 2.559.116 10.532.457 18.207.789 20 13.17zm196.498-122.329c-1.373 14.566-5.168 29.04-8.882 43.198-3.21 12.248-6.532 24.912-8.238 37.435-2.459 18.073-2.191 36.283-.716 54.375 3.124-24.144 7.215-48.811 13.179-72.874.758-3.058 1.597-6.196 2.408-9.23 3.627-13.56 7.377-27.583 6-41.595l-.171-1.794c-.42-4.468-.715-7.61-2.026-9.739-.498.07-1.015.146-1.554.224zm-42.8 5.507c-8.689 9.858-11.272 26.927-13.462 41.392-.525 3.473-1.022 6.755-1.577 9.724-4.182 22.388-6.842 45.99-8.37 74.274-1.12 20.726.675 40.401 5.188 56.898 2.877 10.508 7.94 20.507 12.836 30.176 5.13 10.13 10.435 20.605 13.412 31.911.65 2.467.896 6.063 1.155 9.871.287 4.207.625 9.167 1.605 12.538 5.223-18.39 6.096-43.003 6.677-59.39.208-5.867.388-10.933.716-14.395 1.44-15.159 2.947-31.04 4.81-47.287-2.675-23.484-4.064-47.33-.833-71.065 1.734-12.737 5.081-25.507 8.32-37.857 3.599-13.72 7.275-27.738 8.69-41.757l-1.439.216c-10.498 1.574-24.288 3.642-37.729 4.75zm-99.234 76.656c.303 14.3 1.712 31.212 2.858 44.989 1 12.012 1.79 21.5 1.582 25.712-.908 18.402-3.17 36.783-5.359 54.559-2.019 16.398-4.106 33.354-5.14 50.36-.11 1.824-.344 3.454-.55 4.892-.675 4.697-.982 6.84 2.932 9.497.204.14.426.275.665.406 4.378-6.04 14.767-8.185 23.992-10.09 3.888-.802 7.561-1.56 10.25-2.518 17.223-6.138 17.64-16.485 16.898-35.768-.223-5.818-.737-11.698-1.235-17.385-.977-11.167-1.986-22.714-.833-34.262.572-5.713 1.388-11.61 2.18-17.314 1.505-10.858 3.06-22.085 3.06-32.886 0-3.38.006-6.787.012-10.215.014-8.142.028-16.357-.033-24.58-4.494-21.434-4.905-47.012-4.397-70.768l-.019-.124a156.276 156.276 0 00-5.189-22.822c-3.323-10.778-3.984-11.975-12.845-12.381a5128.492 5128.492 0 00-51.418-2.097c-2.721-.097-5.681.062-8.812.232-6.931.375-14.097.762-19.945-1.588a1.779 1.779 0 01-1.094-1.918c.605-3.946 1.733-7.923 2.823-11.77 1.766-6.226 3.591-12.664 3.267-19.16-.287-5.771-1.78-11.738-3.221-17.509-1.22-4.876-2.48-9.919-3.04-14.903a144.19 144.19 0 01-.898-15.238c-3.071 2.636-7.188 9.197-8.267 12.451-3.025 9.11-2.224 23.76-1.518 36.687.287 5.24.558 10.19.558 14.446 0 3.401-.227 7.124-.466 11.066-.832 13.714-1.777 29.26 6.5 37.475 1.586 1.575 4.938 2.753 8.181 3.892 5.039 1.77 10.25 3.6 11.185 7.7.57 2.503.416 4.238-.485 5.463-.35.475-.765.818-1.22 1.069 2.184 4.972 2.489 12.593 2.49 12.7.075 7.309-.32 14.665-.703 21.78-.12 2.25-.241 4.485-.345 6.695-.191 4.077-.595 8.137-.985 12.062-.586 5.897-1.14 11.468-1.058 17.202.024 1.744.158 3.42.36 5.069 9.074 3.718 17.85 12.464 22.95 20.66l.017-.065c1.667-5.918 3.39-12.038 4.887-18.464 1.242-5.333 3.347-11.18 5.575-17.372a612.099 612.099 0 002.276-6.399c-.375-18.334 1.165-30.428 6.598-32.165a1.778 1.778 0 012.302 1.441c1.385 9.642-1.712 20.759-5.323 31.256zm.459 191.768c3.768 1.073 9.207 1.732 15.9 1.901 7.718.188 15.217-2.916 22.465-5.925 2.736-1.135 5.344-2.217 7.937-3.12.013-.86.123-1.73.23-2.58.161-1.278.328-2.6.073-3.508a1.778 1.778 0 012.617-2.01c3.454 2.035 6.45 4.295 9.35 6.48.442.334.88.664 1.316.991.773-5.58 2.334-11.63 3.815-17.367 1.325-5.134 2.576-9.984 2.867-13.3 1.616-18.408 3.142-35.796 3.142-54.394 0-25.052-5.658-44.97-11.648-66.058-1.207-4.247-2.437-8.579-3.642-13.023 0 3.385-.006 6.762-.012 10.127-.005 3.426-.012 6.832-.012 10.21 0 11.046-1.573 22.397-3.094 33.374-.786 5.67-1.599 11.533-2.162 17.18-1.121 11.216-.127 22.594.836 33.598.5 5.73 1.019 11.654 1.245 17.558.687 17.853 1.229 31.953-19.258 39.253-2.92 1.04-6.71 1.824-10.724 2.652-8.155 1.684-17.293 3.572-21.241 7.961zm112.09 2.453c.352.247.722.396 1.058.329 3.246-.675 6.584-13.08 7.68-17.157.247-.917.463-1.722.65-2.367 6.635-22.972 8.24-46.067 4.912-70.606-.306-2.255-.618-4.523-.93-6.802-.602-4.39-1.207-8.801-1.792-13.228-1.152 11.027-2.179 21.832-3.172 32.29-.318 3.356-.496 8.374-.703 14.184-.657 18.54-1.576 44.505-7.703 63.357zm-49.132-3.678c.006 2.338.285 4.438.945 6.166.687-1.385.866-3.112.545-5.22-.504-.31-1-.625-1.49-.946zm-36.184 5.223c2.765.03 4.29 1.182 5.526 2.117.838.633 1.5 1.134 2.538 1.358 12.612 2.726 21.828 2.772 26.385.183-1.598-3.024-2.02-6.94-1.755-11.313-1.031-.753-2.041-1.515-3.04-2.267-1.997-1.505-4.041-3.047-6.23-4.506-.04.385-.089.769-.137 1.15-.146 1.16-.284 2.258-.146 3.1a1.778 1.778 0 01-1.208 1.98c-2.892.933-5.849 2.16-8.978 3.46-4.217 1.75-8.515 3.534-12.955 4.738zm-197.003 1.982c2.223 0 4.442.033 6.648.117 4.88.185 9.855.331 14.665.474 11.969.353 24.344.72 35.75 1.684.922.077 2.123.197 3.506.336 6.135.61 17.554 1.746 20.685.585 5.35-1.986 6.674-9.683 7.84-16.475.247-1.429.478-2.778.744-4.05 1.025-4.924 2.094-9.874 3.168-14.842 4.244-19.653 8.634-39.976 10.478-59.697.74-7.925 2.49-16.217 4.18-24.236 2.666-12.639 5.416-25.684 4.44-37.986-3.4-.082-6.85-.228-10.221-.653-3.722-.47-7.518-1.2-11.19-1.907-5.874-1.13-11.95-2.301-17.886-2.434a1.78 1.78 0 01-1.674-2.252 80.993 80.993 0 001.444-6.233c-3.396-.309-6.715-.956-9.834-2.25a1.775 1.775 0 01-.94-2.371 48.544 48.544 0 001.78-4.575l-.405-.02-3.295-.165c-16.292-.826-34.759-1.762-49.783 1.435-26.74 5.69-34.828 49.454-40.181 78.413-.88 4.762-1.712 9.26-2.538 13.115-6.43 29.994-9.86 57.456-10.476 83.89 9.418 1.037 19.278.717 28.831.406 4.685-.152 9.48-.309 14.264-.309zm168.73 2.341c7.137 1.648 13.343 2.27 20.04.237 1.009-.305 1.519-.886 2.225-1.689.573-.651 1.264-1.438 2.306-2.023-2.374.439-4.791.67-7.263.608-5.557-.14-12.469-.677-17.563-2.28-.391 1.509-.306 3.212.255 5.147zm67.567-.18c.066.057.134.112.203.166 5.939 4.665 32.713 5.106 38.232 2.378.121-.058.246-.104.373-.134 1.155-2.2 2.19-4.63 3.112-7.231-2.645-3.532-3.12-10.507-3.58-17.256-.248-3.635-.482-7.068-1.045-9.209-2.883-10.94-8.1-21.245-13.147-31.21-4.977-9.827-10.122-19.99-13.093-30.844-4.613-16.859-6.449-36.925-5.309-58.026 1.537-28.444 4.214-52.19 8.426-74.735.543-2.91 1.035-6.161 1.557-9.604 1.99-13.147 4.471-29.553 12.241-40.51-21.723 1.406-41.38-.202-43.168-11.14-.814-4.98 2.006-12.283 4.494-18.727 1.208-3.126 2.349-6.078 2.88-8.282 1.435-5.934 3.025-14.7.284-22.29-2.25-6.234-6.035-11.33-9.694-16.258l-.065-.087a469.793 469.793 0 01-.559 5.066 215.01 215.01 0 00-.295 2.627c-.947 9.252.164 17.18 1.339 25.574.983 7.015 1.999 14.269 1.736 22.419-.096 3.003-.205 6.099-.316 9.27-.253 7.174-.52 14.76-.688 22.54 3.362 22.683 4.202 46.695 4.388 70.61.313 1.471.645 2.924.998 4.353 1.936 7.832 4.06 15.309 6.114 22.54 6.06 21.33 11.783 41.48 11.783 67.027 0 18.754-1.532 36.216-3.156 54.704-.316 3.61-1.604 8.597-2.966 13.878-1.574 6.1-3.339 12.94-3.958 18.886a58.07 58.07 0 003.776 2.45c.435.257.74.687.838 1.182.811 4.071.227 7.386-1.735 9.873zm9.402 12.28c-.96 0-1.955.669-3.42 2.283-1.78 1.965-3.714 4.93-2.807 7.9.82 2.69 3.794 4.91 7.952 5.938 6.887 1.7 22.583-4.735 27.557-12.773 1.638-2.646 1.951-5.148.933-7.58-3.804 5.584-8.686 9.34-14.975 10.303-5.591.864-9.057-1.938-11.586-3.98-1.567-1.266-2.588-2.09-3.654-2.09zM671.06 416.595c-6.255 0-13.395 2.916-21.327 8.722-10.813 7.916-10.858 22.647-10.9 36.894-.01 3.022-.02 5.875-.131 8.665-1.237 30.875-1.493 144.938 11.586 160.591 1.069 1.28 2.748 2.72 4.527 4.243 1.446 1.24 3.046 2.612 4.471 4.08 16.922-6.278 35.757-14.951 39.09-20.043 14.67-22.4 11.221-99.017 6.115-135.058-.152-1.074-.32-2.369-.51-3.845-2.124-16.403-7.096-54.817-25.764-62.813-2.236-.958-4.623-1.436-7.157-1.436zM602.176 642.45c5.817 0 11.432 1.301 16.92 2.573 4.23.98 8.604 1.993 12.945 2.362.242.02.518.026.828.013-3.173-3.341-6.8-7.382-8.213-11.874-4.782-15.205-8.228-107.668-9.884-152.103-.262-7.017-.476-12.78-.643-16.767-1.105-26.614 5.071-45.32 18.834-56.825-10.648 1.032-21.58 1.906-32.803 1.906-2.226 0-4.374-.042-6.45-.083-16.039-.312-25.712-.502-26.414 18.303-.408 10.914-.268 22.633-.134 33.967.071 6.067.146 12.34.135 18.42-.018 11.3-.272 23.062-.518 34.437-.26 12.104-.53 24.62-.53 36.897 0 1.545-.01 3.432-.024 5.597-.121 21.154-.4 70.046 7.92 84.023 5.402-.724 12.015.643 18.614 2.226l-.004-.018a1.777 1.777 0 011.316-2.112c2.748-.67 5.448-.942 8.105-.942zm-9.27 6.764l.557.418-.034-.29-.523-.128zm49.879-.28c5.61 2.14 12.878 4.442 16.14.587 1.435-1.698.981-3.493-.672-5.582-5.628 2.029-10.984 3.76-15.468 4.995zm-46.111-2.46c4.403 1.074 8.562 2.048 12.302 2.43 6.937.708 13.069 1.506 18.998 2.278 4.574.595 8.896 1.158 13.558 1.683.723.081 1.44.144 2.152.19a127.52 127.52 0 01-4.135-1.564 89.987 89.987 0 00-2.852-1.086c-2.164.426-3.867.618-4.959.523-4.594-.392-9.092-1.435-13.445-2.442-7.35-1.703-14.323-3.32-21.62-2.013zM383.627 459.502c-2.327 8.695-4.314 17.408-5.292 27.206-3.064 30.66-7.532 70.662-14.956 108.172-1.708 8.633-4.087 16.963-6.387 25.018-2.275 7.966-4.423 15.49-5.973 23.263-2.041 10.25-.4 11.325-.383 11.335.009.006 1.12.325 4.548-2.707 3.792-3.355 4.835-11.506 5.597-17.46.204-1.598.397-3.108.623-4.387 2.755-15.632 6.202-31.791 9.536-47.417 4.973-23.308 10.114-47.409 13.341-71.285l.2-1.476c2.275-16.789 4.624-34.12-.854-50.262zM584.49 649.068c-1.588 0-3.11.854-4.78 2.928-2.006 2.492-1.04 4.77.122 6.242 2.147 2.718 6.825 4.662 10.11 3.106 2.177-1.034 3.42-3.519 3.668-7.135-.513-.38-1.021-.769-1.524-1.153-3.044-2.329-5.384-3.988-7.596-3.988zm-254.982 14.681c.88 3.061 2.559 5.25 4.887 6.212 2.168.896 4.595.503 5.898-.96 1.148-1.288 1.239-3.158.278-5.332-3.669.045-7.36.072-11.063.08zM336.78 674a9.808 9.808 0 01-3.743-.754c-3.62-1.495-6.117-4.874-7.193-9.492-22.585-.012-45.634-.618-68.068-1.209-13.42-.354-27.278-.719-40.941-.955.033.147.075.29.126.426h11.488a1.778 1.778 0 011.32 2.967c-3.67 4.073-8.743 4.208-12.142 2.535a8.368 8.368 0 01-2.588-1.948H1.78a1.778 1.778 0 110-3.555h211.523a7.213 7.213 0 01.017-2.554 1.78 1.78 0 011.75-1.456h.029c14.262.235 28.755.617 42.771.986 22.233.586 45.079 1.187 67.448 1.207a27.71 27.71 0 01-.068-1.72c-7.134.172-14.433-.519-21.513-1.19-6.488-.616-13.193-1.257-19.58-1.186-7.615.078-15.442-.196-23.013-.46-6.878-.24-13.977-.503-21.037-.481-2.875.003-6.825.325-11.007.667-11.339.927-25.45 2.078-33.05-1.637-12.544-6.134-18.823-29.195-14.467-41.866l.001-.094c.075-1.509.693-2.273 1.835-2.273 1.089 0 1.7.694 1.82 2.065 7.262 12.408 21.1 13.052 35.737 13.734 3.336.156 6.785.316 10.106.63 9.176.865 18.327.992 27.175 1.115 8.528.12 17.346.24 26.096 1.03 15.483 1.396 34.325.99 42.672-14.643 7.941-14.876 10.146-35.412 12.092-53.53.67-6.234 1.3-12.12 2.13-17.671a1691.6 1691.6 0 001.876-13.026c2.288-16.16 4.653-32.869 8.657-48.804l.306-1.214c1.75-6.927 4.548-18.006 4.58-27.769-3.739-.45-7.62-.54-11.664-.615.94 12.697-1.838 25.876-4.532 38.648-1.746 8.286-3.397 16.112-4.12 23.835-1.863 19.932-6.275 40.36-10.542 60.115-1.072 4.96-2.139 9.901-3.163 14.815-.252 1.212-.479 2.532-.719 3.929-1.265 7.355-2.838 16.508-10.109 19.206-3.6 1.338-12.979.544-22.276-.382-1.362-.135-2.545-.253-3.453-.33-11.308-.955-23.634-1.32-35.555-1.672-4.817-.143-9.8-.291-14.695-.475-6.83-.259-13.861-.028-20.66.192-10.23.333-20.809.676-30.985-.621-.9-.115-1.57-.89-1.553-1.797.516-27.16 3.979-55.346 10.588-86.175.815-3.807 1.642-8.28 2.517-13.016 5.526-29.89 13.874-75.06 42.939-81.245 15.48-3.294 34.194-2.346 50.705-1.51l3.29.165 1.276.065c1.764-6.612 2.539-13.654 3.296-20.53.54-4.915 1.1-9.996 2.015-14.76.102-.533.234-1.304.397-2.254 2.443-14.262 5.815-29.079 12.299-30.83a5.087 5.087 0 012.965.081c-1.787-3.037-2.862-6.638-3.117-10.632-1.164-18.283-2.77-33.767-5.208-50.206-.57-3.834-1.223-7.686-1.856-11.411-2.126-12.518-4.326-25.461-3.488-39.285.824-13.587 5.27-26.522 9.567-39.03 1.444-4.2 2.935-8.542 4.24-12.78.337-1.098.683-2.194 1.038-3.29l-8.051-4.747a1.778 1.778 0 01-.775-2.117c8.969-25.686 23.98-68.676 58.149-83.3a106.74 106.74 0 015.297-2.106c2.715-7.212 4.738-15.498 6.424-23.367-5.001-4.576-9.159-13.214-6.195-20.747 2.298-5.841 5.739-6.342 7.596-6.126.93.11 1.846.456 2.712.992.04-.627.078-1.26.117-1.896.782-12.875 1.59-26.19 11.641-34.863 5.558-4.795 15.133-6.827 24.987-5.307 9.574 1.479 17.519 5.978 21.251 12.034 8.973 14.563 4.44 25.727-.812 34.861.178 6.076-.452 12.682-1.71 18.752-2.221 10.708-6.119 18.897-11.037 23.64-.228 3.008-.343 6.307-.345 10.197-.004 6.751-2.858 11.73-8.035 14.018-6.658 2.942-16.451 1.063-23.907-4.319-7.606-2.488-14.651-8.178-17.222-15.973-.895.278-1.81.58-2.737.903-1.041 2.613-2.181 5.082-3.437 7.34-.134.24-.322.445-.547.601-.182.125-18.386 12.876-33.038 42.08-6.772 13.499-11.925 25.62-15.983 37.64l.883.272c6.707 2.054 10.755 3.294 17.238 8.377.815.64 1.576 1.26 2.296 1.848 2.703 2.207 4.542 3.708 6.388 4.004 2.021-10.75 6.214-21.203 14.32-27.996a1.777 1.777 0 012.905 1.122c1.057 7.77-2.262 20.597-8.715 26.583-2.04 1.892-3.84 3.007-5.49 3.542-.644 4.188-.97 8.396-1.088 12.402 4.894 1.696 7.724 12.95 9.25 22.303.834 5.1.39 10.99-.078 17.226-.844 11.23-1.718 22.842 5.067 29.936 8.727 9.122 30.577 6.736 43.632 5.308 1.418-.154 2.752-.3 3.98-.423 18.352-1.833 23.112-11.276 25.474-28.06l.38-2.682c1.098-7.743 2.122-14.954 2.435-22.127a35.342 35.342 0 01-2.59-10.2c-.49-4.923-.208-10.331.078-15.184-2.258-12.782-.895-22.628.661-33.87.445-3.219.906-6.547 1.308-10.12 1.05-9.306 1.35-24.045-1.768-35.023-6.092-4.238-11.454-8.82-11.675-14.854a1.78 1.78 0 01.518-1.32 1.81 1.81 0 011.318-.521c2.706.089 3.13.242 5.041 1.813l.327.268c3.57 2.92 5.984 7.366 7.591 12.444.88.6 1.772 1.196 2.66 1.788 5.278 3.524 10.264 6.851 12.714 10.862 3.21 5.255 5.26 11.273 7.243 17.093 1.641 4.818 3.332 9.78 5.689 14.357 5.43-4.225 10.549-8.689 15.941-13.388 4.228-3.686 8.6-7.497 13.121-11.167 1.406-1.141 2.932-2.273 4.548-3.472 9.044-6.711 15.36-12.174 12.53-19.33-5.557 6.811-12.082 11.568-19.427 14.158a1.777 1.777 0 01-2.134-2.561c10.26-17.845 4.153-34.406-2.311-51.94a590.136 590.136 0 01-2.142-5.872c-6.572 1.532-12.732 1.496-19.224 1.457-3.721-.021-7.562-.043-11.532.253-4.053 11.314-3.272 20.845 2.325 28.342.967 1.294 2.861 3.007 4.867 4.821 3.142 2.842 6.39 5.781 7.538 8.399 1.908 4.35.6 7.438-.555 10.162-.8 1.891-1.558 3.677-1.473 6.042a1.778 1.778 0 01-2.272 1.77c-20.227-5.858-25.149-19.91-26.316-39.205-.967-16-.317-38.98 16.429-53.74 10.319-9.095 21.388-11.61 32.012-7.276 20.93 8.54 34.464 40.118 35.817 58.681.444 6.092-.11 14.452-4.877 21.113 16.608 7.189 42.313 23.369 44.81 55.192.038.49-.128.964-.444 1.319 3.118 5.883 5.579 15.117 8.106 25.417 1.002 4.076 1.866 7.597 2.61 9.745 5.091 14.688 9.989 29.122 13.98 44.21 1.58 5.98 2.444 12.518 3.277 18.842 1.224 9.272 2.49 18.86 6.024 27.073l.466 1.083c3.538 8.207 6.082 14.108 5.439 19.74.7.062 1.401.155 2.098.28.566.102 1.049.472 1.294.993 3.627 7.703 3.985 17.73 4.3 26.575l.001.028c.916 4.904 1.455 10.345 1.964 15.494.61 6.18 1.189 12.015 2.295 14.41 3.346 7.25 18.809 6.343 31.236 5.618 4.606-.27 8.953-.526 12.375-.354 16.024.8 33.782 3.394 41.697 24.167 6.037 15.846 9.043 32.44 11.95 48.491.51 2.815 1.021 5.637 1.549 8.462 4.285 22.935 6.413 44.243 6.325 63.328-.025 5.389.43 13.664.96 23.247 1.011 18.388 2.272 41.274.327 52.057-2.71 15.016-19.048 23.442-32.177 30.212a308.432 308.432 0 00-5.234 2.74c-13.9 7.507-28.273 15.267-45.395 13.345-4.695-.528-9.03-1.093-13.621-1.691-5.904-.77-12.011-1.565-18.9-2.268-3.575-.364-7.554-1.25-11.51-2.203.067.76.104 1.48.115 2.163.377.248.75.475 1.119.678 1.582.867 3.152 1.814 4.672 2.73 5.289 3.189 10.284 6.2 15.856 6.208h379.355c.987 0 1.779.795 1.779 1.777 0 .981-.792 1.777-1.779 1.777H618.864c-6.561-.008-12.22-3.42-17.691-6.717-1.386-.836-2.814-1.697-4.229-2.483-.854 5.06-3.499 7.247-5.476 8.185-5.026 2.382-11.399-.281-14.427-4.114-2.697-3.413-2.734-7.403-.102-10.673 1.075-1.334 2.148-2.306 3.212-2.982-2.377-.214-4.583-.192-6.51.198a1.779 1.779 0 01-1.805-.716c-9.588-13.54-9.305-63.165-9.168-87.014.013-2.158.024-4.038.024-5.577 0-12.315.269-24.85.53-36.974.246-11.357.5-23.101.518-34.365.01-6.056-.064-12.318-.135-18.373-.134-11.377-.275-23.14.136-34.142.832-22.295 13.72-22.047 30.039-21.724 2.059.04 4.19.082 6.38.082 13.22 0 26.107-1.237 38.597-2.499a51.372 51.372 0 012.547-1.46c13.053-7.006 36.937-12.767 49.236.075a1.777 1.777 0 01-1.034 2.988c-7.61 1.083-15.947.965-24.008.853-6.746-.095-13.724-.193-20.026.439l-4.302.433-1.227.126c-16.146 10.279-23.434 29.094-22.26 57.371.167 3.992.382 9.76.643 16.783 1.65 44.28 5.085 136.42 9.724 151.17 1.289 4.098 5.133 8.121 8.221 11.352l.886.93c4.558-.992 11.186-3.028 18.425-5.606a99.195 99.195 0 00-3.082-2.727c-1.895-1.623-3.685-3.156-4.943-4.663-14.743-17.644-13.29-141.041-12.41-163.013.11-2.723.118-5.546.128-8.533.044-14.424.093-30.773 12.356-39.751 12.229-8.953 22.991-11.54 31.988-7.686 20.534 8.796 25.688 48.62 27.888 65.626.19 1.46.356 2.74.506 3.801 5.172 36.503 8.528 114.312-6.659 137.504-3.73 5.694-22.405 14.515-39.666 20.982 1.647 2.43 2.374 5.036.958 7.68 7.53-2.51 14.751-6.41 22.191-10.43a322.33 322.33 0 015.296-2.772c12.434-6.41 27.908-14.39 30.306-27.682 1.873-10.374.625-33.028-.378-51.233-.53-9.638-.99-17.962-.964-23.456.086-18.863-2.021-39.945-6.264-62.66-.53-2.833-1.042-5.66-1.553-8.482-3.01-16.622-5.855-32.321-11.775-47.86-6.454-16.94-19.535-20.93-38.549-21.882-3.229-.157-7.484.09-11.99.353-14.003.821-29.846 1.747-34.478-7.275.33 2.977.496 5.77.017 7.658-.996 3.93-2.926 6.418-5.432 7.004-1.58.368-4.051.124-6.85-3.142-3.127-3.647-2.191-9.844-1.439-14.823.237-1.57.46-3.052.515-4.2.626-13.207-.19-25.804-2.496-38.507a1.778 1.778 0 011.396-2.06c2.371-.479 4.504-.031 6.35 1.331.89.657 1.679 1.51 2.38 2.523-.487-4.23-1.311-8.311-2.805-11.819-.462-.06-.925-.106-1.39-.135-1.498 4.071-4.914 8.224-11.088 13.24a1.78 1.78 0 01-1.048.396c-1.133.063-5.396-.74-6.54-1.16a1.778 1.778 0 01-1.159-1.533 17.39 17.39 0 01-.045-.922c-2.562 3.7-3.966 8.03-3.964 12.483.002 7.835.978 15.433 2.012 23.476 1.109 8.624 2.254 17.54 2.082 26.748a1.78 1.78 0 01-1.33 1.688c-3.276.85-7.353.374-10.382-1.219a1.776 1.776 0 01-.947-1.468c-.12-2.035-.247-4.076-.375-6.12-.67-10.728-1.364-21.819-.86-32.697.364-7.843 1.089-17.706 3.485-24.41 1.164-3.257 3.387-6.069 5.673-8.758-1.604-3.318-1.48-9.834-1.151-18.92.21-5.785.428-11.766-.332-14.489-2.093-7.508-6.215-14.756-10.202-21.765-1.94-3.41-3.944-6.935-5.686-10.441-3.983-8.016-6.608-16.648-9.148-24.997-3.15-10.355-6.168-20.28-11.527-29.12.541 1.933.884 3.946.952 6.065.222 6.98-2.239 13.178-4.62 19.172-.687 1.733-1.356 3.419-1.948 5.077.7-.36 1.48-.629 2.336-.805 4.145-.85 7.657 2.113 9.622 8.135 2.43 7.447 2.492 20.352-2.952 22.836-1.27.58-2.607.542-4.003-.108 1.475 3.462 2.938 6.574 4 8.836.86 1.833 1.54 3.28 1.9 4.185 4.661 11.727 5.312 26.308 1.743 39.005a1.78 1.78 0 01-1.542 1.287c-.381.038-.808.085-1.274.14 1.158 2.7 1.474 6.075 1.833 9.907l.17 1.779c1.44 14.653-2.394 28.992-6.103 42.86-.807 3.018-1.642 6.14-2.392 9.166-7.225 29.151-11.693 59.258-15.025 88.23 1.08 9.427 2.365 18.798 3.638 28.08.313 2.28.624 4.55.93 6.808 3.397 25.038 1.756 48.611-5.018 72.068-.182.629-.393 1.413-.632 2.305-2.53 9.409-5.419 18.68-10.39 19.714-1.022.212-2.016.08-2.983-.392-.921 2.43-1.942 4.71-3.078 6.81 2.658 4.06 2.663 8.599-.035 12.959-5.891 9.518-23.255 16.377-31.437 14.353-5.385-1.33-9.31-4.452-10.5-8.351-.77-2.52-.774-6.53 3.574-11.324 5.347-5.898 9.006-2.943 11.945-.57 2.345 1.894 4.769 3.854 8.81 3.232 4.848-.743 8.765-3.613 11.936-7.945-10.217 1.898-31.924.867-38.033-3.932-.241-.19-.472-.388-.692-.594-5.385 3.333-15.218 3.482-29.295.44-1.806-.391-2.985-1.283-3.932-1.998-1.118-.845-1.928-1.472-3.737-1.395-1.567.055-2.068.625-2.978 1.66-.84.956-1.885 2.145-3.864 2.745-7.768 2.358-14.762 1.54-22.876-.41a1.78 1.78 0 01-1.261-1.14c-1.117-3.17-1.284-6.047-.505-8.587a11.7 11.7 0 01-1.068-.64c-5.753-3.908-5.15-8.095-4.455-12.943.207-1.438.42-2.925.522-4.605 1.04-17.115 3.135-34.127 5.16-50.578 2.18-17.711 4.435-36.027 5.337-54.299.196-3.978-.625-13.832-1.575-25.242-1.099-13.204-2.047-25.461-2.553-36.172-1.912 5.335-3.662 10.38-4.723 14.932-1.516 6.505-3.25 12.665-4.928 18.622-.337 1.197-.672 2.388-1.004 3.574.227.489.436.97.628 1.443 7.219 17.847 4.656 36.749 2.179 55.028l-.2 1.475c-3.245 24.01-8.4 48.178-13.387 71.55-3.326 15.596-6.767 31.724-9.512 47.292-.21 1.197-.4 2.666-.597 4.223-.88 6.874-1.975 15.43-6.767 19.669-2.386 2.112-5.882 4.732-8.678 3.129-2.733-1.569-3.132-6.088-1.334-15.112 1.576-7.916 3.846-15.86 6.04-23.544 2.28-7.987 4.639-16.244 6.319-24.733 7.394-37.362 11.85-77.254 14.905-107.834 1.174-11.75 3.739-21.885 6.615-32.237-3.973-7.72-12.39-16.886-20.956-21.235.155.889.318 1.782.483 2.687.867 4.748 1.765 9.657 1.508 15.218a1.78 1.78 0 01-2.126 1.66l-.138-.026c-.106 10.116-2.878 21.089-4.646 28.09l-.305 1.21c-3.958 15.752-6.31 32.368-8.585 48.436-.618 4.37-1.235 8.726-1.881 13.052-.817 5.479-1.446 11.33-2.111 17.526-1.98 18.44-4.225 39.34-12.491 54.823-9.436 17.674-30.847 17.886-46.13 16.51-8.615-.775-17.364-.897-25.825-1.014-8.919-.125-18.141-.252-27.46-1.131-3.237-.305-6.644-.463-9.937-.617-13.842-.645-28.114-1.311-36.688-12.564-1.994 11.643 3.633 29.433 13.49 34.252 6.721 3.287 20.293 2.178 31.197 1.289 4.256-.349 8.276-.676 11.292-.68h.313c7.007 0 14.044.245 20.853.483 7.532.263 15.32.537 22.853.458 6.57-.074 13.373.578 19.953 1.203 7.588.72 15.435 1.466 22.915 1.11.51-.012.993.168 1.348.524.354.357.54.849.512 1.35a25.055 25.055 0 00.034 3.462c4.276-.009 8.528-.039 12.757-.097a1.79 1.79 0 011.58.914c2.187 3.935 2.088 7.709-.27 10.353-1.533 1.72-3.783 2.634-6.169 2.634z"/></svg>