<svg xmlns="http://www.w3.org/2000/svg" width="478" height="77"><g fill="none"><g fill="#D7478C"><path d="M77.854 20.819c.033.007.133-.293.218-.665l.59-2.553c.086-.373.115-.688.064-.7-.051-.012-.163.285-.25.657l-.59 2.555c-.086.373-.065.699-.032.706m-.812-.178c.035.008.127-.293.207-.667l.546-2.563c.08-.376.103-.691.049-.702-.054-.01-.159.287-.24.662l-.544 2.564c-.08.374-.056.701-.02.709m-1.63-.32c.035.005.119-.299.185-.676l.897-5.079c.066-.377.078-.694.023-.702-.054-.01-.15.293-.217.669l-.897 5.082c-.066.378-.027.7.009.707m32.976 23.11c.019.03.305-.098.635-.293l4.47-2.58c.331-.192.58-.386.555-.433-.027-.048-.32.072-.654.263l-4.472 2.581c-.332.19-.555.43-.538.46M76.225 20.478c.034.005.122-.297.196-.673l.5-2.575c.074-.376.091-.693.04-.701-.051-.01-.154.289-.227.664l-.501 2.577c-.073.376-.041.7-.007.708m2.436.538c.034.009.137-.289.231-.66l.635-2.543c.093-.373.126-.687.076-.7-.05-.013-.169.281-.26.653l-.636 2.544c-.093.371-.078.697-.044.706m1.605.428c.034.01.147-.283.253-.651l.722-2.517c.106-.369.152-.684.098-.697-.054-.014-.177.276-.283.642l-.723 2.517c-.105.369-.102.696-.068.706m.798.238c.034.01.153-.282.266-.649l.765-2.503c.112-.367.163-.68.112-.694-.051-.015-.182.271-.293.638l-.769 2.503c-.111.367-.114.693-.08.703m-1.599-.456c.035.01.144-.284.244-.654l1.335-4.981c.098-.37.138-.684.086-.697-.051-.013-.176.277-.276.647l-1.334 4.981c-.098.37-.09.696-.054.706m2.39.707c.034.01.157-.278.276-.642l.81-2.49c.12-.366.175-.677.124-.693-.052-.017-.188.268-.306.632l-.81 2.49c-.119.366-.126.692-.094.703m-13.892-2.32c.036 0 .07-.313.077-.696l.045-2.632c.007-.383-.03-.697-.083-.697-.053 0-.102.31-.109.694l-.046 2.632c-.007.383.081.699.116.699m14.68 2.585c.033.011.162-.275.287-.635l.855-2.477c.124-.363.186-.673.136-.69-.05-.018-.192.265-.317.628l-.853 2.476c-.125.362-.14.688-.107.7m-13.85-2.565c.035 0 .075-.311.089-.695l.092-2.63c.013-.382-.02-.698-.072-.7-.053 0-.107.31-.12.694l-.093 2.629c-.013.385.069.7.104.702m-24.345 1.171c-.048.024.052.325.22.668l1.15 2.355c.168.345.33.614.363.599.032-.015-.023-.339-.192-.684l-1.149-2.355c-.168-.344-.345-.607-.39-.586m4.132-1.793c-.049.02.024.327.16.684l.94 2.446c.138.358.277.64.31.627.032-.014.007-.338-.131-.694l-.94-2.447c-.138-.358-.29-.634-.339-.616m24.355.948c.035.004.101-.304.146-.684l.32-2.608c.05-.38.043-.695-.01-.702-.053-.008-.132.3-.18.68l-.32 2.608c-.05.38.006.702.042.706m-.824-.094c.035.004.098-.304.136-.684l.275-2.613c.04-.382.03-.697-.022-.703-.052-.006-.13.302-.17.684l-.273 2.61c-.04.382.019.703.054.708m-1.657-.145c.036 0 .085-.308.112-.69l.185-2.625c.026-.381.006-.697-.049-.701-.055-.005-.118.307-.146.688l-.185 2.625c-.027.382.044.702.079.703m3.31.346c.036.005.108-.3.162-.683l.364-2.602c.054-.379.056-.696.003-.703-.053-.007-.138.298-.19.677l-.368 2.601c-.053.38-.004.704.03.708m-2.476-.279c.035.003.092-.307.126-.688l.45-5.146c.033-.382.017-.697-.037-.703-.054-.006-.124.304-.157.686l-.452 5.147c-.033.381.035.701.07.704m23.168 8.445c.03.02.233-.22.454-.534l2.964-4.23c.219-.312.363-.595.319-.626-.044-.031-.26.201-.48.515l-2.965 4.23c-.22.315-.321.626-.293.646m5.16 4.186c.026.023.26-.187.522-.467l1.796-1.924c.261-.28.444-.537.405-.575-.039-.038-.283.164-.546.444L100 31.821c-.262.28-.407.572-.382.596m-5.843-4.66c.029.018.227-.225.443-.542l1.47-2.178c.214-.317.353-.602.31-.63-.045-.027-.256.206-.47.524l-1.467 2.177c-.215.318-.314.63-.285.648m3.977 3.008c.028.023.251-.198.498-.492l3.322-3.959c.245-.293.414-.562.373-.597-.04-.035-.276.178-.523.471l-3.322 3.96c-.244.292-.376.594-.348.617m-14.319-8.291c.034.011.17-.273.3-.633l1.763-4.844c.132-.36.196-.669.147-.687-.049-.017-.2.262-.33.621l-1.765 4.844c-.13.36-.147.687-.115.699m13.028 7.241c.028.02.244-.209.48-.51l1.618-2.071c.237-.301.395-.576.354-.608-.041-.032-.269.188-.505.488l-1.62 2.072c-.235.303-.355.607-.327.627m.648.521c.028.022.247-.204.489-.502l1.656-2.044c.24-.298.404-.568.364-.6-.04-.032-.271.183-.514.481l-1.656 2.044c-.24.298-.367.6-.34.621m9.042 9.7c.02.029.294-.126.608-.347l4.233-2.963c.314-.218.546-.434.515-.478-.031-.045-.314.097-.628.318l-4.232 2.962c-.314.22-.516.478-.496.508m-.484-.678c.02.028.29-.132.602-.358l2.128-1.545c.31-.227.537-.445.506-.489-.03-.044-.31.108-.62.332l-2.127 1.547c-.31.224-.51.484-.488.512m-2.047-2.616c.023.027.282-.152.575-.398l3.962-3.321c.293-.245.505-.481.471-.522-.034-.041-.304.126-.597.37l-3.962 3.322c-.293.244-.473.52-.45.549m-3.399-3.649c.025.025.263-.18.53-.456l1.829-1.895c.267-.274.453-.53.415-.566-.038-.037-.286.158-.552.434l-1.83 1.894c-.265.275-.416.564-.39.59m-59.73-10.035c-.045.028.08.318.278.646l1.352 2.25c.196.328.383.582.413.564.029-.017-.052-.334-.248-.662l-1.354-2.251c-.196-.327-.395-.573-.44-.547m46.778 1.114c.033.015.193-.257.355-.603l2.183-4.676c.161-.346.254-.65.204-.672-.05-.022-.22.244-.383.586l-2.182 4.675c-.162.348-.207.673-.175.688m-.759-.345c.033.013.187-.261.342-.612l1.066-2.393c.156-.35.244-.653.195-.676-.049-.022-.216.247-.371.598l-1.068 2.393c-.156.35-.198.674-.166.687m2.254 1.078c.032.016.2-.25.372-.593l1.191-2.335c.175-.341.278-.64.23-.663-.046-.023-.227.236-.401.577l-1.19 2.336c-.174.342-.233.662-.202.678m-3.782-1.726c.032.013.176-.265.32-.62l.982-2.43c.143-.356.22-.662.172-.684-.049-.022-.207.255-.35.61l-.982 2.429c-.146.355-.175.68-.142.694m.77.318c.032.015.182-.263.33-.616l1.026-2.41c.15-.353.231-.658.183-.679-.048-.02-.211.251-.361.605l-1.022 2.408c-.15.353-.188.678-.156.692m5.203 2.603c.03.017.213-.238.405-.57l2.582-4.47c.19-.33.31-.624.262-.651-.046-.027-.244.223-.433.555l-2.58 4.467c-.192.333-.267.652-.236.67m2.123 1.306c.029.02.224-.228.433-.549l1.431-2.204c.209-.322.342-.608.3-.635-.043-.028-.25.21-.461.531l-1.43 2.203c-.21.321-.303.635-.273.654m-.7-.448c.029.02.22-.231.422-.556l1.394-2.227c.203-.326.333-.614.288-.642-.046-.027-.249.216-.451.54l-1.394 2.228c-.202.324-.289.638-.26.657m-2.147-1.269c.03.018.207-.244.393-.578l1.273-2.295c.185-.335.3-.63.254-.656-.045-.026-.235.23-.421.564l-1.27 2.295c-.186.335-.258.653-.227.671m-15.645-5.395c.035.005.113-.3.172-.677l.411-2.593c.059-.379.066-.694.015-.703-.051-.009-.144.293-.204.674l-.411 2.588c-.06.378-.018.703.017.709m-58.204 37.18c-.01.049.29.154.665.226l2.578.502c.378.074.69.104.696.07.006-.033-.283-.184-.659-.258l-2.577-.502c-.377-.072-.693-.09-.703-.038m.18-.882c-.01.049.287.158.662.238l2.566.545c.374.08.687.118.694.083.008-.036-.28-.191-.654-.27l-2.567-.545c-.376-.08-.691-.103-.702-.049m-.492 2.655c-.009.054.293.147.674.204l2.593.41c.378.06.693.08.698.049.006-.033-.288-.175-.668-.235l-2.594-.412c-.379-.06-.694-.065-.703-.014m-.134.89c-.007.052.297.138.676.192l2.605.365c.378.053.694.068.698.034.005-.034-.293-.17-.672-.223l-2.603-.365c-.38-.055-.696-.055-.704-.003m-.117.892c-.006.053.3.133.68.18l2.61.32c.38.049.695.056.7.02.004-.035-.297-.164-.68-.21l-2.607-.32c-.38-.05-.697-.043-.703.01m.939-5.323c-.012.051.283.164.658.25l2.554.59c.373.086.685.129.693.093.01-.036-.277-.195-.65-.28l-2.555-.59c-.372-.085-.689-.115-.7-.063m1.49-5.195c-.016.049.266.192.629.317l2.477.853c.362.124.668.2.68.167.011-.032-.254-.223-.617-.348l-2.479-.852c-.362-.125-.672-.187-.69-.137m-.285.855c-.016.049.268.188.632.307l2.492.81c.364.117.673.188.685.154.011-.034-.259-.219-.623-.338l-2.492-.81c-.365-.117-.677-.173-.693-.123m-.272.86c-.015.049.271.183.638.293l2.508.766c.365.112.674.176.684.142.01-.033-.263-.214-.63-.325l-2.506-.766c-.367-.111-.68-.161-.694-.111m-.724 2.606c-.013.051.282.169.654.261l2.546.635c.371.092.684.14.69.107.006-.034-.273-.2-.646-.293l-2.545-.635c-.371-.094-.684-.127-.699-.076m.467-1.74c-.015.049.275.177.643.283l2.518.722c.369.106.679.164.689.132.01-.032-.266-.21-.635-.316l-2.52-.721c-.369-.106-.681-.152-.696-.098m1.432-4.272c-.02.049.258.2.615.339l2.449.939c.358.136.66.223.672.189.012-.034-.248-.232-.605-.368l-2.446-.94c-.358-.136-.666-.208-.684-.16m-3.15 13.107c-.006.053.3.127.684.167l2.613.274c.382.041.696.046.7.01.005-.034-.296-.159-.678-.199l-2.615-.274c-.38-.04-.697-.03-.703.022m-.158 1.795c-.004.053.307.118.689.144l2.625.184c.383.028.697.02.699-.015.001-.035-.304-.15-.684-.176l-2.626-.184c-.381-.026-.698-.006-.701.05m21.17-38.178c-.043.03.107.31.331.62l1.548 2.127c.225.31.431.547.461.527.03-.02-.082-.33-.307-.64l-1.546-2.126c-.224-.31-.445-.537-.489-.508M15.444 66.317c0 .053.313.102.694.11l2.634.045c.383.006.698-.018.698-.053s-.312-.132-.695-.14l-2.634-.045c-.381-.007-.697.03-.697.083m.023-.9c0 .053.31.107.693.12l2.633.09c.383.014.697-.004.699-.039.001-.035-.309-.138-.692-.15l-2.634-.093c-.383-.014-.697.019-.699.072m.04-.9c-.003.052.308.11.691.131l2.627.138c.382.02.697.008.699-.028.001-.035-.305-.146-.69-.163l-2.627-.137c-.383-.02-.698.006-.7.058M28.108 33.34c-.035.04.173.277.463.529l1.985 1.724c.29.252.545.436.57.41.025-.024-.153-.302-.44-.553l-1.986-1.725c-.29-.251-.554-.424-.587-.385m.593-.675c-.035.04.169.28.454.537l1.957 1.76c.285.256.537.445.559.419.021-.026-.147-.305-.433-.562l-1.954-1.758c-.285-.257-.547-.434-.582-.395m-2.32 2.76c-.032.04.189.268.49.504l2.07 1.62c.303.236.567.406.587.376.02-.029-.169-.293-.471-.53l-2.072-1.617c-.302-.236-.576-.394-.608-.353m.566-.705c-.032.04.184.271.482.512l2.045 1.657c.298.24.56.415.582.39.022-.024-.164-.296-.462-.537l-2.045-1.656c-.298-.24-.568-.404-.602-.363M29.317 32c-.035.038.165.284.446.546l1.926 1.794c.28.262.528.453.552.429.023-.025-.14-.309-.421-.57l-1.929-1.797c-.28-.26-.54-.443-.575-.404m3.891-3.754c-.04.036.134.3.385.587l1.726 1.985c.251.289.479.506.505.483.027-.024-.11-.322-.36-.61l-1.726-1.984c-.253-.29-.489-.498-.53-.463m-7.368 7.898c-.032.043.193.266.498.496l2.101 1.58c.307.232.574.398.596.37.022-.027-.173-.292-.48-.52l-2.1-1.582c-.306-.232-.582-.387-.615-.342m10.172-10.165c-.042.032.112.308.343.613l1.582 2.1c.23.307.44.537.47.518.03-.019-.087-.329-.318-.635l-1.582-2.1c-.232-.306-.455-.531-.496-.499m-6.074 5.372c-.036.038.16.286.435.553l1.894 1.827c.276.266.522.464.547.44.024-.025-.137-.31-.413-.575l-1.896-1.829c-.274-.267-.53-.454-.567-.415m2.596-2.505c-.04.035.139.296.394.58l1.762 1.954c.256.285.489.5.514.476.025-.023-.116-.318-.373-.603l-1.759-1.956c-.255-.285-.497-.489-.537-.454M23.77 39.094c-.03.044.212.251.532.46l2.204 1.43c.321.208.6.355.62.326.018-.03-.193-.277-.515-.488L24.41 39.39c-.322-.209-.608-.342-.636-.3m-2.706 4.683c-.023.049.236.228.577.402l2.338 1.19c.342.173.635.294.648.258.014-.035-.22-.255-.563-.43l-2.336-1.19c-.342-.172-.64-.277-.664-.23m-.402.807c-.024.05.24.223.586.39l2.357 1.15c.345.167.638.279.655.244.016-.034-.225-.25-.57-.418l-2.358-1.15c-.342-.168-.644-.266-.668-.22m.817-1.602c-.025.049.232.232.57.411l2.318 1.233c.338.179.628.3.645.27.016-.03-.218-.26-.556-.44l-2.317-1.23c-.339-.181-.635-.29-.66-.245m-1.94 4.067c-.02.049.252.21.604.36l2.411 1.026c.353.15.654.244.668.213.015-.032-.237-.24-.59-.391l-2.412-1.026c-.353-.15-.66-.232-.68-.183m.358-.826c-.022.05.244.215.598.371l2.394 1.066c.35.155.647.257.66.225.014-.032-.235-.244-.586-.4l-2.394-1.065c-.35-.156-.653-.244-.675-.195m-.702 1.657c-.02.05.256.206.61.35l2.43.982c.356.143.658.234.672.202.013-.033-.245-.236-.6-.38l-2.43-.982c-.356-.142-.663-.22-.682-.172m4.089-8.02c-.028.044.215.247.54.45l2.229 1.393c.326.203.606.345.625.315.02-.031-.2-.275-.524-.477l-2.229-1.393c-.324-.203-.613-.332-.641-.288m.982-1.511c-.03.044.207.254.524.468l2.179 1.47c.319.213.595.365.614.335.019-.03-.188-.28-.506-.494l-2.178-1.466c-.317-.215-.602-.355-.632-.31m-1.454 2.277c-.028.046.22.244.547.44l2.253 1.352c.328.196.612.333.628.303.016-.031-.202-.272-.531-.468L23.462 40.9c-.328-.198-.62-.323-.646-.277m-.903 1.559c-.025.045.228.236.564.421l2.297 1.273c.334.184.622.312.64.281.017-.03-.212-.262-.548-.449l-2.297-1.27c-.336-.186-.63-.3-.656-.254m67.589-17c.03.016.204-.245.383-.587l1.232-2.315c.18-.34.29-.635.244-.66-.045-.026-.232.231-.41.569l-1.233 2.317c-.18.338-.244.659-.214.675m17.624 14.936c-.318.213-.56.412-.542.44.02.026.332-.07.65-.284l2.178-1.47c.317-.213.553-.423.524-.467-.03-.044-.314.098-.631.311l-2.18 1.47zm-1.99-2.724c-.302.236-.531.452-.51.48.02.028.325-.092.628-.329l2.071-1.617c.303-.236.523-.464.49-.505-.035-.04-.306.118-.609.354l-2.07 1.617zm3.229-1.255c-.032-.043-.309.111-.614.342l-2.101 1.582c-.305.23-.538.44-.517.47.02.03.327-.088.635-.32l2.101-1.581c.306-.23.53-.454.5-.495m-2.274-2.8c-.034-.039-.3.134-.59.385l-1.985 1.726c-.29.25-.507.478-.484.504.024.027.322-.11.611-.362l1.984-1.723c.29-.252.497-.488.464-.53m-3.135 1.48c-.285.256-.499.488-.475.513.023.025.318-.114.603-.37l1.955-1.76c.284-.257.488-.5.455-.538-.033-.038-.298.138-.583.395l-1.955 1.76zm1.647 1.92c-.298.24-.524.461-.5.488.023.028.322-.097.62-.338l2.047-1.657c.298-.24.514-.471.482-.512-.033-.041-.306.123-.604.364l-2.045 1.655zm4.732 6.97c-.335.187-.595.362-.579.394.016.03.336-.042.67-.226l2.297-1.273c.337-.186.59-.376.564-.421-.025-.046-.321.067-.656.254l-2.296 1.272zm.404.739c-.338.18-.602.353-.587.383.016.031.336-.033.676-.214l2.317-1.231c.337-.18.594-.364.57-.411-.023-.047-.322.062-.66.244l-2.316 1.229zm-2.15-3.625c-.322.208-.569.404-.55.433.02.03.334-.064.655-.273l2.202-1.43c.322-.209.561-.416.534-.46-.028-.044-.316.09-.636.3l-2.205 1.43zm.455.71c-.325.202-.576.393-.557.424.02.03.333-.059.658-.261l2.229-1.393c.326-.202.568-.405.54-.45-.028-.043-.315.084-.641.289l-2.23 1.39zm3.34-.911c-.027-.046-.318.079-.647.277l-2.247 1.35c-.33.198-.587.384-.566.413.021.03.334-.05.663-.247l2.25-1.353c.33-.196.574-.395.548-.44M89.753 20.805c-.05-.024-.224.24-.391.586l-1.15 2.355c-.168.345-.279.638-.248.655.03.016.252-.227.421-.57l1.148-2.357c.17-.342.268-.644.22-.667m3.962 2.147c-.046-.028-.244.219-.44.548l-1.353 2.249c-.196.329-.335.612-.304.63.03.017.271-.205.468-.532l1.352-2.25c.196-.327.323-.619.278-.645m16.423 22.24c-.342.175-.607.342-.593.373.015.03.338-.027.679-.2l2.337-1.191c.342-.175.6-.355.577-.403-.023-.047-.323.058-.663.231l-2.337 1.19zm-14.7-17.119c-.224.31-.386.58-.358.602.028.02.288-.18.513-.489l1.544-2.128c.226-.31.376-.588.333-.62-.042-.03-.261.196-.488.507l-1.544 2.128zm-9.82-9.067c-.048-.02-.2.258-.339.616l-.94 2.447c-.137.358-.222.66-.19.672.032.011.232-.245.37-.605l.94-2.446c.138-.357.21-.665.16-.684m13.124 11.683c-.25.29-.436.545-.41.568.027.024.303-.15.554-.44l1.727-1.985c.252-.29.424-.555.384-.586-.04-.031-.277.173-.528.462l-1.727 1.981zm2.932-1.85c-.04-.034-.28.17-.538.454l-1.762 1.956c-.257.285-.445.538-.418.56.026.022.305-.147.562-.432l1.759-1.954c.255-.284.433-.547.395-.582m.133 4.747c-.276.265-.481.505-.456.53.025.024.314-.128.59-.391l1.894-1.827c.274-.267.471-.515.435-.553-.037-.039-.294.149-.567.415l-1.896 1.826zm.582.61c-.28.262-.489.496-.465.521.023.025.315-.12.596-.381l1.928-1.795c.279-.261.478-.506.443-.544-.035-.04-.293.146-.575.405l-1.927 1.795zm-4.191-8.224c-.043-.032-.266.192-.497.5l-1.583 2.1c-.23.306-.396.573-.367.595.03.022.29-.173.52-.48l1.585-2.1c.23-.305.384-.581.342-.613m16.764 34.42c-.379.053-.684.126-.681.16.002.034.328.084.707.03l2.603-.366c.38-.053.684-.14.677-.19-.007-.052-.324-.052-.703 0l-2.603.366zm-1.42-15.817c-.024-.05-.325.051-.669.218l-2.358 1.15c-.345.168-.613.33-.597.362.016.03.339-.022.684-.19l2.356-1.149c.345-.169.608-.344.587-.39m1.53 16.652c-.38.05-.689.113-.685.147.005.034.326.09.707.042l2.609-.32c.38-.047.687-.127.68-.18-.008-.053-.324-.057-.704-.01l-2.607.321zm-.238-1.67c-.38.061-.684.137-.677.173.007.035.33.077.708.017l2.594-.41c.38-.061.682-.152.673-.205-.009-.052-.325-.045-.704.015l-2.594.41zm2.985-2.2c-.01-.048-.326-.033-.702.039l-2.577.5c-.377.074-.68.162-.672.196.007.033.332.066.708-.008l2.578-.5c.376-.073.675-.177.665-.228m-3.255 5.738c.003.035.319.038.7.004l5.15-.45c.383-.034.692-.104.687-.159-.004-.054-.321-.07-.703-.036l-5.151.45c-.382.034-.684.156-.684.191m-.193-6.023c-.374.08-.675.174-.668.208.008.033.334.058.708-.021l2.567-.544c.374-.08.672-.189.662-.24-.01-.051-.326-.028-.7.049l-2.569.548zm.945 6.674c-.383.026-.692.078-.691.113.001.036.322.106.705.08l2.625-.186c.383-.026.693-.09.688-.143-.004-.053-.32-.074-.701-.05l-2.626.186zm3.422 1.665c0-.053-.317-.086-.699-.072l-2.634.092c-.383.013-.694.053-.693.088.001.035.317.117.7.104l2.633-.092c.383-.013.694-.067.693-.12m-3.368-.823c-.383.02-.695.065-.693.098.001.033.32.111.703.09l2.627-.137c.383-.019.693-.079.691-.132-.001-.053-.318-.08-.702-.059l-2.626.14zm3.119-2.774c-.006-.052-.321-.063-.703-.021l-2.62.273c-.381.04-.69.1-.684.136.006.035.326.097.708.055l2.613-.274c.38-.041.689-.116.685-.169m-6.595-12.793c-.356.144-.636.288-.621.32.014.032.337 0 .692-.142l2.432-.982c.355-.144.63-.3.61-.35-.021-.048-.327.029-.682.173l-2.431.981zm3.444-.315c-.019-.049-.327.023-.684.16l-2.447.94c-.358.135-.64.275-.629.309.012.033.34.007.698-.131l2.446-.94c.358-.135.635-.288.617-.338m-3.767-.464c-.353.15-.63.3-.616.33.015.03.34-.004.692-.154l2.411-1.025c.352-.15.624-.313.604-.361-.02-.049-.327.033-.68.183l-2.411 1.027zm2.618 8.007c-.373.086-.672.184-.665.218.007.034.333.055.707-.032l2.556-.59c.372-.085.67-.196.656-.25-.013-.053-.326-.023-.7.064l-2.554.59zm-2.957-8.78c-.35.156-.625.31-.61.342.014.032.337-.01.687-.166l2.394-1.066c.352-.156.62-.323.598-.372-.022-.048-.326.041-.675.196l-2.394 1.066zm1.554 3.92c-.363.124-.65.253-.635.287.013.034.337.02.7-.106l2.477-.853c.363-.124.645-.266.628-.318-.016-.052-.328.012-.69.137l-2.48.852zm1.205 4.04c-.372.092-.67.195-.661.23.008.036.335.05.706-.043l2.546-.635c.371-.093.665-.21.653-.261-.012-.052-.327-.017-.699.076l-2.545.633zm-3.69-8.314c.015.032.313-.074.66-.235l4.678-2.18c.346-.162.612-.334.59-.384-.022-.05-.326.044-.674.206l-4.676 2.18c-.348.162-.592.38-.577.413m3.01 5.877c-.367.111-.658.232-.649.264.009.032.338.032.705-.08l2.506-.767c.366-.111.654-.244.636-.293-.018-.049-.328 0-.695.112l-2.503.764zm-.257-.804c-.364.119-.653.245-.643.276.01.032.336.025.702-.094l2.492-.81c.365-.117.649-.255.632-.305-.016-.05-.327.006-.693.123l-2.49.81zm3.713.79c-.015-.049-.327-.006-.696.098l-2.518.724c-.368.105-.662.22-.652.252.01.033.338.037.706-.069l2.519-.722c.368-.104.657-.232.643-.283m-2.737 5.997c.006.035.318.01.696-.057l5.086-.896c.377-.066.678-.164.67-.217-.01-.053-.327-.042-.704.023l-5.085.897c-.377.066-.67.214-.663.25m-.895-4.057c.008.035.32-.018.69-.117l4.984-1.336c.37-.098.662-.223.647-.275-.014-.05-.328-.013-.698.086l-4.984 1.335c-.37.098-.648.272-.639.307m-1.245-3.963c.011.034.315-.045.676-.176l4.846-1.762c.361-.132.64-.28.622-.332-.018-.051-.329.015-.688.147l-4.846 1.762c-.36.133-.622.329-.61.363m6.868 15.353c0-.052-.315-.089-.699-.083l-2.632.049c-.383.006-.696.04-.696.074 0 .036.314.123.697.117l2.636-.05c.383-.005.696-.053.694-.106M69.63 19.667c.035 0 .08-.31.097-.69l.137-2.628c.02-.381-.006-.696-.059-.7-.053-.002-.111.309-.132.692l-.138 2.625c-.02.383.057.7.092.701m-29.14 8.053c.03-.019-.123-.293-.338-.613l-1.466-2.176c-.214-.317-.425-.553-.47-.524-.043.03.098.314.312.63l1.466 2.177c.214.319.467.526.496.506m24.159-8.056c.035 0 .049-.315.028-.698l-.139-2.627c-.02-.381-.08-.692-.133-.69-.053.004-.08.318-.059.7l.138 2.626c.02.383.13.69.165.69m-2.492.19c.035-.004.03-.318-.01-.7l-.275-2.611c-.04-.38-.114-.689-.168-.684-.053.005-.063.321-.022.703l.275 2.614c.04.381.165.683.2.678m.83-.075c.037-.003.039-.318.005-.7l-.45-5.146c-.034-.382-.105-.69-.16-.684-.054.007-.07.32-.036.702l.45 5.148c.035.381.156.684.191.684m.831-.068c.035 0 .043-.317.016-.699l-.185-2.625c-.026-.381-.09-.691-.144-.688-.052.003-.073.32-.046.701l.184 2.624c.027.383.14.688.175.687m-3.31.342c.035-.004.02-.318-.034-.699l-.365-2.601c-.055-.38-.14-.684-.193-.677-.052.008-.05.325.003.703l.366 2.602c.053.379.188.676.223.672m.825-.108c.035-.004.024-.318-.021-.699l-.322-2.609c-.048-.38-.128-.683-.179-.678-.051.005-.057.323-.01.703l.32 2.606c.045.38.176.684.212.677m-1.648.227c.035-.006.013-.32-.046-.698l-.41-2.592c-.061-.378-.152-.68-.205-.672-.053.009-.045.324.015.703l.41 2.593c.06.378.2.673.236.667m6.625-.57c.035 0 .059-.314.051-.697l-.048-2.632c-.006-.383-.055-.696-.108-.694-.053.001-.09.315-.083.698l.048 2.631c.006.383.105.694.14.694m-.833.023c.035 0 .052-.315.04-.698l-.093-2.63c-.014-.383-.068-.695-.12-.692-.054.002-.084.315-.071.698l.092 2.63c.013.383.116.694.152.692M28.578 39.204c.02-.028-.216-.236-.526-.46l-2.129-1.546c-.31-.224-.586-.374-.62-.331-.032.043.196.26.508.488l2.128 1.544c.31.226.619.334.64.306m2.05-2.618c.024-.029-.195-.251-.49-.498l-3.962-3.32c-.293-.247-.562-.414-.598-.373-.035.04.178.276.471.522l3.958 3.32c.293.247.596.377.62.349m-2.532 3.291c.02-.029-.22-.233-.534-.453l-4.232-2.963c-.314-.219-.596-.362-.627-.318-.03.044.2.261.514.48l4.234 2.962c.315.22.624.322.645.293m-2.242 3.499c.018-.03-.237-.213-.57-.405l-4.472-2.58c-.331-.192-.625-.31-.651-.264-.027.045.221.244.553.434l4.471 2.579c.332.192.652.267.67.236m11.292-13.184c.026-.022-.147-.284-.391-.582L35.1 27.57c-.24-.298-.472-.516-.514-.482-.041.034.124.304.366.602l1.655 2.044c.244.298.51.483.537.46M23.931 47.062c.015-.032-.257-.192-.603-.354l-4.678-2.179c-.348-.163-.65-.255-.674-.205-.024.05.244.22.592.381l4.676 2.18c.348.164.673.21.687.177m13.865-17.386c.028-.02-.142-.285-.379-.586l-1.619-2.072c-.237-.303-.463-.523-.505-.489-.043.035.119.306.353.608l1.619 2.07c.236.301.503.49.53.47m-3.158 2.698c.024-.024-.168-.273-.429-.553l-1.796-1.926c-.261-.28-.506-.48-.546-.444-.04.035.144.293.405.575l1.797 1.925c.262.28.542.447.569.423m1.869-1.653c.028-.023-.151-.282-.398-.575l-3.322-3.96c-.245-.292-.482-.504-.523-.47-.041.033.126.304.373.597l3.322 3.96c.247.292.52.471.548.448m-2.473 2.224c.024-.025-.172-.27-.44-.545l-1.828-1.892c-.267-.276-.515-.473-.553-.436-.038.037.15.293.415.568l1.83 1.893c.265.276.55.44.575.412M22.333 50.897c.012-.033-.272-.168-.635-.3l-4.84-1.763c-.362-.13-.671-.195-.689-.147-.018.05.26.2.621.332l4.847 1.763c.36.13.687.146.698.114m-2.151 8.02c.005-.035-.299-.118-.676-.186l-5.084-.895c-.378-.066-.693-.078-.703-.025-.01.053.293.152.669.219l5.086.896c.377.066.702.027.708-.008m.9-4.057c.01-.035-.285-.144-.657-.244l-4.984-1.334c-.37-.098-.684-.138-.698-.085-.015.053.279.175.649.274l4.984 1.336c.37.097.697.088.706.053m18.72-26.668c.029-.02-.127-.293-.346-.607l-2.964-4.231c-.22-.314-.437-.546-.48-.515-.045.032.097.313.318.627l2.963 4.23c.22.315.478.517.508.496M19.646 63.036c.002-.036-.307-.093-.689-.126l-5.15-.45c-.383-.033-.698-.017-.703.037-.004.054.304.125.684.157l5.15.452c.383.033.703-.035.706-.07m25.854-38.268c.032-.016-.085-.308-.258-.648l-1.191-2.335c-.174-.342-.354-.602-.4-.578-.048.023.055.323.23.664l1.189 2.334c.175.342.4.58.43.563m9.304-3.561c.035-.01-.018-.32-.117-.69l-1.335-4.981c-.098-.37-.224-.66-.276-.647-.053.013-.013.328.085.699l1.336 4.98c.098.37.272.648.307.64m-1.6.455c.033-.01-.032-.318-.143-.684l-.767-2.506c-.111-.365-.244-.653-.293-.638-.049.014 0 .328.113.694l.765 2.504c.113.366.293.64.326.63m.796-.237c.033-.01-.025-.32-.13-.688l-.723-2.517c-.106-.368-.234-.657-.285-.642-.052.014-.005.327.101.695l.721 2.519c.106.368.282.644.316.634m-2.38.748c.034-.012-.041-.319-.166-.68l-.853-2.473c-.125-.362-.269-.644-.319-.628-.05.016.012.327.137.69l.853 2.477c.125.363.316.628.348.616m.79-.264c.033-.01-.037-.318-.156-.684l-.81-2.49c-.118-.366-.256-.649-.306-.635-.05.013.006.327.123.69l.812 2.494c.118.364.302.635.336.622m3.197-.91c.034-.01-.013-.32-.107-.691l-.635-2.545c-.093-.371-.212-.665-.261-.652-.05.013-.018.327.074.699l.636 2.543c.093.373.26.654.293.646m1.623-.372c.034-.008-.003-.322-.082-.696L56.6 17.37c-.08-.375-.187-.673-.238-.662-.052.01-.028.327.051.701l.545 2.565c.079.376.236.662.27.655m.815-.164c.035-.005.003-.32-.07-.695l-.503-2.577c-.073-.376-.175-.675-.226-.665-.051.01-.034.326.04.702l.5 2.575c.074.375.224.666.259.658m-1.628.343c.034-.008-.009-.319-.094-.693l-.592-2.555c-.085-.374-.198-.669-.25-.657-.05.012-.021.327.065.7l.589 2.553c.087.373.248.657.282.65m-5.58 1.648c.034-.012-.045-.317-.176-.677l-1.765-4.844c-.13-.36-.28-.64-.33-.62-.05.019.016.327.146.687l1.765 4.843c.13.36.328.622.361.61m-6.805 3.101c.03-.017-.098-.305-.282-.64l-1.27-2.295c-.187-.336-.376-.588-.422-.563-.046.024.068.32.254.655l1.273 2.296c.186.336.418.565.45.547m-.726.406c.03-.019-.102-.305-.294-.635l-2.58-4.467c-.192-.332-.386-.581-.434-.555-.047.027.072.322.263.653l2.583 4.469c.19.331.43.556.46.537m-2.126 1.304c.03-.019-.117-.298-.326-.619l-1.43-2.2c-.21-.322-.417-.562-.462-.532-.046.03.09.314.3.635l1.432 2.204c.209.321.457.532.486.513m3.581-2.11c.031-.016-.09-.307-.27-.644l-1.232-2.317c-.18-.338-.365-.595-.412-.57-.047.025.063.322.244.66l1.232 2.316c.18.338.41.571.44.555m-2.881 1.664c.03-.02-.112-.3-.316-.626l-1.392-2.226c-.202-.326-.405-.568-.45-.54-.046.028.085.317.287.642l1.393 2.225c.203.326.448.542.478.525m5.113-2.777c.032-.014-.074-.31-.235-.659l-2.18-4.675c-.164-.348-.335-.612-.385-.59-.05.022.044.326.205.674l2.182 4.673c.162.348.38.592.413.577m1.517-.677c.033-.013-.064-.314-.214-.666l-1.022-2.41c-.15-.354-.313-.626-.36-.603-.05.022.033.326.183.678l1.026 2.41c.15.353.357.605.39.59m10.346-3.05c.036-.006.01-.318-.056-.696l-.897-5.083c-.066-.377-.164-.678-.217-.67-.053.01-.043.326.025.704l.896 5.079c.066.377.214.67.249.665m-11.11 3.384c.032-.013-.07-.311-.225-.662l-1.067-2.393c-.156-.351-.322-.62-.37-.597-.049.022.039.324.195.675l1.066 2.393c.157.35.368.6.4.586m1.532-.65c.033-.014-.058-.316-.202-.671l-.982-2.427c-.143-.355-.301-.63-.35-.609-.048.02.03.326.172.68l.982 2.431c.146.355.348.61.38.597m57.104 3.152l.789-.788c.123-.122.25-.244.382-.358l-.013-.01c-.21.064-.37.107-.544.152l-1.38.225-.008.007.774.772zm-.892.895l.641-.643-1.095-1.096.21-.21 2.56-.453.345.341-1.466 1.468.332.33-.251.25-.332-.33-.641.644-.303-.301zm4.375.193l-.901-.901-.697.514c.073.056.143.115.208.18.18.174.312.393.381.635.08.293.029.645-.27.943-.46.461-1.172.44-1.684-.072-.258-.258-.403-.549-.443-.732l.323-.164c.07.24.198.458.374.635.301.3.755.363 1.072.048.3-.308.316-.732-.157-1.201a3.347 3.347 0 00-.352-.303l1.286-.976 1.129 1.128-.269.266zm-84.965 2.868c.252-.064.483-.192.67-.373.411-.41.278-.8.078-.992-.335-.326-.773-.17-1.082.138l-.177.18-.241-.241.181-.177c.233-.232.405-.646.126-.925-.189-.19-.475-.236-.769.058a1.233 1.233 0 00-.317.628l-.314-.15c.032-.214.18-.544.434-.798.466-.464.952-.4 1.24-.112.244.244.304.595.119.99l.007.008c.35-.233.803-.251 1.133.08.378.378.415 1.002-.154 1.568-.264.264-.58.414-.772.453l-.162-.335zM25.689 25.981l-.007.008-.19.632-.304-.181.239-.793.274-.272 2.359 2.36-.308.308zM28.238 23.375l-.9.901.516.697c.053-.074.112-.144.177-.208.175-.18.394-.312.636-.38a.948.948 0 01.944.269c.46.46.44 1.172-.074 1.682-.258.259-.547.404-.733.445l-.163-.324c.24-.07.458-.198.635-.374.303-.301.363-.756.05-1.07-.31-.302-.73-.315-1.202.155-.109.11-.21.228-.3.353l-.982-1.286 1.13-1.128.266.268zm7.7-2.87c.26.003.518-.062.746-.188.502-.29.474-.7.33-.936-.237-.402-.703-.366-1.08-.147l-.218.125-.17-.293.219-.126c.285-.163.56-.518.362-.86-.133-.23-.397-.35-.759-.144a1.225 1.225 0 00-.468.526l-.265-.225c.086-.2.315-.48.626-.659.57-.329 1.024-.139 1.226.212.172.298.14.653-.14.987l.004.009c.397-.135.84-.034 1.075.37.265.464.139 1.074-.554 1.476-.324.186-.67.248-.865.238l-.069-.365zm2.284-1.318c.26.004.517-.06.744-.186.503-.29.474-.7.33-.938-.237-.402-.701-.365-1.08-.146l-.217.126-.17-.293.218-.126c.285-.165.561-.518.363-.86-.134-.232-.4-.353-.76-.144a1.239 1.239 0 00-.468.524l-.266-.225c.087-.2.316-.478.627-.658.57-.33 1.024-.14 1.226.212.172.298.141.653-.14.986l.004.01c.398-.133.84-.034 1.075.37.267.464.14 1.075-.554 1.475-.324.188-.67.25-.864.24l-.068-.367zm1.971-2.448c.435.751.913 1.045 1.267.84.4-.23.323-.808-.102-1.546-.412-.712-.864-1.074-1.27-.839-.343.198-.35.758.103 1.545m1.545-.95c.568.982.517 1.735-.123 2.105-.566.326-1.255.018-1.815-.933-.56-.969-.45-1.744.136-2.083.61-.35 1.27-.008 1.802.912M16.744 42.334c.227-.129.417-.314.552-.537.293-.502.06-.842-.182-.977-.408-.23-.793.035-1.01.412l-.127.219-.293-.17.127-.217c.164-.284.226-.73-.118-.928-.23-.134-.52-.106-.728.254a1.22 1.22 0 00-.142.688l-.342-.062c-.025-.216.035-.574.214-.885.33-.568.815-.63 1.168-.429.298.174.448.497.371.928l.009.006c.277-.315.71-.449 1.116-.215.461.267.659.86.258 1.554-.188.324-.454.55-.63.638l-.243-.28zm.483-3.106c.752.434 1.313.449 1.515.094.232-.4-.124-.86-.863-1.287-.71-.411-1.283-.498-1.515-.094-.198.342.077.834.863 1.287m.862-1.595c.983.568 1.316 1.246.946 1.885-.326.564-1.075.642-2.038.098-.97-.559-1.263-1.285-.921-1.872.35-.609 1.093-.641 2.014-.111m.455-.688c.752.433 1.313.45 1.518.094.231-.4-.126-.862-.863-1.286-.712-.412-1.285-.498-1.518-.093-.199.342.076.83.863 1.285m.862-1.595c.982.567 1.315 1.246.946 1.886-.326.563-1.075.64-2.038.097-.969-.556-1.262-1.282-.92-1.869.35-.609 1.094-.643 2.015-.112m29.687-21.315c.251.07.516.074.768.012.561-.15.639-.554.563-.82-.127-.45-.587-.535-1.006-.422l-.245.066-.086-.327.244-.066c.319-.085.676-.357.574-.738-.07-.259-.293-.44-.695-.335a1.229 1.229 0 00-.587.386l-.198-.286c.135-.17.428-.382.776-.474.635-.17 1.024.129 1.13.521.087.333-.034.67-.391.919l.003.01c.416-.028.819.183.94.635.138.515-.143 1.074-.917 1.28-.361.099-.709.068-.897.007l.024-.368zm3.598-1.734l-.288-1.075a8.614 8.614 0 01-.12-.51l-.015.004a9.194 9.194 0 01-.141.547l-.495 1.307.003.01 1.056-.283zm.327 1.22l-.235-.878-1.5.4-.075-.287.886-2.442.472-.126.537 2.002.451-.122.093.342-.45.121.232.88-.411.11zm2.355-3.692l-1.23.328.097.862c.084-.036.17-.066.259-.09.241-.071.497-.075.74-.011.293.075.574.298.684.704.17.628-.205 1.234-.904 1.422-.352.094-.677.073-.858.016l.02-.361c.243.06.497.057.738-.006.413-.111.693-.472.577-.904-.116-.415-.474-.638-1.119-.466-.15.041-.297.093-.44.155l-.206-1.602 1.543-.414.1.367zM12.49 56.446l-.268-.073-.24-.43c-.564-1.034-.88-1.515-1.368-1.652-.327-.088-.672-.01-.802.47-.078.293.006.575.09.759l-.345.055a1.464 1.464 0 01-.083-1c.187-.693.742-.859 1.201-.733.597.158.962.718 1.435 1.573l.17.322h.01l.387-1.446.362.098-.55 2.057zm.298-4.464c-.391-.106-.654.116-.894.519.007.407.2.675.51.759.322.101.676-.069.787-.48.105-.39-.076-.712-.403-.798m-1.934.767c.323.087.56-.111.76-.455-.02-.303-.16-.57-.453-.649-.258-.067-.567.014-.673.406-.097.362.089.623.366.698m.782.103c-.264.31-.586.39-.86.317-.512-.138-.743-.662-.592-1.227.167-.625.643-.83 1.044-.725.273.073.53.285.612.733l.015.004c.267-.36.617-.53 1.009-.427.559.151.807.733.643 1.347-.18.676-.692.973-1.163.848-.407-.11-.63-.428-.692-.871h-.016zm-.124-4.184l-.329 1.23.795.346c.01-.09.027-.18.05-.268a1.42 1.42 0 01.36-.649c.212-.214.545-.346.95-.238.632.17.97.794.782 1.494-.094.352-.273.624-.414.75l-.302-.198c.173-.18.298-.4.362-.641.11-.41-.063-.835-.494-.951-.419-.107-.79.09-.964.736-.037.15-.065.302-.083.456l-1.492-.623.413-1.54.366.096zm103.182-10.651c.196.335.605.4 1.02.161.414-.238.525-.619.317-.976a.741.741 0 00-.678-.355c-.07 0-.14.02-.2.055-.472.283-.696.704-.461 1.112l.002.003zm2.75-.691a1.744 1.744 0 00-.186-.284c-.457-.553-1.094-.619-1.607-.41l.007.013a.99.99 0 01.735.505c.297.512.134 1.084-.43 1.41-.528.305-1.226.229-1.572-.373-.357-.618-.11-1.298.642-1.733.569-.327 1.136-.383 1.584-.263.387.113.725.352.961.679.07.086.131.177.187.272l-.32.184zm-.613 1.666c-.754.433-1.046.911-.842 1.267.232.4.809.321 1.548-.103.712-.412 1.075-.865.84-1.27-.199-.342-.76-.35-1.546.104m.95 1.544c-.984.566-1.736.515-2.106-.125-.326-.565-.017-1.253.934-1.812.969-.56 1.744-.449 2.083.137.351.609.01 1.27-.911 1.8M92.936 17.438c.129.227.314.417.538.551.502.29.842.06.977-.183.227-.408-.036-.79-.415-1.01l-.218-.124.17-.293.217.126c.285.163.733.224.929-.117.133-.231.104-.522-.256-.728a1.222 1.222 0 00-.688-.143l.061-.342c.216-.024.575.034.886.213.568.33.631.816.428 1.167-.171.298-.496.449-.928.373l-.006.008c.316.276.451.71.218 1.114-.27.462-.862.66-1.555.258-.326-.186-.551-.453-.64-.628l.282-.242zm3.109.482c-.433.752-.45 1.312-.094 1.517.4.23.862-.126 1.287-.863.413-.711.498-1.282.095-1.517-.342-.198-.831.077-1.288.863m1.596.861c-.567.984-1.246 1.315-1.887.945-.564-.325-.642-1.074-.098-2.036.561-.969 1.286-1.261 1.874-.922.609.351.643 1.095.111 2.013M123.844 51.539l-.287.077-3.313-.616-.12-.452 3.225.635.012-.003-.424-1.576.363-.098zM124.114 54.014l-.33-1.23-.86.097c.035.084.065.17.09.257.069.242.073.497.012.741-.076.293-.298.574-.706.684-.63.167-1.235-.207-1.423-.906-.094-.352-.073-.676-.016-.857l.361.02c-.059.243-.057.496.006.737.11.412.474.693.905.577.415-.117.638-.474.465-1.12a3.267 3.267 0 00-.154-.435l1.603-.207.414 1.542-.367.1zM79.983 10.154l-.006.356.643-.153.009.001-.755 2.816.421.115.865-3.223-.373-.101z"/><path d="M84.162 11.263l-1.23-.33-.345.796c.09.009.18.025.269.048.244.06.468.185.647.361.215.21.348.545.24.951-.17.63-.796.967-1.497.782-.35-.095-.622-.273-.75-.415l.198-.303c.18.173.401.298.642.363.411.11.835-.063.951-.494.106-.417-.09-.79-.735-.962a3.342 3.342 0 00-.457-.084l.622-1.493 1.544.414-.099.366zm19.054 22.791l.034.039.77-2.139.887-2.464-2.465.888-2.136.77.038.033a50.07 50.07 0 012.87 2.873M29.44 29.652l.888 2.464.688 1.91.036-.037a48.683 48.683 0 012.723-2.728l.037-.036-1.906-.687-2.466-.886z"/><path d="M88.275 60.46l13.71-8.524-18.409 4.701 15.869-22.53a45.962 45.962 0 0113.315 29.692l-24.485-3.338zM69.829 65.3l4.635-5.324 34.128 5.538-38.763-.215zm-9.366-5.376l5.91-37.392.563 43.582-6.473-6.19zm-6.212-.342L41.913 42.651l16.553 16.307-4.215.624zm-8.795 1.162l-24.308 3.2c.668-11.388 5.404-21.665 12.833-29.344l16.64 22.32-18.135-3.791 12.967 7.618m18.314-39.99l-3.22 24.648L52.2 31.99c-.037.098 4.724 18.536 4.732 18.584L34.383 34.19a45.712 45.712 0 0129.385-13.433m27.709 20.829L75.216 58.17l-.636-4.212 16.897-12.373zm7.648-7.818L77.11 50.307c.007-.049 4.34-19.04 4.34-19.04l-8.16 14.074-3.695-24.618c11.477.656 21.83 5.477 29.53 13.044m16.596 30.44c-1.25-25.173-21.406-45.32-46.572-46.443L66.483 0l-2.327 17.789C39.26 19.205 19.38 39.277 18.203 64.335L0 66.735l134.18.037-18.46-2.565z"/></g><path fill="#FFF" d="M163.507 67.534c.877 0 1.836-.044 2.875-.131a14.977 14.977 0 002.919-.527l.219-3.6c-1.492.527-3.263.79-5.311.79-2.634 0-4.953-.46-6.957-1.382-2.005-.922-3.57-2.326-4.697-4.214-1.126-1.887-1.69-4.28-1.69-7.176 0-2.839.564-5.18 1.69-7.023 1.127-1.844 2.648-3.22 4.565-4.126 1.917-.907 4.06-1.361 6.43-1.361 1.054 0 2.049.066 2.985.197.937.132 1.815.374 2.634.725l-.22-3.731a20.444 20.444 0 00-2.59-.483 26.078 26.078 0 00-3.204-.176c-2.194 0-4.257.33-6.189.988a14.986 14.986 0 00-5.135 2.963c-1.492 1.317-2.663 2.985-3.512 5.004-.848 2.019-1.273 4.389-1.273 7.11 0 3.6.732 6.6 2.195 8.999 1.463 2.4 3.438 4.191 5.926 5.377 2.487 1.185 5.267 1.777 8.34 1.777zm18.461 0c2.049 0 3.907-.431 5.575-1.295 1.668-.863 3.007-2.158 4.016-3.884 1.01-1.727 1.514-3.848 1.514-6.365 0-2.429-.468-4.528-1.404-6.298-.937-1.77-2.202-3.132-3.797-4.083-1.595-.95-3.416-1.426-5.465-1.426-2.019 0-3.87.431-5.552 1.295-1.683.863-3.029 2.15-4.038 3.862-1.01 1.712-1.515 3.826-1.515 6.343 0 2.429.468 4.536 1.405 6.32.936 1.786 2.21 3.154 3.819 4.105 1.609.95 3.423 1.426 5.442 1.426zm.352-3.38c-2.049 0-3.76-.71-5.136-2.128-1.375-1.42-2.063-3.636-2.063-6.65 0-2.692.658-4.668 1.975-5.926 1.317-1.258 2.97-1.887 4.96-1.887 2.049 0 3.76.71 5.136 2.129 1.375 1.419 2.063 3.62 2.063 6.605 0 2.722-.659 4.712-1.975 5.97-1.317 1.258-2.97 1.887-4.96 1.887zm18.9 2.854a31.092 31.092 0 01-.197-3.095 216.691 216.691 0 01-.022-3.05V50.678c1.053-1.112 2.129-1.91 3.226-2.392a8.363 8.363 0 013.402-.724c1.638 0 2.824.512 3.555 1.536.732 1.024 1.097 2.517 1.097 4.477v13.432h3.907a54.048 54.048 0 01-.176-3.095 108.37 108.37 0 01-.043-3.05v-7.594c0-.878-.059-1.697-.176-2.458 1.083-1.17 2.18-2.005 3.292-2.502a8.402 8.402 0 013.468-.746c1.638 0 2.823.512 3.555 1.536.732 1.024 1.097 2.517 1.097 4.477v13.432h3.907a54.048 54.048 0 01-.176-3.095 108.37 108.37 0 01-.044-3.05v-7.594c0-3.043-.65-5.319-1.953-6.826-1.302-1.507-3.168-2.26-5.596-2.26-1.463 0-2.934.366-4.412 1.097a12.726 12.726 0 00-3.84 2.897c-1.142-2.663-3.365-3.994-6.672-3.994-1.375 0-2.75.314-4.126.944a9.568 9.568 0 00-3.468 2.655l.176-3.73-3.907.526c.117.76.183 1.536.198 2.326.014.79.022 1.61.022 2.458v17.646h3.906zm39.136 9.217a31.092 31.092 0 01-.198-3.094 216.676 216.676 0 01-.021-3.05v-3.556c.673.322 1.463.57 2.37.746a14.99 14.99 0 002.853.263c1.902 0 3.68-.446 5.333-1.339 1.653-.892 2.992-2.253 4.016-4.082 1.024-1.829 1.536-4.133 1.536-6.913 0-2.487-.41-4.543-1.229-6.167-.819-1.624-1.909-2.838-3.27-3.643-1.36-.805-2.86-1.207-4.499-1.207-1.346 0-2.677.3-3.994.9-1.317.6-2.414 1.426-3.292 2.48l.176-3.38-3.907.527c.088.76.146 1.572.176 2.436.029.863.043 1.719.043 2.567v26.512h3.907zm4.302-11.983c-.79 0-1.551-.066-2.283-.197a10.543 10.543 0 01-2.238-.68v-12.73c.936-1.082 1.93-1.865 2.984-2.348 1.054-.483 2.122-.724 3.205-.724 1.17 0 2.216.263 3.138.79.922.526 1.653 1.375 2.195 2.546.541 1.17.812 2.75.812 4.74 0 3.014-.725 5.201-2.173 6.562-1.449 1.36-3.329 2.041-5.64 2.041zm20.349 3.292c1.639 0 3.094-.344 4.367-1.031a6.956 6.956 0 002.92-2.963c.087.644.204 1.287.35 1.931.147.644.278 1.156.395 1.537h3.644c-.293-.732-.535-1.64-.725-2.722a20.594 20.594 0 01-.285-3.555v-7.726c0-2.809-.702-4.981-2.107-6.518-1.405-1.536-3.54-2.304-6.408-2.304-1.142 0-2.334.124-3.578.373a16.589 16.589 0 00-3.533 1.12l-.483 3.73c1.346-.673 2.619-1.141 3.819-1.404 1.2-.264 2.34-.395 3.423-.395 1.756 0 3.073.424 3.95 1.272.879.85 1.318 2.356 1.318 4.522v.043l-5.224 1.054c-3.072.644-5.238 1.55-6.496 2.721-1.258 1.17-1.887 2.649-1.887 4.434 0 1.785.585 3.211 1.755 4.28 1.17 1.067 2.766 1.601 4.785 1.601zm.658-2.985c-1.2 0-2.107-.314-2.721-.943-.615-.63-.922-1.441-.922-2.436 0-1.083.395-1.96 1.185-2.634.79-.673 2.253-1.127 4.39-1.36l4.477-.483v.702c0 1.639-.308 2.992-.922 4.06-.615 1.068-1.405 1.85-2.37 2.348a6.707 6.707 0 01-3.117.746zm20.306 2.985c2.604 0 4.696-.497 6.276-1.492s2.37-2.59 2.37-4.785c0-1.375-.41-2.64-1.228-3.796-.82-1.156-2.356-2.188-4.61-3.095l-2.413-.965c-1.376-.556-2.268-1.076-2.678-1.559-.41-.483-.614-1.09-.614-1.821 0-.849.373-1.493 1.119-1.932.746-.439 1.924-.658 3.533-.658 1.025 0 2.034.08 3.029.241.995.161 1.96.447 2.897.856l-.176-3.555c-1.521-.527-3.32-.79-5.399-.79-2.75 0-4.886.497-6.408 1.492-1.522.995-2.282 2.444-2.282 4.346 0 1.375.402 2.575 1.207 3.599.804 1.024 2.216 1.946 4.235 2.765l2.414.966c1.493.585 2.48 1.148 2.963 1.69.483.541.725 1.222.725 2.04 0 .937-.359 1.705-1.076 2.305-.717.6-2.114.9-4.192.9-2.311 0-4.301-.336-5.97-1.01l.132 3.556c.703.205 1.61.373 2.722.505 1.112.131 2.253.197 3.424.197zm16.969 0c2.604 0 4.697-.497 6.277-1.492s2.37-2.59 2.37-4.785c0-1.375-.41-2.64-1.229-3.796-.82-1.156-2.356-2.188-4.609-3.095l-2.414-.965c-1.375-.556-2.268-1.076-2.677-1.559-.41-.483-.615-1.09-.615-1.821 0-.849.373-1.493 1.12-1.932.746-.439 1.923-.658 3.533-.658 1.024 0 2.034.08 3.028.241.995.161 1.961.447 2.897.856l-.175-3.555c-1.522-.527-3.321-.79-5.4-.79-2.75 0-4.886.497-6.408 1.492-1.521.995-2.282 2.444-2.282 4.346 0 1.375.402 2.575 1.207 3.599s2.217 1.946 4.236 2.765l2.414.966c1.492.585 2.48 1.148 2.963 1.69.483.541.724 1.222.724 2.04 0 .937-.358 1.705-1.075 2.305-.717.6-2.115.9-4.192.9-2.312 0-4.302-.336-5.97-1.01l.132 3.556c.702.205 1.61.373 2.721.505 1.112.131 2.254.197 3.424.197zm24.677-.526a27.562 27.562 0 01-.153-2.437c-.015-.804-.022-1.616-.022-2.436v-8.998h6.233c.819 0 1.712.022 2.677.066.966.044 1.858.095 2.678.154V49.67c-.82.087-1.712.146-2.678.175-.965.03-1.858.044-2.677.044h-6.233V39.091h7.988c.908 0 1.8.008 2.678.022.878.015 1.77.08 2.677.198v-3.468h-17.294a68.54 68.54 0 01.176 4.872v21.42a67.036 67.036 0 01-.176 4.873h4.126zm18.638-26.556c.79 0 1.456-.263 1.997-.79.541-.527.812-1.2.812-2.02 0-.819-.27-1.492-.812-2.018-.541-.527-1.207-.79-1.997-.79-.761 0-1.42.263-1.975.79-.556.526-.834 1.2-.834 2.019 0 .82.278 1.492.834 2.019.556.527 1.214.79 1.975.79zm2.326 26.556a33.771 33.771 0 01-.197-3.139c-.015-1.01-.022-2.012-.022-3.007v-16.68l-3.907.528c.059.76.11 1.536.154 2.326s.066 1.61.066 2.458v17.514h3.906zm9.595 0a31.092 31.092 0 01-.197-3.095 216.676 216.676 0 01-.022-3.05V50.678c1.053-1.112 2.129-1.91 3.226-2.392a8.363 8.363 0 013.402-.724c1.639 0 2.824.512 3.555 1.536.732 1.024 1.098 2.517 1.098 4.477v13.432h3.906a54.048 54.048 0 01-.175-3.095 108.37 108.37 0 01-.044-3.05v-7.594c0-3.043-.651-5.319-1.954-6.826-1.302-1.507-3.167-2.26-5.596-2.26-1.375 0-2.75.314-4.126.944a9.568 9.568 0 00-3.468 2.655l.176-3.73-3.907.526c.088.76.147 1.536.176 2.326.03.79.044 1.61.044 2.458v17.646h3.906zm24.915.526c1.638 0 3.094-.344 4.367-1.031a6.956 6.956 0 002.919-2.963c.088.644.205 1.287.351 1.931.146.644.278 1.156.395 1.537h3.643c-.292-.732-.534-1.64-.724-2.722a20.594 20.594 0 01-.285-3.555v-7.726c0-2.809-.703-4.981-2.107-6.518-1.405-1.536-3.54-2.304-6.409-2.304-1.14 0-2.333.124-3.577.373a16.589 16.589 0 00-3.533 1.12l-.483 3.73c1.346-.673 2.619-1.141 3.819-1.404 1.2-.264 2.34-.395 3.423-.395 1.756 0 3.073.424 3.95 1.272.879.85 1.317 2.356 1.317 4.522v.043l-5.223 1.054c-3.072.644-5.238 1.55-6.496 2.721-1.258 1.17-1.888 2.649-1.888 4.434 0 1.785.586 3.211 1.756 4.28 1.17 1.067 2.766 1.601 4.785 1.601zm.658-2.985c-1.2 0-2.107-.314-2.721-.943-.615-.63-.922-1.441-.922-2.436 0-1.083.395-1.96 1.185-2.634.79-.673 2.253-1.127 4.39-1.36l4.476-.483v.702c0 1.639-.307 2.992-.921 4.06-.615 1.068-1.405 1.85-2.37 2.348a6.707 6.707 0 01-3.117.746zm19.471 2.459a31.093 31.093 0 01-.197-3.095 216.69 216.69 0 01-.022-3.05V50.678c1.053-1.112 2.129-1.91 3.226-2.392a8.363 8.363 0 013.402-.724c1.639 0 2.824.512 3.555 1.536.732 1.024 1.098 2.517 1.098 4.477v13.432h3.906a54.049 54.049 0 01-.175-3.095c-.03-1.039-.044-2.056-.044-3.05v-7.594c0-3.043-.651-5.319-1.954-6.826-1.302-1.507-3.167-2.26-5.596-2.26-1.375 0-2.75.314-4.126.944a9.568 9.568 0 00-3.468 2.655l.176-3.73-3.907.526c.088.76.147 1.536.176 2.326.03.79.044 1.61.044 2.458v17.646h3.906zm30.709.526c.819 0 1.646-.044 2.48-.131.833-.088 1.558-.235 2.172-.44l.176-3.599c-.732.293-1.463.512-2.195.659-.731.146-1.58.22-2.546.22-2.546 0-4.58-.696-6.1-2.086-1.523-1.39-2.283-3.577-2.283-6.562 0-2.809.739-4.865 2.216-6.167 1.478-1.302 3.417-1.953 5.816-1.953.761 0 1.536.058 2.327.175.79.118 1.638.352 2.545.703l-.175-3.512a10.974 10.974 0 00-2.173-.505 20.865 20.865 0 00-2.7-.153c-2.194 0-4.17.431-5.925 1.295-1.756.863-3.146 2.158-4.17 3.884-1.024 1.727-1.536 3.892-1.536 6.497 0 2.604.534 4.77 1.602 6.496 1.068 1.726 2.51 3.021 4.323 3.884 1.815.864 3.863 1.295 6.146 1.295zm10.341-27.082c.79 0 1.456-.263 1.997-.79.542-.527.812-1.2.812-2.02 0-.819-.27-1.492-.812-2.018-.541-.527-1.207-.79-1.997-.79-.76 0-1.42.263-1.975.79-.556.526-.834 1.2-.834 2.019 0 .82.278 1.492.834 2.019.556.527 1.214.79 1.975.79zm2.326 26.556a33.771 33.771 0 01-.197-3.139 207.48 207.48 0 01-.022-3.007v-16.68l-3.907.528c.059.76.11 1.536.154 2.326s.066 1.61.066 2.458v17.514h3.906zm10.693.526c1.639 0 3.095-.344 4.367-1.031a6.956 6.956 0 002.92-2.963c.087.644.204 1.287.35 1.931.147.644.279 1.156.396 1.537h3.643c-.293-.732-.534-1.64-.725-2.722a20.594 20.594 0 01-.285-3.555v-7.726c0-2.809-.702-4.981-2.107-6.518-1.404-1.536-3.54-2.304-6.408-2.304-1.141 0-2.334.124-3.577.373a16.589 16.589 0 00-3.534 1.12l-.483 3.73c1.346-.673 2.62-1.141 3.819-1.404 1.2-.264 2.341-.395 3.424-.395 1.755 0 3.072.424 3.95 1.272.878.85 1.317 2.356 1.317 4.522v.043l-5.223 1.054c-3.073.644-5.238 1.55-6.497 2.721-1.258 1.17-1.887 2.649-1.887 4.434 0 1.785.585 3.211 1.756 4.28 1.17 1.067 2.765 1.601 4.784 1.601zm.658-2.985c-1.2 0-2.106-.314-2.721-.943-.614-.63-.922-1.441-.922-2.436 0-1.083.395-1.96 1.185-2.634.79-.673 2.254-1.127 4.39-1.36l4.477-.483v.702c0 1.639-.307 2.992-.922 4.06-.614 1.068-1.404 1.85-2.37 2.348a6.707 6.707 0 01-3.117.746zm19.472 2.459a37.229 37.229 0 01-.176-2.502c-.029-.82-.044-1.727-.044-2.722V33.517l-3.906.526c.058.615.11 1.259.153 1.932.044.673.066 1.39.066 2.15v28.883h3.907z"/></g></svg>