<svg xmlns="http://www.w3.org/2000/svg" viewBox="0 0 480 348">

<g fill="none" fill-rule="evenodd">

<path fill="#FFF8E6" d="M162.685 168.544c1.052 0 6.419 5.474 6.419 8.316 0 .316-.21 1.053-.632 1.58-4.104 5.473-17.678 14.316-33.883 30.528 3.788 0 6.84 1.685 9.05 3.79 2.735 2.527 4.735 4.737 4.735 7.37 0 1.578-.527 3.579-1.053 4.842-3.893 9.474-19.783 29.897-30.937 29.897-4.315 0-7.366-2.737-11.786-7.58-3.572-3.88-3.68-5.977-3.683-7.733v-.162c0-4.526 2.315-9.264 4.314-12.738 5.683-9.685 13.049-16.843 25.782-29.37 16.52-16.318 23.15-22.214 28.938-27.161 1.052-.948 1.789-1.58 2.736-1.58Zm-26.413 45.477c-6.524 0-24.413 21.687-24.413 27.898 0 .947.21 2.105 1.578 2.105 1.684 0 3.473-.947 6.946-3.895 5.577-4.737 17.678-18.844 17.889-24.423 0-1.158-1.053-1.685-2-1.685Z"/>

<path fill="#FFF8E6" fill-rule="nonzero" d="M15.469 257.604c6.945 0 21.782-10.211 38.83-25.37 5.366 0 11.049-.21 16.52-.421-2.946 6.105-3.577 9.79-3.577 13.159 0 2 3.157 11.58 9.576 11.58 8.313 0 26.833-16.318 26.833-20.002 0-.526-.526-3.158-1.789-3.158-.526 0-1.263.526-1.684.842-8.628 7.685-18.625 14.843-21.677 14.843-.631 0-1.052-.315-1.052-1.052 0-3.37 4.104-10.422 8.523-16.844 4.841-.21 9.366-.316 13.26-.316.841 0 1.473-.21 1.473-.737 0-1.895-2.736-6.21-8.208-8l3.472-4.738c14.943-22.002 31.99-37.161 31.99-39.267 0-2.631-13.995-10.106-19.362-10.106-1.158 0-1.894 1.158-2.947 2.21-10.628 11.476-32.2 34.846-56.297 54.322-3.473.105-7.261.21-11.365.21-3.157 0-5.998-1.052-6.84-1.052-.737 0-1.052 1.368-1.052 2.21 0 2.422.526 4.843 9.786 5.896-7.577 5.58-15.364 10.632-23.045 14.633-1.473.736-4.104 1.894-6.314 1.894-2.736 0-3.578-1.894-3.578-4.316 0-3.368.737-5.895 2.736-9.369 5.472-9.475 14.943-16.212 23.992-21.897 1.474-.947 1.79-2.316 1.79-3.79v-.181l-.001-.092v-.091c-.013-1.27-.157-2.583-1.789-2.583-.63 0-11.785 2.947-20.204 9.264C6.63 220.443 0 227.812 0 236.445c0 9.58 5.156 16.106 12.628 20.528.736.42 1.683.631 2.84.631Zm48.616-34.319c12.101-11.58 24.94-25.054 36.514-38.74 1.158-1.369 1.579-1.79 2.105-1.79.42 0 .526.211.526.527 0 .316-.21.842-.526 1.263-12.838 17.054-21.046 28.845-26.307 37.372-3.894.316-7.893.842-12.312 1.368Zm92.197 31.582c10.312 0 20.73-7.369 28.412-14.422 4.314-3.895 8.523-8.738 8.523-9.896 0-.42-.105-1.052-.947-1.052-.947 0-11.049 9.369-30.306 16.422-1.263.421-3.578 1.053-5.472 1.053-3.262 0-4.104-2.21-4.104-3.895 0-1.895 1.158-4.527 3.157-7.58 2.315 2.421 5.472 3.685 7.682 3.685 7.892 0 25.255-14.317 25.255-24.424 0-1.368-.316-3.158-4.104-6.632-2.63-2.947-5.577-5.158-7.787-5.158-3.999 0-10.418 3.369-18.836 10.948-8.208 7.37-16.1 15.896-16.1 25.897 0 4.211 9.997 15.054 14.627 15.054Zm4.84-22.002c-.526 0-1.683-.105-2.525-1.368 4.84-5.896 11.89-12.317 18.941-17.16.526-.316 1.473-.737 2.21-.737.737 0 1.263.316 1.263 1.158 0 3.264-13.89 18.107-19.889 18.107Zm23.782 19.055c2.105 0 3.894-3.685 4.84-4.738 12.207-13.159 23.677-23.265 29.886-26.528.631-.316 1.052-.421 1.473-.421 2.42 0 3.368 4.21 5.262 4.21.947 0 9.786-6 9.786-11.895 0-2.106-1.473-4.527-4.104-4.527-4.21 0-15.574 8.106-21.888 12.843 0-.526 2.21-2.947 4.42-5.685 1.052-1.368 2.105-2.526 2.105-3.79 0-1.894-2.42-5.79-4.736-5.79-.526 0-1.052.211-1.578.738-7.09 7.258-12.63 13.288-18.342 19.408l-.45.483a923.808 923.808 0 0 1-4.359 4.637c-3.262 3.369-7.681 7.896-7.681 12.633 0 4.106 3.998 8.422 5.366 8.422Zm36.431 43.688c1.158 0 3.788-7.37 10.523-17.686 12.943-19.896 28.307-38.95 47.248-56.742.631-.632 1.052-1.158 1.052-1.684 0-.421-.315-.948-.947-1.58-3.57-3.297-6.583-3.646-9.316-4.027l-.188-.027a34.073 34.073 0 0 1-1.019-.156c-4.945-5.685-8.102-7.37-11.26-7.37-13.048 0-33.252 18.423-38.198 30.74-.63 1.474-.947 2.737-.947 3.685 0 5.158 5.578 13.685 9.682 13.685 4.42 0 6.629-3.053 12.417-6.632-9.787 9.475-17.89 18.528-27.465 33.056-.632.947-1.368 2.526-1.368 3.474 0 2.105 5.156 9.053 8.102 10.843.316.21 1.053.421 1.684.421Zm10.733-49.689c-1.262 0-1.578-1.368-1.578-2.21 0-2.948 7.577-10.528 9.786-12.528 9.576-8.738 19.468-14.949 21.151-14.949 1.474 0 2.42 1.895 2.42 2.737 0 .106-.315.948-4.63 5.053-8.733 8.422-25.465 21.897-27.149 21.897Zm52.512 8.948c10.312 0 20.73-7.369 28.412-14.422 4.314-3.895 8.523-8.738 8.523-9.896 0-.42-.105-1.052-.947-1.052-.947 0-11.049 9.369-30.306 16.422-1.263.421-3.578 1.053-5.472 1.053-3.262 0-4.104-2.21-4.104-3.895 0-1.895 1.158-4.527 3.157-7.58 2.315 2.421 5.472 3.685 7.682 3.685 7.892 0 25.255-14.317 25.255-24.424 0-1.368-.316-3.158-4.104-6.632-2.63-2.947-5.577-5.158-7.787-5.158-3.999 0-10.418 3.369-18.836 10.948-8.208 7.37-16.1 15.896-16.1 25.897 0 4.211 9.997 15.054 14.627 15.054Zm4.84-22.002c-.526 0-1.683-.105-2.525-1.368 4.84-5.896 11.89-12.317 18.941-17.16.526-.316 1.473-.737 2.21-.737.737 0 1.263.316 1.263 1.158 0 3.264-13.89 18.107-19.889 18.107Zm37.988 22.002c14.943 0 37.04-19.475 37.04-22.528 0-2.106-1.367-3.264-1.998-3.264-.632 0-1.474.527-2.315 1.264-8.63 7.264-23.572 18.107-31.885 18.107-1.789 0-3.683-.527-3.683-3.053 0-4.422 3.157-10.212 8.103-16.528 1.262 1.895 2.21 2.421 3.893 2.421 4.63 0 40.093-24.213 51.773-37.582 1.789-2.106 3.473-4.211 3.473-6.948 0-4.843-6.946-10.843-13.26-10.843-4.945 0-12.732 5.369-17.994 8.948-18.94 13.054-46.406 40.109-46.406 55.479 0 7.79 5.788 14.527 13.26 14.527Zm10.523-30.845c-.42 0-.631-.315-.736-.631 15.994-18.318 41.776-38.109 43.354-38.109 1.052 0 1.473.421 1.473 1.684 0 5.264-41.565 37.056-44.09 37.056Zm33.674 30.845c10.312 0 20.73-7.369 28.412-14.422 4.314-3.895 8.523-8.738 8.523-9.896 0-.42-.105-1.052-.947-1.052-.947 0-11.05 9.369-30.306 16.422-1.263.421-3.578 1.053-5.472 1.053-3.262 0-4.104-2.21-4.104-3.895 0-1.895 1.158-4.527 3.157-7.58 2.315 2.421 5.472 3.685 7.682 3.685 7.892 0 25.255-14.317 25.255-24.424 0-1.368-.316-3.158-4.104-6.632-2.63-2.947-5.577-5.158-7.787-5.158-3.999 0-10.418 3.369-18.836 10.948-8.208 7.37-16.1 15.896-16.1 25.897 0 4.211 9.996 15.054 14.627 15.054Zm4.84-22.002c-.526 0-1.684-.105-2.525-1.368 4.84-5.896 11.89-12.317 18.94-17.16.527-.316 1.474-.737 2.21-.737.737 0 1.263.316 1.263 1.158 0 3.264-13.89 18.107-19.888 18.107ZM32.578 348c2 0 3.683-4.421 8.63-11.159l2.525-3.369c6.208 6 15.258 9.475 24.308 9.475 7.26 0 14.521-1.263 21.572-3.158 29.464-8.106 45.564-24.003 45.564-41.267 0-13.16-11.365-30.319-26.202-34.109a66.74 66.74 0 0 0-15.784-1.895c-23.572 0-60.507 15.16-60.507 22.318 0 1.79.841 5.37 1.578 5.37 1.158 0 1.263-2.738 11.154-6.001 12.207-4 22.414-6.948 34.41-8.106-1.473.737-2.946 1.79-4.524 3.158-3.368 2.842-22.835 19.686-36.515 34.635a23.626 23.626 0 0 1-.36-1.533l-.027-.138c-.28-1.412-.382-2.33-.77-2.33-.788 0-1.234 1.704-1.44 3.357l-.017.146c-.081.703-.12 1.387-.122 1.917v1.528l-1.263 1.474c-2.525 3.053-9.26 8.738-9.26 14.001 0 5.58 4.104 15.686 7.05 15.686Zm33.253-21.16c-6.42 0-11.26-.631-15.048-1.79 13.785-15.79 33.253-34.529 44.723-44.214.63-.526.841-.948.841-1.369 0-.631-2.736-2.631-5.682-3.895 10.313 0 35.673 2.527 35.673 16.002 0 8.211-13.154 19.265-19.468 22.528-14.1 7.37-25.991 12.738-41.04 12.738Zm72.501 16.528c10.313 0 20.73-7.37 28.412-14.422 4.315-3.895 8.524-8.738 8.524-9.896 0-.421-.105-1.053-.947-1.053-.947 0-11.05 9.37-30.306 16.423-1.263.42-3.578 1.053-5.472 1.053-3.262 0-4.104-2.211-4.104-3.896 0-1.894 1.157-4.526 3.157-7.58 2.315 2.422 5.472 3.685 7.681 3.685 7.893 0 25.255-14.317 25.255-24.423 0-1.369-.315-3.158-4.104-6.632-2.63-2.948-5.577-5.159-7.787-5.159-3.998 0-10.417 3.37-18.836 10.949-8.208 7.369-16.1 15.896-16.1 25.897 0 4.21 9.997 15.054 14.627 15.054Zm4.84-22.002c-.525 0-1.683-.105-2.525-1.369 4.84-5.895 11.891-12.317 18.942-17.16.526-.315 1.473-.736 2.21-.736.736 0 1.262.316 1.262 1.158 0 3.263-13.89 18.107-19.888 18.107Zm54.404 20.95c5.683 0 12.312-4.527 18.942-10.107 6.419-5.369 9.996-9.475 9.996-10.738 0-1.368-1.052-2.947-2.42-2.947-.42 0-.631.105-.947.42-7.997 7.896-20.31 15.686-23.36 15.686-1.474 0-1.58-1.368-1.58-1.684 0-4.106 16.1-17.475 23.256-24.002.842-.842.948-1.264.948-1.79 0-2.737-6.209-8.211-8.84-8.211-.267 0-.534.075-.801.162l-.146.048c-10.628 5.159-21.677 12.528-22.94 12.738.413-.67 1.71-2.124 2.925-3.644l.148-.186c1.207-1.524 2.294-3.083 2.294-3.96 0-2-3.262-6.316-4.735-6.316-.316 0-.632.105-1.053.631-8.629 10.738-15.679 17.16-27.57 28.95-1.263 1.264-2.21 3.053-2.21 4.317 0 3.474 3.157 8.106 5.893 9.685.526.21.947.42 1.263.42.526 0 .947-.315 1.473-1.052 8.313-8.948 19.994-19.475 27.255-24.318.315-.21.947-.526 1.368-.526.21 0 .315.105.315.21 0 .316-.315.632-.42.737-4 4-9.366 9.58-9.366 14.949 0 5.685 5.05 10.527 10.312 10.527Zm29.886 0c3.998 0 9.365-2.422 13.153-5.16 15.259-10.737 19.047-15.685 19.047-17.264 0-1.368-1.053-2.948-1.79-2.948-1.157 0-1.893.527-2.84 1.474-13.154 12.107-19.994 13.896-22.204 13.896-1.368 0-1.789-.526-1.789-1.368 0-4.422 16.31-20.528 29.57-33.056 9.997-.632 20.52-1.79 20.52-3.79 0-1.368-.737-2.737-2.315-4.526-1.684-1.895-3.052-2.632-6.42-2.738 2.737-2.42 4.63-4.105 4.63-4.737 0-.316-.105-.631-.315-.947a70.077 70.077 0 0 0-2.364-3.233l-.155-.2c-1.608-2.059-3.353-4.042-4.005-4.042-.737 0-2.42 1.685-18.415 16.739a79.753 79.753 0 0 1-11.576.842c-3.788 0-5.05-1.053-6.103-1.053-.526 0-.631.421-.631.842 0 5.159 2.736 7.264 9.68 7.37-18.94 17.79-25.78 25.476-25.78 31.476 0 3.685 5.261 12.422 10.102 12.422Zm33.357.736c3.683 0 8.103-3.474 15.89-10.527 0 5.79 3.578 9.79 7.997 9.79 7.261 0 26.413-16.949 26.413-20.633 0-.737-.842-3.158-2.21-3.158-.526 0-.736.21-.947.42-10.102 10.633-21.046 16.107-21.993 16.107-.631 0-1.052-.42-1.052-.947 0-3.263 13.785-17.686 23.36-24.318.106-.105.422-.316.422-.632 0-.947-4.315-4.21-9.681-6.421-3.473-3.37-7.261-8.212-11.786-8.212-6.84 0-32.621 19.686-36.62 30.635-.42 1.053-.526 2.105-.526 2.947 0 3.79 1.473 5.896 3.052 8.843 1.999 3.685 4.42 6.106 7.681 6.106Zm.106-6.843c-.527 0-1.474-.842-1.474-1.684 0-2.526 4.104-7.158 7.577-10.843 4.84-5.158 9.365-9.159 15.574-13.475.59-.4 1.22-.813 1.863-1.217l.193-.12.193-.121.194-.12c2.39-1.47 4.803-2.738 5.66-2.738 1.052 0 1.683.631 1.683 1.368 0 .21-.105.527-.21.737-.526 1.053-22.414 24.108-30.201 27.898-.421.21-.737.315-1.052.315Zm57.665 7.159c14.943 0 37.041-19.476 37.041-22.528 0-2.106-1.368-3.264-2-3.264-.63 0-1.473.526-2.314 1.263-8.63 7.264-23.572 18.107-31.885 18.107-1.789 0-3.683-.526-3.683-3.053 0-4.421 3.157-10.211 8.103-16.527 1.263 1.894 2.21 2.42 3.893 2.42 4.63 0 40.093-24.212 51.773-37.582 1.79-2.105 3.473-4.21 3.473-6.948 0-4.842-6.945-10.843-13.26-10.843-4.945 0-12.732 5.37-17.993 8.948-18.942 13.054-46.407 40.11-46.407 55.48 0 7.79 5.788 14.527 13.26 14.527Zm10.523-30.845c-.42 0-.631-.316-.736-.632 15.995-18.317 41.776-38.108 43.354-38.108 1.052 0 1.473.42 1.473 1.684 0 5.264-41.565 37.056-44.09 37.056Z"/>

<path fill="#FCD872" d="m218.592 194.264-17.914-17.334-12.65 4.605a.892.892 0 0 1-1.144-.533l-1.404-3.857-3.352 1.22 1.404 3.857a.892.892 0 0 1-.533 1.143l-3.352 1.22a.892.892 0 0 1-1.143-.533l-1.404-3.857-3.352 1.22 1.404 3.857a.892.892 0 0 1-.533 1.143l-3.352 1.22a.892.892 0 0 1-1.143-.533l-11.29-31.02a.892.892 0 0 1 .533-1.143l3.352-1.22a.892.892 0 0 1 1.143.533l.732 2.013 3.352-1.22-.732-2.013a.892.892 0 0 1 .533-1.143l3.352-1.22a.892.892 0 0 1 1.143.533l.732 2.013 3.352-1.22-.732-2.013a.892.892 0 0 1 .533-1.143l12.658-4.608 3.198-22.631a7.724 7.724 0 0 1 5.007-6.178l182.452-84.445 30.92-21.318-.428-1.174a.892.892 0 0 1 .533-1.143L429.741.327a.892.892 0 0 1 1.143.533l48.821 134.135a.892.892 0 0 1-.533 1.143l-19.274 7.015a.892.892 0 0 1-1.143-.533l-1.22-3.353-37.45 3.377-193.803 53.259a7.413 7.413 0 0 1-7.69-1.639Z"/>

<path fill="#FDEBB8" d="m475.739 124.096 2.44 6.707-12.568 4.575a3.569 3.569 0 1 1-2.441-6.707l12.569-4.575ZM407.332 21.965l39.911 109.655-48.96-2.886a17.836 17.836 0 0 0-6.12.705l-168.338 49.917a3.567 3.567 0 0 1-4.366-2.2l-1.415-3.888a8.917 8.917 0 0 1-7.168-.47l-13.936-7.255a1.784 1.784 0 0 1-.852-.972l-3.432-9.428a1.784 1.784 0 0 1 .165-1.557l6.698-10.693a11.416 11.416 0 0 1 5.431-4.538l.34-.13-1.967-5.403a3.567 3.567 0 0 1 1.924-4.489l161.105-70.37a17.836 17.836 0 0 0 4.861-3.15l36.12-32.848Zm63.524 88.718 2.441 6.707-12.568 4.574a3.569 3.569 0 1 1-2.441-6.707l12.568-4.574Zm-4.271-11.737 2.44 6.707-12.568 4.574a3.569 3.569 0 1 1-2.441-6.706l12.569-4.575Zm-4.272-11.737 2.44 6.707-12.568 4.575a3.569 3.569 0 1 1-2.44-6.707l12.568-4.575Zm-4.272-11.736 2.441 6.706-12.569 4.575a3.569 3.569 0 1 1-2.44-6.707l12.568-4.574Zm-290.09 90.014 3.967 10.898-5.028 1.83-3.967-10.898 5.028-1.83Zm8.38-3.05 3.967 10.898-5.028 1.83-3.967-10.898 5.028-1.83Zm10.894-3.966c.925-.336 1.949.14 2.286 1.066l2.747 7.547c.336.925-.14 1.949-1.066 2.286l-7.542 2.745-3.967-10.899 7.542-2.745Zm266.544-94.735 2.441 6.707-12.568 4.574a3.569 3.569 0 1 1-2.441-6.707l12.568-4.574Zm-4.272-11.737 2.441 6.707-12.568 4.574a3.569 3.569 0 1 1-2.441-6.706l12.568-4.575Zm-4.272-11.737 2.441 6.707-12.568 4.575a3.569 3.569 0 1 1-2.441-6.707l12.568-4.575Zm-4.271-11.737 2.44 6.707-12.568 4.575a3.569 3.569 0 1 1-2.441-6.707l12.569-4.575Zm-4.272-11.736 2.44 6.706-12.568 4.575a3.569 3.569 0 1 1-2.44-6.707l12.568-4.574ZM432.41 5.052l2.441 6.707-12.569 4.574a3.569 3.569 0 1 1-2.44-6.706l12.568-4.575Z"/>

<path fill="#FFF" d="M395.22 95.3c9.257-3.37 19.491 1.403 22.86 10.659l8.913 24.487-28.67-1.713a17.836 17.836 0 0 0-6.172.716l-32.067 9.59c6.705-7.834 10.44-13.561 11.208-17.182.767-3.62-.754-9.016-4.563-16.188L395.22 95.3Zm-173.223 57.54c7.27 5.604 12.94 9.363 17.011 11.278 4.07 1.915 10.31 3.759 18.716 5.53l-26.756 7.84Z" opacity=".601"/>

</g>
</svg>