<svg xmlns="http://www.w3.org/2000/svg" width="861" height="570"><path fill="#0A0B09" fill-rule="evenodd" d="M577.731 324c-4.661 2.044-8.481 5.482-11.414 10.288-2.648 4.332-5.515 8.63-8.389 12.712a24.92 24.92 0 012.433-.362 21.67 21.67 0 013.05-.093c5.306-7.523 10.233-15.153 14.32-22.545zm-11.193 22.843c2.155.438 4 1.214 5.565 2.157a215.395 215.395 0 0015.96-27 31.157 31.157 0 00-6.23.89c-4.256 7.816-9.546 15.943-15.295 23.953zM549.318 353c-5 3.572-8.302 8.778-10.332 13 2.748-3.3 6.394-7.807 10.332-13zM254.3 101.846c.45 0 .883.19 1.209.54.464.5 1.552 1.673.599 14.425-.431 5.768-1.295 13.174-2.174 15.802-3.99 11.938-5.21 21.189-3.265 24.746 3.379 6.179 6.893 8.877 12.13 9.312 7.53.626 8.628 5.417 9.157 10.696a52.3 52.3 0 01.163 2.227c.268 4.568.478 8.176 7.252 9.767 1.69.396 3.219.723 4.566 1.012 5.974 1.279 9.578 2.05 14.953 6.072 6.853 5.125 6.375 12.964 6.35 13.296a1.347 1.347 0 01-.394.858c-.102.102-10.239 10.325-11.232 19.737-.631 5.993-.099 14.035.292 19.907.3 4.56.448 6.994.217 8.143-.421 2.1.911 11.775 7.09 18.874 3.044 3.496 6.816 7.274 10.465 10.922 3.82 3.823 7.43 7.436 9.643 10.196 2.296 2.86 5.24 10.14 8.357 17.845 2.74 6.769 5.57 13.77 7.529 16.455 4.09 5.611 5.694 25.805 3.977 36.322 9.273-4.495 42.019-20.665 55.36-31.311 15.043-12.005 42.428-27.176 53.353-25.313 1.071-2.809 3.773-9.617 5.598-11.888.47-.588 1.309-1.405 2.368-2.434 3.901-3.799 11.166-10.865 10.038-16.482-1.697-8.47-7.346-14.958-15.495-17.802-16.73-5.84-26.11-10.545-28.676-14.382-.67-1.002-1.507-2.455-2.472-4.135-3.544-6.148-9.47-16.435-15.239-17.97-1.044-.277-2.229-.576-3.483-.893-11.323-2.857-20.888-5.608-23.261-10.345-.205-.405-.416-.835-.638-1.284-2.566-5.192-6.44-13.037-11.686-14.345-6.35-1.584-14.55-3.1-18.521-2.605-.803.1-1.098.793-1.621 2.968-.644 2.663-1.525 6.311-6.266 7.038-3.366.52-6.395-1.12-8.305-4.49-1.417-2.502-1.886-5.39-1.378-7.607-3.577 1.548-10.333 5.144-13.575 7.166-1.787 1.113-3.18.837-4.034.41-2.367-1.183-3.796-5.102-4.37-11.982-.154-1.821-1.096-3.667-2.094-5.622-2.064-4.038-4.633-9.062 1.54-13.987.646-.517.926-.86 1.043-1.041-.947-.629-4.65-.965-6.695-1.152-4.515-.41-6.711-.68-7.289-2.274-.162-.44-.286-1.322.68-2.283 1.281-1.28 3.15-2.626 5.126-4.05 3.531-2.548 7.929-5.718 8.22-8.318.124-1.128-.276-1.996-1.19-2.582-1.598-1.022-4.81-1.1-7.86.727-1.529.914-2.79 2.137-4.01 3.32-2.69 2.606-5.734 5.56-10.622 2.458-6.611-4.198-8.567-16.112-6.34-21.664 1.022-2.548 6.602-15.227 16.143-14.546 6.904.492 13.859 1.402 16.433 6.54.668 1.33 2.181 1.226 5.24.695 2.28-.396 4.861-.844 6.9.317 2.04 1.162 3.514 3.215 4.044 5.632a9.288 9.288 0 01-1.501 7.39c-1.814 2.532-2.241 4.453-1.874 5.167.27.524 1.263.602 1.829.602 3.997 0 7.781-4.647 8.735-7.978l.22-.778c1.116-3.99 2.984-10.667 8.329-11.259 4.142-.459 11.758-7.454 13.2-10.327 1.368-2.73 5.531-11.04 11.048-9.664 3.459.863 8.428.7 11.996-2.35 6.672-5.704 11.376-7.275 13.987-4.672 1.243 1.239 1.94 2.946 2.557 4.452 1.113 2.721 1.38 2.762 1.868 2.599.957-.318 1.453-3.916 1.72-5.849.419-3.022.747-5.408 2.329-6.197.06-.065.135-.501-.223-1.125-.622-1.08-2.196-2.07-4.74-1.609-.945.172-2.097.405-3.315.65-9.41 1.9-13.891 2.471-15.585.84-.538-.52-.764-1.225-.638-1.986.325-1.938 2.425-3.674 4.13-4.789 3.177-2.078 8.056-3.95 11.269-3.149 4.01 1 14.471.367 17.133-2.73 1.101-1.283.795-4.677-.746-8.253-1.45-3.365-3.077-4.777-3.51-4.8-1.871 0-3.742-1.344-5.55-2.644-1.645-1.184-3.507-2.524-4.587-2.167-1.12.372-2.199 1.46-3.342 2.611-1.588 1.6-3.39 3.414-5.875 3.768-1.092.156-1.832-.228-2.259-.577-1.33-1.087-1.447-3.21-1.561-5.263-.042-.8-.114-2.08-.307-2.582-.815-.029-1.648-.2-2.527-.379-2.123-.433-4.322-.882-6.485.659-1.375.98-2.494 2.563-3.676 4.239-1.741 2.467-3.715 5.263-7.069 6.936-4.142 2.065-10.032 2.763-12.194.508-.629-.653-1.483-2.104-.16-4.48.509-.91 1.08-1.88 1.688-2.909 2.403-4.06 5.39-9.113 5.02-12.075-.22-1.758.376-3.379 1.727-4.688 2.442-2.37 7.03-3.37 11.972-2.61 4.867.746 11.003-1.072 13.665-2.429-2.033-.246-5.462-.331-7.562-.383-2.58-.065-4.81-.12-6.004-.319-.228-.038-.487-.078-.77-.123-4.29-.674-8.979-1.615-10.339-4.252-.37-.717-.655-1.881.085-3.356 2.021-4.035 7.568-6.346 16.953-7.066 3.288-.253 9.042.292 12.97.835 2.425.335 4.53.712 6.086 1.088 2.244.543 3.48 1.066 3.598 2.27.174 1.766-2.136 2.037-3.375 2.183-1.835.215-2.62.71-2.593.993.147 1.461 4.764 4.547 8.66 4.224 2.653-.22 5.032.753 6.205 2.541.819 1.25.903 2.743.226 3.993-.04.07-.081.145-.13.221.449.014.912.031 1.381.05 11.241.47 13.203 1.936 13.846 2.418.106.079.187.128.247.157.25-.466.487-2.056-.21-4.145-.467-1.404-1.98-4.72-5.878-5.183-6.323-.752-16.373-5.758-16.346-10.272.015-2.477 2.536-4 7.496-4.531 13.193-1.41 22.765 4.869 28.483 8.62.939.615 1.748 1.146 2.467 1.576 3.495 2.093 6.043 5.576 8.51 8.945 1.483 2.03 2.884 3.946 4.428 5.486 3.928 3.918 11.68 9.657 16.61 10.15.265.026.412.008.481-.007.301-.9-1.19-4.357-1.997-6.234-.966-2.234-1.874-4.344-2.076-5.949-.237-1.912.406-3.9.972-5.654 1.035-3.19 1.128-4.219-.232-4.898-.33-.164-1.104-.55-1.074-1.459a1.377 1.377 0 01.84-1.211c.493-.207.851-.357 7.093 2.069 2.566.998 7.827 3.124 14.204 6.144 10.047 4.76 24.067 12.307 33.81 21.236.187.17.319.39.388.633.024.091 2.59 9.187 5.992 12.58.96.956 2.169 2.056 3.45 3.22 5.373 4.877 8.113 7.516 6.757 9.55-1.008 1.508-2.482 7.792-.376 9.192 3.76 2.502 6.59 7.313 4.72 11.667-.335.775.044 2.78 1.642 5.515 2.277 3.896 5.715 7.131 7.826 7.366 1.198.132 2.17-.317 2.882-1.337 1.333-1.906 1.327-5.107-.015-7.783-2.172-4.334-4.542-11.925-1.654-13.847.538-.357 1.212-.45 2.006-.277 2.909.636 8.79 5.621 12.577 11.758 2.3 3.734 4.575 9.551 3.399 13.661-.43 1.51-1.236 2.183-1.835 2.482-.514.257-1.185.524-1.958.834-2.503 1-6.281 2.51-8.11 5.067-1.75 2.445-.165 10.14.689 14.275.262 1.28.49 2.387.604 3.191.241 1.675.178 3.858.115 6.17-.084 2.904-.178 6.196.388 8.448.433 1.733.39 4.281.34 7.233-.079 4.539-.178 10.187 1.648 13.525 1.146 2.094 2.343 5.277 3.613 8.647 2.25 5.975 5.05 13.412 8.254 16.288 2.09 1.878 3.736 4.292 5.324 6.627 2.455 3.61 4.578 6.727 7.505 6.727 2.518 0 4.407-.907 6.07-1.708 1.935-.93 3.935-1.891 6.155-.784 3.194 1.592 3.901 15.587 2.945 27.945-1.08 13.968-4.79 36.118-16.316 62.328a112.976 112.976 0 01-3.387 7.006 35.08 35.08 0 015.297-.498c.199-.006.394-.009.593-.009.409-.843.815-1.689 1.218-2.535 13.13-27.819 19.79-57.638 19.79-88.626 0-28.118-5.52-55.393-16.406-81.07-10.516-24.8-25.571-47.075-44.748-66.203-19.176-19.128-41.505-34.145-66.366-44.635C457.186 25.507 429.843 20 401.657 20c-28.188 0-55.531 5.507-81.271 16.367-24.865 10.49-47.193 25.507-66.368 44.635-19.176 19.128-34.23 41.402-44.747 66.203-10.887 25.677-16.407 52.952-16.407 81.07 0 21.008 3.092 41.586 9.209 61.375-1.934-12.99-4.023-32.515-3.571-54.343.473-22.88 3.6-43.795 9.297-62.164 7.14-23.027 18.357-42.096 33.34-56.678a1.356 1.356 0 011.648-.188c.527.319.772.953.595 1.542-1.76 5.853-3.268 12.757-3.145 15.274.483-.616 1.29-1.892 2.482-4.525 1.245-2.75 2.403-5.838 3.168-7.882l.213-.567c.422-1.123.989-2.954 1.588-4.892 2.913-9.421 4.29-12.851 6.218-13.333.131-.032.264-.048.394-.048zM509.712 371c-14.119 5.071-29.477 23.408-43.05 41 1.824-1.488 3.67-2.988 5.505-4.483 10.598-8.62 20.607-16.764 22.606-18.745 2.032-2.014 5.849-6.682 10.272-12.085 1.52-1.859 3.093-3.78 4.667-5.687zm-59.409 58c-4.605 3.888-7.987 6.855-8.876 7.92-2.445 2.932-9.818 8.598-16.954 14.08a725.7 725.7 0 016.126-2.163c4.904-1.7 11.916-9.813 19.704-19.837zm123.457-79.01a18.885 18.885 0 012.401 2.344c3.05 3.543 4.114 7.253 4.157 7.41.084.295.063.609-.055.889-.426 1.013-10.478 24.852-16.077 32.822-2.196 3.13-5.466 10.19-9.254 18.362-5.677 12.255-12.111 26.142-17.889 33.34a48.64 48.64 0 01-6.667 6.843c7.039-2.226 12.817-5.359 17.3-9.39 9.456-8.505 10.947-19.192 11.748-24.934.255-1.806.436-3.112.78-4.029 1.407-3.739 5.978-10.497 10.818-17.653 3.506-5.187 7.133-10.549 9.18-14.294 4.12-7.527 8.655-19.873 13.456-32.945.707-1.924 1.418-3.86 2.132-5.796 4.156-11.243 5.013-17.117 5.188-19.216-1.718-.525-5.654-1.559-10.427-1.743a212.364 212.364 0 01-16.791 27.99zm-76.963 105.976c10.343.205 19.452-.525 27.295-2.191 4.1-2.6 7.937-5.844 11.55-10.408 5.499-6.949 12.05-21.29 17.316-32.814 3.792-8.298 7.065-15.467 9.373-18.8 4.95-7.15 13.973-28.482 15.4-31.887-.433-1.277-1.926-5.017-5.306-7.866a212.85 212.85 0 01-33.058 36.276c.624 13.925-1.615 26.252-6.664 36.651-4.117 8.482-10.094 15.69-17.762 21.431-6.541 4.896-13.131 7.86-18.144 9.608zM409.836 460c-16.456 5.763-35.747 12.726-46.494 17 14.387-3.722 39.518-12.276 46.494-17zm107.99-57.683c1.812.46 3.395 1.417 4.513 3.096 1.64 2.457 2.018 5.9 1.09 9.955-2.199 9.624-10.875 20.132-22.102 26.762-8.589 5.072-20.512 10.76-31.033 15.774-10.647 5.078-20.705 9.874-24.22 12.607-1.691 1.315-3.67 3.387-5.963 5.786-1.127 1.18-2.32 2.43-3.584 3.703 6.636-1.18 12.032-1.775 15.436-1.477 15.252 1.324 32.237-6.559 44.639-12.315 2.085-.967 4.052-1.88 5.864-2.682a318.04 318.04 0 015.948-2.544c2.683-1.129 5.27-2.216 7.769-3.38-8.132 1.008-17.73 1.272-29.084.534a1.354 1.354 0 01-1.264-1.292 1.354 1.354 0 011.15-1.393c.133-.021 13.29-2.09 25.86-11.426 7.343-5.456 13.063-12.297 16.998-20.339 4.933-10.078 7.075-22.102 6.366-35.732a1.356 1.356 0 01.472-1.096 209.995 209.995 0 0033.301-36.008c-1.604-.904-3.509-1.583-5.765-1.85-13.633 18.27-29.486 35.699-40.271 46.996a644.496 644.496 0 01-6.12 6.321zm-125.21 91.29c6.147.365 11.735.597 15.483.14 7.877-.963 14.382-4.528 19.818-8.747-10.725 2.282-23.272 5.44-35.301 8.607zm-62.853-.326c12.828.795 24.079 1.105 28.754.012 6.915-1.62 16.866-1.264 26.319-.696 16.226-4.424 33.783-9.033 47.458-11.763 2.375-2.202 4.516-4.43 6.453-6.45 2.366-2.464 4.408-4.594 6.257-6.024 3.745-2.895 13.455-7.504 24.7-12.842 10.465-4.968 22.329-10.595 30.808-15.58 12.897-7.582 19.284-18.153 20.833-24.904.745-3.25.496-6.025-.705-7.815-.98-1.46-2.637-2.1-4.588-2.219-20.905 21.005-41.495 38.91-48.335 41.793-4.348 1.828-9.555 5.86-15.581 10.53-12.6 9.758-28.28 21.9-47.116 22.62-15.158.58-44.903 3.02-73.834 12.848a99.33 99.33 0 00-1.423.49zm-20.664 8.852c1.15.095 2.325.197 3.526.301 11.552.995 24.643 2.126 30.77 1.254 3.472-.495 14.025-3.41 27.383-7.097 1.788-.496 3.619-1 5.479-1.511-6.508-.206-12.713-.063-17.343 1.021-5.758 1.347-19.888.755-35.55-.343-5.02 1.961-9.782 4.087-14.265 6.375zM142.926 551h98.948c2.117-3.87 12.25-21.83 22.612-30.499 2.927-2.45 5.524-4.802 8.036-7.079 7.128-6.46 12.76-11.563 19.056-12.193 2.375-.237 6.704-.009 12.048.405a149.847 149.847 0 0113.222-6.434c-4.95-.375-9.968-.783-14.843-1.179-14.333-1.163-27.87-2.261-33.148-1.952-3.743.219-7.825.132-12.148.039-11.396-.243-24.313-.52-37.26 4.57-15.511 6.099-63.957 44.304-76.523 54.322zm117.002 3a1.353 1.353 0 01-1.28-1.788c5.208-15.254 14.804-28.509 28.522-39.402 3.81-3.026 7.954-5.881 12.41-8.556-3.323-.207-6.012-.288-7.593-.129-5.412.541-10.758 5.388-17.525 11.527-2.413 2.191-5.151 4.673-8.122 7.162-11.013 9.222-22.256 30.257-22.368 30.468a1.352 1.352 0 01-1.195.718H139.083a1.351 1.351 0 01-.85-2.404c2.528-2.043 62.113-50.082 80.303-57.24 13.463-5.298 26.68-5.016 38.342-4.766 4.27.093 8.303.18 11.941-.036 5.472-.319 18.486.736 33.556 1.962 6.497.529 13.478 1.094 20.269 1.574 2.335-.904 4.72-1.773 7.164-2.608 29.278-9.995 59.342-12.477 74.659-13.066 17.982-.691 33.292-12.612 45.595-22.19 6.184-4.813 11.524-8.972 16.2-10.95 5.625-2.38 24.118-18.03 45.255-39.189-3.796.77-7.723 2.51-9.785 3.627a1.351 1.351 0 01-1.487-2.244c.072-.06 7.41-5.944 14.286-13.045 8.687-8.98 12.894-16.05 11.842-19.912-.565-2.073-2.833-3.405-6.743-3.963-1.689-.24-3.414-.217-5.16.048-2.34 2.818-4.738 5.775-7.013 8.579-4.453 5.496-8.303 10.238-10.424 12.363-2.089 2.085-11.654 9.938-22.73 19.03-4.607 3.781-9.598 7.88-14.265 11.742-11.383 15.097-21.212 27.992-28.427 30.498a1206.44 1206.44 0 00-14.018 5.006c-2.008 1.584-3.787 3.024-5.178 4.238-4.772 4.156-21.224 10.21-28.076 12.624-12.729 4.48-24.67 7.885-29.037 8.282-1.598.147-2.094-.553-2.226-1.17-.283-1.31 1.036-2.025 3.209-3.082 1.593-.773 3.948-1.812 7.004-3.087 5.4-2.247 12.946-5.22 22.43-8.831a2292.222 2292.222 0 0130.524-11.354c2.038-1.601 4.289-3.332 6.6-5.111 6.794-5.229 14.492-11.155 16.785-13.905 1.572-1.884 9.105-8.267 18.448-15.999.174-.23.351-.465.526-.7 9.144-12.128 19.505-25.873 29.878-36.054 9.139-8.964 17.237-14.11 24.545-15.56 3.3-3.955 6.464-7.6 9.006-10.143 4.856-4.856 6.969-9.123 5.95-12.01-1.127-3.198-6.19-5.365-14.634-6.27-16.017-1.718-33.2 13.562-43.464 22.692-3.649 3.245-6.284 5.59-8.03 6.46-5.162 2.582-14.772 7.387-68.616 51.291-21.666 17.667-40.558 24.966-52.59 27.977-14.628 3.66-24.148 2.458-26.976.754-1.463-.877-1.421-1.977-1.334-2.41.264-1.328 1.74-2.148 4.646-2.584 15.388-2.308 49.212-13.965 56.442-18.785 7.474-4.982 26.805-22.676 37.187-32.18 6.69-6.122 14.824-12.042 22-17.268 6.421-4.67 11.965-8.706 14.153-11.257 2.028-2.37 4.862-4.847 8.144-7.714 4.501-3.93 10.1-8.826 15.602-15.242 3.092-3.609 4.384-6.596 3.732-8.636-.628-1.977-3.011-2.623-3.032-2.63a1.341 1.341 0 01-.505-.246c-9.225-7.176-20.747-7.822-35.225-1.977-12.332 4.98-24.082 13.63-32.66 19.947-5.35 3.937-9.211 6.783-11.594 7.58-3.97 1.321-12.242 6.105-21.002 11.169-12.23 7.074-24.878 14.388-31.387 15.782-2.173.466-5.454 1.332-9.607 2.429-14.56 3.843-40.417 10.668-60.405 10.67-2.206 0-4.338-.084-6.378-.264-14.605-1.283-30.224-7.825-31.082-16.549-.44-4.48 2.901-10.947 21.323-16.323 16.218-4.73 28.258-13.505 34.815-25.378 5.652-10.232 6.09-20.573 4.615-26.838-2.52-10.716-23.033-7.122-34.053-5.193-1.461.256-2.841.499-4.001.676-3.045.47-6.199.661-9.538.863-7.832.475-15.93.964-22.372 5.259-9.718 6.478-31.126 13.6-43.145 16.804-9.169 2.446-13.814 8.772-18.732 15.467-1.131 1.541-2.3 3.134-3.516 4.652-6.257 7.822-18.03 40.174-19.533 46.187-1.828 7.312-25.016 27.905-47.186 45.07-24.383 18.878-87.5 47.372-88.135 47.658a1.352 1.352 0 11-1.11-2.468c.631-.282 63.46-28.647 87.59-47.33 25.378-19.646 44.815-37.977 46.217-43.585 1.58-6.32 13.444-38.97 20.045-47.221 1.18-1.476 2.333-3.044 3.448-4.562 4.979-6.78 10.127-13.79 20.215-16.48 11.393-3.038 32.963-10.19 42.342-16.443 7.049-4.697 15.518-5.211 23.709-5.707 3.275-.198 6.368-.387 9.29-.835 1.132-.175 2.435-.403 3.945-.667 6.022-1.055 14.27-2.5 21.485-2.176 9.024.406 14.294 3.573 15.67 9.409 1.59 6.758 1.143 17.862-4.882 28.767-4.82 8.727-15.05 20.435-36.426 26.67-12.984 3.787-19.87 8.568-19.388 13.46.624 6.343 13.733 12.81 28.627 14.12 20.05 1.765 49.847-6.103 65.855-10.328 4.189-1.106 7.494-1.98 9.733-2.458 6.088-1.307 19.109-8.835 30.597-15.479 9.267-5.358 17.27-9.986 21.5-11.395 1.978-.661 6.089-3.687 10.845-7.191 8.697-6.401 20.603-15.17 33.254-20.278 15.13-6.107 27.81-5.367 37.697 2.196.932.304 3.73 1.44 4.655 4.343.965 3.026-.469 6.797-4.258 11.217-5.628 6.567-11.308 11.53-15.875 15.522-3.2 2.797-5.968 5.213-7.87 7.434-2.395 2.792-7.786 6.72-14.614 11.687-7.119 5.18-15.187 11.055-21.765 17.075-15.512 14.198-30.795 27.956-37.514 32.436-7.413 4.94-41.902 16.864-57.54 19.208-.709.109-1.229.226-1.604.337 2.542.893 10.108 1.881 22.624-1.013 12.092-2.794 31.126-9.892 53.122-27.83 54.075-44.093 63.86-48.985 69.115-51.614 1.428-.713 4.213-3.192 7.444-6.065 10.598-9.423 28.34-25.197 45.55-23.358 9.825 1.052 15.352 3.687 16.896 8.057 1.425 4.041-.79 9.027-6.587 14.824-2.013 2.013-4.444 4.754-7.028 7.804a20 20 0 013.098.192c5.075.724 8.092 2.72 8.967 5.929 1.352 4.961-2.861 12.54-12.525 22.523-2.81 2.9-5.695 5.601-8.144 7.798 1.999-.592 4.171-1.043 6.248-1.1a692.843 692.843 0 007.62-7.855c10.44-10.938 25.65-27.653 38.93-45.253-.258.018-.523.036-.793.063a23.08 23.08 0 00-5.32 1.136c-9.834 12.922-19.018 22.841-19.147 22.976a1.353 1.353 0 01-1.638.268 1.357 1.357 0 01-.66-1.524c.06-.24 1.553-5.962 5.522-11.987 3.844-5.827 8.69-9.892 14.253-12.002 3.561-4.706 7.185-9.79 10.475-14.93 3.84-6 9.217-10.06 15.804-12.004 1.65-3.035 3.134-6.016 4.405-8.916 11.11-25.327 14.824-46.792 15.98-60.339 1.377-16.126-.43-25.317-1.454-26.612-.952-.42-1.881-.01-3.666.85-1.83.88-4.105 1.978-7.239 1.978-4.357 0-7.092-4.028-9.736-7.923-1.497-2.204-3.044-4.483-4.89-6.145-3.692-3.322-6.496-10.786-8.97-17.372-1.231-3.283-2.397-6.385-3.449-8.316-2.166-3.97-2.061-10.023-1.977-14.887.045-2.649.087-5.151-.259-6.54-.655-2.617-.559-5.96-.468-9.193.063-2.197.12-4.272-.088-5.72-.102-.725-.321-1.795-.576-3.034-1.41-6.853-2.489-13.266-.24-16.414 2.289-3.204 6.505-4.894 9.297-6.012.718-.288 1.34-.537 1.754-.744.085-.043.286-.267.442-.808.607-2.135-.102-6.65-3.1-11.522-3.802-6.176-9.211-10.242-10.795-10.555-.43 1.099.165 5.426 2.602 10.297 1.791 3.583 1.716 7.823-.186 10.55-1.265 1.817-3.233 2.72-5.394 2.48-3.516-.39-7.575-4.785-9.86-8.702-1.117-1.92-2.836-5.505-1.79-7.95 1.274-2.972-.968-6.53-3.726-8.369-4.036-2.69-1.773-10.448-.547-12.673-.502-1.21-4.012-4.404-6.145-6.348-1.308-1.187-2.54-2.31-3.543-3.312-3.51-3.51-6.02-11.543-6.57-13.408-14.85-13.492-39.806-24.008-49.023-27.448.12 1.541-.423 3.222-.877 4.628-.505 1.562-1.028 3.177-.863 4.496.154 1.226 1.028 3.26 1.873 5.225 1.634 3.803 3.047 7.086 1.68 8.951-.418.574-1.269 1.223-2.918 1.058-5.944-.594-14.163-6.87-18.235-10.943-1.692-1.69-3.218-3.786-4.697-5.812-2.304-3.157-4.684-6.42-7.707-8.233-.767-.46-1.596-1.006-2.558-1.638-5.76-3.788-14.469-9.514-26.68-8.204-4.007.43-5.07 1.407-5.073 1.865-.012 2.007 7.512 6.819 13.946 7.585 4.949.59 7.596 4.568 8.42 8.094.514 2.193.499 5.157-1.238 6.292-.454.296-1.683.855-3.29-.351-2.107-1.58-12.366-2-18.361-2.02-.721.114-1.536.18-2.464.18-.676 0-1.205-.006-1.569-.016-.574-.017-1.44-.041-1.737-.978-.18-.56.027-1.176.508-1.517.37-.262.469-.333 4.066-.36.255-.001.556-.003.901-.003 1.626-.281 2.512-.87 2.816-1.43.261-.48.084-.935-.111-1.232-.469-.717-1.72-1.495-3.708-1.33-4.844.406-11.227-3.265-11.567-6.655-.099-1 .19-2.6 2.714-3.468-4.649-.894-12.47-1.795-16.485-1.486-8.117.625-13.21 2.557-14.725 5.59-.28.56-.153.808-.1.914.845 1.641 6.293 2.5 8.346 2.824.291.046.559.088.793.127 1.007.168 3.249.224 5.622.283 2.392.06 4.863.121 6.837.302 1.79.165 4.501.414 4.501 2.332 0 .625-.327 1.222-.97 1.776-2.485 2.131-10.881 4.715-16.945 3.783-4.054-.624-7.846.114-9.665 1.88-.727.708-1.04 1.522-.925 2.42.484 3.883-2.623 9.153-5.367 13.804-.598 1.014-1.163 1.971-1.653 2.852-.165.298-.523 1.022-.252 1.302.88.922 5.274.815 9.018-1.057 2.74-1.37 4.43-3.767 6.06-6.084 1.32-1.872 2.564-3.64 4.313-4.889 3.12-2.229 6.284-1.58 8.594-1.108.824.169 1.605.328 2.218.328 2.485 0 2.65 2.97 2.77 5.137.052.906.169 3.028.575 3.33h.033a.89.89 0 00.126-.01c1.583-.226 2.915-1.573 4.327-2.998 1.316-1.328 2.677-2.701 4.408-3.278 2.39-.797 4.742.9 7.02 2.542 1.388 1.002 2.966 2.138 3.96 2.138 2.741 0 4.94 4.137 5.758 5.916 1.692 3.68 2.852 8.93.547 11.62-3.756 4.383-15.614 4.65-19.824 3.598-1.974-.493-5.98.733-9.12 2.792-1.776 1.164-2.566 2.127-2.834 2.678 1.95.567 9.547-.969 12.895-1.647a188.7 188.7 0 013.365-.66c4.34-.79 7.176 1.437 7.976 3.84.558 1.674.05 3.25-1.263 3.945-.408.488-.712 2.71-.916 4.189-.49 3.541-.995 7.204-3.543 8.053-3.11 1.037-4.333-1.958-5.226-4.145-.544-1.334-1.108-2.714-1.962-3.57-1.352-1.351-5.205.45-10.301 4.82-4.345 3.724-10.29 3.953-14.403 2.925-1.268-.32-3.994.332-7.96 8.264-1.764 3.528-9.965 11.227-15.308 11.82-3.521.392-5.02 5.762-6.013 9.316l-.225.794c-1.19 4.173-5.79 9.952-11.326 9.952-2.617 0-3.744-1.125-4.23-2.07-.458-.887-1.17-3.442 2.076-7.984a6.611 6.611 0 001.057-5.25c-.366-1.675-1.364-3.086-2.74-3.872-1.19-.68-3.17-.334-5.085-.001-2.887.502-6.478 1.128-8.119-2.151-1.74-3.484-6.933-4.543-14.19-5.061-5.94-.423-10.94 6.67-13.423 12.874-1.809 4.52-.09 14.995 5.274 18.41 2.954 1.88 4.366.709 7.275-2.118 1.268-1.233 2.704-2.63 4.495-3.706 3.642-2.183 7.943-2.459 10.707-.685 1.773 1.138 2.654 3.02 2.416 5.16-.42 3.796-4.943 7.064-9.315 10.224-1.575 1.138-3.077 2.223-4.186 3.207 1.118.235 2.978.405 4.33.528 4.522.413 8.429.77 9.126 3.085.553 1.844-1.397 3.404-2.037 3.917-4.237 3.39-3.134 6.125-.82 10.668 1.072 2.104 2.181 4.28 2.38 6.633.534 6.434 1.838 9.285 2.881 9.807.141.07.514.258 1.385-.287 1.788-1.117 5.746-3.348 9.56-5.281 2.007-1.018 3.656-1.792 4.903-2.301 1.71-.7 3.084-1.158 3.91-.21.27.31.784 1.164-.258 2.417-.908 1.088-.878 4.14.613 6.78.778 1.376 2.53 3.616 5.529 3.155 2.746-.422 3.36-2.174 4.041-5.01.502-2.082 1.127-4.673 3.913-5.022 5.457-.682 16.299 1.87 19.493 2.669 6.458 1.614 10.662 10.147 13.445 15.794.219.445.43.87.63 1.272 2.011 4.022 14.2 7.106 21.483 8.95 1.262.318 2.452.62 3.513.902 6.849 1.827 12.88 12.319 16.87 19.26.944 1.644 1.758 3.06 2.377 3.988 1.509 2.263 7.468 6.416 27.288 13.351 9.066 3.174 15.35 10.41 17.24 19.852 1.412 7.068-6.527 14.812-10.79 18.974-.956.928-1.78 1.73-2.146 2.19-1.617 2.026-4.586 9.556-5.59 12.288a1.356 1.356 0 01-1.719.808c-7.95-2.806-35.24 11.173-52.004 24.585-15.773 12.615-56.584 32.06-58.312 32.881a1.352 1.352 0 01-1.454-.186 1.356 1.356 0 01-.427-1.4c2.35-8.34 1.004-31.385-2.96-36.834-2.151-2.96-4.916-9.808-7.843-17.06-2.903-7.196-5.908-14.637-7.951-17.191-2.119-2.65-5.673-6.218-9.436-9.992-3.678-3.69-7.48-7.504-10.58-11.077-6.278-7.23-8.375-17.799-7.693-21.203.171-.854-.042-4.057-.264-7.447-.397-5.98-.938-14.168-.283-20.4.989-9.394 9.646-18.939 11.614-21.002-.012-1.595-.441-6.866-5.276-10.493-4.896-3.671-8.087-4.356-13.883-5.6-1.359-.292-2.9-.622-4.613-1.026-8.73-2.054-9.061-7.711-9.326-12.256-.041-.702-.083-1.428-.152-2.118-.55-5.497-1.6-7.863-6.683-8.286-7.77-.648-11.572-5.786-14.267-10.727-3.19-5.849.554-19.385 3.07-26.933.65-1.95 1.49-8.098 1.998-14.616.421-5.418.462-9.025.348-11.078-1.161 2.559-2.627 7.312-3.436 9.934-.637 2.067-1.188 3.853-1.638 5.052l-.212.566c-3.81 10.193-5.887 14.018-7.94 14.619-.65.19-1.304.074-1.84-.33-1.212-.907-1.672-3.07.018-10.675.24-1.08.499-2.152.75-3.146-12.839 13.762-22.58 31.201-28.987 51.92-5.615 18.154-8.7 38.85-9.167 61.513-.797 38.633 6.386 69.94 6.458 70.249a1.354 1.354 0 01-.912 1.599 1.35 1.35 0 01-1.66-.79c-9.905-24.865-14.927-51.159-14.927-78.157 0-28.524 5.586-56.194 16.604-82.244 10.642-25.16 25.876-47.756 45.28-67.16 19.403-19.405 42-34.64 67.158-45.28C345.202 22.585 372.872 17 401.396 17c28.52 0 56.193 5.587 82.24 16.605 25.161 10.642 47.756 25.876 67.159 45.28 19.403 19.405 34.638 42 45.28 67.16 11.018 26.05 16.605 53.721 16.605 82.245 0 31.437-6.738 61.686-20.029 89.91-.231.492-.468.985-.703 1.478 6.193.408 10.71 2.064 10.932 2.145.508.19.854.661.878 1.202.012.238.213 5.992-5.358 21.114-.71 1.929-1.415 3.855-2.119 5.77-4.805 13.123-9.342 25.518-13.531 33.196-2.095 3.844-5.734 9.24-9.252 14.46-4.508 6.687-9.172 13.602-10.458 17.033-.234.628-.417 1.93-.625 3.435-1.319 9.466-4.33 31.081-37.676 38.249-4.811 2.956-9.875 5.084-15.091 7.275-1.918.808-3.898 1.64-5.902 2.527-1.791.79-3.747 1.7-5.82 2.662-11.702 5.437-27.4 12.724-42.308 12.724-1.247 0-2.485-.051-3.717-.156-3.81-.334-10.515.574-18.76 2.211-6.35 5.821-14.352 11.378-24.762 12.679-4.739.592-12.014.123-19.712-.373-1.317-.087-2.657-.171-4.006-.255-4.69 1.286-9.21 2.539-13.4 3.702-13.47 3.738-24.114 6.692-27.765 7.215-6.443.92-19.72-.231-31.433-1.244a956.8 956.8 0 00-7.686-.65c-5.668 3.171-10.854 6.621-15.524 10.33-12.765 10.135-21.845 22.363-27.01 36.366h597.805a1.352 1.352 0 010 2.705h-599.72z"/></svg>