<svg xmlns="http://www.w3.org/2000/svg" width="1000" height="570"><defs><linearGradient id="a" x1="26.74%" x2="75.412%" y1="93.581%" y2="93.581%"><stop offset="0%" stop-color="#A2BB68"/><stop offset="100%" stop-color="#D7478C"/></linearGradient></defs><path fill="url(#a)" fill-rule="evenodd" d="M650.668 63.232c2.85.15 5.198-.779 7.66-1.754 3.193-1.263 6.765-2.678 11.422-1.436-1.835-11.796-7.486-24.898-16.968-28.194-7.974-2.772-17.761-2.955-25.483.034 1.313.185 2.725.29 4.162.398 2.582.193 5.251.392 7.463 1.13 4.786 1.596 6.653 2.668 7.398 4.25.687 1.46.162 2.819-.394 4.256-.63 1.629-1.414 3.656-1.141 6.955.158 1.901 1.237 3.415 2.487 5.168 1.629 2.283 3.606 5.055 3.394 9.193zm17.598 15.387c.212.075.42.156.627.246.105-.403.209-.81.309-1.221-.302.337-.613.662-.936.975zm3.58 2.2c.246.23.487.473.722.731.665-2.002 1.358-3.987 2.042-5.95 1.565-4.496 3.186-9.144 4.408-13.767 3.517-13.292 5.181-30.477-6.864-36.856-4.335-2.295-9.34-2.21-14.638-2.117-2.671.045-5.432.093-8.097-.194-3.262-.351-6.464-1.677-9.563-2.958-3.488-1.444-6.78-2.811-9.8-2.681-3.54.148-7.6 2.605-9.239 5.594-1.105 2.015-1.063 4.073.123 6.117.408.702.971 1.252 1.656 1.687 8.966-4.89 21.42-5.18 31.289-1.75 14.158 4.923 20.608 27.47 19.822 41.854-.202 3.682-.988 7.126-1.861 10.29zm-1.097 3.798c-1.115 3.802-2.011 7.043-1.732 9.798l.114-.54.093-.442c.565-2.674 1.29-5.34 2.097-7.983a12.74 12.74 0 00-.572-.833zm.658 14.672c.907.878 2.087 1.693 3.545 2.45.088-3.59-.384-7.821-1.513-11.489a77.23 77.23 0 00-.929 3.878l-.093.442c-.339 1.603-.67 3.173-1.01 4.719zm-329.21-6.203c1.785 4.146 2.622 9.155 2.402 14.265 1.47-1.298 3.527-1.985 5.522-2.652 2.013-.671 4.092-1.366 4.578-2.452.22-.858-1.255-4.23-2.136-6.245-1.252-2.863-2.334-5.337-2.303-7.127.126-7.226 6.129-12.338 11.439-12.406 3.248-.027 6.775 1.844 7.571 7.119h.002c5.045 0 6.526-1.03 6.957-1.682.93-1.406-.554-4.58-1.988-7.65-1.096-2.346-2.23-4.772-2.725-7.164-2.498-12.03 5.991-14.288 12.813-16.103 2.286-.608 4.464-1.187 6.273-2.05-.385-2.311-1.624-3.764-3.839-4.533-8.13-2.82-25.565 4.792-29.804 9.585-7.006 7.92-10.017 20.118-12.673 30.88-.48 1.942-.943 3.82-1.414 5.603-.229.869-.455 1.74-.676 2.612zm-1.527 6.473c-1.206 5.591-2.1 11.261-2.337 16.912.412-.059.81-.102 1.196-.128 1.842-5.469 2.167-11.528 1.141-16.784zm329.895 3.415c-1.365 5.707-3.003 11.114-5.68 16.54 4.426-3.53 7.984-7.934 9.303-12.177.184-.59.336-1.266.456-2.01-1.581-.722-2.935-1.502-4.079-2.353zm-39.89 6.665c2.713 2.017 4.191 5.14 5.544 7.996 2.4 5.069 4.475 9.446 12.35 9.014 3.226-.176 6.777-1.333 10.194-3.127 4.888-7.613 7.128-15.097 8.994-23.305a10.929 10.929 0 01-.79-1.228c-2.572-4.666-1.035-9.893.744-15.947l.266-.903c-1.158-.606-2.43-.817-3.843-.652a1.68 1.68 0 01-1.04-3.12c4.963-2.88 8.636-9.127 6.545-14.853-3.961-1.33-6.806-.206-10.075 1.087-3.061 1.212-6.532 2.585-11.067 1.747a1.682 1.682 0 01-1.344-1.964c.708-3.737-.83-5.896-2.614-8.395-1.408-1.976-2.866-4.018-3.099-6.841-.337-4.067.682-6.701 1.355-8.444.216-.558.543-1.402.489-1.612-.067-.184-.658-.907-5.423-2.497-1.816-.605-4.164-.78-6.65-.966-2.846-.213-5.909-.44-8.489-1.423-2.694 1.758-4.918 4.053-6.416 6.923a143.622 143.622 0 01-2.654 4.84c-2.108 3.71-2.488 4.379-2.477 8.8.003 1.305.142 2.489.29 3.743.5 4.244 1.015 8.63-4.028 16.664-.283 1.287.447 2.086 2.445 3.875 3.06 2.74 7.68 6.88 4.875 17.093-.38 1.383-.68 3.225.047 4.152 1.125 1.432 4.921 1.324 8.595 1.22 2.177-.062 4.426-.127 6.602.07a1.683 1.683 0 011.52 1.831c-.185 1.942-.503 3.995-.838 6.17l-.009.052zm-283.457-.076c.796 2.993 1.752 5.536 2.977 7.937 3.692 7.233 10.986 15.744 18.273 17.34 3.3.722 6.273-.007 9.09-2.23 1.665-1.313 2.766-3.25 3.932-5.302 1.55-2.728 3.306-5.82 6.727-7.883 2.568-1.548 5.571-2.005 8.477-2.448 3.571-.543 6.945-1.056 9.13-3.514 2.533-2.85 2.142-6.111 1.689-9.89-.368-3.067-.748-6.239.54-9.32.804-1.924 2.372-2.907 3.756-3.775 1.658-1.04 2.456-1.604 2.486-3.038.019-.934-.948-1.856-2.068-2.922-.84-.8-1.708-1.626-2.36-2.652-2.356-3.706-2.927-6.696-3.48-9.586-.432-2.263-.879-4.602-2.225-7.455-1.002-2.127-2.387-3.68-3.852-5.323-2.32-2.602-4.718-5.292-5.288-10.11a1.68 1.68 0 01.755-1.607c2.16-1.396 4.639-3.499 4.189-5.583-.957-4.431-12.62-8.424-18.604-9.322-13.462-2.022-23.145-.217-32.376 6.034-9.115 6.17-14.228 14.49-16.09 26.184l-.077.48c-.853 5.337-1.82 11.386.113 16.184.725 1.798 2.42 3.359 4.217 5.012.875.806 1.765 1.626 2.566 2.501.435-1.664.866-3.41 1.31-5.209 2.75-11.138 5.865-23.762 13.418-32.3 4.804-5.432 23.702-13.907 33.421-10.533 3.82 1.326 5.965 4.287 6.205 8.564a1.68 1.68 0 01-.829 1.544c-2.362 1.382-5.253 2.15-8.048 2.893-7.59 2.019-12.15 3.687-10.388 12.175.417 2.01 1.466 4.253 2.48 6.425 1.91 4.088 3.714 7.95 1.746 10.924-1.567 2.371-5.174 3.373-11.346 3.16a1.68 1.68 0 01-1.62-1.606c-.152-3.54-1.663-5.485-4.255-5.485h-.068c-3.326.044-8.026 3.528-8.123 9.106-.019 1.058 1.112 3.645 2.022 5.723 1.886 4.314 2.971 7.069 2.125 8.961-1.087 2.434-3.88 3.367-6.58 4.268-1.465.49-2.97.992-3.967 1.678zm282.862 4.105c-.958 7.156-1.175 14.507 3.834 19.016 2.937 2.643 6.08 3.76 9.347 3.327 3.706-.494 7.767-3.074 11.461-7.162-2.03.646-4.042 1.049-5.969 1.154-10.137.555-13.146-5.814-15.57-10.93-.969-2.049-1.868-3.948-3.103-5.405zm-287.107 3.058a1.678 1.678 0 01.87 2.055c-1.831 5.413 1.212 12.23 8.14 18.237 8.217 7.121 18.797 10.273 24.612 7.33 4.201-2.126 5.386-7.023 5.46-11.62-.687.915-1.47 1.773-2.416 2.52-3.605 2.844-7.605 3.81-11.89 2.873-9.597-2.1-17.43-12.99-20.546-19.095-1.21-2.373-2.176-4.86-2.986-7.709a35.694 35.694 0 01-1.244 5.41zm-35.65 60.018c.386 1.511.952 3.447 1.45 5.149 1.943 6.65 3.484 12.296 3.83 16.473.253-8.687-.457-18.513-5.28-21.622zm288.81-10.916c-5.74 9.47 1.43 24.374 6.713 35.353 1.17 2.433 2.28 4.737 3.135 6.751.13-14.887-1.231-31.689-6.228-38.976-1.104-1.61-2.295-2.641-3.62-3.128zm-190.556 13.074c-.382.198-1.262.82-2.809 2.763-3.466 4.358-4.842 15.4-5.753 22.707-.164 1.32-.315 2.526-.46 3.56-.32 2.259-.471 4.56-.507 6.882.467-1.61.968-3.223 1.507-4.842.927-2.783 2-5.56 3.04-8.244 1.293-3.345 2.632-6.804 3.715-10.346 1.475-4.824 1.928-10.955 1.267-12.48zm312.603-11.503a4.12 4.12 0 00-.829.09c-3.025.618-4.522 6.143-4.45 16.421l.004.435c.05 8.65 2.061 16.285 4.192 24.367 1.098 4.165 2.22 8.422 3.068 12.884-.442-9.887.263-19.615.95-29.088.202-2.77.4-5.523.57-8.26l.06-.904c.242-3.519.885-12.864-1.99-15.38-.296-.26-.76-.565-1.575-.565zm-295.776 88.426c3.376 1.32 7.532 1.863 12.332 1.576 8.783-.52 24.106-14.063 25.29-23.783-2.077-.028-3.84.91-5.213 2.767a1.68 1.68 0 01-2.952-.495c-.947-3.008-1.016-5.37-.19-8.1-.361-.276-.62-.362-.76-.328-1.414.311-3.092 5.685-3.809 7.98-.62 1.988-1.111 3.558-1.696 4.535a1.678 1.678 0 01-2.798.127c-1.292-1.775-1.473-4.057-1.632-6.07-.288-3.64-.642-3.974-2.146-3.921-1.29.042-1.624.655-2.327 2.54-.704 1.89-1.837 4.917-6.022 4.275-.325 1.813-.138 4.781.005 7.076.285 4.548.491 7.834-1.623 8.89-1.366.685-2.485.459-3.185.152-2.455-1.08-3.518-4.8-4.544-8.398l-.096-.336c-.11 1.42-.08 3.21.174 5.394a41.205 41.205 0 001.192 6.12zm186.03-29.676c-.352 3.589-.75 6.412-1.107 8.074-.51 2.386-1.582 5.553-2.822 9.22-3.07 9.077-7.275 21.508-3.858 26.2.978 1.343 2.63 1.983 5.041 1.944 1.461-.021 2.95-.3 4.446-.736.874-6.206 1.582-12.075 1.573-17.396a117.309 117.309 0 00-3.274-27.306zm92.681 44.103a44.714 44.714 0 014.547 4.013c.895-1.236 2.347-2.61 4.507-4.37l1.68-1.363c5.163-4.173 8.572-6.928 12.148-12.93 4.218-7.076 7.144-10.728 14.355-15.029 1.025-.61 2.161-1.199 3.365-1.822 3.919-2.027 8.29-4.29 9.423-7.767-4.156.34-8.567 2.904-12.517 5.2-5.041 2.931-9.394 5.463-13.042 3.627-1.85-.931-3.156-2.847-3.995-5.918.43 12.065-2.358 21.254-8.472 27.995-3.147 3.471-7.091 6.242-11.999 8.364zm-372.821 5.524c.688.111 1.401.206 2.14.285l.408.043c24.004 2.584 30.222-.13 31.792-1.978.264-.31.534-.741.525-1.438a747.994 747.994 0 00-3.905-1.067c-4.16-1.131-8.463-2.301-12.592-3.636a1.678 1.678 0 01-1.023-2.267c.447-1.03.77-2.272 1.11-3.586.23-.89.466-1.798.753-2.688-.835.27-1.702.58-2.599.901-5.832 2.085-13.09 4.68-17.977-2.188a1.677 1.677 0 01-.213-1.537c.468-1.313 1.01-2.562 1.537-3.77 1.368-3.144 2.578-5.923 2.351-9.242-3.988 1.292-6.55 3.108-7.808 5.523-2.387 4.59.14 11.364 2.585 17.915 1.083 2.903 2.183 5.853 2.916 8.73zm284.87-2.39l-.315 2.18c-.152 1.05-.305 2.102-.456 3.154 17.442-6.439 39.729-6.423 53.08-6.404h.191c11.162 0 20.28-.964 27.606-2.96-13.404-6.365-32.12-6.724-45.31-4.903-1.745.242-3.52.456-5.306.673-5.903.715-12.007 1.455-17.548 3.228-1.978.633-4.03 1.576-6.203 2.575-1.883.865-3.794 1.743-5.74 2.456zM396.61 226.578c.153 1.68.324 3.355.493 5.016.135 1.333.27 2.654.393 3.957.213 2.246.354 4.828.504 7.559.65 11.872 1.54 28.13 9.705 33.619 3.773 2.537 8.802 2.666 15.376.398 3.862-1.333 8.321-3.953 8.984-6.556.468-1.835.45-2.6.408-2.88-.325-.045-.973-.005-1.465.023-1.832.113-4.341.261-6.727-1.468-1.928-1.399-3.505-4.464-4.635-7.96-2.34-1.127-4.337-2.62-5.953-4.47-4.217-4.83-5.566-11.866-3.899-20.346 1.198-6.094 3.246-12.806 5.414-19.913 6.18-20.258 13.185-43.219 3.217-61.063-5.492-9.832-21.594-20.058-33.023-21.29.315 10.067-3.725 14.333-7.29 16.14-8.02 4.059-20.321-.848-28.33-7.79-5.858-5.079-9.254-10.82-9.753-16.183-.45.76-.937 1.5-1.457 2.212.332 3.272.95 6.523 1.922 9.728 4.149 13.689 14.174 22.273 24.788 31.362 1.378 1.18 2.764 2.368 4.149 3.575 18.563 16.19 15.478 41.67 12.757 64.15-.74 6.106-1.438 11.875-1.699 17.27l-.066 1.365c-.379 7.762-.746 15.28.175 22.553a29.53 29.53 0 012.572.9c1.256-.416 2.283-.948 2.916-1.568 2.816-2.762 2.907-9.2 2.98-14.372.026-1.958.052-3.808.21-5.394 1.003-10.021 2.057-19.436 3.945-28.766-.564-6.305-.87-12.698.006-18.923.145-1.02.293-2.207.455-3.507 1.014-8.14 2.403-19.287 6.457-24.383 1.145-1.438 4.19-5.26 6.973-3.795 4.517 2.377.451 16.444.408 16.585-1.119 3.659-2.479 7.175-3.795 10.576-1.023 2.648-2.083 5.386-2.985 8.094-1.733 5.206-3.064 10.358-4.13 15.545zm-61.69-105.841c-7.405 2.43-17.944 8.365-24.452 12.032-2.621 1.476-4.883 2.75-6.53 3.591-12.427 6.348-20.71 17.01-25.324 32.597-7.436 25.118-8.33 63.54 4.349 88.375 5.037 9.865 19.103 25.563 31.36 28.14 4.325.91 8.158.143 11.401-2.278.16-1.408.05-2.937-.237-4.54-5.538-1.254-9.54-3.631-12.163-7.208-3.558-4.85-4.37-11.77-2.485-21.153 1.522-7.57 1.255-14.909.972-22.679-.19-5.208-.385-10.594-.04-16.283.055-.916.142-2.024.242-3.275.127-1.594.276-3.463.397-5.484-.304 1.265-.885 2.228-1.804 2.854-2.882 1.962-7.154-.87-10.117-3.17-11.885-9.225-10.104-33.104-3.71-44.85 5.689-10.452 14.523-15.992 23.066-21.352 4.047-2.538 8.23-5.162 12.1-8.304a21.36 21.36 0 003.16-3.18 64.913 64.913 0 01-.185-3.833zm347.65 154.065c2.51 2.136 5.594 2.646 9.059 3.22 4.04.669 8.216 1.36 11.678 4.825 2.52 2.523 3.87 4.994 4.909 7.266a27.337 27.337 0 00-.712-3.52c-.588-2.178-1.29-3.76-1.852-5.032-.617-1.392-1.022-2.535-1.123-3.588-2.23-2.437-4.65-4.58-7.175-6.288-4.268 1.432-9.167 2.46-14.784 3.117zm29.015 21.697c1.045 1.209 2.474 2.226 4.694 3.045-1.016-4.255-2.852-8.637-5.262-12.742.761 3.287.946 6.557.568 9.697zm8.838 7.628c.045.538.076 1.07.092 1.6.83-.156 1.722-.489 2.656-.967l-1.705-.393c-.345-.078-.693-.158-1.043-.24zm-54.626 8.378c.107.262.367.75 1.003 1.528 3.059 3.738 15.038 3.293 20.773 2.225 7.66-1.431 13.885-5.41 17.528-11.204a21.5 21.5 0 002.971-7.613c-.924-1.38-1.57-2.868-2.227-4.383-1.099-2.536-2.236-5.157-4.914-7.836-2.699-2.702-6.173-3.278-9.85-3.886-3.839-.636-8.122-1.345-11.52-4.752-.247.915.397 1.863 1.844 3.596 1.526 1.828 4.08 4.886.91 7.912-2.486 2.375-5.571 1.231-8.049.313-1.656-.615-3.22-1.197-4.139-.682-.49.273-1.152 1.035-1.692 3.062.702.594 1.286 1.294 1.82 1.934.448.534.953 1.14 1.275 1.33.569.335.889.974.817 1.63a1.68 1.68 0 01-1.153 1.414c-.501.162-.856.399-1.304.698-.464.31-1.003.67-1.74.961.221 3.263 4.126 6.009 7.607 8.457 1.457 1.024 2.832 1.992 3.86 2.955a1.679 1.679 0 01-.713 2.847c-1.227.328-3.093.132-6.042-.22-1.941-.232-5.825-.693-7.065-.286zm-103.225 12.196a1.68 1.68 0 011.678 1.736c-.044 1.334-.176 2.79-.316 4.33-.549 6.067-1.165 12.875 2.884 16.395 1.626-2.76 1.917-6.827 2.2-10.778.385-5.356.782-10.892 4.668-13.598 3.423-2.385 6.102-3.019 8.189-1.935 3.552 1.844 3.583 7.894 3.611 13.231.012 2.139.029 5.349.466 6.108 1.102.78 2.568 1.556 3.47 1.004 1.59-.98 4.76-6.698-.197-38.57-.44-2.827-.44-2.827-.258-3.31 3.43-9.103 10.773-15.139 19.828-19.141.237-1.698.483-3.397.729-5.09l.091-.627c-1.278.291-2.57.47-3.88.488-3.528.047-6.16-1.068-7.804-3.325-4.44-6.097-.097-18.937 3.391-29.253 1.207-3.57 2.25-6.652 2.721-8.849.642-2.99 1.325-9.22 1.686-16.755-.83-2.47-1.743-4.897-2.738-7.274-.835-1.994-1.971-4.355-3.173-6.853-5.826-12.108-13.805-28.69-5.781-39.716.37-.51.997-.767 1.621-.67 2.657.422 4.967 2.039 6.863 4.806 6.668 9.723 7.424 32.588 6.613 49.306 3.874 11.772 5.91 24.434 5.93 37.087.009 5.023-.586 10.43-1.362 16.116 1.273-.528 2.541-1.11 3.797-1.688 2.168-.996 4.411-2.027 6.582-2.723 5.844-1.869 12.11-2.628 18.168-3.362 1.768-.214 3.523-.427 5.251-.665 17.995-2.485 35.9-.418 47.897 5.528.78.388 1.558.815 2.324 1.278 5.46-2.03 9.715-4.784 12.904-8.302 6.239-6.879 8.62-16.787 7.284-30.29-.692-6.99-2.405-13.488-4.061-19.773-2.09-7.929-4.25-16.127-4.302-25.204l-.003-.43c-.039-5.46-.132-18.25 7.134-19.735 2.602-.532 4.31.38 5.288 1.237 4.129 3.613 3.455 13.424 3.13 18.138l-.058.882c-.17 2.748-.371 5.514-.573 8.295-.855 11.789-1.738 23.98-.363 36.233.493 4.385 1.527 7.09 2.989 7.827 2.019 1.017 5.82-1.19 9.844-3.53 4.963-2.886 10.578-6.153 16.315-5.641a1.68 1.68 0 011.53 1.695c-.087 6.482-6.427 9.763-11.519 12.399-1.158.6-2.25 1.165-3.189 1.724-6.92 4.128-9.334 7.394-13.19 13.864-3.883 6.516-7.674 9.58-12.92 13.822l-1.671 1.355c-2.64 2.15-3.88 3.282-4.272 4.308 5.929 6.844 10.376 15.537 11.92 23.763.773.18 1.532.354 2.278.525 1.656.38 3.252.746 4.796 1.123 7.3-5.746 15.717-16.79 19.155-21.3l1.077-1.41c11.815-15.376 17.2-29.98 16.459-44.646-.555-10.961-3.682-19.541-6.995-28.625-1.308-3.59-2.662-7.302-3.922-11.316-2.153-6.86-3.457-13.92-4.717-20.748-1.288-6.98-2.62-14.197-4.85-20.994-10.1-30.774-35.473-37.985-62.336-45.619a54.235 54.235 0 01-3.06-.964 16.279 16.279 0 01-.429 1.737c-2.078 6.685-8.763 13.544-16.27 17.713-2.707 4.048-9.11 12.187-17.421 13.294-4.282.57-8.335-.829-12.036-4.16-6.676-6.01-5.875-15.534-4.662-23.759-.4-.154-.83-.28-1.289-.374-6.411-1.296-22.54 8.079-29.342 12.826-10.624 7.416-17.222 19.296-19.608 35.31-1.273 8.543-2.794 16.878-4.265 24.938-1.137 6.23-2.312 12.67-3.368 19.178-2.082 12.827-2.001 26.425-1.923 39.573.012 2.282.027 4.563.03 6.843.01 9.387-.273 16.637-.921 23.504-.278 2.947-1.097 5.856-1.888 8.67-1.042 3.7-2.033 7.223-1.876 10.758 1.145-.139 2.693-.43 4.3-.733 7.361-1.387 17.441-3.286 19.05 3.1 1.23 4.886-6.976 7.21-14.911 9.455-2.683.76-5.217 1.476-6.265 2.047-7.093 3.864-21.037 17.123-22.542 27.195-.36 2.406.015 4.426 1.143 6.131 1.303-1.447 2.108-3.304 2.95-5.246 1.156-2.664 2.35-5.42 4.918-7.565a1.677 1.677 0 012.279.116c.239.245.48.487.724.728.46.452.62 1.125.413 1.735-.195.576-.39 1.146-.586 1.71-1.642 4.764-3.079 8.93-2.681 13.855 3.189-.075 4.474-4.09 6.098-10.379.996-3.866 1.94-7.516 3.915-9.577a1.676 1.676 0 011.212-.517zm-181.158-44.32c.864 3.983 2.214 7.893 4.27 11.724 4.318 8.047 11.647 14.375 18.735 20.494 3 2.59 6.102 5.269 8.948 8.05 11.608 11.348 19.24 24.648 22.964 40.15 2.828-3.812 5.963-7.452 9.43-10.782a64.125 64.125 0 00-4.749-14.622c-5.845-12.592-15.683-20.424-26.099-28.716-2.973-2.367-6.048-4.815-9.006-7.371-2.91-2.515-5.455-5.024-7.916-7.45-4.994-4.925-9.378-9.25-15.06-11.81-.495.126-1.003.237-1.517.332zM279.79 360.89c.443.81 3.267 2.773 8.213 2.064.277-.04.556-.085.84-.135-1.529-1.048-3.072-1.76-4.611-2.01-2.715-.44-4.022-.14-4.442.08zm307.767-1.543c-.357 2.746.192 4.676 1.638 5.749 1.445 1.072 3.682 1.411 6.306 1.267-2.76-3.375-5.53-5.963-7.944-7.016zm-236.934 78.895c-4.948 0-11.944 2.631-14.667 5.615-1.13 1.24-1.833 2.389-2.12 3.48.452-.168.99-.364 1.606-.59 12.365-4.51 16.658-6.904 17.865-8.169-.778-.23-1.69-.336-2.684-.336zm83.929-68.876c-8.722 13.948-13.81 29.225-16.563 39.719-4.96 18.906-9.357 38.513-7.914 57.51 5.07-5.675 9.566-11.57 12.195-19.455.455-1.367.92-2.749 1.388-4.143 4.22-12.557 8.582-25.543 10.47-38.52 1.859-12.766 2.007-24.446.424-35.111zm196.765 95.297a32.321 32.321 0 001.292 3.915c2.301-1.305 2.28-2.099 2.278-2.11-.025-.35-.131-.725-.735-1.084-.673-.403-1.662-.628-2.835-.72zm100.947-12.862c-1.365 3.39-2.575 6.839-3.576 10.358-1.246 4.38-1.55 8.175-1.34 11.783 3.101-.831 5.194-2.21 6.373-4.193 2.576-4.327.58-11.43-1.457-17.948zm-33.009 16.148a18.298 18.298 0 002.029 1.635c6.309 4.404 15.972 5.789 22.743 4.983-.277-4.038.015-8.352 1.43-13.327 1.41-4.953 3.209-9.75 5.26-14.427-.557-1.883-1.032-3.686-1.33-5.387-3.541-20.28 5.772-38.298 14.78-55.724 4.461-8.635 8.676-16.789 11.42-25.187 4.961-15.17 3.377-28.109-4.844-39.559-6.986-9.729-13.826-12.735-23.01-15.096-3.27 2.311-6.353 3.574-9.079 3.278a1.68 1.68 0 01-1.495-1.725 26.82 26.82 0 00-.198-4.123c-2.708-.767-4.668-1.757-6.15-2.904a24.71 24.71 0 01-2.866 6.456c-4.147 6.596-11.162 11.112-19.754 12.716-5.119.955-19.404 2.206-23.99-3.398-1.126-1.378-2.507-3.425-1.484-5.29 1.358-2.478 5.524-2.012 10.37-1.434-4.26-3.015-9.11-6.764-8.2-12.236a1.677 1.677 0 011.335-1.372c.724-.142 1.139-.389 1.65-.727-.065-.075-.128-.152-.192-.228-.629-.753-1.279-1.531-1.95-1.906a1.679 1.679 0 01-.83-1.8c.683-3.366 1.824-5.393 3.595-6.379 2.268-1.265 4.75-.344 6.938.467 2.444.906 3.69 1.241 4.564.406.697-.663.809-.96-1.17-3.328-1.369-1.64-3.448-4.13-2.404-6.982-3.415.22-7.05.326-10.953.322-13.528-.02-36.58-.036-53.603 6.83-1.908 14.262-2.778 28.179 4.175 37.059 4.35 5.554 11.409 8.74 21.582 9.742 6.404.63 12.731-.004 18.85-.618 8.39-.84 17.062-1.71 26.214.588 17.033 4.275 28.282 11.011 34.388 20.592 12.272 19.255 2.62 48.684-5.134 72.331-2.187 6.668-4.253 12.967-5.624 18.415-.621 2.465-1.394 5.33-2.21 8.364-1.508 5.595-3.26 12.1-4.853 18.973zm-71.384-3.249c-4.223.33-9.114 1.538-11.194 2.477-5.059 2.282-6.954 5.222-7.146 9.06.84-.287 1.671-.586 2.485-.881 1.217-.44 2.367-.855 3.503-1.218.636-.204 1.668-.469 2.976-.803 2.95-.756 7.41-1.897 11.005-3.315l.056-.022c-.704-1.745-1.282-3.511-1.685-5.298zM363.9 476.854c6.934.274 9.117-6.764 11.205-15.946.428-1.88.832-3.658 1.304-5.188a1.679 1.679 0 011.483-1.18c1.727-.123 3.926.212 5.751 2.084.368-2.126.762-4.28 1.165-6.433.416-2.215.774-4.128.95-5.351 2.04-14.13 4.215-26.88 10.205-39.838 1.617-3.497 4.2-7.373 6.934-11.476 5.998-9 12.796-19.2 10.72-27.644-.749-3.042-1.931-4.898-3.328-5.225-1.617-.377-3.97 1.042-6.304 3.802-1.345 1.59-2.59 3.52-3.613 5.574.57 2.368.81 4.652.655 6.795-.052.714-.062 1.34-.07 1.947-.04 2.457-.073 4.58-3.29 6.728a1.681 1.681 0 01-2.48-.746c-1.734-4.131-.734-9.866 1.605-15.042-2.994-10.38-12.963-23.604-25.18-32.521-10.418-7.604-20.233-10.426-26.93-7.736-7.593 3.048-14.005 9.2-20.205 15.15-4.37 4.192-8.888 8.528-13.837 11.815-5.445 3.616-10.457 6.276-14.981 7.956 4.694 5.001 8.84 11.8 12.251 17.395 1.493 2.448 2.782 4.562 3.88 6.134 6.765 9.684 14.854 19.097 24.044 27.978 1.75 1.69 3.477 3.346 5.187 4.984 7.232 6.93 14.064 13.475 21.063 21.24l.996 1.1c3.99 4.382 8.115 8.914 8.092 15.674-.014 4.23-2.037 7.508-3.994 10.678-1.498 2.425-2.925 4.738-3.278 7.292zm43.68-2.584c-2.25 2.426-4.536 4.92-6.71 7.577 1.59-.143 3.242-.23 4.979-.32.776-.043 1.907.037 3.266.182a83.261 83.261 0 01-1.535-7.439zm5.132 7.876l.613.08c3.531.458 10.106 1.311 11.34.727 2.855-1.948 2.418-9.058 2.098-14.25-.144-2.35-.281-4.568-.135-6.234.738-8.406 2.181-17.26 3.96-24.293 1.715-6.777 3.822-13.795 5.861-20.582 6.33-21.078 12.827-42.707 9.987-63.524-3.387 3.46-6.429 7.227-9.158 11.157 2.247 11.954 2.294 25.164.173 39.735-1.931 13.276-6.344 26.407-10.61 39.106-.468 1.392-.931 2.77-1.386 4.136-3.19 9.57-8.795 16.228-14.926 22.887a80.317 80.317 0 002.183 11.055zm294.14 25.542c.452.889 1.259 1.637 1.96 2.165 3.607 2.721 10.1 4.071 13.281 3.423 2.015-.412 3.409-1.09 4.361-2.043-6.01-2.8-13.674-5.285-19.603-3.545zm-90.541 13.193c.439.34 2.026 1.219 7.1 1.716 9.935.97 17.064-1.003 20.623-5.708.078-.1.153-.204.225-.308-.446 0-.886-.002-1.321-.004-6.347-.022-11.352-.04-17.35.942-5.934.972-8.667 2.641-9.277 3.362zm-282.016-70.127c1.053 2.059 3.327 4.122 5.699 6.275.557.504 1.12 1.015 1.676 1.534 12.222 11.386 15.6 24.286 10.955 41.827-1.891 7.136-4.726 10.97-9.985 16.386-.587.604-1.43 1.34-2.407 2.19-3.171 2.764-9.074 7.91-7.442 10.796.734 1.3 2.278 2.102 4.588 2.386 10.099 1.247 29.028-7.447 32.531-11.138 3.81-4.014 9.737-21.226 12.467-36.729-1.573-5.162-.959-13.386.427-22.516a10.696 10.696 0 00-.45-1.12c-.767-1.62-1.743-2.49-3.085-2.713-.301 1.135-.59 2.4-.889 3.721-1.848 8.126-4.64 20.406-16.525 18.347a1.68 1.68 0 01-1.39-1.605c-.124-4.152 1.9-7.429 3.855-10.597 1.792-2.901 3.483-5.643 3.493-8.926.019-5.453-3.335-9.137-7.217-13.403l-1.008-1.11a238.819 238.819 0 00-3.555-3.86c-2.126 2.464-7.937 5.207-19.441 9.404-.966.353-1.774.649-2.297.851zm364.127 20.895c-4.499 20.648-6.965 43.66 3.087 54.977 5.766 6.493 27.287 13.142 36.208 9.836 4.324-1.605 6.59-3.783 6.731-6.474.29-5.532-8.054-13.308-14.92-17.198-1.34 1.741-3.456 3.1-6.762 3.776-4.034.831-11.42-.595-15.976-4.031-2.218-1.672-3.474-3.669-3.635-5.773a1.68 1.68 0 011.01-1.67c5.927-2.555 13.95-1.488 23.86 3.166.46-1.924.384-4.365.223-7.343l-.046-.844c-.27-5.204-1.263-9.665-2.223-13.98-.61-2.736-1.207-5.417-1.597-8.18-7.56.892-17.964-.647-25.022-5.573a23.095 23.095 0 01-.938-.689zm-315.46 66.12c6.114 3.44 9.84 1.743 16.508-1.289l1.079-.49c7.729-3.491 12.075-5.025 21.176-5.025h.129c11.098 0 27.167-.88 38.945-8.398 3.292-2.103 10.124-9.858 8.873-13.701-1.645-5.057-12.354-3.978-16.928-3.518-3.236.325-6.376.933-9.413 1.52-11.193 2.166-21.764 4.21-28.917-10.608a77.087 77.087 0 01-4.322-11.058c-1.753-.212-3.288-.357-4.068-.321-2.986.155-5.622.292-8.074.731-17.431 23.344-22.337 40.423-14.987 52.158zm199.709-14.714c-11.048 0-17.706 2.692-18.366 5.238-.208.8-.172 3.808 9.004 8.887 10.82 5.989 20.644 7.757 35.034 6.303 5.09-.513 10.512-.336 16.252-.148 10.868.358 22.111.725 30.509-3.986 6.928-3.886 8.852-7.979 6.866-14.6-2.227-7.412-5.397-8.132-13.808-8.165-.412.82-.895 1.6-1.45 2.332-4.3 5.684-12.469 8.114-23.627 7.023-4.339-.424-10.119-1.394-10.233-4.9-.115-3.547 6.223-5.856 12.193-6.834 6.275-1.027 11.665-1.01 17.904-.987.96.004 1.924-.006 2.956.007 1.346-4.269.74-9.832-1.814-16.364-1.707-4.361-4.341-8.653-7.131-13.196-2.13-3.467-4.296-6.994-6.042-10.602-3.321 1.332-7.434 2.462-11.592 3.526-1.203.308-2.242.574-2.782.747-1.078.346-2.2.751-3.388 1.18-1.113.402-2.254.814-3.412 1.194.362 2.414 1.12 5.121 2.025 8.165 1.691 5.684 3.44 11.562 2.134 17.16-4.211 18.075-21.71 18.052-31.092 18.02h-.14zm16.676 24.29c-9.048 0-17.764-1.747-27.665-7.227-8.073-4.469-11.65-8.732-10.628-12.669 1.49-5.746 12.21-7.778 21.764-7.753h.343c11.618 0 24.176-1.285 27.472-15.424 1.103-4.73-.517-10.175-2.083-15.44-.794-2.67-1.62-5.445-2.059-8.175-3.488.85-6.996 1.078-10.141-.424-5.472-2.613-8.404-9.864-10.546-15.16l-.35-.866c-2.027-4.976-3.825-10.04-5.567-14.936-2.959-8.329-6.019-16.942-10.218-25.111-8.3-16.145-14.615-29.528-19.872-42.115-1.425-3.41-4.307-7.52-7.358-11.871-6.178-8.811-13.108-18.694-11.004-27.195h-70.89c-4.046 2.344-7.748 5.125-11.137 8.218 3.816 22.224-3.054 45.094-9.742 67.364-2.029 6.751-4.126 13.733-5.822 20.438-1.737 6.867-3.148 15.527-3.87 23.764-.124 1.416.005 3.513.142 5.734.39 6.33.875 14.21-3.605 17.259-1.68 1.143-5.386.855-12.745-.088a73.21 73.21 0 003.673 9.133c6.029 12.49 14.094 10.93 25.254 8.77 3.11-.601 6.327-1.224 9.714-1.565 5.836-.585 17.975-1.81 20.458 5.82 2.078 6.379-7.07 15.535-10.259 17.571-12.517 7.99-29.234 8.926-40.754 8.926h-.128c-8.486 0-12.361 1.37-19.791 4.727l-1.073.487c-7.034 3.2-12.115 5.51-19.938.934a1.685 1.685 0 01-.559-.532c-8.088-12.406-4.098-29.665 12.212-52.65-1.364.654-2.706 1.505-4.062 2.624a1.68 1.68 0 01-2.328-.184 65.746 65.746 0 00-.759-.847 5.435 5.435 0 01-.43-.314c-3.076 15.174-8.755 30.65-12.65 34.754-4.381 4.618-24.346 13.518-35.376 12.16-3.426-.422-5.816-1.79-7.103-4.067-2.98-5.27 3.724-11.114 8.16-14.98.92-.802 1.713-1.495 2.204-2 4.943-5.09 7.437-8.451 9.147-14.905 4.29-16.196 1.206-28.073-9.998-38.51-.546-.51-1.097-1.01-1.643-1.504-2.665-2.419-5.224-4.741-6.525-7.4l-.92.428c-6.053 2.827-12.314 5.753-19.073.44-2.898-2.276-5.233-6.297-7.492-10.184-1.58-2.72-3.071-5.286-4.652-7.132-5.094-5.948-10.623-11.77-17.402-18.325-3.124-3.019-6.493-6.028-10.06-9.214-19.946-17.817-42.473-37.935-25.708-65.15H33.586a1.68 1.68 0 010-3.359h215.432a1.68 1.68 0 011.377 2.64c-18.24 26.12 2.958 45.054 23.457 63.364 3.592 3.208 6.985 6.24 10.156 9.305 6.857 6.63 12.455 12.524 17.618 18.555 1.78 2.077 3.42 4.9 5.005 7.629 2.1 3.613 4.272 7.351 6.665 9.231 5.134 4.036 9.514 1.988 15.577-.843.48-.225.967-.451 1.461-.679v-.005c-.114-2.417.914-4.78 3.141-7.222 3.14-3.442 10.87-6.715 17.065-6.715h.053c-3.901-3.926-7.834-7.694-11.894-11.584-1.714-1.643-3.445-3.301-5.199-4.995-9.344-9.03-17.574-18.61-24.462-28.469-1.158-1.659-2.473-3.814-3.994-6.31-3.433-5.629-8.021-13.153-12.963-17.992a30.505 30.505 0 01-3.605.75c-5.823.828-10.04-1.264-11.494-3.56-.765-1.208-.804-2.558-.107-3.613.788-1.193 2.796-2.445 7.896-1.612 2.855.465 5.592 2.038 8.185 4.275 4.641-1.51 9.942-4.236 15.827-8.144 4.699-3.121 9.106-7.35 13.369-11.44 6.432-6.173 13.082-12.555 21.279-15.845 7.908-3.175 18.62-.283 30.163 8.14 10.542 7.696 21.038 19.935 25.388 31.159a29.75 29.75 0 012.44-3.35c3.26-3.854 6.679-5.596 9.635-4.904 2.767.65 4.726 3.238 5.821 7.695 2.43 9.878-4.803 20.73-11.185 30.308-2.66 3.991-5.172 7.761-6.68 11.022-5.8 12.547-7.928 25.044-9.929 38.908-.186 1.294-.534 3.146-.973 5.49-.489 2.61-1.218 6.5-1.864 10.764 1.49 5.445 1.055 13.736-.42 22.527.382.948.89 1.649 1.546 2.04.097.057.187.124.27.2 2.782-2.02 5.522-3.128 8.397-3.775l.34-.447c3.052-4.014 6.369-7.583 9.578-11.034l1.044-1.125c-2.241-20.435 2.429-41.484 7.739-61.726 3.015-11.497 8.779-28.592 18.96-43.707-3.305-16.167-10.838-29.897-22.68-41.475-2.772-2.708-5.835-5.352-8.796-7.908-7.319-6.32-14.887-12.854-19.5-21.45-2.284-4.256-3.754-8.559-4.674-12.916-1.872.103-3.718.01-5.33-.265-3.325-.566-5.572-1.861-6.5-3.745a1.676 1.676 0 01.051-1.577c.279-.486.78-.8 1.338-.839 3.54-.249 6.674-.085 9.5.412-.762-7.115-.406-14.394-.04-21.892l.066-1.364c.266-5.517.971-11.343 1.719-17.511 2.621-21.653 5.592-46.195-11.63-61.216a644.792 644.792 0 00-4.127-3.555c-10.996-9.416-21.383-18.311-25.818-32.939a53.456 53.456 0 01-1.659-7.306c-.498.48-1.017.94-1.558 1.38-4.029 3.269-8.3 5.949-12.432 8.54-8.554 5.366-16.634 10.434-21.901 20.113-5.918 10.87-7.341 32.704 2.82 40.59 4.915 3.817 6.156 3.055 6.167 3.047 2.188-1.489-1.704-14.803-3.168-19.815-1.416-4.845-2.15-7.436-2.039-8.796a1.681 1.681 0 011.938-1.522c12.603 1.998 10.854 23.991 9.915 35.806a179.539 179.539 0 00-.24 3.213c-.335 5.526-.141 10.828.045 15.957.29 7.973.565 15.504-1.034 23.463-1.69 8.405-1.069 14.459 1.9 18.504 1.867 2.547 4.686 4.365 8.545 5.492-.66-2.207-1.51-4.484-2.347-6.731-2.701-7.24-5.495-14.726-2.418-20.64 1.9-3.652 5.744-6.187 11.749-7.748a1.678 1.678 0 012.063 1.269c1.131 5.213-.61 9.216-2.297 13.089-.384.882-.777 1.787-1.133 2.702 3.138 3.648 7.469 2.475 13.577.29 1.51-.54 3.07-1.098 4.543-1.48a1.683 1.683 0 011.628.457c.31.321.626.637.947.947a1.68 1.68 0 01.363 1.896c-.53 1.18-.899 2.599-1.254 3.972-.202.776-.407 1.57-.647 2.34 3.51 1.088 7.057 2.052 10.782 3.065 1.647.447 3.3.897 4.958 1.359.567.16 1.01.604 1.166 1.171.565 2.042.196 3.906-1.065 5.39-3.655 4.3-14.683 5.298-34.711 3.144l-.407-.044c-.37-.04-.735-.083-1.094-.13.23 1.767.25 3.486-.037 5.124-.07.397-.28.755-.593 1.01-4.173 3.403-9.126 4.53-14.718 3.357-13.446-2.828-28.188-19.182-33.66-29.901-13.08-25.618-12.205-65.098-4.58-90.856 4.889-16.517 13.727-27.845 27.018-34.634 1.585-.81 3.82-2.069 6.408-3.526 9.817-5.53 19.19-10.597 26.121-12.611.243-8.013 1.778-16.02 3.706-23.802-.794-1.443-2.244-2.778-3.773-4.185-1.99-1.834-4.05-3.728-5.056-6.23-2.282-5.662-1.192-12.485-.315-17.968l.076-.478c2.019-12.675 7.587-21.711 17.524-28.437 9.994-6.764 20.387-8.73 34.758-6.575 3.857.58 19.788 4.523 21.388 11.935.636 2.952-.956 5.806-4.736 8.494.631 3.16 2.346 5.084 4.304 7.28 1.56 1.75 3.173 3.56 4.383 6.125 1.527 3.238 2.037 5.904 2.487 8.257.538 2.818 1.003 5.251 3.013 8.414.433.68 1.118 1.332 1.843 2.023 1.48 1.41 3.159 3.009 3.11 5.422-.068 3.311-2.375 4.758-4.06 5.815-1.1.69-2.049 1.285-2.442 2.225-.946 2.265-.634 4.868-.304 7.625.48 4.004 1.025 8.543-2.514 12.522-2.99 3.364-7.13 3.993-11.134 4.603-2.7.41-5.25.799-7.247 2.003-2.267 1.367-3.615 3.344-4.875 5.502 12.592 1.033 30.142 12.066 36.28 23.054 10.667 19.093 3.44 42.782-2.936 63.681-2.141 7.022-4.166 13.655-5.33 19.581-1.46 7.423-.376 13.47 3.133 17.489.66.754 1.4 1.437 2.221 2.05a43.553 43.553 0 01-.57-3.564c-.378-3.25-.66-9.113 1.707-11.859a1.681 1.681 0 011.222-.583c.487-.02.927.173 1.256.51.965.997 1.504 2.764 2.304 5.564.578 2.027 1.655 5.8 2.667 6.246a.188.188 0 00.11.002c.296-.924.115-3.809-.007-5.76-.242-3.864-.493-7.859.803-10.109a1.68 1.68 0 011.963-.762c2.47.782 2.68.223 3.456-1.862.683-1.834 1.715-4.604 5.363-4.725 4.753-.15 5.319 3.634 5.56 6.465 1.312-4.124 2.892-8.374 5.91-9.039 1.577-.346 3.142.328 4.659 2.001a1.68 1.68 0 01.33 1.711c-.567 1.53-.8 2.78-.708 4.13 2.153-1.556 4.773-2.104 7.622-1.555a1.68 1.68 0 011.36 1.594c.377 11.635-17.613 28.047-28.518 28.69-4.144.247-7.884-.08-11.152-.951.774 1.78 1.632 3.117 2.472 3.726 1.413 1.024 3.01.928 4.554.836 1.49-.091 3.181-.191 4.263 1.116.954 1.156 1.027 2.871.25 5.921-1.345 5.277-9.518 8.34-11.143 8.901-7.532 2.599-13.705 2.336-18.346-.784-9.552-6.423-10.458-22.946-11.185-36.223-.07-1.287-.139-2.54-.213-3.736-.706 5.18-1.268 10.462-1.814 15.928-.145 1.442-.17 3.223-.196 5.107-.085 6.091-.181 12.993-3.987 16.723a7.973 7.973 0 01-1.376 1.064c4.911 2.823 8.955 6.812 13.29 11.086 2.421 2.389 4.926 4.859 7.752 7.3 2.908 2.513 5.956 4.94 8.904 7.286 10.262 8.17 20.873 16.618 27.053 29.93a67.559 67.559 0 014.587 13.403c3.26-2.82 6.793-5.366 10.62-7.546.253-.143.539-.22.831-.22h73.715a1.679 1.679 0 011.515 2.404c-3.454 7.23 3.62 17.32 9.862 26.223 3.158 4.504 6.142 8.758 7.707 12.504 5.222 12.503 11.501 25.808 19.759 41.874 4.302 8.368 7.401 17.089 10.398 25.522 1.728 4.861 3.514 9.887 5.511 14.793l.354.874c1.935 4.785 4.585 11.339 8.879 13.388 2.386 1.138 5.341.855 8.377.066-.083-5.162 1.945-9.915 9.12-13.152 1.851-.835 7.069-2.33 12.036-2.745-.386-3.445-.686-6.743-.977-9.937-1.058-11.641-1.974-21.694-6.359-33.035-1.413-3.654-2.762-7.359-4.067-10.94-3.526-9.682-6.857-18.825-11.44-27.362-1.946-3.627-4.213-7.312-6.567-10.573-4.21.53-8.112.21-10.726-1.73-2.912-2.16-3.782-5.845-2.585-10.958a1.684 1.684 0 011.88-1.278c4.429.657 9.07 5.27 12.919 10.313 6.931-1.296 14.965-4.685 18.487-6.722 5.714-3.304 11.207-7.024 16.52-10.62 5.42-3.67 11.023-7.464 16.911-10.858 10.388-5.988 22.086-6.375 32.942-1.09 13.52 6.58 23.673 20.753 25.866 36.106 1.813 12.682-1.032 25.318-3.783 37.538-.688 3.053-1.337 5.936-1.91 8.804-.798 3.995-2.32 8.713-3.933 13.707-3.075 9.523-6.56 20.316-5.363 27.738a12.319 12.319 0 001.448 4.139c1.43-5.963 2.943-11.58 4.27-16.509.814-3.02 1.583-5.873 2.197-8.311 1.402-5.563 3.484-11.916 5.69-18.641 7.534-22.974 16.91-51.567 5.493-69.48-5.623-8.821-16.213-15.083-32.374-19.141-8.582-2.154-16.587-1.35-25.061-.502-6.282.63-12.777 1.283-19.514.618-11.135-1.096-18.952-4.7-23.897-11.014-7.406-9.458-6.928-23.278-5.126-37.526-7.318 3.597-13.148 8.726-16.026 16.04.057.409.175 1.169.298 1.962 4.035 25.948 3.615 38.885-1.363 41.946-2.001 1.232-4.447.832-7.266-1.191-1.747-1.254-1.763-4.404-1.787-8.763-.018-3.727-.047-9.359-1.799-10.267-.39-.204-1.634-.443-4.724 1.71-2.569 1.788-2.892 6.302-3.236 11.08-.368 5.14-.75 10.454-3.927 13.987a1.681 1.681 0 01-2.097.325c-4.92-2.879-6.095-8.153-6.149-13.39-1.61 5.97-3.944 12.325-10.742 10.778a1.68 1.68 0 01-1.289-1.4c-.48-3.372-.204-6.386.44-9.28-1.016 2.197-2.252 4.337-4.452 5.974a1.678 1.678 0 01-2.202-.172c-2.655-2.71-3.694-6.152-3.085-10.231 1.73-11.576 16.93-25.657 24.257-29.647 1.378-.752 3.84-1.448 6.957-2.33 3.158-.894 6.735-1.907 9.363-3.076 2.784-1.238 3.259-2.118 3.206-2.33-.836-3.317-9.81-1.628-15.172-.618-2.878.543-5.147.97-6.578.857a1.68 1.68 0 01-1.528-1.437c-.678-4.75.595-9.277 1.828-13.655.785-2.793 1.528-5.43 1.777-8.075.639-6.758.917-13.908.906-23.184-.003-2.275-.017-4.552-.03-6.827-.079-13.288-.16-27.027 1.967-40.132 1.06-6.54 2.24-12.998 3.38-19.243 1.465-8.034 2.982-16.34 4.246-24.83 2.527-16.964 9.595-29.604 21.008-37.57.221-.152 22.141-15.343 31.93-13.362.397.08.775.177 1.138.29.17-1.11.33-2.183.461-3.214-1.472-.046-2.999-.002-4.487.04-4.712.135-9.162.262-11.332-2.502-1.297-1.65-1.507-3.978-.646-7.115 2.256-8.21-.86-11.002-3.876-13.702-2.068-1.853-4.413-3.952-3.376-7.521.044-.152.111-.297.195-.432 4.555-7.168 4.145-10.657 3.67-14.696-.152-1.292-.31-2.63-.314-4.126-.013-5.314.725-6.613 2.917-10.469.688-1.212 1.546-2.72 2.596-4.734 1.52-2.913 3.673-5.314 6.257-7.232a7.97 7.97 0 01-1.55-1.919c-1.766-3.044-1.825-6.389-.164-9.417 2.187-3.987 7.364-7.14 12.044-7.336 3.75-.157 7.553 1.414 11.225 2.933 2.878 1.191 5.855 2.423 8.637 2.723 2.458.264 4.995.221 7.68.175 5.49-.094 11.168-.192 16.267 2.507 11.077 5.866 14.03 19.934 8.54 40.684-1.256 4.746-2.896 9.456-4.484 14.012-.957 2.748-1.93 5.543-2.82 8.353 2.722 5.256 3.643 12.542 3.285 18.12 1.085.401 2.27.785 3.556 1.151 26.525 7.537 53.954 15.333 64.609 47.803 2.3 7.012 3.653 14.342 4.962 21.431 1.242 6.73 2.526 13.687 4.619 20.352 1.236 3.94 2.576 7.616 3.873 11.171 3.401 9.329 6.614 18.14 7.192 29.607.783 15.497-4.826 30.825-17.149 46.862l-1.07 1.4c-5.79 7.597-12.012 15.252-17.829 20.314 8.512 2.436 15.49 6.02 22.463 15.73 8.765 12.208 10.552 26.528 5.309 42.561-2.83 8.655-7.304 17.312-11.632 25.684-8.75 16.933-17.8 34.441-14.453 53.604.066.38.144.767.23 1.163 3.634-7.571 7.818-14.849 11.925-21.993 6.975-12.134 14.188-24.682 18.199-37.988 3.537-11.735 4.674-36.956 4.502-40.127a1.681 1.681 0 01.138-1.487 1.729 1.729 0 011.687-.796H972.67c.924 0 1.68.752 1.68 1.68 0 .927-.756 1.679-1.68 1.679H770.935c.074 2.367-.117 6.606-.74 14.343-.52 6.442-1.719 18.344-3.93 25.677-4.121 13.676-11.432 26.393-18.503 38.693-4.717 8.205-9.535 16.59-13.469 25.348.249.812.509 1.64.774 2.48 2.369 7.521 5.053 16.046 1.54 21.947-1.696 2.851-4.693 4.816-8.918 5.855.37 2.656.953 5.28 1.569 8.039.99 4.45 2.014 9.051 2.299 14.537l.045.835c.16 2.941.338 6.223-.552 9.067 6.36 3.626 17.18 12.242 16.753 20.365-.219 4.154-3.219 7.332-8.917 9.445-10.359 3.843-33.302-3.34-39.886-10.754-11.335-12.762-8.338-37.997-3.42-59.879-2.012-2.321-3.27-4.988-3.75-7.968-1.325-8.22 2.29-19.421 5.482-29.304 1.583-4.9 3.077-9.529 3.837-13.333.58-2.909 1.234-5.811 1.926-8.885 2.685-11.923 5.46-24.253 3.737-36.325-2.01-14.062-11.66-27.55-24.014-33.563-9.82-4.78-20.403-4.433-29.793.98-5.783 3.335-11.336 7.094-16.706 10.73-5.362 3.63-10.905 7.385-16.722 10.748-2.174 1.257-10.135 5.085-17.99 6.822 2.693 3.904 4.798 7.65 5.86 9.628 4.697 8.75 8.068 18.005 11.637 27.802 1.299 3.568 2.643 7.255 4.044 10.878 4.554 11.78 5.534 22.545 6.571 33.942.297 3.265.604 6.638 1.001 10.148 2.03.078 3.853.438 5.17 1.222 1.434.853 2.253 2.142 2.368 3.727.157 2.159-1.523 3.92-4.268 5.423 1.677 3.458 3.782 6.887 5.852 10.259 2.745 4.468 5.583 9.089 7.398 13.73 2.654 6.784 3.376 12.747 2.174 17.59 7.487.08 12.932 1.03 15.792 10.556 2.445 8.145-.157 13.85-8.437 18.494-9.216 5.17-20.93 4.786-32.264 4.414-5.624-.185-10.938-.36-15.803.133-3.187.321-6.28.52-9.334.52z"/></svg>