<svg xmlns="http://www.w3.org/2000/svg" width="2000" height="884"><defs><linearGradient id="a" x1="0%" x2="50%" y1="94.287%" y2="94.287%"><stop offset="0%" stop-color="#A2BB68"/><stop offset="100%" stop-color="#D7478C"/></linearGradient></defs><path fill="url(#a)" fill-rule="evenodd" d="M569.66 30.838a2.55 2.55 0 012.47 1.923c3.158 12.442 1.473 23.14-.311 34.468-1.172 7.437-2.379 15.1-2.144 23.494 2.929-1.158 4.768-3.305 5.86-5.102 2.168-3.573 2.964-8.312 2.187-12.395a6.71 6.71 0 01-1.592.255 2.55 2.55 0 01-2.461-3.423c6.341-17.364 10.33-31.007 3.748-47.863-5.01-4.15-12.094-8.37-21.068-12.548-3.24-1.508-6.361-1.892-9.667-2.297-2.824-.347-5.73-.704-8.75-1.784l-.182.29c-.428.682-.913 1.456-1.607 2.086a2.546 2.546 0 01-3.243.155c-1.357-1.017-2.672-1.33-4.013-.959-2.252.625-4.522 3.148-5.923 6.586a2.547 2.547 0 01-2.524 1.582c-9.02-.617-18.897 12.852-21.042 24.355-.854 4.585-1.222 12.612 5.917 14.86a2.552 2.552 0 011.705 3.062 2.545 2.545 0 01-2.964 1.872c-2.88-.567-6.768-.714-8.932 1.8-1.952 2.267-2.232 6.475-.714 10.72 1.505 4.204 5.038 9.031 10.443 9.975.535.093 1.012.35 1.376.72-.69-20.64 4.621-41.785 10.616-56.017a2.55 2.55 0 013.313-1.37c12.867 5.25 31.282 7.332 49.251 5.568.085-.01.169-.013.252-.013zm1194.007 60.709c3.913 0 8.464.686 13.78 2.055 28.872 7.443 28.617 28.372 25.673 51.004-.102.8-.383 2.773-.905 5.48.382-.369.88-.614 1.427-.689 2.792-.384 6.425-4.81 8.452-10.292 1.682-4.577 1.873-8.895.446-10.5-.714-.804-2.078-.972-4.054-.497a2.538 2.538 0 01-2.282-.57 2.53 2.53 0 01-.84-2.203c.496-4.312 1.886-8.754 3.237-13.048 2.855-9.094 5.545-17.684.854-25.646-7.393-12.57-18.675-13.426-32.607-13.23-13.627.185-23.06 3.569-28.873 10.343-6.972 8.147-8.056 20.56-7.074 33.963.025-.076.038-.153.063-.23 2.422-10.17 4.526-18.955 11.702-23.273 2.945-1.78 6.565-2.667 11.001-2.667zm-1256.073 4.48c-.253 4.595-.916 9.364-1.566 14.05-2.097 15.089-4.078 29.34 5.908 37.804 8.478 7.187 17.542 6.177 23.653 4.065 8.529-2.95 16.543-9.9 21.578-18.067.177-2.517.286-5.105.398-7.753.117-2.803.237-5.64.443-8.495-4.81 5.144-11.357 8.102-18.855 8.21l-.44.003c-13.675 0-25.75-9.186-29.455-22.473a78.08 78.08 0 01-1.664-7.344zM249.062 155.5c-.17.538-.313 1.079-.43 1.618 1.448-.277 2.981-.407 4.56-.423a40.176 40.176 0 01-4.13-1.195zm-85.197-27.857c-1.221 10.36-1.15 20.966-.506 32.757.043.792.078 1.577.106 2.351.134-.015.269-.022.404-.014 1.989-2.25 3.572-4.668 4.555-7.278 1.534-4.073 1.482-8.17.738-12.356-2.837-4.71-4.773-9.993-5.297-15.46zm1257.693 19.572a2.504 2.504 0 01-.663.508c-3.314 1.788-3.888 5.866-2.983 9.115.676 2.445 2.41 5.156 5.278 6.237-.485-3.79-.842-7.566-1.186-11.244-.153-1.548-.293-3.088-.446-4.616zM774.36 94.395c-10.472 0-17.952 14.823-18.927 28.882-.792 11.432 2.67 25.161 15.034 26.235a2.551 2.551 0 01.1 5.07c-2.134.272-3.417.982-3.808 2.11-.62 1.782.67 4.914 2.994 7.288 2.278 2.325 4.998 3.425 6.935 2.794.289-.096.592-.137.888-.124-2.521-4.991-4.214-10.404-4.8-15.82-.744-6.881.768-13.204 2.228-19.319 1.462-6.118 2.844-11.9 1.718-17.528a2.55 2.55 0 014.867-1.449c2.975 7.435 12.898 6.76 25.557 5.105 3.184-.415 6.191-.808 8.8-.898 17.465-.603 24.637 3.368 29.7 17.935 2.17-4.42 2.848-10.092 1.911-16.458-1.766-12.009-8.841-23.906-17.206-28.932-7.702-4.628-31.832-8.144-44.805-3.428-4.33 1.573-7.043 3.874-8.067 6.839a2.559 2.559 0 01-2.542 1.713c-.193-.01-.386-.015-.577-.015zm-629.25 55.688c.323 0 .646.061.952.184 6.559 2.636 8.712 7.21 9.365 10.582.387 2.008.349 4.164-.076 6.356a108.08 108.08 0 003.08-1.68c-.02-1.575-.073-3.192-.163-4.85-1.3-23.826-.314-43.007 8.61-64.98 4.908-12.084 11.19-19.508 19.206-22.697 7.765-3.09 16.99-2.105 28.205 3.008 2.195 1 4.225 1.748 6.017 2.406 8.806 3.24 13.302 5.672 11.152 21.57-.731 5.412-2.688 10.84-4.58 16.09-1.888 5.236-3.67 10.18-4.307 15.028-1.694 12.864 6.069 24.353 17.148 32.223.469-1.087 1.087-2.043 1.899-2.834a11.01 11.01 0 011.597-1.283c.174-2.695.868-5.451 2.08-8.067a2.55 2.55 0 013.308-1.275c1.929.817 6.133 2.371 10.58 2.562-8.97-12.734-8.019-26.873-7.096-40.588.543-8.058 1.104-16.39-.228-24.66-1.833-11.379-10.432-29.991-21.814-35.34-4.987-2.344-9.96-1.981-15.203 1.108a2.547 2.547 0 01-3.682-1.301c-2.367-6.323-6.694-10.004-12.86-10.94-13.886-2.11-33.05 9.84-40.147 18.99-2.893 3.732-5.166 7.657-7.365 11.456-2.752 4.753-5.597 9.667-9.655 14.203-6.213 6.949-8.964 11.112-11.995 18.683 3.78.174 7.52.165 11.155-.032a2.55 2.55 0 012.277 3.934c-2.357 3.632-5.44 6.352-8.422 8.984-5.703 5.031-10.208 9.006-9.153 17.863.855 7.169 8.968 15.465 14.967 21.335.293-.428.597-.851.898-1.272.754-1.05 1.606-2.238 1.798-2.912a2.552 2.552 0 012.452-1.854zm1339.508 17.502c.548.093 1.097.247 1.594.408.382-.78.803-1.593 1.236-2.43 4.653-9.097 8.171-17.076 4.398-21.835-.408.368-.854.742-1.351 1.059a2.552 2.552 0 01-2.6.067 2.57 2.57 0 01-1.314-2.249c.153-17.258-4.589-31.343-13.027-38.642-5.979-5.174-13.856-7.046-23.391-5.57-11.74 1.819-26.884 11.191-31.894 23.728-2.932 7.329-1.937 14.443 2.957 21.156-.624-13.06 3.952-25.246 12.034-31.587 4.933-3.882 13.563-7.535 26.59-2.881 17.783 6.352 26.464 23.818 25.087 50.51-.128 2.713-.23 5.446-.319 8.266zm-343.372-75.007c-.253 0-.509.007-.769.018-18.04.803-30.896 30.842-33.025 47.432-1.801 14.04 2.706 23.682 12.692 27.154 8.406 2.92 20.405.807 30.245-6.621a728.28 728.28 0 012.13-4.248c2.835-5.637 5.516-10.962 6.44-14.43 2.496-9.354 2.498-32.585-6.389-43.639-3.061-3.807-6.772-5.666-11.324-5.666zm607.214 62.49c1.835 10.65 5.634 22.328 12.734 28.048 3.9 3.145 8.388 4.115 13.69 2.973 2.856-.615 5.405-2.085 7.687-4.157 3.123-5.322 5.724-11.41 7.776-17.044-4.576 6.267-9.968 11.817-14.8 12.06-7.125.359-12.683.638-18.113-4.351-4.997-4.574-6.846-10.585-8.796-16.949a9.778 9.778 0 00-.178-.58zM166.59 167.3c2.038 12.673 9.693 21.614 21.27 24.702 11.497 3.064 24.2-.747 30.205-9.068 5.774-8.001 5.04-19.005-1.998-31.269-6.515 9.018-15.889 12.245-26.251 8.855-5.332-1.744-10.673-5.342-15.12-10.1a24.416 24.416 0 01-1.5 6.836c-1.403 3.726-3.727 7.044-6.605 10.044zm1262.59 1.305c2.117 11.755 6.26 22.598 16.61 30.049 5.966 4.295 11.027 5.695 15.475 4.285 8.58-2.713 13.997-15.621 17.987-26.808.063-1.763.114-3.524.165-5.276.115-3.906.243-7.947.434-11.796.867-16.885-2.205-38.476-21.721-45.449-8.567-3.062-16.087-2.34-21.722 2.091-7.304 5.732-11.179 17.433-9.904 29.815.204 1.926.382 3.875.573 5.836.421 4.43.842 8.9 1.466 13.282.268.38.434.836.46 1.332.038.81.101 1.695.178 2.639zm-274.61-4.962c-8.64 17.724-13.844 32.522-2.936 38.794 3.787 2.177 8.142 2.322 12.846 1.476l.022-2.097c.02-1.909.04-3.814.07-5.713-5.483-9.027-7.284-23.898-6.035-36.014a47.88 47.88 0 01-3.966 3.554zm-348.35 29.864a10.835 10.835 0 00-2.252 2.809c-1.295 2.33-1.554 4.913-.727 7.272.132.377.258.72.379 1.032 1.494-3.412 2.356-7.371 2.6-11.113zm12.505 6.186c2.71 2.125 3.278 5.74 3.25 9.107 1.43-1.173 2.261-2.856 2.589-4.395.462-2.16-.022-4.128-1.205-4.9-1.027-.668-2.643-.58-4.634.188zm-32.181 8.356c3.898.624 7.456 2.195 10.786 4.345.231-.13.458-.272.68-.423.885-.6 1.697-1.341 2.438-2.19-.805-1.275-1.445-2.866-2.02-4.506-1.314-3.752-.93-7.815 1.084-11.438a15.893 15.893 0 013.782-4.53 45.134 45.134 0 01-6.773-2.763c-3.438-1.75-6.674-4.145-9.59-7.009 2.364 6.215 3.058 13.117 1.907 20.113a42.407 42.407 0 01-2.294 8.401zm-170.759-4.367c-4.945 1.858-7.356 8.891-8.42 17.766 4.526-6.024 8.697-12.143 8.42-17.766zm802.204-2.873c-1.836 1.309-3.531 2.584-4.755 3.956-6.36 7.165-11.205 16.826-15.896 26.17-.599 1.184-1.185 2.346-1.759 3.489 9.93-3.492 20.625-4.662 30.198-2.717-7.725-9.012-12.645-18.83-7.788-30.898zm372.995 14.796a2.581 2.581 0 012.142 1.162c2.855 4.41 4.958 9.543 6.985 14.505 1.262 3.108 2.499 6.114 3.85 8.828.625-2.086 1.3-4.284 2.001-6.544 4.169-13.436 9.357-30.158 5.698-40.188a37.85 37.85 0 00-1.21-2.88c-.83-.968-1.658-1.91-2.474-2.803-2.893 6.986-7.84 13.235-12.658 19.309-2.332 2.949-4.538 5.735-6.437 8.515a75.453 75.453 0 00-1.517 2.318 51.371 51.371 0 012.052-1.684 2.552 2.552 0 011.568-.538zm-989.3-.003c3.833 3.156 7.41 6.924 10.935 10.638 6.19 6.519 12.04 12.68 18.67 15.082a54.577 54.577 0 00-2.516-2.88c-2.793-2.984-5.83-5.502-8.765-7.938-6.56-5.442-12.866-10.675-12.772-18.924-.724.575-1.534.937-2.475.967a18.54 18.54 0 01-3.077 3.055zm13.145-12.28c-5.932 11.338-.427 15.904 8.434 23.257 2.916 2.418 6.218 5.158 9.232 8.376a63.42 63.42 0 015.556 6.868c2.556-.822 4.543-2.93 7.027-5.562 2.261-2.398 4.798-5.088 8.232-7.033-9.839-12.812-17.674-27.99-19.187-43.962a21.35 21.35 0 01-1.283 1.046c-6.05 4.531-13.866 5.69-21.45 4.767a39.96 39.96 0 01-.644 7.313c7.945-5.726 12.756-4.88 15.397-3.159 2.983 1.944 4.32 5.963 3.407 10.238-1.102 5.16-5.013 8.998-9.964 9.778a2.546 2.546 0 01-2.937-2.742c.53-6.016.18-8.357-1.82-9.184zM456.056 219.32c-1.22 6.344.788 15.365 3.707 24.618.928-9.814.499-18.683-3.707-24.618zm622.754-16.646c13.974 2.63 17.868 14.301 21.66 25.658 1.529 4.58 3.11 9.316 5.348 13.727a24.518 24.518 0 003.582 5.22 113.2 113.2 0 01-2.951-9.06c-2.78-9.994-2.673-20.863-2.57-31.374.075-7.926.149-15.54-.907-22.696-5.055 9.116-14.782 14.199-24.162 18.525zm-954.276 33.155c7.073 2.808 13.621 9.107 19.017 16.937.195-1.142.402-2.27.622-3.39 3.575-18.201 7.735-35.143 19.218-42.45 5.941-3.778 13.388-4.594 22.137-2.419 25.9 6.436 42.105 1.55 50.991-15.378 1.586-3.02 1.627-8.09 1.666-12.994.022-2.62.042-5.18.29-7.513-13.356-8.879-23.014-22.589-20.96-38.188.71-5.392 2.671-10.831 4.567-16.09 1.8-5 3.664-10.169 4.323-15.044 1.7-12.582-.515-13.398-7.86-16.1-1.876-.69-4.002-1.472-6.37-2.552-9.882-4.506-17.802-5.46-24.207-2.91-6.656 2.648-12.008 9.15-16.365 19.876-2.988 7.358-5.048 14.409-6.41 21.453a2.549 2.549 0 013.825 1.924c.399 3.685 1.495 7.418 2.656 11.37.85 2.899 1.712 5.834 2.309 8.808 4.349 6.897 10.89 12.369 17.417 14.506 9.218 3.013 17.198-.555 22.471-10.057a2.547 2.547 0 012.135-1.31 2.544 2.544 0 012.226 1.148c13.746 20.942 8.386 34.34 3.968 40.463-7.313 10.134-21.975 14.662-35.655 11.013-11.288-3.011-19.585-11.041-23.347-22.172-2.18 25.387-14.911 41.026-36.188 58.94-.82.69-1.645 1.402-2.476 2.129zm156.29-2.38c-.397 5.614 1.189 11.53 2.853 17.745.57 2.129 1.149 4.287 1.646 6.457.718-10.32.061-18.634-2.92-22.702-.475-.65-.995-1.146-1.579-1.5zm-167.396 5.612c-8.183.042-15.417 3.528-21.564 10.405-4.499 5.034-8.126 11.664-10.86 18.999 8.838-6.853 17.386-15.039 25.43-22.744 2.38-2.28 4.709-4.51 6.994-6.66zm1088.916-6.992c-6.276 4.9-4.24 22.55-2.73 35.661.145 1.257.287 2.478.417 3.658 4.47-12.752 8.478-31.768 2.313-39.32zM64.22 279.267c-2.781.133-5.583 1.015-7.737 2.513-.416.288-.86.638-1.29 1.051 3.022-.88 6.033-2.09 9.027-3.564zm843.395 8.834a39.22 39.22 0 01.65 3.778c.023.209.048.417.068.625.16-.512.311-1.027.451-1.542-.395-.947-.789-1.9-1.169-2.861zm213.03-27.635c2.762 5.714 5.753 11.356 8.701 16.919 2.716 5.121 5.508 10.392 8.077 15.635 6.441-5.599 12.863-17.544 19.153-35.625-8.772 5.137-20.308 6.84-31.176 4.42a42.673 42.673 0 01-4.755-1.35zM600.55 294.152c.184.014.37.03.554.047.776-7.29 1.247-14.917 1.657-22.944.16-3.096-.126-8.194-.455-14.097-.306-5.46-.649-11.586-.746-17.764-.374.923-.661 1.83-.842 2.722-3.116 15.353-3.163 35.089-.168 52.036zm1110.828-2.362c.128 2.238.612 4.174 1.657 5.478a4.715 4.715 0 001.849 1.375c-.918-2.543-2.104-4.843-3.506-6.853zm-638.973-18.349c-1.496 5.606 2.41 11.671 5.898 17.091l.595.927c.509.793.538 1.803.075 2.624a19.406 19.406 0 01-4.865 5.705c5.807-1.075 12.266-.977 18.84-.29-2.467-3.07-4.49-6.636-6.478-10.139-3.879-6.837-7.563-13.33-14.065-15.918zm639.483 11.088c4.143 3.986 7.266 9.516 8.936 16.147 1.874-.224 3.71-.44 5.507-.637-6.08-13.674-10.16-20.273-12.875-23.254-.523 2.269-1.135 4.992-1.568 7.744zm-38.33 14.592c10.834 4.549 24.104 4.077 36.902 2.753a9.492 9.492 0 01-1.39-1.4c-2.804-3.473-3.173-8.602-2.612-13.884-2.792-2.119-5.992-3.442-9.446-3.808-9.038-.963-17.782 4.966-22.83 15.463l-.038.087h-.013c-.14.308-.344.573-.574.789zm-472.794-16.254l-.007.174c-.098 1.95-.224 3.614-.335 5.059-.584 7.67-.584 7.67 7.649 12.812 1.779 1.113 4.59 2.117 7.564 3.18 2.909 1.04 5.973 2.136 8.74 3.532.114-.18.229-.361.34-.542 11.13-17.74 10.708-43.762 5.35-61.682-2.735-9.152-13.125-38.604-31.978-33.47-10.952 2.985-16.662 12.764-22.71 23.12-3.42 5.856-6.932 11.874-11.523 16.614-8.294 26.071-16.81 41.58-26.023 47.406a2.548 2.548 0 01-3.666-1.064c-2.87-6.057-6.15-12.247-9.323-18.232-3.924-7.404-7.923-14.947-11.39-22.655-5.322-3.19-9.545-7.558-12.18-12.753-2.41-4.748-4.051-9.664-5.638-14.42-4.74-14.2-8.166-24.463-27.478-22.486a2.55 2.55 0 01-1.387-4.823c2.24-1.105 4.618-2.187 6.92-3.232 12.268-5.574 24.955-11.337 27.306-24.865a2.55 2.55 0 014.942-.334c3.255 10.26 3.146 21.66 3.04 32.687-.099 10.156-.2 20.659 2.384 29.96 1.56 5.61 3.663 11.167 6.072 16.663 2.742 1.463 5.792 2.59 9.075 3.32 11.04 2.46 22.794.16 30.674-5.995a28.915 28.915 0 002.184-1.896c4.055-13.129 4.806-26.62 5.042-39.855-5.348.831-10.545.512-15.316-2.232-13.162-7.567-9.144-23.28-2.647-37.957-9.14 4.671-19.352 6.094-27.975 3.098-12.326-4.284-18.185-16.173-16.075-32.62 2.259-17.602 15.682-50.891 37.857-51.878 6.548-.29 12.03 2.248 16.292 7.547 10.09 12.55 10.147 37.634 7.343 48.149-.359 1.344-.898 2.837-1.578 4.46a2.55 2.55 0 013.288 3.225c-3.817 11.094-3.028 32.8 3.672 43.116.277.425.42.923.413 1.43-.035 2.142-.058 4.29-.081 6.443l-.01.82c2.685-.773 5.449-1.73 8.257-2.702 5.391-1.866 10.865-3.76 16.123-4.413-5.365-2.101-11.123-4.848-14.48-12.647-3.23-7.507-2.68-19.448-2.196-29.985.226-4.877.437-9.482.254-13.112-2.05-40.59-10.21-53.59-16.694-57.35-3.822-2.215-8.29-1.968-13.656.758a2.552 2.552 0 01-3.43-1.123c-2.421-4.789-6.157-7.552-11.103-8.214-9.445-1.266-21.804 5.415-28.291 12.604-15.377 17.04-19.043 37.854-22.926 59.889-3.594 20.393-7.308 41.482-21.29 58.72-13.01 16.047-12.141 32.815-11.04 54.045l.193 3.775c.08 1.621.115 3.625.153 5.947.136 8.316.368 22.23 3.64 26.661 1.803 2.438 5.248 3.741 9.22 3.499 3.665-.228 8.416-1.993 11.404-6.195-4.158-6.466-9.536-15.174-5.078-23.733a2.545 2.545 0 012.868-1.298c9.98 2.45 14.762 10.876 19.386 19.024 3.184 5.612 6.21 10.945 10.702 13.846 4.916.813 9.76 1.81 14.312 2.748 1.212.25 2.409.495 3.58.734 13.604.344 30.638-1.519 38.736-2.405l.393-.043c16.584-1.812 29.276-5.978 37.062-20.172-.003-3.371-.558-8.18-1.142-13.235-1.9-16.492-4.266-37.015 7.25-41.779a2.55 2.55 0 012.603.393c13.373 11.098 2.066 44.786-3.567 55.801a3.503 3.503 0 01-.07.138zm-53.35 25.135c5.043.42 10.343.704 15.678.72h.087c5.169 0 9.962-1.439 14.598-2.831 5.23-1.57 10.634-3.191 16.644-2.832 4.097.249 8.181 1.482 12.055 2.813a17.385 17.385 0 01-1.107-.634c-8.728-5.452-10.39-7.529-10.236-13.934-9.468 11.008-22.736 14.043-35.952 15.487l-.391.042c-3.031.333-6.964.761-11.376 1.17zm-543.525 2.454l-.18.884c2.002-.591 3.82-1.206 5.31-2.03-1.423.062-3.057.522-5.13 1.146zm237.013-64.28c3.158 5.173 5.749 10.584 8.29 15.892 2.184 4.565 4.442 9.287 7.009 13.722 7.596 13.123 23.57 35.596 35.257 36.583 2.871.235 5.302-.906 7.463-3.509 3.618-4.359 5.059-9.87 4.28-16.38-1.6-13.37-12.576-28.816-22.264-36.023-7.722-5.743-16.51-13.709-24.388-23.182-3.12 1.56-5.481 4.06-7.763 6.48-2.27 2.41-4.7 4.987-7.884 6.416zm-694.146 22.826c-1.022 14.736-.137 30.198 2.616 44.196 4.69-7.54 5.167-19.706 1.125-33.783a85.224 85.224 0 00-3.741-10.413zm1670.832 38.768c.165 1.826 1.682 3.533 2.957 4.666.395.349.816.69 1.262 1.02 2.677-6.33 6.106-12.485 9.764-18.478 1.007-1.64 2.741-3.872 4.92-6.696 5.966-7.709 17.082-22.06 13.436-27.438-1.083-1.602-1.823-1.545-2.077-1.52-.855.074-5.52 1.362-13.742 19.602-1.007 2.224-1.925 4.623-2.804 6.945-1.505 3.944-3.06 8.021-5.201 11.716-.485.839-1.492 1.946-3.378 3.993-1.504 1.631-4.564 4.956-5.137 6.19zm-608.171 1.013c1.045.338 2.063.744 3.054 1.225 2.322 1.128 4.808 2.745 7.166 4.696.645-.922 1.284-1.848 1.916-2.78-2.378-1.15-5.077-2.115-7.633-3.03-1.884-.672-3.705-1.324-5.342-2.026.324.321.56.728.677 1.182.06.244.114.49.162.733zM74.808 302.282c-.052 4.612.242 9.01.89 12.982.659-3.187.354-7.568-.89-12.982zm1466.777-18.327c-.229 0-.356.085-.458.146-3.672 2.36-5.087 16.736-5.38 31.248 4.487-11.51 11.065-28.561 6.947-31-.522-.304-.866-.394-1.109-.394zM461.833 265.132c-2.08 12.749-3.86 25.565-.517 34.022 2.377 6.009 5.317 12.412 8.844 19.25-.007-12.832-1.197-26.387-3.522-38.012-.8-3.998-2.67-9.396-4.805-15.26zm452.313 25.43c1.642 3.918 3.28 7.976 4.019 12.4 1.006 6.017.26 12.058-1.094 18.026 10.867-10.289 11.298-24.338 9.548-34.757-3.89-23.147-22.234-47.294-40.06-52.729-7.385-2.253-17.086-3.68-24.858-1.986 7.266 8.464 15.246 15.622 22.279 20.853 7.784 5.791 16.487 16.472 21.145 27.886-.631-2.921-.9-5.997-.537-9.312a2.55 2.55 0 013.599-2.04l.672.315c.936.44 1.674.787 2.671 1.065a2.548 2.548 0 011.739 1.665c2.219 6.8 2.164 12.912.877 18.614zm309.245 27.668c1.772 1.895 3.341 3.963 4.542 6.114.936-2.095 1.068-4.164.41-6.241-.417-1.32-1.29-2.463-2.463-3.474-.82 1.212-1.65 2.413-2.489 3.601zm-324.844 7.534c3.327 3.138 6.85 3.21 12 .148 2.133-7.657 3.781-14.97 2.59-22.11-.318-1.902-.833-3.743-1.464-5.574-1.671 4.082-3.776 7.998-5.855 11.87-2.701 5.024-5.484 10.206-7.271 15.666zm-129.09-97.023c3.701 16.575 28.084 35.844 38.696 44.23 6.74 5.327 13.156 11.148 19.362 16.78 8.409 7.63 17.106 15.522 26.588 22.135 13.263 9.25 28.41 18.91 43.033 19.246-1.136-.755-2.267-1.739-3.377-2.996a2.548 2.548 0 01-.538-2.404c.915-3.135 2.125-6.127 3.475-9.023-1.767.665-3.656.917-5.666.745-16.616-1.401-35.604-32.825-39.241-39.11-2.668-4.607-4.971-9.42-7.198-14.074-2.84-5.934-5.581-11.661-8.992-16.975-1.743-.007-3.675-.342-5.847-1.107-7.853-2.77-14.45-9.718-20.83-16.437-4.07-4.288-8.026-8.455-12.196-11.578-3.499 1.058-8.176 1.075-14.074-1.752a2.875 2.875 0 01-.317-.181c-3.364 5.124-7.776 9.46-12.878 12.501zm592.66 53.342c-7.201 12.116-.114 26.222 6.744 39.886 1.632 3.242 3.212 6.391 4.564 9.442 2.332-20.634 1.771-40.742-11.307-49.328zm-542.126 36.645c-4.331 3.016-8.315 8.077-11.073 14.096 4.705-1.243 8.064-4.158 9.824-8.577.676-1.696 1.086-3.562 1.25-5.52zm400.372 3.732c-1.158 1.596-2.318 3.172-3.466 4.735-3.004 4.081-5.934 8.067-8.685 12.128 6.17-2.736 11.414-5.814 15.137-9.155.417-.375.811-.747 1.18-1.12-.86-2.271-2.352-4.524-4.166-6.588zm4.47 13.113c-2.608 2.046-5.715 3.986-9.2 5.801 3.78-.557 7.008-1.664 8.7-4.714a7.79 7.79 0 00.5-1.087zm499.496-12.208c-2.345 2.453-4.168 5.078-5.162 7.798-1.377 3.765-1.007 7.33 1.147 10.81 1.428-4.834 2.41-10.043 3.365-15.12.217-1.159.434-2.323.65-3.488zm-640.607-19.293c-6.542 0-12.52.995-17.162 3.726-4.822 2.837-6.87 6.803-6.082 11.784 1.446 9.165 12.082 19.58 22.314 21.853 15.864 3.527 31.701-2.942 47.018-9.195 4.123-1.682 8.385-3.422 12.563-4.93 4.36-1.571 9.547-3.944 15.039-6.456 10.992-5.027 23.651-10.817 35.305-12.746h-.022c-4.569 0-8.895 1.3-13.452 2.668-4.988 1.498-10.146 3.047-16.06 3.047h-.106c-12.648-.041-25.026-1.533-34.396-2.827-2.976-.412-6.33-1.05-9.893-1.768-7.258-.236-13.69-1.097-17.752-3.03-.418-.2-.823-.412-1.221-.636-5.46-.875-10.951-1.49-16.093-1.49zm653.1 10.003c.828 5.225.484 10.535.152 15.725-.37 5.778-.726 11.286.37 16.65 6.922-2.293 13.895-6.468 20.689-10.529 4.385-2.627 8.936-5.344 13.41-7.519 14.2-6.909 25.405-9.238 39.797-10.438-8.796-9.866-27.037-13.362-55.527-10.682-4.73.444-12.008 2.966-18.892 6.793zm-164.07 30.066a18.92 18.92 0 00-.88 2.48c.358-.755.65-1.579.88-2.48zm-658.528-12.52c-.346 1.206-.691 2.416-1.027 3.63a195.619 195.619 0 00-3.272 13.621c1.601-1.72 3.133-3.536 4.639-5.32 3.253-3.855 6.616-7.84 10.574-10.753 5.534-4.074 10.998-5.84 16.28-7.547 1.788-.578 3.614-1.168 5.46-1.853-.767-.94-1.689-1.599-2.778-1.991-5.945-2.133-16.683 3.414-25.31 7.877-1.579.816-3.102 1.604-4.566 2.335zm206.716 15.49c.474.828 1.49 1.835 3.67 2.797 13.26 5.842 49.335 1.96 75.453-7.35 3.955-6.461 8.387-12.487 12.725-18.385 1.289-1.75 2.59-3.52 3.886-5.311-2.12-1.785-4.373-3.267-6.43-4.267-.38-.184-.767-.355-1.159-.513a12.426 12.426 0 01-1.262 2.697c-7.633 12.37-39.384 19.33-64.896 24.923-9.262 2.03-17.438 3.822-21.987 5.41zm424.113 6.683c5.226.737 10.848.737 14.366.073 2.587-.486 4.704-1.073 6.45-1.814.127-2.068.408-4.057.867-5.944-3.213.748-6.54 1.082-9.79 1.407-4.627.464-9.038.904-12.811 2.445.319 1.172.625 2.455.918 3.833zm239.609-25.457c.114.393.14.814.063 1.23-1.708 8.456-2.307 17.615-1.81 27.122.383-.765.765-1.526 1.148-2.286 5.761-11.485 12.007-22.959 20.09-30.582-6.82.876-12.977 2.212-19.491 4.516zm-43.838 22.295c3.722 1.94 7.266 4.257 10.746 6.525 3.71 2.423 7.279 4.757 10.95 6.617-1.747-5.096-1.887-10.44-.383-15.75 1.352-4.72 3.99-9.177 7.56-12.98-2.958 1.611-5.94 3.396-9.051 5.254-6.437 3.854-13.053 7.806-19.822 10.334zm83.57-29.702c-4.359 12.822-4.435 25.193 2.512 38.386 2.001 3.778 3.62 7.438 4.895 11.044a26.295 26.295 0 003.658-1.186c19.758-8.013 29.523-54.021 32.735-69.14 3.786-17.892 4.462-45.924-3.034-65.188-5.15-13.215-14.71-17.618-25.787-22.715-6.221-2.868-12.671-5.832-18.535-10.614a41.607 41.607 0 01-2.944-2.655c.764 10.998-3.506 24.737-7.062 36.206-1.377 4.444-2.677 8.64-3.506 12.104a2.54 2.54 0 01-1.988 1.908 2.544 2.544 0 01-2.563-1.014c-3.046-4.23-5.251-9.636-7.38-14.865-1.555-3.808-3.161-7.719-5.074-11.188-6.118 5.366-11.498 12.522-16.329 19.259a66.958 66.958 0 01-3.11 4.346 2.559 2.559 0 01-3.544.472 2.543 2.543 0 01-.535-3.527l1.185-1.663c.587-.827 1.186-1.663 1.798-2.506 2.575-3.914 4.83-8.15 7.049-12.28 2.422-4.534 4.92-9.224 7.84-13.482 2-2.93 4.257-5.784 6.653-8.805 5.393-6.809 10.963-13.848 13.117-21.493a2.57 2.57 0 01.536-.997c-3.213-4.849-6.4-9.835-6.756-16.265-2.562 7.32-6.323 15.005-11.766 20.193-3.9 6.438-8.617 11.9-14.162 14.57-4.194 2.024-8.54 2.357-12.951.998-.701 9.649 2.383 20.377 5.137 29.955.765 2.668 1.491 5.189 2.129 7.665a2.548 2.548 0 01-1.211 2.866 2.553 2.553 0 01-3.085-.451c-10.376-10.732-16.903-6.007-27.572 3.266a2.542 2.542 0 01-3.009.244 2.542 2.542 0 01-1.134-2.805c2.41-9.35 6.552-18.216 10.886-26.8-4.959 2.997-10.478 5.922-15.883 8.728-9.662 5.023-11.447 8.25-16.75 17.822-.65 1.18-1.364 2.447-2.129 3.813-4.27 7.564-9.28 15.126-14.124 22.439-2.74 4.133-5.52 8.327-8.183 12.555 4.104-2.034 8.566-2.9 13.13-2.42a23.666 23.666 0 019.776 3.293c.408-2.113.88-4.164 1.326-6.054.255-1.127.497-2.17.701-3.093a2.54 2.54 0 013.442-1.84c6.055 2.436 12.773 15.464 18.891 29.5.638-.053 1.288-.103 1.925-.147a2.528 2.528 0 012.333 1.195c.497.8.523 1.81.05 2.625a33.42 33.42 0 00-1.503 2.915c.038.107.089.213.127.319l.255.595c.255.635.497 1.273.714 1.913 7.24-3.842 14.685-6.26 19.643-6.726 31.639-2.976 51.703 1.604 61.161 13.99.179-.058.345-.114.523-.169-2.88-2.635-4.372-5.453-4.436-8.382-.064-2.165 1.938-4.563 6.501-9.519 1.033-1.122 2.448-2.657 2.715-3.098 1.938-3.336 3.417-7.218 4.844-10.972.905-2.391 1.849-4.864 2.92-7.227 6.64-14.73 12.517-22.118 17.96-22.584 1.823-.159 4.449.367 6.73 3.742 5.711 8.436-5.455 22.877-13.626 33.42-2.001 2.592-3.735 4.832-4.602 6.235-3.62 5.936-6.769 11.65-9.19 17.244 5.557.358 11.42 2.322 17.552 5.876a2.549 2.549 0 01-1.045 4.745c-4.614.437-12.34-1.379-18.84-4.576zm-31.255 45.134c5.506 0 10.924 1.298 16.278 2.578 5.863 1.405 11.523 2.754 17.247 2.464-1.148-3.06-2.563-6.181-4.27-9.412-7.61-14.456-7.33-28.091-3.264-41.004-.153.04-.293.083-.446.127-.077.023-.153.048-.242.072-.039.16-.102.315-.179.464a2.571 2.571 0 01-2.09 1.358c-.778.052-1.543.106-2.295.16-10.554 5.921-18.254 19.85-25.252 33.818a3576.84 3576.84 0 00-4.844 9.674l.153 1.108c3.098-1.011 6.157-1.407 9.204-1.407zm-13.767 9.32c-.23.454-.447.91-.663 1.366a38.81 38.81 0 001.542-.32c-.102-.482-.191-.964-.28-1.445-.204.13-.408.262-.6.398zM778.838 351.681c2.242 8.473 5.14 16.594 11.014 22.114 15.038 14.128 24.747 6.87 37.04-2.323 5.665-4.237 11.525-8.617 18.206-10.762 9.71-3.12 18.687-2.085 27.367-1.082 11.234 1.3 21.028 2.428 31.254-5.103 1.045-6.514 2.515-13.158 4.423-20.122-1.93.76-3.702 1.299-5.3 1.513-1.642.22-3.29.325-4.935.325-16.318.002-32.568-10.302-46.72-20.173-9.75-6.8-18.568-14.802-27.099-22.542-6.141-5.573-12.492-11.336-19.096-16.554a412.562 412.562 0 01-8.066-6.527c6.14 8.08 12.264 15.824 19.305 23.312 4.401 4.682 7.33 10.954 8.442 17.293 4.543-1.079 9.242-.49 13.753 1.745 4.74 2.35 7.696 5.677 8.787 9.885 2.538 9.796-5.648 21.678-12.226 31.226l-.831 1.209c-7.142 10.395-16.98 14.7-28.466 12.45-9.425-1.847-18.881-7.96-26.852-15.884zm353.611 17.425c-2.605 3.562-2.955 10.322-2.387 17.974.017-.068.035-.139.054-.207 1.627-6.206 3.432-13.092 2.333-17.767zm-668.356 11.561c4.572 3.356 8.681 5.637 12.123 6.703 5.043-8.446 10.752-16.287 18.185-19.435-7.679-11.245-14.325-21.65-19.989-31.309-.376 3.809-.88 7.408-1.512 10.708-2.05 10.708-5.318 21.713-8.807 33.333zm-2.135 7.127c2.39.635 4.816 1.34 7.199 2.107-2.2-1.145-4.421-2.534-6.614-4.07l-.585 1.963zm140.446-70.776c-2.528 9.963-6.356 19.83-12.31 29.22-.991 1.566-2.59 3.801-4.614 6.632-7.122 9.96-23.8 33.285-19.627 40.29 1.4 2.352 5.853 2.325 9.336 1.89 23.3-2.918 45.222-35.393 53.568-55.179 1.667-3.955 3.357-7.739 4.991-11.4 7.465-16.72 13.913-31.16 12.96-49.9-.339-6.679-.622-13.564-.896-20.223-.726-17.713-1.48-36.029-3.378-53.328-2.765-25.195-6.7-34.46-27.443-47.311-4.734-2.934-9.606-5.87-14.318-8.71-11.646-7.02-23.655-14.26-34.675-22.103-.934 2.953-2.242 5.859-3.852 8.638-1.114 13.386-4.63 26.191-21.007 34.236-14.997 7.369-32.605 6.242-43.819-2.798-7.671-6.185-11.396-15.013-10.855-25.374-6.59 5.039-15.386 7.29-23.965 9.486-9.795 2.507-19.046 4.874-24.257 11.034-4.66 5.508-6.343 14.455-7.97 23.105-.787 4.186-1.53 8.139-2.6 11.737a761.58 761.58 0 01-2.065 6.812c-3.23 10.537-6.57 21.433-7.686 32.422-4.34 42.7-4.443 96.477 33.618 133.65 2.843 2.775 5.602 5.268 8.241 7.452 3.234-10.791 6.22-21.045 8.112-30.921 1.002-5.234 1.669-11.248 2.007-17.659-5.563-10.045-9.984-19.24-13.325-27.688-4.116-10.41-1.667-25.257.702-39.615.333-2.018.667-4.045.985-6.062-5.653-15.72-10.686-32.251-5.469-42.087a2.55 2.55 0 013.904-.746c10.573 9 9.399 25.412 6.802 42.325.61 1.683 1.219 3.342 1.813 4.96 2.72 7.406 5.289 14.402 6.326 19.589 2.94 14.7 4.11 32.434 3.417 48.104 6.776 12.116 15.236 25.511 25.495 40.387a2.549 2.549 0 01-1.593 3.947c-7.762 1.568-13.87 10.427-19.315 19.766a2.558 2.558 0 01-2.382 1.26c1.61.672 3.14 1.372 4.558 2.099 2.52-1.957 4.895-4.643 7.405-7.48 4.231-4.783 8.607-9.729 14.484-12.105 12.742-5.157 26.943 3.08 38.513 11.2-2.559-3.628-4.26-7.929-3.285-13.596 1.352-7.854 13.055-17.207 23.38-25.46 4.7-3.757 9.14-7.305 11.307-9.762 1.988-2.254 3.794-5.025 5.705-7.957 2.955-4.535 6.011-9.225 10.134-12.538 2.57-2.066 5.64-3.318 8.655-4.28.085-.38.17-.76.251-1.138a23.36 23.36 0 01-1.106.15 2.549 2.549 0 01-2.692-3.35c1.09-3.233 3.395-5.435 5.655-7.316.097-.683.192-1.37.28-2.058-.67-.061-1.294-.084-1.81-.032a2.55 2.55 0 01-2.768-2.05c-3.494-18.002-3.572-39.492-.205-56.083.822-4.047 3.118-7.996 5.957-12.022.707-16.116 4.271-30.235 16.02-30.954a2.567 2.567 0 012.603 1.836c2.703 9.33-3.99 18.144-10.461 26.669-1.075 1.415-2.134 2.81-3.131 4.182-.27 8.931.264 18.477.687 26.062.338 6.048.631 11.272.459 14.64-.385 7.496-.784 15.307-1.624 23.237.447.002.86-.019 1.207-.093.975-.2 1.973.176 2.567.97a2.55 2.55 0 01.2 2.737c-1.256 2.332-3.214 4.021-5.168 5.614-.048.294-.094.59-.14.884 3.374-.87 7.009-1.24 10.585 1.263a2.55 2.55 0 01.66 3.505c-2.877 4.31-8.059 5.78-13.07 7.2-.223.062-.445.124-.668.188zm771.951 42.785c-1.236 7.88-2.243 15.133-2.243 20.636 0 8.2 1.912 14.772 5.838 19.94-2.142-8.918-2.55-18.844-2.958-28.456-.165-4.013-.344-8.08-.637-12.12zm-913.842 32.898c-1.308 4.488-2.569 8.986-3.719 13.49 1.655-.603 3.297-1.175 4.912-1.74 5.323-1.857 10.428-3.638 15.113-6.239-4.94-2.199-10.896-4.078-16.306-5.511zm-1.762 18.206c4.875 1.216 11.151.676 15.94-1.693 2.754-1.364 5.956-3.778 6.772-7.817-5.65 3.535-11.716 5.65-18.078 7.87-1.527.534-3.078 1.073-4.634 1.64zm72.711-12.327c1.953 1.938 4.75 3.65 7.776 5.5 4.188 2.563 8.765 5.362 11.742 9.426.525-.83 1.01-1.677 1.445-2.541 2.235-4.436 2.216-7.736.955-10.643-6.568 6.947-14.458 2.476-20.322-.845-.538-.305-1.07-.605-1.596-.897zm1209.451-42.088c1.364 2.93 2.856 5.644 4.322 8.307 3.888 7.049 7.903 14.338 8.91 24.85.306 3.217.828 6.875 1.377 10.75.65 4.53 1.325 9.256 1.784 13.961 3.773-10.895 8.26-21.504 12.99-31.743a2.543 2.543 0 01-2.014-1.082 2.597 2.597 0 01-.485-2.142c.166-.715.625-1.3 1.224-1.646 2.129-2.332 4.232-4.24 6.335-5.784 1.058-2.188 2.129-4.354 3.187-6.501-1.262-10.948-1.185-21.608.255-31.513-5.774 3.92-10.032 9.454-11.753 15.473-1.746 6.11-.752 12.306 2.868 17.918a2.558 2.558 0 01-.115 2.936 2.553 2.553 0 01-2.804.873c-6.565-2.115-12.492-5.982-18.216-9.722-2.664-1.74-5.252-3.433-7.865-4.935zm-336.334 57.176c15.832 2.503 34.48.699 48.58-.666l1.771-.172c20.447-1.962 45.89-4.405 64.195-15.786 16.33-10.15 15.743-24.092 13.69-41.591-2.167-1.199-3.875-2.72-4.856-4.626-2.41-4.682-.587-12.581 2.766-22.16-.485-17.543.09-44.003 7.648-48.858 1.198-.765 3.671-1.765 6.91.149 7.902 4.668 1.962 19.933-4.921 37.61-1.504 3.874-3.136 8.06-4.564 12.098.153 5.88.46 10.992.803 14.3.268 2.487.561 4.936.854 7.343l.077.715c.65.238 1.338.457 2.052.658a41.686 41.686 0 00-.943-3.287 2.56 2.56 0 011.198-3.033c5.048-2.767 10.924-3.353 16.597-3.922 4.882-.487 9.484-.948 13.436-2.69a2.545 2.545 0 012.88.585 2.6 2.6 0 01.536.837c.216-1.86.306-3.978.306-6.4.025-15.747-4.577-36.06-13.704-60.377l-1.172-3.141c-6.272-16.894-12.187-32.85-30.237-36.104l-1.568-.282c-9.675-1.738-19.108-3.431-26.386-7.55.076 1.133.153 2.259.216 3.373.345 5.723.676 11.13 1.607 14.908a2.538 2.538 0 01-1.377 2.91 2.541 2.541 0 01-3.123-.756c-6.437-8.456-15.182-12.694-23.417-11.332-3.454.57-6.641 2.095-9.42 4.44-.242.36-.472.722-.714 1.082-2.817 4.245-5.71 8.635-8.324 13.235a2.557 2.557 0 01-3.263 1.068 2.542 2.542 0 01-1.377-3.136c2.193-6.57 5.584-11.906 9.828-15.68 5.533-8.381 10.657-16.467 13.704-26.394 1.848-6.08 2.893-12.674 3.518-19.467-3.812 7.573-8.745 14.072-15.577 16.232-6.017 1.905-12.747.218-20-5.01-6.196-4.467-10.415-9.995-13.347-16.085-.306 1.806-.79 3.462-1.53 4.868-.242.464-.522.91-.815 1.34.37.83.267 1.795-.268 2.532-11.868 16.39-2.932 27.736 9.458 39.985 5.647 3.012 10.44 7.564 13.818 13.899a2.555 2.555 0 01-4.13 2.931c-2.88-3.13-6.067-6.206-9.14-9.181-1.223-1.186-2.46-2.374-3.67-3.57-13.067-6.506-30.607-3.176-42.003 2.229a2.556 2.556 0 01-2.944-.551c-.752-.802-.918-2-.383-2.97 1.645-3.029 3.238-6.207 4.92-9.572 4.845-9.638 9.842-19.603 16.649-27.268.102-.106.19-.212.293-.315-6.323 3.75-12.862 9.23-18.955 14.334-5.724 4.802-11.141 9.337-15.896 12.044-3.123 1.776-6.82 3.273-10.746 4.856-5.902 2.38-11.995 4.843-15.64 8.187-4.233 3.884-7.624 13.5-10.097 20.521-.637 1.828-1.236 3.52-1.797 4.961-9.955 25.944-16.214 47.438-18.573 63.885-1.185 8.177-.229 10.327 6.361 12.476.166-2.93.332-5.911.497-8.954 1.709-32.614 11.792-64.996 29.944-96.251a2.553 2.553 0 012.753-1.207 2.556 2.556 0 011.989 2.261c1.007 11.22 10.745 22.456 20.166 33.321 5.761 6.636 11.192 12.904 14.825 19.245 11.332 19.83 16.545 46.943 13.958 72.523-.46 4.466-1.275 9.302-2.142 14.422-2.04 12.133-4.321 25.605-1.784 35.98zm-833.084-2.706c.452 1.338 1.605 2.77 4.441 3.8 4.586 1.665 11.326 1.415 17.167.247a16.842 16.842 0 00-1.757-1.7c-4.692-3.907-11.2-4.683-19.851-2.347zm820.617 10.872c3.684 1.14 7.584 1.987 11.6 2.614a35.807 35.807 0 01-1.351-2.28 28.367 28.367 0 01-1.772-4.053c-3.633-.72-7.1-1.682-10.364-2.939.893 2.077 1.594 4.268 1.887 6.658zm128.466-12.606a2.558 2.558 0 012.524 2.229c.637 5.036 3.238 12.407 6.833 19.692.28-.215.548-.436.815-.661 13.461-11.442 13.818-50.572 10.007-72.243a39.15 39.15 0 01-2.575-.64c1.823 16.928 1.606 32.604-16.367 43.772-19.325 12.01-45.419 14.517-66.388 16.531l-1.772.171c-13.614 1.315-31.307 3.022-47.152.996.115.23.23.454.357.677a24.655 24.655 0 004.105 5.593c9.88.939 20.217.885 29.969.837 2.077-.012 4.13-.02 6.118-.02 18.93 0 34.227-4.936 50.415-10.158 7.177-2.32 14.609-4.714 22.486-6.698a2.48 2.48 0 01.625-.078zm-159.416-60.675a2.553 2.553 0 012.486 3.117c-1.059 4.61-2.359 9.083-3.62 13.41-3.685 12.692-7.177 24.68-4.31 38.995 1.3 6.529 3.404 12.368 5.444 18.017 1.491 4.149 2.957 8.21 4.092 12.417 3.53-5.46 6.781-11.042 10.134-16.807l.471-.796a2.514 2.514 0 011.62-1.198 2.54 2.54 0 011.975.348 45.257 45.257 0 007.024 3.722c-.829-2.808-2.27-5.436-3.774-8.153a2.598 2.598 0 01-.14-.27 33.589 33.589 0 01-4.729-3.59c-7.19-6.53-10.835-15.725-10.822-27.329 0-7.216 1.568-16.897 3.225-27.147.56-3.47 1.147-7.045 1.682-10.668-.14-.587-.28-1.17-.433-1.75-1.339-4.996-4.181-10.639-7.177-16.613-7.546-15.026-16.112-32.056-5.035-47.104a2.557 2.557 0 013.238-.748c20.332 10.601 18.522 39.465 14.595 66.008 2.142 9.488 2.575 19.543 2.983 29.295.421 10.211.829 19.856 3.072 28.54.676 2.604 1.874 5.005 3.213 7.471 3.76 2.193 8.081 3.774 12.772 4.884-2-10.957.204-23.962 2.193-35.766.854-5.035 1.644-9.79 2.09-14.09 2.486-24.561-2.485-50.534-13.32-69.475-3.366-5.906-8.643-11.992-14.239-18.434-8.145-9.403-16.533-19.07-19.937-29.329-15.679 28.733-24.41 58.35-25.978 88.13-.179 3.438-.37 6.797-.561 10.09v.03c.688.183 1.427.375 2.192.575l1.836.48c8.12 2.132 20.395 5.353 27.164 3.803.191-.044.383-.065.574-.065zm344.403 2.136c.829 0 1.62.403 2.104 1.112 8.706 12.745 8.63 39.308 6.45 54.055a271.17 271.17 0 01-.574 3.782c-2.639 17.313-3.123 20.433 15.794 26.378 6.144 1.934 13.206 3.311 20.74 4.091 0-.066.012-.131.025-.197a198.74 198.74 0 012.346-9.792c.88-9.025-.663-19.825-1.976-28.999-.561-3.933-1.084-7.648-1.402-10.984-.906-9.46-4.5-15.977-8.299-22.874-2.384-4.33-4.844-8.79-6.781-14.175a37.959 37.959 0 00-1.428-.526 2.554 2.554 0 01-.14-4.769c-1.326-6.165-.93-12.33-.536-18.32.268-4.313.548-8.484.166-12.48-.459.315-.93.637-1.39.963-.726 3.17-1.35 6.47-1.975 9.84-1.288 6.855-2.626 13.941-5.06 20.324a2.575 2.575 0 01-1.862 1.586 2.56 2.56 0 01-2.345-.715c-7.343-7.524-6.795-14.803-5.048-19.584 2.001-5.428 6.424-10.35 11.778-14.471.765-3.045 1.67-6.02 2.792-8.843-.166-.388-.319-.772-.485-1.152-2.702.28-5.506.617-8.4.965-17.617 2.12-37.426 4.506-52.71-4.146-3.518 22.173-.599 39.636 7.993 47.132 6.437 5.624 16.342 6.273 29.42 1.93.268-.088.536-.13.803-.13zm-286.71 80.293c9.357 4.711 21.62 5.859 32.914 6.915 1.236.114 2.473.229 3.684.349 16.1 1.57 51.766 5.045 70.173-4.394-3.403-6.899-5.94-13.808-7.075-18.914-6.756 1.8-13.231 3.891-19.528 5.918-16.572 5.351-32.238 10.405-51.97 10.405-1.99 0-4.016.01-6.094.02-6.973.04-14.519.075-22.103-.299zm336.45 9.57c21.963 1.446 46.808-2.013 64.055-11.262.956-3.586 2.396-7.623 4.36-12.368 6.513-15.78 8.068-28.034 4.563-40.818-6.948.632-13.576-.952-20.052-2.503-8.298-1.986-15.857-3.798-23.506-.988.294 1.703.625 3.413.995 5.124a2.56 2.56 0 01-1.734 2.96c-2.384.748-5.15 1.295-7.903 1.59-7.253 15.48-14.035 31.817-18.56 48.624-.37 3.435-1.058 6.685-2.218 9.64zm68.414-7.875c-1.007 4.599-1.007 8.35-.05 12.274a133.65 133.65 0 003.275-1.766c1.402-4.219 1.237-8.801.612-12.898a60.633 60.633 0 01-3.837 2.39zm-1322.075-9.07a2.55 2.55 0 012.506 3.026c-.565 2.966-2.595 6.008-4.744 9.229-2.082 3.116-4.672 6.996-4.122 8.894.175.602.816 1.154 1.906 1.637 1.69.747 5.622-.77 9.091-2.113 4.55-1.758 9.642-3.73 14.25-2.932 2.502-2.42 5.317-4.728 8.299-7.075-7.687-1.728-12.682-5.277-18.232-9.223-3.303-2.346-6.717-4.774-11.121-7.147a76.111 76.111 0 01-3.968-2.293c-.48 1.411-1.284 3.417-2.794 5.984l-.633 1.07c-2.543 4.302-5.597 9.468-6.828 14.315 3.268-.931 5.343-3.465 7.666-6.301 2.14-2.613 4.352-5.315 7.66-6.838a2.56 2.56 0 011.064-.232zm1030.674 12.117c3.875 6.98 8.49 13.394 12.939 16.983 9.254-13.664 20.778-31.444 24.372-48.66 1.632-7.782 0-17.978-1.58-27.839-1.007-6.306-2.04-12.719-2.244-18.711-1.619.54-3.416 1-5.443 1.38-3.046.576-8.617.822-14.353.2 3.594 23 2.944 62.632-11.957 75.298-.548.467-1.135.918-1.734 1.349zm-203.228-86.77c-1.657 29.48-2.218 53.583 11.14 82.713 2.372 5.162 6.68 14.557 11.945 21.346 1.185-2.04 2.792-4.223 4.806-6.801a154.266 154.266 0 004.36-5.893c-1.072-5.693-2.996-11.013-4.972-16.496-2.103-5.824-4.27-11.845-5.66-18.749-3.098-15.54.727-28.696 4.423-41.42.905-3.122 1.836-6.32 2.677-9.564-7.776.353-17.948-2.31-25.685-4.341l-1.823-.479-1.211-.316zm26.68 108.092c1.733 1.635 3.543 2.88 5.379 3.535a88.5 88.5 0 01.523-4.025c.459-3.075.611-5.976.51-8.754a60.282 60.282 0 01-1.186 1.548c-2.473 3.166-4.194 5.509-5.226 7.696zm10.962-15.553c.727 4.85.854 10.023-.025 15.828a104.338 104.338 0 00-.446 3.439c2.766-.802 5.596-3.051 8.451-6.726 4.602-5.898 11.778-21.496 12.39-28.236.013-.102.026-.204.026-.305-2.868-1.055-5.609-2.301-8.171-3.77-3.965 6.787-7.814 13.329-12.225 19.77zm-292.95-81.051c-.437.637-.855 1.33-1.32 2.1a64.78 64.78 0 01-1.86 2.945c-12.315 18.153-18.346 45.626-19.766 63.635-1.576 19.993 17.831 24.592 36.599 29.04 1.816.43 3.606.855 5.345 1.288 1.707.424 3.26.853 4.697 1.249 7.253 2.003 10.653 2.94 16.28-1.292-16.632-8.661-34.638-19.62-41.326-39.235-4.938-14.483-2.708-29.85-.553-44.712.72-4.96 1.457-10.038 1.903-15.018zm61.596 102.618a117.086 117.086 0 0017.567 4.214c-10.399-4.7-17.491-14.34-21.644-24.88-2.218 6.424-5.106 11.678-8.638 15.71a118.56 118.56 0 006.391 2.702c.415-.356.833-.708 1.252-1.057a2.55 2.55 0 013.944.893c.384.836.76 1.64 1.128 2.418zM110.1 453.088c.277 0 .56.046.836.141 17.49 6.08 37.995 6.18 57.824 6.277 7.637.037 14.852.073 21.95.429 3.343.167 7.154.281 11.19.402 18.931.57 43.823 1.317 60.271 8.552-.022-8.202-.755-16.53-1.519-25.192-.962-10.9-1.955-22.173-1.419-33.412 1.12-23.465 3.861-45.89 7.928-64.85.513-2.392 1.597-6.568 2.97-11.855 3.239-12.48 8.607-33.161 12.088-52.597-.144-2.875-.266-5.785-.393-8.735-.074-1.735-.147-3.486-.227-5.252-.207-4.633-1.49-9.418-2.847-14.484-2.002-7.47-4.072-15.195-2.569-22.774a2.545 2.545 0 012.635-2.05c3.122.163 5.785 1.632 7.7 4.246 5.807 7.93 4.925 26.316.822 49.336.409 8.038.99 15.797 2.232 23.412.428 2.634.702 5.95.993 9.46.71 8.573 1.592 19.243 5.143 23.894 4.533 5.942 7.687 4.806 12.908 2.928 2.792-1.004 6.09-2.178 9.861-2.114-1.879-22.277-3.282-43.126-4.278-63.336-3.234-65.714-16.905-102.648-40.637-109.777-5.315-1.596-18.09-5.434-25.182-3.348.162 1.24.49 2.418.987 3.492 1.14 2.47 3.118 4.293 5.764 5.327.44.15.88.297 1.32.438a2.55 2.55 0 01-1.456 4.885c-.58-.161-1.14-.346-1.682-.555a66.387 66.387 0 01-9.937-4.4c-.068 1.507-.08 3.085-.092 4.598-.045 5.512-.09 11.21-2.25 15.325-10.014 19.081-28.57 24.956-56.736 17.957-7.443-1.85-13.387-1.27-18.17 1.772-9.78 6.223-13.599 22.061-16.951 39.13a142.038 142.038 0 00-1.48 9.12c3.278 5.914 5.914 12.31 7.7 18.529 5.354 18.643 3.223 34.615-5.702 42.724a2.548 2.548 0 01-4.195-1.303c-4.31-18.291-5.361-39.607-3.06-58.966-6.368-10.92-14.596-18.836-22.291-20.69-3.294 3.029-6.685 6.276-10.19 9.632-9.863 9.447-20.46 19.596-31.59 27.33a104.71 104.71 0 00-2.442 11.78c6.816 18.485 6.907 30.416.244 35.542a2.551 2.551 0 01-3.998-1.292c-2.492-8.353-3.162-20.737-1.476-33.66a169.726 169.726 0 00-2.471-6.155c-5.68 2.982-11.478 5.14-17.367 6.087a2.55 2.55 0 01-2.928-2.887c.487-3.326 2.49-6.366 5.642-8.556 4.287-2.983 10.18-4.143 15.38-3.032.69.146 1.284.572 1.646 1.168a97.73 97.73 0 003.265-2.097c2.953-10.367 7.592-20.174 14.199-27.566 8.326-9.318 18.843-13.367 30.505-11.756 1.74-1.57 3.457-3.08 5.159-4.512 20.593-17.34 32.361-31.699 34.393-55.38-3.592 2.53-7.43 4.813-11.137 6.935a2.547 2.547 0 01-3.308-.685 2.552 2.552 0 01-.41-2.225l-2.175.934c-9.956 4.277-19.36 8.316-26.882 14.344-8.483 6.8-16.083 15.234-24.13 24.161-8.063 8.945-16.4 18.195-25.8 25.778-3.586 2.892-7.205 5.52-10.705 8.064-15.534 11.286-27.805 20.201-23.439 41.513 2.723 13.298 12.006 24.685 20.982 35.697 3.067 3.763 6.229 7.641 9.05 11.518 3.21-.8 6.682-3.112 10.33-5.542 5.824-3.877 11.842-7.888 18.434-6.803 5.77.948 9.527 5.024 13.161 8.965 4.006 4.347 7.469 8.113 13.205 7.765 5.058-.297 8.886-4.386 12.94-8.716 3.171-3.389 6.45-6.891 10.594-8.811 11.35-5.261 26.29-5.088 36.483-3.173a2.552 2.552 0 011.956 3.293c-2.78 8.574-10.445 9.084-16.754 9.358 5.707.238 11.228.887 16.73 3.162a2.55 2.55 0 011.57 2.213c.073 1.27-.274 2.175-.747 2.82 1.254 1.282 2.31 2.664 3.285 3.94.487.638.672 1.505.453 2.279-.221.774-.768 1.433-1.519 1.72-.419.16-.8.461-1.327.88a21.5 21.5 0 01-.86.657c.725 1.036 1.194 2.084 1.635 3.064.415.923.805 1.795 1.401 2.632a2.552 2.552 0 01-1.843 4.02c-7.089.648-13.41-.67-19.521-1.943-3.953-.824-7.755-1.617-11.633-1.864 1.62 1.083 3.628 2.022 5.697 2.99 4.083 1.908 8.71 4.073 11.696 8.01a2.55 2.55 0 01-1 3.875c-7.952 3.511-15.567 2.12-22.285.895-8.916-1.628-16.613-3.032-24.472 6.15-11.565 13.516-13.97 34.144-13.952 49.07.013 10.382 1.38 17.513 3.75 23.784l.123-.353a2.55 2.55 0 012.404-1.701zm1091.976 10.456c1.924 0 3.648.306 5.097 1.056 3.188 1.65 5.198 4.318 6.487 7.478-2.218-13.559-5.653-27.463-8.985-40.947-1.985-8.025-4.035-16.324-5.775-24.351-.308-1.423-.69-3.077-1.11-4.909-1.806-7.856-4.175-18.156-5.18-28-3.126 15.741.22 29.356 5.561 47.228 4.264 14.259 3.546 26.904-2.018 35.607-3.595 5.623-9.05 9.549-16.261 11.719 2.334-.481 4.998-1.23 7.61-1.961 5.305-1.488 10.41-2.92 14.573-2.92zm-875.162-24.658c.31 0 .64.065.997.202.186.072.362.165.526.277 5.18 3.555 8.433 11.172 11.877 19.235 3.605 8.436 7.32 17.132 12.751 19.192 3.95-14.086-4.38-25.889-13.176-38.35-6.47-9.17-13.162-18.65-14.326-29.073-2.404-21.543-4.433-41.55-6.126-60.48-1.38 1.267-2.715 2.187-3.92 3.016-3.385 2.33-5.25 3.613-4.804 11.752.338 6.173 1.365 13.286 2.358 20.166.728 5.035 1.48 10.242 1.964 15.09.398 3.987.552 8.164.714 12.587.573 15.58 1.164 31.634 12.458 40.346-1.243-2.744-3.15-5.116-4.853-6.883-.863-.83-1.025-2.174-.396-3.2 1.346-2.193 2.378-3.877 3.956-3.877zm811.613 30.402c6.264 11.363 11.828 14.1 27.11 12.403 6.833-.757 14.058-2.447 21.048-4.08 7.245-1.694 14.673-3.43 21.955-4.22-.875-1.872-2.095-3.375-3.81-4.261-2.794-1.446-10.088.599-15.952 2.245-4.865 1.364-9.463 2.655-13.022 2.672-13.275.06-25.605-1.498-37.33-4.76zm-370.695 82.826h.078c9.126.003 16.276 2.2 23.844 4.526 2.979.917 6.058 1.863 9.308 2.682 36.798 9.248 89.62 12.706 124.824-5.47 2.748-10.915 5.157-21.799 4.67-30.527-1.286-22.967-7.815-45.119-14.129-66.541-5.491-18.633-11.17-37.898-13.47-57.8-1.53-13.245-1.622-25.401-.164-37.804-10.509 5.874-20.857 4.68-30.913 3.516-8.14-.938-16.56-1.912-25.224.87-5.87 1.886-11.381 6.006-16.71 9.992-11.92 8.91-25.431 19.014-43.584 1.955-8.494-7.98-11.354-19.786-14.12-31.202-.236-.98-.473-1.957-.71-2.924-6.298-8.155-10.906-17.161-12.64-25.1a2.55 2.55 0 013.99-2.608c7.692 5.588 10.811 15.375 13.328 25.394 8.302 10.477 19.532 19.347 30.46 21.489 9.468 1.854 17.3-1.624 23.283-10.335l.836-1.214c5.672-8.234 13.441-19.512 11.488-27.051-.714-2.752-2.714-4.91-6.116-6.596-3.69-1.83-7.376-2.22-10.99-1.176.057 3.514-.488 6.919-1.692 9.944-2.984 7.495-9.53 11.906-18.428 12.422a2.512 2.512 0 01-2.178-1.003 2.544 2.544 0 01-.381-2.369c2.758-8.044 8.687-17.836 17.305-22.3-.812-5.691-3.369-11.473-7.28-15.632-9.147-9.729-16.698-19.773-24.696-30.408a1259.87 1259.87 0 00-7.483-9.882c-.85-1.108-1.762-2.335-2.731-3.634-6.64-8.918-16.677-22.395-26.229-23.06-3.39-.24-6.58 1.176-9.692 4.325-7.475 7.562-10.273 24.515-8.091 49.021 1.007 11.304 4.49 21.933 7.858 32.212 3.307 10.09 6.727 20.522 7.801 31.574 1.697 17.421 1.57 36.346 1.447 54.647-.034 5.163-.069 10.213-.057 15.073.097 43.44-13.278 92.22-23.414 128.49 4.966 1.271 9.52.96 13.943.66 7.232-.493 14.141-.963 20.112 5.996 1.897-.114 4.065-.152 6.547-.152zm379.851-48.688c6.978 10.5 12.2 24.161 15.826 33.65l.573 1.501c7.345 19.164 11.608 39.998 15.683 61.442 2.782 14.642 6.442 27.584 10.69 40.57-4.125-14.737-6.946-29.73-7.59-44.234-.084-1.874-.16-3.831-.24-5.855-.716-18.222-1.695-43.179-10.045-58.206-4.698-8.452-14.98-20.73-24.897-28.868zm-890.586 29.993c-.68 2.818-1.364 5.621-2.046 8.41-5.458 22.339-11.102 45.438-12.3 69.733-.928 18.832 2.69 33.82 6.52 49.689.415 1.716.833 3.45 1.25 5.208 3.825-10.446 2.814-25.043 1.952-37.499-.335-4.828-.65-9.387-.647-13.272.023-23.113 1.369-45.74 4.236-71.212.391-3.471.72-7.175 1.035-11.057zm-70.766-26.477c.777 0 1.514.355 1.999.968 9.345 11.805 11.494 35.329 13.221 54.232.496 5.436.965 10.57 1.555 14.842 1.738 12.605 1.922 25.634 2.1 38.236.175 12.286.356 24.988 2.006 36.989 1.842 13.393 8.176 24.381 16.138 27.99 5.71 2.59 12.22 1.518 19.345-3.184a17.88 17.88 0 004.154-3.82 738.886 738.886 0 00-2.534-10.746c-3.92-16.237-7.621-31.572-6.656-51.14 1.22-24.78 6.924-48.12 12.44-70.69 4.83-19.772 9.826-40.217 11.66-61.271.142-1.627.243-3.254.31-4.887-15.25-7.67-40.992-8.445-60.322-9.026-4.061-.123-7.898-.237-11.291-.407-6.984-.35-14.143-.386-21.721-.422-19.344-.096-39.317-.192-57.011-5.745a57.305 57.305 0 00-.922 3.412c1.447 2.78 3.08 5.58 4.866 8.638 2.214 3.794 4.723 8.094 7.362 13.2 12.172 23.563 18.702 43.193 20.547 61.776.572 5.76.828 11.25 1.076 16.56.735 15.825 1.371 29.49 9.833 43.41 5.547 9.126 8.983 18.46 12.305 27.487 1.806 4.906 3.65 9.92 5.842 14.887.257-7.86.185-15.688.113-23.333-.118-12.724-.24-25.88 1.13-39.245.855-8.345 1.863-17.103 2.838-25.57.497-4.32.987-8.572 1.445-12.671.322-2.88.424-6.431.531-10.191.297-10.358.634-22.1 5.546-29.182a2.55 2.55 0 012.013-1.095c.028-.002.055-.002.082-.002zm1168.24-44.206c.09 2.464.816 5.362 2.13 9.41 10.273 31.78 8.578 64.01 5.952 88.539-2.307 21.507 2.078 39.718 6.718 58.999 1.377 5.689 2.792 11.57 4.079 17.685 3.556 16.903 2.218 34.378-.127 51.622 4.053-10.74 10.924-21.963 18.164-33.786 17.961-29.33 36.521-59.657 14.188-86.377-20.663-24.702-46.96-61.527-44.921-103.04-2.167-.54-4.22-1.59-6.183-3.052zM758.935 557.6c-1.997.264-3.475.702-4.058 1.414-1.07 1.312-.237 5.401.917 11.06l.512 2.527c3.337 16.687 3.507 33.847 3.669 50.44.078 7.755.157 15.775.556 23.657.654 12.885 1.722 33.958 7.308 50.594-.72-12.874 1.732-25.994 4.127-38.817 3.084-16.51 6.272-33.582 2.324-49.309-1.086-4.325-2.09-8.931-3.06-13.386-2.62-12.013-5.328-24.434-10.146-34.369-.709-1.462-1.424-2.723-2.15-3.81zm171.34-.316c-.273 1.074-.55 2.146-.822 3.214-1.937 7.54-3.766 14.66-4.823 21.198-3.582 22.152-6.117 42.189-.833 63.088 5.834 23.064 10.375 44.073 6.823 67.644-.897 5.954-2.098 11.878-3.44 17.743 13.229-3.888 13.819-20.756 14.389-37.109.154-4.404.3-8.562.688-12.458 4.555-45.498 1.832-91.15-7.457-125.983a83.702 83.702 0 01-4.525 2.663zm-49.167 183.147c-.08 1.463-.162 2.97-.25 4.51-.297 5.319-.617 11.05-.798 16.944 2.034-8.293 3.352-15.632 2.902-20.919a8.318 8.318 0 00-1.854-.535zm-61.359-2.283c-2.51 5.005-3.924 10.296-2.593 17.432.68 3.645 1.738 7.851 3.052 12.23-.776-10.765-.001-21.576 2.189-29.992a88.14 88.14 0 00-2.648.33zm929.144-193.847c-.191.497-.37.973-.548 1.421-5.481 14.016-5.851 28.84-6.233 44.537-.179 6.912-.345 14.058-1.007 21.068-.995 10.544-3.11 25.382-7.585 36.188-4.564 11.04-4.232 12.053-2.078 18.65.676 2.072 1.517 4.65 2.422 8.125 4.309 16.485-.867 40.415-5.022 59.645-.727 3.365-1.428 6.566-2.014 9.522-.663 3.281-2.116 7.28-3.646 11.512-2.422 6.72-5.188 14.335-4.525 18.81.854 5.88 6.883 12.576 11.74 17.956.013.026.038.05.064.075.7-10.594 1.274-21.073 1.822-31.261 1.632-30.1 3.175-58.533 7.98-89.201 3.799-24.192 5.647-48.902 5.647-75.542 0-2.368-.05-5.057-.115-7.967-.229-12.924-.56-30.255 3.098-43.538zm-207.244-77.034c-9.943 15.296-18.598 30.98-21.084 45.315-2.982 17.268 1.097 34.385 5.048 50.937 1.007 4.2 1.95 8.169 2.792 12.166l.255 1.19c8.362 39.682 17.833 84.659 2.052 126.285-1.606 4.214-3.212 7.984-4.78 11.63-6.718 15.669-11.154 26.022-.867 42.747 6.08 9.895 9.854 22.722 12.403 35.181 2.843-2.379 4.997-5.102 6.144-8.188 5.928-15.829 2.856-38.998.153-59.44-1.223-9.249-2.383-17.985-2.728-25.733-.446-10.196-.586-20.14-.726-29.757-.23-16.143-.434-31.392-1.989-47.523-.969-10.125-2.74-20.417-4.449-30.37-2.205-12.864-4.487-26.169-5.137-39.506-.828-16.576.051-33.909 2.512-50.122 1.516-10.002 4.843-19.258 8.056-28.21.803-2.238 1.593-4.43 2.345-6.602zm-171.947 246.155c-.65 4.47-1.223 8.854-1.682 13.236-1.453 14.007-.867 28.68-.28 42.87.407 10.202.828 20.701.47 30.767 1.556-.874 3.213-1.735 4.909-2.621 6.207-3.23 13.244-6.891 15.997-11.878 3.952-7.195-.497-15.689-4.805-23.9-1.084-2.08-2.206-4.227-3.174-6.306-4.5-9.775-10.606-25.771-11.435-42.168zM124.523 670.03c3.083 8.9 6.577 18.062 9.964 26.947 5.073 13.304 10.319 27.062 14.275 40.161 3.623 11.995 4.565 24.849 5.475 37.277.878 11.995 1.784 24.363 5.13 35.812 7.54-7.856 2.395-27.557-1.452-42.294-.936-3.58-1.818-6.964-2.431-9.847-1.866-8.794-2.994-17.925-4.084-26.755-1.547-12.53-3.146-25.486-6.881-37.194-2.325-7.288-6.147-13.416-9.844-19.342-1.197-1.919-2.382-3.821-3.506-5.738-2.285.06-4.503.349-6.646.973zm472.058 142.353c4.035 1.92 9.978.568 16.746-.972 8.02-1.828 17.01-3.874 26.22-1.514 1.247-8.244 2.753-20.703-.108-28.184-1.585-4.14-3.568-7.52-5.488-10.789-3-5.11-6.1-10.392-7.33-18.16-2.399-15.153-1.987-29.844-1.59-44.053.25-8.856.506-18.014.066-27.114-.301-6.22-2.347-11.942-4.515-17.998-1.474-4.12-2.998-8.38-3.934-12.833-1.648-7.843-1.523-16.325-1.402-24.528.064-4.307.129-8.763-.068-13.028-.641-13.911-.572-40.797-.506-66.798.069-27.05.142-55.022-.565-69.297-1.124-22.699-3.119-41.922-8.985-60.951-1.182.683-2.558 1.318-4.072 1.89 8.453 17.913 4.494 50.205 1.47 74.87-1.566 12.779-2.92 23.818-2.097 29.035 3.793 24.06 11.612 96.888 11.378 121.25-.133 13.95-4.252 18.103-10.484 24.389-1.33 1.34-2.835 2.858-4.422 4.6-4.86 5.338-4.627 6.748-4.615 6.806.295.564 2.761 1.43 4.394 2.004 3.404 1.196 7.64 2.683 11.417 5.986 8.779 7.677 10.568 19.969 4.35 29.892-2.436 3.888-6.74 6.364-10.902 8.76-5.58 3.211-9.192 5.492-9.437 9.232 7.662 3.99 11.423 11.726 15.066 19.222 1.615 3.318 3.284 6.752 5.24 9.683 1.683 2.518 3.956 5.154 6.362 7.946 6.13 7.105 13.075 15.16 12.595 24.476a2.55 2.55 0 01-1.321 2.104c-2.455 1.349-6.493 2.784-11.168 4.447-6.823 2.426-15.864 5.64-22.295 9.627zm1217.31 1.85c.115.116.23.234.344.352.191.204.383.407.574.603 1.44-.167 2.88-.321 4.321-.457 2.499-2.385 5.558-4.075 8.515-5.721 4.398-2.438 8.554-4.742 10.657-9.048 7.291-14.872-3.697-35.45-11.715-50.478-.714-1.353-1.415-2.654-2.065-3.894-7.419-14.15-6.87-18.388 3.914-30.226a183.084 183.084 0 013.327-3.54c6.424-6.735 7.941-8.337 3.607-18.99-3.454-8.475-9.662-13.392-15.666-18.147-8.171-6.463-16.61-13.147-17.094-28.068-.102-3.19-.179-6.392-.242-9.595-.472-20.44-.957-41.578-9.79-60.294-1.67-3.521-3.34-7.178-5.06-10.902-7.305-15.929-15.553-33.888-25.712-47.471-3.824 3.386-7.266 11.143-9.866 17.826 1.568-3.087 3.505-5.714 5.914-7.7a2.545 2.545 0 012.09-.54c.74.137 1.378.596 1.747 1.253.74 1.304 1.402 2.667 2.04 3.985.905 1.895 1.772 3.685 2.83 5.283 13.422 20.235 19.044 47.784 21.198 62.406 1.912 13.027 5.074 25.38 8.12 37.325 2.167 8.502 4.423 17.293 6.183 26.206 2.345 11.861 2.396 24.419 2.434 36.564.039 11.117.077 21.617 1.734 31.653.701 4.346 2.294 8.618 3.99 13.142 2.384 6.42 4.856 13.06 4.614 19.976-.127 3.258-1.134 6.54-2.116 9.715-2.409 7.822-3.352 12.046 3.187 15.064.727.334 1.25.984 1.415 1.76 1.466 6.545-.293 11.973-2.001 17.22-.523 1.62-1.02 3.171-1.428 4.738zm-1420.454 2.235c2.909.414 5.926.723 8.883 1.027 3.893.401 7.906.813 11.613 1.458.239-.19.478-.377.717-.566 3.176-2.499 6.086-4.789 8.035-7.637-7.542-.84-14.613-2.694-19.276-5.46-1.853 4.462-5.986 8.145-9.972 11.178zm720.38-330.928c-9.302 13.505-16.479 29.707-20.905 47.543-5.22 21.04-7.086 44.475-8.89 67.138-.205 2.566-.407 5.115-.614 7.638-.957 11.71-4.201 23.55-7.34 35-4.078 14.882-7.93 28.94-7.15 42.601.42 7.403 1.112 14.608 1.78 21.576 1.54 16.033 2.994 31.176 1.363 48.216-.22 2.282-1.134 6.232-2.291 11.232-3.552 15.342-10.163 43.896-1.905 52.615 1.737 1.833 4.152 2.667 7.273 2.55-.579-3.37-1.02-6.685-.782-8.768 1.612-14.052.978-29.905.365-45.235-.335-8.398-.683-17.082-.66-25.406.068-25.472 2.601-49.758 8.469-81.209 3.883-20.8 5.686-42.805 7.433-64.085.793-9.67 1.612-19.668 2.613-29.332 2.893-27.945 12.128-56.626 21.242-82.074zm87.881 187.798c5.406 17.954 6.34 35.781 7.326 54.554.175 3.307.348 6.647.55 10.023 1.317 22.038 6.161 45.452 13.639 65.923.399 1.097.895 2.716 1.468 4.593 1.145 3.742 3.525 11.53 4.956 12.904.27.258.515.49.742.697.42-4 1.25-8.008 2.041-11.828.737-3.552 1.436-6.905 1.767-10.025 3.25-29.765 4.398-52.98-10.654-80.748-7.177-13.243-14.986-29.06-21.835-46.093zM628.507 831.302c.46.272 3.161 1.318 15.633-.747a35.364 35.364 0 00-3.557-2.178c-6.032-3.233-13.593-4.04-14.735-2.698-.171.2-.223 1.826 2.659 5.623zm616.821 2.663c2.55.792 5.622.703 8.923.109-2.996-.664-6.042-.749-8.923-.195v.086zm451.314-33.01c-2.32 2.013-6.424 4.966-11.408 8.547-7.33 5.279-20.97 15.104-21.9 17.962-1.122 5.246.994 6.913 1.683 7.463 5.914 4.66 22.843.585 28.464-2.108 13.589-6.514 27.98-16.048 30.746-24.554-5.354-2.31-13.13-3.998-18.917-5.256-3.365-.731-6.348-1.381-8.668-2.053zm-162.781 23.8c-4.628 0-9.153 1.82-12.416 6.348-1.976 2.75-4.015 6.746-2.473 10.16 1.415 3.133 5.736 5.415 11.268 5.956 9.459.92 15.858-3.035 23.277-7.62.14-.092.293-.187.446-.282-1.326-4.891-5.188-9.062-9.535-11.572-3.187-1.846-6.909-2.99-10.567-2.99zm-620.238 17.75c8.36 0 16.944.082 24.926 1.757 2.533.53 4.875 1.046 7.067 1.526 15.592 3.419 23.103 5.066 38.887.178-3.331-6.69-16.962-12.685-28.281-17.037-10.652 1.001-21.17 2.785-25.863 4.602-12.967 5.018-30.792 4.679-41.386-7.397-7-7.981-10.712-18.961-12.553-30.962-3.863 15.576-6.218 30.543-1.495 38.78 1.794 3.127 4.537 5.141 8.388 6.158 9.118 2.406 19.186 2.402 28.928 2.394h1.382zM209.454 708.96c.207 2.745.457 5.59.751 8.57 1.081 10.948 2.747 22.198 4.358 33.077 2.322 15.682 4.722 31.899 5.496 47.865.163 3.346.029 7.602-.113 12.106-.434 13.91-1.03 32.96 6.925 39.354 3.023 2.43 7.179 2.928 12.702 1.53 6.002-1.523 9.865-4.185 11.81-8.14 1.375-2.791 1.723-6.106 1.412-9.662-6.932.43-14.12-.128-18.503-2.744-13.19-7.876-13.36-20.814-13.525-33.325-.026-1.975-.052-3.974-.126-5.984-.895-24.266-3.046-54.41-11.187-82.647zm1308.893 139.287c6.055 6.059 14.443 10.848 21.67 10.642 5.788-.195 10.224-3.61 13.168-10.15a14.444 14.444 0 001.11-3.631c-7.177 4.393-14.265 8.196-24.552 7.184-4.589-.446-8.528-1.879-11.396-4.045zm298.795 13.357c3.543 3.563 7.036 4.706 10.643 3.49 7.572-2.56 14.163-14.47 17.21-24.15-11.524 6.498-22.908 14.563-27.853 20.66zm2.562 22.395c-8.107 0-15.922-2.885-19.682-10.942-3.837-8.205-.28-14.583 3.161-20.752 1.211-2.171 2.46-4.416 3.48-6.835 1.275-3.015 2.257-6.64 3.29-10.48 1.389-5.118 2.803-10.374 5.085-14.696-.28.032-.548.065-.828.098a2.551 2.551 0 01-2.014-.639 36.077 36.077 0 01-1.632-1.628c-.433-.441-.854-.887-1.236-1.247a2.549 2.549 0 01-.74-2.397c.497-2.278 1.198-4.456 1.887-6.562 1.44-4.446 2.804-8.664 2.09-13.375-9.484-5.118-6.845-13.672-4.716-20.596.88-2.859 1.784-5.814 1.886-8.401.217-5.9-1.975-11.782-4.295-18.01-1.696-4.552-3.455-9.26-4.245-14.097-1.708-10.436-1.76-21.631-1.798-32.459-.038-11.902-.076-24.212-2.332-35.591-1.747-8.776-3.965-17.5-6.119-25.934-3.085-12.072-6.272-24.555-8.235-37.844-2.09-14.2-7.533-40.922-20.395-60.331-1.25-1.887-2.23-3.918-3.174-5.883-.115-.22-.217-.436-.319-.652-8.706 10.875-8.247 35.967-7.929 52.998.064 2.944.115 5.665.115 8.06 0 26.91-1.874 51.877-5.71 76.332-4.768 30.415-6.298 58.72-7.917 88.687-.663 12.167-1.338 24.748-2.256 37.467a2.552 2.552 0 01-4.525 1.43c-1.135-1.388-2.524-2.934-4.003-4.571-5.303-5.894-11.906-13.226-12.99-20.632-.84-5.743 2.015-13.644 4.781-21.284 1.466-4.05 2.855-7.874 3.429-10.783.6-2.98 1.3-6.202 2.04-9.594 4.04-18.7 9.076-41.971 5.073-57.279-.867-3.325-1.683-5.823-2.333-7.83-2.536-7.76-2.893-9.832 2.218-22.182 4.22-10.222 6.246-24.52 7.215-34.717.638-6.834.816-13.89.982-20.717.382-15.445.777-31.417 6.59-46.267.459-1.197.982-2.587 1.542-4.1 3.659-9.877 8.668-23.404 16.05-27.152a2.557 2.557 0 013.16.7c11.205 14.251 20.026 33.447 27.802 50.386a1225.49 1225.49 0 005.022 10.851c9.306 19.696 9.803 41.384 10.275 62.359.076 3.186.153 6.37.255 9.544.408 12.556 7.24 17.969 15.156 24.234 6.22 4.924 13.27 10.505 17.221 20.222 5.38 13.184 2.64 16.807-4.64 24.436a157.327 157.327 0 00-3.237 3.454c-9.293 10.19-9.56 12.245-3.174 24.421.65 1.23 1.338 2.52 2.052 3.861 8.056 15.096 20.23 37.908 11.791 55.126-2.804 5.743-8.094 8.676-12.76 11.262-.446.25-.905.503-1.351.753h.14c8.426 0 16.801 1.36 24.653 5.863-.14-5.659-1.415-10.965-2.74-16.517-1.492-6.203-3.034-12.617-2.843-19.56.166-6.362 1.53-12.635 2.843-18.7 1.39-6.364 2.817-12.943 2.817-19.517 0-8.37-2.257-15.864-4.653-23.796-1.262-4.164-2.562-8.47-3.48-12.864-1.491-7.164-1.746-14.7-1.989-21.986-.203-5.842-.395-11.883-1.262-17.54-1.771-11.723-4.882-22.918-7.89-33.747-3.021-10.872-6.157-22.113-7.967-33.995-2.664-17.344.408-38.16 3.11-56.527.65-4.39 1.262-8.538 1.798-12.565.56-4.34 1.274-8.564 1.95-12.65 2.983-17.87 5.558-33.3-3.76-50.684l-1.415-2.635c-3.136-5.817-5.635-10.462-7.368-14.692-35.45 16.63-82.08 20.523-115.579-6.084-8.808 15.614-11.51 39.544-8.044 71.2.931 8.535 2.346 16.99 3.723 25.167 2.383 14.27 4.856 29.026 4.83 44.593-.012 7.608-.79 14.45-1.542 21.067-.471 4.205-.968 8.551-1.274 13.13-.548 8.296.51 15.582 1.631 23.294.536 3.644 1.084 7.41 1.479 11.418 1.122 11.262-1.415 22.454-3.862 33.277-2.422 10.647-4.92 21.658-3.837 32.574 1.109 11.301-1.135 23.148-3.315 34.604-1.988 10.511-4.053 21.364-3.352 31.39 2.843.927 7.138 1.083 11.65 1.245 11.155.402 26.439.952 26.592 16.327v.094c1.963 1.21 3.53 2.598 4.512 4.22 2.358 3.878 3.008 7.739 1.938 11.473-2.473 8.626-13.334 14.081-21.275 18.065-1.48.742-2.869 1.443-3.965 2.051-3.951 2.19-7.508 4.585-10.95 6.904-8.35 5.624-16.24 10.936-27.89 12.222-9.013.985-22.652-4.576-27.853-14.156-2.792-5.145-2.715-10.74.127-16.121h-68.924c-1.096.75-3.786 2.825-6.004 4.538-3.798 2.92-7.712 5.94-9.369 6.916-.191.118-.395.236-.586.354.165 2.872-.357 5.891-1.734 8.965-4.755 10.537-12.224 12.968-17.642 13.15-12.34.453-26.807-10.75-32.518-21.437-4.003-7.498-6.986-16.662 1.236-27.76 6.578-8.891 12.454-8.024 18.675-7.1 2.32.342 4.717.686 7.432.637-.357-2.32-.74-4.714-1.148-7.145-11.905 6.492-28.005 9.256-39.006 9.353-.701-.015-1.39-.28-1.874-.793a2.52 2.52 0 01-.688-1.91c.714-11.932-.28-24.015-1.326-36.805-.841-10.255-1.708-20.858-1.606-31.327.051-5.693.217-11.384.37-16.889.675-23.419 1.313-45.537-5.737-68.168-2.383-7.676-5.047-15.498-7.622-23.061-5.023-14.743-10.21-29.985-13.844-45.404-.803-3.453-1.695-7.026-2.6-10.693-3.952-15.935-8.26-33.362-9.064-49.97-7.61 23.579-14.76 45.89-16.227 72.25-1.504 26.874-6.373 53.749-11.09 79.736-.956 5.292-1.912 10.572-2.842 15.842-1.173 6.626-2.6 13.05-3.99 19.26-3.62 16.237-7.05 31.572-5.507 48.725.357 3.88 1.109 8.09 1.925 12.546 2.893 15.97 6.488 35.845-13.053 40.803-4.551 1.157-10.313.764-15.883.382-5.418-.371-11.001-.755-13.997.515-6.17 2.624-9.764 10.182-12.95 16.849-.817 1.706-1.594 3.341-2.397 4.88 5.15 4.065 21.058 2.791 26.667-.702 3.888-2.412 6.654-6.85 9.343-11.142 2.142-3.43 4.36-6.976 7.19-9.62a2.592 2.592 0 011.886-.678c.702.04 1.339.363 1.798.892 2.855 3.362 4.117 6.524 3.837 9.666-.434 4.952-4.666 8.426-8.388 11.493-1.491 1.227-2.906 2.388-4.04 3.576-2.525 2.66-4.411 5.481-6.234 8.21-3.544 5.293-7.202 10.766-15.08 13.859-10.236 4.022-20.039 2.148-26.221-5.01-6.195-7.19-7.355-17.945-3.263-27.783h-56.827c-.217 0-.434-.03-.65-.084-1.785-.473-7.33 1.667-12.212 3.554a341.011 341.011 0 01-4.577 1.745 2.56 2.56 0 01.714 2.85c-3.084 7.965-8.757 13.016-15.577 13.853-6.909.847-13.792-2.797-18.866-10.006-2.98-4.23-4.108-8.983-4.247-13.895-1.145-.572-2.418-1.539-4.011-3.066-2.213-2.125-4.086-7.843-6.301-15.093-.554-1.807-1.03-3.366-1.384-4.334-7.641-20.925-12.591-44.85-13.937-67.37-.203-3.39-.379-6.74-.552-10.06-1.067-20.342-2.075-39.555-8.875-58.718l-.725-2.041c-8.03-22.617-14.965-42.15-19.577-66.428-4.183-22.018-8.231-41.773-15.433-60.57l-.576-1.505c-4.96-12.972-14.187-37.116-26.201-43.986a2.547 2.547 0 01-1.12-3.116 2.542 2.542 0 012.903-1.594c15.14 3.15 36.155 27.822 42.707 39.616 8.942 16.091 9.909 40.705 10.685 60.484.079 2.015.154 3.963.238 5.828 1.878 42.269 22.82 89.06 40.057 120.872 15.719 29.009 14.482 54.033 11.244 83.731-.37 3.363-1.083 6.832-1.848 10.506-.829 4.04-1.683 8.135-2.04 12.08 1.339-.249 3.098-.462 5.635-.19 8.757.934 18.254-1.2 27.508-3.452-7.737-18.375-16.52-39.202-20.038-58.467-2.486-13.586-1.938-27.6-1.403-41.15.383-9.935.79-20.208-.05-29.982-1.95-22.576-9.6-42.325-16.813-58.664-12.482-28.259-13.69-58.21-14.857-87.174-.637-15.816-1.297-32.172-3.758-48.25-.323-2.13-.43-4.66-.543-7.338-.14-3.309-.294-6.98-.911-10.285-7.285.702-14.888 2.48-22.297 4.212-7.134 1.667-14.51 3.392-21.645 4.183-20.28 2.256-26.791-3.874-34.498-19.586-.515-.176-1.027-.356-1.539-.538a104.83 104.83 0 00-9.692 10.142 2.557 2.557 0 01.88 2.925c-9.829 26.961-20.577 58.255-23.703 88.435-.994 9.611-1.813 19.58-2.604 29.224-1.756 21.409-3.57 43.545-7.502 64.604-5.809 31.13-8.315 55.141-8.383 80.287-.023 8.214.323 16.845.657 25.187.62 15.524 1.262 31.577-.393 46.021-.24 2.102.766 7.545 1.196 9.868a2.648 2.648 0 01-.405 1.961c-.39.558-.977.978-1.646 1.096-6.16 1.083-11.006-.192-14.406-3.78-9.357-9.88-4.814-33.712.639-57.273 1.072-4.627 1.996-8.622 2.182-10.568 1.586-16.553.155-31.461-1.36-47.245-.674-7.015-1.37-14.27-1.797-21.773-.826-14.492 3.318-29.614 7.326-44.238 3.076-11.225 6.256-22.831 7.175-34.067.205-2.519.408-5.064.612-7.627 1.821-22.87 3.704-46.515 9.024-67.96 4.849-19.544 12.919-37.222 23.44-51.727-5.714-1.404-11.31-3.685-16.777-5.912-5.2-2.118-10.577-4.31-15.797-5.605-12.353-3.07-24.915-6.96-35.659-11.04-9.066 20.402-3.584 48.024 1.272 72.49 1.34 6.756 2.607 13.138 3.496 19.041 4.06 26.993.26 53.22-3.414 78.582-3.027 20.892-6.157 42.494-5.06 64.885.507 10.346 2.005 20.85 3.453 31.009 1.805 12.644 3.67 25.719 3.636 38.6-.017 6.54-1.361 13.94-2.784 21.772-2.988 16.449-6.076 33.452 3.353 42.44 8.422 2.992 15.207 3.08 23.758 3.192 2.765.036 5.624.073 8.777.21a2.549 2.549 0 012.395 3.012c-.2 1.08-.388 2.127-.569 3.141-1.54 8.602-2.757 15.395-7.686 18.665-3.216 2.133-7.56 2.488-13.658 1.11-8.825-1.992-20.502-7.937-25.291-16.282-1.753-3.055-2.482-6.196-2.185-9.374H986.08c-.424 0-.84-.106-1.211-.307-2.625-1.42-9.208-1.825-17.001-1.58 11.122 4.94 21.06 11.101 22.35 19.028a2.55 2.55 0 01-1.711 2.83c-18.793 6.26-27.742 4.296-43.983.735-2.181-.478-4.506-.988-7.021-1.517-7.904-1.657-16.31-1.648-25.26-1.649-10.04.001-20.475.012-30.233-2.564-5.165-1.364-9.036-4.24-11.51-8.55-7.1-12.383-1.47-34.28 4.525-55.917-.576-12.373.13-24.984.742-35.917.136-2.425.266-4.76.376-6.987a2.553 2.553 0 012.43-2.423c3.022-.137 5.018.291 7.88 1.709a2.553 2.553 0 011.388 1.893c1.463 9.398-2.687 24.334-7.085 40.146l-.6 2.162c.826 16.21 3.961 31.708 12.65 41.614 8.969 10.228 24.4 10.385 35.711 6.005 3.113-1.205 9.675-2.59 17.387-3.698-2.548-.955-4.757-1.815-6.457-2.595-23.783-10.885-32.427-25.861-28.029-48.56 1.758-9.073 4.105-18.204 6.372-27.037.903-3.51 1.813-7.057 2.694-10.629-18.263 1.263-38.353-2.43-58.329-10.753a2.55 2.55 0 01-1.552-2.656c3.868-32.567-1.64-66.016-6.968-98.367a3589.27 3589.27 0 01-1.291-7.861c-16.046 16.174-16.473 37.908-16.926 60.835-.22 11.163-.449 22.707-2.595 33.676-1.601 8.175-5.447 14.328-8.84 19.759-.368.589-.732 1.173-1.09 1.754a37.377 37.377 0 012.963-.166 2.589 2.589 0 012.097 1.053c.486.671.616 1.537.348 2.32-5.728 16.767-4.16 49.124 6.379 64.164a2.55 2.55 0 01-4.083 3.05c-7.525-9.46-15.764-32.124-18.454-46.548-1.301-6.978-.331-12.555 1.62-17.464-9.13 1.424-20.237 3.077-28.92.647 6.392 13.096 10.258 29.742 13.53 43.829 1.09 4.678 2.115 9.096 3.14 12.983.687 2.604 1.15 5.337 1.64 8.232 1.261 7.474 2.567 15.201 7.904 19.89 3.539 3.108 9.091 4.674 14.856 4.169 5.239-.453 9.726-2.554 12.306-5.762a2.521 2.521 0 012.047-.95c.793.017 1.53.404 1.999 1.044 2.72 3.727 6.25 7.593 9.665 11.332 4.45 4.876 9.056 9.919 12.069 14.864 3.74 6.143 4.58 10.903 2.567 14.55-3.224 5.835-12.672 6.455-22.072 6.588-.157.003-.317.003-.478.003-13.172.001-36.923-7.47-46.415-21.32-4-5.835-5.165-12.373-3.443-19.087H670.472l-.91.226c-5.68 1.417-10.623 2.556-14.93 3.464 4.198 5.948 4.978 12.394 3.341 17.51-2.953 9.231-12.908 14.156-25.367 12.572-11.318-1.45-19.659-6.372-25.497-15.054-1.522-2.262-2.383-4.335-3.144-6.164-1.139-2.74-2.039-4.903-4.848-7.163-1.26-1.013-2.726-1.131-4.58-1.28-2.824-.225-6.691-.536-9.236-5.15-2.035-3.689-2.396-7.329-1.073-10.819.876-2.307 2.467-4.402 4.548-6.315-2.856-4.466-4.399-11.352-4.786-21.143-.46-11.607-3.42-22.306-6.283-32.655-2.955-10.678-6.01-21.718-6.476-33.991-.261-6.897 1.013-13.348 2.246-19.588 1.086-5.499 2.114-10.695 2.074-15.939-.048-6.494-2.89-12.302-5.898-18.453-1.876-3.835-3.817-7.804-5.085-12.032-2.635-8.792-3.918-17.897-5.161-26.703-1.782-12.634-3.465-24.568-8.795-35.626-4.589-9.52-6.664-30.45-8.861-52.61-2.294-23.12-4.665-47.03-9.882-56.074-2.177-3.776-5.485-8.222-8.82-7.912-7.303.654-14.58 20.93-18.078 30.673a517.209 517.209 0 01-1.138 3.154c-5.624 15.357-10.115 54.398-13.725 85.768-1.75 15.199-3.258 28.324-4.616 36.342-.984 5.812-2.933 11.223-4.818 16.458-2.427 6.738-4.722 13.104-5.072 20.183-.21 4.216-.222 8.429-.235 12.889-.023 7.815-.046 15.898-1.206 24.132l-.102.725c-4.092 29.071-7.958 56.53-15.442 84.127a2.55 2.55 0 01-4.288 1.11c-.492-.506-1.109-1.076-1.717-1.64-1.021-.944-1.983-1.838-2.579-2.59a2.542 2.542 0 01-.515-1.997c1.306-7.912-3.278-15.163-8.132-22.843a220.795 220.795 0 01-3.081-4.972c-8.772-14.744-18.624-50.48-7.033-69.21 2.579-4.165 7.318-6.94 11.903-9.624 5.791-3.39 11.261-6.592 11.859-11.975.486-4.377-2.899-8.356-6.483-12.568-3.11-3.656-6.327-7.435-7.615-12.052-6.2-22.2 10.01-93.115 18.502-112.878 8.355-19.437 3.822-29.841-3.036-45.59-1.597-3.665-3.248-7.455-4.876-11.693-7.896-20.558-6.2-41.835-1.4-63.036a2.551 2.551 0 01.833-3.548c1.376-5.693 2.952-11.378 4.6-17.039a143.25 143.25 0 00-3.115-.688c-7.943 25.053-10.77 54.45-13.506 82.904-1.267 13.17-2.577 26.788-4.373 39.491-1.967 13.89-7.727 76.844-7.09 90.182.308 6.43 2.048 11.819 3.73 17.03 1.163 3.602 2.365 7.326 3.074 11.32 1.883 10.638-3.147 20.634-8.473 31.218-4.955 9.843-10.077 20.023-9.67 31.174.22 6.048 1.372 13.165 2.589 20.7 2.76 17.082 5.89 36.442-1.057 50.133-1.735 3.418-4.124 5.91-6.23 8.111-4.26 4.447-6.832 7.133-2.679 14.986 2.328 4.402 6.598 6.646 11.12 9.021 3.27 1.719 6.651 3.494 9.443 6.177.587.565.87 1.376.76 2.183-.035.262-.076.518-.12.77 9.566.255 18.853-1.152 22.656-4.512a2.551 2.551 0 013.926.691c2.951 5.412 3.693 9.713 2.27 13.15-2.036 4.907-7.705 6.57-13.189 8.18-1.928.566-3.923 1.15-5.621 1.85-4.766 1.968-8.27 5.111-11.979 8.437-3.176 2.849-6.461 5.795-10.715 8.167-9.438 5.263-41.525 1.954-46.98-6.631-.627-.986-1.514-2.994-.529-5.451H270.64c-2.274 1.124-7.16 2.38-12.78 3.108.393 4.425-.064 8.67-1.9 12.405-2.609 5.3-7.7 8.943-15.133 10.828-7.082 1.8-12.854.957-17.148-2.496-9.94-7.987-9.322-27.671-8.828-43.489.139-4.4.268-8.556.116-11.7-.76-15.715-3.143-31.805-5.447-47.365-1.62-10.94-3.294-22.251-4.389-33.323-.984-9.963-1.472-18.462-1.536-26.743a2.55 2.55 0 014.92-.96c13.189 33.335 16.132 71.534 17.222 101.09.075 2.051.103 4.091.129 6.106.16 12.126.298 22.598 11.04 29.011 3.405 2.035 9.294 2.447 15.085 2.11-1.47-6.543-4.45-13.443-6.928-19.182l-.43-.997c-9.258-21.475-7.467-45.565-4.154-68.399.89-6.126 2.304-12.459 3.67-18.581 3.11-13.933 6.322-28.317 3.97-42.223-.81.72-1.68 1.39-2.615 2.007-10.816 7.139-19.161 5.883-24.258 3.572-11.552-5.235-17.434-19.933-19.085-31.94-1.693-12.308-1.875-25.172-2.05-37.612-.178-12.445-.36-25.316-2.056-37.61-.605-4.388-1.08-9.579-1.582-15.076-1.502-16.46-3.338-36.553-9.867-48.114-2.338 6.126-2.59 14.937-2.817 22.876-.112 3.869-.217 7.524-.561 10.613-.459 4.102-.95 8.36-1.447 12.685-.974 8.454-1.98 17.195-2.832 25.51-1.341 13.08-1.22 26.09-1.103 38.676.1 10.892.205 22.156-.634 33.457a2.549 2.549 0 01-4.77 1.048c-4.475-8.056-7.505-16.289-10.436-24.25-3.237-8.799-6.586-17.897-11.876-26.599-9.137-15.032-9.833-29.988-10.57-45.82-.245-5.247-.497-10.67-1.056-16.298-1.78-17.918-8.136-36.966-20.004-59.937-2.577-4.99-5.052-9.23-7.235-12.97-.62-1.064-1.228-2.104-1.818-3.127-2.242 21.774 5.859 46.041 13.74 69.65 4.202 12.586 8.17 24.474 10.357 35.487 3.995 20.102.419 41.452-3.937 63.382-2.012 10.13.5 17.688 4.56 25.13 4.402.204 8.849.997 13.225 1.777 10.44 1.861 20.303 3.624 28.657-2.393a2.552 2.552 0 012.488-.277 2.552 2.552 0 011.524 1.985c3.062 21.407 4.003 38.049 3.146 55.645-.072 1.493-.152 3.03-.234 4.599-.816 15.643-1.83 35.114 2.851 48.304 2.723 7.667 4.46 15.675 6.14 23.418 2.094 9.662 4.26 19.653 8.354 28.862 3.884 8.744 10.09 16.182 16.092 23.376 4.569 5.475 9.292 11.136 13.075 17.425a2.55 2.55 0 01-.381 3.117c-18.203 18.209-32.242 8.338-44.628-.37-6.997-4.92-14.232-10.008-22.157-10.403a2.553 2.553 0 01-2.418-2.698c.2-3.381.108-10.674-1.398-26.307H2.55a2.55 2.55 0 010-5.1h158.264a2.55 2.55 0 012.537 2.295c1.219 12.185 1.796 21.231 1.722 26.962 8.308 1.215 15.428 6.222 22.336 11.077 12.39 8.712 22.263 15.655 36.638 2.336-3.402-5.3-7.539-10.257-11.552-15.068-6.225-7.46-12.663-15.176-16.837-24.57-4.305-9.689-6.528-19.94-8.677-29.853-1.646-7.587-3.348-15.432-5.961-22.793-5.022-14.147-3.978-34.18-3.14-50.275.082-1.565.161-3.095.235-4.584.788-16.191.02-31.59-2.569-50.837-9.2 4.69-19.272 2.893-29.05 1.148-3.132-.559-6.203-1.107-9.189-1.437.556.901 1.122 1.81 1.696 2.73 3.862 6.192 7.856 12.594 10.375 20.49 3.879 12.161 5.508 25.357 7.083 38.121 1.077 8.722 2.19 17.74 4.012 26.321.587 2.767 1.457 6.095 2.376 9.616 4.648 17.8 11.013 42.18-3.63 50.012a2.544 2.544 0 01-3.614-1.423c-4.443-12.988-5.464-26.947-6.453-40.445-.888-12.152-1.81-24.72-5.27-36.176-3.904-12.924-9.116-26.596-14.158-39.818-3.707-9.72-7.539-19.774-10.843-29.5a2.549 2.549 0 011.427-3.17c2.661-1.118 5.392-1.734 8.162-2.003-3.75-7.501-5.971-15.63-3.864-26.241 4.251-21.406 7.75-42.207 3.938-61.393-2.127-10.698-6.045-22.438-10.193-34.866-8.47-25.368-17.956-53.78-12.91-78.645-4.085-8.268-6.698-17.037-6.716-31.61-.019-15.789 2.598-37.692 15.177-52.393 9.765-11.408 19.676-9.602 29.261-7.851 5.31.969 10.382 1.893 15.565.703-2.068-1.516-4.587-2.695-7.05-3.846-4.666-2.181-9.491-4.438-11.46-9.112a2.548 2.548 0 012.125-3.53c6.553-.582 12.613.681 18.47 1.904 4.747.99 9.287 1.936 14.106 2.003-.66-1.458-1.19-2.468-2.642-3.42a2.552 2.552 0 01.883-4.63c1.126-.232 1.726-.67 2.49-1.274-.928-1.114-1.909-2.14-3.03-2.932a2.55 2.55 0 01-.744-3.343l.082-.137c-5.517-1.567-11.346-1.666-17.457-1.77-2.564-.043-5.216-.087-7.902-.243a2.55 2.55 0 01-1.984-3.945c3.502-5.334 9.754-5.602 15.27-5.84 5.219-.222 8.913-.537 11.075-3.104-9.123-1.205-20.908-.875-29.985 3.332-3.243 1.502-6.048 4.498-9.016 7.67-4.56 4.87-9.274 9.905-16.364 10.321-8.145.488-12.984-4.768-17.252-9.398-3.19-3.459-6.201-6.727-10.24-7.391-4.613-.761-9.778 2.686-14.78 6.017-4.516 3.007-9.187 6.118-14.031 6.62a2.539 2.539 0 01-2.345-1.064c-2.948-4.17-6.267-8.244-9.781-12.555-9.367-11.49-19.051-23.37-22.026-37.896-5.025-24.531 9.772-35.282 25.438-46.664 3.448-2.505 7.014-5.096 10.5-7.907 9.085-7.328 17.284-16.425 25.214-25.222 7.828-8.686 15.924-17.667 24.728-24.726 8.061-6.462 18.229-10.829 28.06-15.05 3.29-1.414 6.628-2.847 9.918-4.371 1.37-2.948 1.916-5.954 1.422-8.504-.47-2.433-1.87-4.37-4.176-5.782-.39.603-.818 1.2-1.241 1.788-.802 1.119-1.712 2.387-1.938 3.187a2.548 2.548 0 01-4.238 1.13l-1.275-1.246c-6.569-6.402-16.495-16.077-17.619-25.504-1.373-11.515 5.117-17.24 10.841-22.292 1.452-1.28 2.86-2.523 4.156-3.838-3.171.01-6.379-.103-9.608-.35a2.551 2.551 0 01-2.199-3.426c3.818-10.337 6.74-15.175 14.211-23.53 3.708-4.145 6.299-8.62 9.043-13.36 2.283-3.943 4.644-8.022 7.748-12.024 7.863-10.14 28.395-23.424 44.943-20.908 7.101 1.08 12.49 5.056 15.727 11.56 5.861-2.68 11.708-2.684 17.419 0 13.563 6.375 22.745 27.126 24.68 39.146 1.424 8.843.842 17.47.282 25.812-.99 14.71-1.925 28.606 8.88 40.704a2.552 2.552 0 01-1.365 4.192c-.988.213-1.987.345-2.98.41 5.086.893 9.939 2.35 13.318 3.367 39.213 11.778 43.016 89.026 44.264 114.411 1.013 20.588 2.452 41.842 4.389 64.607a2.552 2.552 0 01.84 3.337c-.16.294-.32.58-.48.856 1.781 20.472 3.96 42.185 6.59 65.739 1.018 9.12 7.043 17.657 13.423 26.697 9.579 13.572 19.484 27.606 13.127 45.137a2.566 2.566 0 01-2.597 1.675c-9.581-.76-14.347-11.918-18.958-22.71-.328-.768-.658-1.54-.99-2.308a2.549 2.549 0 01-3.627 2.176c-18.923-8.86-19.684-29.539-20.355-47.784-.16-4.34-.31-8.44-.693-12.267-.473-4.735-1.216-9.885-1.937-14.866-1.008-6.99-2.052-14.218-2.402-20.617-.561-10.232 2.409-13.07 7.005-16.233 1.775-1.222 3.593-2.472 5.373-4.762-2.661.024-5.11.905-7.658 1.822-5.573 2.003-11.89 4.276-18.688-4.632-4.455-5.837-5.367-16.852-6.17-26.57-.283-3.406-.549-6.624-.946-9.059a153.42 153.42 0 01-.857-6.05c-2.497 11.334-5.476 23.316-8.614 35.41-1.358 5.228-2.43 9.358-2.92 11.643-4.01 18.691-6.713 40.831-7.821 64.025-.52 10.892.459 21.988 1.405 32.72.82 9.296 1.66 18.835 1.516 28.254.925.56 1.808 1.146 2.647 1.767a2.547 2.547 0 01.872 2.943c-5.219 13.962-6.728 33.582-8.06 50.892-.491 6.392-.956 12.428-1.577 17.94-2.845 25.279-4.183 47.728-4.204 70.647-.004 3.705.306 8.179.635 12.914 1.07 15.465 2.355 33.997-5.236 45.725.125.572.249 1.145.371 1.72 3.326 15.657-.18 31.359-3.569 46.547-1.409 6.308-2.74 12.266-3.601 18.201-3.206 22.093-4.968 45.338 3.788 65.647l.43.995c2.653 6.141 5.833 13.506 7.353 20.727 5.54-.705 10.196-1.9 11.336-2.689.425-.294 1.02-.516 1.538-.516h105.343a2.551 2.551 0 011.489 4.62c-1.912 1.375-2.641 2.451-2.167 3.197 3.592 5.656 32.515 9.189 40.192 4.91 3.758-2.094 6.69-4.724 9.793-7.51 3.867-3.466 7.864-7.053 13.44-9.352 1.948-.804 4.074-1.43 6.13-2.03 4.333-1.272 8.813-2.588 9.913-5.242.606-1.462.336-3.553-.804-6.234-5.735 3.063-15.339 4.284-24.965 3.862-2.348 4.769-6.491 8.03-10.53 11.21-.534.42-1.068.839-1.6 1.263a2.562 2.562 0 01-2.07.515c-3.802-.729-7.947-1.155-12.335-1.605-5.126-.526-10.427-1.07-15.24-2.15a2.546 2.546 0 01-1.94-1.967 2.552 2.552 0 01.992-2.579l1.459-1.056c4.788-3.451 11.242-8.104 12.14-13.21-.8-1.464-.04-2.535.386-2.976.514-.531 1.927-1.576 3.948.206.228.202.417.44.559.7 3.588 3.341 11.76 5.52 20.494 6.327-2.06-1.653-4.515-2.942-7.088-4.295-5.01-2.63-10.192-5.353-13.257-11.15-5.875-11.109-.891-16.311 3.504-20.901 1.953-2.037 3.973-4.146 5.365-6.891 6.195-12.208 3.207-30.697.57-47.01-1.243-7.695-2.418-14.964-2.65-21.327-.455-12.46 4.967-23.235 10.21-33.655 4.935-9.804 9.595-19.065 8.007-28.033-.646-3.652-1.744-7.049-2.905-10.644-1.785-5.528-3.63-11.246-3.97-18.354-.698-14.605 5.367-78.67 7.132-91.14 1.782-12.59 3.028-25.547 4.347-39.265 2.843-29.552 5.782-60.108 14.439-86.166a2.55 2.55 0 012.897-1.701c1.82.348 3.775.76 5.808 1.231.395-1.332.793-2.657 1.19-3.985-3.713-2.952-7.217-6.152-10.219-9.083-39.62-38.696-39.585-93.977-35.129-137.814 1.17-11.49 4.583-22.629 7.886-33.403.692-2.26 1.384-4.516 2.052-6.769.994-3.346 1.715-7.174 2.476-11.226 1.75-9.302 3.557-18.922 9.088-25.458 6.264-7.402 16.748-10.085 26.885-12.68 11.043-2.826 21.473-5.497 26.836-13.568a2.55 2.55 0 014.598 2.025c-2.937 11.865-.148 21.951 7.852 28.401 9.7 7.82 25.118 8.701 38.37 2.192 10.555-5.185 14.922-12.434 16.879-20.993-5.186 5.673-11.648 10.19-18.515 12.565-10.41 3.599-20.572 1.825-28.615-4.994-12.127-10.277-9.858-26.606-7.663-42.397 1.155-8.314 2.252-16.201 1.23-22.819-5.57-1.665-10.3-6.445-12.598-12.863-2.158-6.035-1.525-12.075 1.651-15.767 1.153-1.338 2.92-2.723 5.567-3.434-2.75-3.785-3.657-9.243-2.441-15.766 2.5-13.416 13.003-27.8 24.574-28.511 2.066-4.117 5.187-7.055 8.565-7.99 2.086-.58 4.192-.416 6.194.467.549-.846 1.241-1.78 2.306-2.371a2.55 2.55 0 012.283-.097c2.935 1.32 5.88 1.682 8.997 2.064 3.55.436 7.225.888 11.195 2.736 9.68 4.507 17.317 9.113 22.7 13.689.314.266.559.605.713.99 6.993 17.343 3.74 31.712-1.991 48.023a2.548 2.548 0 012.033 1.669c2.109 5.926 1.3 13.334-2.062 18.872-2.788 4.593-7.144 7.513-12.263 8.222a2.543 2.543 0 01-1.956-.546 2.546 2.546 0 01-.936-1.802c-.716-10.187.688-19.093 2.044-27.705 1.595-10.128 3.107-19.727.894-30.31-16.982 1.375-34.21-.537-47.064-5.205-7.304 18.495-13.083 47.28-6.444 71.078 3.647 13.07 15.45 18.887 24.91 18.743 10.253-.148 18.07-6.63 21.062-17.395.079-.313.16-.624.246-.935a2.548 2.548 0 014.933 1.284c-.08.319-.162.635-.247.947-1.326 5.238-1.844 10.635-2.146 15.98a2.545 2.545 0 013.058-.03c11.641 8.558 24.695 16.428 37.321 24.038 4.725 2.848 9.61 5.792 14.372 8.743 22.402 13.88 26.898 24.408 29.827 51.09 1.916 17.473 2.672 35.877 3.403 53.675.273 6.648.556 13.52.894 20.174 1.013 19.964-5.665 34.92-13.397 52.238-1.624 3.637-3.302 7.397-4.95 11.304-9.136 21.66-32.025 55.05-57.633 58.254-7.264.91-12.093-.55-14.35-4.336-5.423-9.11 6.838-27.655 19.862-45.87 1.9-2.655 3.539-4.95 4.455-6.395 4.98-7.856 8.407-15.992 10.819-24.556-1.446.616-2.793 1.35-3.952 2.281-3.49 2.805-6.32 7.148-9.057 11.347-1.927 2.957-3.918 6.015-6.151 8.547-2.462 2.79-6.858 6.303-11.948 10.372-8.658 6.92-20.516 16.396-21.538 22.34-1.13 6.56 2.69 10.562 7.115 15.196 5.556 5.82 11.853 12.417 5.902 24.226a37.304 37.304 0 01-3.41 5.475c.065.23.127.465.183.702a2.55 2.55 0 01-.733 2.442c-1.425 1.345-3.081 2.496-4.682 3.61-3.286 2.285-6.39 4.445-7.459 8.05-.327 1.101-1.369 1.822-2.5 1.824-.866-.019-1.701-.056-2.512-.108l-.8.623c-4.425 3.435-8.602 6.681-11.933 10.07a2.548 2.548 0 01-2.617.635c-3.266-1.076-8.116.8-12.394 2.454-4.821 1.866-9.374 3.628-12.998 2.017-2.528-1.122-4.122-2.762-4.735-4.878-.612-2.109-.139-4.317.86-6.553-2.342 1.693-5.269 2.883-9.097 2.83a2.545 2.545 0 01-1.84-.826 2.544 2.544 0 01-.665-1.903c.483-6.862 4.677-13.955 8.048-19.656l.627-1.062c1.756-2.983 2.362-4.988 2.724-6.185.357-1.18.76-2.515 2.234-3.071 1.525-.573 2.741.174 4.417 1.216.96.596 2.276 1.412 4.198 2.448 4.683 2.522 8.389 5.155 11.657 7.48 6.28 4.463 11.401 8.103 20.758 9.108 4.862-3.805 9.663-7.742 13.423-12.136-2.146-3.923-6.545-6.616-11.154-9.435-6.082-3.72-12.369-7.565-12.945-14.724a2.55 2.55 0 013.138-2.684c2.974.716 5.935 2.394 8.8 4.016 6.384 3.616 10.032 5.157 13.25 2.573-1.258-.894-2.568-1.849-3.923-2.836-11.387-8.294-26.982-19.653-39.28-14.679-4.764 1.927-8.736 6.416-12.577 10.759-2.147 2.426-4.353 4.921-6.725 6.993.281.413.438.904.442 1.418.043 6.21-3.438 11.365-9.805 14.518-6.904 3.418-15.808 3.745-22.236 1.168-4.304 19.819-5.633 39.558 1.57 58.312 1.586 4.13 3.215 7.87 4.79 11.485 6.855 15.741 12.27 28.175 3.046 49.64-8.064 18.765-24.099 88.642-18.276 109.492.987 3.537 3.707 6.734 6.588 10.12 4.127 4.85 8.395 9.868 7.666 16.434-.88 7.928-8.036 12.118-14.35 15.815-4.233 2.478-8.232 4.818-10.142 7.907-9.635 15.565-2.243 48.252 7.078 63.918.969 1.628 1.99 3.244 3.008 4.853 4.928 7.797 10.016 15.845 9.025 25.136l.073.071c6.694-25.913 10.353-51.913 14.217-79.358l.102-.727c1.112-7.887 1.133-15.79 1.156-23.434.012-4.322.024-8.791.24-13.129.39-7.837 2.921-14.865 5.369-21.66 1.893-5.254 3.68-10.216 4.588-15.579 1.334-7.884 2.837-20.948 4.578-36.073 3.64-31.639 8.17-71.013 14.002-86.938.352-.963.728-2.01 1.127-3.124 4.729-13.174 11.876-33.085 22.422-34.03 4.899-.44 9.385 2.977 13.692 10.442 5.765 9.996 8.084 33.373 10.54 58.121 2.055 20.742 4.182 42.191 8.38 50.9 5.673 11.772 7.492 24.663 9.25 37.127 1.216 8.618 2.473 17.529 4.997 25.95 1.147 3.828 2.912 7.436 4.78 11.256 3.127 6.391 6.36 13.002 6.417 20.657.042 5.762-1.082 11.457-2.171 16.964-1.175 5.952-2.391 12.106-2.153 18.406.444 11.68 3.418 22.43 6.295 32.825 2.94 10.628 5.982 21.617 6.464 33.814.338 8.549 1.569 14.561 3.741 18.21 6.96-4.628 16.56-8.04 24.342-10.808 3.647-1.296 6.887-2.449 9.096-3.455-.41-6.745-5.968-13.19-11.355-19.436-2.512-2.913-4.884-5.665-6.74-8.444-2.15-3.22-3.897-6.812-5.586-10.286-3.622-7.45-7.043-14.486-13.97-17.467a2.544 2.544 0 01-1.52-2.016c-1.055-8.163 5.83-12.125 11.903-15.62 3.62-2.084 7.364-4.239 9.125-7.05 4.936-7.875 3.575-17.256-3.387-23.342-3.037-2.657-6.603-3.909-9.749-5.014-3.676-1.292-6.851-2.407-7.65-5.57-.728-2.89.896-6.11 5.79-11.486 1.66-1.822 3.206-3.381 4.572-4.758 5.92-5.97 8.89-8.967 9.006-20.846.227-23.665-7.644-97.105-11.316-120.407-.934-5.923.393-16.747 2.073-30.45 2.998-24.461 6.954-56.734-1.285-72.748-7.26 1.797-15.959 2.192-21.979.001-5.196-1.888-8.064-5.587-8.075-10.416a2.55 2.55 0 011.786-2.44c11.313-3.548 20.298-2.642 26.702 2.693 1.445 1.204 2.726 2.613 3.855 4.2 2.843-.964 5.05-2.124 6.03-3.292a2.547 2.547 0 014.37.834c6.903 20.707 9.125 41.251 10.336 65.729.713 14.406.641 42.445.571 69.562-.066 25.94-.135 52.762.501 66.55.204 4.419.136 8.954.073 13.337-.123 8.289-.239 16.117 1.293 23.404.865 4.11 2.263 8.022 3.746 12.165 2.196 6.14 4.469 12.49 4.805 19.469.45 9.295.19 18.551-.06 27.503-.39 13.975-.796 28.427 1.529 43.112 1.078 6.815 3.804 11.459 6.69 16.376 2.024 3.448 4.117 7.013 5.853 11.548 3.71 9.699 1.345 24.727-.068 33.706a2.55 2.55 0 01-3.385 2.002c-8.82-3.194-18.101-1.08-26.289.785-8.428 1.919-16.391 3.733-22.277-.734-1.492 1.38-2.605 2.835-3.185 4.366-.78 2.056-.528 4.198.768 6.549 1.172 2.123 2.435 2.309 5.18 2.53 2.176.174 4.883.392 7.365 2.387 3.825 3.074 5.115 6.18 6.363 9.18.701 1.687 1.428 3.435 2.667 5.276 5.039 7.492 12.003 11.572 21.914 12.84 12.013 1.542 18.138-3.675 19.862-9.066 1.36-4.243.337-9.794-4.09-14.836-21.172 3.97-23.335 1.14-24.5-.383-4.041-5.286-4.904-9.364-2.562-12.117 4.27-5.02 16.227-1.065 21.029 1.509 3.07 1.646 5.64 3.49 7.755 5.457 4.778-.953 10.569-2.25 17.58-3.997a59.08 59.08 0 011.318-.323c.174-.038.353-.056.531-.056h127.501a2.549 2.549 0 012.365 3.502c-2.565 6.364-1.97 12.353 1.764 17.802 8.192 11.948 29.887 19.104 42.18 19.104.147 0 .293 0 .435-.003 5.46-.077 15.618-.222 17.68-3.954 1.292-2.339-.624-6.42-2.457-9.43-2.756-4.526-7.192-9.381-11.48-14.08-2.802-3.067-5.68-6.22-8.195-9.377-3.464 2.98-8.264 4.892-13.618 5.356-7.118.62-14.097-1.41-18.66-5.419-6.697-5.884-8.221-14.91-9.567-22.873-.47-2.776-.913-5.4-1.54-7.778-1.045-3.962-2.08-8.417-3.176-13.132-3.835-16.506-8.51-36.627-16.97-49.555-1.36-1.302-2.53-2.867-3.47-4.74a2.551 2.551 0 01.874-3.27 2.551 2.551 0 013.35.48 47.062 47.062 0 013.098 4.115c7.11 6.301 21.47 4.055 33.321 2.202.98-.154 1.934-.303 2.86-.442 1.016-1.808 2.107-3.554 3.19-5.288 3.312-5.302 6.738-10.785 8.157-18.035 2.063-10.532 2.286-21.85 2.502-32.796.484-24.504.983-49.845 22.136-67.772a2.559 2.559 0 012.534-.448 2.552 2.552 0 011.632 1.99c.665 4.16 1.354 8.339 2.043 12.528 5.283 32.066 10.738 65.209 7.219 97.869 19.255 7.748 38.486 11.03 55.858 9.524 1.507-6.42 2.86-12.899 3.836-19.376 3.408-22.632-1.029-43.114-6.724-65.633-5.525-21.846-2.934-42.433.741-65.153 1.042-6.436 2.85-13.594 4.64-20.574-36.402 16.622-88.092 13.09-124.417 3.96-3.378-.85-6.523-1.818-9.564-2.75-7.191-2.213-13.985-4.301-22.348-4.304-1.097-.017-2.186.006-3.239.027.34.616.672 1.262 1.004 1.944 5.082 10.48 7.856 23.204 10.539 35.507 1.007 4.621 1.958 8.985 3.024 13.231 4.219 16.81.926 34.439-2.258 51.488-3.553 19.018-6.908 36.983-.887 54.096a2.55 2.55 0 01-4.412 2.42c-12.571-16.041-14.974-44.01-16.239-68.97-.406-7.987-.485-16.059-.563-23.864-.16-16.358-.326-33.275-3.57-49.492l-.508-2.509c-1.542-7.555-2.472-12.116.131-15.303.945-1.16 2.22-1.964 3.93-2.517-3.728-2.568-7.959-2.283-13.34-1.914-5.342.366-11.398.778-18.259-1.624a2.55 2.55 0 01-1.61-3.095c10.124-36.212 23.992-85.806 23.895-129.507-.011-4.876.023-9.94.057-15.12.123-18.17.248-36.96-1.42-54.118-1.023-10.493-4.205-20.2-7.574-30.478-3.458-10.552-7.034-21.464-8.092-33.349-2.35-26.42.86-44.273 9.543-53.059 4.162-4.211 8.737-6.179 13.676-5.83 4.586.32 8.96 2.608 13.04 5.885a27.197 27.197 0 01-.674-3.309 2.549 2.549 0 011.339-2.603c9.477-4.992 16.516-15.08 18.367-26.331 1.66-10.093-.904-19.563-7.234-26.826-3.469.414-7.257-1.176-10.46-4.444-3.823-3.901-5.46-8.82-4.171-12.532.219-.63.599-1.429 1.254-2.224-8.96-4.21-13.868-15.172-12.85-29.868 1.132-16.343 9.98-32.828 23.036-33.602 1.847-3.64 5.343-6.414 10.421-8.259 14.71-5.35 40.279-1.496 49.175 3.85 9.582 5.757 17.651 19.147 19.624 32.56 1.485 10.094-.626 18.874-5.94 24.725a2.548 2.548 0 01-4.343-1.033c-4.311-15.53-8.269-19.944-26.197-19.33-2.365.083-5.255.46-8.316.86-8.303 1.084-18.91 2.469-25.674-1.822-.3 4.008-1.244 7.954-2.168 11.822-1.36 5.693-2.766 11.58-2.118 17.585 1.395 12.899 10.221 26.237 20.989 31.715 8.962 4.562 22.472 6.58 30.95.232 1.4-1.048 2.791-2.482 4.1-4.165.244-8.358 2.351-16.868 6.916-25.31a2.53 2.53 0 012.404-1.331 2.55 2.55 0 012.217 1.627c2.752 7.139-.85 18.63-6.448 26.656-.023 17.195 8.393 33.767 19.16 47.47 11.502-3.567 25.53.11 29.912 1.447 19.798 6.038 39.357 31.5 43.6 56.762 2.375 14.129-.332 26.422-7.658 35.574 7.827-3.728 15.767-6.528 21.835-4.35 3.182 1.142 5.566 3.52 7.083 7.066a2.551 2.551 0 01-1.342 3.348c-2.969 1.268-5.82 2.19-8.576 3.081-5.122 1.655-9.961 3.219-14.828 6.803-3.472 2.556-6.497 6.14-9.7 9.934-2.949 3.495-6 7.11-9.606 10.129-.133.112-.267.222-.4.331-2.004 13.597-2.098 26.683-.432 41.098 2.251 19.465 7.866 38.517 13.297 56.942 6.395 21.703 13.01 44.141 14.327 67.7.454 8.122-1.332 17.632-3.65 27.32a80.37 80.37 0 002.869-1.902 2.55 2.55 0 013.91 1.392c10.201 35.823 13.32 83.665 8.557 131.26-.374 3.732-.516 7.81-.667 12.127-.61 17.52-1.366 39.206-20.792 42.461a1001.94 1001.94 0 01-3.143 12.456c-2.249 8.759-4.577 17.815-6.304 26.739-3.976 20.513 3.31 32.957 25.143 42.952 2.265 1.035 5.665 2.292 9.6 3.744 1.881.695 3.847 1.42 5.852 2.182 12.052-1.104 24.302-1.178 29.645 1.192h49.11a2.549 2.549 0 012.43 3.32c-.929 2.931-.58 5.75 1.065 8.615 3.843 6.699 13.972 12.035 21.991 13.845 4.586 1.038 7.765.91 9.716-.383 3.113-2.066 4.109-7.624 5.487-15.314.014-.087.03-.175.046-.263a383.93 383.93 0 00-5.697-.102c-8.833-.116-16.46-.216-25.919-3.676a2.535 2.535 0 01-.832-.5c-11.973-10.799-8.433-30.28-5.31-47.468 1.38-7.604 2.685-14.784 2.702-20.873.031-12.514-1.807-25.401-3.585-37.866-1.466-10.274-2.982-20.898-3.5-31.482-1.12-22.882 2.047-44.733 5.107-65.863 3.789-26.148 7.366-50.845 3.42-77.092-.873-5.787-2.127-12.112-3.457-18.808-5.183-26.116-11.058-55.716.169-77.864a2.549 2.549 0 013.202-1.222c11.012 4.31 24.241 8.462 37.248 11.692 5.575 1.386 11.125 3.647 16.491 5.833 5.997 2.444 12.157 4.955 18.253 6.166a112.568 112.568 0 0110.064-11.053 125.58 125.58 0 01-6.108-2.697c-8.804 7.525-14.138 6.055-22.638 3.708-1.399-.386-2.91-.804-4.57-1.217a524.09 524.09 0 00-5.291-1.274c-18.903-4.48-42.427-10.056-40.507-34.405 1.47-18.63 7.755-47.118 20.63-66.097a59.8 59.8 0 001.716-2.72c1.684-2.786 3.274-5.418 7.342-7.768a2.55 2.55 0 013.823 2.287c-.223 7.18-1.3 14.598-2.34 21.771-2.07 14.264-4.21 29.013.332 42.333 6.215 18.223 23.836 28.591 39.865 36.88.248.129.495.255.744.383 4.771-4.905 8.352-12.36 10.668-22.212a68.848 68.848 0 01-.589-2.71c-1.512-7.73-1.809-16.687-.89-26.703-2.752-17.967-5.074-35.978 5.127-41.46a2.553 2.553 0 013.298.786c4.389 6.293 1.828 16.059-.43 24.675-.826 3.147-1.604 6.118-1.974 8.626a145.036 145.036 0 00-.885 7.22l.26 1.69c1.538 9.967 2.99 19.382 1.875 25.159a94.54 94.54 0 01-.554 2.681c4.54 17.794 16.81 34.412 38.875 31.25 8.973-1.285 15.437-4.93 19.211-10.835 4.754-7.432 5.26-18.581 1.43-31.396-7.123-23.826-11.023-41.476-.44-66.176.479-2.553 1.216-4.876 2.271-6.876-26.548 8.114-59.36 10.884-72.563 5.065-5.849-2.577-7.106-6.319-7.132-9.005a2.55 2.55 0 011.486-2.342c4.347-1.996 13.43-3.987 24.927-6.507 21.961-4.815 55.152-12.09 61.648-22.62.272-.44.49-.875.653-1.307-12.883-1.813-30.244 6.132-44.605 12.7-5.59 2.556-10.871 4.971-15.43 6.616-4.077 1.471-8.292 3.19-12.364 4.854-16.046 6.548-32.636 13.317-50.052 9.451-12.22-2.714-24.485-14.882-26.244-26.038-1.048-6.634 1.57-12.36 7.39-16.256l-.192.013c-5.712.354-10.802-1.723-13.634-5.557-4.244-5.745-4.473-19.538-4.64-29.608-.037-2.277-.07-4.243-.145-5.78l-.194-3.763c-1.113-21.439-2.073-39.953 12.173-57.521 13.15-16.213 16.587-35.73 20.226-56.393 3.837-21.776 7.804-44.292 24.164-62.421 7.271-8.057 21.213-15.785 32.753-14.242 5.829.78 10.542 3.816 13.755 8.826 6.051-2.508 11.531-2.378 16.314.395 11.175 6.48 17.466 26.599 19.23 61.505.195 3.876-.023 8.602-.253 13.605-.46 9.985-.98 21.305 1.786 27.735 2.808 6.525 7.557 8.346 13.06 10.456 4.985 1.91 10.634 4.076 14.856 10.113a2.549 2.549 0 01-3.9 3.258c-7.272-7.34-17.668-3.744-28.677.067-3.314 1.148-6.664 2.308-9.988 3.186-.16 10.249-.577 20.68-2.513 31.103 1.339-2.126 2.639-4.353 3.962-6.62 6.297-10.784 12.808-21.935 25.772-25.468 23.3-6.35 35.135 26.661 38.205 36.931 6.934 23.215 4.614 49.065-5.916 65.853l-.338.534c2.077 1.653 3.694 3.67 4.506 6.236 1.072 3.394 1.225 8.304-3.038 13.785.555 3.138.092 6.142-1.375 8.787-3.694 6.657-11.031 7.275-17.504 7.821-3.53.296-6.895.58-8.97 1.803a97.269 97.269 0 00-4.586 9.18c-1.984 12.29 2.556 32.04 5.029 42.789.427 1.856.812 3.531 1.123 4.972 1.723 7.955 3.767 16.217 5.741 24.207 3.673 14.863 7.472 30.232 9.67 45.227a2.547 2.547 0 01-2.522 2.92c-.158.013-.33-.003-.496-.003-.332 0-.664.004-.998.01.578 3.446.73 7.065.87 10.375.106 2.536.207 4.929.49 6.78 2.502 16.36 3.168 32.86 3.811 48.817 1.201 29.8 2.336 57.946 14.426 85.319 7.38 16.723 15.208 36.963 17.222 60.285.88 10.093.459 20.53.063 30.62-.522 13.275-1.058 27 1.326 40.032 3.43 18.723 12.097 39.28 19.733 57.418l1.16 2.749a2.553 2.553 0 01-.077 2.135 2.529 2.529 0 01-1.67 1.33l-1.134.277c-10.236 2.501-20.829 5.093-31.027 4-2.358-.248-3.735.038-4.958.29-.09.02-.192.04-.28.059.19 3.818 1.108 7.387 3.3 10.492 3.965 5.621 9.077 8.5 14.074 7.882 4.41-.542 8.234-3.742 10.682-8.873a24.45 24.45 0 00-1.11-.73c-7.342 2.282-14.85 3.497-20.599.623a2.537 2.537 0 01-1.39-2.553c.052-.514.052-2.712 0-3.177-.14-1.23.625-2.414 1.811-2.765 6.616-1.966 14.15-1.052 20.727 2.332 2.779-.94 5.532-2.005 8.107-3 6.692-2.587 11.587-4.487 14.978-3.814h60.638c.906 0 1.747.484 2.206 1.272a2.529 2.529 0 010 2.548c-5.112 8.895-4.78 19.236.828 25.73 4.768 5.528 12.238 6.836 20.498 3.597 6.386-2.51 9.318-6.885 12.709-11.949 1.937-2.907 3.951-5.912 6.768-8.885 1.352-1.416 2.945-2.733 4.5-4.005 3.098-2.549 6.297-5.182 6.552-8.005.09-1.062-.23-2.246-.956-3.536-1.517 1.879-2.906 4.109-4.36 6.43-2.995 4.784-6.08 9.733-10.962 12.77-7.33 4.557-28.834 6.658-34.583-1.815a2.542 2.542 0 01-.115-2.695c1.046-1.835 2.053-3.952 3.123-6.191 3.57-7.488 7.61-15.972 15.565-19.35 4.104-1.745 10.044-1.34 16.329-.91 5.175.354 10.529.72 14.29-.236 13.894-3.525 12.696-16.127 9.28-34.95-.79-4.37-1.607-8.89-1.976-13-1.62-17.943 1.886-33.657 5.608-50.292 1.377-6.156 2.792-12.523 3.94-19.033.93-5.28 1.886-10.568 2.855-15.867 4.678-25.837 9.522-52.552 11-79.11 1.517-27.19 8.86-49.925 16.623-73.994 1.988-6.17 4.053-12.55 5.99-18.976a2.547 2.547 0 013.048-1.74 2.553 2.553 0 011.899 2.953c-3.99 21.03 2.256 46.268 7.776 68.533.917 3.686 1.81 7.282 2.626 10.75 3.569 15.178 8.719 30.304 13.703 44.93 2.575 7.595 5.252 15.45 7.66 23.187 7.305 23.445 6.655 45.977 5.967 69.832-.153 5.481-.32 11.15-.37 16.794-.102 10.234.752 20.719 1.58 30.859.944 11.475 1.913 23.31 1.48 34.75 11.23-.51 25.506-3.563 35.373-9.442-2.46-12.662-6.132-25.848-12.187-35.71-11.663-18.977-6.284-31.533.523-47.43 1.542-3.595 3.136-7.314 4.704-11.426 15.258-40.229 6.335-82.524-2.282-123.426l-.255-1.19c-.816-3.931-1.76-7.866-2.753-12.033-4.067-17.054-8.273-34.69-5.112-52.991 3.047-17.624 14.621-36.706 26.846-54.779-5.24-4.105-10.287-11.102-14.418-18.584-19.987 10.142-56.47 6.586-73.015 4.974-1.211-.118-2.435-.232-3.672-.348-15.182-1.42-32.02-2.997-42.703-12.789-5.672-.627-11.243-1.597-16.495-3.085-1.172 8.602-8.846 24.299-13.346 30.07-4.117 5.285-8.451 8.266-12.913 8.899-1.53 30.273 12.543 62.158 43.761 99.486 24.679 29.53 4.27 62.884-13.754 92.312-7.763 12.698-15.105 24.69-18.751 35.796-6.833 20.828 2.511 46.4 8.694 59.79.905 1.962 1.95 3.958 3.059 6.072 4.69 8.97 10.02 19.135 4.742 28.73-3.493 6.339-11.256 10.378-18.101 13.943-3.225 1.678-6.272 3.261-8.579 4.912a2.562 2.562 0 01-2.728.155 2.562 2.562 0 01-1.3-2.396c.74-11.257.268-22.855-.23-35.135-.586-14.37-1.185-29.23.306-43.605.803-7.745 2.04-15.79 3.225-23.567 3.264-21.356 6.642-43.439 2.295-64.143-1.275-6.044-2.69-11.888-4.041-17.543-4.755-19.72-9.242-38.35-6.845-60.734 2.575-24.026 4.245-55.565-5.736-86.428-2.231-6.906-2.894-11.313-1.925-15.367-5.367-6.135-10.02-15.17-14.315-24.553-14.048-30.627-13.283-55.544-11.537-86.237-8.77-2.69-12.887-6.026-11.102-18.433 2.422-16.823 8.77-38.688 18.865-64.987a194.935 194.935 0 001.747-4.828c2.791-7.947 6.284-17.838 11.46-22.584 4.32-3.969 10.847-6.607 17.17-9.157 3.76-1.518 7.317-2.952 10.134-4.56 4.36-2.479 9.599-6.87 15.144-11.52 10.848-9.085 23.008-19.279 34.302-20.106.676-.7 1.237-1.422 1.62-2.173 2.077-3.963 1.376-12.253.853-18.308-.05-.612-.102-1.207-.153-1.783-.038-.2-.063-.398-.102-.597-5.85-.852-9.687-5.548-11.013-10.324-1.428-5.176-.166-10.19 3.161-13.297-5.086-7.749-5.991-16.23-2.613-24.675 5.902-14.763 22.868-24.864 35.845-26.874 11.077-1.716 20.332.555 27.496 6.752 8.732 7.55 13.983 21.104 14.723 37.654.637-.078 1.3.084 1.848.49 9.892 7.422 3.06 20.79-1.466 29.636-.79 1.536-1.53 2.986-2.09 4.228a2.558 2.558 0 01-2.792 1.449 11.383 11.383 0 01-1.415-.374l-.013.043c-.433 1.25-.88 2.544-1.35 3.865-.422 12.16-1.225 24.44-4.59 35.433-2.205 7.216-5.481 13.576-9.101 19.55.968-.29 1.963-.52 2.97-.689 7.775-1.286 15.819 1.345 22.575 7.157-.217-2.392-.37-4.936-.523-7.544-.153-2.5-.306-5.072-.522-7.613-5.29-4.974-8.477-12.375-8.248-23.922a2.57 2.57 0 011.402-2.227 2.553 2.553 0 012.626.203c6.094 4.34 8.12 13.555 9.09 23.296 6.538 5.292 16.52 7.083 27.814 9.11l1.567.282c20.906 3.773 27.624 21.858 34.112 39.347l1.173 3.127c9.33 24.893 14.047 45.814 14.022 62.179-.013 9.728-1.454 16.323-7.827 20.373-.026 6.237 1.109 13.31 2.218 20.247 1.657 10.317 3.365 20.985 1.542 29.69-3.798 18.167-15.653 36.464-25.15 50.485.472.608.65 1.417.446 2.202-1.58 6.03-3.735 12.02-5.813 17.813-3.135 8.722-6.386 17.74-7.826 27.25-2.41 15.883-3.264 32.865-2.46 49.106.637 13.03 2.893 26.178 5.086 38.894 1.72 10.045 3.505 20.432 4.487 30.746 1.567 16.339 1.784 31.687 2.014 47.938.14 9.58.28 19.486.726 29.604.332 7.527 1.466 16.153 2.677 25.287 2.792 21.035 5.953 44.876-.42 61.899-1.785 4.76-5.316 8.718-9.854 11.96a359.93 359.93 0 011.925 12.032c.089.68-.09 1.37-.51 1.913a2.514 2.514 0 01-1.708.98c-4.538.547-8.184.007-11.396-.469-5.851-.865-9.076-1.342-13.844 5.093-6.144 8.301-4.78 14.926-.828 22.32a31.476 31.476 0 002.422 3.775 4.97 4.97 0 01-.268-.559c-1.415-3.11-2.04-8.28 2.983-15.24 7.66-10.646 20.752-9.948 29.663-4.795 5.01 2.896 9.483 7.59 11.498 13.21 1.822-1.268 5.162-3.84 7.941-5.977 7.202-5.552 7.266-5.555 8.337-5.596l74.469-.001a2.551 2.551 0 011.976 4.165c-4.118 5.026-4.92 9.947-2.384 14.625 4.04 7.458 15.564 12.307 22.805 11.517 10.414-1.148 17.45-5.89 25.609-11.384 3.53-2.377 7.176-4.836 11.32-7.132 1.185-.658 2.625-1.382 4.155-2.15 6.692-3.36 16.8-8.435 18.662-14.912.675-2.343.216-4.768-1.403-7.417-.293-.5-.726-.979-1.274-1.439-4.819 11.916-24.054 22.292-33.003 26.581-4.907 2.351-24.997 8.466-33.818 1.515-2.422-1.91-4.997-5.64-3.505-12.574.815-3.853 7.712-9.346 23.9-20.996 5.303-3.824 10.326-7.437 11.92-9.065a2.535 2.535 0 012.65-.628c2.168.747 5.597 1.491 9.56 2.355 6.132 1.335 12.723 2.765 18.064 4.82-1.479-7.446-9.612-8.338-21.428-8.763-5.813-.21-11.32-.408-15.03-2.315a2.55 2.55 0 01-1.376-2.017c-1.109-11.172 1.135-22.954 3.289-34.35 2.103-11.102 4.283-22.584 3.238-33.156-1.148-11.736 1.44-23.156 3.938-34.2 2.473-10.907 4.819-21.207 3.774-31.644-.383-3.893-.918-7.6-1.44-11.187-1.174-7.988-2.27-15.533-1.683-24.37.318-4.696.815-9.103 1.3-13.364.765-6.776 1.491-13.175 1.504-20.5.025-15.14-2.307-29.033-4.767-43.744-1.377-8.247-2.805-16.774-3.76-25.453-3.787-34.562-.32-60.464 10.312-76.981a2.567 2.567 0 011.771-1.141c.74-.11 1.48.103 2.027.582 32.047 27.326 78.115 23.526 112.902 7.027-1.058-3.792-1.402-7.482-.905-11.703-26.132 12.126-65.444 13.135-90.314 5.316-22.027-6.927-22.18-13.207-19.299-32.014.178-1.192.37-2.442.56-3.756 2.028-13.745 1.824-37.282-4.626-48.838-13.997 4.243-24.896 3.055-32.455-3.54-15.054-13.135-11.32-43.288-9.012-55.644a2.575 2.575 0 011.555-1.896 2.553 2.553 0 012.435.285c.752.541 1.53 1.045 2.333 1.514.025-.29.102-.58.242-.858v-.001c.013-.026.025-.053.038-.077 5.112-10.695 12.059-21.17 18.764-31.3 4.806-7.238 9.764-14.722 13.933-22.126.777-1.355 1.466-2.613 2.116-3.782 5.379-9.709 7.84-14.14 18.865-19.873 6.693-3.482 16.814-8.743 23.417-13.838a2.553 2.553 0 013.837 3.175l-1.797 3.513c-3.825 7.453-7.75 15.097-10.632 22.961 6.31-4.637 13.296-7.521 21.467-2.702-3.2-11.135-6.807-23.742-4.857-35.275a2.567 2.567 0 011.351-1.843 2.56 2.56 0 012.295-.017c4.104 2.027 7.941 2.123 11.74.29 1.988-.953 3.862-2.364 5.621-4.111-6.705 1.38-12.658.02-17.705-4.042-12.633-10.18-16.062-34.947-16.1-47.978 0-1.133.752-2.132 1.835-2.452a2.552 2.552 0 012.869 1.069c3.594 5.617 5.366 11.359 6.921 16.424 1.81 5.93 3.391 11.05 7.355 14.688 3.863 3.547 7.802 3.352 14.328 3.02 5.405-.271 15.5-15.63 20.97-26.453a2.567 2.567 0 011.873-1.368c.013-.03.013-.06.013-.09 3.327-25.516.854-39.545-21.887-45.406-9.815-2.528-16.635-2.514-20.88.041-5.34 3.217-7.126 10.664-9.369 20.091-.982 4.097-2.09 8.742-3.633 13.452a2.528 2.528 0 01-2.639 1.749 2.554 2.554 0 01-2.307-2.184c-2.728-19.333-3.799-38.924 6.769-51.254 6.807-7.952 17.489-11.918 32.658-12.125 11.651-.164 27.598-.378 37.082 15.741 5.838 9.915 2.536 20.459-.383 29.761-.981 3.102-1.912 6.078-2.51 8.948 2.689.135 4.371 1.31 5.391 2.456 2.792 3.138 2.983 8.99.523 15.654-1.95 5.286-5.953 11.627-11.128 13.258-5.227 11.254-1.428 16.982 3.773 24.819 1.733 2.608 3.62 5.468 5.226 8.728.331.384.663.769.982 1.151 2.6 3.078 5.29 6.262 8.336 8.737 5.367 4.372 11.498 7.2 17.438 9.933 11.078 5.095 22.512 10.362 28.414 25.499 7.878 20.24 7.215 49.487 3.263 68.097-5.813 27.378-15.845 64.713-35.807 72.807a30.864 30.864 0 01-4.066 1.342c3.633 13.71 1.976 27.05-4.882 43.631a155.994 155.994 0 00-2.46 6.314 41.933 41.933 0 001.771-1.346 2.551 2.551 0 012.448-.404 2.514 2.514 0 011.632 1.866c1.262 5.846 2.345 13.465-.421 20.566a2.578 2.578 0 01-1.122 1.291 136.314 136.314 0 01-4.984 2.698c1.632 4.019 4.08 8.57 7.279 14.525l1.427 2.643c10.134 18.917 7.304 35.927 4.296 53.935-.675 4.043-1.377 8.222-1.937 12.472-.536 4.068-1.148 8.235-1.798 12.648-2.651 18.009-5.66 38.423-3.123 55.01 1.772 11.58 4.857 22.673 7.84 33.4 3.059 10.974 6.208 22.322 8.03 34.349.905 5.953 1.11 12.145 1.313 18.134.23 7.07.472 14.38 1.887 21.114.867 4.175 2.141 8.374 3.365 12.434 2.397 7.936 4.87 16.145 4.87 25.269 0 7.122-1.492 13.974-2.932 20.6-1.326 6.103-2.575 11.87-2.728 17.75-.166 6.274 1.224 12.087 2.702 18.24 1.683 7.048 3.43 14.339 2.74 22.524a2.568 2.568 0 01-1.478 2.108 2.55 2.55 0 01-2.562-.263c-10.057-7.355-21.275-8.064-32.964-7.114-.09.11-.179.22-.255.334-3.034 3.959-4.73 10.26-6.374 16.352-1.045 3.834-2.116 7.797-3.518 11.133-1.134 2.676-2.447 5.044-3.722 7.335-3.327 5.962-5.736 10.269-3.008 16.112 4.028 8.63 15.016 9.16 23.964 6.778 7.483-1.99 15.526-9.765 20.51-19.806 3.774-7.617 5.176-15.283 3.99-21.229-.65.324-1.3.653-1.963.994-2.473 11.364-10.797 28.598-21.72 32.289-4.258 1.432-10.734 1.471-17.516-6.492a2.578 2.578 0 01-.19-3.054c4.83-7.344 20.038-18.226 34.863-26.043.102-.703.166-1.366.204-1.979a2.539 2.539 0 012.345-2.404c2.053-.153 3.735-.145 5.647.037.166.016.344.05.51.1 8.91-3.968 16.84-6.22 21.122-5.129h121.048a2.553 2.553 0 012.549 2.55 2.554 2.554 0 01-2.55 2.55h-121.404c-.28 0-.548-.043-.803-.129-2.97-.979-9.586.976-17.412 4.48 1.873 7.299.42 16.482-4.156 25.725-5.685 11.47-14.787 20.08-23.76 22.469-3.264.868-6.77 1.391-10.211 1.391z"/></svg>