<svg xmlns="http://www.w3.org/2000/svg" width="1000" height="570"><defs><linearGradient id="a" x1="26.74%" x2="75.412%" y1="93.581%" y2="93.581%"><stop offset="0%" stop-color="#A2BB68"/><stop offset="100%" stop-color="#D7478C"/></linearGradient></defs><path fill="url(#a)" fill-rule="evenodd" d="M399.808 26.231a7.06 7.06 0 00-1.606.203c-7.53 1.765-15.834 20.355-17.988 29.411-2.147 9.017-5.856 30.821 6.027 38.548 5.905 3.84 12.438 4.05 19.41.621 2.764-1.357 5.627-3.313 8.504-5.79 1.673-3.223 3.173-6.48 4.279-9.747 3.002-8.888 6.485-17.643 9.852-26.109 1.28-3.215 2.596-6.52 3.873-9.81-7.824-.413-15.747-3.407-22.025-8.375-1.761-1.39-3.103-3.081-4.29-4.573-2.186-2.75-3.614-4.379-6.036-4.379zm50.158 80.84c.412 4.473 1.796 8.595 4.73 11.794 2.7 2.94 7.075 4.596 11.674 4.887-3.16-6.476-12.225-13.465-15.985-16.362a54.542 54.542 0 00-.42-.319zM346.94 117.177c1.693.075 3.431.132 5.247.191 8.388.275 17.89.586 26.269 2.952 6.443 1.82 11.58 4.666 15.517 8.622-3.189-6.106-8.797-10.282-14.643-14.631-2.912-2.167-5.924-4.408-8.71-6.943-4.038-3.671-6.62-7.57-7.682-11.59-.8.76-1.625 1.526-2.463 2.303-6.224 5.78-12.651 11.744-13.535 19.096zm-55.978 19.063c-3.763 1.89-7.017 5.843-8.994 11.15-1.306 3.505-2.1 6.996-2.841 10.384 5.079-6.52 9.11-14.437 11.835-21.534zm267.98 17.596c-3.567 4.303-.08 9.722 4.489 15.816.26.349.516.688.76 1.018-.119-6.195-.457-14.838-5.25-16.834zm-84.46-26.582c.381 0 .755.149 1.032.432 2.103 2.128 3.328 4.929 4.518 7.637.987 2.256 2.012 4.59 3.512 6.413 2.473 3.009 6.12 5.966 9.336 8.574a286.82 286.82 0 011.928 1.57c2.028 1.671 4.089 3.338 6.079 4.95 6.094 4.93 12.373 10.013 18.271 15.655 2.025-7.433 1.12-16.442.242-25.18-.493-4.918-.961-9.562-.926-13.909.03-3.513-.364-6.962-.744-10.297-.874-7.67-1.697-14.913 2.218-22.609 4.14-8.134 12.003-27.554 1.864-42.089.487 3.583 1.213 7.342 2.448 10.844a1.453 1.453 0 01-2.419 1.484c-2.067-2.162-5.305-4.367-8.736-6.702-8.38-5.705-18.574-12.642-17.094-23.156-17.791 15.031-14.292 34.768-7.827 58.735 2.6 9.644.207 17.791-6.743 22.94-2.957 2.192-6.959 3.593-11.157 4.014.003.037.01.075.013.113a8.892 8.892 0 01-.071 2.828 43.514 43.514 0 013.589-2.084 1.45 1.45 0 01.667-.163zm133.473 79.153c.142.5.306.985.493 1.453l-.493-1.453zm63.856 8.043c.884 0 1.552.588 1.98.968.13.114.333.294.452.37 2.541-.781 3.67-4.333 4.766-7.77.439-1.383.868-2.731 1.39-3.945-1.645-15.97-8.826-34.067-20.355-42.817-8.084-6.138-17.29-6.966-27.359-2.463-10.886 4.869-19.59 18.372-23.382 29.594a41.327 41.327 0 00-1.819 7.959 544.727 544.727 0 014.33 12.41c.52 1.548.904 2.99 1.165 4.346.826.442 1.745.781 2.76 1.022.987.235 2.548-.255 4.057-.727 2.21-.692 4.492-1.408 6.44-.465.52.251.99.52 1.41.803-2.668-6.077-4.145-13.134-4.116-19.855.04-8.573 2.516-15.522 6.972-19.57a1.45 1.45 0 012.425 1.163c-.251 4.09.568 6.95 2.438 8.498 3.931 3.26 12.625 1.06 19.613-.708 1.367-.347 2.664-.674 3.918-.965a1.454 1.454 0 011.642.793c.719 1.524 1.664 2.951 2.663 4.462 1.12 1.69 2.277 3.439 3.096 5.342 1.387 3.221 1.458 7.149 1.529 10.948.07 3.813.138 7.416 1.496 9.777.222.39.567.775 1.003 1.145a8.72 8.72 0 00.86-.217c.22-.068.43-.098.626-.098zm5.308 3.081c1.164.156 2.287.149 3.248-.076.225-1.76.351-3.611.387-5.53-.836 2.222-1.91 4.309-3.635 5.606zm-403.603-7.426c.577 5.945 1.764 11.107 5.089 13.108 2.834 1.707 7.397 1.127 13.556-1.723 5.315-2.46 16.137-10.34 21.548-15.854-3.947 2.51-8.462 3.762-13.502 3.721-2.69-.02-5.379-.227-7.978-.428-5.675-.437-11.038-.85-16.382.527-.78.202-1.557.418-2.331.649zm356.6-30.885c-2.368 3.604-3.654 8.671-3.684 14.673-.032 7.438 1.894 15.305 5.29 21.585 2.36 4.364 9.019 14.207 19.893 11.388 3.012-.782 5.163-3.063 7.443-5.48 2.009-2.129 4.082-4.33 6.846-5.495.41-.173.793-.313 1.154-.427a5.04 5.04 0 01-.251-.398c-1.732-3.008-1.806-7.157-1.884-11.17-.064-3.518-.132-7.156-1.293-9.854-.716-1.665-1.75-3.23-2.847-4.887-.803-1.21-1.626-2.454-2.335-3.767-.887.215-1.806.447-2.76.689-8.017 2.03-17.108 4.33-22.177.129-1.886-1.565-3.022-3.906-3.396-6.986zm-60.61 16.215c-.116.698-.238 1.409-.361 2.135a215.533 215.533 0 00-.906 5.593c-1.22 8.453 3.699 12.731 9.922 18.147.787.684 1.59 1.382 2.396 2.103 1.516 1.354 3.022 2.806 4.509 4.275-3.245-5.58-6.311-11.293-8.975-17.182-.358-.793-.722-1.594-1.09-2.404-1.844-4.052-3.78-8.312-5.495-12.667zM342.37 169.772c.032 0 .06.001.093.003 2.912.182 4.886 1.272 5.86 3.238 2.805 5.663-4.041 16.723-12.583 29.527-2.906 4.355-5.65 8.468-5.999 9.952-1.086 4.653-.31 8.77 2.316 12.238 3.167 4.182 8.978 7.21 15.72 8.325-10.28-11.064-4.64-21.057.832-30.747 2.148-3.803 4.367-7.736 5.786-11.86 1.828-5.312 2.183-13.28-1.361-18.22-1.912-2.665-4.734-4.017-8.384-4.017h-.081c-.429 0-.839-.192-1.116-.525a1.445 1.445 0 01-.306-1.202c1.248-6.456-1.767-13.004-8.272-17.964-7.942-6.055-18.445-7.835-25.54-4.329a1.452 1.452 0 01-1.935-.64c-2.96-5.78-7.226-8.812-12.009-8.531-.31.018-.619.05-.925.094-3.357 9.39-9.123 20.639-16.72 28.661-1.084 4.206-2.57 8.474-5.334 12.715-2.912 4.47-6.221 7.327-9.725 10.352-.818.706-1.658 1.43-2.507 2.189.916 1.553 2.475 2.826 4.404 3.57 2.452.943 5.07.9 7.183-.12 4.55-2.197 5.147-6.836 5.775-11.749.297-2.299.603-4.677 1.335-6.827 2.358-6.91 7.804-11.27 13.074-15.484 2.59-2.073 5.098-4.079 7.146-6.308a154.632 154.632 0 003.753-5.685 1.45 1.45 0 012.567 1.332c-.964 2.292-2.37 4.295-4.018 6.122-.622.902-1.267 1.818-1.928 2.739 7.884-3.571 17.413-6.515 25.379.443 8.042 7.027 5.775 19.815 2.454 29.305-2.448 6.992-5.744 12.479-9.8 16.307l-.078.072c.19.063.365.165.52.302 2.295 2.074 5.51.833 7.226-.091 3.328-1.795 6.76-5.672 6.372-8.173-.051-.338-.21-1.367-2.48-1.8a1.452 1.452 0 01-1.01-2.107c1.652-3.1 3.793-5.794 5.867-8.4 2.95-3.706 5.737-7.208 7.059-11.668a1.45 1.45 0 011.39-1.039zm-83.952 33.353c-4.654 0-9.09.2-13.539 2.799-13.92 8.132-26.434 27.218-28.166 42.551 5.464-6.072 11.292-12.13 17.52-17.75 12.483-11.26 24.374-18.719 36.199-22.686-.123-1.657-.213-3.34-.303-5.013l-.039-.71c-3.544.838-7.023.824-10.403.812l-1.27-.003zm340.007 40.771c1.3 2.064 2.624 4.176 3.934 6.282 1.29-4.147 3.263-8.287 5.604-11.899 4.376-6.75 9.52-11.168 14.557-12.699.322-.461.658-.921 1.006-1.38.335-.439.69-.875 1.064-1.336 1.361-1.676 3.054-3.76 2.744-5.16-.17-.757-.964-1.484-2.36-2.16-.913-.442-2.638.1-4.308.623-1.884.589-3.831 1.2-5.595.78a15.557 15.557 0 01-1.67-.495c.341 6.291-2.107 10.656-4.828 15.508-2.051 3.656-4.17 7.438-5.556 12.69-.12.446-.439.81-.868.981-.426.168-.91.126-1.3-.116a43.42 43.42 0 01-2.424-1.619zm109.25 15.191h176.943l-2.583-17.07H702.057l5.618 17.07zm-387.924-37.9c-.725 0-1.509.193-2.373.581-8.568 3.853-4.466 21.477-2.496 29.948.168.725.322 1.396.458 1.996a52.663 52.663 0 011.286 11.876c2.335-2.902 9.275-4.63 14.012-4.411.913.041 1.967.17 3.08.306 5.085.619 9.38.877 10.416-2.293 1.109-3.402-6.43-13.223-10.48-18.499-2.032-2.647-3.638-4.74-4.445-6.147-.751-1.306-1.422-2.83-2.134-4.443-1.59-3.597-3.39-7.673-5.998-8.673a3.667 3.667 0 00-1.326-.242zM59.31 266.122h142.214l.64-.761c3.782-4.495 7.769-9.232 11.977-14a1.455 1.455 0 01-.485-1.168c.904-16.46 14.532-37.88 29.758-46.776 5.535-3.234 11-3.212 16.284-3.192 3.893.013 7.57.03 11.294-1.173.429-.138.893-.07 1.264.184.37.253.603.664.632 1.112.048.837.094 1.678.139 2.52.077 1.429.155 2.866.251 4.282a66.424 66.424 0 011.845-.504c5.81-1.5 11.667-1.048 17.33-.611 2.55.197 5.192.4 7.778.42h.2c11.128 0 19.245-7.079 24.13-21.045 3.025-8.646 5.199-20.202-1.622-26.162-7.987-6.977-17.758-2.226-26.381 1.966l-1.061.516a1.455 1.455 0 01-1.758-.387 1.45 1.45 0 01-.245-.441c-4.86 3.889-9.826 7.94-11.87 13.939-.639 1.873-.913 4.004-1.203 6.26-.667 5.209-1.428 11.112-7.394 13.992-2.832 1.368-6.29 1.445-9.487.214-3.032-1.168-5.398-3.382-6.49-6.074a1.451 1.451 0 01.364-1.617c1.155-1.056 2.284-2.03 3.375-2.972 3.49-3.012 6.504-5.613 9.19-9.74 1.558-2.39 2.677-4.777 3.544-7.186-2.512 2.05-5.185 3.714-8.002 4.848-.173.07-.357.105-.543.105H71.347L59.31 266.123zm544.347-7.455c-.177 3.447.436 6.404 1.91 8.429.428.59.896 1.032 1.405 1.348a53.966 53.966 0 00-3.315-9.777zm-164.198-2.331c7.337 2.466 14.002 6.474 18.072 12.46.755-.269 1.493-.6 2.215-.978-2.173-3.25-2.721-6.323-1.631-9.154 2.98-7.73 17.539-10.967 25.843-12.202-7.914-10.415-11.413-20.414-14.621-33.77l-.11-.45c-1.95-8.136-3.973-16.549-6.859-24.43-1.245-3.397-3.09-6.738-4.876-9.97-2.035-3.681-4.137-7.488-5.433-11.493-2.935-9.063.622-17.45 4.124-22.89a44.631 44.631 0 014.012-5.297l-.117.052c-2.199.981-4.469 1.996-5.662 2.933-6.024 4.737-10.239 10.77-12.883 18.443-5.002 14.51-5.008 28.762-5.018 43.85 0 1.183 0 2.37-.003 3.563-.035 13.274.522 31.301 2.947 49.333zm164.934-2.703c2.873 5.253 4.617 10.358 5.727 15.5.89-.032 1.876-.19 2.983-.406.351-4.22.625-8.583.806-13.104.329-8.342 1.344-17.106 5.869-25.584-3.618 2.272-6.93 6.04-9.381 9.82-2.935 4.527-4.976 9.347-6.004 13.774zm-197.217 7.904c3.409 0 6.74.26 9.92.883 5.346 1.048 10.322 3.386 15.134 5.646 2.296 1.08 4.495 2.116 6.713 3.012a236.808 236.808 0 01-2.112-12.55c-5.453-1.622-11.235-2.396-16.472-2.515-6.804-.155-13.837.92-20.641 1.957-1.774.271-3.606.552-5.395.803-1.787.252-4.267.423-7.14.62-9.187.631-24.566 1.692-28.168 7.148a6.3 6.3 0 00-.948 2.438c1.818-.361 3.666-.622 5.488-.877 1.174-.165 2.28-.32 3.377-.503 3.521-.584 7.188-1.325 11.07-2.109 9.326-1.883 19.568-3.953 29.174-3.953zm-90.992 10.821c1.667.642 3.318 1.2 4.327.713.336-.161.639-.465.906-.9-1.69-.47-3.882-1.29-4.95-2.676-.07.964-.167 1.915-.283 2.863zm294.49-.348c.536 3.128.871 6.284 1.116 9.509.387-3.18.742-6.44 1.051-9.786a20.74 20.74 0 01-2.167.277zm-299.911 1.757c-.348 0-.658.062-.91.203-1.254.707-1.409 1.513-1.406 2.138.013 1.677 1.397 3.815 3 5.563.612-2.46 1.141-4.924 1.531-7.423-.812-.278-1.58-.48-2.215-.48zm153.301-5.188c3.3 3.337 8.578 4.256 14.154 5.227 5.86 1.019 11.922 2.077 16.362 6.062 2.96 2.657 4.957 5.498 6.024 8.59 1.551-3.492 3.199-6.736 4.737-9.4 4.63-8.015 11.019-9.321 17.785-10.705 1.464-.3 2.957-.603 4.466-.983-5.444-1.89-11.467-2.954-17.333-3.989-4.26-.754-8.665-1.532-12.764-2.615-.89-.235-1.802-.493-2.686-.745-4.157-1.17-8.452-2.386-12.573-1.957-5.347.555-9.578 3.895-13.67 7.126-1.464 1.158-2.95 2.331-4.502 3.389zm229.351 6.568c-2.096 5.372-4.121 11.49-.993 15.127 2.293-4.586 2.673-10.6.993-15.127zm-466.4-5.198c-.431.752-.785 1.413-.968 1.893l-.49 1.267c-2.172 5.589-4.817 12.395-2.836 17.945 2.339-3.66 2.894-9.067 3.434-14.32.233-2.277.47-4.589.86-6.785zm391.138 47.975a1.448 1.448 0 011.393 1.048c.27.928.516 1.934.774 3.002.735 3.03 1.55 6.381 3.118 8.57.174-1.634-.348-3.424-.89-5.288-.713-2.444-1.448-4.969-.735-7.484a1.456 1.456 0 011.257-1.051 1.453 1.453 0 011.435.793c.497.99.916 2.1 1.361 3.273.99 2.615 2.006 5.308 3.802 6.304.616-2.95-.177-7.239-2.264-12.053a1.455 1.455 0 01.19-1.477 1.46 1.46 0 011.394-.532c5.295.932 5.991-.03 6.017-.071.036-.052.313-.574-.638-2.54-.774-1.594-2.055-3.529-3.409-5.576-2.796-4.227-5.688-8.597-5.969-12.402-.184-2.492.258-5.278.684-7.97 1.115-7.05 1.435-11.467-3.486-13.424-1.848-.732-4.04-.394-6.379.087-.81 9.045-1.95 17.444-3.199 25.367l.023.39c.02.313-.065.61-.223.861-.429 2.696-.87 5.334-1.319 7.926-.954 5.566-3.392 19.77 2.864 24.693.403-1.386.622-2.87.835-4.317.374-2.548.764-5.179 2.122-7.426a1.453 1.453 0 011.242-.703zm-29.075 14.852c4.805 1.467 10.284 1.98 15.318 1.457-5.673-1.554-10.929-2.04-15.318-1.457zm-139.825-49.158c1.503 6.623 8.288 13.53 14.866 20.224 5.086 5.176 10.342 10.528 13.109 15.775 1.419 2.689 2.963 5.423 4.46 8.07 2.212 3.912 4.469 7.904 6.449 11.986a136.457 136.457 0 00-.458-3.173c-2.66-17.016-11.896-29.775-20.583-40.013l-.207-.242c-4.324-5.1-10.706-12.627-17.52-12.627h-.116zm282.91 59.876H858.63l-2.151-14.617H732.164v14.617zm-729.26 8.03H114.6a1.45 1.45 0 011.442 1.615l-1.67 14.613 5.488-.139 1.327-12.601c.078-.738.7-1.3 1.443-1.3h62.575l5.98-13.155H2.902v10.966zm33.41 9.63l-.476 8.578 8.73-.22a126.906 126.906 0 00-8.253-8.357zm577.602-8.17c.394 0 .774.161 1.048.448 4.918 5.13 4.418 12.018 3.277 18.077l-.075.39c-.696 3.702-1.119 5.936-.525 7.452.558 1.425 2.19 2.63 6.014 4.45 5.795 2.756 15.763 6.023 19.461 3.717.632-.393 1.474-1.154 1.5-3.211.013-1.235-.558-2.396-1.748-3.554-4.324-4.201-14.518-6.178-18.549-6.017a1.452 1.452 0 01-1.386-.867c-1.032-2.354-.484-4.015.158-4.995 2.59-3.947 11.135-4.26 20.422-4.23 1.222.003 2.335.006 3.215-.016.045-1.79.032-3.657.016-5.611-.08-9.519-.17-20.308 7.472-26.854 3.347-2.866 7.307-3.979 11.77-3.308.742.11 1.48.267 2.219.47-.987-1.95-1.654-3.653-1.867-4.43-2.225-8-.149-16.106 1.864-23.945 1.196-4.67 2.434-9.5 2.692-14.15.052-.95.087-1.911.123-2.927.287-7.99.645-17.935 11.844-18.522 3.947-.2 7.35 1 9.875 3.444.045-.135.09-.264.129-.393 1.705-5.437 1.938-11.37.69-17.638-2.412-12.105-10.9-21.269-23.357-25.282-5.33 7.618-11.564 14.363-20.652 14.363-.715 0-1.444-.041-2.196-.129-5.101-.583-8.574-3.81-11.638-6.66-2.434-2.262-4.73-4.399-7.517-4.987-1.29-.274-2.596-.241-3.892.039-5.601 8.4-7.081 17.197-7.494 27.631a307.056 307.056 0 01-.742 12.385c2.415-.458 4.863-.7 7.191.226 7.437 2.954 6.292 10.19 5.282 16.574-.419 2.644-.812 5.146-.654 7.3.226 3.05 3.025 7.285 5.492 11.015 3.218 4.866 5.762 8.71 4.056 11.312-.967 1.477-2.989 2.022-6.427 1.69 1.387 3.833 2.645 9.173.961 13.22a1.455 1.455 0 01-1.522.884c-1.841-.236-3.199-1.187-4.256-2.48.345 2.006.3 4.085-.874 6.094a1.453 1.453 0 01-2.093.452c-2.977-2.116-4.28-6.05-5.26-9.874-.11.632-.203 1.28-.303 1.938-.326 2.212-.664 4.498-1.619 6.656a1.458 1.458 0 01-1.954.719c-9.955-4.782-7.081-21.518-5.856-28.666.442-2.57.884-5.192 1.31-7.865-16.125-17.815-31.116-24.516-55.012-24.661l-.496-.003c-22.541 0-36.75 9.519-48.214 32.548 3.531-1.148 6.982-.996 10.3.455 11.567 5.056 17.988 24.67 20.165 32.635 1.554-2.763 2.502-6.114 3.492-9.612 2.167-7.655 4.624-16.33 14.84-18.2 4.828-.883 10.29.652 14.25 4.002 2.89 2.448 4.747 5.092 6.54 7.645 2.338 3.328 4.554 6.485 8.913 8.749 9.8-3.248 22.351.844 26.398 2.36.587.22.964.79.942 1.412a1.444 1.444 0 01-1.048 1.338c-8.207 2.377-18.565 1.606-26.44-1.957-.929.377-1.79.826-2.57 1.348-3.918 2.602-6.024 7.046-6.266 13.198a26.73 26.73 0 00.133 3.689c2.799-.374 5.788-.032 8.542.284 2.044.232 3.976.45 5.801.435h24.105zm104.527 23.268c-1.051 4.298-1.68 8.86-.235 11.086.297.454.677.787 1.158 1.009.925-3.653 1.447-8.57-.923-12.095zm-145.84 16.816c2.423.016 4.683.229 6.66.645-.655-3.557-.8-7.127-.938-10.596-.09-2.26-.184-4.595-.42-6.875-.39-3.798-1.518-7.729-2.605-11.53-.835-2.906-1.683-5.87-2.241-8.865-2.774 1.277-4.738 4.208-5.505 10.37-1.116 8.964 1.37 17.964 5.05 26.85zm110.052-54.436c1.967 2.044 3.657 4.198 4.96 6.249 4.54 7.17 6.759 16.029 6.588 26.331-.036 2.35-.426 5.137-.839 8.084-1.177 8.413-2.512 17.947 3.432 21.633 2.982 1.848 14.36 3.499 17.542.955.503-.404.951-1.01.455-2.448-.868-2.512-4.492-3.086-7.997-3.64-2.261-.358-4.396-.694-5.873-1.6-4.011-2.46-4.353-3.282-4.46-6.803a43.855 43.855 0 00-.206-3.431c-.62-6.169.748-10.777 3.96-13.324 3.263-2.592 8.065-2.828 14.273-.706.864.296 1.664.651 2.402 1.064.307-1.003.61-1.95.887-2.812a73.09 73.09 0 00.803-2.592c2.302-8.42 2.738-16.771 1.367-26.277-1.693-11.763-3.653-22.159-10.483-30.275-3.612-4.295-10.626-10.531-15.115-10.093-1.477.142-4.566 2.122-6.636 4.737-1.17 1.484-1.77 2.886-1.639 3.854.268 1.954 3.828 4.436 6.692 6.432 2.625 1.835 5.105 3.564 6.291 5.427a1.448 1.448 0 01-.664 2.119c-3.157 1.322-6.81.425-9.958-.558.474 1.135 1.113 2.306 1.774 3.515 1.896 3.463 4.04 7.387 2.354 11.479a1.455 1.455 0 01-1.88.793c-.632-.251-1.255-.41-1.851-.56a16.872 16.872 0 01-1.542-.446c-.038.358-.097.693-.148 1.01-.094.544-.174 1.015-.148 1.496a1.46 1.46 0 01-.536 1.196 1.46 1.46 0 01-1.277.28 8.749 8.749 0 01-2.528-1.09zM441.207 470.94c-2.39 2.09-4.37 4.398-5.279 7.08a25.637 25.637 0 003.776-4.498 25.655 25.655 0 001.503-2.582zm454.08 13.433h57.33c.049-.106.094-.21.132-.316.636-1.674.22-3.434-1.27-5.382-3.799-4.966-10.732-8.08-17.436-11.092-9.555-4.295-19.44-8.739-20.81-18.79-.78-5.713-5.83-47.658 9.262-75.604-4.847 5.136-10.161 11.56-15.056 19.166-12.677 19.702-25.008 51.602-12.151 92.018zm-482.8-.761a80.593 80.593 0 00-.75 5.498c1.992-1.455 3.637-3.196 4.572-5.272-1.032-.171-2.335-.245-3.821-.226zm-122.482 4.04a38.66 38.66 0 00-.229 3.783c1.193-.6 2.264-1.274 3.154-2.003-.838-.722-1.832-1.309-2.925-1.78zm-17.446 6.137c4.054 1.144 9.652.528 14.318-1.13-.003-.09-.003-.18-.003-.267a42.135 42.135 0 01.32-5.652c-4.574-1.087-10.069-.726-14.138.267a170.096 170.096 0 01-.497 6.782zm162.876-11.541c.061.616.174 1.248.348 1.902 1.622 6.037 6.298 8.91 10.993 10.241-.928-4.798-1.141-10.189-.628-16.106.36-4.205 1.048-8.361 1.88-12.46-.14.097-.278.197-.42.294-.616.432-1.238.867-1.86 1.31a29.55 29.55 0 01-3.622 7.693c-1.976 2.992-4.266 5.25-6.691 7.126zm14.444 12.817c3.115.497 5.927.436 7.462.339 14.624-.919 20.48-9.66 27.894-20.727 1.132-1.687 2.299-3.431 3.528-5.185.27-.387.716-.62 1.19-.62.474.004.919.236 1.19.623.619.893 1.18 1.78 1.68 2.66 1.06-10.296 3.498-21.456 7.394-33.886 2.799-8.926 7.91-18.564 13.321-28.77 6.805-12.826 13.841-26.092 16.83-39.048 3.335-14.449.926-26.312-7.362-36.263-.458-.548-.945-1.148-1.46-1.783-3.744-4.624-9.365-11.557-14.976-11.557-.126 0-.249.004-.374.01-7.675.429-12.467 9.777-14.25 27.78.828 11.878.435 24.696-1.187 37.171-2.38 18.293-7.195 34.825-13.922 47.81-5.778 11.16-14.698 21.595-25.298 29.662-1.112 5.018-2.057 10.119-2.502 15.252-.535 6.208-.255 11.721.842 16.532zm-40.358-11.305c-6.253.507-14.263 2.296-19.416 5.234-1.929 1.1-4.309 2.873-4.692 5.065-.146.836-.12 1.71.045 2.612 4.77-.242 10.693-1.112 16.156-2.805 2.264-.703 4.74-1.635 7.04-2.85.157-2.29.444-4.705.867-7.256zM313.069 286.86c-.59 2.099-1.22 4.205-1.855 6.326-1.925 6.443-3.918 13.105-4.95 20.17-3.283 22.468 1.468 52.063 12.709 79.168 6.575 15.855 16.666 30.117 26.42 43.908 5.863 8.29 11.926 16.86 17.195 25.725 2.431 4.089 3.718 9.616 4.96 14.959 2.283 9.812 4.44 19.082 12.973 19.572.619.036 1.293.055 2.012.058-.155-1.073-.161-2.137.022-3.185.465-2.654 2.519-5.037 6.111-7.088 5.592-3.189 14.425-5.21 21.37-5.662 1.697-10.354.12-21.585-4.472-31.745-2.899-6.417-7.317-12.19-11.59-17.77-4.144-5.411-8.426-11.006-11.483-17.32-6.837-14.123-8.004-31.674-8.09-40.88-.14-14.678.928-32.5 10.492-40.068 4.357-3.447 10.042-4.34 16.895-2.653 11.054 2.721 20.21 8.474 27.204 17.1 5.979 7.37 10.548 17.066 13.58 28.82 5.556 21.543 5.162 46.317 4.875 64.403-.035 2.247 0 4.52.036 6.723.083 5.427.167 10.69-.723 15.752.2-.142.4-.28.594-.42.532-.377 1.06-.76 1.586-1.147.574-2.538 1.184-5.047 1.787-7.533.645-2.66 1.312-5.41 1.918-8.126 3.515-15.693 2.503-26.305-.593-40.4-.845-3.843-1.648-7.945-2.5-12.291-4.61-23.568-10.347-52.902-28.522-66.941-6.669-5.153-13.937-8.477-20.967-11.692-8.814-4.03-17.927-8.197-25.953-15.974-5.611-5.44-17.043-16.52-18.826-25.984-1.21.378-2.364.839-3.441 1.422-1.625.88-2.944 2.051-4.221 3.183-2.693 2.386-5.48 4.856-10.626 4.07-3.105-.475-4.676-1.568-5.61-2.219-.188-.129-.41-.284-.543-.355-.645.303-2.434 2.3-3.04 2.97-.99 1.106-1.761 2.202-2.439 3.173-2.724 3.885-4.753 6.072-11.831 2.225a9.585 9.585 0 01-.464-.274zM57.724 496.782h38.979l14.406-126.043-60.335 1.522a138.158 138.158 0 013.528 4.466c8.536 11.289 19.01 29.053 20.432 49.577 1.411 20.36-6.166 39.713-22.52 57.522-1.161 1.612-3.731 6.246-2.35 9.29.93 2.05 3.574 3.285 7.86 3.666zm353.757-4.04a48.824 48.824 0 00.084 5.62c.684-2.493 2.287-4.898 4.744-7.04 3.167-2.76 6.56-4.704 9.839-6.587 2.19-1.254 4.324-2.48 6.34-3.908.222-6.652 5.623-11.428 10.731-15.152 1.561-5.72 1.461-11.844 1.361-18.209-.035-2.221-.074-4.52-.035-6.813.574-36.05 1.532-96.39-43.45-107.46-6.021-1.48-10.732-.79-14.402 2.112-8.672 6.862-9.513 24.838-9.39 37.762.086 8.964 1.212 26.032 7.8 39.645 2.931 6.05 7.12 11.525 11.174 16.82 4.373 5.71 8.894 11.617 11.931 18.337 4.74 10.496 6.42 22.091 4.783 32.845 2.392.007 4.398.252 5.733.758a1.447 1.447 0 01.887 1.741c-1.013 3.689-3.78 6.907-8.13 9.529zm39.242 5.42c1.542 4.769 3.993 8.745 7.35 11.911 19.32-6.052 31.112-13.826 34.16-22.545.125-.352.232-.707.325-1.061a48.683 48.683 0 01-.251-7.291c.013-.28.025-.561.042-.845-.52-1.76-1.329-3.563-2.435-5.398a415.666 415.666 0 00-2.267 3.36c-7.55 11.267-14.07 20.998-30.126 22.01-2.402.15-4.672.1-6.798-.141zm-17.93-14.036c-1.715 1.128-3.469 2.134-5.2 3.127-3.158 1.813-6.424 3.686-9.375 6.26-3.302 2.875-4.666 6.084-3.937 9.266.938 4.108 5.182 7.668 11.073 9.287 8.485 2.331 18.946 1.957 29.562-1.041-2.616-2.76-4.673-6.017-6.156-9.755a36.506 36.506 0 01-1.223-3.64c-7.565-1.683-12.783-6.127-14.556-12.727-.071-.261-.132-.52-.187-.777zM272.257 496.71a151.375 151.375 0 01-3.88 21.04c-.428 1.66-1.025 3.46-1.653 5.369-1.79 5.423-3.818 11.572-2.58 16.235 1.042 3.915 3.402 5.978 7.013 6.127 6.305.267 15.183-5.679 17.279-11.557 3.03-8.5 1.548-17.703.113-26.605-.62-3.828-1.255-7.762-1.532-11.644a32.944 32.944 0 01-4.412 1.116c-3.85.7-7.413.657-10.348-.081zM598.04 525.48c-1.4 1.925-3.1 3.886-5.144 5.888-.812.796-2.263 1.748-4.105 2.954-3.657 2.399-10.467 6.858-9.161 9.464 1.335 2.657 7.14 3.305 10.712 2.595 8.672-1.712 8.788-7.845 7.943-17.738-.087-1.05-.178-2.112-.245-3.163zm-128.29 12.35c1.722 3.592 5.014 5.659 7.574 6.778 6.285 2.754 15.292 2.944 21.422.458 8.053-3.27 6.524-11.84 3.69-22.704-.19-.729-.378-1.441-.555-2.138-1.084-4.282-2.502-8.487-3.873-12.553-1.732-5.13-3.496-10.36-4.602-15.826-5.669 9.638-19.929 16.245-32.683 20.424a30.205 30.205 0 004.857 2.864c4.444 2.099 9.484 3.23 14.814 4.43 8.056 1.812 16.382 3.682 22.587 9.187.525.464.641 1.238.28 1.834-3.228 5.34-10.748 5.13-18.02 4.93-5.872-.16-11.931-.328-15.492 2.316zm-83.402-38.304c1.432 3.357 4.118 6.871 6.443 9.915 1.525 1.996 2.963 3.88 3.911 5.52 2.374 4.105 3.715 8.375 5.015 12.505.567 1.806 1.154 3.676 1.825 5.52 2.815 7.772 6.424 12.028 12.867 15.175 1.248.61 2.48 1.3 3.786 2.032 7.59 4.256 16.194 9.08 32.328-.197 4.25-2.444 9.078-11.599 7.462-15.971-3.928-10.654-12.57-10.386-21.719-10.102-5.182.16-10.541.325-14.788-1.758-7.45-3.656-12.17-9.741-14.038-18.086-.66-2.96-.97-6.198-.925-9.757-1.813.857-3.828 1.631-6.04 2.315-5.411 1.68-11.27 2.583-16.127 2.889zm184.356-103.5c-8.088.287-17.956 2.711-24.031 7.761-4.005 3.324-5.698 7.29-5.03 11.782.338 2.267 2.947 6.227 5.046 9.41 1.219 1.85 2.273 3.45 2.896 4.694 4.214 8.423 6.997 16.665 9.945 25.387.629 1.857 1.26 3.727 1.915 5.623 1.384 4.015 2.993 8.036 4.547 11.921 4.728 11.809 9.616 24.017 8.717 37.476-.255 3.818-1.351 8.683-2.512 13.836-2.538 11.273-5.702 25.306-.43 32.294 2.226 2.95 5.792 4.527 10.904 4.82 7.384.42 16.726-.812 19.284-9.08.928-3.005.874-6.72.819-10.309-.036-2.399-.071-4.882.187-7.168.11-.996.235-1.99.36-2.98.707-5.558 1.378-10.85-.473-15.906a26.455 26.455 0 01-1.983 5.272c-.133 2.293.087 4.885.312 7.54.368 4.326.752 8.799-.374 12.568-1.348 4.508-4.585 7.214-9.896 8.262-4.454.88-11.7.177-13.87-4.14-2.467-4.918 4.834-9.7 10.164-13.195 1.57-1.03 3.054-2.003 3.667-2.6 3.283-3.214 5.598-6.297 7.152-9.296.22-2.502.858-4.778 2.296-6.594 1.468-7.929-1.564-15.526-4.875-23.813-2.822-7.071-5.74-14.384-6.411-22.79-.316-3.986-.374-8.052-.43-11.983-.093-6.568-.186-13.36-1.511-19.827-1.768-8.636-6.008-17.29-10.497-26.451-2.022-4.13-4.066-8.303-5.888-12.514zm11.802 167.9c-5.93-.336-10.322-2.344-13.057-5.969-6.079-8.061-2.892-22.204-.084-34.68 1.135-5.04 2.21-9.799 2.448-13.39.854-12.799-3.696-24.168-8.513-36.206-1.57-3.917-3.193-7.967-4.599-12.053-.658-1.899-1.29-3.779-1.919-5.64-2.915-8.625-5.666-16.773-9.793-25.018-.545-1.087-1.603-2.696-2.725-4.395-2.37-3.599-5.06-7.678-5.492-10.58-.816-5.485 1.274-10.48 6.043-14.443 6.089-5.056 16.008-7.887 24.682-8.4-3.605-8.931-5.975-18.037-4.824-27.295.993-7.977 4.099-11.495 7.946-12.91a29.712 29.712 0 01-.184-4.483c.278-7.136 2.819-12.353 7.556-15.503.342-.226.693-.442 1.048-.642-3.744-2.447-5.905-5.527-8.007-8.52-1.69-2.405-3.438-4.894-6.043-7.1-3.312-2.805-7.856-4.095-11.851-3.36-8.44 1.542-10.445 8.63-12.57 16.133-1.339 4.73-2.722 9.622-5.811 13.204a1.452 1.452 0 01-1.448.464 1.455 1.455 0 01-1.064-1.086c-2.396-10.444-9.152-29.305-19.288-33.738-3.644-1.593-7.381-1.235-11.428 1.086a1.45 1.45 0 01-2.041-1.864c5.927-12.904 12.328-21.73 20.148-27.775 8.813-6.817 19.584-10.077 32.912-10.006 12.928.08 23.186 2.077 32.289 6.288 7.868 3.64 15.15 9.08 22.68 16.986l-.113-2.33c-.32-6.624-.616-12.809-1.722-18.87-1.635-.365-3.167-1.249-4.463-3.028-2.67-3.67-3.022-9.023-1.88-14.682a55.549 55.549 0 00-1.064-1.792c-1.629-2.632-3.3-5.285-4.915-7.852-1.383-2.2-2.78-4.418-4.17-6.65-1.864-1.76-3.679-3.583-5.472-5.385-2.319-2.329-4.715-4.737-7.094-6.865-.797-.712-1.59-1.402-2.367-2.078-6.344-5.518-12.335-10.731-10.887-20.75.293-2.037.61-3.883.912-5.668.478-2.78.897-5.23 1.084-7.538-1.46-4.437-2.554-8.916-2.954-13.32a36.9 36.9 0 00-2.009-3.084c-.397-.55-.835-1.134-1.293-1.747-4.096-5.464-10.287-13.722-3.618-20.257a1.45 1.45 0 011.36-.373c7.914 1.93 8.12 13.15 8.256 20.576.02 1.098.039 2.135.08 3.01.017.338.04.677.065 1.017 2.728 4.982 3.322 9.27 3.041 13.786 2.041 6.08 4.789 12.122 7.35 17.75.37.812.734 1.615 1.092 2.41 4.205 9.3 9.272 17.896 14.715 26.656 2.357 2.206 4.782 4.282 7.31 6.027 1.468-4.656 3.48-8.244 5.28-11.454 2.924-5.213 5.194-9.265 4.298-15.661-1.548-1.084-2.815-2.506-3.786-4.258-2.16-3.905-2.57-8.998-2.038-13.951-4.553-12.498-9.342-24.168-14.302-34.827-10.612-22.819-21.747-36.164-33.099-39.664-8.906-2.748-24.485-.809-29.625 8.59a1.45 1.45 0 01-2.67-1.091c1.76-6.204.964-11.561-2.36-15.923a1.45 1.45 0 011.782-2.187c7.45 3.583 13.26 3.503 17.275-.237 4.521-4.215 6.982-13.2 6.93-25.3-.051-11.195-2.247-21.77-4.27-26.856-5.981-15.062-16.716-33.173-33.872-33.92-7.543-.33-12.157 3.175-17.043 6.883-2.022 1.534-4.111 3.12-6.462 4.485C466.53 48.39 458.81 66.268 453.49 83.835c-1.757 5.793-3.557 12.888-3.657 19.565.8.551 1.577 1.115 2.325 1.692 6.911 5.33 14.805 12.069 17.369 18.646 3.718-.268 7.362-1.43 10.19-3.523 7.991-5.923 6.979-14.98 5.666-19.853-3.228-11.97-6.06-23.608-5.243-34.423.941-12.502 6.7-22.34 17.607-30.075a1.453 1.453 0 012.18 1.743c-2.035 4.86-1.377 9.152 2.07 13.51 3.144 3.978 8.023 7.3 12.744 10.511 1.9 1.294 3.744 2.549 5.395 3.8-.928-3.954-1.409-7.954-1.754-11.53a1.45 1.45 0 012.477-1.159c15.862 16.089 6.459 39.674 1.676 49.067-3.518 6.918-2.744 13.742-1.922 20.965.39 3.42.794 6.959.765 10.648-.032 4.19.425 8.759.91 13.595.999 9.936 2.03 20.21-1.1 28.649a1.453 1.453 0 01-2.384.526c-6.272-6.203-12.815-11.498-19.742-17.103a924.701 924.701 0 01-6.098-4.965c-.615-.508-1.257-1.027-1.909-1.557-3.324-2.695-7.09-5.75-9.751-8.984-1.758-2.134-2.86-4.654-3.931-7.091-.968-2.207-1.887-4.31-3.212-5.964-12.683 7.035-23.502 22.074-19.342 34.93 1.212 3.74 3.157 7.26 5.214 10.985 1.838 3.328 3.738 6.769 5.06 10.376 2.944 8.038 4.985 16.533 6.959 24.75l.106.449c3.315 13.81 6.937 23.904 15.63 34.632.333.41.417.967.22 1.457a1.454 1.454 0 01-1.17.897c-11.103 1.357-23.77 4.885-26.015 10.705-.741 1.928-.267 4.144 1.413 6.614 1.515-1.023 3.005-2.2 4.53-3.405 4.419-3.49 8.985-7.098 15.17-7.736 4.672-.484 9.242.803 13.663 2.05.87.246 1.77.5 2.638.733 3.98 1.05 8.326 1.818 12.528 2.56 7.443 1.316 15.14 2.676 21.819 5.714a1.45 1.45 0 01-.103 2.683c-3.045 1.109-5.957 1.702-8.772 2.28-6.636 1.357-11.88 2.427-15.856 9.312-2.125 3.679-4.402 8.41-6.327 13.281.003.088.003.178.003.268.013 4.282-1.383 9.055-4.52 15.471a1.45 1.45 0 01-1.726.752 1.455 1.455 0 01-1.019-1.584c.632-4.685 2.286-10.166 4.34-15.435-.222-3.996-1.99-7.671-5.962-11.235-3.821-3.43-9.465-4.414-14.924-5.362-6.014-1.048-12.232-2.131-16.169-6.526-1.348.741-2.757 1.357-4.247 1.773a1.452 1.452 0 01-1.625-.642c-3.377-5.513-9.188-9.299-15.766-11.72.67 4.546 1.464 9.076 2.402 13.513a1.451 1.451 0 01-1.9 1.67c-3.201-1.118-6.361-2.605-9.419-4.04-4.65-2.186-9.461-4.446-14.456-5.427-11.567-2.263-25.589.568-37.962 3.067-3.905.79-7.597 1.535-11.17 2.128-1.13.187-2.31.355-3.448.513-1.95.274-3.927.551-5.843.96 1.49 8.61 13.496 20.25 18.014 24.63 7.668 7.429 16.156 11.311 25.14 15.42 7.178 3.282 14.601 6.674 21.535 12.03 19.038 14.71 24.895 44.637 29.6 68.685.844 4.327 1.644 8.413 2.483 12.224 3.186 14.5 4.224 25.435.593 41.654a442.401 442.401 0 01-1.935 8.181c-.32 1.322-.642 2.654-.96 3.989 9.028-7.459 16.607-16.677 21.676-26.464 11.129-21.478 16.756-53.92 14.843-82.763-.01-.023-.016-.049-.025-.071-2.351-6.95-6.198-13.753-9.92-20.334-1.506-2.663-3.06-5.417-4.498-8.148-2.567-4.87-7.675-10.067-12.612-15.091-7.41-7.539-15.07-15.336-15.924-23.404a1.454 1.454 0 011.193-1.583c9.03-1.567 17.014 7.849 21.787 13.479l.206.242c8.945 10.547 18.465 23.716 21.235 41.44.061.394.122.794.18 1.19.49-2.23 1.107-4.481 1.89-6.62 2.954-8.067 7.469-12.326 13.415-12.662 7.22-.396 13.318 7.123 17.772 12.618.503.625.983 1.215 1.432 1.754 19.867 23.852 4.463 52.901-9.133 78.53-5.347 10.08-10.397 19.605-13.115 28.275-4.547 14.51-7.075 27.231-7.714 38.84.807 2.982.88 5.89.223 8.712.81 6.859 2.99 13.317 5.26 20.053 1.39 4.118 2.828 8.378 3.94 12.77.174.69.358 1.396.545 2.115 2.383 9.132 5.647 21.64-5.405 26.128-6.894 2.799-16.63 2.599-23.676-.487-4.708-2.064-8-5.291-9.522-9.338a1.452 1.452 0 01.348-1.554c4.289-4.15 11.428-3.954 18.336-3.763 6.114.17 11.925.332 14.705-2.551-5.563-4.36-13.032-6.04-20.268-7.668-5.253-1.18-10.683-2.402-15.417-4.637-2.593-1.225-4.921-2.705-6.979-4.43l-.596.18c-11.477 3.425-22.906 3.905-32.18 1.358-4.618-1.267-8.39-3.637-10.745-6.604 2.164 5.04 5.795 8.787 10.913 11.299 3.602 1.767 8.371 1.619 13.421 1.46 9.32-.286 19.88-.612 24.534 12.002 2.267 6.152-3.799 16.645-8.742 19.49-7.324 4.21-13.293 5.713-18.336 5.713-7.046 0-12.277-2.931-16.86-5.501-1.263-.71-2.46-1.38-3.637-1.954-7.2-3.521-11.216-8.23-14.324-16.793-.69-1.906-1.287-3.805-1.864-5.64-1.31-4.163-2.544-8.097-4.757-11.924-.854-1.48-2.238-3.293-3.705-5.211-2.65-3.473-5.733-7.507-7.204-11.557-1.06.013-2.044-.01-2.928-.058-4.857-.28-8.478-2.747-11.07-7.542-2.174-4.018-3.39-9.232-4.56-14.272-1.194-5.127-2.429-10.43-4.631-14.133-5.208-8.764-11.238-17.29-17.069-25.531-9.848-13.924-20.029-28.318-26.73-44.476-5.269-12.705-9.287-26.39-11.615-39.574-2.648-15.007-3.08-28.84-1.284-41.123 1.061-7.274 3.083-14.04 5.04-20.582.745-2.495 1.484-4.965 2.161-7.429-2.476-2.296-5.024-5.72-5.05-8.793-.01-1.393.48-3.334 2.883-4.689 1.519-.857 3.25-.635 4.944-.116.596-5.4.477-10.982-.865-16.98-.132-.596-.287-1.258-.454-1.973-1.068-4.589-2.68-11.522-2.796-17.893-.148-8.058 2.183-13.226 6.93-15.36 2.131-.958 4.128-1.094 5.927-.403 3.737 1.432 5.795 6.096 7.614 10.21.68 1.542 1.322 2.998 1.996 4.172.712 1.24 2.344 3.364 4.23 5.824 6.85 8.922 12.403 16.674 10.936 21.166-1.861 5.698-8.878 4.84-13.525 4.272-1.058-.129-2.057-.251-2.86-.287-5.776-.264-11.632 2.47-11.777 3.586.006 0 .435 1.07 5.005 2.093a1.45 1.45 0 011.07 1.841c-.635 2.073-1.625 3.411-3.03 4.089-1.88.912-4.016.351-6.015-.384-.48 2.899-1.135 5.752-1.88 8.6.374.28.725.512 1.042.683 5.162 2.806 5.833 1.845 8.068-1.341.725-1.035 1.548-2.209 2.657-3.444 3.37-3.753 4.673-4.956 7.398-3.06.822.574 1.95 1.358 4.392 1.732 3.802.577 5.769-1.164 8.262-3.373 1.335-1.184 2.847-2.525 4.766-3.563 1.457-.787 3.002-1.374 4.598-1.832.084-1.686.561-3.286 1.532-4.76 4.389-6.655 19.42-7.686 30.39-8.444 2.818-.194 5.25-.361 6.933-.597 1.777-.251 3.6-.529 5.363-.8 6.927-1.057 14.095-2.15 21.148-1.989 5.07.116 10.632.829 15.982 2.296-2.3-17.751-2.832-35.363-2.8-48.411.004-1.191.004-2.377.004-3.557.01-15.338.016-29.825 5.176-44.795 2.831-8.216 7.355-14.686 13.834-19.778 1.474-1.16 3.805-2.2 6.272-3.302 2.931-1.308 6.253-2.791 7.391-4.256.97-1.249 1.342-2.645 1.132-4.27a4.352 4.352 0 00-.052-.347c-5.566-.052-11.138-1.865-14.808-5.865-3.953-4.308-5.46-9.925-5.61-15.849-6.866-4.42-16.476-8.555-24.818-9.487.667 5.25 2.924 10.804 5.11 16.193 1.149 2.822 2.232 5.487 3.1 8.116a1.45 1.45 0 01-1.941 1.792c-12.558-5.31-20.426-3.472-28.065 6.553a1.452 1.452 0 01-2.603-1.004c.913-10.538 6.369-20.075 11.648-29.298.455-.796.913-1.597 1.37-2.4a37.51 37.51 0 01-3.818 2.176c-7.955 3.91-15.45 3.643-22.273-.793-5.653-3.676-8.849-10.266-9.503-19.587-.568-8.087.903-16.463 2.234-22.065.955-4.01 3.58-11.29 7.088-17.798 4.38-8.13 8.775-12.762 13.064-13.767 5.434-1.272 8.046 2.015 10.574 5.195 1.141 1.436 2.322 2.92 3.818 4.103 6.337 5.012 14.466 7.844 22.315 7.798h.01c.477 0 .922.234 1.193.626.274.394.335.898.161 1.346a1099.092 1099.092 0 01-4.627 11.764c-3.354 8.431-6.824 17.15-9.803 25.965a54.087 54.087 0 01-1.116 3.006c.558-.616 1.11-1.25 1.664-1.902a1.448 1.448 0 011.938-.25c.751.526 3.034 2.127 6.214-1.091 4.208-4.262 6.398-13.381 4.592-15.89-.187-.259-.755-1.049-3.07.087a1.45 1.45 0 01-1.932-.646 1.449 1.449 0 01.62-1.942c6.278-3.29 10.483-10.137 11.254-18.316.787-8.382-2.241-16.373-7.9-20.856-5.322-4.215-22.342-14.96-30.117-12.31-1.831.626-2.989 2.008-3.54 4.226a1.448 1.448 0 01-1.984.982c-4.879-2.106-9.197 1.232-11.335 3.41-4.385 4.461-7.223 11.35-7.181 16.484.645.844 1.06 2.236.848 4.513a1.451 1.451 0 01-2.767.465c-.445-.984-.729-2.104-.861-3.318-1.793.107-6.01 3.631-7.117 6.075-1.664 3.681-2.89 13.002-.258 16.596.842 1.147 1.983 1.593 3.602 1.4a1.453 1.453 0 011.606 1.231c1.225 8.346-.316 20.392-5.624 27.265-.977 1.267-2.102 2.51-3.321 3.753.619 4.743 3.853 8.82 7.178 11.843 2.68 2.44 5.633 4.637 8.487 6.761 8.207 6.107 16.695 12.422 18.262 24.542a1.45 1.45 0 01-2.718.866c-8.459-15.94-27.614-16.568-44.512-17.121-2.363-.078-4.592-.15-6.778-.265a1.452 1.452 0 01-1.377-1.48c.197-9.235 7.83-16.32 14.563-22.57 1.354-1.258 2.677-2.484 3.908-3.695-.032-.882.01-1.76.133-2.634-4.57 3.345-10.63 5.726-15.508 7.644-1.064.418-2.067.812-2.97 1.184-5.624 2.315-11.493 3.848-17.166 5.33-4.779 1.249-9.719 2.54-14.42 4.282-10.616 3.934-13.029 9.304-16.005 20.619a71.281 71.281 0 01-.997 3.426c5.45-.212 10.433 3.008 13.848 8.91 7.974-3.197 18.977-1.16 27.307 5.192 6.878 5.243 10.313 12.151 9.606 19.173 3.847.375 6.988 2.136 9.152 5.153 4.144 5.776 3.812 14.86 1.748 20.855-1.506 4.375-3.792 8.425-6.005 12.342-6.11 10.83-10.941 19.383 1.668 30.099a1.452 1.452 0 01-1.003 2.556c-9.297-.423-17.75-4.219-22.054-9.909-3.128-4.129-4.105-9.195-2.828-14.65.445-1.903 2.612-5.214 6.407-10.901 5.492-8.232 14.686-22.008 12.396-26.628-.151-.306-.564-1.142-2.341-1.493-1.59 4.446-4.43 8.016-7.188 11.478-1.629 2.05-3.305 4.156-4.698 6.426 2.163.974 2.763 2.613 2.921 3.63.61 3.95-3.608 8.874-7.865 11.17-3.467 1.87-6.778 2.062-9.316.592-5.137 5.947-17.614 15.133-23.85 18.019-7.185 3.325-12.51 3.84-16.273 1.575-4.247-2.556-5.73-8.233-6.414-14.686-19.736 6.827-36.754 22.668-51.433 38.955 5.53 1.67 12.2 4.376 12.046 10.915-.017.693-.244 1.5-.603 2.373l.384.407c.4.429.503 1.054.261 1.59-1.42 3.137-1.852 7.332-2.308 11.778-.682 6.637-1.387 13.502-5.598 17.751a1.46 1.46 0 01-1.2.423 1.462 1.462 0 01-1.07-.687c-4.305-7.062-.988-15.6 1.677-22.459.166-.425.328-.845.487-1.257.398-1.039 1.211-2.403 2.153-3.983a73.837 73.837 0 001.703-2.96c-2.998-2.811-6.68-5.214-9.736-4.043-5.233 2.002-7.788 13.452-8 23.913-.04 2.031.035 4.005.108 5.91.233 6.101.454 11.867-3.192 17.835-.681 1.116-1.567 2.367-2.504 3.689-4.719 6.659-8.355 12.576-5.097 17.112 1.618-1.3 2.482-3.22 3.46-5.388.512-1.138 1.04-2.315 1.71-3.43a1.452 1.452 0 012.594.209c.512 1.29.745 2.86.992 4.524.603 4.06 1.206 6.136 2.914 6.684.048-.148.096-.29.144-.429.174-.515.34-1.002.365-1.438a1.449 1.449 0 011.263-1.354c.693-.09 1.35.326 1.565.99.338 1.038.882 1.483 1.634 2.096l.095.077c1.01-2.834.392-6.3-.21-9.67-.302-1.69-.613-3.437-.711-5.079a1.45 1.45 0 012.705-.813c1.105 1.91 1.593 4.29 2.066 6.588.683 3.328 1.273 5.682 2.714 6.927.07-2.235-.52-4.476-1.134-6.817-.78-2.966-1.586-6.036-1.066-9.293.082-.516.437-.948.927-1.132a1.445 1.445 0 011.44.252c.719.603 1.356 1.664 2.093 2.889.568.945 1.888 3.14 2.533 3.308.636-.3.917-1.873-1.259-7.6-.232-.616-.416-1.1-.528-1.467-1.705-5.643-2.668-9.238-1.043-11.97 1.472-2.473 4.73-3.592 9.167-4.507 7.915-1.635 14.58-2.09 20.972-1.435 3.558.364 7.144.887 10.613 1.393 3.785.551 7.697 1.122 11.547 1.483 1.664.155 4.347-.239 6.946-.622 4.015-.59 8.166-1.197 10.713-.245.929.345 1.677.548 1.99.535.887-.036 1.55.561 1.619 1.448.022.319.316 1.054.783 1.964 1.99 3.856 1.235 11.453.626 17.557-.23 2.309-.448 4.492-.455 5.969-.084 13.778-2.705 27.018-5.243 39.822-2.025 10.219-4.122 20.782-4.889 31.507-.78 10.85 1.767 21.54 4.234 31.88 2.135 8.958 4.344 18.222 4.486 27.754.11 7.484-1.864 14.455-3.776 21.195-1.161 4.098-2.284 8.058-2.958 12.066 2.245.841 4.231 2.083 5.708 3.834a1.448 1.448 0 01-.048 1.928c-1.461 1.56-3.638 2.986-6.217 4.124.228 4.04.902 8.213 1.557 12.27 1.493 9.26 3.041 18.84-.242 28.043-2.483 6.955-12.06 13.491-19.606 13.491-.178 0-.352-.003-.526-.013-4.889-.2-8.333-3.143-9.698-8.28-1.46-5.498.711-12.082 2.628-17.89.614-1.86 1.193-3.618 1.599-5.185a148.46 148.46 0 003.881-21.327c-.6-.293-1.154-.632-1.66-1.006-4.185-3.108-4.351-8.954-4.484-13.652-.032-1.106-.061-2.151-.137-3.112a265.845 265.845 0 00-3.99-29.743c-1.8-9.37-1.607-18.889-1.42-28.098.207-10.241.42-20.834-2.18-30.981-.885-3.45-2.039-6.865-3.155-10.167-1.766-5.224-3.59-10.625-4.428-16.364-.335-2.293-.474-4.67-.608-6.969-.261-4.472-.51-8.732-2.06-12.578-30.602 27.724-42.146 70.181-46.432 101.15-.32 2.305-.506 4.368-.671 6.187-.752 8.3-1.167 12.87-11.812 16.223-1.707.538-4.182.844-6.802 1.17-3.81.47-8.738 1.08-11.166 2.573 6.204 1.593 19.139 3.847 26.844-2.334a1.456 1.456 0 011.186-.294c.42.084.782.345.99.72 6.267 11.246 4.185 16.25-4.819 24.718-3.032 2.85-5.37 6.366-7.63 9.761-3.153 4.74-6.413 9.641-11.673 13.088-6.857 4.492-20.151 5.114-24.873-.377-2.299-2.676-3.445-7.555 3.16-15.93H99.293l-.771 6.743a1.45 1.45 0 01-1.442 1.287H18.857a1.45 1.45 0 110-2.902H95.785l.586-5.127h-38.71c-.042 0-.084 0-.126-.003-5.45-.474-8.922-2.283-10.319-5.372-2.38-5.266 2.497-11.983 2.706-12.266a1.46 1.46 0 01.1-.12c15.832-17.215 23.172-35.863 21.817-55.42-1.373-19.81-11.554-37.052-19.852-48.025a132.16 132.16 0 00-4.926-6.124l-12.724.32a1.446 1.446 0 01-1.485-1.529l.73-13.14c.03-.548.365-1.028.866-1.248a1.45 1.45 0 011.505.207c.287.238 5.68 4.71 12.415 12.453l63.074-1.59 1.531-13.4H1.451A1.45 1.45 0 010 352.974v-13.868c0-.8.65-1.452 1.451-1.452H193.44a1.453 1.453 0 011.321 2.05l-7.3 16.063a1.452 1.452 0 01-1.32.848h-62.204l-1.323 12.569a1.45 1.45 0 01-1.407 1.3l-7.168.18-14.414 126.117h55.125a1.453 1.453 0 011.081 2.421c-5.808 6.479-7.642 11.634-5.162 14.517 3.625 4.218 15.474 3.515 21.081-.158 4.764-3.121 7.719-7.564 10.848-12.266 2.35-3.534 4.782-7.19 8.058-10.27 7.886-7.413 9.606-10.96 5.048-19.75-9.712 6.394-24.302 3.034-30.33 1.212a1.445 1.445 0 01-.907-1.973c1.782-4.03 8.69-4.885 14.785-5.64 2.485-.306 4.833-.596 6.287-1.054 8.801-2.773 9.072-5.753 9.793-13.717.168-1.851.359-3.953.687-6.323 2.915-21.063 8.063-40.175 15.303-56.807 8.441-19.395 19.727-35.35 33.542-47.422.334-.29.783-.416 1.219-.333.436.081.811.355 1.018.748 2.561 4.837 2.877 10.245 3.182 15.472.137 2.337.266 4.546.583 6.716.8 5.479 2.502 10.519 4.305 15.855 1.134 3.35 2.305 6.82 3.217 10.373 2.7 10.532 2.481 21.327 2.27 31.765-.183 9.055-.373 18.419 1.369 27.49a268.726 268.726 0 014.034 30.064c.08 1.032.111 2.112.144 3.257.121 4.282.26 9.135 3.314 11.405.078.058.158.113.239.168.197-2.212.345-4.453.451-6.723a1.451 1.451 0 011.052-1.329c4.179-1.196 10.703-1.873 16.356-.603.715-4.11 1.85-8.11 2.96-12.03 1.854-6.54 3.77-13.305 3.666-20.363-.138-9.212-2.309-18.319-4.408-27.125-2.515-10.55-5.117-21.465-4.305-32.76.784-10.903 2.896-21.557 4.937-31.862 2.512-12.67 5.108-25.774 5.189-39.275.01-1.615.222-3.756.47-6.239.54-5.424 1.278-12.846-.315-15.942-.439-.848-.7-1.474-.861-1.954-.484-.103-1.116-.284-1.97-.603-1.848-.69-5.796-.113-9.275.4-2.896.425-5.63.825-7.636.638-3.928-.367-7.878-.941-11.699-1.5-3.438-.502-6.994-1.021-10.49-1.38-6.172-.631-12.368-.202-20.09 1.394-4.303.886-6.474 1.828-7.259 3.147-.983 1.65-.154 4.746 1.327 9.644.083.274.26.739.464 1.277 1.275 3.36 3.65 9.616-.336 11.309-2.092.893-3.733-.806-5.03-2.722.211 1.077.498 2.17.79 3.286.844 3.208 1.716 6.526.928 10.09a1.456 1.456 0 01-.669.928c-.34.203-.75.261-1.134.155-1.885-.52-3.154-1.612-4.052-3.005-.217 1.631-.73 3.208-1.711 4.665a1.462 1.462 0 01-1.168.639 1.44 1.44 0 01-1.198-.584c-.321-.429-.712-.748-1.163-1.119-.182-.148-.372-.303-.565-.474l-.014.11a1.452 1.452 0 01-1.435 1.306h-.053c-5.47 0-6.27-5.382-6.853-9.312l-.005-.04c-1.191 2.629-2.515 5.276-5.454 6.892a1.45 1.45 0 01-1.74-.258c-6.568-6.75-.183-15.762 4.043-21.724.908-1.283 1.765-2.492 2.395-3.524 3.189-5.22 2.994-10.315 2.769-16.21-.075-1.95-.152-3.966-.11-6.081.078-3.837.918-23.143 9.864-26.567 3.488-1.335 7.503-.016 11.967 3.918.011-.074.018-.145.019-.207.11-4.604-4.963-6.613-11.285-8.451-4.464 5.037-8.707 10.077-12.737 14.868l-1.075 1.277a1.457 1.457 0 01-1.11.516H57.66a1.453 1.453 0 01-1.439-1.638l12.41-96.351a1.451 1.451 0 011.44-1.266h194.621c3.756-1.563 7.242-4.158 10.412-7.38.377-1.52.712-3.056 1.054-4.616.803-3.68 1.635-7.485 3.093-11.398 2.66-7.147 7.487-12.166 13.008-13.746a74.313 74.313 0 001.41-4.684c2.889-10.995 5.298-17.968 17.8-22.602 4.837-1.793 9.848-3.102 14.695-4.369 5.582-1.458 11.351-2.965 16.798-5.206.922-.38 1.938-.779 3.009-1.2 6.362-2.5 14.85-5.837 18.577-10.821.33-.597.697-1.19 1.103-1.78a1.45 1.45 0 012.493 1.47c-.32.643-.7 1.26-1.132 1.854a14.742 14.742 0 00-1.37 3.524c.27-.322.532-.643.78-.965 4.499-5.827 5.992-16.284 5.208-23.789-1.996-.11-3.65-1-4.837-2.618-3.547-4.842-1.89-15.426-.045-19.506 1.293-2.864 6.133-7.563 9.713-7.763.374-5.738 3.36-12.634 7.939-17.296 4.118-4.19 8.7-5.777 13.057-4.57.948-2.365 2.602-3.963 4.937-4.759 9.703-3.308 28.381 9.24 32.854 12.781 6.42 5.086 9.864 14.053 8.987 23.403-.68 7.223-3.795 13.543-8.59 17.73.535.332.919.752 1.183 1.12 3.035 4.213-.284 14.969-4.882 19.624-2.751 2.784-5.895 3.516-8.8 2.105-2.222 2.552-4.454 4.811-6.686 6.771-1.457 2.772-3.021 5.507-4.563 8.201-4.263 7.448-8.645 15.108-10.49 23.175 6.95-7.017 14.634-8.424 25.121-4.709-.61-1.61-1.28-3.264-1.973-4.975-2.516-6.186-5.112-12.582-5.482-18.793a1.458 1.458 0 01.422-1.112c.293-.293.697-.449 1.113-.422 7.923.466 18.077 4.05 26.394 9.118.355-6.472 2.045-13.08 3.709-18.573 3.573-11.788 7.52-20.718 12.428-28.105 5.737-8.638 12.999-15.433 22.202-20.776 2.196-1.275 4.215-2.806 6.166-4.287 5.082-3.856 10.332-7.844 18.923-7.47 18.707.815 30.145 19.89 36.446 35.748 4.392 11.055 8.645 44.14-3.383 55.35-4.163 3.881-9.677 4.686-16.427 2.41 1.213 2.743 1.729 5.735 1.538 8.955 2.848-2.553 6.679-4.489 11.223-5.62 6.052-1.509 12.834-1.431 18.142.206 7.294 2.25 14.466 8.124 21.316 17.46 4.617 6.293 9.055 14.063 13.56 23.754 4.372 9.396 8.613 19.571 12.673 30.397a45.134 45.134 0 011.035-3.559c3.705-10.954 12.46-25.729 24.947-31.314 10.954-4.899 21.431-3.93 30.3 2.801 11.325 8.596 18.677 25.678 21.031 41.504 3.309-3.371 5.621-10.906-1.331-27.713-.478-1.154-.93-2.244.238-2.888.28-.155.761-.273 1.245-.077h225.849a1.45 1.45 0 011.409 1.106l21.9 89.317c.106.432.006.89-.269 1.242a1.457 1.457 0 01-1.141.554H887.99l9.68 63.987h98.759c.803 0 1.45.652 1.45 1.451v17.52a1.45 1.45 0 01-1.45 1.45H861.992l21.812 148.195h48.246c4.115-.822 13.463-3.411 18.171-7.316H894.23a1.448 1.448 0 01-1.377-1c-6.072-18.547-7.514-36.936-4.292-54.658 2.576-14.175 8.126-27.944 16.494-40.926 11.622-18.025 25.592-29.559 30.416-33.25a42.715 42.715 0 011.738-1.281 1.45 1.45 0 011.655 2.383l-.13.09c-.212.152-.696.5-1.408 1.042-11.274 8.725-18.44 23.897-21.306 45.136-2.703 20.015-.616 38.424.09 43.59 1.151 8.457 9.88 12.381 19.123 16.535 7.033 3.16 14.308 6.43 18.552 11.975 1.928 2.525 2.57 5.034 1.912 7.462h42.852a1.451 1.451 0 010 2.902h-44.313c-2.06 2.738-5.979 5.188-11.686 7.307-5.163 1.915-9.884 2.847-10.081 2.886-.09.016-.184.025-.277.025H882.55c-.72 0-1.329-.528-1.435-1.238l-22.057-149.859H730.712c-.8 0-1.45-.648-1.45-1.45v-17.52c0-.8.65-1.45 1.45-1.45h127.02c.72 0 1.332.528 1.435 1.24l2.396 16.278h133.415v-14.617h-98.555c-.72 0-1.329-.522-1.435-1.235l-9.932-65.654H706.624a1.457 1.457 0 01-1.38-.996l-6.57-19.973a1.45 1.45 0 011.38-1.906h183.228c.716 0 1.325.526 1.435 1.235l2.834 18.738h41.329l-21.187-86.415H684.608c5.802 14.492 5.792 24.626-.029 30.127-.467.442-.874 1.077-1.238 1.828.474 5.052.413 9.878-.226 14.145a1.455 1.455 0 01-.887 1.128c-3.624 1.485-9.077.197-12.573-2.067-.813.14-1.612.304-2.622.731-2.199.928-3.979 2.815-5.862 4.813-2.46 2.61-5.005 5.306-8.826 6.298-8.507 2.205-16.476-1.782-22.113-10.968-.277 2.152-1.912 4.166-3.392 5.986-.077.098-.158.194-.235.29.741.013 1.47.095 2.19.247 3.572.756 6.275 3.27 8.893 5.701 3.002 2.791 5.837 5.427 9.994 5.904 9.596 1.103 15.73-6.583 20.728-13.872a1.455 1.455 0 011.61-.571c6.652 1.963 12.55 5.431 17.055 10.03 4.815 4.913 7.952 10.894 9.323 17.775 1.345 6.752 1.087 13.169-.764 19.073a40.29 40.29 0 01-.778 2.202c.049.081.097.162.142.242 3.496 6.033 3.07 15.33-.986 21.624a1.447 1.447 0 01-.945.638 1.433 1.433 0 01-1.116-.242c-7.05-5.004-3.34-14.352-.635-21.178.093-.236.187-.47.277-.703-1.577-1.99-4.224-3.83-8.581-3.602-7.972.416-8.755 6.22-9.097 15.73-.036.983-.071 2.002-.126 2.979-.274 4.936-1.548 9.905-2.78 14.71-2.002 7.816-3.892 15.197-1.876 22.449.483 1.738 1.822 4.489 3.353 6.862 2.02 1 3.973 2.267 5.798 3.698.326-.551.568-1.219.697-1.618.187-.58.72-.98 1.332-1.003a1.465 1.465 0 011.396.912c.587 1.474 1.451 2.564 2.577 3.26.17-1.012.29-1.754-.213-2.808a1.451 1.451 0 012.377-1.61c.931 1.01 1.793 1.23 3.099 1.561l.677.174c.313-2.428-1.09-4.991-2.56-7.68-1.216-2.222-2.47-4.518-2.82-6.907-.07-.494.114-.987.491-1.313a1.457 1.457 0 011.37-.283c.44.135.89.28 1.355.432 2.28.735 4.792 1.541 6.982 1.486-1.097-.948-2.532-1.947-3.938-2.93-3.67-2.561-7.465-5.208-7.904-8.42-.245-1.796.53-3.889 2.238-6.05 2.438-3.079 6.15-5.584 8.633-5.823 6.03-.57 13.911 6.71 17.613 11.112 7.324 8.703 9.375 19.521 11.136 31.732 1.428 9.913.97 18.638-1.442 27.457-.19.693-.49 1.628-.838 2.712-.336 1.045-.752 2.338-1.168 3.76 3.844 3.72 4.74 9.88 2.403 17.676-.2.671-.848 1.097-1.545 1.026-1.938-.207-3.48-1.113-4.457-2.615-2.247-3.457-1.202-9.625.275-15.03a10.847 10.847 0 00-2.5-1.209c-5.137-1.757-9.126-1.677-11.531.232-2.364 1.874-3.383 5.698-2.874 10.76.155 1.548.19 2.706.22 3.635.077 2.58.077 2.58 3.073 4.417.987.603 2.844.896 4.811 1.206 3.94.626 8.849 1.4 10.284 5.56.796 2.298.306 4.31-1.383 5.661-4.69 3.747-17.517 1.332-20.884-.754-7.55-4.682-6.014-15.671-4.776-24.5.397-2.86.777-5.56.81-7.732.16-9.726-1.906-18.045-6.14-24.73-1.735-2.737-4.18-5.594-6.988-8.064-.326.09-.678.136-1.052.13-2.405-.052-4.75-2.451-6.64-5.253-1.638-.748-3.295-1.28-4.927-1.522-3.592-.539-6.772.348-9.452 2.644-6.617 5.668-6.536 15.303-6.459 24.622.023 2.477.042 4.814-.061 7.078a1.45 1.45 0 01-1.3 1.377c-1.05.11-2.695.106-4.775.1-5.212-.013-16.047-.039-17.988 2.918-.171.264-.352.67-.213 1.37 5.066.152 14.973 2.357 19.587 6.84 1.764 1.715 2.648 3.624 2.625 5.668-.039 3.205-1.58 4.837-2.867 5.637-6.21 3.872-20.619-2.783-22.244-3.557-8.752-4.163-8.694-6.559-7.091-15.062l.074-.39c1.016-5.404 1.445-10.954-2.116-15.084h-23.447c-1.99.02-4.105-.223-6.146-.455-2.86-.325-5.508-.629-7.81-.345.535 2.954 1.383 5.92 2.218 8.826 1.122 3.924 2.287 7.977 2.706 12.03.245 2.37.338 4.753.432 7.059.17 4.285.332 8.332 1.37 12.375a1.447 1.447 0 01-.422 1.426c-.39.364-.951.48-1.454.306-1.78-.613-4.15-.983-6.847-1.083 1.668 3.772 3.506 7.522 5.325 11.237 4.372 8.922 8.89 18.148 10.735 27.147 1.38 6.733 1.477 13.666 1.57 20.366.055 3.886.11 7.903.42 11.792.635 7.971 3.472 15.075 6.214 21.946 3.057 7.658 6.023 15.081 5.414 22.823.387.107.71.368.896.723 3.438 6.52 2.583 13.268 1.755 19.798-.123.977-.249 1.957-.358 2.94-.236 2.1-.203 4.383-.168 6.801.058 3.815.12 7.762-.948 11.209C602.477 560.076 595.54 564 585.07 564c-.832 0-1.687-.023-2.564-.074z"/></svg>