<svg xmlns="http://www.w3.org/2000/svg" width="1000" height="570" viewBox="0 0 1000 570">
  <path fill="#1B1A19" fill-rule="evenodd" d="M619.668346,50.231738 C622.518892,50.3811923 624.865659,49.4534005 627.328296,48.4777498 C630.521411,47.2149454 634.093199,45.8001679 638.74979,47.0419815 C636.915197,35.2460118 631.263644,22.1444165 621.781696,18.8480269 C613.807725,16.0764064 604.020991,15.8933669 596.298908,18.8824517 C597.612091,19.0671704 599.02351,19.1721243 600.460957,19.279597 C603.042821,19.472712 605.712007,19.6717045 607.924433,20.4097397 C612.710327,22.0058774 614.576826,23.0780856 615.322418,24.6607893 C616.009236,26.1200672 615.483627,27.4785894 614.927792,28.9160369 C614.298069,30.5449202 613.513854,32.5717884 613.786734,35.8706969 C613.944584,37.7724601 615.024349,39.286314 616.27372,41.038623 C617.902603,43.3215785 619.879933,46.0940386 619.668346,50.231738 Z M637.266163,65.6188077 C637.47775,65.6935348 637.685978,65.774979 637.892527,65.8648195 C637.998321,65.4617968 638.101595,65.054576 638.201511,64.6439966 C637.900084,64.9806885 637.588581,65.3056255 637.266163,65.6188077 Z M640.845508,67.8194794 C641.092359,68.0495382 641.333333,68.2921914 641.56843,68.549958 C642.233417,66.5482788 642.926113,64.5625525 643.609572,62.5994962 C645.175483,58.1041142 646.79597,53.4559194 648.018472,48.8329135 C651.534845,35.5407221 653.198992,18.3560034 641.153652,11.97733 C636.819479,9.68178002 631.814442,9.76742233 626.516373,9.8597817 C623.844668,9.90512175 621.083963,9.95298069 618.418976,9.66582704 C615.157011,9.31486146 611.95466,7.9890848 608.856423,6.70780856 C605.367758,5.263644 602.076406,3.89672544 599.055416,4.02686818 C595.515533,4.17464316 591.456759,6.63224181 589.816961,9.62132662 C588.712007,11.6356003 588.753988,13.6935348 589.940386,15.7380353 C590.347607,16.4399664 590.910999,16.9899244 591.596138,17.4248531 C600.561713,12.5356843 613.015113,12.2451721 622.884971,15.6759026 C637.042821,20.597817 643.492863,43.1452561 642.706969,57.5289673 C642.505458,61.2107473 641.718724,64.6549118 640.845508,67.8194794 Z M639.74895,71.6171285 C638.633921,75.4189757 637.738035,78.6599496 638.016793,81.4147775 C638.055416,81.2350966 638.093199,81.0554156 638.130982,80.8757347 L638.224181,80.4332494 C638.789253,77.759026 639.513854,75.093199 640.320739,72.450042 C640.137699,72.1603694 639.947103,71.8816121 639.74895,71.6171285 Z M640.407221,86.2888329 C641.314022,87.1670865 642.493703,87.9823678 643.952141,88.7397145 C644.040302,85.1486146 643.56843,80.9177162 642.439127,77.2502099 C642.095718,78.5440806 641.782536,79.8371117 641.510495,81.1276238 L641.417296,81.5701092 C641.078086,83.1729639 640.746432,84.743073 640.407221,86.2888329 Z M311.196474,80.0864819 C312.982368,84.231738 313.81864,89.240974 313.599496,94.3509656 C315.06885,93.0528967 317.125945,92.3660789 319.120907,91.6994123 C321.133501,91.0277078 323.213266,90.3333333 323.699412,89.2468514 C323.919395,88.388749 322.444165,85.0167926 321.563392,83.0016793 C320.310663,80.138539 319.229219,77.6649874 319.260285,75.874895 C319.38623,68.6490344 325.388749,63.5373636 330.698573,63.4693535 C333.947103,63.4416457 337.474391,65.3131822 338.270361,70.5877414 C338.271201,70.5877414 338.27204,70.5877414 338.27204,70.5877414 C343.31738,70.5877414 344.797649,69.5583543 345.229219,68.9059614 C346.15869,67.5004198 344.675063,64.3257767 343.240974,61.2552477 C342.145256,58.9101595 341.011755,56.4844668 340.515533,54.0915197 C338.017632,42.061293 346.507137,39.8035264 353.329135,37.9890848 C355.61461,37.3811923 357.792611,36.8018472 359.602015,35.938707 C359.216625,33.6280437 357.97817,32.1754828 355.763224,31.4063812 C347.633921,28.5869018 330.198153,36.1981528 325.958858,40.9907641 C318.952981,48.9101595 315.942065,61.109152 313.286314,71.8715365 C312.806885,73.8127624 312.342569,75.6918556 311.872376,77.4743913 C311.643157,78.3425693 311.417296,79.2132662 311.196474,80.0864819 Z M309.670025,86.559194 C308.464316,92.1502939 307.570949,97.8203191 307.333333,103.471033 C307.744752,103.412259 308.143577,103.368598 308.528967,103.342569 C310.371117,97.8740554 310.696054,91.8152813 309.670025,86.559194 Z M639.565071,89.9739715 C638.199832,95.6809404 636.561713,101.088161 633.884131,106.513854 C638.310663,102.983207 641.869018,98.5801847 643.188077,94.3366919 C643.371956,93.7464316 643.523929,93.070529 643.643997,92.3274559 C642.062972,91.6053736 640.708648,90.8245172 639.565071,89.9739715 Z M599.674223,96.6389589 C602.387909,98.6557515 603.866499,101.778338 605.219144,104.634761 C607.619647,109.70361 609.693535,114.080605 617.56927,113.649034 C620.79513,113.472712 624.345928,112.315701 627.763224,110.52225 C632.650714,102.90932 634.890848,95.4248531 636.757347,87.2174643 C636.462636,86.8203191 636.199832,86.411419 635.966415,85.9890848 C633.394626,81.3232578 634.93199,76.0957179 636.711167,70.0419815 C636.799328,69.7439127 636.88749,69.4424853 636.97733,69.1393787 C635.819479,68.5331654 634.546599,68.3215785 633.133501,68.4869857 C632.334173,68.5835432 631.594458,68.1057935 631.342569,67.3509656 C631.09068,66.5952981 631.403862,65.7665827 632.093199,65.3669186 C637.057095,62.4878254 640.729639,56.2401343 638.638959,50.5138539 C634.677582,49.1838791 631.832914,50.3081444 628.564232,51.6011755 C625.502939,52.8127624 622.031906,54.1855584 617.497061,53.3484467 C617.057935,53.2670025 616.669186,53.0142737 616.416457,52.6456759 C616.163728,52.2770781 616.06885,51.822838 616.152813,51.3837112 C616.861461,47.6465155 615.322418,45.4878254 613.539043,42.9890848 C612.130982,41.0134341 610.673384,38.9706129 610.439966,36.147775 C610.103275,32.0806045 611.121746,29.4466835 611.79513,27.70445 C612.010915,27.1460957 612.337531,26.302267 612.283795,26.0923594 C612.216625,25.9084803 611.625525,25.1847187 606.861461,23.5952981 C605.04534,22.9899244 602.696893,22.8144416 600.210747,22.6288833 C597.365239,22.4164568 594.302267,22.1880772 591.722082,21.2057095 C589.027708,22.9638959 586.804366,25.2586062 585.306465,28.1293031 C584.22754,30.1964736 583.354324,31.7329975 582.652393,32.968094 C580.544081,36.6792611 580.163728,37.3476071 580.174643,41.7699412 C580.178002,43.0738875 580.31738,44.2577666 580.465155,45.5121746 C580.964736,49.7556675 581.480269,54.1427372 576.437448,62.1763224 C576.153652,63.4634761 576.884131,64.2619647 578.882452,66.0512175 C581.941226,68.790932 586.562552,72.9303107 583.756507,83.1444165 C583.376994,84.527288 583.076406,86.3694374 583.804366,87.2963896 C584.928631,88.7279597 588.725441,88.620487 592.398825,88.5155332 C594.575987,88.4542401 596.825357,88.388749 599.00084,88.5869018 C599.445004,88.627204 599.855584,88.8429891 600.140218,89.1872376 C600.425693,89.5306465 600.561713,89.9739715 600.520571,90.418136 C600.335852,92.3585223 600.018472,94.4122586 599.68262,96.5869018 C599.680101,96.604534 599.676742,96.6221662 599.674223,96.6389589 Z M316.218304,96.5625525 C317.014274,99.5558354 317.969773,102.099076 319.194794,104.49958 C322.88665,111.732997 330.180521,120.244332 337.467674,121.839631 C340.767422,122.561713 343.741394,121.832914 346.558354,119.610411 C348.223342,118.297229 349.324097,116.359362 350.489505,114.308144 C352.039463,111.580185 353.79597,108.487825 357.217464,106.424853 C359.785055,104.876574 362.788413,104.419815 365.693535,103.97733 C369.265323,103.434089 372.638959,102.921075 374.823678,100.463476 C377.356843,97.6137699 376.965575,94.3518052 376.513014,90.5734677 C376.145256,87.5062972 375.764903,84.334173 377.052897,81.2527288 C377.857263,79.3291352 379.424853,78.3459278 380.808564,77.4777498 C382.466835,76.4374475 383.265323,75.8740554 383.294995,74.4399664 C383.314022,73.5062972 382.346767,72.5843829 381.2267,71.5180521 C380.38707,70.7178841 379.518892,69.8916877 378.866499,68.8656591 C376.511335,65.1603694 375.940386,62.170445 375.38707,59.279597 C374.9555,57.0167926 374.507976,54.6775819 373.162049,51.8245172 C372.15953,49.697733 370.774979,48.1452561 369.309824,46.5020991 C366.989924,43.900084 364.59194,41.2099076 364.02183,36.3929471 C363.946264,35.7565071 364.239295,35.1326616 364.776658,34.7850546 C366.936188,33.388749 369.415617,31.286314 368.965575,29.2015113 C368.009236,24.7707809 356.345928,20.7783375 350.361881,19.8799328 C336.900084,17.8581024 327.217464,19.6633081 317.985726,25.9135181 C308.870697,32.0839631 303.758186,40.4047019 301.895886,52.0982368 L301.819479,52.5776658 C300.966415,57.9151973 299.99916,63.9638959 301.93199,68.7615449 C302.656591,70.5600336 304.352645,72.1209068 306.148615,73.7741394 C307.02351,74.5801847 307.913518,75.3996641 308.715365,76.2753988 C309.150294,74.611251 309.581024,72.8656591 310.025189,71.0663308 C312.774979,59.9277918 315.890008,47.3039463 323.443325,38.7657431 C328.246851,33.334173 347.145256,24.8589421 356.86398,28.2334173 C360.683459,29.559194 362.828715,32.5197313 363.06885,36.7968094 C363.104114,37.4265323 362.784215,38.02267 362.240134,38.34089 C359.878254,39.7229219 356.987406,40.4911839 354.192275,41.2342569 C346.602855,43.2527288 342.041142,44.9210747 343.803526,53.4089001 C344.220823,55.418136 345.269521,57.6624685 346.283795,59.8337531 C348.193955,63.9219144 349.998321,67.7833753 348.030227,70.7581864 C346.462636,73.1293031 342.855584,74.1309824 336.684299,73.9177162 C335.807725,73.8866499 335.102435,73.1872376 335.064652,72.3115029 C334.911839,68.7716205 333.401343,66.8270361 330.808564,66.8270361 C330.786734,66.8270361 330.764064,66.8270361 330.741394,66.8270361 C327.414777,66.8706969 322.714526,70.3551637 322.617968,75.9328296 C322.599496,76.9907641 323.730479,79.5776658 324.639798,81.6557515 C326.526448,85.9697733 327.611251,88.7246012 326.764903,90.6171285 C325.677582,93.0512175 322.88581,93.984047 320.184719,94.8849706 C318.719563,95.3744752 317.214106,95.8774139 316.218304,96.5625525 Z M599.079765,100.668346 C598.121746,107.823678 597.905122,115.174643 602.914358,119.684299 C605.850546,122.326616 608.993283,123.443325 612.261125,123.010915 C615.967254,122.517212 620.027708,119.937028 623.722082,115.848866 C621.692695,116.495382 619.680101,116.897565 617.753149,117.003359 C607.616289,117.557515 604.607053,111.188917 602.183879,106.072208 C601.214106,104.024349 600.314861,102.125105 599.079765,100.668346 Z M311.973132,103.72628 C312.306465,103.884131 312.580185,104.148615 312.74979,104.481108 C312.95466,104.884131 312.988245,105.352645 312.843829,105.780856 C311.011755,111.193955 314.054576,118.010915 320.983207,124.017632 C329.199832,131.139379 339.780017,134.291352 345.595298,131.347607 C349.79597,129.221662 350.980688,124.324937 351.055416,119.72712 C350.367758,120.643157 349.584383,121.501259 348.638959,122.247691 C345.033585,125.09152 341.033585,126.058774 336.74979,125.120907 C327.151973,123.020151 319.31822,112.130143 316.203191,106.026029 C314.992443,103.653233 314.026868,101.166247 313.217464,98.3173804 C312.942905,100.143577 312.529807,101.958858 311.973132,103.72628 Z M276.322418,163.743913 C276.709488,165.255248 277.275399,167.191436 277.77246,168.892527 C279.716205,175.543241 281.256927,181.188917 281.602855,185.366079 C281.855584,176.679261 281.146096,166.853065 276.322418,163.743913 Z M565.133501,152.827876 C559.392947,162.298908 566.563392,177.202351 571.845508,188.180521 C573.016793,190.61377 574.125105,192.917716 574.980688,194.93199 C575.110831,180.0445 573.74979,163.243493 568.753149,155.956339 C567.649034,154.346767 566.457599,153.314861 565.133501,152.827876 Z M374.576826,165.901763 C374.194794,166.099916 373.314861,166.722082 371.768262,168.664987 C368.302267,173.02267 366.926113,184.065491 366.015113,191.371956 C365.850546,192.691856 365.700252,193.897565 365.554156,194.93283 C365.235936,197.190596 365.083963,199.491184 365.047859,201.813602 C365.514694,200.20487 366.015953,198.5911 366.554996,196.972292 C367.481948,194.188917 368.555835,191.412259 369.594458,188.72796 C370.888329,185.382872 372.2267,181.924433 373.309824,178.382032 C374.785055,173.557515 375.237615,167.427372 374.576826,165.901763 Z M687.179681,154.398825 C686.936188,154.398825 686.661629,154.425693 686.350966,154.489505 C683.325777,155.107473 681.828715,160.632242 681.901763,170.91016 L681.905122,171.345088 C681.95466,179.995802 683.966415,187.629723 686.097397,195.712007 C687.194794,199.877414 688.316541,204.134341 689.165407,208.596138 C688.722922,198.708648 689.428212,188.980688 690.115869,179.507976 C690.316541,176.738875 690.515533,173.984887 690.685139,171.247691 L690.745592,170.344249 C690.987406,166.825357 691.629723,157.480269 688.754828,154.963056 C688.459278,154.70445 687.994962,154.398825 687.179681,154.398825 Z M391.403862,242.825357 C394.780017,244.145256 398.936188,244.687657 403.736356,244.400504 C412.518892,243.881612 427.842149,230.338371 429.026029,220.617968 C426.948783,220.59026 425.185558,221.527288 423.812762,223.38539 C423.437448,223.893367 422.809404,224.149454 422.184719,224.043661 C421.561713,223.938707 421.049538,223.493703 420.860621,222.890848 C419.914358,219.882452 419.844668,217.520571 420.670865,214.789253 C420.309824,214.513854 420.050378,214.428212 419.910999,214.461797 C418.497061,214.7733 416.819479,220.146935 416.102435,222.441646 C415.481108,224.429891 414.990764,226 414.406381,226.97733 C414.117548,227.461797 413.604534,227.767422 413.041142,227.793451 C412.474391,227.823678 411.939547,227.559194 411.607893,227.104114 C410.315701,225.329135 410.135181,223.047019 409.97649,221.033585 C409.688497,217.394626 409.334173,217.059614 407.829555,217.11251 C406.540722,217.155332 406.205709,217.768262 405.502939,219.653233 C404.799328,221.542401 403.665827,224.570109 399.481108,223.927792 C399.156171,225.740554 399.342569,228.709488 399.486146,231.004198 C399.770781,235.551637 399.97733,238.837951 397.86314,239.894207 C396.497061,240.578505 395.377834,240.352645 394.678421,240.04618 C392.222502,238.965575 391.160369,235.245172 390.134341,231.648195 C390.103275,231.539882 390.071369,231.427372 390.037783,231.312343 C389.928631,232.731318 389.957179,234.52225 390.211587,236.706129 C390.458438,238.820319 390.876574,240.917716 391.403862,242.825357 Z M577.433249,213.148615 C577.082284,216.738035 576.684299,219.560873 576.327456,221.222502 C575.816121,223.608732 574.744752,226.775819 573.504618,230.442485 C570.434929,239.519731 566.230059,251.951301 569.646516,256.643157 C570.624685,257.985726 572.277918,258.625525 574.688497,258.586902 C576.149454,258.565911 577.63728,258.286314 579.133501,257.850546 C580.007557,251.644836 580.716205,245.775819 580.707058,240.45508 C580.691856,231.231738 579.576826,222.007557 577.433249,213.148615 Z M670.115029,257.251889 C671.688497,258.45508 673.209908,259.802687 674.662469,261.265323 C675.556675,260.028547 677.009236,258.654912 679.168766,256.895046 L680.849706,255.532326 C686.011755,251.359362 689.420655,248.603694 692.997481,242.602015 C697.214945,235.526448 700.141058,231.874055 707.351805,227.573468 C708.376994,226.963056 709.513014,226.374475 710.717045,225.751469 C714.6356,223.723762 719.006717,221.460957 720.140218,217.984047 C715.984047,218.324097 711.573468,220.888329 707.623006,223.184719 C702.581864,226.115029 698.229219,228.647355 694.581024,226.811083 C692.730479,225.879933 691.424853,223.963896 690.586062,220.892527 C691.015953,232.958018 688.22754,242.146935 682.11419,248.888329 C678.967254,252.359362 675.02267,255.130143 670.115029,257.251889 Z M297.293871,262.775819 C297.981528,262.88749 298.695214,262.981528 299.433249,263.061293 L299.842149,263.104114 C323.846348,265.688497 330.063812,262.973971 331.633921,261.125945 C331.898405,260.815281 332.167926,260.384551 332.158921,259.687657 C330.854744,259.326616 329.552477,258.973132 328.254408,258.621327 C324.093199,257.489505 319.790932,256.319899 315.662469,254.984887 C315.211587,254.839631 314.842989,254.509656 314.648195,254.078086 C314.45424,253.646516 314.450042,253.152813 314.638959,252.717884 C315.086482,251.687657 315.40806,250.445844 315.74895,249.131822 C315.979009,248.241814 316.214945,247.334173 316.502099,246.444165 C315.666667,246.714526 314.800168,247.024349 313.903442,247.345088 C308.071369,249.429891 300.812762,252.025189 295.926113,245.157011 C295.607893,244.710327 295.528967,244.13686 295.712846,243.620487 C296.180521,242.307305 296.723762,241.057935 297.25021,239.849706 C298.617968,236.706129 299.827876,233.926952 299.601175,230.607893 C295.61293,231.900084 293.050378,233.716205 291.793451,236.130982 C289.406381,240.720403 291.933669,247.495382 294.377834,254.04618 C295.460957,256.948783 296.560873,259.899244 297.293871,262.775819 Z M582.163728,260.38539 C582.059614,261.108312 581.95466,261.835432 581.848866,262.565911 C581.696893,263.616289 581.544081,264.667506 581.392947,265.720403 C598.835432,259.281276 621.121746,259.297229 634.473552,259.315701 C634.536524,259.315701 634.600336,259.315701 634.664148,259.315701 C645.826196,259.315701 654.944584,258.351805 662.269521,256.355164 C648.866499,249.990764 630.149454,249.632242 616.960537,251.453401 C615.214945,251.695214 613.440806,251.90932 611.654072,252.125945 C605.75063,252.84131 599.646516,253.581024 594.105793,255.354324 C592.128463,255.986566 590.075567,256.930311 587.902603,257.928631 C586.020151,258.794291 584.109152,259.671704 582.163728,260.38539 Z M365.611251,213.579345 C365.764064,215.258606 365.935348,216.933669 366.104114,218.595298 C366.239295,219.927792 366.373636,221.248531 366.497061,222.552477 C366.710327,224.798489 366.851385,227.379513 367.00084,230.110831 C367.651553,241.983207 368.541562,258.240974 376.706129,263.729639 C380.478589,266.267003 385.507976,266.396306 392.082284,264.127624 C395.943745,262.79513 400.403023,260.174643 401.066331,257.571788 C401.534005,255.737196 401.516373,254.972292 401.473552,254.692695 C401.149454,254.647355 400.501259,254.686818 400.009236,254.715365 C398.177162,254.827876 395.667506,254.97649 393.282116,253.246851 C391.354324,251.848027 389.777498,248.783375 388.646516,245.287154 C386.306465,244.160369 384.309824,242.666667 382.694374,240.816121 C378.47691,235.986566 377.128463,228.951301 378.79513,220.471033 C379.993283,214.376994 382.041142,207.664987 384.209068,200.557515 C390.389589,180.299748 397.393787,157.339211 387.425693,139.495382 C381.933669,129.663308 365.832074,119.436608 354.403023,118.205709 C354.717884,128.27204 350.678421,132.538203 347.11251,134.344249 C339.092359,138.403862 326.791772,133.497061 318.783375,126.554996 C312.925273,121.476071 309.528967,115.734677 309.030227,110.371956 C308.579345,111.131822 308.093199,111.871537 307.573468,112.584383 C307.905122,115.856423 308.52309,119.106633 309.494542,122.312343 C313.643997,136.00084 323.669186,144.585223 334.282955,153.674223 C335.660789,154.854744 337.047019,156.041982 338.43157,157.24937 C356.994962,173.439127 353.91016,198.919395 351.188917,221.398825 C350.449202,227.505458 349.75063,233.27372 349.490344,238.669186 L349.424013,240.034425 C349.04534,247.79597 348.678421,255.314022 349.598657,262.586902 C350.486986,262.852225 351.342569,263.152813 352.171285,263.486146 C353.427372,263.071369 354.45424,262.539043 355.087322,261.919395 C357.903442,259.157011 357.994123,252.719563 358.066331,247.547439 C358.093199,245.588581 358.119228,243.738875 358.277918,242.152813 C359.279597,232.131822 360.334173,222.717045 362.221662,213.38707 C361.65827,207.082284 361.351805,200.689337 362.22838,194.464316 C362.372796,193.444165 362.520571,192.256927 362.68262,190.957179 C363.696893,182.8178 365.085642,171.670025 369.140218,166.574307 C370.285474,165.13602 373.329975,161.314022 376.11251,162.779177 C380.629723,165.156171 376.564232,179.223342 376.521411,179.3644 C375.402183,183.02267 374.041982,186.539043 372.72628,189.939547 C371.702771,192.587741 370.643157,195.325777 369.741394,198.033585 C368.007557,203.240134 366.676742,208.392107 365.611251,213.579345 Z M303.921075,107.738035 C296.515533,110.167086 285.97733,116.103275 279.468514,119.769941 C276.848027,121.246012 274.586062,122.520571 272.939547,123.361041 C260.512175,129.708648 252.22838,140.371117 247.61461,155.958018 C240.178841,181.076406 239.285474,219.498741 251.963896,244.333333 C257.00084,254.198153 271.06717,269.895886 283.324937,272.473552 C287.649034,273.383711 291.481948,272.616289 294.725441,270.194794 C294.88581,268.786734 294.775819,267.257767 294.487825,265.654072 C288.950462,264.400504 284.947943,262.02351 282.324937,258.446683 C278.767422,253.596138 277.95466,246.677582 279.84047,237.293871 C281.361881,229.723762 281.094878,222.38539 280.811923,214.615449 C280.622166,209.407221 280.426532,204.020991 280.77162,198.331654 C280.827036,197.415617 280.914358,196.308144 281.014274,195.057095 C281.141058,193.463476 281.289673,191.593619 281.411419,189.572628 C281.106633,190.837951 280.525609,191.801008 279.607053,192.426532 C276.725441,194.388749 272.453401,191.556675 269.490344,189.256927 C257.604534,180.031906 259.38623,156.152813 265.780017,144.407221 C271.468514,133.9555 280.303107,128.414777 288.846348,123.055416 C292.892527,120.517212 297.076406,117.892527 300.946264,114.751469 C302.11419,113.803526 303.167086,112.734677 304.106633,111.570109 C304.006717,110.29471 303.945424,109.015953 303.921075,107.738035 Z M651.570949,261.802687 C654.080605,263.938707 657.164568,264.449202 660.629723,265.02351 C664.669186,265.691856 668.846348,266.383711 672.308144,269.848027 C674.828715,272.371117 676.177162,274.842149 677.216625,277.11419 C677.062133,275.952981 676.824517,274.778338 676.504618,273.593619 C675.916877,271.416457 675.215785,269.833753 674.653233,268.561713 C674.036104,267.169605 673.631402,266.026868 673.529807,264.973971 C671.299748,262.537364 668.880772,260.394626 666.355164,258.685978 C662.087322,260.117548 657.188077,261.146935 651.570949,261.802687 Z M680.586062,283.49958 C681.631402,284.708648 683.059614,285.72628 685.280437,286.54492 C684.264484,282.289673 682.428212,277.90848 680.018472,273.802687 C680.779177,277.08984 680.963896,280.360202 680.586062,283.49958 Z M689.424013,291.128463 C689.469353,291.665827 689.49958,292.198153 689.516373,292.72712 C690.346767,292.571788 691.237615,292.239295 692.172124,291.760705 C691.612091,291.631402 691.043661,291.501259 690.466835,291.367758 C690.121746,291.289673 689.774139,291.209908 689.424013,291.128463 Z M634.798489,299.506297 C634.905122,299.768262 635.164568,300.256927 635.801008,301.034425 C638.859782,304.77246 650.838791,304.326616 656.574307,303.258606 C664.234257,301.827876 670.459278,297.848866 674.101595,292.055416 C675.586902,289.691856 676.581024,287.135181 677.073048,284.442485 C676.148615,283.061293 675.503778,281.574307 674.846348,280.058774 C673.747271,277.52309 672.609572,274.901763 669.93199,272.222502 C667.233417,269.520571 663.759026,268.945424 660.081444,268.336692 C656.243493,267.701092 651.959698,266.991604 648.561713,263.585223 C648.314861,264.49958 648.958858,265.448363 650.406381,267.18136 C651.93199,269.009236 654.486146,272.06717 651.316541,275.093199 C648.829555,277.467674 645.744752,276.324097 643.267003,275.405542 C641.611251,274.790932 640.047019,274.209068 639.128463,274.723762 C638.638119,274.996641 637.97649,275.759026 637.435768,277.785894 C638.137699,278.380353 638.722082,279.079765 639.256927,279.720403 C639.70361,280.254408 640.209068,280.860621 640.530647,281.049538 C641.099916,281.38539 641.419815,282.024349 641.347607,282.68094 C641.274559,283.337531 640.823678,283.890848 640.194794,284.094039 C639.693535,284.256087 639.339211,284.492863 638.890848,284.791772 C638.426532,285.102435 637.888329,285.461797 637.151134,285.753149 C637.371956,289.015953 641.277078,291.761545 644.758186,294.209908 C646.214945,295.234257 647.59026,296.201511 648.617968,297.165407 C649.062972,297.581864 649.246851,298.206549 649.099076,298.798489 C648.950462,299.389589 648.493703,299.854744 647.905122,300.011755 C646.677582,300.34005 644.811923,300.143577 641.86314,299.792611 C639.921914,299.560034 636.037783,299.099076 634.798489,299.506297 Z M531.572628,311.701931 C531.792611,311.701931 532.014274,311.744752 532.225021,311.833753 C532.865659,312.104114 533.274559,312.742233 533.25105,313.437448 C533.206549,314.77246 533.074727,316.22754 532.935348,317.768262 C532.38623,323.834593 531.769941,330.643157 535.81864,334.162888 C537.445004,331.403023 537.736356,327.335852 538.019312,323.384551 C538.403862,318.029387 538.801008,312.492863 542.686818,309.786734 C546.109992,307.402183 548.789253,306.768262 550.875735,307.852225 C554.428212,309.696054 554.459278,315.745592 554.486986,321.083123 C554.498741,323.221662 554.515533,326.43157 554.952981,327.191436 C556.055416,327.970613 557.521411,328.747271 558.422334,328.194794 C560.013434,327.215785 563.1822,321.497061 558.225861,289.624685 C557.785894,286.797649 557.785894,286.797649 557.968094,286.315701 C561.397985,277.211587 568.741394,271.176322 577.79597,267.173804 C578.032746,265.476071 578.278757,263.776658 578.524769,262.083963 C578.554996,261.874895 578.586062,261.665827 578.616289,261.456759 C577.337531,261.748111 576.04534,261.926113 574.736356,261.945424 C571.208228,261.992443 568.575147,260.876574 566.93199,258.620487 C562.491184,252.52309 566.834593,239.683459 570.323258,229.366919 C571.529807,225.797649 572.572628,222.715365 573.0445,220.518052 C573.685978,217.527288 574.368598,211.297229 574.729639,203.763224 C573.900084,201.293871 572.987406,198.866499 571.991604,196.488665 C571.157011,194.494542 570.020991,192.134341 568.819479,189.63644 C562.993283,177.528128 555.014274,160.945424 563.037783,149.920235 C563.4089,149.410579 564.035264,149.152813 564.65911,149.25021 C567.315701,149.671704 569.625525,151.288833 571.52225,154.056255 C578.189757,163.779177 578.946264,186.643997 578.135181,203.361881 C582.009236,215.134341 584.04534,227.79597 584.065491,240.449202 C584.073887,245.471872 583.478589,250.879093 582.702771,256.565071 C583.975651,256.036944 585.244332,255.45424 586.49958,254.877414 C588.668346,253.880772 590.910999,252.849706 593.082284,252.154492 C598.926113,250.285474 605.191436,249.525609 611.25021,248.791772 C613.017632,248.577666 614.7733,248.365239 616.501259,248.126784 C634.496222,245.642317 652.401343,247.709488 664.397985,253.654912 C665.178841,254.042821 665.9555,254.470193 666.722082,254.93283 C672.1822,252.902603 676.437448,250.149454 679.626364,246.631402 C685.864819,239.752309 688.246851,229.843829 686.91016,216.34005 C686.218304,209.350966 684.505458,202.853065 682.848866,196.56759 C680.759026,188.638959 678.598657,180.440806 678.546599,171.3644 L678.544081,170.934509 C678.505458,165.473552 678.412259,152.683459 685.678421,151.198992 C688.279597,150.666667 689.987406,151.578505 690.966415,152.435768 C695.094878,156.048699 694.420655,165.859782 694.096558,170.574307 L694.037783,171.455919 C693.867338,174.20403 693.666667,176.969773 693.465155,179.751469 C692.610411,191.539882 691.72712,203.731318 693.102435,215.984047 C693.595298,220.368598 694.628883,223.074727 696.09068,223.811083 C698.109992,224.827876 701.911839,222.620487 705.935348,220.281276 C710.898405,217.395466 716.513014,214.127624 722.25021,214.639798 C723.125105,214.718724 723.790932,215.457599 723.779177,216.335013 C723.692695,222.816961 717.353484,226.098237 712.261125,228.733837 C711.103275,229.333333 710.010076,229.899244 709.072208,230.458438 C702.151134,234.586062 699.738035,237.852225 695.882452,244.321579 C691.99916,250.837951 688.208228,253.901763 682.961377,258.143577 L681.290512,259.498741 C678.651553,261.648195 677.410579,262.780856 677.019312,263.806885 C682.947943,270.650714 687.395466,279.344249 688.939547,287.570109 C689.712007,287.74979 690.471033,287.923594 691.217464,288.094878 C692.873216,288.474391 694.469353,288.84131 696.013434,289.218304 C703.312343,283.471872 711.730479,272.428212 715.167926,267.918556 L716.245172,266.507976 C728.060453,251.131822 733.444165,236.528128 732.70361,221.862301 C732.149454,210.900924 729.02183,202.320739 725.709488,193.236776 C724.400504,189.646516 723.047019,185.934509 721.786734,181.921075 C719.633921,175.061293 718.329975,168.00084 717.069689,161.172964 C715.781696,154.193115 714.449202,146.97649 712.219144,140.178841 C702.120907,109.404702 676.747271,102.193955 649.884131,94.5600336 C648.801008,94.2518892 647.782536,93.9311503 646.824517,93.5961377 C646.702771,94.225021 646.559194,94.8077246 646.395466,95.3333333 C644.31738,102.018472 637.632242,108.876574 630.124265,113.04618 C627.418136,117.094039 621.015113,125.233417 612.70361,126.34005 C608.422334,126.91016 604.368598,125.511335 600.667506,122.180521 C593.991604,116.170445 594.793451,106.645676 596.005877,98.4214945 C595.605374,98.2670025 595.176322,98.1410579 594.717045,98.0470193 C588.305626,96.7506297 572.177162,106.125945 565.375315,110.873216 C554.75063,118.288833 548.152813,130.168766 545.767422,146.183039 C544.493703,154.72628 542.973132,163.061293 541.502099,171.120907 C540.365239,177.350126 539.189757,183.791772 538.134341,190.298908 C536.052057,203.125945 536.132662,216.723762 536.210747,229.872376 C536.223342,232.153652 536.237615,234.434929 536.240134,236.715365 C536.251889,246.102435 535.968094,253.351805 535.319899,260.219144 C535.041982,263.166247 534.223342,266.074727 533.43157,268.889169 C532.389589,272.589421 531.398825,276.111671 531.555835,279.647355 C532.701092,279.507976 534.248531,279.216625 535.855584,278.913518 C543.217464,277.527288 553.297229,275.628044 554.905122,282.013434 C556.135181,286.900084 547.930311,289.223342 539.994962,291.469353 C537.311503,292.22838 534.778338,292.945424 533.729639,293.516373 C526.63728,297.380353 512.692695,310.638959 511.188077,320.711167 C510.828715,323.116709 511.203191,325.13686 512.330814,326.842149 C513.633921,325.395466 514.439127,323.538203 515.281276,321.596138 C516.436608,318.93199 517.631402,316.176322 520.198992,314.031066 C520.872376,313.467674 521.864819,313.518052 522.47775,314.146935 C522.717045,314.392107 522.958858,314.633921 523.202351,314.874895 C523.661629,315.326616 523.821998,316 523.615449,316.610411 C523.419815,317.186398 523.224181,317.755668 523.029387,318.320739 C521.38707,323.083963 519.950462,327.24937 520.347607,332.174643 C523.536524,332.099916 524.821998,328.085642 526.445844,321.79597 C527.442485,317.930311 528.38623,314.279597 530.361041,312.219144 C530.684299,311.881612 531.124265,311.701931 531.572628,311.701931 Z M350.414777,267.381192 C351.278757,271.365239 352.628883,275.274559 354.684299,279.105793 C359.002519,287.152813 366.331654,293.481108 373.419815,299.600336 C376.419815,302.189757 379.52225,304.869018 382.367758,307.650714 C393.97649,318.998321 401.607893,332.298069 405.332494,347.800168 C408.160369,343.988245 411.29471,340.348447 414.761545,337.018472 C413.785894,332.087322 412.246012,327.206549 410.013434,322.396306 C404.167926,309.804366 394.329975,301.972292 383.914358,293.680101 C380.941226,291.313182 377.865659,288.864819 374.907641,286.308984 C371.997481,283.794291 369.452561,281.285474 366.992443,278.858942 C361.998321,273.933669 357.61377,269.609572 351.93199,267.049538 C351.437448,267.175483 350.929471,267.286314 350.414777,267.381192 Z M248.790092,347.890848 C249.232578,348.700252 252.057095,350.664148 257.002519,349.95466 C257.279597,349.915197 257.559194,349.869857 257.842989,349.820319 C256.314022,348.77246 254.770781,348.060453 253.231738,347.809404 C250.517212,347.369437 249.209908,347.670025 248.790092,347.890848 Z M556.556675,346.347607 C556.199832,349.094039 556.74895,351.02351 558.194794,352.096558 C559.639798,353.168766 561.877414,353.507976 564.501259,353.3644 C561.740554,349.989085 558.971453,347.401343 556.556675,346.347607 Z M319.623006,425.242653 C314.675063,425.242653 307.679261,427.874055 304.956339,430.858102 C303.825357,432.097397 303.123426,433.246851 302.835432,434.338371 C303.287993,434.170445 303.825357,433.973971 304.441646,433.74895 C316.806885,429.237615 321.099916,426.843829 322.307305,425.579345 C321.528967,425.349286 320.617128,425.242653 319.623006,425.242653 Z M403.551637,356.366919 C394.830395,370.314861 389.741394,385.59194 386.989085,396.085642 C382.029387,414.991604 377.632242,434.598657 379.074727,453.595298 C384.145256,447.921075 388.641478,442.026029 391.269521,434.141058 C391.725441,432.774139 392.189757,431.392107 392.65827,429.998321 C396.877414,417.440806 401.240134,404.45508 403.128463,391.478589 C404.986566,378.712007 405.135181,367.031906 403.551637,356.366919 Z M600.316541,451.664148 C600.651553,452.969773 601.08984,454.275399 601.608732,455.578505 C603.91016,454.27372 603.888329,453.480269 603.88749,453.469353 C603.862301,453.118388 603.755668,452.743913 603.151973,452.384551 C602.478589,451.982368 601.490344,451.756507 600.316541,451.664148 Z M701.263644,438.801847 C699.899244,442.191436 698.689337,445.640638 697.687657,449.15953 C696.441646,453.540722 696.138539,457.335013 696.348447,460.942905 C699.449202,460.111671 701.541562,458.732997 702.721243,456.74979 C705.297229,452.423174 703.301427,445.319899 701.263644,438.801847 Z M668.255248,454.950462 C668.867338,455.52309 669.543241,456.06801 670.283795,456.585223 C676.592779,460.989085 686.256087,462.373636 693.026868,461.56843 C692.74979,457.529807 693.041982,453.215785 694.457599,448.240974 C695.866499,443.287993 697.665827,438.491184 699.716205,433.814442 C699.15953,431.93115 698.685139,430.127624 698.387909,428.426532 C694.845508,408.147775 704.15869,390.129303 713.166247,372.702771 C717.628044,364.06801 721.842989,355.914358 724.587741,347.516373 C729.548279,332.346767 727.963896,319.407221 719.743073,307.957179 C712.756507,298.22838 705.916877,295.221662 696.733837,292.861461 C693.463476,295.172124 690.379513,296.434929 687.654072,296.138539 C686.781696,296.042821 686.130143,295.291352 686.15869,294.413938 C686.202351,293.078086 686.132662,291.698573 685.960537,290.290512 C683.252729,289.523929 681.293031,288.534005 679.810243,287.38707 C679.169605,289.65827 678.212427,291.826196 676.944584,293.842989 C672.798489,300.439127 665.782536,304.9555 657.190596,306.559194 C652.072208,307.513854 637.786734,308.764903 633.201511,303.161209 C632.074727,301.783375 630.693535,299.735516 631.717045,297.871537 C633.074727,295.392947 637.240974,295.858942 642.087322,296.436608 C637.827876,293.422334 632.97649,289.673384 633.88749,284.200672 C634.002519,283.509656 634.533165,282.963056 635.221662,282.828715 C635.946264,282.686818 636.361041,282.439966 636.871537,282.101595 C636.806885,282.026868 636.743913,281.950462 636.680101,281.874055 C636.051217,281.120907 635.401343,280.342569 634.729639,279.968094 C634.09068,279.61293 633.756507,278.884131 633.900924,278.168766 C634.582704,274.801847 635.723762,272.774979 637.494542,271.789253 C639.763224,270.523929 642.245172,271.445004 644.433249,272.256087 C646.877414,273.162049 648.123426,273.497061 648.997481,272.662469 C649.693535,271.99916 649.806045,271.702771 647.827876,269.334173 C646.458438,267.693535 644.378673,265.20403 645.423174,262.351805 C642.007557,262.572628 638.372796,262.677582 634.470193,262.674223 C620.942065,262.654912 597.889169,262.638119 580.867338,269.503778 C578.958858,283.765743 578.089001,297.68262 585.041982,306.562552 C589.391268,312.116709 596.450882,315.303107 606.623846,316.304786 C613.027708,316.934509 619.355164,316.300588 625.473552,315.686818 C633.86314,314.846348 642.535684,313.97649 651.688497,316.274559 C668.721243,320.549958 679.969773,327.286314 686.076406,336.867338 C698.347607,356.121746 688.696893,385.550798 680.942065,409.198153 C678.754828,415.866499 676.689337,422.165407 675.31822,427.61293 C674.696893,430.078086 673.924433,432.943745 673.107473,435.97733 C671.600336,441.571788 669.848027,448.077246 668.255248,454.950462 Z M596.870697,451.701092 C592.648195,452.031066 587.757347,453.239295 585.676742,454.178002 C580.617968,456.460118 578.722922,459.399664 578.531486,463.238455 C579.371117,462.951301 580.202351,462.651553 581.015953,462.356843 C582.232578,461.917716 583.382872,461.502099 584.518892,461.138539 C585.155332,460.934509 586.187238,460.670025 587.494542,460.335852 C590.445844,459.580185 594.905122,458.439127 598.49958,457.020991 C598.518892,457.014274 598.537364,457.006717 598.555835,456.99916 C597.852225,455.253568 597.27372,453.487825 596.870697,451.701092 Z M332.900924,463.853904 C339.834593,464.128463 342.018472,457.08984 344.105793,447.90848 C344.534005,446.027708 344.937867,444.25021 345.40974,442.720403 C345.61293,442.058774 346.202351,441.59026 346.893367,441.539882 C348.620487,441.417296 350.819479,441.752309 352.643997,443.623846 C353.011755,441.497901 353.406381,439.344249 353.809404,437.190596 C354.225021,434.97649 354.582704,433.062972 354.759866,431.839631 C356.798489,417.709488 358.973971,404.959698 364.963896,392.001679 C366.581024,388.504618 369.163728,384.628883 371.898405,380.525609 C377.895886,371.525609 384.694374,361.325777 382.617968,352.882452 C381.869018,349.84047 380.686818,347.984047 379.289673,347.656591 C377.673384,347.279597 375.319899,348.699412 372.985726,351.459278 C371.641478,353.048699 370.396306,354.97817 369.372796,357.032746 C369.942905,359.400504 370.1822,361.685139 370.027708,363.827876 C369.97649,364.542401 369.966415,365.168766 369.957179,365.774979 C369.918556,368.231738 369.884971,370.355164 366.668346,372.502939 C366.25105,372.781696 365.732158,372.858102 365.251889,372.714526 C364.77162,372.570109 364.381192,372.218304 364.187238,371.756507 C362.45424,367.625525 363.45424,361.890848 365.792611,356.715365 C362.799328,346.335013 352.829555,333.110831 340.61293,324.193955 C330.194794,316.59026 320.379513,313.768262 313.68262,316.458438 C306.08984,319.506297 299.677582,325.65827 293.47775,331.607893 C289.108312,335.800168 284.59026,340.13602 279.641478,343.423174 C274.195634,347.039463 269.183879,349.699412 264.65995,351.378673 C269.354324,356.380353 273.49958,363.178841 276.910999,368.774139 C278.403862,371.221662 279.692695,373.335852 280.791772,374.90848 C287.555835,384.59194 295.644836,394.005038 304.834593,402.88581 C306.584383,404.576826 308.311503,406.231738 310.02183,407.869857 C317.254408,414.799328 324.086482,421.345088 331.084803,429.110831 L332.080605,430.209068 C336.070529,434.59194 340.195634,439.124265 340.172964,445.884131 C340.15869,450.11419 338.13602,453.392107 336.178841,456.561713 C334.68094,458.987406 333.253568,461.299748 332.900924,463.853904 Z M376.581024,461.270361 C374.330814,463.696054 372.0445,466.189757 369.871537,468.847187 C371.461797,468.70361 373.11335,468.617128 374.849706,468.527288 C375.626364,468.484467 376.757347,468.564232 378.115869,468.708648 C377.486986,466.242653 376.979009,463.760705 376.581024,461.270361 Z M381.712846,469.146096 C381.914358,469.172124 382.119228,469.198153 382.325777,469.225861 C385.857263,469.684299 392.43241,470.537364 393.665827,469.952981 C396.521411,468.005038 396.083963,460.895046 395.764064,455.70361 C395.619647,453.353484 395.482788,451.135181 395.628883,449.469353 C396.366919,441.062972 397.810243,432.208228 399.589421,425.176322 C401.303946,418.398825 403.411419,411.381192 405.450042,404.594458 C411.780856,383.516373 418.277078,361.88665 415.437448,341.069689 C412.050378,344.529807 409.008396,348.297229 406.278757,352.2267 C408.525609,364.180521 408.573468,377.391268 406.451721,391.962217 C404.520571,405.238455 400.108312,418.368598 395.84131,431.06801 C395.374475,432.460118 394.910999,433.837951 394.455919,435.20403 C391.265323,444.774139 385.660789,451.43157 379.529807,458.09068 C380.001679,461.807725 380.716205,465.495382 381.712846,469.146096 Z M675.852225,494.687657 C676.304786,495.576826 677.111671,496.324937 677.812762,496.853065 C681.419815,499.574307 687.912678,500.924433 691.094039,500.276238 C693.109152,499.86398 694.502939,499.185558 695.45508,498.232578 C689.445004,495.433249 681.780856,492.947943 675.852225,494.687657 Z M585.311503,507.880772 C585.75063,508.221662 587.338371,509.099916 592.411419,509.596977 C602.346767,510.566751 609.476071,508.593619 613.035264,503.889169 C613.11251,503.788413 613.188077,503.685139 613.260285,503.581024 C612.814442,503.580185 612.374475,503.578505 611.938707,503.576826 C605.59194,503.554996 600.586902,503.536524 594.588581,504.518892 C588.654912,505.491184 585.921914,507.160369 585.311503,507.880772 Z M303.29555,437.753988 C304.349286,439.812762 306.623006,441.875735 308.994962,444.028547 C309.551637,444.533165 310.11419,445.043661 310.670865,445.562552 C322.892527,456.948783 326.271201,469.848866 321.625525,487.389589 C319.734677,494.526448 316.900084,498.360202 311.641478,503.775819 C311.053736,504.380353 310.210747,505.115869 309.234257,505.966415 C306.062972,508.730479 300.160369,513.875735 301.791772,516.761545 C302.526448,518.061293 304.069689,518.86398 306.380353,519.147775 C316.478589,520.395466 335.40806,511.701092 338.910999,508.010076 C342.720403,503.995802 348.648195,486.784215 351.377834,471.281276 C349.805206,466.119228 350.418976,457.895046 351.805206,448.764903 C351.669186,448.367758 351.519731,447.993283 351.354324,447.644836 C350.587741,446.024349 349.612091,445.154492 348.270361,444.93199 C347.968934,446.06717 347.68094,447.332494 347.381192,448.653233 C345.533165,456.779177 342.740554,469.058774 330.856423,467 C330.070529,466.86314 329.488665,466.192275 329.465155,465.395466 C329.34173,461.243493 331.365239,457.966415 333.320739,454.797649 C335.11251,451.896725 336.803526,449.155332 336.814442,445.872376 C336.832914,440.418976 333.479429,436.734677 329.596977,432.469353 L328.589421,431.359362 C327.401343,430.041142 326.217464,428.756507 325.033585,427.49958 C322.90848,429.963056 317.096558,432.706129 305.592779,436.903442 C304.627204,437.256087 303.81864,437.551637 303.29555,437.753988 Z M667.423174,458.649034 C662.924433,479.297229 660.458438,502.308144 670.510495,513.625525 C676.276238,520.119228 697.796809,526.768262 706.717884,523.461797 C711.041982,521.857263 713.307305,519.679261 713.449202,516.988245 C713.738875,511.455919 705.395466,503.680101 698.529807,499.790092 C697.189757,501.531486 695.073048,502.889169 691.767422,503.565911 C687.732997,504.397145 680.347607,502.970613 675.790932,499.534845 C673.573468,497.86314 672.31738,495.866499 672.156171,493.762385 C672.101595,493.047019 672.507137,492.375315 673.166247,492.09152 C679.093199,489.536524 687.115869,490.603694 697.025189,495.257767 C697.485306,493.334173 697.40974,490.893367 697.248531,487.915197 L697.203191,487.071369 C696.933669,481.867338 695.939547,477.406381 694.979849,473.09068 C694.370277,470.355164 693.7733,467.674223 693.382872,464.91016 C685.822838,465.802687 675.418976,464.264484 668.361041,459.338371 C668.038623,459.11419 667.72628,458.883291 667.423174,458.649034 Z M351.963896,524.769941 C358.077246,528.208228 361.803526,526.512175 368.471033,523.480269 L369.549958,522.990764 C377.278757,519.498741 381.624685,517.964736 390.72628,517.964736 C390.769102,517.964736 390.811923,517.964736 390.854744,517.964736 C401.952981,517.964736 418.02183,517.084803 429.800168,509.566751 C433.092359,507.464316 439.924433,499.708648 438.672544,495.865659 C437.027708,490.809404 426.31906,491.888329 421.744752,492.348447 C418.508816,492.673384 415.368598,493.281276 412.332494,493.868178 C401.139379,496.033585 390.56759,498.078086 383.414777,483.260285 C381.654912,479.61461 380.22754,475.923594 379.093199,472.201511 C377.34005,471.989924 375.805206,471.844668 375.025189,471.880772 C372.038623,472.036104 369.403023,472.172964 366.951301,472.612091 C349.519731,495.956339 344.61377,513.035264 351.963896,524.769941 Z M551.671704,510.054576 C540.623846,510.054576 533.966415,512.747271 533.305626,515.293031 C533.098237,516.093199 533.133501,519.100756 542.309824,524.179681 C553.130143,530.168766 562.95382,531.937028 577.344249,530.482788 C582.433249,529.969773 587.855584,530.146935 593.596138,530.335013 C604.464316,530.692695 615.706969,531.059614 624.104954,526.349286 C631.032746,522.463476 632.957179,518.370277 630.970613,511.74979 C628.743913,504.336692 625.574307,503.617128 617.162888,503.583543 C616.751469,504.404702 616.267842,505.183879 615.713686,505.916037 C611.412259,511.600336 603.244332,514.030227 592.085642,512.938707 C587.747271,512.514694 581.967254,511.54492 581.853065,508.038623 C581.738035,504.492024 588.075567,502.183039 594.04618,501.20487 C600.320739,500.178002 605.711167,500.194794 611.950462,500.218304 C612.90932,500.221662 613.874055,500.211587 614.905961,500.225021 C616.251889,495.956339 615.646516,490.392947 613.092359,483.861461 C611.38539,479.49958 608.75063,475.208228 605.960537,470.664987 C603.831234,467.198153 601.664987,463.670865 599.919395,460.062972 C596.597817,461.395466 592.485306,462.524769 588.326616,463.589421 C587.124265,463.896725 586.084803,464.162888 585.54492,464.335852 C584.466835,464.68178 583.345088,465.087322 582.157011,465.516373 C581.0445,465.917716 579.902603,466.329975 578.744752,466.710327 C579.107473,469.124265 579.864819,471.831234 580.769941,474.874895 C582.460957,480.559194 584.209908,486.436608 582.904282,492.035264 C578.692695,510.109992 561.193115,510.087322 551.811923,510.054576 C551.764903,510.054576 551.718724,510.054576 551.671704,510.054576 Z M568.348447,534.345088 C559.299748,534.345088 550.583543,532.597817 540.68262,527.118388 C532.609572,522.649034 529.033585,518.38623 530.054576,514.449202 C531.54576,508.702771 542.265323,506.670865 551.81864,506.696054 C551.93283,506.696054 552.047019,506.696054 552.162049,506.696054 C563.780017,506.696054 576.338371,505.410579 579.633921,491.27204 C580.737196,486.541562 579.116709,481.096558 577.550798,475.832914 C576.756507,473.162888 575.930311,470.38707 575.492024,467.656591 C572.004198,468.507137 568.496222,468.734677 565.350966,467.233417 C559.879093,464.620487 556.947103,457.368598 554.805206,452.072208 L554.45424,451.207389 C552.428212,446.230898 550.629723,441.167926 548.888329,436.271201 C545.929471,427.942065 542.869018,419.329135 538.670025,411.15953 C530.369437,395.015113 524.054576,381.632242 518.797649,369.04534 C517.372796,365.6356 514.491184,361.525609 511.439966,357.173804 C505.261965,348.36272 498.331654,338.480269 500.435768,329.979009 L429.54576,329.979009 C425.50042,332.323258 421.797649,335.104114 418.4089,338.197313 C422.225021,360.421495 415.355164,383.291352 408.666667,405.560873 C406.638119,412.312343 404.540722,419.293871 402.844668,425.99916 C401.108312,432.865659 399.696893,441.526448 398.974811,449.763224 C398.850546,451.178841 398.979849,453.276238 399.116709,455.497061 C399.506297,461.827876 399.991604,469.706129 395.512175,472.755668 C393.832914,473.899244 390.125945,473.611251 382.766583,472.668346 C383.770781,475.744752 384.985726,478.789253 386.439966,481.801008 C392.468514,494.290512 400.534005,492.730479 411.694374,490.570949 C414.804366,489.969773 418.020991,489.346767 421.40806,489.005877 C427.244332,488.420655 439.382872,487.196474 441.866499,494.826196 C443.943745,501.20487 434.796809,510.361041 431.607053,512.397145 C419.08984,520.38707 402.372796,521.323258 390.853065,521.323258 C390.810243,521.323258 390.768262,521.323258 390.725441,521.323258 C382.239295,521.323258 378.36356,522.693535 370.933669,526.050378 L369.861461,526.537364 C362.827036,529.737196 357.745592,532.04618 349.922754,527.471033 C349.697733,527.338371 349.506297,527.157011 349.3644,526.938707 C341.276238,514.533165 345.266163,497.27372 361.575987,474.288833 C360.212427,474.942905 358.869857,475.794291 357.513854,476.912678 C356.814442,477.488665 355.785055,477.407221 355.186398,476.728799 C354.935348,476.444165 354.683459,476.162888 354.427372,475.882452 C354.278757,475.784215 354.135181,475.680101 353.996641,475.56759 C350.921075,490.742233 345.241814,506.217464 341.346767,510.322418 C336.965575,514.940386 317.00084,523.84047 305.970613,522.481108 C302.54492,522.059614 300.155332,520.691856 298.868178,518.414777 C295.888329,513.144416 302.59194,507.301427 307.027708,503.434929 C307.947943,502.633081 308.741394,501.940386 309.231738,501.435768 C314.175483,496.344249 316.669186,492.984047 318.378673,486.529807 C322.668346,470.334173 319.585223,458.456759 308.381192,448.020151 C307.835432,447.510495 307.283795,447.010915 306.738035,446.515533 C304.073048,444.097397 301.513854,441.774979 300.213266,439.115869 C299.904282,439.258606 299.597817,439.402183 299.293871,439.544081 C293.240134,442.371117 286.979009,445.297229 280.219983,439.984047 C277.322418,437.707809 274.986566,433.686818 272.72796,429.800168 C271.147775,427.080605 269.656591,424.513854 268.075567,422.667506 C262.982368,416.719563 257.452561,410.897565 250.674223,404.343409 C247.549958,401.324097 244.18136,398.314861 240.61461,395.129303 C220.667506,377.312343 198.141058,357.193955 214.905961,329.979009 L2.5852225,329.979009 C1.65743073,329.979009 0.905961377,329.2267 0.905961377,328.299748 C0.905961377,327.371956 1.65743073,326.620487 2.5852225,326.620487 L218.018472,326.620487 C218.644836,326.620487 219.218304,326.968094 219.507137,327.52309 C219.796809,328.078086 219.753149,328.748111 219.395466,329.261125 C201.154492,355.380353 222.352645,374.314022 242.852225,392.623846 C246.444165,395.832074 249.837112,398.86314 253.008396,401.929471 C259.864819,408.558354 265.462636,414.453401 270.626364,420.483627 C272.406381,422.560873 274.04618,425.383711 275.631402,428.11251 C277.731318,431.72628 279.903442,435.464316 282.29555,437.344249 C287.429891,441.379513 291.810243,439.332494 297.873216,436.501259 C298.353484,436.276238 298.839631,436.049538 299.334173,435.821998 C299.334173,435.820319 299.334173,435.81864 299.333333,435.816961 C299.219983,433.399664 300.247691,431.036944 302.475231,428.595298 C305.615449,425.152813 313.345088,421.879933 319.539882,421.879933 C319.557515,421.879933 319.575147,421.879933 319.592779,421.879933 C315.691856,417.95382 311.759026,414.185558 307.698573,410.29555 C305.984887,408.653233 304.253568,406.994962 302.50042,405.301427 C293.156171,396.270361 284.926113,386.691856 278.037783,376.832074 C276.879933,375.172964 275.565071,373.017632 274.043661,370.52225 C270.611251,364.893367 266.02267,357.368598 261.081444,352.529807 C259.836272,352.864819 258.633921,353.115029 257.476071,353.280437 C251.653233,354.108312 247.435768,352.015953 245.981528,349.719563 C245.217464,348.512175 245.178002,347.162049 245.874895,346.107473 C246.663308,344.913518 248.670865,343.662469 253.770781,344.495382 C256.625525,344.959698 259.36272,346.533165 261.956339,348.769941 C266.596977,347.260285 271.897565,344.534005 277.783375,340.625525 C282.481948,337.504618 286.889169,333.275399 291.151973,329.185558 C297.583543,323.013434 304.234257,316.631402 312.43073,313.34089 C320.339211,310.166247 331.051217,313.057935 342.593619,321.481948 C353.13602,329.177162 363.632242,341.416457 367.982368,352.639798 C368.740554,351.435768 369.560873,350.308144 370.421495,349.290512 C373.68178,345.435768 377.100756,343.694374 380.057095,344.38623 C382.823678,345.035264 384.782536,347.623846 385.878254,352.080605 C388.308144,361.958858 381.074727,372.811923 374.692695,382.388749 C372.032746,386.380353 369.520571,390.150294 368.012594,393.410579 C362.212427,405.958018 360.084803,418.45508 358.083963,432.31906 C357.897565,433.61293 357.549958,435.465155 357.110831,437.809404 C356.622166,440.418136 355.893367,444.308144 355.246851,448.572628 C356.737196,454.017632 356.302267,462.308984 354.826196,471.099916 C355.209068,472.047859 355.716205,472.74895 356.372796,473.140218 C356.470193,473.197313 356.560034,473.264484 356.643157,473.34005 C359.424853,471.319899 362.165407,470.211587 365.040302,469.565071 C365.153652,469.415617 365.266163,469.267003 365.379513,469.117548 C368.43157,465.104114 371.74895,461.534845 374.958018,458.083963 C375.307305,457.707809 375.654912,457.334173 376.001679,456.958858 C373.760705,436.523929 378.43073,415.475231 383.740554,395.233417 C386.755668,383.736356 392.519731,366.640638 402.700252,351.526448 C399.396306,335.358522 391.86314,321.628883 380.020151,310.051217 C377.248531,307.342569 374.186398,304.698573 371.225021,302.142737 C363.905961,295.822838 356.337531,289.288833 351.725441,280.693535 C349.440806,276.436608 347.970613,272.134341 347.051217,267.776658 C345.178841,267.879933 343.333333,267.787573 341.721243,267.512175 C338.396306,266.946264 336.148615,265.650714 335.221662,263.767422 C334.973971,263.266163 334.993283,262.674223 335.27204,262.189757 C335.550798,261.70361 336.052897,261.389589 336.610411,261.350966 C340.150294,261.102435 343.283795,261.266163 346.109152,261.763224 C345.347607,254.648195 345.70361,247.368598 346.069689,239.870697 L346.13602,238.507137 C346.402183,232.989924 347.107473,227.163728 347.854744,220.995802 C350.476071,199.342569 353.446683,174.801008 336.224181,159.780017 C334.847187,158.580185 333.468514,157.398825 332.098237,156.225021 C321.101595,146.808564 310.714526,137.913518 306.280437,123.286314 C305.546599,120.864819 305.001679,118.427372 304.621327,115.979849 C304.123426,116.459278 303.603694,116.920235 303.062972,117.359362 C299.034425,120.628883 294.762385,123.308984 290.631402,125.900924 C282.077246,131.266163 273.997481,136.334173 268.729639,146.012594 C262.811923,156.883291 261.388749,178.717045 271.549118,186.603694 C276.465155,190.419815 277.706129,189.65827 277.717045,189.649874 C279.905122,188.161209 276.013434,174.847187 274.549118,169.834593 C273.132662,164.989924 272.398825,162.398825 272.510495,161.038623 C272.549118,160.573468 272.779177,160.144416 273.146935,159.855584 C273.514694,159.566751 273.989924,159.448363 274.447523,159.517212 C287.051217,161.514694 285.302267,183.507976 284.36272,195.323258 C284.264484,196.550798 284.178002,197.63644 284.123426,198.535684 C283.788413,204.062133 283.981528,209.3644 284.167926,214.492863 C284.458438,222.465995 284.732997,229.997481 283.133501,237.9555 C281.443325,246.361041 282.065491,252.414777 285.033585,256.460118 C286.900924,259.006717 289.720403,260.824517 293.579345,261.952141 C292.919395,259.744752 292.069689,257.467674 291.231738,255.220823 C288.530647,247.981528 285.737196,240.495382 288.814442,234.581864 C290.714526,230.928631 294.557515,228.393787 300.562552,226.832914 C301.004198,226.717884 301.475231,226.788413 301.86398,227.027708 C302.253568,227.267003 302.528128,227.654912 302.625525,228.101595 C303.757347,233.314861 302.015113,237.31822 300.329135,241.190596 C299.945424,242.073048 299.551637,242.97817 299.195634,243.893367 C302.334173,247.540722 306.664987,246.367758 312.7733,244.1822 C314.282116,243.643157 315.842149,243.084803 317.315701,242.702771 C317.900084,242.551637 318.52309,242.72628 318.943745,243.160369 C319.254408,243.481108 319.570109,243.796809 319.890848,244.107473 C320.398825,244.599496 320.544081,245.357683 320.254408,246.002519 C319.723762,247.1822 319.355164,248.602015 319,249.974811 C318.798489,250.751469 318.592779,251.544081 318.353484,252.314861 C321.862301,253.403023 325.40974,254.366919 329.135181,255.379513 C330.781696,255.827036 332.435768,256.277078 334.093199,256.738875 C334.65995,256.898405 335.103275,257.342569 335.259446,257.91016 C335.823678,259.952141 335.45508,261.816121 334.193955,263.300588 C330.539043,267.599496 319.511335,268.597817 299.482788,266.444165 L299.076406,266.399664 C298.706129,266.360202 298.34089,266.31738 297.981528,266.270361 C298.212427,268.036944 298.232578,269.755668 297.944584,271.393787 C297.874895,271.790932 297.664148,272.149454 297.351805,272.404702 C293.178841,275.806885 288.225861,276.933669 282.633921,275.760705 C269.188077,272.93283 254.445844,256.579345 248.973132,245.859782 C235.893367,220.241814 236.769102,180.762385 244.393787,155.004198 C249.282955,138.486986 258.120907,127.15869 271.412259,120.370277 C272.997481,119.560873 275.232578,118.301427 277.820319,116.843829 C287.63728,111.314022 297.010076,106.246851 303.941226,104.232578 C304.183879,96.2199832 305.718724,88.2124265 307.647355,80.4307305 C306.853065,78.9882452 305.403023,77.6532326 303.874055,76.2460118 C301.883291,74.4122586 299.824517,72.5180521 298.8178,70.0167926 C296.535684,64.3543241 297.626364,57.5306465 298.502939,52.0478589 L298.578505,51.5701092 C300.597817,38.8950462 306.166247,29.8589421 316.103275,23.1326616 C326.096558,16.3685978 336.490344,14.4030227 350.860621,16.5583543 C354.717884,17.1376994 370.649034,21.0814442 372.248531,28.4928631 C372.884971,31.4450042 371.293031,34.2989085 367.513014,36.9874055 C368.144416,40.1469353 369.858942,42.070529 371.816961,44.2670025 C373.376994,46.0167926 374.989924,47.8261965 376.199832,50.3921075 C377.72712,53.6297229 378.236776,56.2963896 378.686818,58.6490344 C379.225021,61.4668346 379.690176,63.900084 381.700252,67.0629723 C382.132662,67.743073 382.8178,68.3946264 383.543241,69.0856423 C385.02351,70.4962217 386.701931,72.0948783 386.652393,74.5079765 C386.585223,77.8194794 384.277918,79.2661629 382.592779,80.3232578 C381.493703,81.0125945 380.544081,81.6078925 380.151134,82.5482788 C379.20487,84.8127624 379.517212,87.4164568 379.847187,90.1729639 C380.327456,94.177162 380.871537,98.7162049 377.333333,102.695214 C374.343409,106.058774 370.203191,106.688497 366.198992,107.298069 C363.49958,107.708648 360.949622,108.096558 358.952141,109.301427 C356.685139,110.667506 355.336692,112.644836 354.077246,114.802687 C366.669186,115.836272 384.219144,126.869018 390.357683,137.857263 C401.02351,156.950462 393.797649,180.638959 387.421495,201.538203 C385.279597,208.560034 383.255248,215.193115 382.09068,221.119228 C380.631402,228.541562 381.715365,234.589421 385.224181,238.607893 C385.883291,239.361881 386.624685,240.04534 387.445004,240.657431 C387.199832,239.443325 387.009236,238.240974 386.875735,237.094039 C386.497061,233.843829 386.215785,227.980688 388.581864,225.235097 C388.889169,224.878254 389.333333,224.666667 389.804366,224.652393 C390.290512,224.632242 390.731318,224.824517 391.059614,225.162049 C392.025189,226.15869 392.564232,227.926113 393.36356,230.72628 C393.942065,232.753149 395.019312,236.526448 396.031066,236.972292 C396.058774,236.984047 396.098237,236.984047 396.141898,236.973971 C396.437448,236.050378 396.256087,233.165407 396.134341,231.214945 C395.891688,227.350126 395.641478,223.355164 396.937028,221.104954 C397.331654,220.421495 398.148615,220.104114 398.900084,220.343409 C401.370277,221.125105 401.579345,220.565911 402.356003,218.481108 C403.038623,216.647355 404.071369,213.876574 407.718724,213.755668 C412.471872,213.606213 413.037783,217.390428 413.279597,220.220823 C414.5911,216.096558 416.171285,211.847187 419.188917,211.1822 C420.765743,210.836272 422.330814,211.509656 423.848027,213.183039 C424.268682,213.647355 424.396306,214.307305 424.178841,214.894207 C423.611251,216.424013 423.377834,217.674223 423.470193,219.02351 C425.623006,217.467674 428.243493,216.920235 431.09152,217.468514 C431.861461,217.617128 432.425693,218.278757 432.451721,219.062972 C432.828715,230.697733 414.838791,247.109992 403.933669,247.752309 C399.790092,248 396.049538,247.672544 392.781696,246.801847 C393.555835,248.582704 394.413938,249.918556 395.253568,250.528128 C396.666667,251.552477 398.263644,251.455919 399.807725,251.36356 C401.298069,251.27288 402.989085,251.172964 404.070529,252.480269 C405.025189,253.6356 405.098237,255.350966 404.320739,258.401343 C402.975651,263.677582 394.802687,266.741394 393.178002,267.302267 C385.645676,269.900924 379.472712,269.638119 374.832074,266.518052 C365.279597,260.094878 364.374475,243.571788 363.647355,230.29471 C363.576826,229.007557 363.507976,227.754828 363.434089,226.559194 C362.72796,231.738875 362.166247,237.020991 361.619647,242.486986 C361.475231,243.929471 361.450882,245.710327 361.424013,247.594458 C361.339211,253.685139 361.242653,260.586902 357.437448,264.31738 C357.041982,264.70529 356.579345,265.058774 356.061293,265.381192 C360.972292,268.20403 365.015953,272.193115 369.350126,276.466835 C371.77246,278.855584 374.277078,281.325777 377.103275,283.767422 C380.010915,286.279597 383.058774,288.706129 386.006717,291.052897 C396.268682,299.223342 406.879933,307.670865 413.059614,320.982368 C415.116709,325.413098 416.61461,329.884971 417.646516,334.38623 C420.906801,331.566751 424.439966,329.020151 428.266163,326.84047 C428.519731,326.696893 428.806045,326.620487 429.098237,326.620487 L502.812762,326.620487 C503.389589,326.620487 503.926113,326.916037 504.233417,327.403862 C504.541562,327.891688 504.576826,328.502939 504.328296,329.02351 C500.874055,336.254408 507.948783,346.344249 514.189757,355.246851 C517.348447,359.75063 520.331654,364.005038 521.896725,367.75063 C527.119228,380.254408 533.397985,393.559194 541.655751,409.624685 C545.958018,417.993283 549.057095,426.713686 552.053736,435.146935 C553.781696,440.008396 555.56759,445.034425 557.565071,449.940386 L557.918556,450.813602 C559.853904,455.598657 562.503778,462.152813 566.797649,464.202351 C569.183879,465.34005 572.139379,465.057095 575.174643,464.267842 C575.092359,459.105793 577.120067,454.353484 584.29555,451.115869 C586.146096,450.281276 591.36356,448.786734 596.330814,448.371117 C595.944584,444.926113 595.644836,441.628044 595.354324,438.434089 C594.29555,426.792611 593.380353,416.739715 588.994962,405.398825 C587.581864,401.744752 586.232578,398.040302 584.927792,394.458438 C581.402183,384.777498 578.070529,375.633921 573.487825,367.096558 C571.542401,363.470193 569.275399,359.785055 566.921075,356.523929 C562.710327,357.054576 558.809404,356.733837 556.194794,354.794291 C553.282955,352.634761 552.413098,348.948783 553.609572,343.836272 C553.808564,342.985726 554.632242,342.43157 555.490344,342.557515 C559.918556,343.214945 564.559194,347.827876 568.4089,352.870697 C575.34005,351.575147 583.373636,348.185558 586.895886,346.149454 C592.609572,342.844668 598.103275,339.125105 603.416457,335.528128 C608.835432,331.858942 614.439127,328.064652 620.327456,324.670865 C630.714526,318.683459 642.413098,318.29639 653.268682,323.580185 C666.788413,330.161209 676.942065,344.334173 679.135181,359.686818 C680.947943,372.369437 678.103275,385.005038 675.351805,397.225021 C674.664148,400.277918 674.015113,403.161209 673.441646,406.029387 C672.643997,410.024349 671.121746,414.742233 669.508816,419.736356 C666.434089,429.259446 662.948783,440.052057 664.146096,447.474391 C664.382872,448.946264 664.867338,450.327456 665.594458,451.61293 C667.02351,445.649874 668.536524,440.033585 669.86398,435.104114 C670.678421,432.083123 671.446683,429.230898 672.061293,426.792611 C673.462636,421.230059 675.54492,414.877414 677.75063,408.151973 C685.285474,385.178002 694.661629,356.585223 683.244332,338.672544 C677.621327,329.850546 667.031066,323.588581 650.869857,319.530647 C642.287993,317.376994 634.282955,318.180521 625.808564,319.029387 C619.527288,319.65995 613.031906,320.312343 606.29471,319.646516 C595.15953,318.550798 587.342569,314.947943 582.397985,308.633081 C574.991604,299.174643 575.470193,285.355164 577.27204,271.106633 C569.95382,274.70361 564.124265,279.832914 561.246012,287.146935 C561.303107,287.555835 561.420655,288.315701 561.544081,289.109152 C565.579345,315.057095 565.15869,327.994123 560.18136,331.055416 C558.179681,332.287154 555.733837,331.88665 552.915197,329.86398 C551.167926,328.610411 551.151973,325.460118 551.128463,321.100756 C551.109992,317.373636 551.080605,311.742233 549.329135,310.833753 C548.938707,310.629723 547.695214,310.391268 544.605374,312.543241 C542.036104,314.332494 541.712846,318.846348 541.369437,323.624685 C541.00084,328.764903 540.619647,334.078086 537.442485,337.611251 C536.90848,338.202351 536.033585,338.339211 535.345088,337.936188 C530.424853,335.057095 529.25021,329.782536 529.196474,324.546599 C527.586902,330.516373 525.251889,336.870697 518.45424,335.324097 C517.776658,335.169605 517.262804,334.612091 517.165407,333.923594 C516.685139,330.551637 516.960537,327.538203 517.604534,324.643997 C516.588581,326.84131 515.353484,328.980688 513.152813,330.617968 C512.479429,331.120067 511.539882,331.04534 510.951301,330.445844 C508.29555,327.736356 507.256927,324.293871 507.866499,320.214945 C509.596138,308.638959 524.796809,294.557515 532.122586,290.56759 C533.501259,289.816121 535.963056,289.120067 539.079765,288.237615 C542.237615,287.344249 545.815281,286.330814 548.443325,285.162049 C551.2267,283.924433 551.701931,283.043661 551.649034,282.832914 C550.812762,279.514694 541.839631,281.20403 536.47691,282.214106 C533.599496,282.756507 531.329975,283.184719 529.899244,283.071369 C529.116709,283.007557 528.481948,282.411419 528.371117,281.633921 C527.692695,276.883291 528.966415,272.356843 530.198992,267.979009 C530.984047,265.186398 531.72712,262.548279 531.97649,259.904282 C532.61461,253.146096 532.893367,245.995802 532.881612,236.719563 C532.879093,234.445004 532.864819,232.167926 532.852225,229.892527 C532.7733,216.605374 532.691856,202.865659 534.81864,189.760705 C535.879093,183.220823 537.058774,176.763224 538.198153,170.518052 C539.664148,162.484467 541.180521,154.177162 542.445004,145.688497 C544.972292,128.723762 552.040302,116.083963 563.453401,108.118388 C563.674223,107.965575 585.594458,92.774979 595.383711,94.7556675 C595.780017,94.836272 596.157851,94.9328296 596.521411,95.0453401 C596.691856,93.9361881 596.851385,92.8631402 596.982368,91.8320739 C595.509656,91.7858942 593.983207,91.8303946 592.494542,91.8723762 C587.783375,92.006717 583.333333,92.1343409 581.162888,89.3702771 C579.866499,87.7195634 579.655751,85.3921075 580.517212,82.2552477 C582.7733,74.0445004 579.656591,71.2527288 576.641478,68.5533165 C574.573468,66.7002519 572.22838,64.6011755 573.265323,61.031906 C573.308984,60.8799328 573.376154,60.7346767 573.460118,60.6003359 C578.015113,53.4315701 577.605374,49.9429051 577.129303,45.9042821 C576.97817,44.6120907 576.820319,43.2745592 576.816121,41.7783375 C576.802687,36.4643157 577.540722,35.1654072 579.732997,31.308984 C580.420655,30.0973971 581.278757,28.5894207 582.329135,26.5751469 C583.848866,23.6624685 586.001679,21.2611251 588.586062,19.3434089 C587.992443,18.8052057 587.470193,18.1721243 587.036104,17.4240134 C585.269521,14.379513 585.210747,11.0352645 586.872376,8.00671704 C589.058774,4.02015113 594.235936,0.866498741 598.916037,0.670864819 C602.666667,0.513853904 606.469353,2.08480269 610.141058,3.60369437 C613.019312,4.79513014 615.995802,6.02686818 618.778338,6.32661629 C621.235936,6.59109992 623.7733,6.54827876 626.457599,6.50209908 C631.948783,6.40806045 637.626364,6.30982368 642.725441,9.00923594 C653.801847,14.874895 656.754828,28.9429051 651.265323,49.6926952 C650.009236,54.4391268 648.368598,59.1494542 646.780856,63.7052897 C645.823678,66.4534005 644.850546,69.247691 643.960537,72.0579345 C646.68262,77.3140218 647.603694,84.6003359 647.246012,90.177162 C648.330814,90.5793451 649.515533,90.9630563 650.801847,91.3291352 C677.327456,98.8664987 704.755668,106.661629 715.410579,139.131822 C717.711167,146.144416 719.063812,153.474391 720.372796,160.563392 C721.61461,167.293031 722.899244,174.25021 724.991604,180.915197 C726.22838,184.855584 727.56843,188.531486 728.864819,192.086482 C732.266163,201.414777 735.478589,210.225861 736.057095,221.692695 C736.84047,237.189757 731.230898,252.518052 718.90848,268.554996 L717.838791,269.95466 C712.047859,277.551637 705.826196,285.206549 700.009236,290.268682 C708.521411,292.70529 715.498741,296.288833 722.471872,305.998321 C731.236776,318.207389 733.02351,332.527288 727.780856,348.560034 C724.950462,357.214945 720.47691,365.872376 716.148615,374.244332 C707.398825,391.177162 698.349286,408.685139 701.696054,427.848027 C701.762385,428.22754 701.839631,428.615449 701.925273,429.010915 C705.560034,421.439966 709.743913,414.162049 713.850546,407.018472 C720.826196,394.884131 728.039463,382.335852 732.049538,369.030227 C735.586902,357.29471 736.723762,332.073887 736.551637,328.903442 C736.365239,328.417296 736.411419,327.867338 736.690176,327.416457 C737.047859,326.838791 737.723762,326.532326 738.376994,326.620487 L941.670025,326.620487 C942.593619,326.620487 943.349286,327.371956 943.349286,328.299748 C943.349286,329.2267 942.593619,329.979009 941.670025,329.979009 L739.934509,329.979009 C740.009236,332.345928 739.8178,336.585223 739.194794,344.321579 C738.675903,350.764064 737.476071,362.665827 735.265323,369.99916 C731.143577,383.675063 723.832914,396.392107 716.762385,408.691856 C712.04534,416.896725 707.2267,425.281276 703.293031,434.040302 C703.541562,434.852225 703.801847,435.680101 704.06717,436.520571 C706.435768,444.041142 709.120067,452.565911 705.607893,458.466835 C703.910999,461.31822 700.914358,463.282955 696.689337,464.321579 C697.058774,466.97817 697.642317,469.601175 698.257767,472.361041 C699.248531,476.811083 700.27204,481.412259 700.556675,486.897565 L700.602015,487.732997 C700.761545,490.674223 700.940386,493.956339 700.050378,496.800168 C706.410579,500.425693 717.230059,509.041982 716.802687,517.164568 C716.584383,521.31906 713.584383,524.497061 707.88581,526.610411 C697.527288,530.453401 674.583543,523.270361 668,515.856423 C656.664987,503.094039 659.662469,477.858942 664.580185,455.97733 C662.56759,453.655751 661.310663,450.989085 660.830395,448.009236 C659.504618,439.789253 663.120907,428.587741 666.312343,418.70529 C667.895046,413.805206 669.388749,409.176322 670.148615,405.371956 C670.729639,402.463476 671.382872,399.560873 672.074727,396.486986 C674.759866,384.564232 677.535684,372.234257 675.811923,360.162049 C673.801847,346.099916 664.152813,332.61293 651.798489,326.599496 C641.97817,321.819479 631.395466,322.166247 622.005038,327.579345 C616.221662,330.913518 610.669186,334.673384 605.298908,338.308984 C599.937028,341.939547 594.393787,345.693535 588.576826,349.057095 C586.403023,350.314022 578.442485,354.141898 570.587741,355.879093 C573.279597,359.783375 575.38539,363.528967 576.447523,365.507137 C581.143577,374.257767 584.514694,383.512175 588.083963,393.308984 C589.382872,396.876574 590.72712,400.564232 592.127624,404.187238 C596.68178,415.967254 597.661629,426.732158 598.699412,438.129303 C598.995802,441.393787 599.303107,444.766583 599.700252,448.277078 C601.730479,448.355164 603.553317,448.714526 604.870697,449.498741 C606.303946,450.351805 607.122586,451.640638 607.238455,453.225861 C607.394626,455.384551 605.714526,457.145256 602.969773,458.649034 C604.646516,462.106633 606.752309,465.535684 608.821998,468.907641 C611.566751,473.376154 614.404702,477.996641 616.219983,482.638119 C618.874055,489.422334 619.596138,495.384551 618.393787,500.22838 C625.880772,500.307305 631.325777,501.257767 634.186398,510.784215 C636.631402,518.929471 634.029387,524.633081 625.74895,529.277918 C616.533165,534.447523 604.81864,534.063812 593.485306,533.691856 C587.861461,533.507137 582.547439,533.332494 577.68178,533.824517 C574.495382,534.146096 571.402183,534.345088 568.348447,534.345088 L568.348447,534.345088 Z" transform="translate(31 13)"/>
</svg>
