<svg xmlns="http://www.w3.org/2000/svg" width="1000" height="570" viewBox="0 0 1000 570">
  <defs>
    <linearGradient id="img-investments-grad-a" x1="26.74%" x2="75.412%" y1="93.581%" y2="93.581%">
      <stop offset="0%" stop-color="#A2BB68"/>
      <stop offset="100%" stop-color="#D7478C"/>
    </linearGradient>
  </defs>
  <path fill="url(#img-investments-grad-a)" fill-rule="evenodd" d="M650.668346,63.231738 C653.518892,63.3811923 655.865659,62.4534005 658.328296,61.4777498 C661.521411,60.2149454 665.093199,58.8001679 669.74979,60.0419815 C667.915197,48.2460118 662.263644,35.1444165 652.781696,31.8480269 C644.807725,29.0764064 635.020991,28.8933669 627.298908,31.8824517 C628.612091,32.0671704 630.02351,32.1721243 631.460957,32.279597 C634.042821,32.472712 636.712007,32.6717045 638.924433,33.4097397 C643.710327,35.0058774 645.576826,36.0780856 646.322418,37.6607893 C647.009236,39.1200672 646.483627,40.4785894 645.927792,41.9160369 C645.298069,43.5449202 644.513854,45.5717884 644.786734,48.8706969 C644.944584,50.7724601 646.024349,52.286314 647.27372,54.038623 C648.902603,56.3215785 650.879933,59.0940386 650.668346,63.231738 Z M668.266163,78.6188077 C668.47775,78.6935348 668.685978,78.774979 668.892527,78.8648195 C668.998321,78.4617968 669.101595,78.054576 669.201511,77.6439966 C668.900084,77.9806885 668.588581,78.3056255 668.266163,78.6188077 Z M671.845508,80.8194794 C672.092359,81.0495382 672.333333,81.2921914 672.56843,81.549958 C673.233417,79.5482788 673.926113,77.5625525 674.609572,75.5994962 C676.175483,71.1041142 677.79597,66.4559194 679.018472,61.8329135 C682.534845,48.5407221 684.198992,31.3560034 672.153652,24.97733 C667.819479,22.68178 662.814442,22.7674223 657.516373,22.8597817 C654.844668,22.9051217 652.083963,22.9529807 649.418976,22.665827 C646.157011,22.3148615 642.95466,20.9890848 639.856423,19.7078086 C636.367758,18.263644 633.076406,16.8967254 630.055416,17.0268682 C626.515533,17.1746432 622.456759,19.6322418 620.816961,22.6213266 C619.712007,24.6356003 619.753988,26.6935348 620.940386,28.7380353 C621.347607,29.4399664 621.910999,29.9899244 622.596138,30.4248531 C631.561713,25.5356843 644.015113,25.2451721 653.884971,28.6759026 C668.042821,33.597817 674.492863,56.1452561 673.706969,70.5289673 C673.505458,74.2107473 672.718724,77.6549118 671.845508,80.8194794 Z M670.74895,84.6171285 C669.633921,88.4189757 668.738035,91.6599496 669.016793,94.4147775 C669.055416,94.2350966 669.093199,94.0554156 669.130982,93.8757347 L669.224181,93.4332494 C669.789253,90.759026 670.513854,88.093199 671.320739,85.450042 C671.137699,85.1603694 670.947103,84.8816121 670.74895,84.6171285 Z M671.407221,99.2888329 C672.314022,100.167086 673.493703,100.982368 674.952141,101.739715 C675.040302,98.1486146 674.56843,93.9177162 673.439127,90.2502099 C673.095718,91.5440806 672.782536,92.8371117 672.510495,94.1276238 L672.417296,94.5701092 C672.078086,96.1729639 671.746432,97.743073 671.407221,99.2888329 Z M342.196474,93.0864819 C343.982368,97.231738 344.81864,102.240974 344.599496,107.350966 C346.06885,106.052897 348.125945,105.366079 350.120907,104.699412 C352.133501,104.027708 354.213266,103.333333 354.699412,102.246851 C354.919395,101.388749 353.444165,98.0167926 352.563392,96.0016793 C351.310663,93.138539 350.229219,90.6649874 350.260285,88.874895 C350.38623,81.6490344 356.388749,76.5373636 361.698573,76.4693535 C364.947103,76.4416457 368.474391,78.3131822 369.270361,83.5877414 C369.271201,83.5877414 369.27204,83.5877414 369.27204,83.5877414 C374.31738,83.5877414 375.797649,82.5583543 376.229219,81.9059614 C377.15869,80.5004198 375.675063,77.3257767 374.240974,74.2552477 C373.145256,71.9101595 372.011755,69.4844668 371.515533,67.0915197 C369.017632,55.061293 377.507137,52.8035264 384.329135,50.9890848 C386.61461,50.3811923 388.792611,49.8018472 390.602015,48.938707 C390.216625,46.6280437 388.97817,45.1754828 386.763224,44.4063812 C378.633921,41.5869018 361.198153,49.1981528 356.958858,53.9907641 C349.952981,61.9101595 346.942065,74.109152 344.286314,84.8715365 C343.806885,86.8127624 343.342569,88.6918556 342.872376,90.4743913 C342.643157,91.3425693 342.417296,92.2132662 342.196474,93.0864819 Z M340.670025,99.559194 C339.464316,105.150294 338.570949,110.820319 338.333333,116.471033 C338.744752,116.412259 339.143577,116.368598 339.528967,116.342569 C341.371117,110.874055 341.696054,104.815281 340.670025,99.559194 Z M670.565071,102.973971 C669.199832,108.68094 667.561713,114.088161 664.884131,119.513854 C669.310663,115.983207 672.869018,111.580185 674.188077,107.336692 C674.371956,106.746432 674.523929,106.070529 674.643997,105.327456 C673.062972,104.605374 671.708648,103.824517 670.565071,102.973971 Z M630.674223,109.638959 C633.387909,111.655751 634.866499,114.778338 636.219144,117.634761 C638.619647,122.70361 640.693535,127.080605 648.56927,126.649034 C651.79513,126.472712 655.345928,125.315701 658.763224,123.52225 C663.650714,115.90932 665.890848,108.424853 667.757347,100.217464 C667.462636,99.8203191 667.199832,99.411419 666.966415,98.9890848 C664.394626,94.3232578 665.93199,89.0957179 667.711167,83.0419815 C667.799328,82.7439127 667.88749,82.4424853 667.97733,82.1393787 C666.819479,81.5331654 665.546599,81.3215785 664.133501,81.4869857 C663.334173,81.5835432 662.594458,81.1057935 662.342569,80.3509656 C662.09068,79.5952981 662.403862,78.7665827 663.093199,78.3669186 C668.057095,75.4878254 671.729639,69.2401343 669.638959,63.5138539 C665.677582,62.1838791 662.832914,63.3081444 659.564232,64.6011755 C656.502939,65.8127624 653.031906,67.1855584 648.497061,66.3484467 C648.057935,66.2670025 647.669186,66.0142737 647.416457,65.6456759 C647.163728,65.2770781 647.06885,64.822838 647.152813,64.3837112 C647.861461,60.6465155 646.322418,58.4878254 644.539043,55.9890848 C643.130982,54.0134341 641.673384,51.9706129 641.439966,49.147775 C641.103275,45.0806045 642.121746,42.4466835 642.79513,40.70445 C643.010915,40.1460957 643.337531,39.302267 643.283795,39.0923594 C643.216625,38.9084803 642.625525,38.1847187 637.861461,36.5952981 C636.04534,35.9899244 633.696893,35.8144416 631.210747,35.6288833 C628.365239,35.4164568 625.302267,35.1880772 622.722082,34.2057095 C620.027708,35.9638959 617.804366,38.2586062 616.306465,41.1293031 C615.22754,43.1964736 614.354324,44.7329975 613.652393,45.968094 C611.544081,49.6792611 611.163728,50.3476071 611.174643,54.7699412 C611.178002,56.0738875 611.31738,57.2577666 611.465155,58.5121746 C611.964736,62.7556675 612.480269,67.1427372 607.437448,75.1763224 C607.153652,76.4634761 607.884131,77.2619647 609.882452,79.0512175 C612.941226,81.790932 617.562552,85.9303107 614.756507,96.1444165 C614.376994,97.527288 614.076406,99.3694374 614.804366,100.29639 C615.928631,101.72796 619.725441,101.620487 623.398825,101.515533 C625.575987,101.45424 627.825357,101.388749 630.00084,101.586902 C630.445004,101.627204 630.855584,101.842989 631.140218,102.187238 C631.425693,102.530647 631.561713,102.973971 631.520571,103.418136 C631.335852,105.358522 631.018472,107.412259 630.68262,109.586902 C630.680101,109.604534 630.676742,109.622166 630.674223,109.638959 Z M347.218304,109.562552 C348.014274,112.555835 348.969773,115.099076 350.194794,117.49958 C353.88665,124.732997 361.180521,133.244332 368.467674,134.839631 C371.767422,135.561713 374.741394,134.832914 377.558354,132.610411 C379.223342,131.297229 380.324097,129.359362 381.489505,127.308144 C383.039463,124.580185 384.79597,121.487825 388.217464,119.424853 C390.785055,117.876574 393.788413,117.419815 396.693535,116.97733 C400.265323,116.434089 403.638959,115.921075 405.823678,113.463476 C408.356843,110.61377 407.965575,107.351805 407.513014,103.573468 C407.145256,100.506297 406.764903,97.334173 408.052897,94.2527288 C408.857263,92.3291352 410.424853,91.3459278 411.808564,90.4777498 C413.466835,89.4374475 414.265323,88.8740554 414.294995,87.4399664 C414.314022,86.5062972 413.346767,85.5843829 412.2267,84.5180521 C411.38707,83.7178841 410.518892,82.8916877 409.866499,81.8656591 C407.511335,78.1603694 406.940386,75.170445 406.38707,72.279597 C405.9555,70.0167926 405.507976,67.6775819 404.162049,64.8245172 C403.15953,62.697733 401.774979,61.1452561 400.309824,59.5020991 C397.989924,56.900084 395.59194,54.2099076 395.02183,49.3929471 C394.946264,48.7565071 395.239295,48.1326616 395.776658,47.7850546 C397.936188,46.388749 400.415617,44.286314 399.965575,42.2015113 C399.009236,37.7707809 387.345928,33.7783375 381.361881,32.8799328 C367.900084,30.8581024 358.217464,32.6633081 348.985726,38.9135181 C339.870697,45.0839631 334.758186,53.4047019 332.895886,65.0982368 L332.819479,65.5776658 C331.966415,70.9151973 330.99916,76.9638959 332.93199,81.7615449 C333.656591,83.5600336 335.352645,85.1209068 337.148615,86.7741394 C338.02351,87.5801847 338.913518,88.3996641 339.715365,89.2753988 C340.150294,87.611251 340.581024,85.8656591 341.025189,84.0663308 C343.774979,72.9277918 346.890008,60.3039463 354.443325,51.7657431 C359.246851,46.334173 378.145256,37.8589421 387.86398,41.2334173 C391.683459,42.559194 393.828715,45.5197313 394.06885,49.7968094 C394.104114,50.4265323 393.784215,51.02267 393.240134,51.34089 C390.878254,52.7229219 387.987406,53.4911839 385.192275,54.2342569 C377.602855,56.2527288 373.041142,57.9210747 374.803526,66.4089001 C375.220823,68.418136 376.269521,70.6624685 377.283795,72.8337531 C379.193955,76.9219144 380.998321,80.7833753 379.030227,83.7581864 C377.462636,86.1293031 373.855584,87.1309824 367.684299,86.9177162 C366.807725,86.8866499 366.102435,86.1872376 366.064652,85.3115029 C365.911839,81.7716205 364.401343,79.8270361 361.808564,79.8270361 C361.786734,79.8270361 361.764064,79.8270361 361.741394,79.8270361 C358.414777,79.8706969 353.714526,83.3551637 353.617968,88.9328296 C353.599496,89.9907641 354.730479,92.5776658 355.639798,94.6557515 C357.526448,98.9697733 358.611251,101.724601 357.764903,103.617128 C356.677582,106.051217 353.88581,106.984047 351.184719,107.884971 C349.719563,108.374475 348.214106,108.877414 347.218304,109.562552 Z M630.079765,113.668346 C629.121746,120.823678 628.905122,128.174643 633.914358,132.684299 C636.850546,135.326616 639.993283,136.443325 643.261125,136.010915 C646.967254,135.517212 651.027708,132.937028 654.722082,128.848866 C652.692695,129.495382 650.680101,129.897565 648.753149,130.003359 C638.616289,130.557515 635.607053,124.188917 633.183879,119.072208 C632.214106,117.024349 631.314861,115.125105 630.079765,113.668346 Z M342.973132,116.72628 C343.306465,116.884131 343.580185,117.148615 343.74979,117.481108 C343.95466,117.884131 343.988245,118.352645 343.843829,118.780856 C342.011755,124.193955 345.054576,131.010915 351.983207,137.017632 C360.199832,144.139379 370.780017,147.291352 376.595298,144.347607 C380.79597,142.221662 381.980688,137.324937 382.055416,132.72712 C381.367758,133.643157 380.584383,134.501259 379.638959,135.247691 C376.033585,138.09152 372.033585,139.058774 367.74979,138.120907 C358.151973,136.020151 350.31822,125.130143 347.203191,119.026029 C345.992443,116.653233 345.026868,114.166247 344.217464,111.31738 C343.942905,113.143577 343.529807,114.958858 342.973132,116.72628 Z M307.322418,176.743913 C307.709488,178.255248 308.275399,180.191436 308.77246,181.892527 C310.716205,188.543241 312.256927,194.188917 312.602855,198.366079 C312.855584,189.679261 312.146096,179.853065 307.322418,176.743913 Z M596.133501,165.827876 C590.392947,175.298908 597.563392,190.202351 602.845508,201.180521 C604.016793,203.61377 605.125105,205.917716 605.980688,207.93199 C606.110831,193.0445 604.74979,176.243493 599.753149,168.956339 C598.649034,167.346767 597.457599,166.314861 596.133501,165.827876 Z M405.576826,178.901763 C405.194794,179.099916 404.314861,179.722082 402.768262,181.664987 C399.302267,186.02267 397.926113,197.065491 397.015113,204.371956 C396.850546,205.691856 396.700252,206.897565 396.554156,207.93283 C396.235936,210.190596 396.083963,212.491184 396.047859,214.813602 C396.514694,213.20487 397.015953,211.5911 397.554996,209.972292 C398.481948,207.188917 399.555835,204.412259 400.594458,201.72796 C401.888329,198.382872 403.2267,194.924433 404.309824,191.382032 C405.785055,186.557515 406.237615,180.427372 405.576826,178.901763 Z M718.179681,167.398825 C717.936188,167.398825 717.661629,167.425693 717.350966,167.489505 C714.325777,168.107473 712.828715,173.632242 712.901763,183.91016 L712.905122,184.345088 C712.95466,192.995802 714.966415,200.629723 717.097397,208.712007 C718.194794,212.877414 719.316541,217.134341 720.165407,221.596138 C719.722922,211.708648 720.428212,201.980688 721.115869,192.507976 C721.316541,189.738875 721.515533,186.984887 721.685139,184.247691 L721.745592,183.344249 C721.987406,179.825357 722.629723,170.480269 719.754828,167.963056 C719.459278,167.70445 718.994962,167.398825 718.179681,167.398825 Z M422.403862,255.825357 C425.780017,257.145256 429.936188,257.687657 434.736356,257.400504 C443.518892,256.881612 458.842149,243.338371 460.026029,233.617968 C457.948783,233.59026 456.185558,234.527288 454.812762,236.38539 C454.437448,236.893367 453.809404,237.149454 453.184719,237.043661 C452.561713,236.938707 452.049538,236.493703 451.860621,235.890848 C450.914358,232.882452 450.844668,230.520571 451.670865,227.789253 C451.309824,227.513854 451.050378,227.428212 450.910999,227.461797 C449.497061,227.7733 447.819479,233.146935 447.102435,235.441646 C446.481108,237.429891 445.990764,239 445.406381,239.97733 C445.117548,240.461797 444.604534,240.767422 444.041142,240.793451 C443.474391,240.823678 442.939547,240.559194 442.607893,240.104114 C441.315701,238.329135 441.135181,236.047019 440.97649,234.033585 C440.688497,230.394626 440.334173,230.059614 438.829555,230.11251 C437.540722,230.155332 437.205709,230.768262 436.502939,232.653233 C435.799328,234.542401 434.665827,237.570109 430.481108,236.927792 C430.156171,238.740554 430.342569,241.709488 430.486146,244.004198 C430.770781,248.551637 430.97733,251.837951 428.86314,252.894207 C427.497061,253.578505 426.377834,253.352645 425.678421,253.04618 C423.222502,251.965575 422.160369,248.245172 421.134341,244.648195 C421.103275,244.539882 421.071369,244.427372 421.037783,244.312343 C420.928631,245.731318 420.957179,247.52225 421.211587,249.706129 C421.458438,251.820319 421.876574,253.917716 422.403862,255.825357 Z M608.433249,226.148615 C608.082284,229.738035 607.684299,232.560873 607.327456,234.222502 C606.816121,236.608732 605.744752,239.775819 604.504618,243.442485 C601.434929,252.519731 597.230059,264.951301 600.646516,269.643157 C601.624685,270.985726 603.277918,271.625525 605.688497,271.586902 C607.149454,271.565911 608.63728,271.286314 610.133501,270.850546 C611.007557,264.644836 611.716205,258.775819 611.707058,253.45508 C611.691856,244.231738 610.576826,235.007557 608.433249,226.148615 Z M701.115029,270.251889 C702.688497,271.45508 704.209908,272.802687 705.662469,274.265323 C706.556675,273.028547 708.009236,271.654912 710.168766,269.895046 L711.849706,268.532326 C717.011755,264.359362 720.420655,261.603694 723.997481,255.602015 C728.214945,248.526448 731.141058,244.874055 738.351805,240.573468 C739.376994,239.963056 740.513014,239.374475 741.717045,238.751469 C745.6356,236.723762 750.006717,234.460957 751.140218,230.984047 C746.984047,231.324097 742.573468,233.888329 738.623006,236.184719 C733.581864,239.115029 729.229219,241.647355 725.581024,239.811083 C723.730479,238.879933 722.424853,236.963896 721.586062,233.892527 C722.015953,245.958018 719.22754,255.146935 713.11419,261.888329 C709.967254,265.359362 706.02267,268.130143 701.115029,270.251889 Z M328.293871,275.775819 C328.981528,275.88749 329.695214,275.981528 330.433249,276.061293 L330.842149,276.104114 C354.846348,278.688497 361.063812,275.973971 362.633921,274.125945 C362.898405,273.815281 363.167926,273.384551 363.158921,272.687657 C361.854744,272.326616 360.552477,271.973132 359.254408,271.621327 C355.093199,270.489505 350.790932,269.319899 346.662469,267.984887 C346.211587,267.839631 345.842989,267.509656 345.648195,267.078086 C345.45424,266.646516 345.450042,266.152813 345.638959,265.717884 C346.086482,264.687657 346.40806,263.445844 346.74895,262.131822 C346.979009,261.241814 347.214945,260.334173 347.502099,259.444165 C346.666667,259.714526 345.800168,260.024349 344.903442,260.345088 C339.071369,262.429891 331.812762,265.025189 326.926113,258.157011 C326.607893,257.710327 326.528967,257.13686 326.712846,256.620487 C327.180521,255.307305 327.723762,254.057935 328.25021,252.849706 C329.617968,249.706129 330.827876,246.926952 330.601175,243.607893 C326.61293,244.900084 324.050378,246.716205 322.793451,249.130982 C320.406381,253.720403 322.933669,260.495382 325.377834,267.04618 C326.460957,269.948783 327.560873,272.899244 328.293871,275.775819 Z M613.163728,273.38539 C613.059614,274.108312 612.95466,274.835432 612.848866,275.565911 C612.696893,276.616289 612.544081,277.667506 612.392947,278.720403 C629.835432,272.281276 652.121746,272.297229 665.473552,272.315701 C665.536524,272.315701 665.600336,272.315701 665.664148,272.315701 C676.826196,272.315701 685.944584,271.351805 693.269521,269.355164 C679.866499,262.990764 661.149454,262.632242 647.960537,264.453401 C646.214945,264.695214 644.440806,264.90932 642.654072,265.125945 C636.75063,265.84131 630.646516,266.581024 625.105793,268.354324 C623.128463,268.986566 621.075567,269.930311 618.902603,270.928631 C617.020151,271.794291 615.109152,272.671704 613.163728,273.38539 Z M396.611251,226.579345 C396.764064,228.258606 396.935348,229.933669 397.104114,231.595298 C397.239295,232.927792 397.373636,234.248531 397.497061,235.552477 C397.710327,237.798489 397.851385,240.379513 398.00084,243.110831 C398.651553,254.983207 399.541562,271.240974 407.706129,276.729639 C411.478589,279.267003 416.507976,279.396306 423.082284,277.127624 C426.943745,275.79513 431.403023,273.174643 432.066331,270.571788 C432.534005,268.737196 432.516373,267.972292 432.473552,267.692695 C432.149454,267.647355 431.501259,267.686818 431.009236,267.715365 C429.177162,267.827876 426.667506,267.97649 424.282116,266.246851 C422.354324,264.848027 420.777498,261.783375 419.646516,258.287154 C417.306465,257.160369 415.309824,255.666667 413.694374,253.816121 C409.47691,248.986566 408.128463,241.951301 409.79513,233.471033 C410.993283,227.376994 413.041142,220.664987 415.209068,213.557515 C421.389589,193.299748 428.393787,170.339211 418.425693,152.495382 C412.933669,142.663308 396.832074,132.436608 385.403023,131.205709 C385.717884,141.27204 381.678421,145.538203 378.11251,147.344249 C370.092359,151.403862 357.791772,146.497061 349.783375,139.554996 C343.925273,134.476071 340.528967,128.734677 340.030227,123.371956 C339.579345,124.131822 339.093199,124.871537 338.573468,125.584383 C338.905122,128.856423 339.52309,132.106633 340.494542,135.312343 C344.643997,149.00084 354.669186,157.585223 365.282955,166.674223 C366.660789,167.854744 368.047019,169.041982 369.43157,170.24937 C387.994962,186.439127 384.91016,211.919395 382.188917,234.398825 C381.449202,240.505458 380.75063,246.27372 380.490344,251.669186 L380.424013,253.034425 C380.04534,260.79597 379.678421,268.314022 380.598657,275.586902 C381.486986,275.852225 382.342569,276.152813 383.171285,276.486146 C384.427372,276.071369 385.45424,275.539043 386.087322,274.919395 C388.903442,272.157011 388.994123,265.719563 389.066331,260.547439 C389.093199,258.588581 389.119228,256.738875 389.277918,255.152813 C390.279597,245.131822 391.334173,235.717045 393.221662,226.38707 C392.65827,220.082284 392.351805,213.689337 393.22838,207.464316 C393.372796,206.444165 393.520571,205.256927 393.68262,203.957179 C394.696893,195.8178 396.085642,184.670025 400.140218,179.574307 C401.285474,178.13602 404.329975,174.314022 407.11251,175.779177 C411.629723,178.156171 407.564232,192.223342 407.521411,192.3644 C406.402183,196.02267 405.041982,199.539043 403.72628,202.939547 C402.702771,205.587741 401.643157,208.325777 400.741394,211.033585 C399.007557,216.240134 397.676742,221.392107 396.611251,226.579345 Z M334.921075,120.738035 C327.515533,123.167086 316.97733,129.103275 310.468514,132.769941 C307.848027,134.246012 305.586062,135.520571 303.939547,136.361041 C291.512175,142.708648 283.22838,153.371117 278.61461,168.958018 C271.178841,194.076406 270.285474,232.498741 282.963896,257.333333 C288.00084,267.198153 302.06717,282.895886 314.324937,285.473552 C318.649034,286.383711 322.481948,285.616289 325.725441,283.194794 C325.88581,281.786734 325.775819,280.257767 325.487825,278.654072 C319.950462,277.400504 315.947943,275.02351 313.324937,271.446683 C309.767422,266.596138 308.95466,259.677582 310.84047,250.293871 C312.361881,242.723762 312.094878,235.38539 311.811923,227.615449 C311.622166,222.407221 311.426532,217.020991 311.77162,211.331654 C311.827036,210.415617 311.914358,209.308144 312.014274,208.057095 C312.141058,206.463476 312.289673,204.593619 312.411419,202.572628 C312.106633,203.837951 311.525609,204.801008 310.607053,205.426532 C307.725441,207.388749 303.453401,204.556675 300.490344,202.256927 C288.604534,193.031906 290.38623,169.152813 296.780017,157.407221 C302.468514,146.9555 311.303107,141.414777 319.846348,136.055416 C323.892527,133.517212 328.076406,130.892527 331.946264,127.751469 C333.11419,126.803526 334.167086,125.734677 335.106633,124.570109 C335.006717,123.29471 334.945424,122.015953 334.921075,120.738035 Z M682.570949,274.802687 C685.080605,276.938707 688.164568,277.449202 691.629723,278.02351 C695.669186,278.691856 699.846348,279.383711 703.308144,282.848027 C705.828715,285.371117 707.177162,287.842149 708.216625,290.11419 C708.062133,288.952981 707.824517,287.778338 707.504618,286.593619 C706.916877,284.416457 706.215785,282.833753 705.653233,281.561713 C705.036104,280.169605 704.631402,279.026868 704.529807,277.973971 C702.299748,275.537364 699.880772,273.394626 697.355164,271.685978 C693.087322,273.117548 688.188077,274.146935 682.570949,274.802687 Z M711.586062,296.49958 C712.631402,297.708648 714.059614,298.72628 716.280437,299.54492 C715.264484,295.289673 713.428212,290.90848 711.018472,286.802687 C711.779177,290.08984 711.963896,293.360202 711.586062,296.49958 Z M720.424013,304.128463 C720.469353,304.665827 720.49958,305.198153 720.516373,305.72712 C721.346767,305.571788 722.237615,305.239295 723.172124,304.760705 C722.612091,304.631402 722.043661,304.501259 721.466835,304.367758 C721.121746,304.289673 720.774139,304.209908 720.424013,304.128463 Z M665.798489,312.506297 C665.905122,312.768262 666.164568,313.256927 666.801008,314.034425 C669.859782,317.77246 681.838791,317.326616 687.574307,316.258606 C695.234257,314.827876 701.459278,310.848866 705.101595,305.055416 C706.586902,302.691856 707.581024,300.135181 708.073048,297.442485 C707.148615,296.061293 706.503778,294.574307 705.846348,293.058774 C704.747271,290.52309 703.609572,287.901763 700.93199,285.222502 C698.233417,282.520571 694.759026,281.945424 691.081444,281.336692 C687.243493,280.701092 682.959698,279.991604 679.561713,276.585223 C679.314861,277.49958 679.958858,278.448363 681.406381,280.18136 C682.93199,282.009236 685.486146,285.06717 682.316541,288.093199 C679.829555,290.467674 676.744752,289.324097 674.267003,288.405542 C672.611251,287.790932 671.047019,287.209068 670.128463,287.723762 C669.638119,287.996641 668.97649,288.759026 668.435768,290.785894 C669.137699,291.380353 669.722082,292.079765 670.256927,292.720403 C670.70361,293.254408 671.209068,293.860621 671.530647,294.049538 C672.099916,294.38539 672.419815,295.024349 672.347607,295.68094 C672.274559,296.337531 671.823678,296.890848 671.194794,297.094039 C670.693535,297.256087 670.339211,297.492863 669.890848,297.791772 C669.426532,298.102435 668.888329,298.461797 668.151134,298.753149 C668.371956,302.015953 672.277078,304.761545 675.758186,307.209908 C677.214945,308.234257 678.59026,309.201511 679.617968,310.165407 C680.062972,310.581864 680.246851,311.206549 680.099076,311.798489 C679.950462,312.389589 679.493703,312.854744 678.905122,313.011755 C677.677582,313.34005 675.811923,313.143577 672.86314,312.792611 C670.921914,312.560034 667.037783,312.099076 665.798489,312.506297 Z M562.572628,324.701931 C562.792611,324.701931 563.014274,324.744752 563.225021,324.833753 C563.865659,325.104114 564.274559,325.742233 564.25105,326.437448 C564.206549,327.77246 564.074727,329.22754 563.935348,330.768262 C563.38623,336.834593 562.769941,343.643157 566.81864,347.162888 C568.445004,344.403023 568.736356,340.335852 569.019312,336.384551 C569.403862,331.029387 569.801008,325.492863 573.686818,322.786734 C577.109992,320.402183 579.789253,319.768262 581.875735,320.852225 C585.428212,322.696054 585.459278,328.745592 585.486986,334.083123 C585.498741,336.221662 585.515533,339.43157 585.952981,340.191436 C587.055416,340.970613 588.521411,341.747271 589.422334,341.194794 C591.013434,340.215785 594.1822,334.497061 589.225861,302.624685 C588.785894,299.797649 588.785894,299.797649 588.968094,299.315701 C592.397985,290.211587 599.741394,284.176322 608.79597,280.173804 C609.032746,278.476071 609.278757,276.776658 609.524769,275.083963 C609.554996,274.874895 609.586062,274.665827 609.616289,274.456759 C608.337531,274.748111 607.04534,274.926113 605.736356,274.945424 C602.208228,274.992443 599.575147,273.876574 597.93199,271.620487 C593.491184,265.52309 597.834593,252.683459 601.323258,242.366919 C602.529807,238.797649 603.572628,235.715365 604.0445,233.518052 C604.685978,230.527288 605.368598,224.297229 605.729639,216.763224 C604.900084,214.293871 603.987406,211.866499 602.991604,209.488665 C602.157011,207.494542 601.020991,205.134341 599.819479,202.63644 C593.993283,190.528128 586.014274,173.945424 594.037783,162.920235 C594.4089,162.410579 595.035264,162.152813 595.65911,162.25021 C598.315701,162.671704 600.625525,164.288833 602.52225,167.056255 C609.189757,176.779177 609.946264,199.643997 609.135181,216.361881 C613.009236,228.134341 615.04534,240.79597 615.065491,253.449202 C615.073887,258.471872 614.478589,263.879093 613.702771,269.565071 C614.975651,269.036944 616.244332,268.45424 617.49958,267.877414 C619.668346,266.880772 621.910999,265.849706 624.082284,265.154492 C629.926113,263.285474 636.191436,262.525609 642.25021,261.791772 C644.017632,261.577666 645.7733,261.365239 647.501259,261.126784 C665.496222,258.642317 683.401343,260.709488 695.397985,266.654912 C696.178841,267.042821 696.9555,267.470193 697.722082,267.93283 C703.1822,265.902603 707.437448,263.149454 710.626364,259.631402 C716.864819,252.752309 719.246851,242.843829 717.91016,229.34005 C717.218304,222.350966 715.505458,215.853065 713.848866,209.56759 C711.759026,201.638959 709.598657,193.440806 709.546599,184.3644 L709.544081,183.934509 C709.505458,178.473552 709.412259,165.683459 716.678421,164.198992 C719.279597,163.666667 720.987406,164.578505 721.966415,165.435768 C726.094878,169.048699 725.420655,178.859782 725.096558,183.574307 L725.037783,184.455919 C724.867338,187.20403 724.666667,189.969773 724.465155,192.751469 C723.610411,204.539882 722.72712,216.731318 724.102435,228.984047 C724.595298,233.368598 725.628883,236.074727 727.09068,236.811083 C729.109992,237.827876 732.911839,235.620487 736.935348,233.281276 C741.898405,230.395466 747.513014,227.127624 753.25021,227.639798 C754.125105,227.718724 754.790932,228.457599 754.779177,229.335013 C754.692695,235.816961 748.353484,239.098237 743.261125,241.733837 C742.103275,242.333333 741.010076,242.899244 740.072208,243.458438 C733.151134,247.586062 730.738035,250.852225 726.882452,257.321579 C722.99916,263.837951 719.208228,266.901763 713.961377,271.143577 L712.290512,272.498741 C709.651553,274.648195 708.410579,275.780856 708.019312,276.806885 C713.947943,283.650714 718.395466,292.344249 719.939547,300.570109 C720.712007,300.74979 721.471033,300.923594 722.217464,301.094878 C723.873216,301.474391 725.469353,301.84131 727.013434,302.218304 C734.312343,296.471872 742.730479,285.428212 746.167926,280.918556 L747.245172,279.507976 C759.060453,264.131822 764.444165,249.528128 763.70361,234.862301 C763.149454,223.900924 760.02183,215.320739 756.709488,206.236776 C755.400504,202.646516 754.047019,198.934509 752.786734,194.921075 C750.633921,188.061293 749.329975,181.00084 748.069689,174.172964 C746.781696,167.193115 745.449202,159.97649 743.219144,153.178841 C733.120907,122.404702 707.747271,115.193955 680.884131,107.560034 C679.801008,107.251889 678.782536,106.93115 677.824517,106.596138 C677.702771,107.225021 677.559194,107.807725 677.395466,108.333333 C675.31738,115.018472 668.632242,121.876574 661.124265,126.04618 C658.418136,130.094039 652.015113,138.233417 643.70361,139.34005 C639.422334,139.91016 635.368598,138.511335 631.667506,135.180521 C624.991604,129.170445 625.793451,119.645676 627.005877,111.421495 C626.605374,111.267003 626.176322,111.141058 625.717045,111.047019 C619.305626,109.75063 603.177162,119.125945 596.375315,123.873216 C585.75063,131.288833 579.152813,143.168766 576.767422,159.183039 C575.493703,167.72628 573.973132,176.061293 572.502099,184.120907 C571.365239,190.350126 570.189757,196.791772 569.134341,203.298908 C567.052057,216.125945 567.132662,229.723762 567.210747,242.872376 C567.223342,245.153652 567.237615,247.434929 567.240134,249.715365 C567.251889,259.102435 566.968094,266.351805 566.319899,273.219144 C566.041982,276.166247 565.223342,279.074727 564.43157,281.889169 C563.389589,285.589421 562.398825,289.111671 562.555835,292.647355 C563.701092,292.507976 565.248531,292.216625 566.855584,291.913518 C574.217464,290.527288 584.297229,288.628044 585.905122,295.013434 C587.135181,299.900084 578.930311,302.223342 570.994962,304.469353 C568.311503,305.22838 565.778338,305.945424 564.729639,306.516373 C557.63728,310.380353 543.692695,323.638959 542.188077,333.711167 C541.828715,336.116709 542.203191,338.13686 543.330814,339.842149 C544.633921,338.395466 545.439127,336.538203 546.281276,334.596138 C547.436608,331.93199 548.631402,329.176322 551.198992,327.031066 C551.872376,326.467674 552.864819,326.518052 553.47775,327.146935 C553.717045,327.392107 553.958858,327.633921 554.202351,327.874895 C554.661629,328.326616 554.821998,329 554.615449,329.610411 C554.419815,330.186398 554.224181,330.755668 554.029387,331.320739 C552.38707,336.083963 550.950462,340.24937 551.347607,345.174643 C554.536524,345.099916 555.821998,341.085642 557.445844,334.79597 C558.442485,330.930311 559.38623,327.279597 561.361041,325.219144 C561.684299,324.881612 562.124265,324.701931 562.572628,324.701931 Z M381.414777,280.381192 C382.278757,284.365239 383.628883,288.274559 385.684299,292.105793 C390.002519,300.152813 397.331654,306.481108 404.419815,312.600336 C407.419815,315.189757 410.52225,317.869018 413.367758,320.650714 C424.97649,331.998321 432.607893,345.298069 436.332494,360.800168 C439.160369,356.988245 442.29471,353.348447 445.761545,350.018472 C444.785894,345.087322 443.246012,340.206549 441.013434,335.396306 C435.167926,322.804366 425.329975,314.972292 414.914358,306.680101 C411.941226,304.313182 408.865659,301.864819 405.907641,299.308984 C402.997481,296.794291 400.452561,294.285474 397.992443,291.858942 C392.998321,286.933669 388.61377,282.609572 382.93199,280.049538 C382.437448,280.175483 381.929471,280.286314 381.414777,280.381192 Z M279.790092,360.890848 C280.232578,361.700252 283.057095,363.664148 288.002519,362.95466 C288.279597,362.915197 288.559194,362.869857 288.842989,362.820319 C287.314022,361.77246 285.770781,361.060453 284.231738,360.809404 C281.517212,360.369437 280.209908,360.670025 279.790092,360.890848 Z M587.556675,359.347607 C587.199832,362.094039 587.74895,364.02351 589.194794,365.096558 C590.639798,366.168766 592.877414,366.507976 595.501259,366.3644 C592.740554,362.989085 589.971453,360.401343 587.556675,359.347607 Z M350.623006,438.242653 C345.675063,438.242653 338.679261,440.874055 335.956339,443.858102 C334.825357,445.097397 334.123426,446.246851 333.835432,447.338371 C334.287993,447.170445 334.825357,446.973971 335.441646,446.74895 C347.806885,442.237615 352.099916,439.843829 353.307305,438.579345 C352.528967,438.349286 351.617128,438.242653 350.623006,438.242653 Z M434.551637,369.366919 C425.830395,383.314861 420.741394,398.59194 417.989085,409.085642 C413.029387,427.991604 408.632242,447.598657 410.074727,466.595298 C415.145256,460.921075 419.641478,455.026029 422.269521,447.141058 C422.725441,445.774139 423.189757,444.392107 423.65827,442.998321 C427.877414,430.440806 432.240134,417.45508 434.128463,404.478589 C435.986566,391.712007 436.135181,380.031906 434.551637,369.366919 Z M631.316541,464.664148 C631.651553,465.969773 632.08984,467.275399 632.608732,468.578505 C634.91016,467.27372 634.888329,466.480269 634.88749,466.469353 C634.862301,466.118388 634.755668,465.743913 634.151973,465.384551 C633.478589,464.982368 632.490344,464.756507 631.316541,464.664148 Z M732.263644,451.801847 C730.899244,455.191436 729.689337,458.640638 728.687657,462.15953 C727.441646,466.540722 727.138539,470.335013 727.348447,473.942905 C730.449202,473.111671 732.541562,471.732997 733.721243,469.74979 C736.297229,465.423174 734.301427,458.319899 732.263644,451.801847 Z M699.255248,467.950462 C699.867338,468.52309 700.543241,469.06801 701.283795,469.585223 C707.592779,473.989085 717.256087,475.373636 724.026868,474.56843 C723.74979,470.529807 724.041982,466.215785 725.457599,461.240974 C726.866499,456.287993 728.665827,451.491184 730.716205,446.814442 C730.15953,444.93115 729.685139,443.127624 729.387909,441.426532 C725.845508,421.147775 735.15869,403.129303 744.166247,385.702771 C748.628044,377.06801 752.842989,368.914358 755.587741,360.516373 C760.548279,345.346767 758.963896,332.407221 750.743073,320.957179 C743.756507,311.22838 736.916877,308.221662 727.733837,305.861461 C724.463476,308.172124 721.379513,309.434929 718.654072,309.138539 C717.781696,309.042821 717.130143,308.291352 717.15869,307.413938 C717.202351,306.078086 717.132662,304.698573 716.960537,303.290512 C714.252729,302.523929 712.293031,301.534005 710.810243,300.38707 C710.169605,302.65827 709.212427,304.826196 707.944584,306.842989 C703.798489,313.439127 696.782536,317.9555 688.190596,319.559194 C683.072208,320.513854 668.786734,321.764903 664.201511,316.161209 C663.074727,314.783375 661.693535,312.735516 662.717045,310.871537 C664.074727,308.392947 668.240974,308.858942 673.087322,309.436608 C668.827876,306.422334 663.97649,302.673384 664.88749,297.200672 C665.002519,296.509656 665.533165,295.963056 666.221662,295.828715 C666.946264,295.686818 667.361041,295.439966 667.871537,295.101595 C667.806885,295.026868 667.743913,294.950462 667.680101,294.874055 C667.051217,294.120907 666.401343,293.342569 665.729639,292.968094 C665.09068,292.61293 664.756507,291.884131 664.900924,291.168766 C665.582704,287.801847 666.723762,285.774979 668.494542,284.789253 C670.763224,283.523929 673.245172,284.445004 675.433249,285.256087 C677.877414,286.162049 679.123426,286.497061 679.997481,285.662469 C680.693535,284.99916 680.806045,284.702771 678.827876,282.334173 C677.458438,280.693535 675.378673,278.20403 676.423174,275.351805 C673.007557,275.572628 669.372796,275.677582 665.470193,275.674223 C651.942065,275.654912 628.889169,275.638119 611.867338,282.503778 C609.958858,296.765743 609.089001,310.68262 616.041982,319.562552 C620.391268,325.116709 627.450882,328.303107 637.623846,329.304786 C644.027708,329.934509 650.355164,329.300588 656.473552,328.686818 C664.86314,327.846348 673.535684,326.97649 682.688497,329.274559 C699.721243,333.549958 710.969773,340.286314 717.076406,349.867338 C729.347607,369.121746 719.696893,398.550798 711.942065,422.198153 C709.754828,428.866499 707.689337,435.165407 706.31822,440.61293 C705.696893,443.078086 704.924433,445.943745 704.107473,448.97733 C702.600336,454.571788 700.848027,461.077246 699.255248,467.950462 Z M627.870697,464.701092 C623.648195,465.031066 618.757347,466.239295 616.676742,467.178002 C611.617968,469.460118 609.722922,472.399664 609.531486,476.238455 C610.371117,475.951301 611.202351,475.651553 612.015953,475.356843 C613.232578,474.917716 614.382872,474.502099 615.518892,474.138539 C616.155332,473.934509 617.187238,473.670025 618.494542,473.335852 C621.445844,472.580185 625.905122,471.439127 629.49958,470.020991 C629.518892,470.014274 629.537364,470.006717 629.555835,469.99916 C628.852225,468.253568 628.27372,466.487825 627.870697,464.701092 Z M363.900924,476.853904 C370.834593,477.128463 373.018472,470.08984 375.105793,460.90848 C375.534005,459.027708 375.937867,457.25021 376.40974,455.720403 C376.61293,455.058774 377.202351,454.59026 377.893367,454.539882 C379.620487,454.417296 381.819479,454.752309 383.643997,456.623846 C384.011755,454.497901 384.406381,452.344249 384.809404,450.190596 C385.225021,447.97649 385.582704,446.062972 385.759866,444.839631 C387.798489,430.709488 389.973971,417.959698 395.963896,405.001679 C397.581024,401.504618 400.163728,397.628883 402.898405,393.525609 C408.895886,384.525609 415.694374,374.325777 413.617968,365.882452 C412.869018,362.84047 411.686818,360.984047 410.289673,360.656591 C408.673384,360.279597 406.319899,361.699412 403.985726,364.459278 C402.641478,366.048699 401.396306,367.97817 400.372796,370.032746 C400.942905,372.400504 401.1822,374.685139 401.027708,376.827876 C400.97649,377.542401 400.966415,378.168766 400.957179,378.774979 C400.918556,381.231738 400.884971,383.355164 397.668346,385.502939 C397.25105,385.781696 396.732158,385.858102 396.251889,385.714526 C395.77162,385.570109 395.381192,385.218304 395.187238,384.756507 C393.45424,380.625525 394.45424,374.890848 396.792611,369.715365 C393.799328,359.335013 383.829555,346.110831 371.61293,337.193955 C361.194794,329.59026 351.379513,326.768262 344.68262,329.458438 C337.08984,332.506297 330.677582,338.65827 324.47775,344.607893 C320.108312,348.800168 315.59026,353.13602 310.641478,356.423174 C305.195634,360.039463 300.183879,362.699412 295.65995,364.378673 C300.354324,369.380353 304.49958,376.178841 307.910999,381.774139 C309.403862,384.221662 310.692695,386.335852 311.791772,387.90848 C318.555835,397.59194 326.644836,407.005038 335.834593,415.88581 C337.584383,417.576826 339.311503,419.231738 341.02183,420.869857 C348.254408,427.799328 355.086482,434.345088 362.084803,442.110831 L363.080605,443.209068 C367.070529,447.59194 371.195634,452.124265 371.172964,458.884131 C371.15869,463.11419 369.13602,466.392107 367.178841,469.561713 C365.68094,471.987406 364.253568,474.299748 363.900924,476.853904 Z M407.581024,474.270361 C405.330814,476.696054 403.0445,479.189757 400.871537,481.847187 C402.461797,481.70361 404.11335,481.617128 405.849706,481.527288 C406.626364,481.484467 407.757347,481.564232 409.115869,481.708648 C408.486986,479.242653 407.979009,476.760705 407.581024,474.270361 Z M412.712846,482.146096 C412.914358,482.172124 413.119228,482.198153 413.325777,482.225861 C416.857263,482.684299 423.43241,483.537364 424.665827,482.952981 C427.521411,481.005038 427.083963,473.895046 426.764064,468.70361 C426.619647,466.353484 426.482788,464.135181 426.628883,462.469353 C427.366919,454.062972 428.810243,445.208228 430.589421,438.176322 C432.303946,431.398825 434.411419,424.381192 436.450042,417.594458 C442.780856,396.516373 449.277078,374.88665 446.437448,354.069689 C443.050378,357.529807 440.008396,361.297229 437.278757,365.2267 C439.525609,377.180521 439.573468,390.391268 437.451721,404.962217 C435.520571,418.238455 431.108312,431.368598 426.84131,444.06801 C426.374475,445.460118 425.910999,446.837951 425.455919,448.20403 C422.265323,457.774139 416.660789,464.43157 410.529807,471.09068 C411.001679,474.807725 411.716205,478.495382 412.712846,482.146096 Z M706.852225,507.687657 C707.304786,508.576826 708.111671,509.324937 708.812762,509.853065 C712.419815,512.574307 718.912678,513.924433 722.094039,513.276238 C724.109152,512.86398 725.502939,512.185558 726.45508,511.232578 C720.445004,508.433249 712.780856,505.947943 706.852225,507.687657 Z M616.311503,520.880772 C616.75063,521.221662 618.338371,522.099916 623.411419,522.596977 C633.346767,523.566751 640.476071,521.593619 644.035264,516.889169 C644.11251,516.788413 644.188077,516.685139 644.260285,516.581024 C643.814442,516.580185 643.374475,516.578505 642.938707,516.576826 C636.59194,516.554996 631.586902,516.536524 625.588581,517.518892 C619.654912,518.491184 616.921914,520.160369 616.311503,520.880772 Z M334.29555,450.753988 C335.349286,452.812762 337.623006,454.875735 339.994962,457.028547 C340.551637,457.533165 341.11419,458.043661 341.670865,458.562552 C353.892527,469.948783 357.271201,482.848866 352.625525,500.389589 C350.734677,507.526448 347.900084,511.360202 342.641478,516.775819 C342.053736,517.380353 341.210747,518.115869 340.234257,518.966415 C337.062972,521.730479 331.160369,526.875735 332.791772,529.761545 C333.526448,531.061293 335.069689,531.86398 337.380353,532.147775 C347.478589,533.395466 366.40806,524.701092 369.910999,521.010076 C373.720403,516.995802 379.648195,499.784215 382.377834,484.281276 C380.805206,479.119228 381.418976,470.895046 382.805206,461.764903 C382.669186,461.367758 382.519731,460.993283 382.354324,460.644836 C381.587741,459.024349 380.612091,458.154492 379.270361,457.93199 C378.968934,459.06717 378.68094,460.332494 378.381192,461.653233 C376.533165,469.779177 373.740554,482.058774 361.856423,480 C361.070529,479.86314 360.488665,479.192275 360.465155,478.395466 C360.34173,474.243493 362.365239,470.966415 364.320739,467.797649 C366.11251,464.896725 367.803526,462.155332 367.814442,458.872376 C367.832914,453.418976 364.479429,449.734677 360.596977,445.469353 L359.589421,444.359362 C358.401343,443.041142 357.217464,441.756507 356.033585,440.49958 C353.90848,442.963056 348.096558,445.706129 336.592779,449.903442 C335.627204,450.256087 334.81864,450.551637 334.29555,450.753988 Z M698.423174,471.649034 C693.924433,492.297229 691.458438,515.308144 701.510495,526.625525 C707.276238,533.119228 728.796809,539.768262 737.717884,536.461797 C742.041982,534.857263 744.307305,532.679261 744.449202,529.988245 C744.738875,524.455919 736.395466,516.680101 729.529807,512.790092 C728.189757,514.531486 726.073048,515.889169 722.767422,516.565911 C718.732997,517.397145 711.347607,515.970613 706.790932,512.534845 C704.573468,510.86314 703.31738,508.866499 703.156171,506.762385 C703.101595,506.047019 703.507137,505.375315 704.166247,505.09152 C710.093199,502.536524 718.115869,503.603694 728.025189,508.257767 C728.485306,506.334173 728.40974,503.893367 728.248531,500.915197 L728.203191,500.071369 C727.933669,494.867338 726.939547,490.406381 725.979849,486.09068 C725.370277,483.355164 724.7733,480.674223 724.382872,477.91016 C716.822838,478.802687 706.418976,477.264484 699.361041,472.338371 C699.038623,472.11419 698.72628,471.883291 698.423174,471.649034 Z M382.963896,537.769941 C389.077246,541.208228 392.803526,539.512175 399.471033,536.480269 L400.549958,535.990764 C408.278757,532.498741 412.624685,530.964736 421.72628,530.964736 C421.769102,530.964736 421.811923,530.964736 421.854744,530.964736 C432.952981,530.964736 449.02183,530.084803 460.800168,522.566751 C464.092359,520.464316 470.924433,512.708648 469.672544,508.865659 C468.027708,503.809404 457.31906,504.888329 452.744752,505.348447 C449.508816,505.673384 446.368598,506.281276 443.332494,506.868178 C432.139379,509.033585 421.56759,511.078086 414.414777,496.260285 C412.654912,492.61461 411.22754,488.923594 410.093199,485.201511 C408.34005,484.989924 406.805206,484.844668 406.025189,484.880772 C403.038623,485.036104 400.403023,485.172964 397.951301,485.612091 C380.519731,508.956339 375.61377,526.035264 382.963896,537.769941 Z M582.671704,523.054576 C571.623846,523.054576 564.966415,525.747271 564.305626,528.293031 C564.098237,529.093199 564.133501,532.100756 573.309824,537.179681 C584.130143,543.168766 593.95382,544.937028 608.344249,543.482788 C613.433249,542.969773 618.855584,543.146935 624.596138,543.335013 C635.464316,543.692695 646.706969,544.059614 655.104954,539.349286 C662.032746,535.463476 663.957179,531.370277 661.970613,524.74979 C659.743913,517.336692 656.574307,516.617128 648.162888,516.583543 C647.751469,517.404702 647.267842,518.183879 646.713686,518.916037 C642.412259,524.600336 634.244332,527.030227 623.085642,525.938707 C618.747271,525.514694 612.967254,524.54492 612.853065,521.038623 C612.738035,517.492024 619.075567,515.183039 625.04618,514.20487 C631.320739,513.178002 636.711167,513.194794 642.950462,513.218304 C643.90932,513.221662 644.874055,513.211587 645.905961,513.225021 C647.251889,508.956339 646.646516,503.392947 644.092359,496.861461 C642.38539,492.49958 639.75063,488.208228 636.960537,483.664987 C634.831234,480.198153 632.664987,476.670865 630.919395,473.062972 C627.597817,474.395466 623.485306,475.524769 619.326616,476.589421 C618.124265,476.896725 617.084803,477.162888 616.54492,477.335852 C615.466835,477.68178 614.345088,478.087322 613.157011,478.516373 C612.0445,478.917716 610.902603,479.329975 609.744752,479.710327 C610.107473,482.124265 610.864819,484.831234 611.769941,487.874895 C613.460957,493.559194 615.209908,499.436608 613.904282,505.035264 C609.692695,523.109992 592.193115,523.087322 582.811923,523.054576 C582.764903,523.054576 582.718724,523.054576 582.671704,523.054576 Z M599.348447,547.345088 C590.299748,547.345088 581.583543,545.597817 571.68262,540.118388 C563.609572,535.649034 560.033585,531.38623 561.054576,527.449202 C562.54576,521.702771 573.265323,519.670865 582.81864,519.696054 C582.93283,519.696054 583.047019,519.696054 583.162049,519.696054 C594.780017,519.696054 607.338371,518.410579 610.633921,504.27204 C611.737196,499.541562 610.116709,494.096558 608.550798,488.832914 C607.756507,486.162888 606.930311,483.38707 606.492024,480.656591 C603.004198,481.507137 599.496222,481.734677 596.350966,480.233417 C590.879093,477.620487 587.947103,470.368598 585.805206,465.072208 L585.45424,464.207389 C583.428212,459.230898 581.629723,454.167926 579.888329,449.271201 C576.929471,440.942065 573.869018,432.329135 569.670025,424.15953 C561.369437,408.015113 555.054576,394.632242 549.797649,382.04534 C548.372796,378.6356 545.491184,374.525609 542.439966,370.173804 C536.261965,361.36272 529.331654,351.480269 531.435768,342.979009 L460.54576,342.979009 C456.50042,345.323258 452.797649,348.104114 449.4089,351.197313 C453.225021,373.421495 446.355164,396.291352 439.666667,418.560873 C437.638119,425.312343 435.540722,432.293871 433.844668,438.99916 C432.108312,445.865659 430.696893,454.526448 429.974811,462.763224 C429.850546,464.178841 429.979849,466.276238 430.116709,468.497061 C430.506297,474.827876 430.991604,482.706129 426.512175,485.755668 C424.832914,486.899244 421.125945,486.611251 413.766583,485.668346 C414.770781,488.744752 415.985726,491.789253 417.439966,494.801008 C423.468514,507.290512 431.534005,505.730479 442.694374,503.570949 C445.804366,502.969773 449.020991,502.346767 452.40806,502.005877 C458.244332,501.420655 470.382872,500.196474 472.866499,507.826196 C474.943745,514.20487 465.796809,523.361041 462.607053,525.397145 C450.08984,533.38707 433.372796,534.323258 421.853065,534.323258 C421.810243,534.323258 421.768262,534.323258 421.725441,534.323258 C413.239295,534.323258 409.36356,535.693535 401.933669,539.050378 L400.861461,539.537364 C393.827036,542.737196 388.745592,545.04618 380.922754,540.471033 C380.697733,540.338371 380.506297,540.157011 380.3644,539.938707 C372.276238,527.533165 376.266163,510.27372 392.575987,487.288833 C391.212427,487.942905 389.869857,488.794291 388.513854,489.912678 C387.814442,490.488665 386.785055,490.407221 386.186398,489.728799 C385.935348,489.444165 385.683459,489.162888 385.427372,488.882452 C385.278757,488.784215 385.135181,488.680101 384.996641,488.56759 C381.921075,503.742233 376.241814,519.217464 372.346767,523.322418 C367.965575,527.940386 348.00084,536.84047 336.970613,535.481108 C333.54492,535.059614 331.155332,533.691856 329.868178,531.414777 C326.888329,526.144416 333.59194,520.301427 338.027708,516.434929 C338.947943,515.633081 339.741394,514.940386 340.231738,514.435768 C345.175483,509.344249 347.669186,505.984047 349.378673,499.529807 C353.668346,483.334173 350.585223,471.456759 339.381192,461.020151 C338.835432,460.510495 338.283795,460.010915 337.738035,459.515533 C335.073048,457.097397 332.513854,454.774979 331.213266,452.115869 C330.904282,452.258606 330.597817,452.402183 330.293871,452.544081 C324.240134,455.371117 317.979009,458.297229 311.219983,452.984047 C308.322418,450.707809 305.986566,446.686818 303.72796,442.800168 C302.147775,440.080605 300.656591,437.513854 299.075567,435.667506 C293.982368,429.719563 288.452561,423.897565 281.674223,417.343409 C278.549958,414.324097 275.18136,411.314861 271.61461,408.129303 C251.667506,390.312343 229.141058,370.193955 245.905961,342.979009 L33.5852225,342.979009 C32.6574307,342.979009 31.9059614,342.2267 31.9059614,341.299748 C31.9059614,340.371956 32.6574307,339.620487 33.5852225,339.620487 L249.018472,339.620487 C249.644836,339.620487 250.218304,339.968094 250.507137,340.52309 C250.796809,341.078086 250.753149,341.748111 250.395466,342.261125 C232.154492,368.380353 253.352645,387.314022 273.852225,405.623846 C277.444165,408.832074 280.837112,411.86314 284.008396,414.929471 C290.864819,421.558354 296.462636,427.453401 301.626364,433.483627 C303.406381,435.560873 305.04618,438.383711 306.631402,441.11251 C308.731318,444.72628 310.903442,448.464316 313.29555,450.344249 C318.429891,454.379513 322.810243,452.332494 328.873216,449.501259 C329.353484,449.276238 329.839631,449.049538 330.334173,448.821998 C330.334173,448.820319 330.334173,448.81864 330.333333,448.816961 C330.219983,446.399664 331.247691,444.036944 333.475231,441.595298 C336.615449,438.152813 344.345088,434.879933 350.539882,434.879933 C350.557515,434.879933 350.575147,434.879933 350.592779,434.879933 C346.691856,430.95382 342.759026,427.185558 338.698573,423.29555 C336.984887,421.653233 335.253568,419.994962 333.50042,418.301427 C324.156171,409.270361 315.926113,399.691856 309.037783,389.832074 C307.879933,388.172964 306.565071,386.017632 305.043661,383.52225 C301.611251,377.893367 297.02267,370.368598 292.081444,365.529807 C290.836272,365.864819 289.633921,366.115029 288.476071,366.280437 C282.653233,367.108312 278.435768,365.015953 276.981528,362.719563 C276.217464,361.512175 276.178002,360.162049 276.874895,359.107473 C277.663308,357.913518 279.670865,356.662469 284.770781,357.495382 C287.625525,357.959698 290.36272,359.533165 292.956339,361.769941 C297.596977,360.260285 302.897565,357.534005 308.783375,353.625525 C313.481948,350.504618 317.889169,346.275399 322.151973,342.185558 C328.583543,336.013434 335.234257,329.631402 343.43073,326.34089 C351.339211,323.166247 362.051217,326.057935 373.593619,334.481948 C384.13602,342.177162 394.632242,354.416457 398.982368,365.639798 C399.740554,364.435768 400.560873,363.308144 401.421495,362.290512 C404.68178,358.435768 408.100756,356.694374 411.057095,357.38623 C413.823678,358.035264 415.782536,360.623846 416.878254,365.080605 C419.308144,374.958858 412.074727,385.811923 405.692695,395.388749 C403.032746,399.380353 400.520571,403.150294 399.012594,406.410579 C393.212427,418.958018 391.084803,431.45508 389.083963,445.31906 C388.897565,446.61293 388.549958,448.465155 388.110831,450.809404 C387.622166,453.418136 386.893367,457.308144 386.246851,461.572628 C387.737196,467.017632 387.302267,475.308984 385.826196,484.099916 C386.209068,485.047859 386.716205,485.74895 387.372796,486.140218 C387.470193,486.197313 387.560034,486.264484 387.643157,486.34005 C390.424853,484.319899 393.165407,483.211587 396.040302,482.565071 C396.153652,482.415617 396.266163,482.267003 396.379513,482.117548 C399.43157,478.104114 402.74895,474.534845 405.958018,471.083963 C406.307305,470.707809 406.654912,470.334173 407.001679,469.958858 C404.760705,449.523929 409.43073,428.475231 414.740554,408.233417 C417.755668,396.736356 423.519731,379.640638 433.700252,364.526448 C430.396306,348.358522 422.86314,334.628883 411.020151,323.051217 C408.248531,320.342569 405.186398,317.698573 402.225021,315.142737 C394.905961,308.822838 387.337531,302.288833 382.725441,293.693535 C380.440806,289.436608 378.970613,285.134341 378.051217,280.776658 C376.178841,280.879933 374.333333,280.787573 372.721243,280.512175 C369.396306,279.946264 367.148615,278.650714 366.221662,276.767422 C365.973971,276.266163 365.993283,275.674223 366.27204,275.189757 C366.550798,274.70361 367.052897,274.389589 367.610411,274.350966 C371.150294,274.102435 374.283795,274.266163 377.109152,274.763224 C376.347607,267.648195 376.70361,260.368598 377.069689,252.870697 L377.13602,251.507137 C377.402183,245.989924 378.107473,240.163728 378.854744,233.995802 C381.476071,212.342569 384.446683,187.801008 367.224181,172.780017 C365.847187,171.580185 364.468514,170.398825 363.098237,169.225021 C352.101595,159.808564 341.714526,150.913518 337.280437,136.286314 C336.546599,133.864819 336.001679,131.427372 335.621327,128.979849 C335.123426,129.459278 334.603694,129.920235 334.062972,130.359362 C330.034425,133.628883 325.762385,136.308984 321.631402,138.900924 C313.077246,144.266163 304.997481,149.334173 299.729639,159.012594 C293.811923,169.883291 292.388749,191.717045 302.549118,199.603694 C307.465155,203.419815 308.706129,202.65827 308.717045,202.649874 C310.905122,201.161209 307.013434,187.847187 305.549118,182.834593 C304.132662,177.989924 303.398825,175.398825 303.510495,174.038623 C303.549118,173.573468 303.779177,173.144416 304.146935,172.855584 C304.514694,172.566751 304.989924,172.448363 305.447523,172.517212 C318.051217,174.514694 316.302267,196.507976 315.36272,208.323258 C315.264484,209.550798 315.178002,210.63644 315.123426,211.535684 C314.788413,217.062133 314.981528,222.3644 315.167926,227.492863 C315.458438,235.465995 315.732997,242.997481 314.133501,250.9555 C312.443325,259.361041 313.065491,265.414777 316.033585,269.460118 C317.900924,272.006717 320.720403,273.824517 324.579345,274.952141 C323.919395,272.744752 323.069689,270.467674 322.231738,268.220823 C319.530647,260.981528 316.737196,253.495382 319.814442,247.581864 C321.714526,243.928631 325.557515,241.393787 331.562552,239.832914 C332.004198,239.717884 332.475231,239.788413 332.86398,240.027708 C333.253568,240.267003 333.528128,240.654912 333.625525,241.101595 C334.757347,246.314861 333.015113,250.31822 331.329135,254.190596 C330.945424,255.073048 330.551637,255.97817 330.195634,256.893367 C333.334173,260.540722 337.664987,259.367758 343.7733,257.1822 C345.282116,256.643157 346.842149,256.084803 348.315701,255.702771 C348.900084,255.551637 349.52309,255.72628 349.943745,256.160369 C350.254408,256.481108 350.570109,256.796809 350.890848,257.107473 C351.398825,257.599496 351.544081,258.357683 351.254408,259.002519 C350.723762,260.1822 350.355164,261.602015 350,262.974811 C349.798489,263.751469 349.592779,264.544081 349.353484,265.314861 C352.862301,266.403023 356.40974,267.366919 360.135181,268.379513 C361.781696,268.827036 363.435768,269.277078 365.093199,269.738875 C365.65995,269.898405 366.103275,270.342569 366.259446,270.91016 C366.823678,272.952141 366.45508,274.816121 365.193955,276.300588 C361.539043,280.599496 350.511335,281.597817 330.482788,279.444165 L330.076406,279.399664 C329.706129,279.360202 329.34089,279.31738 328.981528,279.270361 C329.212427,281.036944 329.232578,282.755668 328.944584,284.393787 C328.874895,284.790932 328.664148,285.149454 328.351805,285.404702 C324.178841,288.806885 319.225861,289.933669 313.633921,288.760705 C300.188077,285.93283 285.445844,269.579345 279.973132,258.859782 C266.893367,233.241814 267.769102,193.762385 275.393787,168.004198 C280.282955,151.486986 289.120907,140.15869 302.412259,133.370277 C303.997481,132.560873 306.232578,131.301427 308.820319,129.843829 C318.63728,124.314022 328.010076,119.246851 334.941226,117.232578 C335.183879,109.219983 336.718724,101.212427 338.647355,93.4307305 C337.853065,91.9882452 336.403023,90.6532326 334.874055,89.2460118 C332.883291,87.4122586 330.824517,85.5180521 329.8178,83.0167926 C327.535684,77.3543241 328.626364,70.5306465 329.502939,65.0478589 L329.578505,64.5701092 C331.597817,51.8950462 337.166247,42.8589421 347.103275,36.1326616 C357.096558,29.3685978 367.490344,27.4030227 381.860621,29.5583543 C385.717884,30.1376994 401.649034,34.0814442 403.248531,41.4928631 C403.884971,44.4450042 402.293031,47.2989085 398.513014,49.9874055 C399.144416,53.1469353 400.858942,55.070529 402.816961,57.2670025 C404.376994,59.0167926 405.989924,60.8261965 407.199832,63.3921075 C408.72712,66.6297229 409.236776,69.2963896 409.686818,71.6490344 C410.225021,74.4668346 410.690176,76.900084 412.700252,80.0629723 C413.132662,80.743073 413.8178,81.3946264 414.543241,82.0856423 C416.02351,83.4962217 417.701931,85.0948783 417.652393,87.5079765 C417.585223,90.8194794 415.277918,92.2661629 413.592779,93.3232578 C412.493703,94.0125945 411.544081,94.6078925 411.151134,95.5482788 C410.20487,97.8127624 410.517212,100.416457 410.847187,103.172964 C411.327456,107.177162 411.871537,111.716205 408.333333,115.695214 C405.343409,119.058774 401.203191,119.688497 397.198992,120.298069 C394.49958,120.708648 391.949622,121.096558 389.952141,122.301427 C387.685139,123.667506 386.336692,125.644836 385.077246,127.802687 C397.669186,128.836272 415.219144,139.869018 421.357683,150.857263 C432.02351,169.950462 424.797649,193.638959 418.421495,214.538203 C416.279597,221.560034 414.255248,228.193115 413.09068,234.119228 C411.631402,241.541562 412.715365,247.589421 416.224181,251.607893 C416.883291,252.361881 417.624685,253.04534 418.445004,253.657431 C418.199832,252.443325 418.009236,251.240974 417.875735,250.094039 C417.497061,246.843829 417.215785,240.980688 419.581864,238.235097 C419.889169,237.878254 420.333333,237.666667 420.804366,237.652393 C421.290512,237.632242 421.731318,237.824517 422.059614,238.162049 C423.025189,239.15869 423.564232,240.926113 424.36356,243.72628 C424.942065,245.753149 426.019312,249.526448 427.031066,249.972292 C427.058774,249.984047 427.098237,249.984047 427.141898,249.973971 C427.437448,249.050378 427.256087,246.165407 427.134341,244.214945 C426.891688,240.350126 426.641478,236.355164 427.937028,234.104954 C428.331654,233.421495 429.148615,233.104114 429.900084,233.343409 C432.370277,234.125105 432.579345,233.565911 433.356003,231.481108 C434.038623,229.647355 435.071369,226.876574 438.718724,226.755668 C443.471872,226.606213 444.037783,230.390428 444.279597,233.220823 C445.5911,229.096558 447.171285,224.847187 450.188917,224.1822 C451.765743,223.836272 453.330814,224.509656 454.848027,226.183039 C455.268682,226.647355 455.396306,227.307305 455.178841,227.894207 C454.611251,229.424013 454.377834,230.674223 454.470193,232.02351 C456.623006,230.467674 459.243493,229.920235 462.09152,230.468514 C462.861461,230.617128 463.425693,231.278757 463.451721,232.062972 C463.828715,243.697733 445.838791,260.109992 434.933669,260.752309 C430.790092,261 427.049538,260.672544 423.781696,259.801847 C424.555835,261.582704 425.413938,262.918556 426.253568,263.528128 C427.666667,264.552477 429.263644,264.455919 430.807725,264.36356 C432.298069,264.27288 433.989085,264.172964 435.070529,265.480269 C436.025189,266.6356 436.098237,268.350966 435.320739,271.401343 C433.975651,276.677582 425.802687,279.741394 424.178002,280.302267 C416.645676,282.900924 410.472712,282.638119 405.832074,279.518052 C396.279597,273.094878 395.374475,256.571788 394.647355,243.29471 C394.576826,242.007557 394.507976,240.754828 394.434089,239.559194 C393.72796,244.738875 393.166247,250.020991 392.619647,255.486986 C392.475231,256.929471 392.450882,258.710327 392.424013,260.594458 C392.339211,266.685139 392.242653,273.586902 388.437448,277.31738 C388.041982,277.70529 387.579345,278.058774 387.061293,278.381192 C391.972292,281.20403 396.015953,285.193115 400.350126,289.466835 C402.77246,291.855584 405.277078,294.325777 408.103275,296.767422 C411.010915,299.279597 414.058774,301.706129 417.006717,304.052897 C427.268682,312.223342 437.879933,320.670865 444.059614,333.982368 C446.116709,338.413098 447.61461,342.884971 448.646516,347.38623 C451.906801,344.566751 455.439966,342.020151 459.266163,339.84047 C459.519731,339.696893 459.806045,339.620487 460.098237,339.620487 L533.812762,339.620487 C534.389589,339.620487 534.926113,339.916037 535.233417,340.403862 C535.541562,340.891688 535.576826,341.502939 535.328296,342.02351 C531.874055,349.254408 538.948783,359.344249 545.189757,368.246851 C548.348447,372.75063 551.331654,377.005038 552.896725,380.75063 C558.119228,393.254408 564.397985,406.559194 572.655751,422.624685 C576.958018,430.993283 580.057095,439.713686 583.053736,448.146935 C584.781696,453.008396 586.56759,458.034425 588.565071,462.940386 L588.918556,463.813602 C590.853904,468.598657 593.503778,475.152813 597.797649,477.202351 C600.183879,478.34005 603.139379,478.057095 606.174643,477.267842 C606.092359,472.105793 608.120067,467.353484 615.29555,464.115869 C617.146096,463.281276 622.36356,461.786734 627.330814,461.371117 C626.944584,457.926113 626.644836,454.628044 626.354324,451.434089 C625.29555,439.792611 624.380353,429.739715 619.994962,418.398825 C618.581864,414.744752 617.232578,411.040302 615.927792,407.458438 C612.402183,397.777498 609.070529,388.633921 604.487825,380.096558 C602.542401,376.470193 600.275399,372.785055 597.921075,369.523929 C593.710327,370.054576 589.809404,369.733837 587.194794,367.794291 C584.282955,365.634761 583.413098,361.948783 584.609572,356.836272 C584.808564,355.985726 585.632242,355.43157 586.490344,355.557515 C590.918556,356.214945 595.559194,360.827876 599.4089,365.870697 C606.34005,364.575147 614.373636,361.185558 617.895886,359.149454 C623.609572,355.844668 629.103275,352.125105 634.416457,348.528128 C639.835432,344.858942 645.439127,341.064652 651.327456,337.670865 C661.714526,331.683459 673.413098,331.29639 684.268682,336.580185 C697.788413,343.161209 707.942065,357.334173 710.135181,372.686818 C711.947943,385.369437 709.103275,398.005038 706.351805,410.225021 C705.664148,413.277918 705.015113,416.161209 704.441646,419.029387 C703.643997,423.024349 702.121746,427.742233 700.508816,432.736356 C697.434089,442.259446 693.948783,453.052057 695.146096,460.474391 C695.382872,461.946264 695.867338,463.327456 696.594458,464.61293 C698.02351,458.649874 699.536524,453.033585 700.86398,448.104114 C701.678421,445.083123 702.446683,442.230898 703.061293,439.792611 C704.462636,434.230059 706.54492,427.877414 708.75063,421.151973 C716.285474,398.178002 725.661629,369.585223 714.244332,351.672544 C708.621327,342.850546 698.031066,336.588581 681.869857,332.530647 C673.287993,330.376994 665.282955,331.180521 656.808564,332.029387 C650.527288,332.65995 644.031906,333.312343 637.29471,332.646516 C626.15953,331.550798 618.342569,327.947943 613.397985,321.633081 C605.991604,312.174643 606.470193,298.355164 608.27204,284.106633 C600.95382,287.70361 595.124265,292.832914 592.246012,300.146935 C592.303107,300.555835 592.420655,301.315701 592.544081,302.109152 C596.579345,328.057095 596.15869,340.994123 591.18136,344.055416 C589.179681,345.287154 586.733837,344.88665 583.915197,342.86398 C582.167926,341.610411 582.151973,338.460118 582.128463,334.100756 C582.109992,330.373636 582.080605,324.742233 580.329135,323.833753 C579.938707,323.629723 578.695214,323.391268 575.605374,325.543241 C573.036104,327.332494 572.712846,331.846348 572.369437,336.624685 C572.00084,341.764903 571.619647,347.078086 568.442485,350.611251 C567.90848,351.202351 567.033585,351.339211 566.345088,350.936188 C561.424853,348.057095 560.25021,342.782536 560.196474,337.546599 C558.586902,343.516373 556.251889,349.870697 549.45424,348.324097 C548.776658,348.169605 548.262804,347.612091 548.165407,346.923594 C547.685139,343.551637 547.960537,340.538203 548.604534,337.643997 C547.588581,339.84131 546.353484,341.980688 544.152813,343.617968 C543.479429,344.120067 542.539882,344.04534 541.951301,343.445844 C539.29555,340.736356 538.256927,337.293871 538.866499,333.214945 C540.596138,321.638959 555.796809,307.557515 563.122586,303.56759 C564.501259,302.816121 566.963056,302.120067 570.079765,301.237615 C573.237615,300.344249 576.815281,299.330814 579.443325,298.162049 C582.2267,296.924433 582.701931,296.043661 582.649034,295.832914 C581.812762,292.514694 572.839631,294.20403 567.47691,295.214106 C564.599496,295.756507 562.329975,296.184719 560.899244,296.071369 C560.116709,296.007557 559.481948,295.411419 559.371117,294.633921 C558.692695,289.883291 559.966415,285.356843 561.198992,280.979009 C561.984047,278.186398 562.72712,275.548279 562.97649,272.904282 C563.61461,266.146096 563.893367,258.995802 563.881612,249.719563 C563.879093,247.445004 563.864819,245.167926 563.852225,242.892527 C563.7733,229.605374 563.691856,215.865659 565.81864,202.760705 C566.879093,196.220823 568.058774,189.763224 569.198153,183.518052 C570.664148,175.484467 572.180521,167.177162 573.445004,158.688497 C575.972292,141.723762 583.040302,129.083963 594.453401,121.118388 C594.674223,120.965575 616.594458,105.774979 626.383711,107.755668 C626.780017,107.836272 627.157851,107.93283 627.521411,108.04534 C627.691856,106.936188 627.851385,105.86314 627.982368,104.832074 C626.509656,104.785894 624.983207,104.830395 623.494542,104.872376 C618.783375,105.006717 614.333333,105.134341 612.162888,102.370277 C610.866499,100.719563 610.655751,98.3921075 611.517212,95.2552477 C613.7733,87.0445004 610.656591,84.2527288 607.641478,81.5533165 C605.573468,79.7002519 603.22838,77.6011755 604.265323,74.031906 C604.308984,73.8799328 604.376154,73.7346767 604.460118,73.6003359 C609.015113,66.4315701 608.605374,62.9429051 608.129303,58.9042821 C607.97817,57.6120907 607.820319,56.2745592 607.816121,54.7783375 C607.802687,49.4643157 608.540722,48.1654072 610.732997,44.308984 C611.420655,43.0973971 612.278757,41.5894207 613.329135,39.5751469 C614.848866,36.6624685 617.001679,34.2611251 619.586062,32.3434089 C618.992443,31.8052057 618.470193,31.1721243 618.036104,30.4240134 C616.269521,27.379513 616.210747,24.0352645 617.872376,21.006717 C620.058774,17.0201511 625.235936,13.8664987 629.916037,13.6708648 C633.666667,13.5138539 637.469353,15.0848027 641.141058,16.6036944 C644.019312,17.7951301 646.995802,19.0268682 649.778338,19.3266163 C652.235936,19.5910999 654.7733,19.5482788 657.457599,19.5020991 C662.948783,19.4080605 668.626364,19.3098237 673.725441,22.0092359 C684.801847,27.874895 687.754828,41.9429051 682.265323,62.6926952 C681.009236,67.4391268 679.368598,72.1494542 677.780856,76.7052897 C676.823678,79.4534005 675.850546,82.247691 674.960537,85.0579345 C677.68262,90.3140218 678.603694,97.6003359 678.246012,103.177162 C679.330814,103.579345 680.515533,103.963056 681.801847,104.329135 C708.327456,111.866499 735.755668,119.661629 746.410579,152.131822 C748.711167,159.144416 750.063812,166.474391 751.372796,173.563392 C752.61461,180.293031 753.899244,187.25021 755.991604,193.915197 C757.22838,197.855584 758.56843,201.531486 759.864819,205.086482 C763.266163,214.414777 766.478589,223.225861 767.057095,234.692695 C767.84047,250.189757 762.230898,265.518052 749.90848,281.554996 L748.838791,282.95466 C743.047859,290.551637 736.826196,298.206549 731.009236,303.268682 C739.521411,305.70529 746.498741,309.288833 753.471872,318.998321 C762.236776,331.207389 764.02351,345.527288 758.780856,361.560034 C755.950462,370.214945 751.47691,378.872376 747.148615,387.244332 C738.398825,404.177162 729.349286,421.685139 732.696054,440.848027 C732.762385,441.22754 732.839631,441.615449 732.925273,442.010915 C736.560034,434.439966 740.743913,427.162049 744.850546,420.018472 C751.826196,407.884131 759.039463,395.335852 763.049538,382.030227 C766.586902,370.29471 767.723762,345.073887 767.551637,341.903442 C767.365239,341.417296 767.411419,340.867338 767.690176,340.416457 C768.047859,339.838791 768.723762,339.532326 769.376994,339.620487 L972.670025,339.620487 C973.593619,339.620487 974.349286,340.371956 974.349286,341.299748 C974.349286,342.2267 973.593619,342.979009 972.670025,342.979009 L770.934509,342.979009 C771.009236,345.345928 770.8178,349.585223 770.194794,357.321579 C769.675903,363.764064 768.476071,375.665827 766.265323,382.99916 C762.143577,396.675063 754.832914,409.392107 747.762385,421.691856 C743.04534,429.896725 738.2267,438.281276 734.293031,447.040302 C734.541562,447.852225 734.801847,448.680101 735.06717,449.520571 C737.435768,457.041142 740.120067,465.565911 736.607893,471.466835 C734.910999,474.31822 731.914358,476.282955 727.689337,477.321579 C728.058774,479.97817 728.642317,482.601175 729.257767,485.361041 C730.248531,489.811083 731.27204,494.412259 731.556675,499.897565 L731.602015,500.732997 C731.761545,503.674223 731.940386,506.956339 731.050378,509.800168 C737.410579,513.425693 748.230059,522.041982 747.802687,530.164568 C747.584383,534.31906 744.584383,537.497061 738.88581,539.610411 C728.527288,543.453401 705.583543,536.270361 699,528.856423 C687.664987,516.094039 690.662469,490.858942 695.580185,468.97733 C693.56759,466.655751 692.310663,463.989085 691.830395,461.009236 C690.504618,452.789253 694.120907,441.587741 697.312343,431.70529 C698.895046,426.805206 700.388749,422.176322 701.148615,418.371956 C701.729639,415.463476 702.382872,412.560873 703.074727,409.486986 C705.759866,397.564232 708.535684,385.234257 706.811923,373.162049 C704.801847,359.099916 695.152813,345.61293 682.798489,339.599496 C672.97817,334.819479 662.395466,335.166247 653.005038,340.579345 C647.221662,343.913518 641.669186,347.673384 636.298908,351.308984 C630.937028,354.939547 625.393787,358.693535 619.576826,362.057095 C617.403023,363.314022 609.442485,367.141898 601.587741,368.879093 C604.279597,372.783375 606.38539,376.528967 607.447523,378.507137 C612.143577,387.257767 615.514694,396.512175 619.083963,406.308984 C620.382872,409.876574 621.72712,413.564232 623.127624,417.187238 C627.68178,428.967254 628.661629,439.732158 629.699412,451.129303 C629.995802,454.393787 630.303107,457.766583 630.700252,461.277078 C632.730479,461.355164 634.553317,461.714526 635.870697,462.498741 C637.303946,463.351805 638.122586,464.640638 638.238455,466.225861 C638.394626,468.384551 636.714526,470.145256 633.969773,471.649034 C635.646516,475.106633 637.752309,478.535684 639.821998,481.907641 C642.566751,486.376154 645.404702,490.996641 647.219983,495.638119 C649.874055,502.422334 650.596138,508.384551 649.393787,513.22838 C656.880772,513.307305 662.325777,514.257767 665.186398,523.784215 C667.631402,531.929471 665.029387,537.633081 656.74895,542.277918 C647.533165,547.447523 635.81864,547.063812 624.485306,546.691856 C618.861461,546.507137 613.547439,546.332494 608.68178,546.824517 C605.495382,547.146096 602.402183,547.345088 599.348447,547.345088 L599.348447,547.345088 Z"/>
</svg>
