<svg xmlns="http://www.w3.org/2000/svg" width="1000" height="674" viewBox="0 0 1000 674">
  <defs>
    <linearGradient id="img-savings-grad-a" x1="26.74%" x2="75.412%" y1="93.581%" y2="93.581%">
      <stop offset="0%" stop-color="#A2BB68"/>
      <stop offset="100%" stop-color="#D7478C"/>
    </linearGradient>
  </defs>
  <path fill="url(#img-savings-grad-a)" fill-rule="evenodd" d="M384.596982,51.9383008 C385.321786,53.0456497 385.921195,54.3103026 386.346294,55.6682714 C388.960035,53.5406684 389.009838,49.9573371 388.849758,44.7636396 C388.663888,38.7238777 388.432663,31.2061695 395.911928,26.8718671 C402.275084,23.1845552 406.022721,25.0490962 410.769075,27.4095446 C411.716211,27.8805678 412.695364,28.367588 413.780346,28.8581632 C415.876497,29.8055419 418.936681,30.2125771 421.895482,30.6062814 C425.412783,31.0737497 428.735319,31.5163338 431.026233,32.8529733 C434.735629,35.0179026 436.92427,40.2533701 437.887414,46.7925943 C441.301552,39.3833103 442.712919,30.9244443 436.225257,20.3948536 C433.033451,15.2127094 426.018416,11.3307672 417.460394,10.009236 C408.607114,8.64415738 400.131799,10.3611703 395.342757,14.4937325 C386.426334,22.1874079 385.663289,34.7415098 384.926034,46.8823554 C384.821983,48.5984796 384.71971,50.2843872 384.596982,51.9383008 Z M377.88343,51.0860154 C376.07809,51.0860154 374.847258,53.5086744 374.262078,54.9972855 C372.133022,60.4069427 374.741427,66.4200429 378.025723,70.2451069 C378.34855,68.6765107 378.658926,67.1372424 378.961298,65.6388553 C379.259224,64.1653525 379.550035,62.7247325 379.837288,61.3285485 C380.37889,58.6952621 380.705274,55.8948958 380.948061,52.9656646 C380.040055,51.8840887 379.021773,51.2068817 378.126217,51.100235 C378.045288,51.090459 377.96347,51.0860154 377.88343,51.0860154 Z M434.801439,59.4880031 C432.993431,62.5425442 431.438883,65.4486686 430.823466,68.1726048 C430.428604,69.9216117 430.054196,71.554196 429.701132,73.0952417 C428.225733,79.5358177 427.125632,84.338477 426.400828,89.3499863 C429.643325,84.4246832 431.936907,77.7485956 433.248669,71.4217762 C434.085529,67.3869736 434.595115,63.3397288 434.801439,59.4880031 Z M377.411196,95.7096885 C377.726019,95.7096885 378.039063,95.7932284 378.315645,95.9567535 C378.735408,96.2047072 379.035113,96.6144085 379.1445,97.0889866 C379.95379,100.611885 381.889862,103.709085 384.463583,106.236613 C382.402116,103.255836 380.654582,99.9977772 379.37039,96.6846177 C377.560603,92.0161555 379.341042,87.5592094 380.771085,83.9776555 C382.632452,79.3163031 382.845002,78.0018817 380.459819,76.7949958 C380.40557,76.7674454 380.350432,76.7390062 380.295293,76.7105671 C378.859025,83.2826741 377.172856,90.0929588 375.026013,96.3442367 C375.668998,96.1433853 376.302201,95.9540873 376.923843,95.7781201 C377.083033,95.7319065 377.247559,95.7096885 377.411196,95.7096885 Z M395.015483,112.444344 C398.182387,113.419273 401.421327,113.756987 404.33833,113.341065 C408.539524,112.742954 415.488749,110.040348 414.83776,98.6584716 C414.78351,97.7217575 415.468294,96.9041323 416.400312,96.7921531 C418.536483,96.5353122 420.490341,95.5826011 422.258329,94.1224291 C422.905761,86.8269016 424.231752,81.0413145 426.233634,72.3025008 C426.586698,70.7641212 426.959327,69.1350918 427.353301,67.3905285 C428.247967,63.4286011 430.622478,59.5066663 433.136614,55.3545522 C433.702227,54.421393 434.274067,53.4766804 434.837902,52.5159708 C434.451043,44.2588449 432.479399,37.818269 429.231566,35.9226227 C427.557846,34.9450273 424.440745,34.5308824 421.425916,34.1300683 C418.211878,33.7017038 414.887562,33.2600084 412.31473,32.09667 C411.170163,31.5794331 410.115417,31.0550865 409.184289,30.5920618 C404.66916,28.3471474 402.403148,27.2211353 397.696813,29.9468489 C392.053125,33.2173497 392.224766,38.7727575 392.4053,44.6552154 C392.585834,50.5110116 392.79038,57.148884 385.829594,60.0487873 C385.319118,60.2620809 384.741054,60.2256432 384.263484,59.9528053 C384.073167,59.844381 383.908641,59.7039628 383.772573,59.5404378 C383.640953,60.3856134 383.491545,61.2201243 383.321683,62.0439706 C383.035319,63.4365996 382.745397,64.8727761 382.44925,66.342724 C382.012589,68.5014323 381.55992,70.745458 381.079682,73.0383635 C381.415849,73.2649878 381.74668,73.4613956 382.066838,73.6231432 C387.615368,76.4306193 385.651728,81.3461465 384.074946,85.2956318 C382.751623,88.6087913 381.382944,92.0357074 382.686701,95.4004129 C384.965165,101.27665 388.815074,106.956479 393.250163,110.982394 C393.814888,111.496076 394.405403,111.983096 395.015483,112.444344 Z M404.115997,116.950169 C408.389228,118.149057 412.655344,118.169497 415.878276,116.745763 C419.800221,115.012753 421.789652,111.389429 421.793209,105.977106 C421.794988,103.272722 421.849237,100.847396 421.955957,98.6078143 C420.819393,99.2468062 419.64281,99.722273 418.435099,100.024439 C418.436878,109.389802 413.437954,115.636637 404.839912,116.860408 C404.599793,116.895069 404.358784,116.924396 404.115997,116.950169 Z M429.419214,122.940163 C430.30143,125.156638 432.210821,127.246026 434.613791,129.258095 C433.439875,126.976743 432.011611,125.055324 430.2872,123.645809 L429.952812,123.370305 C429.742041,123.197892 429.5704,123.055697 429.419214,122.940163 Z M560.375724,179.569596 C560.340151,179.758894 560.305467,179.950858 560.273451,180.141044 C560.409519,180.069058 560.546475,179.996183 560.684322,179.923307 C560.581159,179.799775 560.478886,179.681575 560.375724,179.569596 Z M311.116091,183.012509 L317.246243,186.627834 C321.330046,174.615853 326.495275,162.498114 333.247958,149.036626 C347.382079,120.864994 364.359389,107.847868 367.096747,105.871348 C367.708606,104.747113 368.292895,103.567778 368.850505,102.340451 C368.176393,102.6124 367.500502,102.893237 366.825501,103.182961 C337.032946,115.935248 322.890821,149.466768 311.116091,183.012509 Z M528.256682,176.948751 C527.902729,182.325526 529.73297,186.995765 532.246216,191.586909 C531.979417,186.22702 531.419139,179.833546 528.256682,176.948751 Z M361.093769,180.142822 C355.83694,185.870642 352.763415,193.614086 351.051455,201.71924 C351.749579,201.260659 352.502841,200.650995 353.34059,199.874251 C357.92064,195.626155 360.805626,186.914892 361.093769,180.142822 Z M442.913908,239.273121 C443.703633,241.0559 444.626757,242.748028 445.637925,244.392166 C446.878541,227.145607 445.822906,217.159914 442.479914,214.644828 C442.086831,214.347995 441.468746,214.025388 440.3891,214.244903 C440.38821,214.268898 440.386432,214.292894 440.384653,214.316889 C440.580306,215.387801 440.802638,216.48093 441.054318,217.600721 C442.745824,225.153978 443.173592,232.220215 442.913908,239.273121 Z M349.129613,222.646891 C349.155403,228.643105 349.592954,233.94967 350.017164,237.721411 C350.551651,242.472524 351.782484,247.397827 352.973297,252.161383 C353.562923,254.519165 354.159663,256.908053 354.684368,259.314715 C354.725277,258.769039 354.766186,258.226029 354.806206,257.686574 C355.258875,251.668142 355.686643,245.98298 354.921819,241.29941 C353.298792,231.357265 350.961633,224.90247 349.129613,222.646891 Z M538.394155,262.991362 C541.449003,267.604723 543.402861,268.390355 544.114325,268.065082 C546.379449,267.032386 547.751685,257.500831 545.162845,249.566312 C544.375788,247.155206 542.630923,243.196834 539.636549,243.810941 C538.092672,244.127327 537.077946,244.864967 536.442075,246.131397 C534.664305,249.672958 536.07745,256.285947 538.394155,262.991362 Z M559.778094,184.436243 C558.752697,201.038478 567.291154,218.854709 570.27041,224.503433 C577.008863,237.28327 580.550175,249.912025 584.297812,263.281086 C585.453051,267.400317 586.647422,271.660855 587.955626,275.987159 C589.236261,280.226368 590.453754,284.624659 591.412452,289.06383 C590.92332,286.000402 590.516896,282.920977 590.114919,279.874434 C589.257605,273.376091 588.447425,267.236792 586.924893,261.476978 C582.964706,246.507327 578.089399,232.142896 573.023775,217.521625 C572.224268,215.217166 571.342052,211.62317 570.320212,207.460391 C568.513983,200.10443 565.833542,189.182913 562.596381,182.934301 C561.65547,183.431097 560.716338,183.932337 559.778094,184.436243 Z M541.540604,319.562139 C542.585567,320.061602 543.452664,320.659712 544.17391,321.347584 C544.880038,321.25249 545.530139,321.16895 546.117986,321.09963 C549.130146,309.406701 548.426686,296.199388 544.182804,285.524046 C543.863534,284.720641 543.202762,283.31557 542.367681,281.537235 C540.253744,277.035852 537.317176,270.782797 535.127646,264.493304 C534.859957,264.077382 534.589601,263.644574 534.318355,263.193102 C528.061919,252.791488 531.705504,243.6172 535.229029,234.744189 C537.474587,229.088355 539.796628,223.239669 539.598307,216.997278 C539.467576,212.921594 538.151368,209.252945 536.325573,205.669614 C536.008082,206.21529 535.627449,206.793849 535.12142,207.390182 C527.627036,216.2232 526.06893,240.11652 527.375356,253.482914 C528.217551,262.100862 531.246609,270.385538 534.176062,278.397376 C536.911642,285.882202 539.74149,293.621202 540.835365,301.69614 C541.642877,307.652362 541.820743,313.61125 541.540604,319.562139 Z M374.747653,301.150464 C375.383524,301.150464 376.011391,301.16024 376.632143,301.183346 C394.094137,301.809008 410.925597,302.49599 428.086998,303.281622 C439.281884,303.794415 440.661235,306.791189 444.166973,318.166844 C444.990493,320.837457 445.745534,323.540064 446.42854,326.266666 C446.508579,323.89733 446.590398,321.564432 446.671327,319.271527 C446.782493,316.105006 446.890991,313.013139 446.987928,310.011921 C447.240498,302.168052 446.246227,295.067154 445.283972,288.199991 C444.130511,279.966861 442.937919,271.452894 443.929522,261.772034 C443.996222,261.118823 444.100274,260.211436 444.229227,259.098755 C444.593852,255.938456 444.906896,252.943459 445.16747,250.111099 C444.234563,248.784235 443.328335,247.428933 442.474579,246.02475 C441.990783,251.380195 441.220623,256.812959 440.409554,262.531004 L440.02981,265.208726 C437.540576,282.893426 431.88088,294.263749 411.38627,296.311367 C410.168777,296.433122 408.846343,296.577095 407.439423,296.730844 C392.845518,298.326991 370.790134,300.736319 360.850093,290.34448 C358.131411,287.503233 356.466585,284.096757 355.487433,280.38545 C354.822214,283.881686 353.852844,287.301492 352.900372,290.660866 C351.93367,294.069118 351.014103,297.313846 350.415584,300.555908 C355.339804,302.076513 361.513533,301.741465 367.500502,301.417969 C370.021753,301.281106 372.433616,301.150464 374.747653,301.150464 Z M530.181192,321.303148 C523.866949,321.303148 515.644204,322.167875 510.2602,323.511624 C507.437467,324.216382 504.954457,325.370833 502.764927,326.890549 C514.786001,325.719212 526.668339,323.937323 535.528733,322.608682 C536.314901,322.490482 537.077057,322.375836 537.812533,322.265635 C537.818758,322.177651 537.825873,322.08789 537.831209,321.999018 C536.976563,321.787502 536.003636,321.626643 534.893752,321.511109 C533.537524,321.369802 531.932283,321.303148 530.181192,321.303148 Z M537.204231,199.299247 C537.224686,199.299247 537.24514,199.299247 537.265595,199.299247 C537.74939,199.316133 538.203838,199.528538 538.528443,199.888471 C548.712161,211.218801 552.992507,225.293508 557.133227,238.90519 C559.629576,247.115214 562.211301,255.604296 566.062989,263.355739 C567.76072,266.77199 569.740369,270.253118 571.655986,273.62049 C575.748682,280.817369 579.981004,288.258647 582.191878,296.188723 C583.099884,299.442338 582.882888,305.425222 582.652551,311.760039 C582.500476,315.943259 582.221226,323.620937 582.900674,327.37046 C583.139904,327.05052 583.389806,326.766128 583.642376,326.50751 C584.541488,325.365501 585.342774,324.229713 585.965305,323.06904 C593.016803,309.942601 589.206913,292.422315 584.550381,277.014523 C583.231505,272.654448 582.032688,268.377024 580.873002,264.240018 C577.176946,251.057589 573.685437,238.606579 567.123071,226.160901 C564.152709,220.528175 555.89528,203.287836 556.154075,186.395877 C555.375911,186.819798 554.602194,187.241053 553.833813,187.658753 C547.893088,190.893705 541.756711,194.236192 535.557192,197.197417 C535.988517,197.906618 536.420731,198.617597 536.849388,199.334796 C536.965891,199.310801 537.085061,199.299247 537.204231,199.299247 Z M448.840403,249.140613 C449.624792,250.230188 450.430525,251.31443 451.243372,252.409337 C455.056819,257.544379 458.999219,262.85361 461.427979,269.579466 C464.4935,278.069437 462.797548,287.531672 461.255449,293.910926 C460.668492,296.340695 459.486572,299.399679 458.236174,302.639075 C455.910576,308.659285 453.274602,315.4829 453.933596,319.510593 C454.930534,325.605456 465.691427,328.556905 485.042359,328.055665 C488.830015,327.957017 492.760854,327.733059 496.728155,327.422895 C500.083597,323.949765 504.227875,321.352916 509.399329,320.06249 C516.599344,318.265492 528.688896,317.290563 535.261934,317.975769 C536.26332,318.079749 537.181998,318.222834 538.025972,318.405022 C538.234075,312.980256 538.040201,307.564378 537.310061,302.172495 C536.267767,294.479709 533.628235,287.260611 530.83396,279.617593 C527.828914,271.396905 524.720706,262.896269 523.834933,253.828627 C522.729496,242.525848 523.371592,215.741512 532.408074,205.091944 C532.995922,204.397851 533.359658,203.707314 533.743848,202.976783 C533.911931,202.657732 534.08624,202.324461 534.28545,201.983191 C533.664698,200.926499 533.018155,199.866253 532.366276,198.797119 C527.854705,191.395833 523.18928,183.743928 525.08711,173.737795 C525.184047,173.229445 525.496202,172.788639 525.943535,172.53002 C526.390868,172.270513 526.928912,172.219856 527.418044,172.389602 C535.058278,175.040663 535.528733,185.396064 535.872015,192.95732 C535.873793,193.002644 535.876461,193.047081 535.87824,193.091517 C541.369853,190.397797 546.82945,187.425019 552.131635,184.537557 C553.539444,183.770589 554.96504,182.994734 556.400419,182.21799 C556.604965,180.281463 556.937574,178.361821 557.420481,176.479505 C557.440046,176.124016 557.565441,175.792523 557.767319,175.520573 C557.809118,175.461918 557.853584,175.405039 557.902497,175.351716 C558.396076,174.801596 559.20003,174.610521 559.886593,174.877138 C560.058233,174.942903 560.213866,175.033553 560.351712,175.141977 C560.971575,175.442366 561.568316,175.852956 562.141044,176.36486 C557.929177,147.549793 532.801158,133.168476 517.774149,127.059394 C517.237883,126.841657 516.842131,126.376855 516.7114,125.813404 C516.581558,125.250843 516.732744,124.658953 517.117824,124.227922 C522.467144,118.250371 523.068331,109.835941 522.63078,103.829951 C521.315461,85.7835407 507.891025,55.8833424 489.017664,48.1816685 C479.59877,44.3379413 470.071378,46.5757459 460.703175,54.8328718 C448.845739,65.2842548 444.005115,81.4447948 445.471621,105.691826 C446.53437,123.257437 450.595051,135.393839 467.088565,141.024788 C467.381154,139.042047 468.073942,137.405908 468.706256,135.913742 C469.78946,133.358663 470.57207,131.512785 469.278095,128.564002 C468.436789,126.645249 465.341921,123.844883 462.610788,121.375121 C460.473728,119.44126 458.454949,117.614934 457.281034,116.043672 C450.828944,107.401729 449.993864,96.0678439 454.868281,83.266677 C455.110179,82.6312401 455.69358,82.1895447 456.37036,82.1282228 C460.9095,81.7185215 465.204964,81.7451832 469.359914,81.76829 C476.126826,81.8091712 482.521998,81.8464976 489.237328,80.0299477 C490.134662,79.7873263 491.073795,80.2796789 491.380614,81.1604034 C492.236149,83.6106129 493.154827,86.0999261 494.042378,88.5083656 C500.006225,104.683125 506.157721,121.364457 498.361854,138.996722 C504.004653,136.111927 509.062273,131.671867 513.441334,125.749416 C513.789062,125.278393 514.352007,125.014442 514.930961,125.028662 C515.51703,125.049103 516.054185,125.354823 516.369897,125.848065 C523.902522,137.622756 512.495976,146.086066 504.1674,152.265357 C502.584393,153.43936 501.08854,154.549375 499.742094,155.642505 C495.270543,159.273827 490.921719,163.064231 486.716078,166.729325 C480.999465,171.712395 475.088088,176.864323 468.943707,181.535451 C468.535505,181.845615 468.011689,181.966482 467.510997,181.861612 C467.008525,181.759409 466.574532,181.44569 466.321073,181.00044 C463.27156,175.648549 461.292801,169.841633 459.380742,164.226681 C457.371745,158.330003 455.474804,152.760376 452.468869,147.840405 C450.520347,144.651667 445.982985,141.535804 441.466078,138.516812 C444.176756,151.649472 442.783176,166.770206 442.314499,170.928541 C441.907186,174.545644 441.442956,177.897019 440.994733,181.137303 C439.559355,191.508701 438.373878,200.072436 439.814592,210.736224 C442.011238,210.330078 443.602249,211.03839 444.618753,211.804469 C450.444754,216.186763 450.322026,232.613031 448.840403,249.140613 Z M589.287842,324.397681 C589.298514,324.425232 589.309186,324.453671 589.319858,324.482999 C590.173615,326.910101 590.217192,329.095471 589.955729,331.162641 C593.672239,328.83863 597.818296,327.501102 602.019491,327.254037 C602.682931,322.47093 600.418697,317.218576 596.864934,308.972115 L596.398036,307.887873 C594.701194,303.945498 593.507713,299.76139 592.592593,295.475967 C594.112458,305.658067 593.787842,315.764626 589.287842,324.397681 Z M588.409184,340.235615 C589.520847,340.47557 591.080732,340.744853 591.939824,340.847945 C596.579459,337.02377 599.416422,333.938123 600.883816,330.926241 C596.702187,331.445255 592.628166,333.22359 589.165115,336.11905 C589.082407,336.187481 589.001478,336.256802 588.920549,336.326122 C588.647525,337.617437 588.433196,338.894532 588.409184,340.235615 Z M319.333501,191.64823 C319.037354,192.568948 318.747432,193.491442 318.463736,194.413937 C317.143081,198.707358 315.641002,203.077209 314.188726,207.303976 C309.967966,219.587906 305.603135,232.290424 304.808074,245.395534 C303.994337,258.810809 306.062918,270.98276 308.251559,283.870133 C308.88832,287.613434 309.545535,291.484712 310.120042,295.355101 C312.571925,311.896014 314.187837,327.470886 315.359974,345.855899 C315.828651,353.217192 319.536268,358.962787 325.532131,361.61918 C331.789456,364.391996 339.354097,363.18511 345.276146,358.4731 C345.952926,357.934534 346.953422,356.740979 347.920124,355.586528 C348.513307,354.878216 349.118051,354.15835 349.715681,353.500695 C349.726353,353.482032 349.737025,353.461591 349.749476,353.442928 C350.545426,352.130284 352.964404,348.137251 356.31362,349.056191 C356.974393,349.237491 357.565797,349.605422 358.094948,350.115549 C358.248803,350.070224 358.361747,350.017789 358.407103,349.955579 C358.422222,349.936027 358.758389,349.448118 358.288822,347.388058 C357.790798,345.201799 353.329918,343.63498 349.393744,342.253016 C345.778617,340.982142 342.040763,339.669498 339.884138,337.529453 C330.467023,328.180975 331.463072,311.783146 332.340841,297.316512 C332.577403,293.430127 332.800625,289.7597 332.800625,286.466093 C332.800625,282.307758 332.532047,277.404673 332.248351,272.213641 C331.524436,258.971668 330.703585,243.963802 333.940746,234.213621 C334.671775,232.012254 340.100245,221.244486 345.630099,218.728511 C345.740376,214.731923 346.049863,210.522931 346.663501,206.303274 C343.884344,205.823363 341.398667,203.795297 338.611507,201.520166 C337.908047,200.946051 337.165456,200.339053 336.370395,199.716058 C330.408327,195.040486 326.812766,193.939359 320.285973,191.94062 L319.333501,191.64823 Z M401.20522,381.019116 C400.347017,383.344904 399.499485,387.56545 399.17399,395.212023 C400.436839,390.309826 401.244351,385.528496 401.20522,381.019116 Z M602.653583,342.327669 C604.739062,354.62493 605.45853,366.854648 604.852896,379.641595 C604.788864,380.971125 604.552302,382.542387 604.301511,384.204299 C603.657636,388.467503 602.85635,393.772291 604.924042,396.185174 C606.182444,397.652456 607.398158,398.374988 608.261698,398.17858 C609.36002,397.921739 610.430774,396.228722 611.056862,393.762515 C611.543325,391.84554 611.01951,387.762746 610.558837,384.159863 C610.235121,381.634112 609.929192,379.247891 609.929192,377.439339 C609.928302,375.565022 609.961207,373.680041 609.994113,371.792393 C610.056366,368.151295 610.123065,364.383997 609.93186,360.748231 C609.845595,359.109426 609.783341,357.417297 609.721088,355.693175 C608.635216,349.945803 607.030865,345.012501 604.436689,343.098192 C603.877301,342.685824 603.292122,342.430761 602.653583,342.327669 Z M575.812714,401.264227 C577.535346,401.952098 579.598592,402.224936 581.443062,402.02053 C581.4733,393.574106 580.406104,385.277876 579.373592,377.240265 C578.371317,369.439943 577.334358,361.374781 577.332579,353.311397 C577.330801,346.238939 580.35808,339.447317 585.691392,334.446473 C585.715404,334.339826 585.740305,334.234068 585.764317,334.126533 C586.19831,332.211334 586.594062,330.464994 586.530919,328.661774 C586.45088,328.73465 586.372619,328.807525 586.297026,328.882178 C586.048902,329.195008 585.796333,329.505173 585.540206,329.814448 C585.276075,330.2517 585.070639,330.78049 584.930125,331.487914 C584.83141,331.990931 584.519255,332.427294 584.07459,332.683246 C583.723305,332.887653 583.316881,332.964971 582.916682,332.901872 C580.856994,335.330752 578.877345,337.840506 577.924873,340.505787 C575.687319,346.765952 574.99542,356.287731 574.644135,363.884535 C574.148778,374.567875 574.83623,385.561379 575.500559,396.194062 C575.60639,397.887968 575.71222,399.57743 575.812714,401.264227 Z M669.899381,400.154212 C662.602429,400.154212 654.867036,402.151172 648.494987,404.767573 C654.032845,404.42186 659.870407,404.504511 665.548779,404.583607 C672.054228,404.67248 678.7411,404.768462 684.985975,404.221897 C680.740314,401.308663 675.446132,400.154212 669.899381,400.154212 Z M297.581378,425.205537 C299.611719,425.322848 301.65451,425.449936 303.700858,425.588577 C303.860937,424.25016 304.015681,422.91352 304.168645,421.585768 C304.828528,415.857948 305.511534,409.935497 306.647208,404.359649 C307.501854,400.161321 307.986539,395.494637 308.498793,390.555114 C309.57755,380.165053 310.690992,369.438165 315.411555,361.149046 C314.626277,360.409628 313.714714,359.842623 312.889415,360.063915 C310.53358,360.70024 306.935351,366.075237 303.168149,388.064023 C303.000066,389.043396 302.863998,389.837026 302.758168,390.386257 C301.870617,395.011171 301.343244,399.797834 300.785634,404.865332 C300.040376,411.640957 299.27733,418.573885 297.581378,425.205537 Z M351.272898,426.795462 C352.864799,426.79724 354.48249,427.014088 356.104628,427.414902 C355.988126,426.1778 355.913422,424.914924 355.894746,423.620944 C355.811149,417.685162 356.399885,411.752936 356.969946,406.017118 C357.355915,402.136064 357.754335,398.123479 357.941984,394.140223 C358.046035,391.921081 358.166984,389.678833 358.287933,387.419699 C358.667677,380.36146 359.059871,373.062378 358.986057,365.867276 C358.939812,361.358784 357.62805,356.30906 356.459471,353.90062 C355.315792,353.993048 354.251264,354.105915 353.572705,354.675587 C353.546025,354.698694 353.518456,354.7218 353.490887,354.745796 C361.182702,369.764327 357.824592,387.247287 354.572312,404.168574 C353.047111,412.110203 351.598393,419.647463 351.272898,426.795462 Z M307.253731,425.837419 C312.19307,426.197352 317.11818,426.613274 321.892103,427.07541 C324.070961,427.286038 326.831442,427.321586 329.754669,427.358024 C335.851916,427.435343 342.598373,427.519772 347.714689,429.137248 C347.67289,428.980832 347.652436,428.817307 347.655104,428.652894 C347.787614,420.630391 349.460443,411.920905 351.079024,403.497588 C354.126758,387.639214 357.271429,371.269824 350.906494,357.560382 C350.820229,357.663474 350.733964,357.765677 350.647699,357.86788 C349.517361,359.21785 348.450165,360.491391 347.492356,361.253915 C340.529792,366.794214 331.560899,368.180622 324.090527,364.868352 C322.270068,364.06228 320.624808,363.026917 319.172532,361.788926 C319.159192,361.814699 319.144963,361.838695 319.128955,361.861801 C314.25098,369.596358 313.125977,380.437002 312.037437,390.921268 C311.515401,395.950552 311.022712,400.700776 310.133382,405.067961 C309.027945,410.494504 308.353832,416.339636 307.702843,421.991914 C307.555214,423.268121 307.407585,424.551437 307.253731,425.837419 Z M295.117045,432.800564 C297.468433,433.570198 299.946107,433.987009 302.520717,434.203858 C302.791963,432.521505 303.03475,430.824044 303.258861,429.121251 C301.025753,428.971945 298.795314,428.834193 296.58355,428.708883 C296.147778,430.091736 295.661315,431.456815 295.117045,432.800564 Z M350.683272,430.363685 C350.87181,430.464111 351.055902,430.568092 351.236435,430.675627 C354.305513,432.515284 356.426565,435.185008 357.829928,438.37819 C357.702754,437.660102 357.571133,436.93757 357.437734,436.210594 C357.142476,434.590452 356.841882,432.948981 356.585755,431.267517 C354.571423,430.615194 352.58377,430.282812 350.683272,430.363685 Z M304.447895,442.73471 C309.932393,443.067981 315.391101,444.117563 320.690618,445.138706 C324.306634,445.834576 328.045377,446.553553 331.6525,447.008579 C334.702012,447.394285 337.873363,447.540925 341.019812,447.622687 C339.542635,438.733679 334.644206,438.519497 324.474717,438.079579 C323.640526,438.043141 322.780544,438.005815 321.894771,437.962268 C319.013342,437.819183 316.014521,437.86984 313.112637,437.919609 C310.584272,437.962268 308.02478,438.006704 305.482186,437.923164 C305.176256,439.547749 304.834754,441.153672 304.447895,442.73471 Z M344.629603,447.69734 C348.572892,447.771104 352.608672,447.849312 356.53951,448.284786 C356.052157,441.942858 354.07073,436.51987 349.407084,433.725725 C345.036027,431.106658 336.537589,430.998234 329.709314,430.912916 C326.709604,430.874701 323.876198,430.839152 321.549711,430.613417 C316.744661,430.148615 311.785757,429.730915 306.814402,429.369204 C306.594738,431.047114 306.359065,432.723245 306.094045,434.388712 C308.358279,434.444702 310.682098,434.405598 313.052163,434.365605 C316.011853,434.316726 319.072927,434.263402 322.069969,434.41093 C322.948627,434.455366 323.801494,434.491804 324.628571,434.527353 C335.160906,434.984157 342.835824,435.31565 344.629603,447.69734 Z M541.127955,325.368167 C539.75483,339.934338 535.960058,354.407193 532.246216,368.566328 C529.035735,380.813821 525.714088,393.478124 524.008353,406.001121 C521.549355,424.074192 521.817043,442.284128 523.291553,460.375863 C526.415769,436.231924 530.506687,411.564527 536.470534,387.50235 C537.229132,384.444254 538.067771,381.306173 538.878839,378.272073 C542.505527,364.711936 546.255832,350.688775 544.87826,336.677168 L544.707508,334.882836 C544.288634,330.415225 543.993376,327.273589 542.681615,325.144209 C542.184479,325.214418 541.666889,325.289959 541.127955,325.368167 Z M498.32717,330.874695 C489.639306,340.7333 487.055802,357.802115 484.866271,372.266971 C484.340677,375.740101 483.844431,379.022155 483.289489,381.991379 C479.10697,404.379201 476.446984,427.98013 474.919115,456.26463 C473.799449,476.99054 475.594117,496.66598 480.107467,513.163346 C482.98356,523.670719 488.046516,533.669742 492.943166,543.339048 C498.072822,553.468714 503.377675,563.944092 506.355152,575.250427 C507.005252,577.716633 507.250707,581.313296 507.510392,585.121474 C507.796756,589.3278 508.134701,594.287763 509.114743,597.65869 C514.337778,579.269233 515.2111,554.656048 515.791833,538.269772 C515.999936,532.402423 516.179581,527.335812 516.507743,523.874236 C517.947569,508.715287 519.454983,492.833806 521.318129,476.58706 C518.643025,453.103442 517.253891,429.257225 520.484827,405.522099 C522.219021,392.78492 525.566459,380.014859 528.805399,367.665163 C532.403628,353.945057 536.080118,339.927228 537.495931,325.907622 C537.026365,325.977831 536.546127,326.049817 536.056106,326.123581 C525.558455,327.698399 511.767615,329.766457 498.32717,330.874695 Z M399.093951,407.530613 C399.397212,421.830167 400.805911,438.743455 401.952257,452.519551 C402.952753,464.531532 403.742478,474.019539 403.534375,478.232086 C402.626369,496.633986 400.363914,515.015445 398.175273,532.790795 C396.156494,549.188624 394.069236,566.144571 393.035835,583.150286 C392.924668,584.974835 392.690775,586.604753 392.48445,588.042707 C391.810338,592.739608 391.50263,594.882319 395.41746,597.54049 C395.621117,597.679131 395.843449,597.815105 396.08179,597.945748 C400.459961,591.906874 410.849114,589.761497 420.074135,587.856075 C423.962285,587.053558 427.635218,586.295477 430.323663,585.338322 C447.547317,579.199912 447.963523,568.85251 447.221822,549.569886 C446.9986,543.752305 446.484567,537.871624 445.986543,532.184685 C445.010058,521.01788 444.000669,509.470702 445.15413,497.922634 C445.725969,492.209923 446.542374,486.312356 447.333878,480.609421 C448.838624,469.751002 450.394062,458.523764 450.394062,447.723113 C450.394062,444.34241 450.400287,440.935935 450.405623,437.50813 C450.419853,429.365649 450.434082,421.151182 450.372718,412.928717 C445.878934,391.493605 445.468063,365.916156 445.975871,342.1597 C445.969645,342.118819 445.96342,342.077049 445.957195,342.036168 C444.801066,334.313164 443.055311,326.634597 440.767954,319.21376 C437.445417,308.436215 436.783756,307.239105 427.923361,306.832959 C410.774411,306.047328 393.955402,305.361234 376.504969,304.735573 C373.783619,304.638702 370.823929,304.797783 367.692598,304.967529 C360.762049,305.34257 353.595828,305.730054 347.748483,303.38027 C346.981881,303.071883 346.529212,302.277365 346.653718,301.461517 C347.259352,297.516475 348.387022,293.538551 349.477341,289.691269 C351.242661,283.465764 353.068455,277.027854 352.74385,270.532177 C352.456596,264.76081 350.964301,258.793923 349.522697,253.023444 C348.303425,248.147021 347.043245,243.104406 346.482077,238.119559 C346.051642,234.291829 345.613202,228.944382 345.584743,222.882402 C342.513887,225.518355 338.397178,232.078908 337.317532,235.333412 C334.29292,244.442823 335.094207,259.093423 335.800335,272.0199 C336.086699,277.260699 336.357945,282.209998 336.357945,286.466093 C336.357945,289.867236 336.131166,293.590097 335.891936,297.531583 C335.059523,311.246358 334.115054,326.791901 342.391159,335.007257 C343.977724,336.582074 347.330498,337.759632 350.572995,338.898975 C355.611939,340.669312 360.822524,342.498304 361.758099,346.598872 C362.328159,349.101516 362.174305,350.837192 361.273414,352.061852 C360.923907,352.537319 360.507701,352.880366 360.052364,353.130986 C362.236558,358.102503 362.541598,365.724192 362.543377,365.830839 C362.618081,373.139697 362.223218,380.495658 361.839917,387.610774 C361.719857,389.86191 361.598909,392.09616 361.494857,394.306414 C361.303651,398.382987 360.899895,402.442673 360.510369,406.368163 C359.9243,412.264841 359.370248,417.836245 359.452066,423.570286 C359.476078,425.313961 359.610367,426.989204 359.812245,428.638674 C368.886079,432.357091 377.661098,441.103015 382.761405,449.298819 C382.766741,449.277489 382.772967,449.255271 382.779192,449.233942 C384.445796,443.315935 386.169318,437.196188 387.66606,430.769832 C388.908454,425.437494 391.013498,419.589696 393.24127,413.397962 C394.006094,411.273026 394.774475,409.136535 395.517065,406.999156 C395.141768,388.6648 396.682088,376.571057 402.115005,374.834492 C402.61214,374.674522 403.15641,374.743842 403.600186,375.021124 C404.043961,375.299294 404.342776,375.756986 404.416591,376.275112 C405.802167,385.916868 402.70463,397.033905 399.093951,407.530613 Z M399.552845,599.299273 C403.320936,600.371961 408.760078,601.031394 415.453176,601.200251 C423.170782,601.387772 430.669612,598.284351 437.917652,595.275135 C440.65412,594.140235 443.261636,593.057771 445.854922,592.154828 C445.868262,591.294544 445.977649,590.425373 446.084369,589.574865 C446.246227,588.296881 446.412532,586.974461 446.158183,586.067075 C445.962531,585.368539 446.211543,584.621123 446.78694,584.178539 C447.362336,583.736843 448.149393,583.688852 448.774592,584.056784 C452.22875,586.091959 455.225792,588.351982 458.124118,590.537352 C458.567005,590.870623 459.004555,591.201228 459.441216,591.528278 C460.214044,585.947986 461.774818,579.89756 463.255553,574.160853 C464.580654,569.026699 465.831942,564.176938 466.122752,560.861112 C467.738665,542.452992 469.264755,525.065125 469.264755,506.466818 C469.264755,481.414604 463.606838,461.496543 457.6172,440.408922 C456.41038,436.161715 455.179547,431.830079 453.975394,427.385575 C453.974505,430.770721 453.969169,434.147868 453.962943,437.513462 C453.957607,440.93949 453.951382,444.345077 453.951382,447.723113 C453.951382,458.769052 452.378157,470.119822 450.857403,481.09733 C450.071235,486.766494 449.258388,492.630289 448.694552,498.277235 C447.573997,509.49292 448.568268,520.871241 449.530523,531.874521 C450.031215,537.605007 450.549695,543.529235 450.776474,549.433022 C451.463037,567.285691 452.004639,581.386171 431.518033,588.686142 C428.597473,589.726837 424.807149,590.509802 420.793603,591.338092 C412.639336,593.022222 403.500581,594.90987 399.552845,599.299273 Z M511.643108,601.752148 C511.995283,601.999213 512.365244,602.14763 512.701411,602.080976 C515.947465,601.406435 519.285121,589.00075 520.380776,584.924177 C520.628009,584.007015 520.844116,583.201832 521.030876,582.556619 C527.666167,559.584906 529.271408,536.48966 525.942645,511.951128 C525.636716,509.695549 525.32545,507.427527 525.012406,505.148841 C524.411219,500.759438 523.805585,496.347817 523.221296,491.921088 C522.068724,502.948363 521.042437,513.752569 520.049055,524.211062 C519.730675,527.56688 519.552809,532.584611 519.346485,538.395082 C518.68927,556.935622 517.769703,582.899666 511.643108,601.752148 Z M462.511183,598.073724 C462.516519,600.411954 462.795769,602.512007 463.455652,604.239684 C464.143104,602.855054 464.321859,601.128265 464.000811,599.019325 C463.49745,598.710049 463.001204,598.395441 462.511183,598.073724 Z M426.327014,603.296749 C429.091941,603.326966 430.616252,604.478751 431.85331,605.413687 C432.691059,606.047347 433.352721,606.547698 434.390569,606.771656 C447.003047,609.498258 456.219174,609.544472 460.776101,606.954733 C459.177974,603.931297 458.756432,600.014695 459.021452,595.642177 C457.98983,594.889429 456.979551,594.126905 455.981722,593.375045 C453.984287,591.869548 451.939718,590.327614 449.750187,588.869219 C449.711057,589.254036 449.662144,589.637964 449.61412,590.019227 C449.46827,591.179899 449.329534,592.276583 449.46827,593.118204 C449.610562,593.986486 449.097419,594.827218 448.25967,595.098279 C445.368458,596.032327 442.411436,597.259653 439.281884,598.558078 C435.064681,600.308862 430.766549,602.093418 426.327014,603.296749 Z M229.324412,605.27949 C231.546847,605.27949 233.765726,605.312373 235.972153,605.395913 C240.851907,605.580767 245.826819,605.727407 250.637205,605.869602 C262.605808,606.223314 274.980835,606.590357 286.387381,607.553732 C287.308727,607.631051 288.510212,607.751029 289.89312,607.88967 C296.027719,608.499334 307.446716,609.636011 310.578047,608.475338 C315.927367,606.489042 317.251579,598.791812 318.41838,592.00019 C318.664724,590.571124 318.89595,589.222042 319.16186,587.949391 C320.187257,583.025865 321.256232,578.075678 322.329653,573.107716 C326.574425,553.455383 330.964158,533.132064 332.807739,513.4113 C333.548551,505.485667 335.297863,497.193881 336.98848,489.174933 C339.653802,476.536403 342.404499,463.490837 341.428015,451.189133 C338.027217,451.10737 334.577506,450.960731 331.206945,450.535921 C327.485099,450.066676 323.689439,449.335256 320.017395,448.628722 C314.143371,447.498266 308.067468,446.327818 302.13119,446.194509 C301.582474,446.181178 301.071109,445.917228 300.743836,445.476421 C300.416562,445.037392 300.310732,444.471275 300.457471,443.943374 C301.01686,441.922417 301.489983,439.836584 301.900854,437.70987 C298.505392,437.401483 295.186412,436.754493 292.066643,435.459623 C291.622867,435.275658 291.272471,434.920169 291.095494,434.473141 C290.917628,434.026113 290.92919,433.526651 291.126621,433.08851 C291.797176,431.600788 292.385912,430.072184 292.90617,428.514253 C292.770992,428.507143 292.636703,428.500033 292.502415,428.493812 L289.207447,428.32851 C272.914921,427.502886 254.447984,426.567061 239.423643,429.763797 C212.684158,435.454291 204.595702,479.21768 199.242824,508.176721 C198.362388,512.939388 197.530864,517.437215 196.704677,521.292496 C190.274821,551.28601 186.844675,578.747552 186.229259,605.182619 C195.647263,606.21887 205.507265,605.89893 215.060448,605.587877 C219.745438,605.435905 224.540706,605.27949 229.324412,605.27949 Z M398.054324,607.620387 C405.191197,609.268079 411.396942,609.890185 418.094486,607.856787 C419.102986,607.551955 419.612572,606.97073 420.3187,606.168213 C420.892318,605.516779 421.583328,604.730259 422.624733,604.14548 C420.251111,604.58362 417.833912,604.815577 415.362464,604.753366 C409.805041,604.612948 402.893168,604.076159 397.799086,602.472903 C397.407781,603.981954 397.493157,605.684748 398.054324,607.620387 Z M465.62117,607.439976 C465.686981,607.496854 465.755459,607.551955 465.823938,607.606167 C471.762883,612.271074 498.537052,612.711881 504.056234,609.98439 C504.177183,609.925734 504.301689,609.880409 504.428863,609.850193 C505.584103,607.649714 506.618394,605.219946 507.540629,602.618653 C504.895762,599.086868 504.420859,592.112169 503.960186,585.363207 C503.712953,581.728329 503.479059,578.295192 502.916113,576.154258 C500.032905,565.213189 494.815206,554.909334 489.769148,544.944082 C484.792457,535.117471 479.646794,524.954923 476.676432,514.10006 C472.062587,497.240984 470.22701,477.174506 471.367131,456.073555 C472.903894,427.629973 475.580777,403.883293 479.792644,381.339056 C480.336024,378.429377 480.827824,375.177539 481.349861,371.734626 C483.339292,358.587746 485.821412,342.181918 493.591488,331.224852 C471.867824,332.630812 452.211853,331.023112 450.42341,320.084708 C449.608784,315.104304 452.428849,307.801667 454.917194,301.358425 C456.124905,298.231897 457.265915,295.279559 457.797734,293.076415 C459.232224,287.142411 460.822346,278.376047 458.081431,270.785463 C455.830536,264.55196 452.046437,259.456022 448.386844,254.528052 C448.3655,254.499613 448.344156,254.470285 448.321923,254.440958 C448.144057,256.147306 447.955519,257.839435 447.763424,259.506679 C447.63625,260.599808 447.533977,261.491198 447.468166,262.133744 C446.52103,271.38624 447.631803,279.31365 448.806608,287.707639 C449.790207,294.723219 450.805822,301.976976 450.54347,310.126567 C450.446533,313.13045 450.338034,316.225873 450.226868,319.396837 C449.974298,326.570609 449.707499,334.156749 449.538527,341.936631 C452.901083,364.620398 453.740611,388.631917 453.92737,412.546566 C454.239525,414.018291 454.572134,415.471353 454.925198,416.899531 C456.86127,424.731848 458.98499,432.208675 461.039342,439.439325 C467.098347,460.770456 472.822075,480.919585 472.822075,506.466818 C472.822075,525.220652 471.28976,542.683171 469.665843,561.171276 C469.350131,564.780381 468.062381,569.767894 466.699928,575.048687 C465.125814,581.149771 463.361383,587.988494 462.74152,593.93494 C463.965238,594.791669 465.2103,595.611961 466.517615,596.384261 C466.953387,596.641991 467.257538,597.072133 467.356253,597.567151 C468.167322,601.638392 467.583032,604.953329 465.62117,607.439976 Z M475.023167,619.720351 C474.06358,619.720351 473.06842,620.388671 471.603693,622.002592 C469.822365,623.967558 467.888962,626.932339 468.796078,629.902451 C469.61693,632.593504 472.58996,634.812646 476.747578,635.840898 C483.635439,637.541914 499.331224,631.105782 504.305247,623.068171 C505.943392,620.421553 506.256437,617.919798 505.238154,615.488252 C501.434489,621.072099 496.552068,624.827842 490.262726,625.791218 C484.671508,626.655057 481.205789,623.852913 478.677424,621.811516 C477.109535,620.545086 476.088584,619.720351 475.023167,619.720351 Z M671.059957,416.594699 C664.805299,416.594699 657.664868,419.5106 649.732934,425.316627 C638.919571,433.233372 638.875104,447.963957 638.832416,462.211076 C638.822634,465.232734 638.813741,468.086424 638.701685,470.876126 C637.464627,501.751253 637.209389,615.814413 650.287876,631.467492 C651.356851,632.747253 653.035906,634.186096 654.814566,635.710256 C656.260616,636.950025 657.86141,638.322213 659.286117,639.789495 C676.208288,633.511555 695.043408,624.838507 698.376617,619.747013 C713.046115,597.346748 709.597294,520.729934 704.490761,484.688659 C704.338685,483.615082 704.170602,482.320212 703.980285,480.844043 C701.857455,464.440882 696.885211,426.026717 678.217285,418.030876 C675.98062,417.072832 673.593658,416.594699 671.059957,416.594699 Z M602.176013,642.45122 C607.99312,642.45122 613.60835,643.752311 619.096405,645.024074 C623.326059,646.003446 627.699784,647.016591 632.040603,647.3863 C632.282501,647.406054 632.559083,647.412072 632.869459,647.398742 C629.696329,644.058032 626.068752,640.017008 624.655607,635.525402 C619.87368,620.320239 616.427526,527.857493 614.771593,483.422229 C614.51013,476.404872 614.295802,470.642392 614.129497,466.654691 C613.02406,440.040991 619.200457,421.334259 632.962838,409.829739 C622.31489,410.861547 611.383246,411.73605 600.159902,411.73605 C597.933909,411.73605 595.786177,411.69428 593.709591,411.653399 C577.671414,411.340569 567.998172,411.151271 567.29649,429.955762 C566.888288,440.870169 567.027913,452.588872 567.162201,463.922757 C567.233348,469.990069 567.308051,476.263565 567.29738,482.343319 C567.278704,493.642544 567.025245,505.404794 566.7789,516.77956 C566.518326,528.883968 566.248859,541.399855 566.248859,553.676675 C566.248859,555.222164 566.238187,557.108923 566.224848,559.273853 C566.103899,580.428127 565.824649,629.320337 574.144331,643.297285 C579.547011,642.572975 586.160069,643.939832 592.758897,645.522647 C592.758008,645.516426 592.756229,645.511094 592.75534,645.504873 C592.545458,644.561049 593.129748,643.622557 594.070659,643.393267 C596.818689,642.72317 599.518695,642.45122 602.176013,642.45122 Z M592.905637,649.215292 C593.093285,649.354821 593.280045,649.494351 593.463247,649.632991 C593.451685,649.537009 593.441013,649.43925 593.428563,649.342379 C593.254254,649.29972 593.079056,649.257062 592.905637,649.215292 Z M642.784599,648.935344 C648.394493,651.075389 655.662987,653.377182 658.92416,649.521901 C660.359538,647.82444 659.90598,646.029219 658.252716,643.939832 C652.625035,645.968786 647.26949,647.700019 642.784599,648.935344 Z M596.673728,646.47447 C601.076801,647.548936 605.236197,648.522976 608.97583,648.905127 C615.913493,649.612551 622.044534,650.410624 627.973697,651.182924 C632.548411,651.778369 636.869665,652.340931 641.532422,652.866166 C642.254558,652.94704 642.972248,653.010139 643.683712,653.056353 C642.218985,652.539116 640.822737,651.991662 639.549216,651.4922 C638.483799,651.073611 637.520655,650.695904 636.697135,650.40618 C634.533395,650.831879 632.830328,651.023843 631.738231,650.92875 C627.143952,650.536823 622.645721,649.494351 618.29334,648.486539 C610.943028,646.783745 603.969791,645.167158 596.673728,646.47447 Z M383.626723,459.503137 C381.300236,468.198403 379.313473,476.911444 378.33521,486.708727 C375.271468,517.368783 370.803474,557.371097 363.379347,594.880542 C361.670944,603.514486 359.291987,611.843599 356.992179,619.898984 C354.717273,627.864609 352.568652,635.389427 351.019439,643.162199 C348.977537,653.412731 350.61924,654.487197 350.636138,654.496973 C350.645031,654.503194 351.755804,654.822245 355.184171,651.789922 C358.976274,648.434993 360.018569,640.283625 360.780725,634.330069 C360.985271,632.732145 361.178256,631.222205 361.404145,629.943332 C364.15929,614.310694 367.606333,598.151931 370.940431,582.525514 C375.912675,559.217863 381.053892,535.117471 384.28127,511.241038 L384.48048,509.764869 C386.756276,492.976002 389.104996,475.645902 383.626723,459.503137 Z M584.490796,649.067764 C582.903342,649.067764 581.380809,649.921826 579.711537,651.996106 C577.705208,654.488085 578.670131,656.766771 579.833375,658.237608 C581.980218,660.956212 586.658094,662.899849 589.942389,661.343695 C592.120358,660.31011 593.362752,657.82524 593.610875,654.209026 C593.097732,653.829542 592.589925,653.440281 592.087453,653.056353 C589.043277,650.727009 586.703449,649.067764 584.490796,649.067764 Z M329.509214,663.749468 C330.388762,666.810231 332.067817,668.999155 334.396083,669.960754 C336.564269,670.857475 338.991251,670.463771 340.294119,669.000933 C341.442244,667.713173 341.532956,665.8433 340.57248,663.668595 C336.903104,663.713919 333.211495,663.740581 329.509214,663.749468 Z M336.780376,674 C335.54154,674 334.26713,673.754712 333.037186,673.246363 C329.416724,671.750642 326.920375,668.371717 325.844285,663.753912 C303.258861,663.742359 280.210095,663.136249 257.775857,662.545249 C244.355867,662.190648 230.498327,661.826272 216.834661,661.589871 C216.867566,661.737399 216.910254,661.879595 216.960946,662.01557 L228.449311,662.01557 C229.151882,662.01557 229.787753,662.428826 230.074117,663.069595 C230.359592,663.711253 230.240421,664.461335 229.769966,664.983016 C226.099701,669.056034 221.026073,669.19112 217.627054,667.517654 C216.600767,667.013748 215.729224,666.348983 215.039104,665.570462 L1.77865999,665.570462 C0.796839677,665.570462 0,664.774166 0,663.793016 C0,662.810977 0.796839677,662.01557 1.77865999,662.01557 L213.302242,662.01557 C213.158171,661.190835 213.15906,660.331439 213.31914,659.46138 C213.474772,658.617093 214.211138,658.004763 215.068452,658.004763 C215.078234,658.004763 215.088017,658.004763 215.0978,658.004763 C229.359985,658.240274 243.853396,658.621536 257.869236,658.991245 C280.102486,659.576914 302.947595,660.17769 325.316913,660.198131 C325.276893,659.637347 325.25466,659.06412 325.249324,658.478452 C318.115118,658.649975 310.816387,657.959438 303.736431,657.287563 C297.247879,656.671678 290.543221,656.030909 284.156053,656.102006 C276.54072,656.180214 268.713726,655.906487 261.14286,655.641648 C254.264782,655.401693 247.16615,655.138631 240.105759,655.160849 C237.231445,655.164404 233.281041,655.486121 229.098522,655.82828 C217.760454,656.755218 203.648565,657.906114 196.04924,654.191252 C183.505241,648.057285 177.225682,624.995811 181.58162,612.325286 C181.58162,612.294181 181.58162,612.262187 181.583399,612.231082 C181.658102,610.72203 182.276187,609.957728 183.418086,609.957728 C184.506626,609.957728 185.117596,610.651821 185.237656,612.023121 C192.499924,624.431472 206.337899,625.074907 220.975382,625.757447 C224.311258,625.912973 227.76008,626.072943 231.080838,626.386663 C240.256945,627.252279 249.408151,627.379366 258.256095,627.50201 C266.78388,627.621099 275.601587,627.742854 284.351705,628.531151 C299.83494,629.928224 318.677175,629.521189 327.023537,613.88855 C334.965254,599.013104 337.169903,578.47738 339.115757,560.358984 C339.785422,554.12548 340.416847,548.238579 341.245702,542.687614 C341.890467,538.369309 342.505883,534.022565 343.122189,529.662489 C345.410435,513.501949 347.775163,496.793067 351.778927,480.858263 L352.084856,479.644267 C353.835058,472.716671 356.63289,461.63785 356.664906,451.875227 C352.926162,451.424644 349.045126,451.335772 345.001343,451.260231 C345.941365,463.957417 343.163098,477.136291 340.469317,489.90813 C338.722673,498.193695 337.072077,506.01979 336.349941,513.742793 C334.485905,533.675074 330.073939,554.102373 325.806934,573.857798 C324.735291,578.817761 323.668095,583.759061 322.644476,588.672811 C322.391906,589.885029 322.165127,591.204783 321.925008,592.601856 C320.660381,599.956928 319.087156,609.109886 311.815994,611.80805 C308.215097,613.145578 298.837112,612.351948 289.540056,611.425899 C288.178492,611.290813 286.994794,611.172613 286.086788,611.096182 C274.778957,610.140805 262.452843,609.776429 250.532264,609.423606 C245.714763,609.280521 240.732737,609.132993 235.836975,608.949028 C229.00781,608.690409 221.975878,608.920588 215.176061,609.140992 C204.946987,609.474263 194.368407,609.81731 184.191804,608.519774 C183.291802,608.405129 182.622136,607.630163 182.639033,606.722776 C183.154845,579.5634 186.617896,551.37666 193.226507,520.547746 C194.042023,516.741345 194.8691,512.267513 195.7442,507.531508 C201.269608,477.641974 209.617748,432.472625 238.682831,426.287113 C254.163398,422.992617 272.87668,423.940884 289.387981,424.777172 L292.678502,424.942475 C293.101823,424.963804 293.527812,424.985134 293.953801,425.007352 C295.718232,418.395252 296.492838,411.353011 297.249658,404.47696 C297.790371,399.562322 298.349759,394.481492 299.26488,389.716159 C299.367153,389.183814 299.498774,388.413291 299.661521,387.463246 C302.1054,373.201019 305.47685,358.384228 311.960955,356.632555 C312.954336,356.364161 313.943271,356.393489 314.925981,356.714318 C313.139317,353.676662 312.064117,350.075556 311.808879,346.081635 C310.644746,327.798824 309.038616,312.314603 306.600963,295.875892 C306.031792,292.041941 305.378134,288.190215 304.744931,284.464688 C302.618543,271.947024 300.41923,259.003662 301.256979,245.179575 C302.081388,231.592777 306.526259,218.658301 310.824391,206.149525 C312.267774,201.949419 313.75918,197.608007 315.063827,193.369687 C315.400883,192.272114 315.746833,191.176319 316.101675,190.079634 L308.050571,185.332965 C307.32132,184.901934 306.995825,184.015877 307.275964,183.216026 C316.244857,157.530153 331.256748,114.539952 365.424806,99.9151259 C367.196352,99.1561565 368.975012,98.4496216 370.721656,97.809741 C373.43678,90.5977535 375.460006,82.3121885 377.146176,74.4425459 C372.144584,69.8673996 367.986966,61.2290116 370.951103,53.696195 C373.249132,47.8546184 376.689949,47.3542673 378.54687,47.570227 C379.47711,47.6804287 380.393119,48.0261419 381.259327,48.5620419 C381.298457,47.9346034 381.336699,47.3027214 381.375829,46.6663957 C382.15755,33.7914648 382.965951,20.4766161 393.017159,11.8026791 C398.574582,7.00801825 408.149998,4.97550863 418.003774,6.49611377 C427.578301,7.97494892 435.522686,12.473665 439.255204,18.5303126 C448.227654,33.0929285 443.694739,44.2570675 438.443246,53.391363 C438.621112,59.4666737 437.991466,66.0725522 436.732175,72.1434193 C434.511518,82.8507547 430.614474,91.0403376 425.695589,95.7834525 C425.467921,98.7908913 425.353197,102.089831 425.350529,105.979772 C425.346972,112.731401 422.493112,117.710028 417.316322,119.997601 C410.657909,122.940163 400.864607,121.060513 393.409353,115.679295 C385.802914,113.190871 378.757642,107.501266 376.186589,99.706276 C375.291923,99.9844463 374.377691,100.285723 373.45012,100.609219 C372.408715,103.222064 371.268594,105.690937 370.01286,107.948294 C369.87946,108.188249 369.690922,108.394433 369.465922,108.549959 C369.283609,108.675269 351.079913,121.425779 336.428202,150.630107 C329.655954,164.128921 324.503176,176.250215 320.445163,188.270194 L321.328268,188.542143 C328.034705,190.595982 332.082935,191.835751 338.566151,196.919247 C339.380777,197.558239 340.142044,198.178567 340.862401,198.766902 C343.565075,200.973601 345.404209,202.474655 347.250458,202.771488 C349.271016,192.020605 353.464207,181.568334 361.569561,174.774935 C362.065807,174.359012 362.748812,174.244367 363.353557,174.47899 C363.958301,174.712724 364.387847,175.255734 364.475002,175.897392 C365.532415,183.666609 362.213436,196.494437 355.759568,202.479987 C353.720334,204.372078 351.92033,205.487426 350.270623,206.021548 C349.625859,210.2101 349.300364,214.418204 349.182083,218.423679 C354.076066,220.120251 356.905914,231.373262 358.432894,240.727072 C359.266196,245.827454 358.82242,251.717021 358.353743,257.953191 C357.509769,269.183096 356.635558,280.795151 363.421146,287.888938 C372.148141,297.010792 393.99809,294.62457 407.053454,293.197281 C408.471046,293.042643 409.805041,292.896893 411.032316,292.774249 C429.38542,290.940813 434.145114,281.498131 436.507174,264.713707 L436.886918,262.031541 C437.985241,254.288986 439.00886,247.077887 439.321904,239.905003 C438.040379,236.832688 437.109251,233.478647 436.732175,229.70424 C436.241265,224.782492 436.524071,219.373724 436.809546,214.521296 C434.552427,201.738792 435.91488,191.892629 437.471208,180.650283 C437.915873,177.432217 438.376546,174.103949 438.779412,170.530393 C439.828822,161.225463 440.128526,146.485991 437.011424,135.507595 C430.918625,131.270164 425.556854,126.687908 425.3363,120.654367 C425.318514,120.162014 425.506162,119.683881 425.85389,119.334613 C426.201618,118.986234 426.686303,118.801379 427.171877,118.812933 C429.878108,118.901805 430.302319,119.054666 432.213489,120.625928 L432.539873,120.894322 C436.110533,123.813777 438.524175,128.260059 440.131194,133.338222 C441.010741,133.93811 441.902739,134.533555 442.79118,135.126333 C448.069354,138.65012 453.054937,141.977499 455.505042,145.988306 C458.715523,151.243326 460.765429,157.26087 462.747745,163.081117 C464.389448,167.898884 466.080065,172.861514 468.436789,177.438438 C473.866149,173.21256 478.986022,168.749392 484.378029,164.049825 C488.605904,160.36429 492.97874,156.553446 497.499204,152.88302 C498.905235,151.741899 500.431325,150.609666 502.047238,149.410779 C511.090834,142.700031 517.407745,137.23705 514.577897,130.081941 C509.019585,136.892226 502.49546,141.648672 495.150484,144.239299 C494.447913,144.488142 493.667081,144.272182 493.19129,143.700733 C492.715498,143.129284 492.645241,142.322324 493.016092,141.678 C503.275402,123.833329 497.169263,107.271975 490.704723,89.7374696 C489.995038,87.8142729 489.267566,85.8386416 488.563216,83.8656764 C481.991068,85.3978349 475.830679,85.362286 469.33857,85.3231822 C465.617613,85.3018528 461.777486,85.2796348 457.806628,85.5764683 C453.753951,96.8899127 454.534783,106.421467 460.132226,113.917846 C461.098927,115.211827 462.9932,116.925285 464.998639,118.739169 C468.140642,121.581305 471.389365,124.520312 472.5366,127.137602 C474.445103,131.487901 473.136898,134.576214 471.981658,137.30015 C471.181261,139.191352 470.424442,140.976797 470.508928,143.341689 C470.529383,143.911361 470.275034,144.456148 469.825033,144.807193 C469.374143,145.15735 468.781849,145.270218 468.23669,145.112025 C448.009768,139.253563 443.088216,125.201963 441.921415,105.906897 C440.953824,89.906327 441.603924,66.926615 458.350008,52.1667026 C468.668904,43.0715109 479.738395,40.5564247 490.362331,44.890727 C511.292712,53.4313555 524.825647,85.0094629 526.179207,103.572221 C526.622983,109.664418 526.06893,118.023747 521.302121,124.684726 C537.910359,131.873607 563.614664,148.053699 566.111903,179.877094 C566.150144,180.367669 565.983839,180.841358 565.668127,181.195959 C568.786118,187.079305 571.246894,196.313138 573.77437,206.613438 C574.775755,210.689122 575.640184,214.210243 576.384553,216.358286 C581.475078,231.046212 586.372619,245.479963 590.363932,260.568703 C591.944271,266.547143 592.80781,273.086367 593.641113,279.409632 C594.864831,288.681679 596.130347,298.269224 599.665434,306.482802 L600.131443,307.566155 C603.669198,315.772624 606.212681,321.673745 605.569696,327.305583 C606.270488,327.367794 606.97128,327.46111 607.667625,327.58642 C608.234129,327.687734 608.717035,328.058332 608.96249,328.579123 C612.589178,336.281686 612.946688,346.308259 613.2624,355.15372 C613.2624,355.162607 613.2624,355.172383 613.26329,355.182159 C614.1793,360.086133 614.718234,365.526895 615.22693,370.676157 C615.8379,376.855448 616.415965,382.690804 617.522291,385.085912 C620.867951,392.335226 636.330731,391.428729 648.758229,390.703531 C653.364069,390.433359 657.711114,390.178295 661.133255,390.349819 C677.157203,391.14967 694.915345,393.743852 702.830382,414.516865 C708.867154,430.362797 711.873089,446.957922 714.780309,463.008261 C715.289895,465.822846 715.80126,468.644542 716.328632,471.469793 C720.614314,494.405069 722.741591,515.713092 722.654437,534.79842 C722.628646,540.186748 723.084872,548.461648 723.613134,558.044749 C724.625192,576.433317 725.886262,599.318825 723.941297,610.101701 C721.231509,625.118455 704.892738,633.544438 691.763559,640.313841 C689.927982,641.260332 688.16533,642.169495 686.529852,643.053775 C672.629624,650.560818 658.257162,658.321148 641.134892,656.39884 C636.440119,655.870938 632.104635,655.305711 627.513914,654.7076 C621.609652,653.938855 615.502623,653.143447 608.614762,652.440468 C605.038766,652.076091 601.059903,651.190034 597.104164,650.237323 C597.170863,650.996293 597.208215,651.716158 597.218887,652.399586 C597.595963,652.64754 597.968592,652.875053 598.337664,653.077682 C599.919782,653.945076 601.490339,654.892454 603.010204,655.807839 C608.29905,658.996577 613.294416,662.00846 618.866069,662.01557 L998.22134,662.01557 C999.208496,662.01557 1000,662.810977 1000,663.793016 C1000,664.774166 999.208496,665.570462 998.22134,665.570462 L618.86429,665.570462 C612.302813,665.562463 606.644007,662.150656 601.172848,658.852604 C599.787272,658.017205 598.359008,657.156032 596.944084,656.369512 C596.090327,661.429901 593.44546,663.617049 591.468479,664.554651 C586.441986,666.937318 580.069048,664.273815 577.040879,660.440752 C574.34443,657.028056 574.307079,653.037689 576.939495,649.768077 C578.013806,648.434104 579.087227,647.461841 580.150866,646.785523 C577.773687,646.572229 575.568148,646.593559 573.640081,646.983708 C572.952629,647.124126 572.242944,646.84329 571.83563,646.268286 C562.247764,632.72859 562.53146,583.103184 562.667528,559.254301 C562.680867,557.096481 562.691539,555.215943 562.691539,553.676675 C562.691539,541.36164 562.961006,528.826201 563.222469,516.70313 C563.467925,505.346138 563.721384,493.601663 563.74006,482.337987 C563.750731,476.282228 563.676028,470.020285 563.604881,463.965415 C563.470593,452.587983 563.330078,440.824845 563.740949,429.823342 C564.573362,407.527947 577.461532,407.7759 593.779848,408.099396 C595.838647,408.139388 597.969482,408.181158 600.159902,408.181158 C613.379792,408.181158 626.267073,406.944056 638.756823,405.682069 C639.58479,405.175497 640.43321,404.689365 641.303864,404.222786 C654.356561,397.216093 678.241297,391.45539 690.539841,404.29655 C691.001403,404.777349 691.154368,405.476774 690.937372,406.10599 C690.719486,406.736094 690.166322,407.190232 689.50644,407.285325 C681.896443,408.36779 673.558974,408.24959 665.498087,408.137611 C658.75163,408.043406 651.773947,407.944758 645.472154,408.57664 L641.170465,409.010337 C640.761373,409.052107 640.353171,409.093877 639.94319,409.135647 C623.797404,419.414618 616.509344,438.229773 617.68326,466.507163 C617.849564,470.499307 618.064782,476.266231 618.326245,483.289809 C619.976842,527.570435 623.411434,619.709686 628.05018,634.459823 C629.338819,638.557725 633.182503,642.580974 636.271146,645.812371 C636.576186,646.132311 636.872333,646.441587 637.156919,646.742864 C641.714735,645.75016 648.342911,643.714096 655.582058,641.13591 C654.66338,640.279181 653.624642,639.372684 652.49964,638.409308 C650.605367,636.785611 648.815146,635.253452 647.556744,633.746178 C632.81432,616.102359 634.267486,492.704941 635.147922,470.733041 C635.256421,468.009994 635.265314,465.187409 635.275096,462.200411 C635.318674,447.775547 635.367587,431.426598 647.630558,422.448718 C659.859735,413.495722 670.622406,410.909538 679.618869,414.763041 C700.152609,423.558733 705.307166,463.383302 707.507368,480.389017 C707.696795,481.848301 707.8631,483.12895 708.013397,484.190086 C713.184851,520.693496 716.541182,598.502088 701.354094,621.694205 C697.624244,627.388253 678.949203,636.20883 661.688197,642.676067 C663.335236,645.106725 664.061819,647.711572 662.646006,650.356412 C670.175963,647.845769 677.397322,643.945164 684.837457,639.92547 C686.49339,639.031414 688.274718,638.112474 690.132528,637.154431 C702.56714,630.743183 718.041482,622.763339 720.439116,609.471597 C722.312045,599.098421 721.064315,576.443982 720.06115,558.239379 C719.53022,548.601178 719.071326,540.276509 719.097117,534.783312 C719.183382,515.920165 717.07567,494.837877 712.832676,472.122115 C712.303525,469.289755 711.791271,466.462727 711.279906,463.641031 C708.269524,447.019244 705.425447,431.319951 699.505177,415.781518 C693.051309,398.841568 679.970154,394.850312 660.956279,393.899379 C657.727122,393.742075 653.471678,393.98914 648.966332,394.252202 C634.962942,395.073382 619.119528,395.999431 614.487897,386.977115 C614.817839,389.954337 614.984143,392.746705 614.504794,394.635241 C613.508745,398.565175 611.578899,401.052711 609.072767,401.639268 C607.492427,402.007199 605.021869,401.7628 602.222258,398.496743 C599.096263,394.850312 600.031838,388.653247 600.784211,383.673731 C601.020773,382.104246 601.244884,380.621856 601.299133,379.473626 C601.925222,366.267202 601.108817,353.670441 598.802784,340.967034 C598.630254,340.014323 599.251006,339.098938 600.199032,338.906974 C602.569986,338.427952 604.703488,338.875868 606.549738,340.238281 C607.439068,340.895047 608.227903,341.747333 608.929585,342.761366 C608.442232,338.531044 607.617823,334.450028 606.123748,330.942238 C605.662186,330.881805 605.198845,330.83648 604.734615,330.807152 C603.236094,334.878392 599.820177,339.031395 593.646449,344.046459 C593.348523,344.288192 592.98123,344.426833 592.597929,344.44283 C591.464922,344.505929 587.202363,343.703412 586.057796,343.282157 C585.405028,343.042202 584.952359,342.443203 584.898999,341.749999 C584.874987,341.437168 584.860758,341.12967 584.853643,340.827504 C582.292373,344.527258 580.888121,348.858006 580.889899,353.310508 C580.891678,361.146379 581.868162,368.744073 582.902453,376.787016 C584.010558,385.411185 585.156015,394.327743 584.984374,403.534914 C584.968367,404.332099 584.424986,405.021748 583.653937,405.222599 C580.377645,406.073107 576.300956,405.596752 573.271898,404.00416 C572.720514,403.714436 572.361225,403.157207 572.324762,402.535989 C572.205592,400.500814 572.077528,398.460305 571.950354,396.415354 C571.279799,385.688466 570.586122,374.597203 571.090372,363.719233 C571.454108,355.876252 572.178912,346.013203 574.574767,339.309565 C575.7389,336.052395 577.962225,333.240476 580.247803,330.5512 C578.644341,327.232708 578.767068,320.717479 579.09701,311.630286 C579.306892,305.846476 579.524778,299.86537 578.76529,297.142323 C576.671807,289.63439 572.549762,282.385965 568.562896,275.377495 C566.623267,271.967465 564.618718,268.441901 562.877409,264.935888 C558.8941,256.920495 556.268798,248.288328 553.728872,239.938775 C550.579754,229.584263 547.561368,219.659004 542.202266,210.818875 C542.742978,212.751848 543.08626,214.764806 543.153849,216.883522 C543.376181,223.864441 540.915405,230.062396 538.534669,236.055944 C537.847217,237.788954 537.177551,239.474861 536.586147,241.133219 C537.286939,240.772397 538.065992,240.504003 538.921527,240.328036 C543.066694,239.477528 546.578659,242.441419 548.544078,248.463406 C550.974617,255.910017 551.035981,268.815164 545.591502,271.299145 C544.322428,271.878593 542.984876,271.841266 541.588628,271.190721 C543.064026,274.653186 544.526974,277.765494 545.588834,280.027294 C546.449706,281.859841 547.129154,283.307571 547.488443,284.212291 C552.150311,295.938992 552.801301,310.520271 549.23153,323.216568 C549.03232,323.922214 548.42135,324.43323 547.690321,324.504328 C547.308798,324.541654 546.88192,324.588757 546.415911,324.644746 C547.573819,327.343798 547.889531,330.719168 548.24882,334.551342 L548.418682,336.329677 C549.859397,350.982943 546.024606,365.322489 542.3161,379.190124 C541.508588,382.208227 540.673507,385.330311 539.923802,388.356413 C532.698885,417.507418 528.230891,447.6138 524.899461,476.586171 C525.978219,486.012857 527.26419,495.384441 528.536821,504.666265 C528.849865,506.945839 529.161131,509.215638 529.46706,511.473883 C532.864301,536.511878 531.223487,560.085257 524.44946,583.542213 C524.267148,584.17054 524.056376,584.955283 523.817147,585.846672 C521.286113,595.255583 518.398459,604.526742 513.426215,605.561215 C512.405264,605.772731 511.410993,605.6412 510.444291,605.169288 C509.522946,607.599057 508.501995,609.879521 507.36632,611.978684 C510.023638,616.038371 510.028974,620.577969 507.330747,624.938044 C501.439825,634.456268 484.075657,641.314544 475.893821,639.290921 C470.508928,637.960503 466.583425,634.839308 465.393502,630.939591 C464.624231,628.420061 464.619785,624.410143 468.967719,619.61637 C474.31526,613.717915 477.973964,616.67292 480.9132,619.046699 C483.258363,620.939679 485.681787,622.900202 489.723792,622.278096 C494.57064,621.535123 498.488139,618.665437 501.65949,614.332912 C491.441977,616.231224 469.735211,615.200306 463.625514,610.401201 C463.384505,610.211014 463.154169,610.012829 462.933615,609.806645 C457.548722,613.140246 447.71629,613.288662 433.639085,610.246563 C431.832856,609.855525 430.654494,608.964136 429.707357,608.248714 C428.58858,607.403538 427.77929,606.776988 425.970392,606.854307 C424.402504,606.908519 423.901811,607.47908 422.992026,608.514442 C422.151609,609.469819 421.106647,610.658931 419.127887,611.258819 C411.360479,613.61749 404.365899,612.799865 396.251652,610.848229 C395.665583,610.706033 395.190681,610.278557 394.990582,609.709775 C393.874473,606.539699 393.707279,603.662014 394.486332,601.122044 C394.106588,600.920304 393.749077,600.705233 393.418247,600.481274 C387.665171,596.574448 388.267247,592.386785 388.962703,587.538801 C389.169917,586.100847 389.383356,584.614013 389.48474,582.934326 C390.525256,565.819298 392.619628,548.807361 394.644633,532.356209 C396.82527,514.644847 399.079721,496.329154 399.981502,478.057008 C400.178044,474.079084 399.357192,464.224922 398.407388,452.814607 C397.308176,439.610849 396.36015,427.353581 395.854121,416.64269 C393.942062,421.977695 392.19186,427.022087 391.13089,431.575015 C389.615471,438.080468 387.881278,444.240207 386.203112,450.197318 C385.866056,451.394428 385.530779,452.585317 385.199059,453.770873 C385.425838,454.259671 385.63483,454.74047 385.826926,455.214159 C393.045617,473.061496 390.483458,491.962858 388.005784,510.242113 L387.806574,511.717394 C384.561409,535.726247 379.405074,559.89507 374.41949,583.266709 C371.092506,598.86291 367.651689,614.990567 364.907216,630.559217 C364.696445,631.756327 364.507907,633.225386 364.309586,634.781541 C363.42915,641.655813 362.335274,650.21155 357.542674,654.450759 C355.156602,656.563254 351.660646,659.183209 348.864592,657.579953 C346.131681,656.011357 345.733261,651.4922 347.530597,642.468106 C349.107379,634.55225 351.37695,626.607066 353.570927,618.924055 C355.851169,610.937101 358.209672,602.679975 359.889616,594.190893 C367.284395,556.828976 371.739939,516.936864 374.794787,486.356793 C375.968703,474.607874 378.53353,464.471987 381.409624,454.120141 C377.436987,446.399804 369.019478,437.234403 360.454341,432.884993 C360.609084,433.773716 360.771832,434.666882 360.937247,435.572491 C361.804344,440.32005 362.701678,445.229356 362.444661,450.790096 C362.41976,451.307333 362.171637,451.788132 361.763435,452.107184 C361.354343,452.426235 360.82786,452.551545 360.319163,452.450231 C360.273807,452.441344 360.226672,452.432456 360.181317,452.423569 C360.074597,462.539904 357.302555,473.512967 355.534567,480.513439 L355.229527,481.724768 C351.272009,497.476495 348.919731,514.092062 346.644825,530.160174 C346.02674,534.530026 345.410435,538.885657 344.763892,543.211961 C343.946598,548.690939 343.317841,554.542291 342.652622,560.73758 C340.672974,579.177694 338.428305,600.077794 330.161983,615.561127 C320.726191,633.235162 299.314682,633.446678 284.032436,632.071824 C275.417496,631.295969 266.668267,631.174214 258.207182,631.056902 C249.288091,630.932481 240.065739,630.804505 230.74645,629.925558 C227.510178,629.620726 224.103155,629.462533 220.809966,629.308784 C206.967545,628.663571 192.696466,627.997917 184.122436,616.744906 C182.127669,628.388067 187.755349,646.177636 197.612683,650.997181 C204.333349,654.283679 217.904525,653.175441 228.8086,652.28583 C233.064934,651.93745 237.084705,651.609511 240.101312,651.605957 C240.205364,651.605957 240.310305,651.605957 240.414357,651.605957 C247.421388,651.605957 254.457767,651.851244 261.267366,652.089422 C268.799102,652.352484 276.586076,652.626211 284.11959,652.547114 C290.689071,652.47335 297.493334,653.124784 304.072598,653.749557 C311.661251,654.469422 319.507809,655.21595 326.987964,654.859572 C327.498439,654.848018 327.981345,655.02754 328.336188,655.383918 C328.690141,655.741185 328.876011,656.232649 328.848442,656.734777 C328.779964,657.949662 328.792414,659.10589 328.882237,660.196354 C333.158135,660.187466 337.410022,660.15725 341.638786,660.099483 C342.268432,660.081708 342.899856,660.440752 343.218236,661.01309 C345.405988,664.948356 345.307272,668.721874 342.949659,671.365825 C341.416454,673.085504 339.166449,674 336.780376,674 L336.780376,674 Z"/>
</svg>
