<svg xmlns="http://www.w3.org/2000/svg" width="80" height="61" viewBox="0 0 80 61">
  <path fill="#BAAF91" d="M901.442748,306.610687 C907.244275,306.610687 911.620865,304.982188 914.572519,301.725191 C917.524173,298.468193 919,294.396947 919,289.51145 C919,284.625954 917.524173,280.554707 914.572519,277.29771 C911.620865,274.040712 907.244275,272.412214 901.442748,272.412214 C897.880407,272.412214 894.776081,273.073791 892.129771,274.396947 C895.590331,265.13486 902.155216,256.483461 911.824427,248.442748 L911.824427,248.442748 L908.618321,246 C905.05598,248.64631 901.391858,252.10687 897.625954,256.381679 C893.860051,260.656489 890.653944,265.592875 888.007634,271.19084 C885.361323,276.788804 883.987277,282.793893 883.885496,289.206107 L883.885496,289.206107 L883.885496,289.51145 C883.885496,294.396947 885.361323,298.468193 888.312977,301.725191 C891.264631,304.982188 895.641221,306.610687 901.442748,306.610687 Z M856.557252,306.610687 C862.358779,306.610687 866.735369,304.982188 869.687023,301.725191 C872.638677,298.468193 874.114504,294.396947 874.114504,289.51145 C874.114504,284.625954 872.638677,280.554707 869.687023,277.29771 C866.735369,274.040712 862.358779,272.412214 856.557252,272.412214 C852.994911,272.412214 849.890585,273.073791 847.244275,274.396947 C850.704835,265.13486 857.26972,256.483461 866.938931,248.442748 L866.938931,248.442748 L863.732824,246 C860.170483,248.64631 856.506361,252.10687 852.740458,256.381679 C848.974555,260.656489 845.768448,265.592875 843.122137,271.19084 C840.475827,276.788804 839.101781,282.793893 839,289.206107 L839,289.206107 L839,289.51145 C839,294.396947 840.475827,298.468193 843.427481,301.725191 C846.379135,304.982188 850.755725,306.610687 856.557252,306.610687 Z M901.442748,301.572519 C896.760814,301.572519 893.300254,300.402036 891.061069,298.061069 C888.821883,295.720102 887.70229,292.870229 887.70229,289.51145 C887.70229,286.050891 888.821883,283.175573 891.061069,280.885496 C893.300254,278.59542 896.760814,277.450382 901.442748,277.450382 C906.124682,277.450382 909.585242,278.59542 911.824427,280.885496 C914.063613,283.175573 915.183206,286.050891 915.183206,289.51145 C915.183206,292.870229 914.063613,295.720102 911.824427,298.061069 C909.585242,300.402036 906.124682,301.572519 901.442748,301.572519 Z M856.557252,301.572519 C851.875318,301.572519 848.414758,300.402036 846.175573,298.061069 C843.936387,295.720102 842.816794,292.870229 842.816794,289.51145 C842.816794,286.050891 843.936387,283.175573 846.175573,280.885496 C848.414758,278.59542 851.875318,277.450382 856.557252,277.450382 C861.239186,277.450382 864.699746,278.59542 866.938931,280.885496 C869.178117,283.175573 870.29771,286.050891 870.29771,289.51145 C870.29771,292.870229 869.178117,295.720102 866.938931,298.061069 C864.699746,300.402036 861.239186,301.572519 856.557252,301.572519 Z" transform="translate(-839 -246)"/>
</svg>
