<svg xmlns="http://www.w3.org/2000/svg" width="1000" height="570" viewBox="0 0 1000 570">
  <defs>
    <linearGradient id="img-goals-grad-a" x1="26.74%" x2="75.412%" y1="93.581%" y2="93.581%">
      <stop offset="0%" stop-color="#A2BB68"/>
      <stop offset="100%" stop-color="#D7478C"/>
    </linearGradient>
  </defs>
  <path fill="url(#img-goals-grad-a)" fill-rule="evenodd" d="M790.626124,64.1517696 C805.61913,70.2347857 825.227435,65.4633648 851.788922,49.3768123 C855.122754,47.4736146 858.523766,42.9816315 859.229161,41.0121407 C858.943644,41.0809512 858.565754,41.2017892 858.0619,41.4082207 C836.600253,50.2411394 820.283791,50.9032307 808.371011,51.3865825 C794.881168,51.9337099 790.01898,52.5446129 788.420924,60.6390774 C788.808052,62.0941677 789.624295,63.2060447 790.626124,64.1517696 Z M142.970085,9.19651468 C133.259145,25.8301946 156.45153,54.829625 171.63852,68.3458535 C172.073513,67.0225101 172.710888,65.6479784 173.544766,64.2608594 C174.49369,62.6849311 175.689503,61.1199117 177.055786,59.7210446 C175.336806,56.2125482 173.089618,52.6864296 170.795404,49.0856264 C167.700903,44.2286121 164.514029,39.2281026 162.740464,34.1764048 C162.377689,34.4289897 162.006517,34.6840921 161.639543,34.936677 C161.071868,35.3260437 160.51343,35.7103755 160.013775,36.065337 C159.415869,36.489109 158.612222,36.4773609 158.027752,36.0351275 C152.774238,32.0642581 150.893184,26.4486499 149.073432,21.0176553 C147.582026,16.5651124 146.163678,12.3315882 142.970085,9.19651468 Z M174.466818,70.7617734 C175.147021,71.315614 175.80203,71.8300145 176.427649,72.2991007 C177.542005,73.1365749 178.668958,73.9581051 179.806827,74.7653698 C180.639026,70.8213532 179.999132,66.9553779 178.530398,63.09192 C177.73347,64.016666 177.018837,65.001831 176.42345,65.9911917 C175.420781,67.6569093 174.758214,69.3058439 174.466818,70.7617734 Z M406.050566,83.4296188 C405.695349,92.1349863 411.943134,95.9816612 420.370927,98.4647133 C419.388412,96.7150804 418.620875,94.9495037 417.870973,93.2250454 C415.43652,87.6295768 413.638602,83.4984293 406.050566,83.4296188 Z M360.284696,85.8144901 C359.242559,85.8144901 358.223935,85.9235799 357.24142,86.1560251 C348.886686,88.1280334 342.717838,95.9204031 340.316975,107.535112 C337.02849,123.440408 341.660585,140.720235 351.091886,147.728836 C359.397074,153.899963 363.904045,151.690475 369.609348,148.896097 C372.312523,147.571915 375.292818,146.111789 378.886134,145.505082 C379.420219,142.709026 380.171801,139.808915 381.143399,136.7351 C381.946206,134.194146 382.856501,131.82438 383.736566,129.532654 C387.203919,120.505892 389.942363,113.375613 384.317677,102.342437 C380.059274,93.9911916 369.286882,85.8144901 360.284696,85.8144901 Z M651.905129,135.255674 C656.385228,140.138702 659.446139,146.767168 660.913193,154.494083 C673.321429,143.288041 688.876232,136.164476 704.040549,129.219651 C713.560864,124.860254 723.407004,120.351488 732.183296,114.928884 C740.091279,110.043339 747.641527,104.838915 754.944046,99.8065181 C761.809052,95.0745374 768.907511,90.1814394 776.291487,85.561066 C777.582192,84.7538014 779.570734,83.7812237 781.873346,82.654242 C786.108236,80.5832137 792.507178,77.4514968 793.809639,75.2965533 C795.777188,72.0381243 794.613286,71.2291813 791.503669,69.064168 C790.63872,68.4624957 789.698193,67.8087959 788.804693,67.0334191 C787.503911,66.4795785 786.235039,65.8510533 784.993879,65.1461652 C777.992833,61.1719392 775.669227,63.4368117 770.581985,68.403755 C767.773,71.1452661 764.278775,74.55726 759.053812,77.5731739 C754.330184,80.2995802 749.552812,83.3289205 744.931634,86.26008 C739.268318,89.8516525 733.411019,93.5657413 727.483181,96.8384358 C718.620394,101.731534 708.541641,105.472475 698.795432,109.090901 C684.140847,114.531965 668.987448,120.157643 657.638144,129.798666 C655.686551,131.456831 653.771907,133.287023 651.905129,135.255674 Z M594.114791,146.284655 C597.309224,150.498039 600.849635,153.973809 605.38012,154.719815 C609.61501,155.414634 614.389863,153.684301 619.974242,149.422246 C624.964912,145.613333 630.639984,137.567539 633.868007,129.723981 C629.004139,129.145805 623.556641,129.712233 617.652316,131.441726 C609.108637,133.944918 601.265315,139.395213 594.114791,146.284655 Z M341.409498,156.988044 C341.765554,158.433065 342.111534,159.886477 342.439878,161.344085 C342.733793,162.647289 343.008393,163.960562 343.281314,165.271318 C345.458802,175.702822 347.514525,185.55615 359.329893,188.613183 C359.900088,188.760874 360.450968,188.889264 360.980854,188.998354 C356.643514,183.633652 352.918355,176.839874 349.407335,170.439658 C346.685685,165.47775 344.069845,160.709686 341.409498,156.988044 Z M339.531803,149.700005 C339.787928,149.947555 340.044054,150.196784 340.296821,150.443494 C344.550186,154.602334 348.340005,161.511076 352.35236,168.825968 C356.404183,176.211349 360.765037,184.16064 365.88419,189.485901 C371.901043,189.294575 374.514364,185.621604 377.629859,181.244585 C378.917205,179.436212 380.292726,177.504483 382.010027,175.79429 C381.556559,174.73444 381.147598,173.683822 380.821772,172.659216 C378.148828,164.261818 377.309912,156.963709 378.320978,149.04211 C375.680785,149.659726 373.358859,150.797617 371.088159,151.910333 C365.163679,154.812961 359.035979,157.81461 349.087388,150.422516 C337.225833,141.608058 334.020483,121.397071 337.02681,106.856238 C339.703953,93.9089546 346.790655,85.1742168 356.469684,82.8892046 C367.558664,80.271049 381.89582,90.1982225 387.310568,100.818536 C393.613777,113.183447 390.339568,121.709236 386.873055,130.73516 C386.010625,132.979893 385.118804,135.301828 384.346229,137.74544 C383.522428,140.352686 382.864899,142.827347 382.373641,145.216414 C391.899835,145.235714 395.581326,150.723771 399.142732,156.03225 C401.680475,159.815149 404.077978,163.38826 408.615181,165.232717 C419.479106,169.646659 429.393267,162.805049 439.891058,155.561485 C452.093555,147.14143 464.676461,138.457041 478.021865,150.273986 C475.035692,132.474723 463.457974,127.182188 447.916608,120.075406 C446.614986,119.480447 445.287331,118.872901 443.937003,118.246054 C433.468603,113.385683 429.3496,111.184586 423.160597,102.671385 C411.629066,99.8358884 401.245481,95.1676833 402.830101,81.5927141 C402.924154,80.7804145 403.59176,80.1544068 404.408842,80.11161 C415.568362,79.5216859 418.306806,85.8077769 420.951198,91.8865972 C421.939591,94.1598612 422.962414,96.5094881 424.443744,98.6661099 C424.688953,99.0235888 424.930803,99.3709979 425.168454,99.7074981 C427.251049,100.190011 429.406703,100.633922 431.580832,101.08203 C438.337509,102.473345 444.822106,103.810114 449.651544,106.424913 C439.531643,79.2993105 423.814767,63.8320525 400.517412,57.9353282 C377.519011,52.1132885 355.109279,63.28996 340.567222,87.8301343 C328.491529,108.209791 333.576252,127.31897 338.959929,147.550097 C339.150554,148.262537 339.341178,148.980013 339.531803,149.700005 Z M576.254858,131.882281 C573.497099,131.882281 570.180062,134.332607 566.389403,139.17032 C555.664037,152.857736 552.741686,174.974438 555.598536,193.182368 C556.835497,190.938474 557.869237,189.149401 558.664486,187.934308 C559.604173,186.496001 560.568213,185.01238 561.554087,183.491835 C569.235336,171.651394 578.565027,157.27 589.707751,145.927176 C588.912502,144.795159 588.144965,143.653912 587.393383,142.538678 C583.756399,137.132019 580.320117,132.026616 576.42029,131.884799 C576.364866,131.88312 576.309442,131.882281 576.254858,131.882281 Z M369.136566,192.405313 C372.115181,194.654241 375.342363,195.921362 378.910487,195.69479 C383.41242,195.405283 386.204609,194.386552 387.208957,192.669646 C388.771743,189.998624 386.379278,185.030841 384.06491,180.225854 C383.881843,179.845718 383.697937,179.463064 383.51487,179.079572 C382.394635,180.341657 381.392806,181.748916 380.367464,183.189741 C377.671847,186.977675 374.73522,191.102109 369.136566,192.405313 Z M552.310051,199.281328 C536.09604,208.579137 523.25365,237.791712 519.233737,253.687777 C525.948427,249.226843 540.353604,221.928374 549.150889,205.256093 C550.268604,203.136394 551.325857,201.134177 552.310051,199.281328 Z M658.435072,161.656249 C656.478441,163.770914 654.636855,166.019842 652.929631,168.426531 C637.155652,190.662393 625.991934,233.17973 634.661576,256.798515 C638.431242,267.066385 644.87553,275.013997 651.330736,282.572244 C651.096444,276.593282 649.841848,269.958104 648.551983,263.13999 C647.813837,259.235414 647.049659,255.198252 646.489541,251.273535 C643.789726,232.349809 647.855825,216.981571 652.161254,200.711244 C654.316069,192.570626 656.543942,184.151409 657.827929,175.267302 C658.51401,170.526091 658.707153,165.953549 658.435072,161.656249 Z M505.176219,287.058353 C508.03307,287.058353 510.846253,287.809394 513.522555,289.272037 C516.953799,283.985376 518.860885,275.231338 516.302148,271.119491 C514.91823,268.895737 512.236889,268.198401 508.323625,269.046784 C506.316608,269.483144 504.718552,270.283695 503.374942,271.350258 C503.559689,278.921091 504.285238,283.850273 505.145148,287.058353 C505.155225,287.058353 505.165302,287.058353 505.176219,287.058353 Z M412.617459,222.82375 C412.563714,222.82375 412.523406,222.828785 412.494854,222.83382 C412.010315,222.919413 411.325914,223.837446 410.85649,226.156024 C408.449749,238.042619 442.910821,276.532863 453.829331,283.174755 C464.26666,289.524622 473.175632,291.964877 480.41601,290.472025 C475.362357,287.216113 469.806531,284.151529 464.927548,281.460367 C458.211178,277.755509 452.906439,274.830223 450.462748,272.413464 C444.777599,266.792821 439.78021,259.369678 434.947414,252.190729 C433.013456,249.317471 431.186986,246.603652 429.342042,244.040041 C428.7962,243.280608 427.974079,241.945517 426.932781,240.256303 C424.844308,236.865288 421.984098,232.222257 419.076023,228.488029 C415.032597,223.294514 413.16246,222.82375 412.617459,222.82375 Z M556.596167,198.384274 C557.454398,202.131929 558.573792,205.642104 559.932518,208.786408 C561.745551,212.980492 564.347956,216.967305 567.102356,221.187403 C571.059287,227.248601 575.150579,233.515391 576.815815,240.581894 C579.085676,250.218721 577.028273,258.597658 575.037211,266.701353 C573.945528,271.148861 572.912628,275.349658 572.575886,279.703181 C572.201355,284.519077 573.104933,288.792881 575.263946,292.470047 C578.328216,287.43765 580.782823,281.949592 582.372481,275.749934 C587.71333,254.917135 589.312226,210.525971 573.32075,199.954328 C568.074793,196.48695 562.686918,195.537869 557.27469,197.123867 C557.052994,197.534213 556.827939,197.954628 556.596167,198.384274 Z M506.362795,290.461116 C507.311719,292.402915 508.198502,292.88291 508.535244,292.997035 C509.464854,293.315912 510.517068,292.661374 511.355145,291.903619 C509.729377,291.093837 508.059942,290.611324 506.362795,290.461116 Z M487.57661,291.322086 C488.705242,292.162078 489.78181,293.012978 490.796235,293.874788 C493.829434,290.633142 497.657883,288.289389 501.69627,287.429258 C501.723142,287.423384 501.750014,287.41751 501.776047,287.411636 C500.953086,284.138941 500.408924,279.982619 500.149439,274.953579 C499.160206,276.409508 498.276783,278.034946 497.350532,279.740104 C495.178083,283.737826 492.931735,287.87233 488.722877,290.620555 C488.345827,290.867266 487.962898,291.101389 487.57661,291.322086 Z M382.470213,269.341327 C375.428018,277.434113 371.314053,290.989782 368.566371,302.283096 C372.296568,301.699885 375.917596,301.215694 379.297615,300.926186 C378.956674,297.255733 378.86514,293.459408 379.059124,289.517069 C379.424418,282.0805 380.638705,275.47721 382.470213,269.341327 Z M649.632749,137.746279 C636.826468,152.305574 626.447082,173.103128 621.200286,189.451496 C608.47882,229.087184 613.543389,270.250968 623.014159,308.051429 C624.394718,307.974227 625.752604,307.867655 627.082777,307.733391 C637.057401,306.729764 643.724225,303.809514 647.464498,298.807326 C649.793982,295.69407 650.906659,291.900262 651.249279,287.639046 C650.940249,287.278211 650.629539,286.915697 650.318829,286.553183 C643.174184,278.222077 635.78517,269.607338 631.508292,257.954867 C627.191946,246.195824 627.172631,229.474033 631.453708,210.869184 C635.287195,194.212008 642.290761,177.619447 650.189507,166.484733 C652.565177,163.135675 655.179338,160.083678 657.984123,157.276713 C656.839536,149.356792 653.989403,142.59658 649.632749,137.746279 Z M577.355778,295.398689 C577.785733,295.901341 578.2434,296.389728 578.730459,296.865527 C587.36819,305.300688 604.332944,308.49618 619.580396,308.182337 C610.09787,270.111669 605.10216,228.61558 618.002494,188.426891 C623.372735,171.693352 634.037638,150.369649 647.232726,135.400848 C644.35824,132.943809 641.000895,131.2504 637.23207,130.328171 C633.795788,139.019273 627.542124,147.869814 622.013169,152.089912 C615.652857,156.944408 610.02817,158.887046 604.835118,158.03195 C599.35151,157.129022 595.227468,153.211019 591.719807,148.671204 C580.979326,159.719486 571.87301,173.756828 564.372309,185.317831 C563.383916,186.840893 562.419036,188.329549 561.47599,189.770374 C560.927629,190.609526 560.23399,191.782662 559.425305,193.216773 C564.751039,192.443914 570.033944,193.757187 575.174931,197.154916 C593.942641,209.561785 590.304818,258.334164 585.626536,276.582373 C583.828618,283.594331 580.937338,289.775528 577.355778,295.398689 Z M182.75941,76.8137409 C190.354164,81.9669761 198.329328,86.5546225 206.098752,91.0231093 C216.109485,96.7813735 226.461159,102.73516 236.006667,109.889774 C239.972835,112.862052 244.186731,115.838526 248.647516,118.988704 C263.909244,129.767617 281.20738,141.983999 291.014053,156.534902 C299.307484,168.841073 301.833471,184.681754 304.276321,200.000482 C305.82987,209.746398 307.437163,219.824619 310.521588,228.665929 C311.003608,230.047174 311.47807,231.393175 311.943295,232.710644 C316.236968,244.88339 319.628743,254.498398 320.271996,267.737707 C320.425671,270.890402 319.667372,276.33818 318.789826,282.64525 C317.695624,290.509787 315.864956,303.671893 317.717458,305.761382 C322.003573,310.596579 339.854269,307.370038 355.604735,304.523633 C358.727788,303.958883 361.872675,303.389938 364.970535,302.868824 C368.345515,288.659455 373.814007,270.317261 384.799697,262.562653 C388.461034,253.129741 393.505449,244.557798 398.949588,235.305303 C400.882706,232.020861 402.881326,228.623972 404.881625,225.079392 C410.300571,215.477809 413.479048,187.960322 404.48694,177.436511 C400.984317,173.336412 395.861804,172.500617 389.26468,174.95262 C388.072227,175.396532 387.030089,175.983938 386.092921,176.677917 C386.421266,177.376931 386.758008,178.076785 387.092231,178.769925 C389.786169,184.365393 392.573319,190.151349 390.109475,194.363055 C388.484547,197.141489 384.89123,198.672942 379.126305,199.044687 C373.454592,199.413075 368.658744,196.882191 364.43729,192.806428 C362.670443,192.733421 360.700375,192.435522 358.487618,191.862381 C344.652636,188.282557 342.283684,176.932181 339.992829,165.956067 C339.723267,164.663772 339.452866,163.36812 339.16315,162.0817 C338.358664,158.511106 337.445009,154.9531 336.524636,151.46726 C322.476356,138.034947 303.114099,123.842362 277.415881,108.134267 C267.594094,102.130131 257.398615,98.2347855 246.606069,94.1111904 C235.828639,89.9926301 224.684235,85.7347706 213.95719,79.1877032 C211.217906,77.5161115 207.675814,74.0353071 203.924624,70.3497496 C198.413304,64.9346988 191.554176,58.1937872 187.577931,57.9537896 C185.476021,57.8270775 183.182647,58.9053884 181.123565,60.5660711 C183.335483,65.7931518 184.358306,71.1788322 182.75941,76.8137409 Z M396.381614,258.839334 C397.952797,258.839334 399.598719,259.012199 401.325258,259.377231 C410.688539,261.355113 417.944032,271.201728 424.961874,280.723591 C430.204471,287.838764 435.625937,295.196453 441.585686,298.673062 C455.494567,306.791023 466.95052,307.586539 480.214468,308.507928 C481.574873,308.601913 482.948714,308.697577 484.343549,308.801632 C484.368742,307.297871 484.593796,305.735369 485.024591,304.139301 C485.768615,301.381007 487.034968,298.774599 488.676691,296.467769 C487.272619,295.277012 485.723268,294.098003 484.078186,292.935776 C475.439615,296.030571 464.707531,293.723741 452.081798,286.0413 C442.130688,279.987654 407.761149,243.094317 407.406772,227.43741 C405.526558,230.752062 403.656421,233.928254 401.845067,237.007105 C397.212972,244.879194 392.877311,252.246113 389.47294,260.069531 C391.598363,259.273176 393.894256,258.839334 396.381614,258.839334 Z M487.697535,309.071839 C489.588666,309.235474 491.521785,309.4268 493.510327,309.663441 C494.172895,309.742322 494.894245,309.848894 495.67102,309.977284 C495.954017,309.175055 496.08418,308.366112 496.060666,307.551295 C495.975851,304.666289 494.109913,301.700724 491.185882,298.768725 C489.878382,300.67444 488.865636,302.795818 488.26773,305.012858 C487.978853,306.084456 487.704253,307.50682 487.697535,309.071839 Z M499.011569,310.580635 C499.753074,310.722452 500.52565,310.873499 501.325937,311.029582 C509.333012,312.590405 522.73384,315.201008 524.943239,311.51629 C525.532748,310.533642 526.07607,307.232417 518.412455,297.831392 C517.08732,296.206793 515.704242,294.84317 514.276656,293.745559 C511.313997,296.840353 508.769536,296.627208 507.44608,296.173227 C505.525558,295.514492 503.970329,293.663322 502.787113,290.633981 C502.657791,290.657477 502.527628,290.68433 502.396626,290.712022 C499.080429,291.418589 495.866683,293.413254 493.291151,296.153926 C496.940731,299.762282 499.302965,303.542663 499.418011,307.453953 C499.449082,308.517159 499.313042,309.560226 499.011569,310.580635 Z M488.157721,312.482154 C488.533092,313.760184 489.170467,315.034017 490.186572,316.207152 C491.661184,315.184225 492.859516,314.141998 493.780729,313.082988 C493.549796,313.0511 493.32642,313.022569 493.113122,312.996555 C491.427732,312.795997 489.777611,312.628167 488.157721,312.482154 Z M387.57929,319.687957 C390.430262,319.687957 392.934415,320.093267 395.080831,320.904728 C395.698892,316.338899 395.0506,311.038812 392.621186,304.723351 C390.075885,304.036085 386.784041,303.86238 383.010177,304.028533 C383.759239,309.532534 385.091092,314.729405 386.874734,319.696348 C387.111546,319.690474 387.346677,319.687957 387.57929,319.687957 Z M367.731654,305.81341 C367.345366,307.485002 366.988469,309.083587 366.655926,310.576439 C366.114283,313.000751 365.647379,315.094436 365.19727,316.896935 C364.588446,319.336352 363.974585,321.711992 363.373319,324.032249 C366.072295,323.512813 368.737681,322.909463 371.377875,322.311986 C374.481613,321.610455 377.691161,320.884588 380.817573,320.332426 C381.726189,320.171308 382.610453,320.04124 383.469523,319.940541 C381.733747,314.960172 380.426247,309.748196 379.677185,304.250069 C375.97302,304.568108 371.922037,305.134536 367.731654,305.81341 Z M388.157882,323.044566 C389.180705,325.553632 390.316055,328.008992 391.546298,330.419877 C392.758066,328.517519 393.726305,326.471665 394.376276,324.237841 C392.651417,323.495191 390.57554,323.097433 388.157882,323.044566 Z M566.997386,308.667367 C564.641031,320.845148 573.176312,329.328979 580.944056,334.36725 C584.582719,336.727786 588.682409,338.76357 593.074333,340.469567 C592.869433,336.616179 591.196639,332.157762 588.022361,326.969282 C583.087953,318.898314 575.137982,310.10064 567.099836,308.554921 C567.065406,308.592683 567.031816,308.630445 566.997386,308.667367 Z M393.351773,333.807536 C395.415054,337.526659 397.693313,341.152637 400.116849,344.727427 C400.455271,343.748975 400.689562,342.703391 400.807128,341.577248 C401.569627,334.29844 400.411603,329.123387 397.364968,326.192227 C396.42696,328.982409 395.043042,331.499027 393.351773,333.807536 Z M623.857274,311.363564 C627.018956,323.593372 630.602195,335.448079 634.152684,346.768245 C645.672459,346.101958 655.939317,343.256392 662.342458,338.112388 C669.954007,331.996645 671.730931,323.354214 667.622005,312.425092 C664.524144,304.182937 659.616609,297.593912 654.163233,291.072858 C653.531736,294.673661 652.283859,297.97153 650.156757,300.817096 C645.820256,306.6148 638.383376,309.968893 627.41868,311.073217 C626.264015,311.18986 625.07492,311.286362 623.857274,311.363564 Z M596.449313,341.696408 C607.225064,345.355113 619.416644,347.119011 630.674414,346.903349 C627.132323,335.584021 623.565879,323.739385 620.425191,311.521325 C605.031621,311.965237 586.412548,309.060091 576.382501,299.265503 C576.052477,298.943269 575.734209,298.615999 575.426019,298.282856 C573.614665,300.867445 571.664751,303.337071 569.615746,305.720264 C580.179038,308.90233 588.421245,321.182487 590.889288,325.21881 C594.724454,331.489797 596.561841,336.920791 596.449313,341.696408 Z M362.445389,327.622143 C359.209808,340.198521 356.707335,350.979112 357.771306,361.841102 C361.134529,355.475291 367.889528,350.670304 374.496729,345.967694 C379.908957,342.117662 385.396764,338.212247 389.375528,333.392155 C387.633034,330.087573 386.050094,326.693201 384.672054,323.186383 C383.631596,323.286242 382.540753,323.436451 381.402044,323.637847 C378.355408,324.176583 375.326408,324.861331 372.119379,325.58552 C368.938383,326.305513 365.721277,327.033058 362.445389,327.622143 Z M191.939624,339.089161 C198.388951,348.846826 210.331963,358.042258 221.677908,361.843619 C223.916698,362.593821 227.107771,363.412834 230.724601,364.055625 C223.42544,352.264694 215.389814,343.018073 206.65635,339.470136 C201.747976,337.47631 196.916019,337.34792 191.939624,339.089161 Z M359.801836,371.795967 C359.82535,371.795967 359.848863,371.795967 359.873216,371.795967 C366.419954,371.795967 372.46116,367.499507 378.321818,363.330597 C379.531907,362.468788 380.722681,361.622922 381.894141,360.831601 C383.383028,359.826297 384.865198,358.876376 386.298662,357.957504 C391.403539,354.683131 395.793784,351.868614 398.39031,348.11005 C395.8089,344.358199 393.353453,340.524112 391.111304,336.564151 C386.926799,341.244944 381.558238,345.063927 376.444963,348.702492 C367.615767,354.985226 359.834587,360.521954 359.017504,369.026764 C359.249277,369.945636 359.510441,370.868704 359.801836,371.795967 Z M811.85096,378.168491 C813.118992,378.630864 814.384504,379.102468 815.645818,379.571554 C827.900379,384.134865 838.482986,388.073007 842.610387,380.742171 C844.810549,376.839273 842.047751,374.363774 832.929679,367.718525 C824.297825,361.427399 811.251374,351.919802 800.498297,334.522494 C798.923754,331.976505 797.345013,330.64477 795.80574,330.565051 C795.751995,330.561694 795.698251,330.560016 795.645346,330.560016 C792.227539,330.560016 787.966616,336.082478 783.843414,341.426201 C781.395524,344.599875 778.874576,347.865018 776.208351,350.490726 C779.79159,350.390866 784.033198,351.945816 789.50253,355.865497 C794.103554,359.163366 797.780006,363.451435 801.335534,367.599366 C804.567755,371.368839 807.619429,374.929362 811.253893,377.715349 C811.451236,377.867235 811.650258,378.018283 811.85096,378.168491 Z M675.320049,338.930561 C674.198975,338.930561 672.811697,340.201038 671.388311,342.542274 C667.988978,348.132707 675.545104,373.409657 679.463406,381.18944 C683.749521,389.705998 689.771412,394.698955 697.360288,396.028172 C718.362589,399.708695 746.39113,375.039291 754.48134,367.391256 C756.988012,365.02065 759.178936,362.650884 761.110375,360.560555 C761.524375,360.114126 761.930817,359.673571 762.3339,359.242246 C758.560876,360.643631 754.7593,361.488658 750.854434,362.35718 C746.414643,363.344024 741.825376,364.364433 737.049683,366.298679 C732.89205,367.982858 728.720141,371.194295 724.685953,374.299998 C719.189749,378.532683 713.5046,382.909702 707.27361,384.014027 C694.302736,386.319179 691.719647,378.162617 688.717518,368.725508 C688.063348,366.66455 687.386505,364.533942 686.562704,362.34795 C686.187333,361.348519 685.722108,359.836366 685.184664,358.085894 C683.470722,352.504691 679.458367,339.434892 675.497238,338.940631 C675.439294,338.934757 675.380511,338.930561 675.320049,338.930561 Z M300.478944,369.077952 C298.711257,371.083527 297.472617,373.790633 296.723554,377.263045 C295.581486,382.551384 297.860584,391.769474 300.572997,401.328259 C303.526419,397.164385 304.546723,390.628226 303.529778,382.104955 C303.230825,379.599246 302.107231,375.305303 300.807289,370.334164 C300.69896,369.920461 300.589792,369.502563 300.478944,369.077952 Z M266.968475,385.032758 C267.869534,393.767496 274.267636,400.338059 279.918355,403.486559 C281.377011,404.299698 282.854982,404.944167 284.320356,405.417449 C279.10967,396.970541 272.871961,388.939013 266.968475,385.032758 Z M290.726856,409.745798 C291.57417,411.276412 292.256892,412.572902 292.749828,413.531214 C295.110383,418.122217 295.799823,423.527198 296.466589,428.755118 C297.295428,435.253515 298.08144,441.417929 301.919126,445.382924 C308.150956,439.738784 303.255178,422.686368 298.848138,407.478408 C296.490102,408.920911 293.70799,409.67363 290.726856,409.745798 Z M360.974136,375.119011 C362.511729,379.051279 364.626235,383.085924 367.440258,387.305183 C380.684052,407.167082 398.239154,425.299488 418.210234,439.740463 C428.084927,446.880811 435.505852,449.002188 439.671042,445.87215 C445.333518,441.617647 445.29153,426.989541 439.571111,411.090959 C433.539143,394.32805 422.433368,379.934907 411.693727,366.015885 C407.886273,361.07999 404.047747,356.105495 400.408244,350.9917 C397.345654,354.861032 392.807611,357.771212 388.112535,360.782091 C386.695866,361.690893 385.231332,362.629905 383.774355,363.613392 C382.625568,364.389608 381.457468,365.220369 380.269213,366.065395 C374.537037,370.141998 368.149852,374.68433 360.974136,375.119011 Z M491.343756,502.047532 C482.682511,502.118021 472.895994,504.780652 469.414365,510.345911 C466.800204,514.525729 467.391392,515.557048 467.400629,515.563761 C469.779659,517.286541 484.918782,509.959062 488.99076,505.09953 C489.81456,504.116882 490.596373,503.096473 491.343756,502.047532 Z M563.253753,312.608866 C559.880453,316.048552 556.380349,319.353135 552.909637,322.629186 C546.223499,328.939612 539.310627,335.46654 533.584329,342.705908 C524.272274,354.475861 519.652775,369.751792 515.186112,384.52591 C512.643331,392.934217 510.014054,401.628676 506.557618,409.473073 C499.742997,424.939492 492.798214,440.348848 486.081844,455.251357 C476.079509,477.445261 465.736233,500.395241 455.806116,523.582702 C455.022624,525.409537 453.414491,528.014266 451.552752,531.029341 C447.673918,537.311236 441.180924,547.824977 443.685076,550.883688 C448.324729,556.553001 461.61219,547.0689 467.996016,542.511463 C469.176714,541.668954 470.196178,540.941409 470.975471,540.4354 C473.912098,538.530524 477.428997,536.671802 481.152476,534.703989 C498.543825,525.509396 510.349957,517.920101 503.471514,504.285552 C501.432586,503.199689 498.553063,502.499835 495.309085,502.205293 C494.15526,503.95073 492.916619,505.642461 491.566292,507.255312 C487.654708,511.923518 470.472457,521.938802 465.428042,518.280097 C462.031229,515.817185 465.444837,510.360176 466.565912,508.566908 C471.086319,501.341805 483.356836,498.313304 493.53468,498.746307 C496.022038,494.740193 498.139903,490.451285 500.211581,486.255522 C502.653592,481.311236 505.178739,476.19828 508.289195,471.552732 C509.268351,470.09009 510.239109,468.651782 511.20063,467.22774 C517.078083,458.521534 522.629711,450.298679 527.477623,440.325352 C531.279199,432.502773 533.313928,423.913208 535.282316,415.607277 C538.669893,401.308959 542.172515,386.523932 554.658849,374.440976 C560.401102,368.884947 567.289621,364.973658 573.951407,361.190758 C583.03085,356.035006 590.871653,351.583302 592.693924,344.532743 C592.745989,344.331347 592.793855,344.126593 592.835843,343.921001 C587.756158,342.029551 583.095511,339.765518 579.115067,337.183446 C568.702091,330.429108 563.237798,321.87227 563.253753,312.608866 Z M447.696592,556 C445.126098,556 442.833564,555.144904 441.085191,553.009261 C437.065279,548.097701 443.243365,538.094165 448.694222,529.266281 C450.486261,526.365331 452.033092,523.859622 452.717493,522.261037 C462.660206,499.045045 473.0102,476.080799 483.019254,453.872629 C489.732264,438.976834 496.674528,423.574191 503.483271,408.121198 C506.857411,400.463093 509.34141,392.250308 511.970686,383.554171 C516.528882,368.481315 521.241594,352.894897 530.948335,340.623971 C536.826628,333.194115 543.829354,326.582433 550.602827,320.18977 C555.210569,315.838764 559.732656,311.569996 563.896167,307.104026 C563.961668,306.821232 564.031368,306.536759 564.106946,306.252287 C564.309327,305.483623 565.031517,304.959153 565.81333,305.004467 C568.49803,301.995266 571.006382,298.880332 573.256928,295.580785 C570.101965,291.016635 568.748278,285.608297 569.226099,279.443883 C569.585515,274.816797 570.698191,270.284534 571.775599,265.900802 C573.670088,258.183117 575.630079,250.202777 573.545805,241.351397 C572.015769,234.857196 568.088229,228.839634 564.290012,223.020951 C561.57928,218.868824 558.776174,214.574881 556.848933,210.117304 C555.864739,207.841522 554.995592,205.384484 554.250728,202.791503 C553.563807,204.089671 552.851694,205.439029 552.121946,206.821952 C538.158481,233.283785 526.039121,255.356851 519.130447,257.436271 C517.806991,257.834869 516.821118,257.529417 516.22573,257.203826 C515.57408,256.847186 515.233978,256.106214 515.388494,255.380348 C518.960816,238.657718 533.395384,204.580576 552.530068,195.374234 C549.052637,176.189531 551.786044,152.363475 563.744171,137.10097 C568.440927,131.107744 572.504507,128.390568 576.541215,128.530706 C582.152465,128.733781 586.053132,134.528968 590.181374,140.664851 C590.826306,141.624002 591.474598,142.587349 592.132967,143.536431 C599.539616,136.469928 607.715482,130.855159 616.70759,128.221059 C623.376933,126.265834 629.544942,125.69521 635.06214,126.484014 C635.986712,123.625021 636.512399,120.878475 636.482168,118.471786 C636.425904,113.975607 635.697835,111.184586 634.255974,109.938445 C632.610892,108.518599 629.693579,108.907126 626.00453,109.399709 C620.768651,110.097884 614.254663,110.966407 607.835567,106.841972 C599.011409,101.173497 595.767431,88.8245299 599.368306,74.6134832 C602.842377,60.9059279 613.125191,45.659367 627.492578,44.5768603 C636.281466,43.9105733 642.941572,45.9824407 647.288989,50.7228129 C656.543102,60.8136211 653.325996,80.4296488 650.977198,94.7523028 C650.581673,97.1615095 650.203783,99.4683396 649.930022,101.490697 C674.131794,102.158662 709.447738,92.270929 729.121545,72.1262353 C738.713239,62.3056342 743.472977,51.2388916 743.296628,39.1962148 C725.060484,48.7122036 698.750085,43.9701531 673.271044,39.3783109 C645.560771,34.3836755 619.386412,29.6667996 604.151557,42.1592621 C595.409695,49.3281415 591.000976,61.6670391 590.67515,79.8791648 C590.608809,83.578988 591.229389,86.9993733 591.828135,90.305634 C593.162508,97.6717142 594.422982,104.629966 587.280016,111.710735 C583.407901,115.549018 578.019185,117.333056 572.314722,119.221149 C566.147553,121.263646 559.769605,123.374954 555.403713,128.285674 C545.258619,139.69563 539.684318,156.629726 534.293923,173.005786 C531.327905,182.017445 528.525639,190.529807 525.020496,198.12078 L523.199905,202.050531 C513.590576,222.759974 503.662979,244.155844 503.342192,267.343305 C504.583351,266.658557 505.990783,266.118982 507.609833,265.767377 C514.391703,264.294664 517.631482,266.900232 519.1548,269.346362 C522.783386,275.178471 520.112122,285.260888 516.3307,291.106424 C517.969064,292.361796 519.539408,293.899963 521.016539,295.711693 C527.825282,304.063777 529.988494,309.634071 527.824442,313.241587 C524.404115,318.947824 511.801895,316.489947 500.682684,314.324094 C499.5952,314.112628 498.529549,313.903679 497.520163,313.715709 C496.093417,315.859743 493.868063,317.888814 490.855018,319.788655 C490.215964,320.191448 489.387964,320.118442 488.830366,319.612433 C486.639442,317.626159 485.225293,315.076814 484.643342,312.190969 C483.06628,312.07097 481.514411,311.962719 479.981856,311.856147 C466.29719,310.905387 454.478462,310.084696 439.891058,301.571494 C433.332563,297.744959 427.701998,290.103637 422.257019,282.71406 C415.612029,273.698206 408.741984,264.375223 400.62994,262.661673 C395.538498,261.585041 391.212075,262.551744 387.518827,264.901371 C384.741754,272.350528 382.872457,280.356042 382.41395,289.681543 C382.225844,293.497169 382.30982,297.165105 382.631447,300.701293 C387.282016,300.483114 391.338878,300.741572 394.413225,301.756947 C394.882649,301.91219 395.259699,302.266312 395.444446,302.725329 C398.612006,310.607488 399.280452,317.101689 398.28618,322.603172 C398.728732,322.920372 399.14861,323.263585 399.544975,323.631973 C403.48679,327.301587 405.0353,333.45677 404.147678,341.926336 C403.910867,344.192047 403.286928,346.183356 402.365716,347.974107 C406.152176,353.336292 410.225833,358.6154 414.354074,363.966675 C425.252429,378.091289 436.521117,392.695898 442.731113,409.954747 C448.062725,424.772501 449.808578,442.454282 441.689816,448.55492 C436.151624,452.714599 427.588631,450.666228 416.241006,442.460156 C395.949139,427.785897 378.10768,409.35727 364.64471,389.167262 C361.370501,384.256542 358.99819,379.55561 357.349748,374.976355 C357.31028,374.970481 357.270811,374.964607 357.231343,374.958733 C356.499076,374.850482 355.923843,374.275663 355.815514,373.543922 C355.592139,372.031769 355.538394,370.594301 355.633287,369.223126 C352.405264,355.63473 355.1076,342.792341 358.829399,328.205354 C353.354189,328.978213 347.700951,329.228281 341.762195,328.306052 C338.169718,327.746338 332.596257,324.562593 326.695291,321.192557 C319.666532,317.178891 310.92467,312.190129 307.745354,313.334733 C292.686007,318.79342 297.7363,344.578897 302.471685,363.346541 C309.620529,359.672732 319.510337,361.465161 327.446872,363.490036 C344.561102,367.855307 345.241305,373.727696 347.057697,389.422364 L347.140833,390.142357 C351.956835,431.674529 346.542927,459.691312 331.049426,473.413133 C323.66797,479.950131 315.854039,482.777235 307.820932,481.823958 C293.403159,480.107052 281.022634,466.32733 273.175953,455.070939 C268.594243,448.498697 263.340729,435.569036 257.257536,420.597717 C250.496659,403.955646 242.376217,383.969552 232.978506,367.814189 C228.061734,367.12021 223.627822,366.036864 220.609738,365.026524 C207.918504,360.774539 194.508438,350.123177 187.999488,339.123566 C187.755119,338.710703 187.698856,338.212247 187.846653,337.754909 C187.99445,337.297571 188.330352,336.925826 188.771224,336.732821 C195.177724,333.926695 201.621172,333.801662 207.921023,336.360237 C218.105585,340.497259 227.094335,351.18974 235.125763,364.71436 C243.711429,365.754909 253.38542,365.468758 258.423957,361.197472 C261.333712,358.730363 262.368291,355.173196 261.587318,350.322895 C261.475631,349.631433 260.183246,346.940272 248.228478,341.360747 C240.704263,337.848894 231.872547,334.532563 226.028684,332.339019 C224.743858,331.856506 223.609347,331.430217 222.673019,331.07106 C207.328995,325.188601 187.999488,324.844548 173.429719,330.193306 C130.916225,345.801542 140.553267,373.200708 151.712786,404.924867 C159.03378,425.737526 166.603342,447.25759 158.872547,466.569845 C147.410715,495.201727 118.597843,492.446789 90.7338945,489.788354 C60.7126127,486.920131 32.3557276,484.213025 26.3363557,519.844277 C26.1818406,520.758954 25.319411,521.379926 24.399878,521.219648 C23.4853836,521.066083 22.8698424,520.199239 23.0235177,519.285402 C29.5635385,480.573621 60.8226208,483.560165 91.0538416,486.446849 C118.912751,489.108641 145.22651,491.621902 155.753693,465.322864 C163.015904,447.182067 155.6588,426.266192 148.543546,406.038422 C142.910462,390.022358 137.589767,374.894957 139.178586,361.21845 C140.977344,345.736927 151.8018,334.557738 172.271696,327.043128 C187.560296,321.428359 207.816893,321.779964 223.87639,327.937664 C224.806,328.294304 225.932952,328.717237 227.210221,329.196393 C249.799661,337.678546 263.984822,344.08044 264.903515,349.789194 C265.874273,355.81347 264.424854,360.511884 260.597246,363.756887 C255.24632,368.292506 245.902353,369.043547 237.194082,368.295023 C245.979611,383.914168 253.594519,402.656638 260.370512,419.334793 C266.377287,434.118981 271.565301,446.888363 275.932032,453.151797 C283.385708,463.845117 295.038164,476.92079 308.218976,478.490845 C315.262011,479.325801 322.189159,476.774778 328.821553,470.900711 C343.240166,458.132167 348.420622,430.339438 343.804482,390.529206 L343.720506,389.807535 C341.91839,374.236222 341.490114,370.537238 326.615514,366.741752 C318.988849,364.796597 309.470213,363.044446 303.332435,366.705668 C303.579324,367.658106 303.822013,368.587048 304.056305,369.484941 C305.443582,374.785867 306.539464,378.972399 306.865289,381.706358 C308.402883,394.592383 305.320138,401.505321 301.688193,405.211018 C301.790643,405.566818 301.893933,405.922619 301.997223,406.277581 C307.216307,424.28747 312.61342,442.910781 302.676586,448.991279 C302.061884,449.366381 301.276712,449.310157 300.724153,448.848624 C295.039004,444.110769 294.070765,436.520635 293.134437,429.179729 C292.50462,424.239639 291.852969,419.131718 289.762816,415.065185 C288.81809,413.229119 287.796947,411.343544 286.714501,409.448738 C283.92819,408.980491 281.064622,407.968473 278.28335,406.419397 C268.958697,401.223365 263.16354,391.657867 263.518757,382.048732 C263.538911,381.489017 263.838704,380.974617 264.318205,380.681752 C264.797706,380.38721 265.391413,380.351126 265.901145,380.587767 C274.889895,384.737376 283.591448,397.496689 288.78534,406.340517 C292.05619,406.622472 295.080991,405.974646 297.464219,404.378579 C297.601939,404.286272 297.73714,404.191448 297.869822,404.094945 C294.713178,393.11967 292.053671,382.978513 293.439268,376.55564 C294.498201,371.652472 296.535449,367.888873 299.509865,365.334493 C294.410866,345.353434 288.50906,316.735818 306.599926,310.17952 C311.239579,308.498698 319.555684,313.24914 328.362207,318.27818 C333.739165,321.349478 339.29919,324.524831 342.279485,324.988043 C348.293818,325.925377 354.094014,325.559506 359.738855,324.671683 C359.821991,324.34777 359.905966,324.023857 359.990782,323.697427 C360.630676,321.226123 361.287365,318.692722 361.938176,316.083797 C362.378208,314.322416 362.840914,312.248031 363.377518,309.845537 C363.621887,308.750443 363.878013,307.603322 364.148414,306.413404 C361.515779,306.865707 358.850393,307.347381 356.202642,307.825697 C337.965658,311.121888 320.74142,314.235983 315.203228,307.987654 C312.525246,304.965866 313.567383,295.809034 315.462713,282.183716 C316.281475,276.297901 317.05489,270.739355 316.91717,267.901341 C316.29743,255.152098 312.977874,245.741003 308.774895,233.826717 C308.30883,232.505052 307.833528,231.156534 307.349829,229.771093 C304.167153,220.647828 302.536346,210.420238 300.959284,200.529148 C298.573537,185.569577 296.107173,170.100641 288.228581,158.410408 C278.766209,144.369709 261.735115,132.342137 246.708519,121.730215 C242.22758,118.565771 237.995209,115.57671 233.990412,112.575062 C224.608657,105.542964 214.346837,99.6403659 204.422599,93.9324509 C196.593553,89.4295588 188.555407,84.8058288 180.863241,79.5846223 C180.822932,79.5904964 180.781784,79.5946921 180.739796,79.5980487 C175.382992,79.9563668 173.006482,77.9734496 171.949229,76.2431172 C171.255591,75.1094223 170.924727,73.7323731 170.945721,72.201759 C154.256407,58.016726 127.199465,24.5815357 141.277976,5.6771093 C141.546698,5.31627375 141.948102,5.0787936 142.393172,5.01669632 C142.837403,4.95292074 143.290032,5.07375869 143.646928,5.34648323 C148.648516,9.17385756 150.483383,14.6535231 152.258628,19.9519316 C153.864241,24.7451704 155.387559,29.2916984 159.120275,32.5946025 C159.322656,32.454464 159.528396,32.3134864 159.735816,32.1708305 C160.780473,31.452516 161.862079,30.7090269 162.625417,30.1140678 C163.072167,29.7666587 163.663356,29.6676387 164.19996,29.8497348 C164.734884,30.0318309 165.143006,30.4715468 165.284085,31.0195133 C166.657926,36.3439356 170.043823,41.6574489 173.628742,47.2822878 C175.755844,50.6204363 177.907299,53.9980249 179.65987,57.4377108 C182.146388,55.5966103 184.955372,54.4327059 187.781152,54.6030538 C193.012832,54.9194143 199.756914,61.5470403 206.28014,67.9564868 C209.888572,71.502745 213.297982,74.8526416 215.708082,76.3228367 C226.171443,82.709626 237.169729,86.9121015 247.80608,90.9752777 C258.266083,94.9721608 269.082142,99.1049866 279.168453,105.27024 C302.760561,119.691075 321.080681,132.869964 334.909785,145.381727 C329.677265,125.564303 325.501997,106.666589 337.676782,86.1199416 C353.020806,60.2278927 376.819494,48.4747235 401.342053,54.681095 C427.312351,61.2550153 444.25779,79.0181944 454.669926,110.584592 C454.919334,111.33899 454.605265,112.163877 453.917505,112.561635 C453.229745,112.960233 452.358078,112.822612 451.826512,112.232688 C447.898973,107.871612 439.258722,106.090931 430.902309,104.36899 C430.043238,104.191929 429.178289,104.014028 428.309142,103.831093 C433.052924,109.491176 436.9939,111.321368 445.352832,115.201609 C446.696442,115.825938 448.018218,116.430128 449.314802,117.023409 C466.411397,124.840953 479.954984,131.034737 481.89734,154.263316 C482.332333,154.793661 482.92856,155.790574 482.003989,156.742173 C480.866119,157.91279 479.58885,156.786648 479.169812,156.415742 C478.951475,156.222737 478.788562,155.977705 478.695349,155.706659 C466.100687,141.553513 454.82864,149.332457 441.799824,158.323975 C431.030791,165.755509 419.893945,173.439628 407.349668,168.341777 C401.860183,166.110471 398.934472,161.749395 396.353062,157.901042 C392.994877,152.897176 390.096039,148.574702 382.328295,148.573024 C382.142709,148.597359 381.96384,148.575541 381.784133,148.581415 C380.665577,156.370428 381.417159,163.456231 384.022083,171.642164 C384.218586,172.25978 384.452878,172.897536 384.714042,173.548718 C385.724268,172.866487 386.841144,172.272367 388.09406,171.806638 C398.129986,168.076605 403.937739,171.623702 407.041478,175.256393 C415.50454,185.161749 414.395222,207.097194 410.493715,220.072169 C410.92535,219.801123 411.396453,219.619866 411.906185,219.529237 C417.071525,218.6154 423.313432,227.977824 429.792991,238.4966 C430.75955,240.064976 431.593428,241.418529 432.06957,242.08062 C433.944745,244.687028 435.785491,247.421826 437.734565,250.316902 C442.475828,257.359908 447.377484,264.642073 452.824982,270.027754 C454.937809,272.116404 460.319806,275.085325 466.550796,278.521655 C472.420692,281.759944 478.873378,285.31879 484.494705,289.136094 C485.317666,288.755958 486.114595,288.313725 486.884651,287.811912 C490.383915,285.52606 492.333829,281.937844 494.398789,278.138162 C495.989287,275.20952 497.610856,272.226333 499.986526,269.87335 C499.984847,269.755868 499.983167,269.636709 499.981488,269.517549 C499.685894,244.74409 510.090472,222.322776 520.15243,200.638237 L521.969662,196.714361 C525.395028,189.297931 528.167902,180.874519 531.10285,171.956846 C536.600733,155.256034 542.284203,137.986276 552.892002,126.056046 C557.856641,120.472325 564.670422,118.216684 571.258309,116.035726 C576.577324,114.274345 581.602425,112.611145 584.914423,109.327542 C590.802793,103.490397 589.796765,97.9360472 588.522855,90.9039497 C587.894718,87.4365718 587.244746,83.8508733 587.316126,79.819585 C587.662105,60.5635537 592.471388,47.3964126 602.020255,39.5646027 C618.455123,26.0886535 645.370147,30.9389547 673.867271,36.0754068 C699.882076,40.7637516 726.782824,45.6123745 743.965074,34.9542992 C744.463889,34.6463302 745.088668,34.6194773 745.610996,34.8846495 C746.135004,35.1506608 746.481823,35.6709354 746.524651,36.2558246 C747.576026,50.3460334 742.529931,63.2035273 731.525767,74.4699881 C710.668744,95.826418 672.893154,106.020442 647.954916,104.774301 C647.49305,104.750804 647.060576,104.53766 646.760783,104.186055 C646.46015,103.83445 646.319071,103.374594 646.369456,102.914739 C646.642377,100.430847 647.137833,97.4090595 647.662681,94.2093712 C649.899791,80.5655915 652.964061,61.8793447 644.812548,52.991042 C641.146173,48.9924805 635.568513,47.3368327 627.745345,47.9242395 C615.599112,48.8389156 605.914205,62.4575208 602.62488,75.4375309 C600.088816,85.4435847 600.603587,98.2054152 609.651119,104.018224 C615.033956,107.476371 620.624213,106.729526 625.560299,106.072469 C629.727169,105.516111 633.664786,104.990802 636.451936,107.400009 C638.694085,109.335933 639.770653,112.840234 639.841192,118.428989 C639.874782,121.089942 639.328941,124.067255 638.365741,127.139392 C642.53597,128.210989 646.272884,130.14104 649.497548,132.920313 C651.440744,130.871103 653.430126,128.967905 655.462336,127.241768 C667.262589,117.216414 682.698146,111.486681 697.625651,105.944918 C707.256814,102.36929 717.215482,98.6719839 725.859092,93.9005631 C731.697917,90.6773785 737.510709,86.9909818 743.131196,83.4262622 C747.780926,80.4774805 752.59021,77.4271613 757.3743,74.6663498 C762.232289,71.8619023 765.420843,68.7486467 768.234866,66.0029399 C773.096215,61.2566936 776.995202,57.4511372 785.156792,61.4362722 C785.123202,61.3036861 785.091291,61.1702609 785.0619,61.0343182 C785.014873,60.818656 785.011514,60.5971198 785.050983,60.3797793 C787.140296,48.8884256 795.531979,48.5485689 808.23497,48.0324901 C819.897503,47.5592081 835.870505,46.9113824 856.785471,38.3050349 C860.413217,36.8121827 861.857598,37.8829412 862.428632,39.0451674 C864.099747,42.4546438 857.457276,50.0044984 853.493627,52.2685317 C830.186195,66.3847542 811.865236,72.025537 797.056976,69.460248 C798.365316,71.2325379 798.772598,73.5737733 796.684964,77.0310814 C795.006292,79.8111934 789.878741,82.4746633 783.350477,85.6693167 C781.224214,86.7090266 779.216357,87.6916741 778.074289,88.406632 C770.753295,92.9867261 763.685907,97.8580061 756.851132,102.569008 C749.515023,107.625741 741.929505,112.8545 733.950143,117.78452 C724.996663,123.315374 715.05479,127.868615 705.440422,132.271648 C689.842792,139.413675 673.823604,146.749545 661.522016,158.521176 C662.132519,163.890912 662.027549,169.696169 661.152523,175.747297 C659.840824,184.82357 657.587759,193.336772 655.408591,201.569697 C651.193016,217.501845 647.210892,232.550366 649.814976,250.799414 C650.365016,254.650285 651.121636,258.648846 651.853064,262.5165 C653.399055,270.691523 654.975277,279.027664 654.650292,286.449967 C660.894718,293.770733 667.094638,301.477509 670.766891,311.245244 C676.5906,326.736837 670.544356,335.829054 664.446887,340.728026 C657.311479,346.461115 646.785136,349.447659 635.230091,350.192826 C636.050533,352.789164 636.865096,355.35781 637.670423,357.892889 C644.7714,380.250428 654.296754,403.110619 675.727331,418.858993 C696.894224,434.412684 716.937523,419.311296 736.323294,404.707526 C738.283284,403.230618 740.223121,401.768814 742.141964,400.358199 C745.568169,397.839903 748.919635,395.057273 752.160254,392.367789 C761.820809,384.351366 771.809708,376.061379 785.182825,373.49609 C790.992257,372.381696 797.346692,373.510356 803.822052,375.452994 C802.07116,373.617767 800.413482,371.683521 798.784355,369.78284 C795.35815,365.787636 791.816058,361.655649 787.544219,358.592742 C775.48868,349.95199 771.755964,353.992509 763.578419,362.838854 C761.61003,364.967784 759.378798,367.382025 756.78899,369.829833 C746.052708,379.980221 718.702691,403.173556 696.780857,399.333594 C688.088541,397.812211 681.252926,392.215064 676.462117,382.698236 C673.571677,376.957594 663.721337,348.689065 668.518024,340.799354 C670.808879,337.031559 673.289519,335.276892 675.913757,335.610874 C681.563636,336.314923 685.042746,346.177482 688.396732,357.100729 C688.91738,358.798335 689.36749,360.265173 689.706751,361.166423 C690.560783,363.434652 691.251063,365.607218 691.919508,367.709295 C694.851097,376.929063 696.623822,382.494322 706.68662,380.710284 C712.106406,379.747776 717.459851,375.626698 722.636108,371.640724 C726.849165,368.3974 731.20498,365.044147 735.788369,363.187941 C740.822707,361.148801 745.551374,360.097343 750.123846,359.08029 C757.949533,357.339888 765.341067,355.696827 772.709087,349.168221 C775.613803,346.594541 778.444621,342.924927 781.183066,339.37699 C786.117473,332.982649 790.798274,326.955856 795.979569,327.212637 C798.723892,327.354453 801.136512,329.168701 803.355147,332.758595 C813.763925,349.596189 825.984896,358.502953 834.908984,365.007224 C843.315783,371.132198 849.387219,375.557888 845.541136,382.387749 C841.728643,389.160549 834.657057,389.079151 826.332555,386.773999 C841.182802,393.677706 859.119993,396.819493 873.748545,390.469627 C896.892224,380.422454 903.753031,358.105195 910.395502,336.523033 C911.294042,333.59523 912.226171,330.568407 913.175095,327.633052 C927.324986,284.102019 949.167043,259.608837 979.9609,252.75464 C980.85944,252.554921 981.757979,253.123027 981.95952,254.027634 C982.161062,254.933079 981.590027,255.829294 980.691488,256.03153 C951.157265,262.60545 930.121374,286.365213 916.374566,328.670244 C915.425642,331.579586 914.50191,334.593822 913.603371,337.508198 C906.742563,359.817066 899.646624,382.885367 875.092155,393.547638 C854.157034,402.635659 827.084136,393.6047 810.239468,381.154195 C801.649603,378.037583 793.043782,375.406001 785.815161,376.792281 C773.290198,379.194774 764.069676,386.847845 754.306671,394.950701 C751.028263,397.671233 747.638168,400.484911 744.133026,403.062787 C742.22426,404.464172 740.2945,405.918423 738.344587,407.387779 C718.926905,422.017563 696.917737,438.598376 673.737948,421.562742 C651.474334,405.201787 641.393901,380.709444 634.469272,358.908264 C633.574092,356.092068 632.668835,353.239789 631.75686,350.34807 C619.839881,350.656039 607.118415,348.711722 596.028595,345.042109 C596.001723,345.152877 595.974851,345.262806 595.946299,345.371896 C593.767972,353.798665 584.948853,358.806726 575.610765,364.109331 C569.131207,367.788175 562.430792,371.593731 556.995891,376.851861 C545.214952,388.251747 541.977692,401.914827 538.550647,416.380137 C536.541111,424.863129 534.462714,433.635629 530.498226,441.792191 C525.547863,451.977823 519.930735,460.29802 513.985261,469.104925 C513.027099,470.52477 512.058021,471.959721 511.080545,473.419007 C508.093532,477.88162 505.617091,482.893038 503.223786,487.740822 C501.356169,491.522882 499.453281,495.37627 497.265716,499.073576 C500.581913,499.524201 503.495867,500.385171 505.589379,501.625439 C505.856422,501.783199 506.073919,502.012288 506.218357,502.285852 C515.705082,520.234483 497.416873,529.902359 482.72282,537.670393 C479.067361,539.602122 475.614284,541.428118 472.8053,543.250757 C472.088148,543.715647 471.097236,544.423892 469.94845,545.242905 C464.228031,549.326221 454.877346,556 447.696592,556 L447.696592,556 Z"/>
</svg>
