<svg xmlns="http://www.w3.org/2000/svg" width="75" height="38" viewBox="0 0 75 38">
  <g fill="#D7478C">
    <path d="M43.2233149 11.5645216C43.242033 11.5685907 43.2973734 11.4017556 43.3445756 11.1953141L43.6722777 9.77680876C43.7197511 9.56982471 43.7360277 9.39458003 43.7075437 9.38806939 43.6790596 9.38155875 43.6169373 9.54622365 43.5689213 9.75320769L43.2414905 11.1725269C43.1934745 11.3795109 43.2048681 11.5604524 43.2235862 11.5645216M42.7724532 11.4657769C42.7919851 11.469846 42.8432564 11.3030109 42.8874745 11.0949418L43.1907617 9.67128216C43.2347085 9.46267045 43.2477298 9.28742577 43.2178894 9.28172896 43.188049 9.27603215 43.1297245 9.44069705 43.0849639 9.64930876L42.7824904 11.0735109C42.7385436 11.2813088 42.7515649 11.4630641 42.7710968 11.4671333M41.8663894 11.2891758C41.8861926 11.2924311 41.9325809 11.1236971 41.9692032 10.9142716L42.467267 8.09299489C42.5038894 7.88356935 42.5104 7.70751083 42.4802883 7.70262786 42.4501766 7.69774488 42.3964638 7.86539382 42.3595702 8.0742768L41.8615064 10.8971811C41.824884 11.1074205 41.8468574 11.2867343 41.8663894 11.2899896M60.1743047 24.1270698C60.1848845 24.1441602 60.3438526 24.0728144 60.5269643 23.9643038L63.0083314 22.5314208C63.1925282 22.4245378 63.3311505 22.3171123 63.3165016 22.2907984 63.3018527 22.2644846 63.1388154 22.3309474 62.9538048 22.4367453L60.47081 23.8707134C60.2866132 23.9765112 60.1626398 24.1094368 60.1724058 24.1265272M42.31915 11.3743567C42.3378681 11.377612 42.3866979 11.2096918 42.4276607 11.0008088L42.7057192 9.57036726C42.7464107 9.36175556 42.7561766 9.18569704 42.7276926 9.18081406 42.6992085 9.17593108 42.6422404 9.34140981 42.601549 9.55002152L42.3234904 10.9812769C42.2827989 11.1901599 42.3007032 11.3702875 42.3194213 11.3743567M43.6722777 11.6733035C43.6909958 11.6781865 43.7479639 11.512979 43.8003203 11.3065375L44.1529798 9.89400025C44.2042511 9.6870162 44.2229692 9.51258535 44.195299 9.50526088 44.1676288 9.49793641 44.1014373 9.6615162 44.050166 9.8679577L43.6975064 11.2813088C43.6462352 11.487479 43.6543735 11.6684205 43.6730915 11.6733035M44.5645065 11.9112131C44.5832245 11.9169099 44.6458894 11.7538726 44.7047565 11.5493301L45.1057033 10.1514417C45.164299 9.94662791 45.189799 9.7716545 45.1599586 9.76405876 45.1301182 9.75646301 45.0614852 9.91733004 45.0028894 10.1210588L44.6016713 11.5192184C44.5430756 11.7237609 44.5447033 11.9055163 44.5634213 11.9112131M45.0069586 12.0433248C45.0256767 12.0490216 45.0918682 11.8867982 45.1545331 11.6830694L45.5793522 10.2922343C45.6412033 10.0885056 45.6696873 9.91488855 45.6412033 9.90675025 45.6127192 9.89861195 45.5400171 10.05758 45.4784373 10.2613088L45.0517192 11.6516014C44.9898682 11.8556014 44.9882405 12.0365429 45.0069586 12.0422397M44.1196128 11.7891386C44.1391447 11.7948354 44.1993681 11.6309843 44.2552511 11.425628L44.9961075 8.6586066C45.0503628 8.45325021 45.0728788 8.27881936 45.0441235 8.27149489 45.0153682 8.26417042 44.9464639 8.42558 44.8908522 8.63093639L44.1499958 11.3979577C44.0957405 11.6033141 44.1003522 11.7842556 44.1198841 11.7899524M45.4469692 12.1830322C45.4656873 12.188729 45.534049 12.0281333 45.6002405 11.8260322L46.0500171 10.4425215C46.1162086 10.2396066 46.1471342 10.0668034 46.1186501 10.0578513 46.0901661 10.0488992 46.0142086 10.2070535 45.9491022 10.4091545L45.4990543 11.7926652C45.4331341 11.9955801 45.429065 12.1765216 45.4469692 12.1830322M37.7345754 10.8939258C37.7541073 10.8939258 37.7728254 10.7203088 37.7768946 10.5076279L37.8021233 9.04517576C37.8061925 8.83249491 37.7850329 8.65806405 37.755735 8.65806405 37.7264371 8.65806405 37.6995807 8.83086725 37.6955116 9.0435481L37.6700116 10.5060003C37.6659424 10.7186811 37.7150435 10.8939258 37.7345754 10.8939258M45.8848097 12.3297929C45.9027139 12.3363035 45.9746022 12.1773354 46.0437778 11.9771333L46.5182405 10.6012184C46.5874161 10.3996598 46.6218682 10.2276705 46.5939267 10.2179045 46.5659852 10.2081386 46.487315 10.365479 46.4178682 10.5667662L45.9444905 11.9421386C45.8750437 12.1434258 45.8669054 12.3243673 45.8848097 12.330878M38.1957457 10.9061333C38.2152776 10.9061333 38.2375222 10.7333301 38.2448467 10.5203779L38.296118 9.0598247C38.3034425 8.84687257 38.2855382 8.67162788 38.2562403 8.67081119 38.2269425 8.67000022 38.1965595 8.84280342 38.189235 9.05575555L38.1379637 10.5163088C38.1306393 10.7300747 38.1762137 10.9053194 38.1957457 10.9061333M24.6799315 11.5569258C24.6528038 11.5699471 24.7084155 11.7370535 24.8022772 11.9277609L25.4405911 13.236128C25.5333677 13.4276493 25.6239741 13.5768514 25.6418783 13.5687131 25.6597826 13.5605748 25.628857 13.3804471 25.5349953 13.1889259L24.8974953 11.8808301C24.8039049 11.6893088 24.705974 11.543362 24.680474 11.5552982M26.9749315 10.5591705C26.9478039 10.5697503 26.9879528 10.7409258 27.063639 10.9389577L27.5853039 12.2977822C27.6620752 12.496628 27.739389 12.6531546 27.7572933 12.6458301 27.7751975 12.6385056 27.7613624 12.458378 27.6848624 12.2603461L27.1631975 10.9015216C27.0864262 10.7024045 27.0017879 10.548862 26.9749315 10.5591705M40.4961712 11.0857184C40.5157032 11.0881599 40.5525968 10.9169843 40.5775542 10.7059311L40.7552404 9.25731407C40.7823681 9.04626087 40.7788415 8.87101618 40.7495436 8.86694703 40.7202457 8.86287788 40.6760276 9.03405342 40.6499851 9.24510662L40.4714851 10.6937237C40.4443574 10.9047769 40.4755542 11.0832769 40.4950861 11.0857184M40.0377138 11.033362C40.0572457 11.0358035 40.0919691 10.8646279 40.1134 10.6535747L40.2658574 9.20197364C40.2878308 8.99010661 40.282134 8.81486193 40.25365 8.81160661 40.2251659 8.80835129 40.1820329 8.97952682 40.1597883 9.19139385L40.0076021 10.6413673C39.9853574 10.8535056 40.0181819 11.0320056 40.0377138 11.0344471M39.1180861 10.9541492C39.137618 10.9541492 39.1652882 10.7829737 39.1799372 10.5702928L39.282751 9.11272364C39.2973999 8.90085661 39.2860063 8.72561192 39.2556233 8.72317043 39.2252404 8.72072895 39.1902457 8.89353214 39.1742404 9.10539917L39.0716978 10.5637822C39.0567776 10.7756492 39.0961127 10.9533354 39.1156446 10.9541492M40.9535436 11.1464843C40.9730755 11.1489258 41.0132244 10.9793779 41.0433361 10.7666971L41.2454372 9.32160662C41.2755489 9.11109598 41.2763628 8.93503746 41.2470649 8.93096831 41.217767 8.92689916 41.1705649 9.09644704 41.1409957 9.30695768L40.937267 10.7520481C40.9079691 10.9631013 40.9348255 11.1426865 40.9535436 11.1451279M39.5792563 10.9902405C39.5987882 10.9918567 39.6305276 10.8198673 39.6492457 10.6080003L39.8988202 7.74928743C39.9175382 7.5374204 39.9085851 7.36217572 39.8784744 7.3589204 39.8483627 7.35566508 39.8098414 7.52765445 39.7911234 7.7403353L39.5401925 10.5990481C39.5222882 10.8109152 39.5597244 10.9886013 39.5792563 10.9902405M52.4418364 15.6814153C52.458113 15.6928089 52.5712354 15.5590695 52.6935811 15.3846387L54.3394163 13.035112C54.4609482 12.861495 54.5407035 12.7041546 54.5162886 12.6870642 54.4918737 12.6699737 54.3719695 12.7988301 54.2496237 12.973261L52.6040598 15.3233302C52.4817141 15.497761 52.4255598 15.6705642 52.4412939 15.6819578M55.3057035 18.0067983C55.3206237 18.0198196 55.4508365 17.9031707 55.5959695 17.7474579L56.592911 16.6788994C56.738044 16.5231866 56.8392302 16.3804951 56.8177993 16.3593355 56.7963685 16.3381759 56.6607302 16.4504845 56.5147834 16.6061972L55.5178418 17.6758409C55.3727089 17.8315536 55.2918684 17.9937771 55.3057035 18.0067983M52.0617779 15.4180057C52.0780545 15.4285855 52.1879215 15.2932185 52.3078258 15.11716L53.1238258 13.9075376C53.2429162 13.7314791 53.3202301 13.5733248 53.2958152 13.557862 53.2714003 13.5423993 53.1539375 13.6717982 53.0351184 13.8489418L52.220746 15.0577504C52.1016556 15.2346227 52.0463152 15.4074259 52.0625917 15.4180057M54.270512 17.0887983C54.2859748 17.1018196 54.4099482 16.97866 54.5469429 16.8156228L56.3916238 14.6163834C56.5272621 14.4536174 56.6213951 14.304144 56.5986078 14.2846121 56.5758206 14.2650801 56.4453365 14.3833567 56.3083419 14.546394L54.463661 16.7456334C54.3280227 16.9083994 54.2550493 17.075777 54.270512 17.0887983M46.3210225 12.4830641C46.3397405 12.4895748 46.4148842 12.3314205 46.487315 12.1317609L47.4663523 9.44096833C47.539597 9.24130875 47.5748629 9.06931938 47.5477353 9.05955342 47.5206076 9.04978746 47.4370544 9.2046864 47.3643523 9.40434598L46.3845012 12.0951386C46.3120703 12.2947982 46.3031182 12.4765535 46.3210225 12.4830641M53.5537992 16.5055536C53.569262 16.5169472 53.6894375 16.3897185 53.8204641 16.2217983L54.718661 15.0715855C54.8499588 14.9044791 54.9378525 14.7520217 54.9150652 14.7341174 54.892278 14.7162131 54.7658631 14.8385589 54.6348365 15.005394L53.7355546 16.1564206C53.6050705 16.3243408 53.5383365 16.4930749 53.5537992 16.5044685M53.9137833 16.7939206C53.9292461 16.8061281 54.050778 16.680527 54.1850599 16.5150483L55.1044163 15.3797557C55.2381557 15.214277 55.328762 15.064261 55.3067886 15.0463568 55.2848152 15.0284525 55.1559588 15.1480855 55.0214057 15.3135642L54.101778 16.4491281C53.9683099 16.6146068 53.8980492 16.7817132 53.913512 16.7939206M58.9332143 22.1817452C58.9446079 22.1980218 59.0959802 22.1117559 59.2706824 21.9894101L61.6207516 20.343575C61.7951824 20.2220431 61.9240388 20.1024101 61.9066771 20.0777239 61.8893154 20.0530377 61.7322463 20.1319792 61.5578154 20.2545963L59.20856 21.8996176C59.0341292 22.0219633 58.9218206 22.1654686 58.9332143 22.1817452M58.6643792 21.8052133C58.6757728 21.8206761 58.8257887 21.7319686 58.9985919 21.6063676L60.1797303 20.7480484C60.3517196 20.6224473 60.4781345 20.5011867 60.4610441 20.4767718 60.4439537 20.4523569 60.2890547 20.5364526 60.1170654 20.6609686L58.935927 21.5203729C58.7639377 21.6448888 58.6529855 21.789208 58.6646504 21.8046708M57.5282727 20.351442C57.541294 20.3669048 57.6847993 20.2673463 57.8478366 20.1303516L60.047076 18.2856707C60.209842 18.1500324 60.327576 18.0184632 60.3088579 17.995676 60.2901398 17.9728888 60.1401239 18.0656654 59.9770866 18.2018462L57.7778472 20.0465271C57.6150813 20.1821654 57.5152515 20.335708 57.5282727 20.351442M55.6410014 18.3250058C55.6548365 18.3388409 55.7869482 18.2246334 55.9345227 18.0713622L56.9501823 17.0190802C57.0985706 16.8666228 57.201927 16.7247451 57.1807674 16.7043994 57.1596078 16.6840536 57.0217993 16.792293 56.8742248 16.9455643L55.8585652 17.9973036C55.7109908 18.1505749 55.6271663 18.3108994 55.641544 18.3250058M22.4809633 12.7510854C22.4554633 12.7665482 22.5249101 12.9279578 22.6350484 13.1097131L23.3856708 14.3592131C23.4941814 14.5417823 23.5983517 14.6828461 23.6146283 14.6730802 23.6309049 14.6633142 23.5861442 14.4872557 23.477091 14.3055004L22.7253836 13.0549152C22.6168729 12.8731599 22.5061921 12.7364365 22.4812346 12.7510854M48.4519002 13.3698674C48.4698044 13.3780057 48.5587831 13.2271759 48.6485757 13.0348408L49.8606396 10.4376386C49.9501608 10.2453035 50.0017034 10.0765694 49.9737619 10.064362 49.9458204 10.0521545 49.8516874 10.2000003 49.7610811 10.3898939L48.549831 12.9868248C48.4600385 13.1799737 48.4348097 13.3603727 48.452714 13.368511M48.0314214 13.1769897C48.049597 13.1843142 48.1350491 13.0318567 48.2213151 12.8370801L48.8129693 11.5078248C48.8995066 11.313862 48.9486076 11.1451279 48.92148 11.1326492 48.8943523 11.1201705 48.8015757 11.2696439 48.7153097 11.4644205L48.1225704 12.7936759C48.0360331 12.9879099 48.0124321 13.1680376 48.0303363 13.175362M49.281464 13.7743408C49.2993683 13.7832929 49.3924161 13.6349046 49.4884481 13.445011L50.1495491 12.1480375C50.2466662 11.9581439 50.3036343 11.7926652 50.2775917 11.7796439 50.2515491 11.7666226 50.1511768 11.9106705 50.0543311 12.1000216L49.3940438 13.3975376C49.2969268 13.5874312 49.2643736 13.7653886 49.281464 13.7743408M47.1817831 12.8156493C47.1999586 12.8229737 47.279714 12.6680748 47.3597406 12.4708567L47.9050065 11.1209843C47.983948 10.9237662 48.0273523 10.7534045 48.0002246 10.7411971 47.973097 10.7289896 47.8854746 10.8830747 47.8062619 11.0802928L47.2609959 12.4293514C47.1796129 12.6265695 47.1638789 12.807511 47.1817831 12.8148354M47.6090438 12.9917078C47.626948 12.9998461 47.7102299 12.845761 47.7924267 12.6493567L48.3621076 11.3108779C48.4451183 11.1144737 48.4906927 10.9449258 48.4638363 10.9335322 48.43698 10.9221386 48.3466448 11.0729684 48.2633629 11.2693726L47.6961236 12.6070376C47.6128416 12.8034418 47.5916821 12.9835695 47.6095863 12.9917078M50.4981396 14.4373408C50.51523 14.4471068 50.6164162 14.3055004 50.7230279 14.1210323L52.1561822 11.6383088C52.2619801 11.454112 52.3281715 11.2910748 52.302129 11.2761545 52.2760864 11.2612343 52.1664907 11.4001279 52.0615066 11.5843248L50.6286236 14.0659631C50.5225545 14.2509738 50.4810492 14.4278461 50.4981396 14.4384259M51.6765651 15.163277C51.6928417 15.174128 51.8013524 15.0371334 51.9171875 14.8586334L52.7117567 13.6340908C52.8275918 13.4555908 52.9016503 13.2966227 52.8780492 13.2814312 52.8544482 13.2662397 52.7388843 13.3980801 52.6222354 13.5765801L51.8282088 14.8000376C51.7115598 14.9785376 51.6602885 15.1526972 51.6765651 15.1635483M51.2878258 14.9147876C51.3041024 14.9253674 51.4099002 14.7862025 51.52248 14.6058036L52.2961609 13.368511C52.4092832 13.1875695 52.4811715 13.0277876 52.4559428 13.0123248 52.4307141 12.996862 52.3181343 13.1322291 52.2055545 13.3123567L51.4318736 14.5496493C51.3195651 14.729777 51.2715492 14.9042078 51.2878258 14.9147876M50.0952938 14.210011C50.1126555 14.219777 50.2103151 14.0743727 50.3139428 13.8888195L51.0206183 12.6138195C51.1234322 12.427995 51.1869109 12.2641439 51.1616822 12.249495 51.1364534 12.2348461 51.0311981 12.3767237 50.9275704 12.5625482L50.2222513 13.8375482C50.1197087 14.023644 50.0795598 14.2005163 50.0966502 14.2102823M41.4109159 11.2132184C41.4304479 11.2164737 41.4735808 11.0469258 41.5064053 10.8375003L41.7345489 9.39702152C41.7671021 9.18678215 41.7711713 9.01153746 41.7426872 9.00665448 41.7142032 9.00177151 41.6629319 9.16942045 41.6292936 9.38074492L41.40115 10.8185109C41.367783 11.0287503 41.391384 11.2088779 41.4109159 11.2121333M9.09671832 31.8652349C9.09102151 31.8923625 9.25731407 31.9509583 9.46592577 31.9908359L10.8974524 32.2697083C11.1068779 32.3103998 11.280495 32.3274902 11.2837503 32.3087721 11.2870056 32.290054 11.1264099 32.2059583 10.9177981 32.1652668L9.48708535 31.8863944C9.27765981 31.8465168 9.10241512 31.8367508 9.09671832 31.8652349M9.19627683 31.375038C9.19058002 31.4021657 9.35605875 31.4629317 9.5641279 31.5076923L10.9888726 31.8101657C11.1966705 31.8543838 11.3702875 31.8755434 11.3743567 31.8560114 11.3784258 31.8364795 11.2186439 31.7499423 11.010846 31.7059955L9.58610131 31.4035221C9.37721832 31.3595753 9.20197364 31.346554 9.19627683 31.3763944M8.92283001 32.8513253C8.91794704 32.8808945 9.08559598 32.9327083 9.29719173 32.9647189L10.7365854 33.1920487C10.9468247 33.225687 11.1212556 33.2370806 11.1245109 33.2191764 11.1277662 33.2012721 10.9641864 33.1220594 10.7536758 33.0886923L9.31346832 32.8602774C9.10295768 32.8269104 8.92771299 32.8236551 8.92283001 32.8521391M8.8487715 33.3464051C8.84470235 33.375703 9.0134364 33.4231764 9.22367577 33.4532881L10.6698513 33.656203C10.8800907 33.6855009 11.0553354 33.6936392 11.0577769 33.6749211 11.0602184 33.656203 10.8950109 33.5805168 10.6845003 33.5509477L9.23940981 33.3480328C9.02889917 33.3179211 8.85284065 33.3179211 8.8487715 33.3464051M8.78366512 33.8420275C8.78013852 33.8713253 8.94995767 33.916086 9.16101087 33.9421285L10.6101705 34.1198147C10.821495 34.1469424 10.9959258 34.1507402 10.9983673 34.1312083 11.0008088 34.1116764 10.8337024 34.0400594 10.6215641 34.0140168L9.17403215 33.8363306C8.96297895 33.809203 8.78692044 33.8124583 8.78366512 33.8420275M9.30478747 30.8851125C9.29827683 30.9138678 9.4621279 30.9765327 9.67019705 31.0237348L11.0884311 31.351437C11.2954152 31.3994529 11.4682184 31.4233253 11.4731014 31.4035221 11.4779843 31.3837189 11.3190162 31.2950114 11.1120322 31.2480806L9.69379812 30.9203784C9.48681407 30.872905 9.31129811 30.8566284 9.30478747 30.8851125M10.1324524 27.9995433C10.1235003 28.0266709 10.2800269 28.1064262 10.4813141 28.1756018L11.8564152 28.6492507C12.0577024 28.7184263 12.2272503 28.7602029 12.2337609 28.7422986 12.2402716 28.7243943 12.0929684 28.6183252 11.8914099 28.5488784L10.5154949 28.0755007C10.3142077 28.0060539 10.1422183 27.9718731 10.1324524 27.9995433M9.97375557 28.4745486C9.96480344 28.5016763 10.1229577 28.5787188 10.3250588 28.6449103L11.7085694 29.0946869C11.9106705 29.1600646 12.0818461 29.1991284 12.0883567 29.1804103 12.0948673 29.1616922 11.9448514 29.0588784 11.7427503 28.9929582L10.3592396 28.5429103C10.1563247 28.4778039 9.98352153 28.4466071 9.9745694 28.4745486M9.82319706 28.9522667C9.81505876 28.9793944 9.97402685 29.0539954 10.1777556 29.1150327L11.5699471 29.5403944C11.772862 29.6025167 11.9440375 29.6383252 11.9497343 29.6196071 11.9554312 29.6008891 11.8037875 29.5005167 11.6000588 29.4386656L10.2086811 29.0133039C10.0049524 28.9514529 9.83133536 28.9237827 9.82319706 28.9514529M9.42170769 30.3992561C9.41438322 30.4277401 9.57823429 30.4928465 9.7844045 30.5443891L11.1980269 30.8970487C11.4041971 30.9483199 11.5778141 30.9751763 11.5810694 30.9564582 11.5843248 30.9377401 11.4294258 30.8457774 11.2224418 30.7936923L9.80963323 30.4410327C9.60346301 30.3889476 9.42984598 30.3702295 9.42170769 30.3987135M9.68077684 29.432155C9.67263854 29.4592827 9.83323429 29.5306284 10.0377769 29.5894954L11.4359365 29.9904423C11.640479 30.049038 11.8124684 30.0815912 11.8181652 30.0636869 11.823862 30.0457827 11.6705907 29.9473093 11.4655056 29.8884422L10.0668034 29.4874954C9.86198961 29.4288997 9.68837259 29.4033997 9.68023429 29.4332401M10.4750747 27.0601124C10.4644949 27.0872401 10.6185801 27.1716071 10.816612 27.2483784L12.1762503 27.7700433C12.3750961 27.8457294 12.5430163 27.8940167 12.5495269 27.8750273 12.5560376 27.8560379 12.4117184 27.7464422 12.2136865 27.6704847L10.8556758 27.1488198C10.6568301 27.0731337 10.4856545 27.0329847 10.4758886 27.0601124M8.72669703 34.3403626C8.72344171 34.3696604 8.89380342 34.4111658 9.10648427 34.4331392L10.5575428 34.5855966C10.7694098 34.6083839 10.9438407 34.6108253 10.9462822 34.5912934 10.9487237 34.5717615 10.7816173 34.502586 10.5697503 34.4806126L9.11787789 34.3281551C8.90682469 34.3061817 8.73076618 34.3110647 8.72751086 34.3403626M8.63988852 35.3375754C8.63744703 35.3671445 8.81025022 35.402953 9.02211725 35.417602L10.4796864 35.519602C10.6923673 35.5350647 10.8667981 35.5309956 10.8676149 35.5114637 10.8684258 35.4919318 10.6988779 35.4281818 10.4878247 35.4135328L9.03025555 35.3115328C8.81838852 35.2968839 8.64233001 35.3082775 8.64070235 35.3386605M20.3940324 14.1318833C20.3704314 14.1489738 20.453442 14.3038727 20.5782292 14.4758621L21.4373622 15.6578142C21.5621495 15.8298036 21.6768995 15.9619153 21.6934474 15.9505217 21.7099952 15.9391281 21.6476016 15.7671387 21.5230857 15.5951493L20.6644952 14.414011C20.5399792 14.2420216 20.4176335 14.1156067 20.3932186 14.1318833M8.57423958 36.8380063C8.57423958 36.8673041 8.74785661 36.8944318 8.95972363 36.8985009L10.4221758 36.9237297C10.6348567 36.926985 10.8092875 36.9139637 10.8092875 36.8944318 10.8092875 36.8748999 10.6364843 36.8209158 10.4238035 36.8168467L8.96135129 36.791618C8.74948426 36.7875488 8.57423958 36.8087084 8.57423958 36.8380063M8.58726086 36.3377722C8.58726086 36.3670701 8.75925022 36.3971818 8.97193108 36.4045062L10.4335694 36.4549637C10.6462503 36.4622882 10.8206811 36.4525222 10.8214978 36.4329903 10.8223088 36.4134584 10.6503194 36.3564903 10.4376386 36.3491658L8.9751864 36.2976233C8.76250554 36.2902988 8.58807469 36.3082031 8.58726086 36.3377722M8.6089516 35.8375381C8.60733533 35.866836 8.7804098 35.8993892 8.99309065 35.9107828L10.4512024 35.9875541C10.6633407 35.9989477 10.8385854 35.9916233 10.8394021 35.9720913 10.840213 35.9525594 10.6698513 35.8907084 10.4568992 35.881485L8.99797363 35.804985C8.78529278 35.7935913 8.61059064 35.8082403 8.6089516 35.8375381M15.6060004 18.5197824C15.5864685 18.5417558 15.7020323 18.6738675 15.8626281 18.8133037L16.9648249 19.7711814C17.1254206 19.9114314 17.2672983 20.0131601 17.2811334 19.999325 17.2949685 19.9854899 17.1962238 19.8314048 17.0369845 19.6919686L15.9342451 18.7335483C15.7736493 18.5941122 15.6268887 18.497809 15.6087132 18.5197824M15.9377717 18.1446068C15.9182398 18.1668515 16.0313621 18.3003196 16.1895164 18.4430111L17.2762504 19.4212345C17.4344047 19.5631122 17.5746547 19.6680962 17.5865909 19.6534473 17.598527 19.6387984 17.5052079 19.4838994 17.3462398 19.3414792L16.2611334 18.3648834C16.1029791 18.222192 15.9578462 18.1234473 15.9383142 18.1454207M14.6505642 19.6784048C14.6326599 19.701192 14.7550057 19.8276069 14.9218408 19.9586335L16.0717823 20.8579154C16.2397025 20.9892133 16.3864632 21.0836176 16.3973142 21.067341 16.4081653 21.0510644 16.3037238 20.904575 16.1358036 20.7730058L14.9855908 19.874809C14.8176706 19.7435111 14.666027 19.6556175 14.6481227 19.6784048M14.962261 19.2866813C14.9443568 19.3094686 15.064261 19.4375111 15.2297397 19.5712505L16.3653036 20.4914207C16.5307823 20.6251601 16.6759153 20.7220058 16.6881228 20.708442 16.7003302 20.6948782 16.5975164 20.5437771 16.4320377 20.4100378L15.2964738 19.4904101C15.1309951 19.3566707 14.9809791 19.2655218 14.962261 19.288309M16.2765962 17.7756707C16.2570642 17.7968302 16.3680164 17.9338249 16.5237291 18.0789579L17.5931015 19.0758994C17.7488143 19.2210324 17.8866228 19.3276441 17.8996441 19.313809 17.9126653 19.2999739 17.8215164 19.1426335 17.6658036 18.9975005L16.5953462 17.9994739C16.4396334 17.8546122 16.2953142 17.753426 16.2757823 17.7745856M18.4362292 15.6898249C18.4139845 15.7093568 18.5102877 15.8561174 18.6497239 16.0153568L19.6081441 17.1180962C19.7475803 17.2786919 19.8739952 17.39941 19.8886441 17.3863887 19.9032931 17.3733675 19.8276069 17.2078887 19.6881707 17.047293L18.730293 15.9453674C18.590043 15.7847717 18.4590164 15.6689366 18.4362292 15.6884685M14.3456493 20.075825C14.327745 20.099426 14.4525323 20.2231282 14.6220802 20.3511707L15.7885696 21.2290218C15.9589313 21.3578782 16.1073196 21.4501122 16.119527 21.4346495 16.1317345 21.4191867 16.0232238 21.2718835 15.8528621 21.1451973L14.6863727 20.2665324C14.5168248 20.137676 14.3638248 20.0519526 14.3456493 20.0766388M19.9930856 14.4300163C19.9694846 14.4479206 20.0549367 14.6011919 20.1829792 14.7707397L21.0616442 15.9372291C21.1896867 16.1075908 21.3057931 16.2356334 21.3226122 16.2250536 21.3394314 16.2144738 21.274325 16.0424845 21.1457399 15.872394L20.2676175 14.7059046C20.1390324 14.5355429 20.015059 14.4107557 19.9922718 14.4286599M16.6203036 17.4127026C16.5999579 17.4338621 16.7092823 17.5716707 16.8617398 17.720059L17.9132079 18.7349047C18.0664792 18.8824792 18.20266 18.9926175 18.2164951 18.9790537 18.2303303 18.9654898 18.140809 18.8070643 17.9875377 18.6594898L16.9349845 17.6438302C16.782527 17.4954419 16.6409206 17.3918143 16.6203036 17.4129738M18.0610537 16.0215962C18.0390802 16.0411281 18.1383675 16.186261 18.2802451 16.3444153L19.2584686 17.4295217C19.4003462 17.587676 19.5297452 17.7067664 19.5435803 17.6937451 19.5574154 17.6807239 19.4792877 17.5168728 19.3365962 17.3587185L18.3600005 16.2719845C18.2183941 16.1138302 18.0838409 16.0007079 18.0615962 16.0202398M13.1976067 21.7159633C13.1810588 21.7403782 13.3147982 21.8553995 13.4924844 21.9712346L14.7162131 22.7658038C14.8947131 22.8816389 15.0496121 22.9632931 15.0601919 22.9470165 15.0707717 22.9307399 14.9533089 22.7929314 14.7748089 22.6757399L13.5513514 21.8808995C13.3728514 21.7650644 13.2138833 21.6910059 13.1986918 21.7146069M11.6960907 24.315607C11.6830694 24.3427347 11.8273886 24.4420219 12.0164684 24.5391389L13.3142557 25.20024C13.5041493 25.2962719 13.6669152 25.363006 13.674511 25.343474 13.6821067 25.3239421 13.5516227 25.2018677 13.3614578 25.1047506L12.0647556 24.4436496C11.874862 24.3476176 11.7093833 24.2895644 11.6960907 24.315607M11.4728301 24.7640272C11.4598088 24.7911549 11.6057556 24.8877294 11.798362 24.9810485L13.1067291 25.6193624C13.2982503 25.712139 13.4612876 25.7742613 13.4702397 25.7550007 13.4791918 25.73574 13.3457237 25.6155645 13.1539312 25.5225166L11.8450216 24.8833889C11.655128 24.7906123 11.4872077 24.7360857 11.4739152 24.7621283M11.9274897 23.8717985C11.9136546 23.8989261 12.0563461 24.0006549 12.2437982 24.1002134L13.5307344 24.7849155C13.7184578 24.8842028 13.8798674 24.9520219 13.8888195 24.9349315 13.8977716 24.9178411 13.7681014 24.7906123 13.5806493 24.6907825L12.2942556 24.0068942C12.1059897 23.9065219 11.941596 23.8462985 11.9274897 23.8712559M10.8510641 26.1304475C10.8396705 26.1575751 10.9905003 26.2470964 11.1860907 26.3303783L12.5245695 26.9000592C12.7201599 26.9830698 12.8872663 27.0356975 12.8954046 27.0183358 12.9035429 27.0009741 12.7635642 26.8854103 12.5677024 26.8013145L11.2284099 26.2316336C11.0328194 26.1483517 10.8624577 26.1027773 10.8510641 26.1296336M11.0499099 25.6711762C11.0377024 25.6983038 11.1855482 25.7902666 11.3816811 25.8773464L12.7109365 26.4692719C12.9048993 26.5555379 13.070378 26.6119634 13.0777025 26.5940592 13.0850269 26.5761549 12.9472184 26.4584209 12.7521705 26.3721549L11.4229152 25.7805007C11.2289524 25.6939634 11.0602184 25.6448624 11.0480109 25.67199M10.6584577 26.5927028C10.6478779 26.6198305 10.8003354 26.7069103 10.9975535 26.7869369L12.346612 27.3322028C12.5438301 27.4119581 12.7117503 27.4626869 12.7190748 27.4445113 12.7263993 27.4263358 12.5834365 27.3134847 12.3864897 27.2334581L11.0366173 26.6881922C10.8393992 26.6092507 10.6690375 26.5658464 10.6584577 26.5927028M12.9285003 22.1377984C12.9130376 22.1622133 13.0481333 22.2747931 13.228261 22.3879155L14.4658248 23.1615963C14.6467663 23.2741761 14.8024791 23.3531176 14.8130589 23.3360272 14.8236387 23.3189368 14.7021068 23.1835697 14.5219791 23.0712612L13.2846865 22.2975804C13.1045588 22.1850006 12.9439631 22.1133835 12.9285003 22.1377984M13.4737663 21.2981973C13.4574897 21.3226122 13.5887876 21.4392612 13.7648461 21.5583516L14.9744685 22.3743516C15.1513408 22.4931708 15.3046121 22.5772665 15.3151919 22.5609899 15.3257717 22.5447133 15.2107504 22.4052772 15.0346919 22.2861867L13.8250695 21.4723569C13.649011 21.3527239 13.4908567 21.2751388 13.4745801 21.2995537M12.6669897 22.5647878C12.6515269 22.5900165 12.7893354 22.7004261 12.9710908 22.8089368L14.2214046 23.5603729C14.4039738 23.6688836 14.5613142 23.7453836 14.5702663 23.7282932 14.5792185 23.7112027 14.4579578 23.5774634 14.2753887 23.4684102L13.0256174 22.7196867C12.843862 22.6095484 12.6816386 22.5403729 12.6669897 22.5656016M12.1659418 23.4317878C12.1521067 23.4570166 12.2923567 23.5630857 12.478995 23.6658995L13.753995 24.3725751C13.9398195 24.4751176 14.0996014 24.5461921 14.1093674 24.5291017 14.1191333 24.5120113 13.9919046 24.3831549 13.8052663 24.2795272L12.5302663 23.574208C12.343628 23.4705804 12.1797769 23.4071017 12.1656705 23.4331442M49.6902779 13.9894631C49.7073683 13.9984152 49.8034002 13.8538248 49.9029587 13.6639312L50.586847 12.3775375C50.6872194 12.1892716 50.7474428 12.024878 50.7224853 12.0107716 50.6975279 11.9966652 50.5936289 12.139628 50.4943417 12.3270801L49.8101821 13.6140163C49.7100811 13.8022823 49.6745438 13.9802397 49.691363 13.9891918M59.4757675 22.2856442C59.299709 22.4044633 59.1646132 22.5146016 59.175193 22.5297931 59.1857728 22.5449846 59.3593898 22.4915431 59.5354483 22.3724527L60.7450707 21.5564527C60.9211292 21.4376335 61.0524271 21.3209846 61.0361505 21.2965697 61.0198739 21.2721548 60.8617196 21.350825 60.6856611 21.4693729L59.4757675 22.2856442zM58.3714004 20.7730058C58.2034802 20.9040324 58.0762515 21.0239367 58.0876451 21.0393995 58.0990387 21.0548622 58.2685866 20.9881282 58.4365068 20.8568303L59.5867196 19.9586335C59.7546398 19.8273356 59.8769856 19.7009207 59.8579962 19.6781335 59.8390068 19.6553462 59.6884483 19.7435111 59.5205281 19.8745377L58.3714004 20.7730058zM60.1637249 20.0755537C60.1458207 20.0519526 59.9925494 20.1374048 59.8230015 20.2654473L58.6565121 21.1441122C58.4869643 21.2721548 58.3581079 21.3882612 58.3695015 21.4050803 58.3808951 21.4218995 58.5512568 21.3567931 58.7221611 21.228208L59.8886505 20.3492718C60.0581983 20.2215005 60.1829856 20.0975271 60.1658951 20.0747399M58.9033738 18.5195111C58.8846558 18.4975377 58.7370813 18.5935696 58.5764855 18.7330058L57.4737461 19.6916973C57.3131504 19.8311335 57.1924323 19.9572771 57.2054536 19.971926 57.2184749 19.986575 57.3839536 19.9108888 57.5445493 19.7706388L58.6459323 18.8135749C58.8065281 18.6735962 58.9220919 18.5422983 58.9033738 18.5195111M57.1631344 19.3412079C57.0049802 19.4836282 56.886161 19.6124845 56.8991823 19.6263196 56.9122036 19.6401548 57.0760546 19.5628409 57.2342089 19.4209633L58.3193153 18.4427398C58.4774696 18.3000483 58.5905919 18.1657664 58.5721451 18.1443356 58.5536983 18.1229047 58.4066664 18.2208356 58.2485121 18.3635271L57.1631344 19.3412079zM58.0776079 20.4078675C57.9121291 20.5416069 57.7865281 20.6639527 57.7995493 20.6791441 57.8125706 20.6943356 57.9788632 20.6248888 58.1443419 20.4908782L59.2807196 19.5704367C59.4461983 19.4369686 59.5658313 19.308926 59.547927 19.2861388 59.5300228 19.2633516 59.3783792 19.3545005 59.2129004 19.4882399L58.0776079 20.4078675zM60.7043792 24.2795272C60.5185547 24.3831549 60.3742356 24.4808145 60.3831877 24.4981762 60.3921398 24.5155379 60.569826 24.4751176 60.7556505 24.3725751L62.0306505 23.6658995C62.2172888 23.5622719 62.3575388 23.4570166 62.3437037 23.4317878 62.3298686 23.4065591 62.1652037 23.469224 61.9793792 23.5728517L60.7043792 24.2795272zM60.928725 24.6899687C60.7412728 24.7903411 60.5945122 24.8858304 60.603193 24.9029208 60.6118739 24.9200113 60.7898313 24.8842028 60.9780973 24.7838304L62.2644909 24.0999421C62.4519431 24.0003836 62.5946346 23.897841 62.5816133 23.8717985 62.568592 23.8457559 62.4022995 23.9059793 62.2148473 24.0074368L60.928725 24.6899687zM59.7351079 22.6765538C59.5566079 22.7921176 59.4196132 22.9006282 59.430193 22.9169048 59.4407728 22.9331814 59.6152036 22.8810963 59.7937036 22.7652612L61.0163473 21.9704208C61.1948473 21.8548569 61.3277728 21.7398357 61.3123101 21.7154208 61.2968473 21.6910059 61.1370654 21.7658782 60.9596505 21.8817133L59.7351079 22.6765538zM59.9876664 23.0704474C59.8072675 23.1830272 59.6681026 23.2890963 59.6786824 23.3061868 59.6892622 23.3232772 59.863693 23.2736336 60.0438207 23.1610538L61.2813845 22.3873729C61.462326 22.2750644 61.5968792 22.1624846 61.5814165 22.1380697 61.5659537 22.1136548 61.4061718 22.184458 61.2252303 22.2978516L59.9876664 23.0704474zM61.8426558 22.5645165C61.8271931 22.5392878 61.6657835 22.6084633 61.4832143 22.7186016L60.235342 23.4684102C60.0527728 23.5785485 59.90981 23.6819049 59.9214749 23.6981815 59.9331398 23.714458 60.1064856 23.6696974 60.2890547 23.5606442L61.5385548 22.8089368C61.7213952 22.7004261 61.8573048 22.5897453 61.8426558 22.5647878M49.8294428 11.5566545C49.8023151 11.5436333 49.7054693 11.6895801 49.6124215 11.8821865L48.9741076 13.1905535C48.8810598 13.3820748 48.8192087 13.545112 48.8362991 13.5540642 48.8533895 13.5630163 48.9765491 13.4284631 49.0701395 13.2377557L49.7076396 11.9285748C49.8015013 11.7386811 49.8560279 11.5707609 49.8299853 11.5577397M52.0292247 12.7505429C52.0037247 12.7350801 51.8935864 12.8720748 51.7850758 13.0546439L51.0336396 14.304144C50.925129 14.4867131 50.8478151 14.6440536 50.8649055 14.6538195 50.881996 14.6635855 51.0157353 14.5404259 51.1247885 14.3586706L51.8756822 13.1091705C51.9841928 12.9274152 52.054996 12.7651918 52.0297673 12.7505429M61.1479164 25.1044794C60.9580228 25.2015964 60.8104484 25.294373 60.8185867 25.3114634 60.826725 25.3285538 61.0060388 25.2968145 61.1953899 25.1999687L62.4929058 24.5388676C62.6827995 24.4417506 62.8263048 24.3416496 62.8132835 24.3153357 62.8002622 24.2890219 62.6339697 24.3473464 62.4448899 24.4433783L61.1479164 25.1044794zM52.9865599 15.5951493C52.8620439 15.7671387 52.7722513 15.9176972 52.7877141 15.9293621 52.8031769 15.941027 52.947496 15.8298036 53.0722833 15.6580855L53.9297886 14.4758621C54.0553897 14.3038727 54.1384003 14.1489738 54.1147992 14.1318833 54.0911982 14.1147929 53.9696663 14.240394 53.8435226 14.4129259L52.9865599 15.5951493zM47.5349853 10.5583567C47.5078576 10.5477769 47.4232193 10.701862 47.346448 10.9007077L46.8247831 12.2598035C46.7482831 12.4586493 46.701081 12.6265695 46.7189852 12.6330801 46.7368895 12.6395907 46.8475703 12.4974418 46.9243416 12.2972397L47.4462778 10.9384152C47.5230491 10.7403833 47.5629267 10.5689364 47.5352565 10.5586279M54.8214748 17.0483781C54.6820386 17.2089738 54.5792248 17.3508515 54.5938737 17.3638728 54.6085227 17.3768941 54.7617939 17.2800483 54.9012301 17.1197238L55.8599216 16.0167132C56.0001716 15.8561174 56.0953897 15.708543 56.0734163 15.6911812 56.0514429 15.6738195 55.9193312 15.7874844 55.779895 15.9480802L54.8214748 17.0483781zM56.4488631 16.0210536C56.4266185 16.0015217 56.2931504 16.114644 56.1504589 16.2727983L55.1722354 17.3595324C55.029544 17.5176866 54.9253737 17.6579366 54.9400227 17.6701441 54.9546716 17.6823515 55.1095705 17.5887611 55.2519908 17.4303355L56.2285865 16.3452291C56.3704642 16.1870749 56.4692089 16.0411281 56.4480493 16.0215962M56.5221078 18.6584047C56.3688365 18.8059792 56.2546291 18.9389047 56.2684642 18.9527398 56.2822993 18.966575 56.4428951 18.8819367 56.5961663 18.7357186L57.6476344 17.7208728C57.8000919 17.5724845 57.9094164 17.434676 57.8890706 17.4135164 57.8687249 17.3923568 57.7263047 17.496527 57.5743898 17.6441015L56.5221078 18.6584047zM56.844927 18.9977718C56.6892142 19.1429047 56.5736504 19.2731175 56.5866717 19.2869526 56.5996929 19.3007877 56.7619163 19.2202186 56.9176291 19.0750856L57.9878153 18.0781441C58.1427142 17.9330111 58.2536664 17.7971015 58.2341345 17.7756707 58.2146025 17.7542398 58.0713685 17.8570536 57.9145706 18.0008302L56.844927 18.9977718zM54.5179163 14.4292025C54.4943152 14.4112982 54.3703418 14.5360855 54.2422993 14.7064472L53.3636343 15.8729366C53.2355918 16.0432983 53.1433577 16.1916866 53.1599056 16.203894 53.1764535 16.2161015 53.3205014 16.1075908 53.4482726 15.9372291L54.3280227 14.7707397C54.4557939 14.6011919 54.5415173 14.4479206 54.5179163 14.4300163M63.8251452 33.5501338C63.6149059 33.5794317 63.445358 33.6201232 63.446974 33.6388413 63.4486133 33.6575594 63.6295548 33.6855009 63.8397942 33.6559317L65.2848846 33.452203C65.4953953 33.4229051 65.6646719 33.3748891 65.660874 33.3464051 65.6570761 33.3179211 65.4807463 33.3176498 65.2702357 33.3464051L63.8251452 33.5501338zM63.0365442 24.7637559C63.0235229 24.7366283 62.8564165 24.79224 62.665709 24.8850166L61.3565282 25.5241443C61.1650069 25.6171921 61.0158047 25.7075272 61.0247569 25.7246177 61.033709 25.7417081 61.2130228 25.7124102 61.4045441 25.6196336L62.7129112 24.9813198C62.9044325 24.8874581 63.0503793 24.7897985 63.0384431 24.7642985M63.8878101 34.0145594C63.6767569 34.041687 63.5055814 34.0772243 63.5080229 34.0959424 63.5104644 34.1146604 63.6889644 34.145586 63.9000176 34.1195434L65.3486346 33.9410434C65.5596878 33.9155434 65.7300495 33.8707828 65.7259804 33.8414849 65.7219112 33.812187 65.5466666 33.8097455 65.3356134 33.8357881L63.8878101 34.0145594zM63.7559697 33.0870647C63.5454591 33.120703 63.3761825 33.1630221 63.3799803 33.182554 63.3837782 33.202086 63.5628208 33.225687 63.7730601 33.19232L65.2132676 32.9641764C65.4237783 32.9305381 65.5916985 32.8800806 65.5868155 32.8507827 65.5819325 32.8214849 65.4066878 32.825554 65.1961772 32.858921L63.7559697 33.0870647zM65.4131985 31.8649636C65.4075017 31.8378359 65.232257 31.8462455 65.0236453 31.8861232L63.5929325 32.1641817C63.3835069 32.2048732 63.2155867 32.2539742 63.2196559 32.2726923 63.223725 32.2914104 63.4038527 32.3093147 63.6124644 32.2686232L65.043991 31.9905646C65.2526027 31.9498732 65.4188953 31.8926338 65.4131985 31.8641497M63.606225 35.0513786C63.6078527 35.0709105 63.7830974 35.0725381 63.9949644 35.05382L66.8536772 34.8034317C67.0666294 34.7847137 67.2378049 34.7456498 67.2353892 34.7155381 67.2329219 34.6854274 67.0568634 34.6764743 66.8447251 34.6951924L63.9851984 34.9453094C63.7733314 34.9640275 63.6054112 35.0318466 63.6054112 35.0513786M63.4985282 31.7059955C63.2907303 31.7499423 63.1236239 31.8022987 63.1276931 31.8210168 63.1317622 31.8397349 63.3127037 31.85357 63.5205016 31.8096231L64.9455176 31.5071497C65.1533155 31.4632029 65.3187942 31.4027082 65.3130974 31.3742242 65.3074006 31.3457402 65.1321559 31.3587614 64.924358 31.4013519L63.4985282 31.7059955zM64.0231772 35.4129903C63.8104963 35.4276392 63.6385069 35.4561232 63.6393179 35.4759264 63.6401346 35.4957296 63.8178208 35.5345222 64.0305016 35.5198732L65.4880708 35.4170594C65.7007517 35.4024105 65.872741 35.366602 65.8702995 35.3373041 65.8678581 35.3080062 65.6926134 35.2963413 65.4807463 35.3101764L64.0231772 35.4129903zM65.9226588 36.3377722C65.9226588 36.3084743 65.7465974 36.2902988 65.5347304 36.2978945L64.0722782 36.3491658C63.8595974 36.3564903 63.6867942 36.3784637 63.6876051 36.3979956 63.6884218 36.4175275 63.8636665 36.463102 64.0763474 36.4557775L65.5379857 36.4045062C65.7506666 36.3971818 65.9234698 36.3670701 65.9226588 36.3377722M64.0527463 35.8809424C63.8400655 35.892336 63.6672623 35.9167509 63.6680732 35.9351977 63.6688899 35.9536445 63.8457623 35.9970488 64.0584431 35.9856552L65.5168261 35.9091552C65.729507 35.8985754 65.9014964 35.8652084 65.9006854 35.8356392 65.8998687 35.8060701 65.7238102 35.7916924 65.5111293 35.803086L64.0527463 35.8809424zM65.7845761 34.3400913C65.7813208 34.3107934 65.6060761 34.3050966 65.3942091 34.3278839L63.9398952 34.4795275C63.7280282 34.5023147 63.5568527 34.5356817 63.560108 34.5552136 63.5633633 34.5747456 63.7410495 34.609469 63.9529165 34.5861392L65.4039751 34.4336817C65.6150283 34.4108945 65.7862038 34.3693892 65.7837623 34.3400913M62.122342 27.2337294C61.9251239 27.313756 61.7696824 27.3935113 61.7775494 27.4114156 61.7854165 27.4293198 61.9650016 27.4114156 62.1622197 27.3324741L63.512092 26.7869369C63.7093101 26.7071815 63.8617676 26.6198305 63.850374 26.5929741 63.8389803 26.5661177 63.6694325 26.6084368 63.4722144 26.6884634L62.122342 27.2337294zM64.0348421 27.0584847C64.0242623 27.0313571 63.8530867 27.071506 63.6550548 27.1474635L62.2962303 27.6691284C62.0973846 27.7448145 61.940858 27.8223996 61.9473686 27.8411177 61.9538792 27.8598358 62.1356346 27.8451869 62.3347516 27.7684156L63.6927623 27.2467507C63.891608 27.1710645 64.0454218 27.0861549 64.0351133 27.0584847M61.9435707 26.800772C61.7479803 26.8837826 61.5938952 26.9670645 61.6020335 26.9841549 61.6101718 27.0012454 61.7902994 26.9817135 61.9861612 26.8987028L63.3246399 26.3290219C63.5202303 26.2460113 63.6710601 26.1554049 63.6596665 26.1285485 63.6482729 26.1016922 63.4784537 26.1472666 63.2828633 26.2305485L61.9435707 26.800772zM63.397342 31.2483519C63.190358 31.2963678 63.0240654 31.3508944 63.0281346 31.3696125 63.0322037 31.3883306 63.2131452 31.3999955 63.4204005 31.3517082L64.8394485 31.0240061C65.0464325 30.976804 65.2110974 30.9154955 65.2037729 30.885655 65.1964485 30.8558146 65.0228314 30.8723625 64.8150336 30.9206497L63.397342 31.2483519zM61.7558473 26.3716124C61.5610707 26.4578783 61.4086133 26.5436017 61.4167516 26.561506 61.4248899 26.5794103 61.6042037 26.5558092 61.7984377 26.4692719L63.1276931 25.8768038C63.322741 25.7902666 63.4716718 25.69749 63.4594644 25.6706336 63.4472569 25.6437772 63.2785229 25.6934209 63.0845601 25.7791443L61.7558473 26.3716124zM62.6182356 28.5486071C62.4169484 28.6177826 62.2579803 28.6893997 62.2655761 28.708389 62.2731718 28.7273784 62.4530282 28.7189688 62.6543154 28.649522L64.0296878 28.1758731C64.230975 28.1066975 64.3875016 28.027756 64.3785495 27.9990007 64.3695974 27.9702454 64.1959804 28.0055114 63.9952357 28.0749582L62.6182356 28.5486071zM63.2872037 30.7931497C63.0807622 30.844421 62.9152835 30.9016604 62.9201665 30.9211923 62.9250495 30.9407242 63.1062622 30.9483199 63.3124325 30.8967774L64.7257836 30.5441178C64.9319538 30.4925752 65.094991 30.4274689 65.0884804 30.3989848 65.0819697 30.3705008 64.9067251 30.3900327 64.7005548 30.441304L63.2872037 30.7931497zM61.2390654 26.1746656C61.2472037 26.1925698 61.4126824 26.1337028 61.6050175 26.0441815L64.2022197 24.8329315C64.3945548 24.7431389 64.5421293 24.6479208 64.5299219 24.6199793 64.5177144 24.5920379 64.3489804 24.6446655 64.1558314 24.7341868L61.5594431 25.9454368C61.3662941 26.0352294 61.2309271 26.1567613 61.2390654 26.1746656M62.9104005 29.4392082C62.7066718 29.5010593 62.5452622 29.5680646 62.5501452 29.5859688 62.5550282 29.6038731 62.7375973 29.6038731 62.9413261 29.5412082L64.332975 29.1155752C64.5358899 29.0537241 64.6956719 28.9799369 64.6856346 28.9528092 64.6755974 28.9256816 64.5038793 28.9528092 64.2998793 29.0149316L62.9104005 29.4392082zM62.767709 28.9929582C62.565608 29.0588784 62.4050122 29.1285965 62.410709 29.1462295 62.4164058 29.1638624 62.5973473 29.1600646 62.8002622 29.0938731L64.1837729 28.6440965C64.3866878 28.5787188 64.5440282 28.5022188 64.5350761 28.4745486 64.526124 28.4468784 64.3533208 28.4778039 64.1501346 28.5429103L62.767709 28.9929582zM64.8291399 29.4316125C64.8210016 29.4044848 64.6473846 29.4283571 64.4428421 29.4858678L63.0446825 29.888171C62.8401399 29.9467667 62.6771027 30.0105167 62.6827995 30.028421 62.6884963 30.0463252 62.8702516 30.0487667 63.0747942 29.9898997L64.4729538 29.5889529C64.6774963 29.531171 64.8380921 29.4600965 64.8299538 29.4316125M63.3105335 32.7626179C63.3137888 32.7821498 63.4874059 32.7683147 63.6968314 32.7308785L66.5205496 32.2336285C66.7302464 32.1967349 66.8970815 32.1422083 66.8921985 32.1129104 66.8873155 32.0836125 66.711257 32.0893093 66.5018315 32.1259317L63.6789272 32.6239955C63.4695016 32.6606179 63.3072782 32.7430859 63.3105335 32.7626179M62.8135548 30.5091231C62.8184378 30.528655 62.991241 30.4993572 63.1968686 30.4440167L65.96389 29.7020752C66.1692464 29.6478199 66.3314698 29.5781018 66.3233315 29.5496178 66.3151932 29.5211337 66.1407623 29.5422933 65.9354059 29.5970912L63.1683846 30.3387614C62.9630282 30.3930167 62.8089431 30.4895912 62.8138261 30.5091231M62.122342 28.3079848C62.1288526 28.3269741 62.2975867 28.282756 62.4980601 28.2103252L65.1880389 27.2312879C65.3887836 27.1580432 65.5434112 27.0755752 65.5336453 27.0470911 65.5238793 27.0186071 65.3510761 27.0552294 65.1514165 27.1284741L62.4614378 28.1075114C62.2617782 28.1810273 62.1158314 28.2900805 62.122342 28.3087986M65.9356801 36.8374637C65.9356801 36.8081658 65.7604325 36.7878201 65.5477517 36.7910754L64.0861133 36.8182031C63.8734325 36.8214584 63.6998154 36.8401765 63.6998154 36.8597084 63.6998154 36.8792403 63.8742463 36.9275275 64.0869272 36.9242722L65.5501932 36.8971446C65.762874 36.8938892 65.936491 36.8670329 65.9356801 36.837735M38.6569159 10.9248513C38.6764478 10.9248513 38.7019478 10.752862 38.7111712 10.5409949L38.7868574 9.0817981C38.798251 8.86993108 38.783602 8.69468639 38.7543042 8.69304733 38.7250063 8.69143107 38.6924531 8.86423427 38.6807882 9.07691512L38.6042882 10.5350269C38.5937084 10.747979 38.6360276 10.9240375 38.6555595 10.9248513M22.4771655 15.3982025C22.4934421 15.3876227 22.4088038 15.2354366 22.2897133 15.0574791L21.4758835 13.8486706C21.3567931 13.672612 21.2396016 13.5413142 21.2151867 13.5575908 21.1907718 13.5738674 21.269442 13.7320216 21.3879899 13.9080801L22.2018197 15.1168887C22.3209101 15.2940323 22.4611601 15.4087823 22.4774367 15.3982025M35.8898945 10.9232266C35.9094264 10.9232266 35.9170222 10.747979 35.9053573 10.5352981L35.828586 9.07610129C35.8171924 8.86423427 35.7838254 8.69143107 35.7545275 8.69304733 35.7252296 8.69468639 35.7105807 8.86911725 35.7219743 9.0817981L35.7984743 10.5401811C35.8090541 10.752862 35.8703626 10.9240375 35.8898945 10.9232266M34.5063839 11.0295641C34.5259158 11.0271226 34.5234743 10.8526918 34.500687 10.6405535L34.3482296 9.18976619C34.3262562 8.97844172 34.2847509 8.80726618 34.2551817 8.80997895 34.2256126 8.81269171 34.220187 8.98847895 34.2429743 9.20061726L34.3954317 10.6522184C34.4174051 10.8643567 34.4868519 11.0320056 34.5063839 11.0290216M34.9675541 10.9875162C34.9878998 10.9858886 34.9887137 10.8106439 34.9699956 10.5987769L34.7198785 7.74006403C34.7011605 7.52792572 34.6618253 7.35675019 34.6317136 7.36027678 34.6016029 7.36380338 34.5926498 7.53796296 34.6113679 7.75010126L34.8617562 10.6096279C34.8804743 10.821495 34.9480222 10.9894152 34.9675541 10.9894152M35.4287243 10.9517106C35.4482562 10.9517106 35.4523254 10.7756492 35.4376764 10.5637822L35.3348626 9.10539917C35.3202137 8.89353214 35.2844052 8.72154277 35.2551073 8.72315898 35.2258094 8.72479809 35.2141445 8.90085661 35.2296073 9.11272364L35.3316073 10.5702928C35.3462562 10.7829737 35.4089211 10.9525216 35.4287243 10.9517106M33.5910966 11.1418726C33.6106285 11.1394311 33.6016764 10.9650003 33.5723785 10.7536758L33.3694636 9.30858534C33.3390806 9.09753215 33.2918785 8.9287981 33.2625806 8.93286725 33.2332828 8.9369364 33.2340966 9.11299491 33.2642083 9.32323428L33.4671232 10.7683247C33.4964211 10.9788354 33.5715647 11.1443141 33.5910966 11.1418726M34.0487402 11.0819205C34.0682721 11.079479 34.0625753 10.9050481 34.0373466 10.6937237L33.8588466 9.24456406C33.8317189 9.03323959 33.7877721 8.86477682 33.7592881 8.86776086 33.730804 8.87074491 33.7275487 9.04734597 33.7535913 9.25839917L33.9312775 10.7059311C33.9565062 10.9172556 34.0292083 11.0857184 34.0487402 11.0819205M33.1339955 11.2080641C33.1535274 11.2048088 33.14132 11.0303779 33.1087668 10.8201386L32.8806232 9.38047364C32.8469849 9.17023428 32.7965274 9.00231406 32.7672296 9.00719704 32.7379317 9.01208002 32.7420008 9.1873247 32.7753679 9.39756407L33.0035115 10.8377716C33.0368785 11.0480109 33.1144636 11.211862 33.1339955 11.2086067M36.812235 10.8920269C36.8317669 10.8920269 36.8447882 10.717596 36.840719 10.5049152L36.8135914 9.042463C36.810336 8.82978214 36.7834797 8.65616511 36.7539105 8.65697609 36.7243414 8.65779277 36.7042669 8.83222363 36.7075222 9.04490449L36.7346499 10.5065428C36.7379052 10.7192237 36.7927031 10.8920269 36.812235 10.8920269M36.3494371 10.9047797C36.368969 10.9047797 36.378735 10.7295322 36.3714105 10.5168513L36.3201392 9.05602683C36.3125435 8.84334597 36.2824318 8.66972894 36.2531339 8.67134525 36.223836 8.67298426 36.2067456 8.84660129 36.2140701 9.05928215L36.2653413 10.5201067C36.2726658 10.7327875 36.3299052 10.9055907 36.3494371 10.9047797M15.8661547 21.7770006C15.8775483 21.7615378 15.7462504 21.645974 15.574261 21.5211867L14.3923089 20.6628675C14.2203195 20.5380803 14.066777 20.4547984 14.0483301 20.4786707 14.0298833 20.5025431 14.1568408 20.6235324 14.329644 20.7499473L15.5115961 21.6074527C15.6835855 21.7330537 15.854761 21.7932771 15.8661547 21.7778144M17.0052451 20.3232292C17.0182664 20.3074952 16.8967345 20.1837931 16.7323409 20.0467984L14.5331014 18.2021175C14.3703355 18.0651228 14.2208621 17.9723462 14.2013301 17.9951334 14.1817982 18.0179207 14.2998036 18.1484047 14.4628408 18.2851281L16.6601813 20.129809C16.8229472 20.2668037 16.9911387 20.338692 17.00416 20.3232292M15.5984047 22.1516335C15.6097983 22.1353569 15.4763302 22.0219633 15.3018993 21.8998889L12.9526439 20.2540537C12.7782131 20.1325218 12.6216865 20.0527665 12.6045961 20.0771814 12.5875056 20.1015963 12.7152769 20.2223143 12.8897078 20.343575L15.2405908 21.9894101C15.4150217 22.1117559 15.587011 22.1679101 15.5984047 22.1521761M14.3540589 24.0956017C14.3638248 24.0785113 14.2219472 23.9773251 14.0377504 23.8704421L11.5547556 22.4375591C11.3705588 22.3306761 11.2075216 22.2655697 11.1928726 22.2907984 11.1782237 22.3160272 11.3160322 22.4264367 11.500229 22.5319633L13.9824099 23.9643038C14.1666067 24.0711868 14.3442929 24.1126921 14.3540589 24.0956017M20.6232612 16.7719472C20.6379101 16.7597398 20.5418782 16.6146068 20.4062399 16.4491281L19.4876973 15.3138355C19.3539579 15.1483568 19.2253728 15.0276387 19.2023143 15.0463568 19.1792558 15.0650749 19.2709473 15.2150908 19.4055005 15.3805695L20.3240431 16.5161334C20.4596814 16.6816121 20.6077984 16.7841547 20.6224473 16.7719472M13.2863142 26.1415698C13.2944525 26.1236656 13.1436227 26.0346868 12.9512876 25.9448943L10.3543566 24.7344581C10.1609364 24.644123 9.99301621 24.5925804 9.97999493 24.6205219 9.96697366 24.6484634 10.1156332 24.7425964 10.3085109 24.8323889L12.9048993 26.043639C13.0980482 26.1342453 13.2781759 26.1594741 13.2863142 26.1415698M20.9837878 16.4838515C20.9995218 16.4724579 20.9048463 16.3256972 20.7735484 16.1583196L19.8745377 15.0072929C19.7432399 14.8393727 19.6176388 14.717027 19.5940377 14.7360163 19.5704367 14.7550057 19.6602292 14.9055642 19.790442 15.0734844L20.6889101 16.2228834C20.8199367 16.3908036 20.968325 16.4960589 20.9837878 16.4846653M19.2297133 17.9831973C19.2435484 17.9699047 19.1366654 17.8315536 18.9918037 17.6758409L17.9948622 16.6061972C17.8497292 16.4504845 17.7135483 16.3398036 17.6915749 16.3593355 17.6696015 16.3788674 17.7713302 16.5221015 17.9164632 16.6788994L18.9142186 17.7482717C19.0593515 17.9039845 19.2150643 17.9962185 19.2297133 17.9831973M20.2676175 17.064926C20.2830803 17.0519047 20.1837931 16.9083994 20.0467984 16.7453621L18.2021175 14.5461227C18.0664792 14.3833567 17.9346388 14.265894 17.9118515 14.2846121 17.8890643 14.3033302 17.9818409 14.4533461 18.1188356 14.6163834L19.9635165 16.8156228C20.1005111 16.9783887 20.2521548 17.0779472 20.2676175 17.064926M18.8944154 18.3003196C18.9082505 18.2864845 18.798926 18.1503037 18.6502664 17.9973036L17.6354207 16.9463781C17.4870324 16.7931068 17.3494951 16.6840536 17.3283355 16.7043994 17.307176 16.7247451 17.4113462 16.8671653 17.5589207 17.019894L18.5745803 18.0713622C18.7221547 18.2246334 18.880309 18.3155111 18.8941441 18.3003196M12.3992397 28.2724475C12.4057503 28.2537294 12.2478673 28.1788571 12.0465801 28.106155L9.35904279 27.1263039C9.15856938 27.053873 8.98658002 27.0177932 8.97681406 27.0449209 8.9670481 27.0720486 9.12113321 27.155873 9.32160662 27.2291177L12.0123992 28.208155C12.2128727 28.2805858 12.3938141 28.289538 12.4003248 28.2716337M11.2056226 32.7270806C11.2088779 32.7072774 11.0401439 32.6608891 10.8307184 32.623453L8.00781403 32.1262029C7.7983885 32.0895806 7.62314381 32.08307 7.617447 32.1123678 7.61175019 32.1416657 7.78021296 32.1970061 7.98909595 32.2338998L10.8128141 32.7319636C11.0222396 32.7685859 11.2023673 32.7466125 11.2056226 32.7270806M11.7053141 30.4738572C11.7110109 30.454054 11.5471599 30.3938306 11.3409896 30.3382189L8.5739683 29.5970912C8.36861191 29.5428359 8.19418106 29.5205912 8.18604276 29.549889 8.17790446 29.5791869 8.3409417 29.6470061 8.54629809 29.7023465L11.3133194 30.4440167C11.5186758 30.4982721 11.7004311 30.4931178 11.7053141 30.4735859M22.0981921 15.6602557C22.1144686 15.6488621 22.0279314 15.4974898 21.9063995 15.3227876L20.2608356 12.9727184C20.1384899 12.7982876 20.0185856 12.6694312 19.9941707 12.6867929 19.9697558 12.7041546 20.048426 12.8604099 20.1710431 13.0348408L21.8160644 15.38491C21.9384101 15.5593408 22.0816442 15.6716493 22.0981921 15.6602557M10.9069585 35.0150275C10.9085747 34.9954956 10.7365854 34.9637562 10.5247184 34.9450381L7.66519168 34.6954636C7.45305338 34.6767456 7.2778087 34.6856987 7.27534141 34.7158094 7.27292572 34.7459211 7.44410125 34.7852562 7.65515445 34.8031605L10.5141386 35.0540913C10.7268194 35.0722668 10.9045056 35.0345594 10.9061333 35.0150275M25.2599209 13.7583355C25.2778251 13.7493833 25.2124474 13.5871599 25.1164155 13.3980801L24.4553145 12.1011067C24.3590113 11.9112131 24.2589102 11.7668939 24.2328676 11.7799152 24.2068251 11.7929365 24.2637932 11.959229 24.3606389 12.1491226L25.0209262 13.4452823C25.1180432 13.6351759 25.2428304 13.7672876 25.2599209 13.7583355M30.4252986 11.7799152C30.4448306 11.7750322 30.4155327 11.602229 30.3601923 11.3968726L29.6190646 8.62985128C29.5648093 8.42449489 29.4950912 8.26308532 29.4657933 8.27040978 29.4364954 8.27773425 29.4584688 8.45297894 29.5129954 8.6586066L30.2549369 11.425628C30.3091923 11.6309843 30.4057667 11.7850694 30.4252986 11.7801865M29.5365965 12.0332875C29.5553146 12.0273195 29.5195061 11.8569577 29.4573837 11.6535003L29.032022 10.2613088C28.9698997 10.0583939 28.8963837 9.89861195 28.8692561 9.90675025 28.8421284 9.91488855 28.8692561 10.0893194 28.9319209 10.2922343L29.3567401 11.683612C29.419405 11.8867982 29.5195061 12.0392556 29.5376816 12.0335588M29.9793199 11.9019897C29.998038 11.8962929 29.9654848 11.7243035 29.9068891 11.5194897L29.505671 10.1216013C29.4470752 9.91705876 29.376272 9.75646301 29.3475167 9.76460131 29.3187614 9.77273961 29.3450752 9.94635664 29.4039422 10.1508992L29.8040752 11.5498726C29.8629422 11.7544152 29.9606018 11.9076865 29.9793199 11.9025322M28.6582029 12.3175854C28.6769209 12.3110748 28.6354156 12.1407131 28.5659688 11.9402397L28.0923199 10.5664949C28.0231443 10.3652077 27.9431177 10.2086811 27.9154475 10.2176332 27.8877773 10.2265854 27.9219582 10.3993886 27.991405 10.6006758L28.4650539 11.9765907C28.5342294 12.1781492 28.6402986 12.3257237 28.6582029 12.3189418M29.0963146 12.1721812C29.1150327 12.1662131 29.0759688 11.9958514 29.0100486 11.7923939L28.5608146 10.4088832C28.4948943 10.2059683 28.4181231 10.0486279 28.3904528 10.0562237 28.3627826 10.0638194 28.3937082 10.237979 28.4590858 10.4400801L28.9096763 11.8249471C28.9750539 12.0273195 29.0775965 12.1776067 29.0963146 12.1708248M30.8712774 11.6648939C30.8899955 11.6600109 30.8639529 11.4872077 30.8115965 11.2810375L30.4589369 9.86741514C30.4076657 9.66124493 30.3417455 9.49820769 30.3140752 9.50553216 30.286405 9.51285662 30.304038 9.68728748 30.3555806 9.8934577L30.7082401 11.3062662C30.7603253 11.5132503 30.8525593 11.6697769 30.8710061 11.6648939M31.772187 11.4581811C31.7909051 11.454112 31.7705593 11.2796811 31.7266125 11.0718833L31.4233253 9.64795237C31.3791072 9.43988322 31.3196976 9.27440449 31.2912136 9.28037258 31.2627295 9.28634066 31.2757508 9.4621279 31.3196976 9.66992578L31.622171 11.0946705C31.6661178 11.3035535 31.7534689 11.4625216 31.772187 11.4581811M32.2246764 11.3675748C32.2442083 11.3643194 32.226304 11.1898886 32.1856125 10.9812769L31.9067402 9.55002152C31.8660487 9.34113854 31.8096231 9.17484598 31.7811391 9.18054279 31.7526551 9.1862396 31.762421 9.36148428 31.8031125 9.57036726L32.081171 11.0005375C32.1218625 11.2091492 32.2051444 11.3705588 32.2246764 11.3664897M31.3207827 11.5566545C31.3395008 11.5525854 31.3158997 11.3797822 31.2686976 11.1719843L30.9401816 9.75266514C30.8929795 9.54459599 30.8300433 9.3810162 30.8015593 9.38752683 30.7730753 9.39403747 30.7893518 9.56928216 30.8373678 9.77626621L31.1642561 11.1945003C31.2125433 11.4017556 31.3020646 11.5596386 31.3207827 11.5555694M28.2230752 12.4708567C28.2417933 12.4643461 28.1978465 12.2947982 28.1251443 12.0951386L27.1452932 9.40434598C27.0728624 9.20441513 26.9895805 9.04870236 26.9619103 9.05955342 26.93424 9.07040449 26.9708624 9.24130875 27.0432932 9.44178215L28.0228731 12.1317609C28.0955752 12.3314205 28.2048997 12.4773673 28.2236177 12.4708567M24.4452772 14.1931919C24.4623676 14.1834259 24.3910219 14.023644 24.2887506 13.8378195L23.5834315 12.5628195C23.4798038 12.3761812 23.3748197 12.2359312 23.3493197 12.2497663 23.3238197 12.2636014 23.3870272 12.4282663 23.4903836 12.6140907L24.1970591 13.8890908C24.3006868 14.0757291 24.4295432 14.2029578 24.4466336 14.1931919M24.0437878 14.4186227C24.0608783 14.4080429 23.9876336 14.2490748 23.8810219 14.0659631L22.4481389 11.584596C22.3420697 11.4003992 22.2338304 11.2617769 22.2075165 11.2764258 22.1812027 11.2910748 22.2476655 11.4549258 22.3534633 11.6391226L23.7874315 14.1213036C23.8932293 14.3055004 24.0261549 14.4302876 24.0432453 14.4197078M22.8626495 15.1442876C22.8789261 15.1337078 22.7975431 14.9788089 22.681708 14.8003089L21.8871389 13.5776652C21.7713037 13.3991652 21.6562825 13.2662397 21.6310537 13.2825163 21.605825 13.2987929 21.6815112 13.4569472 21.7973463 13.6351759L22.5930006 14.8594472C22.7085644 15.0382185 22.8463729 15.15541 22.8626495 15.1448302M24.8508357 13.972644C24.8679262 13.9636918 24.8003783 13.8022823 24.7008198 13.6148301L24.0169315 12.3276227C23.9165591 12.1401705 23.8140166 11.997479 23.787974 12.0113141 23.7619315 12.0251492 23.8229687 12.1898141 23.9236123 12.3780801L24.6075006 13.6644738C24.707873 13.8519259 24.8351017 13.9815961 24.8516496 13.972644M23.2522027 14.8966121C23.2684793 14.8860323 23.1903517 14.7303195 23.076958 14.549378L22.304091 13.3128993C22.1917825 13.1316865 22.0792027 12.9974046 22.053974 13.0128674 22.0287452 13.0283301 22.1011761 13.1889259 22.2137559 13.3690535L22.9871655 14.6055323C23.0997453 14.7864738 23.2359261 14.906378 23.2522027 14.8966121M26.0908411 13.3544046C26.1087453 13.3462663 26.0501496 13.1816014 25.960357 12.9884525L24.7499208 10.3912503C24.6593145 10.1981013 24.5640964 10.0513407 24.5364262 10.0635481 24.5087559 10.0757556 24.560841 10.2447609 24.6503623 10.4379098L25.8618836 13.0340269C25.9514049 13.2271759 26.0729368 13.3625429 26.0908411 13.3544046M26.9334262 12.9781439C26.9513305 12.9708195 26.8976177 12.8037131 26.8146071 12.6081227L26.2470964 11.2696439C26.1640858 11.0729684 26.0734794 10.9221386 26.046623 10.9346173 26.0197666 10.947096 26.0653411 11.1155588 26.148623 11.3111492L26.7183039 12.649628C26.8015858 12.8460322 26.9163358 12.9862822 26.9353252 12.9781439M32.6787934 11.283479C32.6985966 11.2802237 32.6844902 11.1066067 32.6478679 10.8969099L32.149804 8.07346297C32.1131817 7.86376616 32.0586551 7.69665977 32.0293572 7.70154275 32.0000593 7.70642573 32.0054849 7.88248424 32.0431923 8.09218106L32.5404423 10.9134577C32.5770647 11.1231545 32.6592615 11.2861918 32.6787934 11.2829365M26.510506 13.162612C26.5284102 13.1552876 26.472256 12.9898088 26.3857188 12.7950322L25.7932507 11.4657769C25.7067134 11.270729 25.6144794 11.1217982 25.587623 11.1340056 25.5607666 11.146213 25.6095964 11.3141333 25.6961336 11.5089099L26.2877879 12.8381652C26.375139 13.0329418 26.4926017 13.1715642 26.510506 13.1636971M27.3609581 12.8023567C27.3788624 12.7950322 27.3284049 12.627112 27.2483784 12.4298939L26.7031124 11.0819205C26.6238996 10.8844311 26.536006 10.732245 26.5091496 10.7436386 26.4822932 10.7550322 26.5254262 10.9245801 26.6043677 11.1217982L27.1496337 12.4716705C27.2310166 12.6688886 27.3430539 12.8107663 27.3609581 12.8034418M59.0642409 14.554261L59.50181 14.1164206C59.570443 14.0488727 59.6404324 13.9807823 59.7139483 13.9175748L59.7071664 13.911878C59.5899749 13.9476865 59.50181 13.9712876 59.4049643 13.9965163L58.6386079 14.1213036 58.6345387 14.1253727 59.0642409 14.554261zM58.5686185 15.0512397L58.9248047 14.6942397 58.3166025 14.0852238 58.4332515 13.9685748 59.8547409 13.7168301 60.0462622 13.9067238 59.2324324 14.7219099 59.4166292 14.9052929 59.277193 15.0439153 59.0929962 14.8605323 58.73681 15.2183461 58.5686185 15.0512397zM60.9979005 15.158394L60.4973952 14.6578887 60.110826 14.9438142C60.1513134 14.9744357 60.1897372 15.007694 60.2258473 15.0433727 60.3262967 15.1402146 60.3993841 15.2618711 60.4377143 15.3960323 60.4819324 15.5587983 60.4534483 15.75466 60.2879696 15.9201387 60.0318845 16.1762238 59.6369058 16.1642876 59.3528792 15.880261 59.2093738 15.7367557 59.1288047 15.5753461 59.10656 15.4733461L59.2861451 15.3821972C59.3247165 15.5153269 59.3961778 15.6366059 59.493943 15.7348568 59.6610494 15.9019632 59.9127941 15.9369579 60.0888526 15.7619844 60.255959 15.5908089 60.2640973 15.3550695 60.0017728 15.0943727 59.9405405 15.0339404 59.8751866 14.9778321 59.8061824 14.9264525L60.5201824 14.3838993 61.1471026 15.0108195 60.9979005 15.158394zM13.8261546 16.7516015C13.9661389 16.7160267 14.0944832 16.6447035 14.1986174 16.5446174 14.426761 16.3162025 14.3527025 16.1002664 14.2417504 15.9933834 14.0559259 15.8124419 13.8123195 15.8989791 13.641144 16.0701547L13.5423993 16.1697132 13.4086599 16.0359738 13.5095748 15.9377717C13.6384312 15.8089153 13.7344631 15.579144 13.5795642 15.4242451 13.4745801 15.3189898 13.315612 15.2929472 13.1525748 15.4559844 13.0612596 15.5527098 13.0000836 15.6739307 12.9765163 15.8048461L12.8020854 15.7218355C12.8199897 15.6027451 12.9021865 15.4193621 13.0432503 15.2782983 13.3017769 15.0208568 13.5714259 15.0566653 13.7312078 15.2164472 13.8668461 15.3520855 13.8999418 15.5465908 13.7973993 15.7665961L13.8014684 15.7706653C13.9954312 15.6409951 14.2471759 15.6312291 14.4305589 15.8146121 14.6402557 16.0251227 14.6606014 16.371543 14.3451067 16.6862238 14.1983461 16.8327132 14.0231014 16.9159951 13.9162184 16.9379685L13.8261546 16.7516015z"/>
    <polygon points="14.262 14.432 14.258 14.436 14.153 14.788 13.984 14.687 14.117 14.246 14.269 14.096 15.579 15.406 15.407 15.578"/>
    <path d="M15.6776174 12.9843833L15.1779259 13.4848886 15.4641227 13.8722716C15.493638 13.8309646 15.5265788 13.792216 15.5625961 13.7564365 15.6593716 13.6560797 15.7810781 13.583243 15.9152557 13.5453833 16.0780217 13.5006227 16.2749685 13.5291067 16.4396334 13.6945855 16.6954472 13.9503993 16.6837823 14.3456493 16.3986706 14.6294046 16.2554366 14.7729099 16.0948408 14.8537504 15.9917557 14.8765376L15.9011493 14.6964099C16.0342972 14.6577391 16.1555739 14.5861859 16.2538089 14.4883408 16.4220004 14.3212344 16.4553674 14.0686759 16.2809366 13.894245 16.109761 13.7263248 15.8756493 13.7190003 15.6141387 13.980511 15.5537814 14.0416786 15.4979332 14.107137 15.4470323 14.1763727L14.9023089 13.4621014 15.5292291 12.8354525 15.6776174 12.9843833zM19.9523941 11.3900907C20.0971204 11.391889 20.2398108 11.3558892 20.3663622 11.2856492 20.6452346 11.1250535 20.6297718 10.8969099 20.5497452 10.765612 20.4179048 10.5423513 20.1593782 10.5626971 19.9499526 10.684229L19.8292345 10.7536758 19.7348303 10.5909098 19.8560909 10.5209205C20.0142452 10.4303141 20.1667026 10.233096 20.0573782 10.0432024 19.9833197 9.91515983 19.836559 9.84815451 19.6360856 9.96317579 19.5226749 10.0329227 19.4322208 10.1344124 19.3759313 10.2550694L19.2286281 10.1302822C19.2766441 10.0196013 19.4038728 9.86388855 19.576676 9.76433004 19.8927133 9.58176088 20.1447292 9.6870162 20.257309 9.8817928 20.3525271 10.0472715 20.3346229 10.2444896 20.1789101 10.4303141L20.1813516 10.4351971C20.4021707 10.3603247 20.6476761 10.416479 20.7781601 10.6405535 20.9257346 10.8982662 20.8554739 11.237362 20.4708037 11.4606226 20.290676 11.5642503 20.0991548 11.5984311 19.9906441 11.5927343L19.9523941 11.3900907zM21.2200697 10.6581864C21.3645573 10.6602898 21.5070823 10.624565 21.6334952 10.5545588 21.9129101 10.3931492 21.8966335 10.1658194 21.8168782 10.0337077 21.6847665 9.81044706 21.427325 9.8307928 21.2168144 9.95232472L21.0963676 10.0225854 21.001692 9.8598194 21.1232239 9.78955876C21.2813782 9.69840982 21.4346495 9.50200556 21.3245112 9.31211194 21.2501814 9.18325555 21.1028782 9.11625023 20.9029473 9.23208534 20.7900416 9.30199553 20.6997826 9.40308937 20.6430644 9.52316514L20.4954899 9.3983779C20.5435058 9.28742577 20.6707346 9.1327981 20.8435378 9.03242576 21.1598463 8.84985661 21.411591 8.95484065 21.5241708 9.15070236 21.6196601 9.31618109 21.6025697 9.51339918 21.4460431 9.69840982L21.4484846 9.70410663C21.6693037 9.62977684 21.9153516 9.68457471 22.0452931 9.90946302 22.1936814 10.1671758 22.1228782 10.5062715 21.7379367 10.7287184 21.5578091 10.8331598 21.3662878 10.8673407 21.2580484 10.8616439L21.2200697 10.6581864zM22.3146708 9.29827683C22.5558357 9.71550025 22.8216868 9.87853749 23.018091 9.76460131 23.2405378 9.63655876 23.1974048 9.31618109 22.9611229 8.90628214 22.732708 8.51076085 22.4817772 8.30947362 22.2558038 8.43995766 22.0659101 8.54982469 22.0615697 8.86125023 22.3135857 9.29827683M23.171091 8.77091512C23.4865857 9.31618109 23.4581017 9.73448961 23.1027293 9.939846 22.7888623 10.1207875 22.4063623 9.94961196 22.095208 9.42143641 21.7845963 8.88322363 21.8456335 8.45297894 22.1708942 8.26471298 22.5099899 8.06993638 22.8762133 8.25983 23.171091 8.77091512M9.29610662 23.5156123C9.42218367 23.444074 9.52774513 23.341315 9.60264918 23.217208 9.76541514 22.938607 9.6360162 22.7495272 9.50146301 22.6746548 9.27494704 22.5474261 9.06145236 22.6941867 8.94073427 22.9036123L8.87047363 23.0251442 8.70770767 22.9307399 8.77796831 22.8100219C8.86911725 22.6526814 8.90356938 22.4047346 8.71259065 22.2945963 8.58481937 22.2202665 8.42422362 22.2357293 8.30838851 22.4356601 8.24518937 22.5525819 8.21773859 22.6854965 8.22944702 22.8178889L8.0395534 22.783708C8.02571829 22.6638038 8.05935659 22.464958 8.15864382 22.2921548 8.34121298 21.9766601 8.6111332 21.9424793 8.80672363 22.053974 8.97220236 22.1502772 9.05548427 22.329591 9.01289385 22.5693995L9.01777682 22.5726548C9.17186194 22.3974101 9.41248428 22.3233516 9.63737259 22.4530218 9.8934577 22.6014101 10.0033247 22.9307399 9.78087791 23.316224 9.67643642 23.4963517 9.52886194 23.6219527 9.43120237 23.6707825L9.29610662 23.5156123zM9.56439918 21.7902931C9.98189387 22.031458 10.2933194 22.0395963 10.4053566 21.8423782 10.534213 21.6199314 10.3361811 21.3646601 9.92628217 21.1275644 9.53157471 20.8994207 9.21363853 20.8511335 9.0853247 21.0754793 8.9751864 21.2653729 9.12764385 21.5385484 9.56439918 21.7902931M10.0429311 20.9043037C10.5884684 21.2197984 10.773479 21.5963303 10.5678513 21.9517027 10.3869098 22.2647559 9.97104281 22.3078889 9.4366279 22.005958 8.89787257 21.6956176 8.73510661 21.2922293 8.92500023 20.9661548 9.11977683 20.6278729 9.53211726 20.6099686 10.0432024 20.9043037M10.2960322 20.5223463C10.7132556 20.7629686 11.0246811 20.7719207 11.1388886 20.5747027 11.2669311 20.3519846 11.0686279 20.0953569 10.6595428 19.8598888 10.2642928 19.6314739 9.94635664 19.5834579 9.81668642 19.8083462 9.70654812 19.9982399 9.85900557 20.2695165 10.2960322 20.5223463M10.7745641 19.6363569C11.3198301 19.9510377 11.5048407 20.3283835 11.2994843 20.6837558 11.1185428 20.996809 10.7026758 21.0393995 10.1679896 20.7380112 9.63031939 20.4290271 9.46755343 20.0256388 9.65744705 19.6995643 9.85222365 19.3612824 10.2648354 19.342293 10.7759205 19.637442M27.2581443 7.79730339C27.3973401 7.83630313 27.5442696 7.83854633 27.6845911 7.80381403 27.9960167 7.72053211 28.0391496 7.49645764 27.9968305 7.34806934 27.9265699 7.09876614 27.6712986 7.05129273 27.438272 7.1142289L27.3026337 7.15085125 27.2546177 6.96909592 27.390256 6.93247358C27.5671284 6.88500018 27.7651603 6.73417038 27.709006 6.52230336 27.6699422 6.37879803 27.5462401 6.27815441 27.3227081 6.33647888 27.1956677 6.37474269 27.0825405 6.44921811 26.9971762 6.5507874L26.8870379 6.39181931C26.9619103 6.29741505 27.1249475 6.17995228 27.3180964 6.12868101 27.670756 6.03400547 27.8864209 6.20029803 27.9450167 6.41813314 27.9938465 6.60314378 27.9262986 6.78978209 27.7279954 6.92840443L27.729623 6.93410124C27.961022 6.91863847 28.1845539 7.03582997 28.251288 7.28676082 28.3286018 7.57268636 28.1723465 7.88356935 27.7426443 7.99831935 27.5421709 8.05257467 27.349022 8.03575552 27.2445805 8.00157467L27.2581443 7.79730339zM29.2552827 6.83400017L29.0955007 6.23719165C29.070272 6.14332994 29.0482986 6.04892569 29.0287667 5.95343632L29.0206284 5.95587781C28.9935007 6.07496824 28.9698997 6.16448952 28.9422295 6.25997888L28.6676975 6.98564379 28.6693252 6.9913406 29.2552827 6.83400017zM29.437038 7.51219168L29.3065539 7.0238938 28.4742773 7.24661189 28.4319582 7.08682997 28.9243252 5.73044695 29.1861071 5.66018631 29.4845114 6.77242038 29.7348997 6.70460123 29.786171 6.89449486 29.5360539 6.96204273 29.6654529 7.45034061 29.437038 7.51219168zM30.7445912 5.46079801L30.0615167 5.64336716 30.115772 6.12189909C30.1623563 6.10193531 30.2103149 6.08534472 30.2592774 6.07225547 30.3930895 6.03248089 30.5352566 6.03022873 30.6702614 6.06574484 30.8330274 6.10725016 30.9890114 6.23122356 31.0500487 6.4569257 31.1439104 6.80578741 30.9358412 7.14244167 30.5479157 7.24688316 30.3523252 7.29896827 30.1721976 7.28757465 30.0718252 7.25583529L30.0832188 7.0550906C30.2178246 7.08801242 30.3585101 7.08689365 30.4925752 7.05183529 30.7215327 6.98998422 30.8772455 6.78951081 30.8129529 6.54970229 30.7483891 6.31911718 30.5495433 6.19514377 30.1917295 6.29063314 30.1084818 6.31381021 30.0269099 6.34263227 29.9475805 6.3768991L29.8328305 5.48684057 30.6895221 5.25706928 30.7445912 5.46079801zM6.93355869 31.354421L6.78517039 31.3142721 6.6517023 31.0747348C6.3386491 30.5009848 6.16340441 30.2337774 5.89212781 30.1578199 5.71037249 30.1087189 5.5188512 30.1521231 5.4469629 30.4185167 5.40382992 30.5812827 5.45021822 30.7380806 5.4968778 30.8400806L5.30535652 30.8710061C5.22501594 30.6968289 5.20877898 30.4998718 5.25951077 30.3148891 5.36313843 29.9302188 5.67130865 29.8382561 5.92630866 29.9079742 6.25726612 29.9961391 6.46018102 30.3072933 6.72277677 30.7817561L6.81663847 30.9610699 6.82233528 30.9610699 7.03745763 30.1575486 7.23874486 30.211804 6.93355869 31.354421zM7.09903741 28.8749529C6.88201613 28.8160858 6.7363406 28.9392454 6.60260123 29.1633199 6.60667038 29.3892933 6.71436719 29.5382242 6.88554273 29.5848837 7.06485656 29.641038 7.26126082 29.5466337 7.32311189 29.3182188 7.38116508 29.1011975 7.28079274 28.9229688 7.09903741 28.8749529M6.0255959 29.3011284C6.20490973 29.3491444 6.33675016 29.2392773 6.44770229 29.0485699 6.43630867 28.8798358 6.35818101 28.7314475 6.1959576 28.6880433 6.05245228 28.6506071 5.88127675 28.6953678 5.82240972 28.9132029 5.7681544 29.1144901 5.87151079 29.2596231 6.0255959 29.3011284M6.45963846 29.3580965C6.31287782 29.5308997 6.13410654 29.5751178 5.98192036 29.534155 5.69762249 29.457655 5.56957993 29.1665752 5.6534044 28.8527082 5.74645227 28.5054741 6.01040441 28.391538 6.2331225 28.4501337 6.38476612 28.4908252 6.52745761 28.608288 6.57303208 28.8570486L6.58117038 28.8594901C6.72955868 28.6598305 6.92352145 28.5646124 7.14108529 28.6223943 7.451697 28.7062188 7.58950551 29.0293092 7.4980853 29.3705752 7.39798423 29.7457508 7.1142289 29.9112295 6.85271826 29.8417827 6.62674485 29.7807454 6.50277144 29.6038731 6.46859059 29.3575539L6.45963846 29.3580965zM6.39073421 27.0343411L6.20816505 27.7174156 6.64926081 27.9097507C6.65491792 27.8593602 6.66444066 27.8094792 6.67774485 27.7605486 6.7112092 27.6248967 6.78011265 27.5005709 6.87740443 27.4002932 6.9948672 27.2812028 7.17987784 27.2079581 7.40476615 27.2681815 7.75525552 27.3620432 7.94297893 27.7092773 7.83880871 28.0980167 7.7867236 28.2936071 7.68716509 28.4444369 7.60903743 28.5146975L7.44111721 28.4045592C7.53713245 28.304672 7.6063686 28.1821557 7.64240445 28.0483731 7.70344169 27.8202294 7.60740977 27.5844901 7.36760125 27.5201975 7.13538848 27.4605167 6.92921826 27.570655 6.83291507 27.9292826 6.8121738 28.0125048 6.79668053 28.0969477 6.78652677 28.1821124L5.9583193 27.836506 6.18727675 26.9806283 6.39073421 27.0343411zM63.6762144 21.1175271C63.784725 21.3036229 64.0120548 21.3394314 64.2420974 21.2073197 64.4721399 21.075208 64.533991 20.863341 64.4181559 20.6647665 64.3389372 20.5342802 64.1939983 20.4583647 64.041624 20.4675484 64.0025388 20.4677419 63.9642219 20.478422 63.9306718 20.4984739 63.6688899 20.6558144 63.544374 20.8896548 63.6745867 21.1161707L63.6762144 21.1175271zM65.2032304 20.7336707C65.173882 20.6779816 65.1391753 20.6252856 65.0996027 20.5763303 64.8459591 20.2689739 64.4922144 20.2323516 64.2071027 20.3481867L64.2111718 20.3555112C64.3840706 20.3789073 64.5355901 20.4830078 64.6194431 20.6360112 64.784108 20.920309 64.6935016 21.2382452 64.3807197 21.4191867 64.0871984 21.5887346 63.7000867 21.5464154 63.5074803 21.2122027 63.3094484 20.8690378 63.4464431 20.4908782 63.8639378 20.249442 64.179975 20.0676867 64.4946559 20.0367611 64.7434165 20.1034952 64.9582848 20.1663151 65.1461207 20.2988883 65.2772889 20.4802984 65.3154899 20.5282466 65.3501252 20.5789303 65.3809166 20.631942L65.2032304 20.7336707zM64.8622357 21.6592665C64.4439272 21.8998889 64.2817038 22.1654686 64.3950974 22.362958 64.5239538 22.5854048 64.8440602 22.541458 65.2542304 22.3057187 65.6494804 22.0767612 65.8510389 21.8255591 65.7205549 21.6003995 65.6104166 21.4105059 65.298991 21.4056229 64.8622357 21.6581814M65.3895974 22.515958C64.8432463 22.8303676 64.4260229 22.8018836 64.2206665 22.4465112 64.039725 22.1326442 64.2109006 21.7504154 64.7390761 21.4398037 65.2770176 21.1283782 65.7075336 21.1905005 65.8957995 21.5157612 66.0905761 21.8540431 65.9006825 22.2210804 65.3895974 22.515958M51.5968098 9.68647365C51.6682276 9.81256976 51.7710187 9.91807074 51.8952141 9.99274493 52.1740864 10.1533407 52.3631662 10.0255694 52.4377673 9.89101621 52.5639109 9.66422897 52.4179641 9.45154811 52.2077247 9.33001619L52.0864641 9.26084066 52.1808683 9.0980747 52.3015864 9.16806406C52.4597407 9.25867045 52.7085013 9.2928513 52.817012 9.10295768 52.8910705 8.97491512 52.8747939 8.81350554 52.6751343 8.69875554 52.5582411 8.63546259 52.4253249 8.60791714 52.2929056 8.61954277L52.3270864 8.42964915C52.4469907 8.41581404 52.6458364 8.44836724 52.8186396 8.54792575 53.1341343 8.73130873 53.169129 9.00095768 53.0565492 9.19600555 52.9613311 9.36148428 52.7812035 9.44530875 52.5411237 9.4029896L52.5378684 9.40787258C52.713113 9.56114386 52.7882567 9.80230876 52.6585864 10.0266545 52.5093843 10.2832822 52.1800545 10.3934205 51.7953843 10.1698886 51.6144428 10.0665322 51.4896556 9.91814387 51.4400119 9.82102685L51.5968098 9.68647365zM53.3226716 9.95422366C53.0823205 10.3717183 53.0733684 10.6831439 53.2705865 10.7970801 53.4930333 10.9251226 53.7491184 10.7270907 53.9854003 10.3177343 54.214629 9.92248429 54.2618312 9.60536195 54.0377567 9.4748779 53.8478631 9.36501088 53.5765865 9.51746833 53.3226716 9.95422366M54.2089322 10.4327556C53.8942514 10.9788354 53.5174482 11.1630322 53.161262 10.9576758 52.8482088 10.7767343 52.8050758 10.3608673 53.1070067 9.8261811 53.4184322 9.2882396 53.8210067 9.12601619 54.1470812 9.31428215 54.4853631 9.50933003 54.5040812 9.92248429 54.2092035 10.4327556"/>
    <polygon points="68.757 28.629 68.597 28.672 66.758 28.329 66.691 28.078 68.482 28.431 68.488 28.43 68.253 27.554 68.454 27.5"/>
    <path d="M68.9064273,30.0034635 L68.7230443,29.320389 L68.2453262,29.3746444 C68.2652516,29.4209938 68.2819301,29.4686726 68.2952411,29.5173359 C68.3337731,29.6514889 68.3362993,29.7934232 68.3025656,29.9288625 C68.2599751,30.0916284 68.1370868,30.2476125 67.9102996,30.3086497 C67.5606241,30.4014263 67.2247836,30.1936284 67.1206134,29.8057029 C67.068257,29.6098412 67.0796506,29.4297135 67.11139,29.3296124 L67.3121347,29.3410061 C67.2793382,29.4755347 67.2804568,29.6161015 67.31539,29.7500912 C67.3764272,29.9785061 67.5785283,30.1350327 67.817523,30.0704688 C68.0481081,30.0053625 68.1720815,29.8073305 68.0757783,29.4484316 C68.0530373,29.3658575 68.0244819,29.284996 67.9903262,29.2064529 L68.8803847,29.0914316 L69.110156,29.9481231 L68.9064273,30.0034635 Z"/>
    <polygon points="44.405 5.64 44.402 5.838 44.759 5.753 44.764 5.754 44.345 7.318 44.579 7.382 45.059 5.592 44.852 5.535"/>
    <path d="M46.7257671 6.25645229L46.0426927 6.0730693 45.8511714 6.51497889C45.9015198 6.52023578 45.9513969 6.52930435 46.0003735 6.54210655 46.1361198 6.57517644 46.2603479 6.64446291 46.359815 6.74257996 46.4789054 6.8592289 46.5529639 7.04505337 46.4927405 7.2707555 46.3988788 7.62043104 46.050831 7.80788318 45.6620916 7.70479807 45.467315 7.65244168 45.3164852 7.55315445 45.2454107 7.47475551L45.355549 7.30602146C45.4555431 7.40206866 45.5779958 7.47154863 45.7117352 7.50812253 45.9401501 7.56943104 46.1756182 7.47312785 46.2399107 7.23359061 46.2987778 7.00192039 46.1894533 6.79493634 45.8316395 6.69890443 45.7482768 6.67748388 45.6635241 6.661893 45.5779958 6.65224485L45.9236022 5.82322355 46.780565 6.05326611 46.7257671 6.25645229zM57.3041983 18.9163888L57.3229164 18.9378196 57.7509908 17.7498994 58.2430866 16.3813089 56.8744961 16.8744898 55.6884748 17.3017504 55.7096344 17.3204685C56.2621344 17.8306494 56.793294 18.3626228 57.3031132 18.9163888M16.3438728 16.4711015L16.8370536 17.8399632 17.2192824 18.9011973 17.2388143 18.8800377C17.7222292 18.3555696 18.2262611 17.8504526 18.7509101 17.3646866L18.7712558 17.3451547 17.713277 16.9634685 16.3438728 16.4711015z"/>
    <path d="M49.008831,33.5848572 C49.0413842,33.5636977 56.6205812,28.8497241 56.6205812,28.8497241 L46.4002352,31.4607614 L55.2104854,18.9456867 C59.4735973,23.2302293 62.2094218,29.0160167 62.6030441,35.4393041 L49.008831,33.5848572 Z M38.7681393,36.2723945 L41.3414691,33.3154796 L60.2887834,36.3920275 L38.7681393,36.2723945 Z M33.5683094,33.2867243 L36.8491286,12.5158886 L37.1621818,36.7248839 L33.5683094,33.2867243 Z M30.1192986,33.0968306 L23.2695644,23.6916708 L32.4596019,32.7501391 L30.1192986,33.0968306 Z M25.2363198,33.7421977 L11.7408514,35.5193307 C12.1116865,29.1937029 14.7414419,23.4852293 18.8659313,19.219676 L28.104256,31.6175593 L18.0355536,29.5119103 C18.0355536,29.5119103 25.2015964,33.7237509 25.2349634,33.7438253 M35.4024105,11.5303407 L33.6146977,25.2216709 L28.9812933,17.7694313 C28.9609475,17.8236866 31.6037242,28.0657348 31.6086072,28.0925911 L19.0894633,18.9915324 C23.4373103,14.6006547 29.2380799,11.9473502 35.4032243,11.5295269 M50.7865066,23.099474 L41.7586926,32.3122987 L41.406033,29.9728093 L50.7865066,23.099474 Z M55.0327993,18.7571494 L42.8104319,27.9447454 C42.8145011,27.9176177 45.2199107,17.3682132 45.2199107,17.3682132 L40.6895915,25.1861336 L38.6379265,11.5113514 C45.0099426,11.8756758 50.7582938,14.5534472 55.0330705,18.7571494 M64.2464378,35.6658201 C63.5527835,21.6828676 52.3626237,10.4913513 38.3907935,9.86741514 L36.9107084,-3.85507233e-15 L35.6186179,9.88125025 C21.7962612,10.6679524 10.7591013,21.8174208 10.1061386,35.7368945 L4.6260868e-14,37.070219 L74.4952679,37.0905648 L64.2464378,35.6658201 Z"/>
  </g>
</svg>
