<?xml version="1.0" standalone="no"?>
<!DOCTYPE svg PUBLIC "-//W3C//DTD SVG 20010904//EN"
 "http://www.w3.org/TR/2001/REC-SVG-20010904/DTD/svg10.dtd">
<svg version="1.0" xmlns="http://www.w3.org/2000/svg"
 width="512.000000pt" height="512.000000pt" viewBox="0 0 512.000000 512.000000"
 preserveAspectRatio="xMidYMid meet">
<metadata>
Created by potrace 1.14, written by Peter Selinger 2001-2017
</metadata>
<g transform="translate(0.000000,512.000000) scale(0.100000,-0.100000)"
fill="#000000" stroke="none">
<path d="M3533 5044 c3 -11 23 -72 46 -136 44 -128 43 -122 70 -257 58 -282
-12 -463 -198 -518 -196 -58 -392 6 -836 272 -506 303 -779 400 -1120 398
-169 -1 -333 -15 -446 -38 -141 -28 -320 -101 -430 -175 -116 -79 -251 -227
-309 -339 -21 -43 -55 -171 -65 -246 -3 -27 -9 -66 -11 -85 -3 -19 -7 -78 -9
-130 -4 -88 -2 -99 23 -149 30 -60 80 -106 138 -126 32 -11 417 -13 2183 -13
2376 0 2196 -5 2269 67 62 61 77 96 78 186 2 216 -100 467 -275 680 -63 76
-236 236 -321 298 -131 93 -344 198 -513 252 -77 25 -153 47 -171 50 -29 5
-43 9 -90 22 -15 4 -18 1 -13 -13z"/>
<path d="M1417 3344 c-1 -1 -36 -4 -77 -8 -521 -45 -782 -265 -795 -669 -7
-237 92 -355 300 -355 98 0 172 25 230 79 77 71 122 206 121 360 -1 97 -7 109
-58 109 -46 0 -57 -29 -51 -136 9 -145 -26 -215 -98 -199 -39 9 -52 37 -53
110 -1 264 150 498 379 585 83 32 249 35 271 6 19 -26 11 -47 -46 -131 -100
-147 -154 -281 -229 -568 -64 -244 -101 -328 -174 -398 -65 -62 -155 -90 -292
-90 -207 1 -264 43 -222 167 17 50 12 72 -19 80 -66 17 -106 -70 -103 -221 6
-301 112 -409 415 -419 316 -10 485 138 541 475 20 122 29 131 130 131 129 1
143 -1 167 -25 18 -18 22 -32 20 -77 -4 -91 -15 -244 -19 -265 -2 -11 -4 -26
-4 -32 -2 -31 -38 -50 -83 -46 -33 3 -49 0 -65 -14 -31 -26 -34 -80 -7 -107
13 -14 33 -15 127 -10 157 8 365 9 479 1 81 -6 99 -4 112 9 20 19 20 55 1 118
-12 40 -14 95 -9 300 3 138 7 278 8 311 7 112 23 489 31 694 5 133 -4 161 -62
184 -64 25 -110 32 -283 43 -87 6 -577 13 -583 8z m399 -174 c15 -46 7 -456
-11 -580 -2 -14 -7 -56 -10 -95 -3 -38 -8 -78 -11 -88 -10 -33 -55 -46 -158
-44 -139 3 -142 7 -121 197 4 30 10 73 15 95 5 22 12 56 15 75 10 59 83 267
117 336 67 134 140 180 164 104z"/>
<path d="M3597 3344 c-1 -1 -42 -5 -92 -8 -102 -7 -131 -11 -230 -32 -38 -8
-80 -17 -93 -20 -59 -12 -222 -77 -289 -116 -261 -149 -397 -374 -396 -653 0
-120 14 -173 59 -232 90 -119 353 -112 477 12 75 75 112 179 124 345 6 96 -3
113 -58 113 -52 0 -62 -20 -62 -125 1 -150 -31 -218 -96 -201 -59 15 -44 198
29 344 148 298 440 473 776 463 247 -7 341 -71 374 -254 12 -67 12 -356 -1
-425 -4 -22 -10 -58 -13 -80 -19 -124 -73 -262 -128 -329 -73 -89 -197 -101
-242 -25 -15 26 -17 46 -11 147 3 64 7 131 9 147 2 17 6 62 10 100 10 96 16
155 21 185 2 14 6 50 10 80 23 193 38 220 123 224 68 3 101 41 74 83 -31 49
-261 28 -407 -38 -30 -13 -78 -50 -118 -90 -108 -108 -174 -271 -212 -519 -10
-72 -15 -110 -20 -160 -3 -30 -14 -66 -24 -80 -15 -21 -27 -25 -82 -27 -263
-10 -403 -108 -395 -278 7 -160 139 -243 394 -247 185 -3 296 21 394 83 63 41
110 99 149 185 53 117 72 115 139 -15 77 -150 154 -216 277 -239 207 -37 376
88 470 347 28 75 58 202 68 280 4 30 9 63 11 75 3 12 7 100 9 196 6 278 -23
407 -121 541 -94 129 -295 215 -549 235 -83 6 -353 13 -358 8z m-419 -1303 c4
-53 -19 -134 -55 -188 -44 -69 -125 -94 -174 -54 -20 16 -23 28 -23 78 0 102
63 183 163 209 65 16 85 6 89 -45z"/>
<path d="M987 1476 c-59 -21 -105 -83 -108 -147 -1 -19 1 -83 5 -144 4 -60 8
-148 11 -195 2 -47 7 -137 11 -202 7 -133 13 -125 -93 -120 l-64 4 5 86 c3 48
8 128 11 177 2 50 7 140 11 200 4 61 7 119 7 130 5 108 -65 187 -166 188 -63
1 -106 -20 -144 -70 -27 -35 -28 -42 -27 -137 0 -56 3 -157 7 -226 4 -69 10
-168 13 -220 3 -52 7 -100 9 -107 7 -21 -15 -26 -104 -25 -85 0 -116 -8 -137
-36 -17 -23 -16 -335 1 -397 17 -61 63 -118 118 -148 l42 -22 2170 0 2170 0
41 22 c22 12 55 38 72 57 51 58 63 118 61 308 -1 224 7 215 -186 218 l-32 0 5
68 c2 37 6 110 9 162 2 52 8 142 11 200 15 221 5 270 -66 318 -45 30 -71 36
-128 27 -38 -5 -55 -15 -88 -50 -58 -60 -60 -74 -39 -380 2 -33 7 -118 11
-190 3 -71 8 -133 11 -137 7 -12 -30 -23 -72 -22 -22 1 -52 2 -66 3 -24 1 -26
5 -24 34 2 17 6 88 10 157 3 69 8 161 11 205 13 203 13 239 -2 274 -38 91
-129 131 -219 97 -49 -19 -78 -47 -99 -96 -14 -36 -15 -58 -1 -290 23 -398 23
-380 8 -381 -7 0 -33 -1 -58 -1 -93 0 -97 1 -91 20 2 9 8 78 11 152 4 74 8
158 10 185 17 236 16 294 -3 338 -41 92 -149 127 -242 77 -52 -28 -87 -98 -84
-167 2 -26 5 -95 8 -153 3 -58 8 -143 11 -190 3 -47 7 -124 10 -172 l4 -86
-68 -4 c-75 -3 -104 0 -97 10 2 4 7 57 10 117 3 61 9 162 13 225 4 63 7 167 7
231 1 111 0 117 -27 152 -36 48 -77 68 -136 69 -71 0 -120 -31 -159 -100 -12
-21 -11 -218 2 -397 2 -27 7 -107 10 -177 l7 -126 -48 -4 c-26 -1 -63 -2 -81
0 l-33 3 5 107 c4 59 9 150 12 202 20 333 20 359 -5 407 -29 57 -81 88 -151
88 -65 -1 -105 -21 -140 -73 -23 -32 -25 -45 -24 -141 0 -58 3 -160 7 -226 4
-66 10 -167 13 -225 4 -58 8 -107 9 -110 10 -17 -16 -29 -65 -30 -108 -3 -100
-9 -95 68 14 194 29 484 28 539 -2 107 -77 176 -183 169 -58 -4 -88 -21 -127
-73 -26 -34 -28 -43 -28 -122 1 -47 4 -140 8 -206 4 -66 10 -167 13 -225 3
-58 7 -115 10 -127 5 -25 5 -25 -81 -25 -85 0 -83 -1 -79 35 2 17 5 77 9 132
3 55 8 154 12 220 12 219 10 256 -17 297 -50 75 -142 98 -226 57 -34 -16 -49
-32 -68 -72 -27 -55 -26 -40 -12 -282 3 -49 8 -142 11 -205 3 -63 8 -129 10
-147 l5 -31 -76 -4 c-83 -3 -92 -1 -89 23 2 9 6 79 10 155 4 77 8 166 10 199
17 274 16 284 -3 328 -23 51 -48 75 -99 92 -72 25 -151 -1 -196 -65 -32 -45
-35 -79 -24 -260 4 -63 10 -158 12 -210 3 -52 8 -132 11 -177 l5 -83 -86 0
c-47 0 -84 3 -82 8 3 4 8 70 12 147 4 77 8 160 10 185 14 205 16 333 6 363 -6
18 -26 47 -44 65 -54 52 -107 63 -180 38z"/>
</g>
</svg>
