<svg class="headline" style="max-width:525px;" xmlns="http://www.w3.org/2000/svg" viewBox="0 0 523 81">

<title id="headline-contact">Complaints</title>

<path fill="#FCD872" d="M30.568 69.38c19.78 0 24.748-10.764 24.748-26.404 0-1.748-.92-2.392-2.208-2.392-1.472 0-2.208 1.012-2.208 2.208 0 .92.552 2.484.552 4.324 0 4.968-4.692 7.452-12.236 7.452-14.076 0-18.308-8.74-18.308-24.012 0-12.788 2.3-18.308 6.532-18.308 3.588 0 4.14 3.404 6.072 9.2C36.456 32.12 41.148 36.72 51.36 36.812c2.944-.184 3.404-1.656 3.404-3.772 0-2.668-.184-6.532-.092-10.028 0-1.176.044-2.521.109-3.888l.034-.685c.19-3.654.501-7.291.501-8.123 0-1.38-.92-1.932-1.932-1.932-1.104 0-1.84.552-1.84 1.932 0 .368.184 1.38.184 2.3 0 1.472-1.104 2.024-2.484 2.024-5.428 0-9.66-5.98-21.62-5.98-17.48 0-27.14 12.236-27.14 31.004 0 24.84 14.352 29.716 30.084 29.716Zm54.648-.46c19.044 0 25.944-9.568 25.944-23.552.092-20.424-10.672-28.612-25.944-28.612-15.272 0-25.944 7.728-25.944 28.612 0 14.444 6.9 23.552 25.944 23.552Zm.184-6.348c-3.73 0-5.571-4.23-5.611-18.74l-.001-.488c0-19.688 2.024-23 5.612-23 3.37 0 5.297 2.795 5.335 22.4l.001.6c0 15.548-1.656 19.228-5.336 19.228ZM141.152 68c.828 0 1.656-.46 1.656-1.748 0-1.104-.368-1.748-1.656-1.748-2.484 0-2.76-1.656-2.944-5.52-.092-2.852-.184-5.52-.184-8.372 0-3.496 0-7.084.184-10.856.644-9.016 2.668-10.948 6.072-10.948 2.3 0 3.588 1.104 3.772 5.336.184 4.968.276 9.936.276 14.904 0 3.588-.092 6.532-.276 9.936-.184 3.864-.368 5.52-2.024 5.52-1.196 0-1.472 1.104-1.472 1.748 0 1.288.644 1.748 1.472 1.748 2.76 0 7.636-.368 11.224-.368 4.784 0 12.328.368 15.548.368 1.104 0 1.84-.644 1.84-1.932 0-1.104-.184-1.932-1.84-1.932-.552 0-1.656.184-2.668.184-1.932 0-2.3-1.288-2.392-4.784-.092-3.036-.092-6.164-.092-9.016 0-4.14.092-8.096.552-12.236.644-7.82 2.76-9.384 6.072-9.384 2.576 0 3.68 2.024 3.772 5.704.276 9.108-.368 19.044-.368 27.232 0 3.956 1.012 6.164 4.324 6.164 3.588-.092 6.992-.368 10.212-.368 3.404 0 6.348.368 9.108.368 1.104 0 1.564-.92 1.564-1.932 0-.92-.46-1.656-1.472-1.656h-1.656c-2.3 0-2.576-1.748-2.576-5.98 0-6.624.736-18.216.736-24.196 0-12.236-3.772-17.572-15.18-17.572-10.304 0-14.26 4.968-15.548 15.548-.092.828-.552 1.288-1.288 1.288-.46 0-1.104-.46-1.104-1.38-.552-10.58-3.404-15.456-12.42-15.456-7.82 0-13.34 2.668-14.904 15.548-.184.644-.552 1.012-1.38 1.012-.644 0-1.196-.368-1.196-1.196 0-4.6.368-8.096.368-11.04 0-1.932-.46-3.128-2.76-3.128-2.668 0-5.336.368-8.372.368-2.668 0-6.624-.368-9.2-.368-1.472 0-2.024.92-2.024 1.932 0 .92.276 1.932 1.656 1.932.368 0 .828-.092 1.656-.092 1.564 0 1.84.736 2.024 4.508.092 3.496.184 7.912.184 12.696 0 7.084-.184 14.812-.184 21.896-.092 1.656-.276 3.68-1.472 3.68-.46 0-1.196-.184-1.564-.184-1.196 0-1.748.92-1.748 1.84S114.012 68 115.392 68c2.3 0 7.176-.46 10.856-.368 4.968 0 12.788.368 14.904.368Zm69.067 11.54 1.166-.033c2.075-.056 4.13-.099 5.759-.099 6.624 0 15.088.276 21.252.368.92 0 1.748-.552 1.748-2.024 0-1.104-.644-1.932-1.84-1.932-.828 0-3.68.276-5.52.276-3.956 0-5.152-2.208-5.152-5.336 0-2.392.92-3.22 2.668-3.22 1.656 0 3.312.828 7.36.828 15.456 0 21.068-9.108 21.068-25.852 0-19.596-4.968-25.944-16.284-25.944-9.292 0-13.616 3.22-15.088 15.088-.184 1.196-.736 1.84-1.472 1.84s-1.288-.552-1.288-1.656c0-4.14.736-7.452.736-10.764 0-1.932-.736-3.312-3.22-3.22-3.128 0-6.072.276-9.2.276-3.22 0-5.98-.276-8.556-.276-1.472 0-1.748.92-1.748 1.932 0 .92.276 1.84 1.748 1.84.368 0 .828-.092 1.656-.092 1.564 0 1.932.736 2.024 4.508.276 8.096.184 17.388.184 26.036 0 7.636-.092 14.628-.276 19.964-.092 2.576-.828 4.048-3.496 4.048-.46 0-1.84-.184-2.392-.184-.92 0-1.748.552-1.748 1.84 0 1.196.828 2.024 1.748 2.024 1.096 0 4.543-.13 8.163-.236Zm23.209-16.416c-3.994 0-5.48-2.508-5.52-13.002v-.43c0-16.468 2.3-21.252 6.072-21.252 3.496 0 4.876 3.588 4.876 18.676 0 12.328-2.024 16.008-5.428 16.008Zm41.216 4.692c4.692 0 11.96.184 14.168.184 1.196 0 1.748-.828 1.748-1.932 0-1.196-.828-1.932-1.748-1.932-.276 0-.92.184-1.38.184-1.288 0-1.564-1.012-1.656-3.404-.184-5.52-.276-15.916-.276-24.104 0-15.272.736-26.22.736-30.176 0-1.748-.552-2.76-2.484-2.76-5.796 0-12.328 2.576-22.816 2.576-1.012 0-1.748.552-1.748 2.024 0 1.196.552 1.932 1.564 1.932.212 0 .64-.059 1.103-.122l.467-.063c.388-.05.758-.091 1.006-.091 1.932 0 2.3 1.656 2.392 5.428.184 6.992.276 14.26.276 21.344 0 7.636-.092 15.088-.276 22.724-.092 3.128-.368 4.692-1.84 4.692-.644 0-1.196-.092-1.38-.092-1.012 0-1.472.92-1.472 1.932 0 .92.46 1.84 1.472 1.84 1.564 0 6.808-.184 12.144-.184Zm31.464 1.196c10.856 0 15.364-5.98 15.732-11.684.092-1.196.46-1.84 1.38-1.84.736 0 1.196.644 1.38 1.84l.052.485c.656 5.96 1.938 11.107 10.896 11.107 9.467 0 12.18-4.324 12.235-17.516l.001-.424c0-6.716-.46-8.464-2.392-8.464-1.196 0-1.84.92-1.84 2.116 0 1.748 1.288 5.152 1.288 7.176 0 2.208-.736 3.772-2.576 3.772s-2.484-1.472-2.484-4.324c0-2.147.256-7.935.34-13.904l.012-.897.009-.896.005-.894.002-.889c0-10.12-3.312-16.836-21.252-16.836-17.756 0-25.024 6.072-25.024 13.708 0 6.9 4.048 9.568 10.764 9.568 6.532 0 11.224-2.576 11.224-8.648 0-3.956-1.84-6.532-5.796-7.176-1.288-.184-1.84-.92-1.84-1.564 0-1.012.46-1.84 3.036-1.84 7.268 0 11.316 2.208 11.316 9.568 0 7.82-1.472 10.672-13.064 11.96-9.292 1.104-17.296 3.588-17.296 13.708 0 7.544 3.956 12.788 13.892 12.788Zm9.2-13.616c-2.484 0-4.692-1.012-4.692-4.508 0-4.508 4.968-7.636 10.028-7.636 1.748 0 2.3 1.104 2.3 3.22 0 5.244-3.404 8.924-7.636 8.924Zm47.38-40.204c8.832-.092 11.868-1.932 11.868-6.992 0-5.888-5.52-8.188-11.868-8.188-6.348 0-11.868 2.392-11.868 8.188 0 5.06 3.036 7.084 11.868 6.992ZM376.672 68c1.288 0 1.84-.828 1.84-2.024 0-.92-.552-1.84-1.84-1.84-.552 0-1.196.184-1.932.184-1.288 0-1.564-1.288-1.656-5.888-.074-3.754-.088-9.156-.091-12.58l-.001-1.893v-.247c0-2.273.056-5.063.134-7.917l.025-.857.038-1.287c.19-6.142.447-12.051.447-13.215 0-1.748-.46-2.576-2.024-2.576-3.312 0-6.532.552-10.028.552-4.692 0-8.372-.552-12.236-.552-1.196 0-1.564.92-1.564 1.932 0 .92.368 1.932 1.564 1.932.276 0 .828-.092 1.656-.092 1.564 0 2.116.736 2.3 4.232.184 3.588.276 7.912.276 11.868 0 7.82-.276 15.732-.552 22.908-.092 2.024-.184 3.68-1.196 3.68-.644 0-1.288-.184-1.656-.184-1.104 0-1.748.552-1.748 1.84 0 1.472.644 2.024 1.748 2.024 3.864 0 7.544-.368 11.868-.368 4.968 0 12.144.368 14.628.368Zm60.168 0c1.104 0 1.564-.92 1.564-1.748 0-1.012-.46-1.932-1.564-1.932-.184 0-.92.092-1.196.092-2.208 0-2.944-1.748-2.944-5.244 0-5.612.92-15.916.92-24.564 0-12.052-3.404-18.032-15.088-18.032-9.936 0-14.996 4.784-15.916 15.456-.092.736-.644 1.196-1.288 1.196-.736 0-1.38-.368-1.38-1.196 0-3.772.644-6.716.644-9.476 0-3.68-.828-4.692-4.232-4.692-2.668 0-5.244.276-7.728.276-3.128 0-6.348-.276-8.464-.276-1.38 0-1.932 1.012-1.932 2.024 0 1.104.552 1.84 1.656 1.84.46 0 1.012-.092 1.656-.092 1.564 0 1.84.644 2.024 4.048.184 4.232.184 8.832.184 13.708 0 6.532-.092 13.616-.184 21.344-.092 1.656-.276 3.588-1.472 3.588-.276 0-1.472-.092-1.748-.092-1.104 0-1.564.92-1.564 1.84s.46 1.932 1.564 1.932c3.68 0 8.188-.184 12.88-.184 5.336 0 10.856.092 14.444.184 1.104 0 1.84-1.012 1.84-1.932 0-.92-.736-1.84-1.84-1.84-.368 0-1.748.092-2.024.092-1.196 0-2.116-1.012-2.208-3.496-.092-2.76-.184-5.428-.184-8.096 0-4.416.092-8.832.552-13.616.644-8.28 2.668-10.488 6.072-10.488 2.852 0 3.772 2.668 3.772 5.428 0 6.164-.736 16.928-.736 25.116 0 6.44 1.104 8.832 4.416 8.832 3.036-.092 5.888-.368 8.648-.368 3.864 0 7.82.276 10.856.368Zm20.516.92c10.396 0 13.892-5.796 13.892-18.768 0-6.072-.92-7.452-2.76-7.452-1.196 0-2.024.828-2.024 2.3 0 2.3 1.564 4.876 1.564 6.992 0 1.84-.552 4.048-2.576 4.048-1.748 0-3.128-.828-3.312-6.256-.252-5.804-.197-14.3-.045-23.026l.03-1.638.015-.82c0-1.656.552-2.576 2.576-2.576 1.656 0 4.048.276 5.888.276 1.288 0 1.84-1.012 1.84-2.116 0-1.012-.552-2.024-1.84-2.024-1.38 0-3.772.184-4.6.184-2.208 0-3.404-.368-3.404-2.668 0-4.232.276-6.9.276-7.912 0-.828-.736-1.472-1.656-1.472-.92 0-1.472.368-2.208 1.196-4.324 5.152-12.42 9.936-19.872 10.672-1.288.184-1.564 1.012-1.564 1.932 0 .92.276 1.932 1.38 1.932.368 0 1.104-.184 2.116-.184 1.196 0 2.024 1.012 2.116 3.22.158 3.549.18 6.624.183 9.632l.001 1.5c0 6.256-.46 13.524-.46 17.756 0 11.04 3.956 15.272 14.444 15.272Zm39.836.276c15.732 0 23.92-5.796 23.92-16.284 0-7.636-3.22-13.248-15.64-17.112-11.684-3.588-13.892-6.624-13.892-10.12 0-3.22 2.116-5.52 7.452-5.52 3.404 0 4.324.828 4.324 1.932 0 .644-.368 1.104-.92 1.656-1.012.92-1.656 2.116-1.656 4.048 0 4.048 4.232 5.796 9.936 5.796s8.74-2.484 8.74-6.624c0-6.532-7.176-10.304-20.976-10.304-16.928 0-23.092 7.544-23.092 16.56 0 9.844 6.532 13.524 15.272 16.468 8.464 2.852 12.512 5.06 12.512 9.936 0 3.496-2.76 5.612-7.36 5.612-3.404 0-4.692-.736-4.692-1.932 0-.736.276-1.196 1.104-1.84.828-.828 1.38-1.932 1.38-4.048 0-3.588-3.864-6.072-9.66-6.072-6.164 0-9.384 2.392-9.384 6.9 0 5.98 4.876 10.948 22.632 10.948Z"/></svg>