<svg class="headline" xmlns="http://www.w3.org/2000/svg" viewBox="0 0 40 26" aria-hidden="true">
<path fill="#FCD872" d="M8.731 26c6.12 0 10.15-4.37 10.224-10.296-.074-4.519-2.313-6.741-6.492-6.741-4.105 0-5.299 2.667-6.94 2.667-.598 0-1.27-.519-1.12-1.63.298-2.889 3.507-6.074 8.209-6.074 1.791 0 3.433.296 4.328.296 1.344 0 2.314-.592 2.314-2.074C19.254.518 18.358 0 16.269 0 6.567 0 0 4.222 0 15.63 0 22 2.612 26 8.731 26Zm20.747 0c6.119 0 10.149-4.37 10.223-10.296-.074-4.519-2.313-6.741-6.492-6.741-4.105 0-5.299 2.667-6.94 2.667-.597 0-1.269-.519-1.12-1.63.299-2.889 3.508-6.074 8.21-6.074 1.79 0 3.432.296 4.328.296C39.03 4.222 40 3.63 40 2.148 40 .518 39.104 0 37.015 0c-9.702 0-16.269 4.222-16.269 15.63C20.746 22 23.358 26 29.478 26Z"/></svg>