<svg xmlns="http://www.w3.org/2000/svg" viewBox="0 0 728 682">

<defs>
<style>
#color-img-grad-1 { stop-color: var(--color-accent); }
#color-img-grad-2 { stop-color: var(--color-background); }
</style>
<linearGradient id="a" x1="7.695%" x2="68.437%" y1="9.36%" y2="62.973%">
<stop id="color-img-grad-1" offset="0%" stop-color="#FCD872"/>
<stop id="color-img-grad-2" offset="100%" stop-color="#272F33"/>
</linearGradient>
</defs>

<g fill="none" fill-rule="evenodd">

<circle class="img-grad" cx="244.5" cy="572.5" r="107.5" fill="url(#a)"/>

<path class="img-col-4" fill="#425057" d="m160 399 142 3-2 80c-1.234-3.457-3.567-6.457-7-9s-10.1-6.21-20-11c-6.982-2.685-13.649-4.352-20-5-6.351-.648-16.018-.648-29 0-13.563 3.177-23.897 6.51-31 10-7.103 3.49-15.77 9.49-26 18l-12-3 2-77 3-6Z"/>

<path class="img-col-2" fill="#89A5B3" d="M220.93 405.457c-.39.235-.62 1.5-.62 3.417v1.728l-1.24.006c-1.258.005-2.911.557-2.911.97 0 .113-.32.208-.695.208-.695 0-1.694.396-2.273.902-.168.147-.714.355-1.24.473-1.108.248-2.498.915-2.498 1.198 0 .11.742.188 1.775.188 1.672 0 1.775.024 1.775.413 0 .686 1.052 1.56 1.879 1.56.77 0 1.642-.373 2.063-.883.28-.338 2.067-.428 2.26-.113.143.233-2.05.914-3.835 1.19-1.446.224-4.602.267-4.809.065-.074-.072.101-.372.405-.691.614-.645.534-.851-.217-.567-.694.263-1.916.261-2.63-.004-.644-.24-1.775-1.402-2.04-2.097-.285-.749-.678-.432-.63.507.075 1.43 1.337 3.125 3.553 4.774 1.165.866 1.841 1.183 1.841.862 0-.06-.233-.451-.504-.845-.844-1.225-.792-1.255 1.913-1.102 2.536.144 5.004-.103 6.255-.625.901-.377.974-.227.169.349-.502.36-.977.479-2.217.56l-1.577.104v1.578c0 1.54.484 3.25.92 3.25.081 0 .21-.32.279-.696.247-1.333 1.8-2.855 2.914-2.855.285 0 .277.085-.075.78-.219.432-.394.867-.394.977 0 .106-.216.516-.47.892-.254.375-.526.997-.592 1.352-.068.37-.295.996-.516 1.428-.222.432-.395.968-.395 1.221 0 .244-.094.451-.206.451-.34 0-.82 1.409-.736 2.16.051.451-.052.92-.293 1.334-.377.647-.401 2.104-.053 3.156.137.417.105.428-.91.319-1.202-.13-1.68-.457-2.089-1.427-.15-.357-.449-.7-.653-.752-.276-.069-.376-.263-.376-.732 0-.35-.368-1.381-.817-2.283-.756-1.521-.8-1.697-.6-2.367.116-.39.445-1.061.714-1.456.805-1.183.668-2.708-.342-3.813-.589-.644-.712-.564-.606.394l.092.827-.36-.507c-.79-1.109-2.87-2.553-3.111-2.16-.067.107-.004.257.147.35.662.412 1.127 1.321 1.127 2.204v.902l-.6-.733c-.722-.883-1.516-1.333-2.35-1.333-.795 0-.75.186.207.867.432.307.875.781.979 1.049.248.638.068 1.255-.321 1.104-.232-.09-.26.06-.16.85.067.525.236 1.093.376 1.258.175.208.221.695.15 1.578-.071.883-.013 1.495.188 1.982.264.639.258.767-.065 1.38-.475.902-.463 1.795.032 2.424.366.466.375.554.099 1.08-.168.32-.434.625-.602.69-.433.167-.357.522.113.522 1.04 0 2.24-1.109 2.463-2.273l.13-.676.825 1.634c1.178 2.33 2.578 4.37 4.115 5.993l1.352 1.427-.14 1.146c-.08.639-.229 1.254-.338 1.39-.262.326-.123.449.365.324.5-.129 1.612-1.751 1.78-2.597.163-.83.249-.873 1.451-.714.808.107.996.203.996.507 0 .656-1.616 3.664-2.522 4.697-1.18 1.344-1.968 1.338-3.546-.026-.757-.655-1.69-.743-2.667-.251-.676.34-1.521 1.037-1.521 1.254 0 .072.47.097 1.033.056.563-.04 1.26.015 1.53.122.489.194.49.198.047.21-.597.018-1.183.32-1.897.98-.563.521-1.205 1.568-1.052 1.716.041.039.423-.108.836-.323.474-.245 1.137-.39 1.757-.385l.995.01-.826.732c-.752.666-1.385 1.742-1.162 1.973.05.05.504-.066.993-.254.751-.29.998-.307 1.484-.102.765.322 1.652.112 2.441-.577.91-.794 3.25-1.052 5.523-.61 1.014.199 1.21.186 1.521-.094.544-.49 1.723-.242 1.972.416.25.66.583.413.583-.432 0-1.544-1.09-2.255-3.456-2.255h-1.503l.674-.826c1.057-1.297 3.308-4.697 3.308-4.997 0-1.124 1.164 1.333 1.201 2.536.012.357.082.854.161 1.127.136.47.15.473.357.084.119-.222.326-1.296.46-2.385l.244-1.982.808.092c1.02.117 3.006-.372 4.508-1.108l1.146-.562.291.704c.163.395.513.994.794 1.362.618.808 2.357 1.822 3.123 1.822h.582l-.44.47c-.725.772-2.34 1.382-3.692 1.396-.996.01-1.335-.077-1.973-.513-1.446-.987-2.363-.977-3.531.042-.902.786-.883.998.075.85.432-.066 1.04-.058 1.343.02.528.133.498.166-.648.69-1.446.66-2.047 1.364-2.047 2.4 0 .939.299.972.673.075.294-.706.923-1.09 1.787-1.09.799 0 .772.376-.087 1.24-.99.995-1.454 2.31-.815 2.31.107 0 .317-.244.485-.563.39-.74 1.131-.934 1.882-.493.553.325.64.325 1.672.005.601-.187 1.212-.511 1.362-.724.146-.206.316-.341.366-.29.052.051.592.185 1.212.3.907.167 1.362.144 2.414-.123.939-.238 1.358-.268 1.521-.108.335.327.902.25 1.334-.183l.394-.394.967.902c.526.49 1.01.833 1.06.75.362-.583-1.463-3.315-2.365-3.54-.47-.117-.45-.147.488-.776.976-.653 1.77-1.544 2.584-2.897.432-.717.46-.73 1.361-.61.695.092 1.102.294 1.662.826.733.696.742.699.742.216 0-.728-1.051-2.264-1.934-2.824-.43-.273-1.353-.632-2.029-.79-1.334-.31-1.747-.677-1.747-1.552 0-.582.637-2.013.996-2.237.111-.07.366.017.554.19.188.172.49.319.657.319.172 0 .583.272.92.61.538.538.724.604 1.55.555.526-.032 1.13.046 1.371.177.508.275 1.233.3 1.616.058.188-.12.441-.076.76.131.38.246.592.27 1.024.113.414-.15.634-.134.911.066.207.148.498.264.667.267.536.009.984.897 1.104 2.193l.218 2.367c.211 2.311-.861 3.02-2.956 1.957-2.066-1.05-3.108-1.057-4.226-.029-.714.656-.87 1.14-.263.813.513-.277 1.427-.265 2.122.028l.564.237-.489.065c-1.258.168-1.962.495-2.451 1.137-.486.64-.672 1.289-.366 1.282.082-.002.507-.127.939-.277.432-.149 1.031-.225 1.324-.169l.536.104-.688.901c-.617.808-.886 1.627-.533 1.62.08-.003.375-.184.638-.393.583-.465 1.023-.51 1.578-.16.32.201.47.202.79.004.223-.138.638-.244.957-.244.32 0 .661-.118.789-.272.155-.188.498-.24 1.099-.17.706.084 1.042.005 1.756-.413l.883-.516.845.385c1.052.48 1.813.503 2.536.078.527-.31.601-.305 1.146.084 1.01.722 1.336.41.75-.717-.533-1.027-1.22-1.475-2.535-1.655-.676-.092-1.296-.242-1.39-.336-.093-.094.06-.62.347-1.183.778-1.532 1.147-3.4 1.061-5.373l-.074-1.69 1.39.779c.77.432 1.55.964 1.747 1.193.412.476.74.3.386-.207-.131-.188-.56-.94-.967-1.69-.761-1.41-1.817-2.43-3.138-3.038-.958-.44-2.58-1.381-3.212-1.864-.338-.258-.396-.38-.207-.435 2.743-.802 5.853-3.008 6.992-4.958.779-1.332.932-2.142.672-3.532-.195-1.041-.173-1.4.169-2.677.216-.807.45-1.734.516-2.047l.123-.573.394.789c.215.43.715 1.164 1.099 1.615 1.033 1.214 1.204.827.59-1.334-.684-2.404-1.107-5.193-1.107-7.307 0-2.768-.461-2.668-1.728.376-1.19 2.855-1.57 3.377-4 5.484-.545.472-.645.653-.461.837.182.182.592.06 1.831-.545a58.93 58.93 0 0 1 1.588-.76c-.005.01-.16.638-.348 1.408-.187.77-.384 1.411-.441 1.437-.057.026-.46-.105-.892-.29-2.593-1.109-5.797.046-6.41 2.31-.515 1.902 1.188 3.903 3.348 3.935.62.009.657.038.347.273-.19.144-.92.407-1.615.582-1.268.32-1.268.32-2.996-.258-1.672-.56-5.244-1.373-6.199-1.413-.32-.013-.188-.11.413-.305.813-.263 3.269-.286 4.94-.047.376.053.504-.032.555-.372.051-.346-.085-.504-.63-.733-.826-.346-1.502-1.17-1.502-1.831 0-2.002 3.663-4.42 7.044-4.65.676-.046 1.29-.134 1.352-.194.283-.275-.15-.719-.901-.924-1.033-.283-1.578-.885-1.578-1.746 0-1.803 1.897-3.854 4.696-5.077.939-.41 1.794-.826 1.897-.923.35-.329-2.292.043-4.039.568-1.671.503-3.19.92-4.17 1.145l-.507.116.174-.94c.266-1.444 1.817-3.525 3.301-4.43.395-.24.89-.603 1.108-.81.395-.376.395-.376-.3-.235-.378.076-1.371.413-2.18.738-7.738 3.115-11.73 4.68-13.955 5.476-2.705.966-5.254 2.353-7.026 3.823-.845.7-3.742 4.321-4.001 5-.052.136.17.545.5.921.798.91 1.097 1.916.97 3.269-.114 1.221-.831 2.829-1.564 3.508-.417.387-.507.399-1.202.156-1.208-.42-1.868-1.184-2.193-2.537l-.136-.563 1.597.145c1.972.18 1.997.075.392-1.686-1.308-1.436-1.256-1.662.321-1.413.545.086 1.085.118 1.221.072.309-.105-1.183-1.896-2.179-2.618-.62-.45-.687-.568-.44-.775.19-.16.732-.215 1.577-.16 1.07.07 1.287.031 1.287-.234 0-.323-1.484-1.85-2.367-2.437-.476-.317-.451-.325 1.033-.325 1.183 0 1.521-.062 1.521-.282 0-.408-1.54-1.566-2.61-1.962-.564-.21-.94-.469-.94-.649 0-.631.658-1.637 1.41-2.155.431-.298.77-.614.77-.72 0-.104-.461-.158-1.043-.121l-1.043.065-.097-1.897c-.127-2.46-.432-2.815-.973-1.127-.32.996-.904 1.686-1.822 2.153l-.79.402.141-.45c.077-.245.264-.65.409-.884.337-.544.164-.695-.625-.548-.526.098-.698.022-1.136-.504-.34-.407-.517-.845-.517-1.277 0-.733-.17-.95-.563-.712Zm-1.221 7.211c0 .575-.657 1.09-1.39 1.09-.657 0-.977-.338-.977-1.033 0-.536.019-.545 1.184-.545 1.127 0 1.183.023 1.183.488Zm31.463.79c-3.419.873-10.24 3.333-12.06 4.349-1.502.84-3.392 2.309-3.099 2.41.126.044.733-.135 1.372-.404 5.034-2.12 11.077-2.76 15.459-1.638.864.222.961.283.47.296-2.086.056-7.162.475-8.735.72-1.954.306-4.747 1.182-6.424 2.015-1.127.56-2.341 1.426-2.198 1.57.052.05 1.146.122 2.423.158 2.724.075 5.94.658 8.284 1.501.901.324 1.653.629 1.653.67 0 .102-1.39-.062-3.55-.42-3.72-.617-8.791-.538-8.791.138 0 .176.845 1.033 1.878 1.906 2.048 1.73 3.179 2.866 4.066 4.086l.574.79-.592-.367c-.32-.198-.682-.47-.789-.592-.109-.124-1.08-.853-2.17-1.627-1.878-1.335-3.721-2.161-4.3-1.928-.137.055-.529.7-.884 1.451-.426.902-.901 1.563-1.427 1.982l-.79.63.373.526c.471.665.811 1.878.811 2.893 0 1.501-.268 1.352-1.284-.714-.813-1.653-1.035-1.958-1.374-1.879a1.551 1.551 0 0 1-.789-.056c-.339-.133-.29-.21.404-.654.977-.624 2.311-2.07 2.81-3.047 1.066-2.085 1.276-4.103.61-5.88l-.414-1.108.523-.79c2.046-3.087 12.625-7.447 18.054-7.44l1.672.002-1.766.45Zm-28.215 11.496c-.189 2.198.578 5.197 1.638 6.406.608.694-.153.354-1.035-.462-1.1-1.016-1.357-1.792-1.23-3.708.094-1.447.48-3.57.647-3.57.052 0 .043.602-.02 1.334Zm34.207-.724c.376.132.62.358.62.574 0 .692-1.653.71-2.442.027-.338-.292-.338-.322 0-.57.426-.311.996-.32 1.822-.031Zm-9.335 5.816c.849.297 1.338.732 1.984 1.765l.363.582-.986-.685a31.552 31.552 0 0 0-2.367-1.437c-1.314-.716-1.342-.746-.591-.63.44.068 1.146.247 1.597.405Z"/>

<path fill="#FFF" d="M608 459v40h-21v-40h21ZM305 287l23 12-10 88-20-47 7-53Zm231 69v18h-21v-18h21ZM152 186l10 2 2 3-6 5-10-2-2-4 6-4ZM436 54c3.404.288 5.737.621 7 1s2.263 1.045 3 2c-.327 2.55-.994 4.217-2 5-1.006.783-3.34 1.45-7 2-2.653.367-4.653.367-6 0-1.347-.367-3.014-1.367-5-3 .744-2.454 1.744-4.12 3-5 1.256-.88 3.59-1.546 7-2ZM426 8l64 9 18 34-50-22h-33l-15 12-8-19 24-14Z"/>

<path class="img-col-2" fill="#89A5B3" d="m157 428-2 56c-7.86 1.54-13.526 3.207-17 5-3.474 1.793-8.14 5.46-14 11l-24 66c-4.638.365-7.972.365-10 0-12.118-2.179-21.205-6.236-28-9-8.5-3.458-15.5-8.458-21-15l7-42c10.667-26 20-43.333 28-52 8-8.667 16.333-13.667 25-15l56-5Zm23-168 5 7 19-7 18-5c3.19-1.734 5.523-3.4 7-5 1.477-1.6 3.143-4.266 5-8l12 6c3.448 3.806 5.781 6.806 7 9 1.219 2.194 2.219 5.86 3 11l24 33 15 40 5 29-1 32-129-3 7-46-3-34-7-6v-10l4-18 3-5-1-7 7-13Z"/>

<path class="img-col-2" fill="#586B74" d="m470 123 67-17c12.057 9.577 20.723 17.244 26 23 5.277 5.756 11.277 14.09 18 25 9.9 22.03 16.9 38.363 21 49 4.1 10.637 7.768 21.97 11 34 4.068 20.835 6.735 36.501 8 47 1.265 10.499 1.932 22.499 2 36-7.549 4.39-15.549 7.39-24 9-8.451 1.61-21.451 2.61-39 3-17.384 2.236-31.384 3.236-42 3-10.616-.236-26.616-1.903-48-5l-5-5-4-41 2-48-1-21-14-2v-34l11-44 11-12Z"/>

<path class="img-skin" fill="#F8EEF0" d="m52 552 38 16-19 54c-8 .667-16.667-1-26-5-9.333-4-18.667-9-28-15v-6c-5.463-3.17-9.13-5.503-11-7-1.87-1.497-3.204-3.163-4-5h37l13-32Zm174-200 41 4c5.27 12.599 7.27 21.265 6 26-1.27 4.735-6.937 9.735-17 15l-98 3c-3.95 2.13-6.617 4.464-8 7-1.383 2.536-2.717 7.536-4 15l-6-4-3 6-4-4-2 2-5-4-2 3-4-5-2 2c-4.337-7.29-6.337-12.958-6-17 .337-4.042 3.337-10.376 9-19 7.934-4.835 14.934-8.169 21-10 6.066-1.831 16.733-3.831 32-6l2-9 2 15 48-3 2-2-2-15Zm337-142 4 8v36c-2.422 12.08-5.089 20.08-8 24-2.911 3.92-8.911 7.586-18 11l-56-2-89.823-17.612c-1.92 1.91-3.312 2.782-4.177 2.612-.865-.17-2.058-1.547-3.579-4.133L383 267l-6-2-7 12-5-7-3 3-4-4-4 2-10-15-4 3-16-7c-.234-5.469.433-9.469 2-12 1.567-2.531 5.234-5.531 11-9l61-6h49l4-12h11l1 29-28.415-.526L491 245l10-9 1-25 61-1Zm-422-41 23 1 12 7 13 22 1 27 12-29 6 3 2 3 2 16 8 16 11 8c.082 2.994-.584 5.327-2 7s-4.416 3.673-9 6l-18 3-19 8-14-28-19-1c-6.899-6.424-11.232-11.757-13-16-1.768-4.243-2.434-10.91-2-20l-8-6c1.993-2.551 3.66-4.218 5-5 1.34-.782 3.674-1.449 7-2l2-20Zm247 68c-.747-.047-1.49.428-2.227 1.423L379 238l-24 2 79.585 1.474-42.986-2.687c-1.56-1.08-2.718-1.672-3.47-1.774Zm59-209c3.778 0 7.444.333 11 1l53 30v20l18 29-58 15-7-15-10 5c-4.91.026-8.577-.308-11-1s-5.756-2.359-10-5c-3.53-3.095-5.863-6.095-7-9-1.137-2.905-1.803-7.571-2-14l-11 2-2-8 4-11c.796-3.97 1.13-7.637 1-11-.13-3.363-.796-8.363-2-15 2.643-3.786 4.976-6.452 7-8s5.357-2.881 10-4c6.889-.667 12.222-1 16-1Z"/>

<path class="img-col-3" fill="#FCD872" d="M141 169c7.659-1.165 13.992-1.165 19 0 5.008 1.165 13.008 4.498 24 10l21 20 4 1 3 10 8 11 10-13 2-31c-1.433-8.463-3.1-15.13-5-20-1.9-4.87-5.567-11.87-11-21l-1-2 1-5-2-3-3-6-6-1-4 1v-2l-5 4-2 4h-5c-11.406 3.977-19.406 7.31-24 10-4.594 2.69-10.26 7.356-17 14-3.822 3.04-6.155 5.707-7 8-.845 2.293-.845 5.96 0 11Z"/>

<path class="img-outlines" fill="#161616" d="M417.729.229c1.02-.194 2.498-.26 4.733-.215 2.855.057 3.464.13 5.016.596 2.047.615 3.94 1.56 5.334 2.663 1.967 1.557 1.597 1.491 4.076.724 6.21-1.92 11.29-2.68 17.958-2.688 5.729-.006 10.326.545 15.553 1.866 10.275 2.597 18.81 7.29 25.64 14.095 3.99 3.976 6.845 8.038 8.884 12.64.783 1.768 2.532 7.019 4.167 12.426l.25.833c.375 1.25.74 2.498 1.083 3.705.662 2.33 1.774 6.115 2.465 8.388a2423.86 2423.86 0 0 1 3.165 10.548c1.051 3.532 1.99 6.507 2.093 6.632.6.724-.111 2.67-1.464 4.005-.751.742-2.548 1.78-3.08 1.78-.114 0 .335.733 1.003 1.635 1.848 2.496 6.111 8.98 8.14 12.38 3.016 5.053 5.516 10.072 6.41 12.868.278.868.432.895 2.047.352 1.357-.456 4.978-.991 6.706-.991 1.073 0 1.465.115 2.912.853 8.682 4.427 21.13 17.087 31.267 31.796 23.933 34.733 42.865 86.32 49.767 135.614 1.08 7.711 1.976 16.625 2.588 25.736.128 1.908.227 5.051.286 8.33l.014.823.012.824.006.411.01.82c.05 4.627.014 8.883-.136 9.645-.247 1.258-.97 2.468-2.105 3.525-1.081 1.006-5.56 3.08-8.302 3.846-.166.046-.022.556.45 1.59l.167.375c.958 2.195 2.036 5.45 2.762 8.36 3.797 15.212 5.853 32.067 7.255 59.475.168 3.282.254 12.559.26 22.033v1.938l-.002 1.29c-.013 8.8-.096 17.198-.252 20.5-1.07 22.75-2.844 39.93-5.457 52.864l-.675 3.344 5.776 6.913c1.997 2.39 5.382 6.408 8.87 10.532l.777.917a3594.72 3594.72 0 0 0 5.266 6.21c9.312 10.951 36.156 42.66 43.671 51.585 1.99 2.361 7.318 8.613 12.54 14.712l.651.761 1.615 1.885c12.368 14.427 11.998 13.983 13.179 15.798.758 1.165.917 1.565.917 2.31 0 1.06-.636 2.856-1.702 4.81l-.759 1.39.677.562c2.655 2.204 5.203 4.452 12.942 11.418l.215.193.431.388a413.794 413.794 0 0 0 3.89 3.463c.563.486 1.105 1.052 1.205 1.259.29.6-.062 3.193-.641 4.715-1.08 2.837-1.927 4.344-3.053 5.43-.657.634-1.36 1.11-1.822 1.235-1.353.365-3.888-.186-7.1-1.542-1.165-.492-2.148-.862-2.18-.82-.03.04-.258.995-.505 2.122-3.591 16.362-17.42 36.965-24.759 36.887-1.774-.02-3.147-1.044-3.89-2.904-.627-1.57-.624-5.917.005-8.81 1.566-7.195 5.884-17.246 10.08-23.464l.924-1.371-2.46-2.818c-1.362-1.559-2.495-2.818-2.536-2.818-.041 0-.864.637-1.84 1.426-2.048 1.653-3.915 2.836-4.903 3.107-.642.176-1.522.14-2.78-.116-.26-.053-1.41-.995-2.574-2.11-3.55-3.398-7.321-6.776-8.79-7.873-1.447-1.08-3.926-3.164-9.543-8.016-.51-.44-1.029-.888-1.553-1.337l-.63-.54-.949-.81c-3.683-3.14-7.265-6.124-8.57-7.128a84.441 84.441 0 0 1-3.297-2.733 123.104 123.104 0 0 0-3.578-2.997c-2.986-2.378-7.457-6.177-10.989-9.333a333.197 333.197 0 0 0-5.748-5.02 269.793 269.793 0 0 1-2.886-2.469l-.635-.552-.634-.556c-5.606-4.931-11.347-10.436-20.898-19.98l-2.16-2.16a3039.1 3039.1 0 0 0-9.565-9.505c-3.137-3.101-6.362-6.432-7.185-7.42a285.108 285.108 0 0 0-4.17-4.828c-1.475-1.672-3.107-3.612-3.635-4.321-.527-.708-1.682-2.132-2.566-3.165-3.763-4.395-9.493-12.042-14.106-18.824-1.776-2.611-3.605-5.24-4.078-5.86-1.012-1.33-1.55-2.48-2.41-5.167-.741-2.31-.949-3.936-.627-4.903.185-.553.15-1.578-.171-5.016l-.051-.546-.033-.357c-.01-.118-.022-.236-.033-.353l-.032-.35-.031-.348a499.42 499.42 0 0 1-.093-1.04l-.03-.347-.031-.35-.03-.355c-.394-4.563-.806-10.168-1.915-25.616-.705-9.825-1.809-24.893-2.455-33.523-.262-3.496-.578-7.733-.898-12.032l-.128-1.721c-.427-5.737-.848-11.422-1.144-15.44l-1.672-22.684c-.493-6.854-.765-10.733-.817-11.638-.077-1.352-.2-2.58-.272-2.714-.072-.134-.455 1.465-.85 3.55a67307.344 67307.344 0 0 1-10.817 56.959c-.973 5.114-2.156 11.35-3.354 17.69l-.54 2.856c-1.56 8.25-3.097 16.416-4.19 22.257-2.061 11.008-5.38 28.537-7.373 38.952-.627 3.276-1.317 6.882-2.004 10.482l-.243 1.27a17531.68 17531.68 0 0 0-3.567 18.727 10960.585 10960.585 0 0 1-6.112 31.913l-.146.762-.22 1.141-.146.76-.146.763c-1.903 9.925-3.927 20.578-8.433 44.36l-.306 1.608-.155.81-.31 1.626-.157.812c-1.507 7.837-2.992 15.295-3.19 15.977-.119.408-.11.883.023 1.315.25.808.117 1.45-.45 2.179-.895 1.149-3.046 1.795-6.709 2.016l-2.085.126.194.901c.548 2.555-1.31 15.517-3.133 21.867-.632 2.198-1.539 4.17-2.001 4.35-.197.077-2.79-.059-5.776-.302-2.987-.243-6.853-.522-8.612-.62-1.766-.099-3.37-.274-3.588-.391-.491-.266-.563-.67-.728-4.108-.076-1.56-.19-2.851-.258-2.893-.036-.022-.315-.006-.732.037l-.297.033c-.315.036-.681.084-1.066.139-3.232.465-12.698.574-17.262.197-17.375-1.432-32.73-6.854-35.415-12.504-.617-1.296-.603-2.358.047-3.588 1-1.894 2.383-2.47 7.68-3.191.53-.073.998-.133 1.453-.185l.272-.03c.181-.018.362-.036.546-.052l.278-.023c1.874-.148 4.207-.166 10.243-.171 11.12-.01 15.317.278 23.16 1.588 1.673.279 3.054.475 3.091.439.036-.036.476-1.39.977-3.006.5-1.615 1.033-3.18 1.183-3.475l.272-.535-1.615-.796c-1.822-.898-3.863-2.623-4.37-3.694l-.056-.117-.04-.089a1.532 1.532 0 0 1-.046-.115l-.016-.05c-.059-.198-.094-.474-.097-1.037v-.236c.011-1.619.226-5.241.749-14.23.933-16.043 1.245-21.66 1.432-26.444l.014-.362.033-.897.013-.358.006-.18.013-.36.012-.362.012-.366.012-.37.017-.565c.654-21.04.804-25.407.985-28.704.11-2.01.289-5.533.397-7.806a971.884 971.884 0 0 1 .474-9l.041-.73c.074-1.34.144-2.637.181-3.373a1980.569 1980.569 0 0 1 1.969-33.25c.265-3.908.574-8.605.688-10.445.788-12.776 2.28-32.913 3.645-49.219l.684-8.19c1.176-14.164 3.877-42.313 5.052-52.656a2290.15 2290.15 0 0 0 1.009-9.087l.115-1.036c.547-4.92.975-8.602 1.244-10.692.22-1.71.464-3.578.715-5.457l.116-.868c.697-5.205 1.412-10.323 1.714-12.216.27-1.69.616-3.904.773-4.94.512-3.382 1.68-9.326 2.365-12.024.59-2.33.638-2.692.375-2.865-1.73-1.138-2.99-2.47-4.097-4.33-.991-1.664-1.671-7.307-2.66-22.092-.892-13.318-1.422-20.326-1.545-20.435-.073-.064-2.743-.535-5.955-1.05-6.255-1.003-14.512-2.467-20.211-3.584-3.203-.627-8.718-1.806-14.482-3.074l-.963-.212-.965-.213-.965-.214-.964-.214c-6.414-1.428-12.57-2.84-15.636-3.602l-.437-.109a30.847 30.847 0 0 1-1.334-.359l-1.202-.372-.996.672c-1.916 1.293-4.02 1.399-6.311.318-1.465-.69-3.09-2.167-3.386-3.075-.18-.554-.37-.715-1.047-.89-.716-.184-4.132-1.188-5.11-1.5-.206-.067-.338-.006-.34.154-.004.482-2.312 5.242-3.116 6.425-1.914 2.818-4.417 4.19-6.818 3.74-.915-.172-2.76-1.861-3.386-3.101l-.484-.958-.976.607c-1.465.911-2.48.96-4.058.192-.77-.375-1.54-.94-1.897-1.391l-.6-.76-.705.478a6.285 6.285 0 0 1-1.475.708c-1.085.323-1.743-.079-3.766-2.295-3.754-4.114-5.26-6.21-6.915-9.619-.565-1.164-1.105-2.11-1.21-2.117-.332-.024-2.354 2.212-3.29 3.64-1.294 1.972-2.296 4.038-3.77 7.776-1.295 3.279-2.262 6.312-3.175 9.957-.72 2.874-2.114 10.622-2.22 12.342-.05.816-1.418 14.615-3.04 30.677-.525 5.19-1.106 10.961-1.688 16.75l-.166 1.654-.166 1.651c-1.104 10.998-2.17 21.662-2.804 28.074a5815.612 5815.612 0 0 1-3.114 30.787l-.182 1.745c-.426 4.078-.863 8.203-1.336 12.628-.43 4.022-1.316 12.85-1.969 19.632-.466 4.842-.99 10.266-1.52 15.746l-.265 2.741c-.663 6.854-1.323 13.658-1.88 19.384-.749 7.702-.952 8.882-1.59 9.237-.204.113.225.562 1.54 1.616 6.669 5.342 13.75 12.667 19 19.655 12.401 16.508 19.713 35.054 22.107 56.075.416 3.649.582 14.672.284 18.786-1.428 19.669-7.945 38.533-18.724 54.197-4.11 5.974-7.685 10.245-13.125 15.686-4.415 4.414-7.215 6.877-11.458 10.077-15.358 11.581-33.83 18.96-52.764 21.08-25.471 2.849-50.99-3.222-72.28-17.197-6.782-4.45-11.746-8.52-17.857-14.636-9.397-9.407-15.696-18.129-21.37-29.588-7.302-14.752-11.074-30.038-11.49-46.57-.463-18.372 3.431-35.827 11.65-52.224 8.192-16.343 21.205-31.156 36.023-41.006 7.078-4.704 14.933-8.643 23.255-11.659 1.245-.451 3.292-1.124 5.36-1.775l.73-.229c2.549-.794 4.99-1.514 5.856-1.702a32.83 32.83 0 0 0 2.959-.812c.756-.258 2.404-.648 3.644-.864l.467-.083c1.092-.196 2.158-.405 2.491-.49.385-.1 1.71-.274 2.968-.392 14.558-1.367 26.345-.67 38.657 2.281 1.22.293 2.27.563 3.771.987l.911.26c1.292.371 2.914.852 5.142 1.517.8.24-1.277-.77-3.832-1.86-5.503-2.35-12.829-4.58-18.22-5.547-10.519-1.886-21.9-2.066-32.346-.513-14.633 2.177-29.312 7.794-41.907 16.035-6.95 4.547-10.627 7.584-17.42 14.386l-.24.242c-4.112 4.115-4.636 4.567-5.218 4.56-.82-.007-1.292-.518-1.434-1.552-.139-1.004.423-2.029 2.38-4.34l1.993-2.347.592-.696-2.893.124c-15.722.674-30.949 8.333-36.574 18.4-.437.78-2.174 5.672-4.697 13.224-10.322 30.903-16.212 48.11-16.961 49.557-.382.736-1.745 1.738-2.778 2.041-.458.135-2.047.236-3.794.241l-2.193.007h-.254l-.112.001h-.19l-.076.001h-.18l-1.498 4.246c-6.225 17.659-9.993 28.524-12.446 35.9l-.77 2.313-.337 1.01-.307.922-.19.566c-1.47 4.386-1.837 5.308-2.496 6.37l-.084.133c-.143.225-.3.463-.486.746-1.119 1.702-2.387 2.854-4.115 3.736-1.947.994-7.157.074-15.722-2.775-15.478-5.148-33.095-14.34-37.557-19.596-1.946-2.292-2.205-3.93-.856-5.41l.394-.433-.864-.343c-2.855-1.135-8.927-4.432-11.007-5.978-1.672-1.242-3.693-3.348-4.066-4.236-.67-1.597-.138-3.112 1.323-3.775.564-.256 1.46-.363 7.152-.367h1.498c3.628.008 8.858.045 16.464.105 1.245.01 2.453.015 3.573.016h1.186c2.865-.004 4.942-.038 5.197-.093l.695-.15 3.69-9.318 1.711-4.319.394-.994c1.51-3.812 3.008-7.595 3.85-9.725l2.264-5.72-.432-.296c-3.231-2.21-7.538-6.011-8.69-7.67l-.627-.901-.066-4.734c-.396-28.517 11.17-62.82 28.465-84.423 10.137-12.662 21.874-20.687 33.174-22.684.85-.15 2.912-.365 4.603-.479 1.69-.114 4.428-.303 6.114-.422 1.671-.119 4.48-.293 6.208-.385l7.1-.386c1.896-.104 7.683-.55 13.898-1.058l.984-.08.494-.042.989-.081.989-.083c3.62-.301 7.17-.607 9.977-.862l2.498-.226.122-1.992c.06-.972.15-4.496.215-8.238l.012-.727.012-.728c.129-8.51.306-9.96 1.513-12.399.317-.638.527-1.187.477-1.24-.189-.194-2.182 1.035-3.234 1.995-1.917 1.749-3.639 4.58-4.702 7.737-.398 1.18-.554 2.141-.666 4.114-.2 3.512-.715 5.14-2.068 6.537-1.97 2.036-4.337 1.766-5.758-.658l-.518-.882-.666 1.183c-1.616 2.874-3.767 3.36-5.89 1.332l-.882-.844-.438.47c-1.575 1.69-4.32 1.184-5.49-1.014l-.459-.864-.536.394c-.296.218-.93.44-1.418.496-1.69.193-3.286-.65-4.206-2.224-.44-.752-.596-.88-.94-.769-1.653.532-2.897.328-4.283-.703-1.475-1.097-2.035-1.928-2.704-4.014-1.344-4.186-1.705-5.366-1.92-6.418l-.034-.17-.033-.17-.03-.174c-.33-1.876-.125-6.574.386-8.81a34.485 34.485 0 0 1 2.658-7.458c1.159-2.348 3.674-6.383 4.777-7.664.884-1.026 4.507-4.01 6.517-5.368 4.498-3.038 16.23-7.585 22.597-8.76a29.13 29.13 0 0 0 3.456-.91 45.942 45.942 0 0 1 3.4-.996 92.16 92.16 0 0 0 2.013-.52l.667-.18c.443-.12.878-.242 1.265-.352 1.258-.359 2.843-.71 3.55-.789.704-.077 2.395-.348 3.766-.601 1.372-.254 3.51-.523 4.762-.601l2.273-.141.836-3.475c.097-.404.2-.826.305-1.25l.158-.637c.343-1.372.683-2.677.87-3.336l.498-1.747-.62-8.998c-.34-4.94-.755-11.358-.92-14.23l-.098-1.704-.04-.691-.303-5.27-.141-2.433-.996-.336c-2.45-.826-4.308-2.594-5.728-5.45-1.443-2.9-1.73-4.302-1.74-8.472-.006-2.855.081-4.054.448-6.124.51-2.876 1.42-6.2 2.493-9.111.805-2.18 3.167-7.137 4.378-9.186l.788-1.334-.28-1.033c-1.55-5.711 1.282-14.783 5.408-17.328.657-.406.657-.406.328-.96l-.328-.554-1.293 1.315c-2.013 2.048-4.493 3.593-7.31 4.554-5.034 1.717-9.417 1.504-12.06-.587-1.258-.995-2.94-4.427-2.423-4.944.145-.145.583.128 1.466.917 1.645 1.469 2.498 1.846 4.188 1.854 1.54.008 2.101-.228 3.115-1.306 4.212-4.48 5.968-14.765 3.605-21.115-.175-.47-.344-.845-.38-.845-.035 0-.31.093-.592.2-2.625.998-6.386 1.479-9.28 1.186-2.403-.243-3.77-.582-5.972-1.48-8.76-3.575-15.61-14.165-17.474-27.014-.428-2.95-.76-7.951-.612-9.224l.128-1.108-.807-.138c-1.278-.219-3.81-1.58-4.632-2.492-1.612-1.786-1.966-4.001-.965-6.05.666-1.364 2.723-3.414 4.45-4.438 1.493-.884 3.964-1.71 5.56-1.86l1.147-.107-.112-.808c-.736-5.335.299-14.881 1.959-18.072.297-.57.285-.657-.241-1.728-.515-1.047-.555-1.296-.555-3.494 0-1.71.1-2.696.36-3.55.971-3.194 2.275-5.7 3.88-7.458 1.012-1.109 2.666-2.311 3.18-2.311.165 0 .647-.507 1.07-1.127 1.12-1.643 5.899-6.358 8.773-8.658 11.026-8.823 25.353-15.434 35.727-16.484 1.672-.17 2.182-.291 2.257-.538.83-2.743 6.169-7.121 8.093-6.637.525.132.566.4.167 1.095-.42.733-.355.82.377.514 1.71-.714 5.053-1.39 5.053-1.021 0 .053-.172.385-.394.76l-.395.667 1.09-.2c1.333-.244 4.129.084 4.583.539.265.265.263.337-.019.615-.638.63-.805 1.118-.45 1.317 1.577.887 2.547 2.471 2.451 4.004-.065 1.033-.052 1.063.732 1.644.432.32.951.91 1.132 1.287.404.844.43 2.573.056 3.72-.15.459-.324 1.38-.38 2.019l-.103 1.174 1.343 1.69c6.12 7.7 10.528 16.926 13.814 28.911 4.97 18.129 3.562 37.63-3.495 48.411-.96 1.465-4.534 5.876-5.35 6.602l-.414.368.62 1.164c1.679 3.148 6.462 5.942 10.218 5.969 2.18.015 3.585-.73 3.953-2.099.198-.733.446-.9.893-.601.454.302.677 1.052.677 2.273 0 2.837-1.607 6.062-3.813 7.653-.895.645-.883.656 1.54 1.422 1.69.535 4.167.913 5.616.859.676-.026.9.045.952.304.094.468-1.778 2.392-3.375 3.467l-1.352.91 1.483.349c3.067.72 6.376 2.864 9.611 6.226 3.007 3.126 5.275 6.82 6.577 10.708.765 2.285 1.013 3.644 1.208 6.631l.13 1.992 1.315.864c4.674 3.071 12.567 13.338 19.785 25.736 6.847 11.76 12.81 24.588 16.305 35.073l.914 2.741.554-4.61c.288-2.393 1.584-13.075 2.949-24.296l.122-1.006a74481.635 74481.635 0 0 1 1.001-8.244l.135-1.11c1.119-9.232 2.157-17.85 2.546-21.147.69-5.842 1.003-7.919 1.25-8.284.182-.272.49-1.015.691-1.672.901-2.938 2.417-5.2 5.629-8.4 3.926-3.912 7.616-6.136 11.402-6.874l1.634-.318.008-1.09c.019-2.593.885-5.554 2.38-8.134 1.034-1.785 3.264-4.054 4.693-4.776a24.81 24.81 0 0 0 2.067-1.2c2.012-1.336 5.485-2.35 12.36-3.611 8.945-1.64 21.488-3.079 36.177-4.15 13.067-.951 20.186-1.184 37.801-1.197h3.316c14.49.008 18.436.14 22.673.712 1.221.165 2.253.272 2.273.236.02-.036.385-1.221.808-2.63.423-1.41.973-3.09 1.22-3.729.248-.639.43-1.178.405-1.193-.026-.015-.62-.155-1.315-.31-1.09-.242-1.288-.356-1.411-.808-.205-.751-.44-5.047-.562-9.526l-.027-1.063c-.039-1.653-.06-3.295-.059-4.759.014-10.22 1.012-20.908 3.04-32.555 3.616-20.777 10.69-38.589 17.493-44.043l1.183-.949-.93-2.404a189.731 189.731 0 0 1-1.887-5.166c-.528-1.522-.988-2.804-1.024-2.856-.036-.051-.93.36-1.982.912-3.226 1.693-6.048 2.496-9.824 2.796-11.27.894-22.689-6.212-27.388-17.046-1.402-3.23-2.404-7.824-2.242-10.275.046-.695.054-1.259.017-1.259-.036 0-.742.346-1.587.78-1.849.947-2.836 1.194-4.79 1.202-1.972.007-3.07-.534-4.594-2.264-1.465-1.664-1.923-2.724-2.052-4.753-.19-3.002.528-5.748 2.537-9.693.727-1.428 1.476-3.199 1.653-3.907 1.233-4.942 1.184-14.578-.1-19.82-.447-1.821-1.126-3.663-1.482-4.02-.146-.146-.864-.322-1.616-.396-5.804-.576-10.938-4.096-13.31-9.128-1.326-2.81-1.606-4.208-1.614-8.059-.008-3.588.18-4.68 1.388-8.04C400 9.373 408.544 1.966 417.729.229ZM241.386 577.513l-1.676 2.254-.388.523-.112.152c-1.016 1.384-2.299 3.19-6.774 9.591l-.51.73c-3.057 4.374-7.5 10.744-14.126 20.244-11.442 16.406-16.13 23.138-19.886 28.591l-.315.458-1.69 2.46-.458.67-.308.45a2768.81 2768.81 0 0 0-1.965 2.874l-.407.596c-2.172 3.175-4.286 6.239-4.882 7.07l-1.183 1.654.47.353c2.083 1.57 8.978 5.51 13.11 7.495 12.916 6.2 26.843 9.585 41.1 9.987l4.395.124-.122-1.362c-.067-.749-.211-4.865-.32-9.148-.108-4.284-.283-10.805-.39-14.494-.207-7.237-.471-20.852-.778-40.145-.241-15.197-.579-28.429-.754-29.55-.125-.804-.2-.888-1.083-1.22l-.948-.357Zm12.03-1.804c-.046.01-.647.406-1.342.883-.695.477-1.797 1.045-2.461 1.268l-1.202.404.136 4.095c.15 4.506.274 8.28.395 12.095l.035 1.092c.179 5.653.358 11.557.615 20.195l.183 6.1.035 1.138a9175.456 9175.456 0 0 0 .858 27.191l.049 1.543a13893.431 13893.431 0 0 1 .26 8.185l.023.733c.157 4.881.326 9.558.388 10.707l.122 2.244 1.503-.134c17.675-1.58 34.15-7.374 48.838-17.18 5.71-3.811 10.434-7.694 15.44-12.692l3.043-3.038-.854-.826c-.47-.454-4.32-4.2-8.547-8.313a6296.35 6296.35 0 0 0-6.053-5.881l-.987-.958a5231.641 5231.641 0 0 0-6.963-6.745c-7.546-7.291-15.629-15.135-29.98-29.096l-.604-.588-.6-.584a3865.607 3865.607 0 0 0-10.846-10.523c-.77-.734-1.437-1.325-1.483-1.315Zm-18.295-6.5c-.18.01-1.756.278-3.484.592-1.3.236-4.327.745-7.495 1.264l-.794.13c-.795.129-1.59.258-2.362.381-4.122.662-11.89 1.91-17.262 2.776-25.828 4.161-58.77 9.43-59.695 9.548-.996.126-1.033.154-1.033.751 0 .87.683 4.96 1.375 8.228 4.059 19.18 14.154 37.61 28.021 51.156.712.695 1.465 1.41 2.225 2.116l.456.422.456.418c3.185 2.91 6.22 5.42 6.397 5.213l.025-.033c.177-.248 1.268-1.82 2.557-3.686 1.386-2.007 3.952-5.683 5.71-8.181a2669.82 2669.82 0 0 0 7.999-11.49l.542-.782 1.086-1.569.542-.783a4664.379 4664.379 0 0 0 1.324-1.914l.504-.728.252-.364 1.008-1.456c3.77-5.445 7.365-10.618 8.533-12.277 1.375-1.954 5.056-7.233 8.19-11.741a2723.514 2723.514 0 0 1 11.035-15.742c2.938-4.152 5.424-7.67 5.522-7.815.12-.176.007-.648-.338-1.419-.285-.638-.617-1.575-.742-2.094-.158-.658-.324-.934-.554-.921Zm-108.674-21.716c.77 0 1.485.542 1.661 1.259.121.494-.15 1.183-1.097 2.78-1.125 1.9-2.555 7.139-3.286 12.042-.486 3.261-.484 12.473.004 16.85 1.938 17.396 6.965 34.301 14.545 48.918 3.098 5.974 4.705 8.29 8.158 11.76 2.731 2.745 4.979 4.465 8.228 6.3 2.386 1.348 3.805 2.593 3.592 3.15-.356.929-2.52 1.19-4.418.534-2.89-1-5.466-2.75-8.753-5.942-5.037-4.891-8.866-10.56-13.529-20.029-4.832-9.812-7.972-19.612-9.957-31.071-1.941-11.215-2.426-24.708-1.185-33.044.827-5.56 2.676-10.727 4.531-12.662.649-.676.95-.845 1.506-.845Zm-2.93-33.03c.512-.364 1.822-.352 2.554.023.592.302.84.94.695 1.785-.051.3-1.974 6.97-4.278 14.841l-.445 1.523-.447 1.525-1.787 6.11-.446 1.523-.445 1.52c-4.96 16.955-9.669 33.071-12.227 41.845-4.157 14.26-5.908 20.254-7.454 25.478l-.138.466-.549 1.847-.207.696c-.463 1.554-.945 3.17-1.507 5.046a3968.324 3968.324 0 0 0-4.34 14.596c-1.986 6.763-2.708 8.097-4.387 8.097-.395 0-.822-.117-1.782-.588l-.275-.137c-.772-.39-1.85-.98-3.428-1.858-6.048-3.366-8.113-4.589-8.519-5.044-.84-.944-.497-2.117.611-2.084.8.024 3.532 1.2 8.171 3.52 2.048 1.025 3.757 1.845 3.78 1.814.035-.05 2.122-6.609 4.106-12.893l.216-.685 1.243-3.95c.697-2.218 2.292-7.504 3.54-11.73a5279.4 5279.4 0 0 1 4.904-16.467c.42-1.401.882-2.95 1.35-4.519l.469-1.572c.987-3.315 1.943-6.54 2.52-8.505.94-3.204 2.98-10.125 4.536-15.385.643-2.177 1.421-4.82 2.204-7.49l.391-1.336c.976-3.334 1.928-6.596 2.602-8.927l.128-.442.256-.884.382-1.322.254-.878.127-.438.253-.873.25-.867.25-.862c3.275-11.314 6.086-21.02 6.249-21.575.105-.357.378-.774.62-.945ZM257.67 569.34l-1.033 2.367 1.306 1.268c.72.7 2.45 2.323 3.86 3.621 8.15 7.507 37.173 35.481 57.44 55.365 2.405 2.359 4.462 4.293 4.565 4.293.223 0 2.787-3.268 4.715-6.011 11.392-16.201 18.006-35.918 18.533-55.249l.12-4.358-4.5-.131c-2.478-.073-7.56-.132-11.317-.132l-.752-.001c-2.896-.007-8.065-.05-13.448-.11l-1.011-.011-.507-.006-1.013-.012a2594.4 2594.4 0 0 1-4.485-.057c-4.321-.06-10.601-.14-17.012-.217l-1.604-.02c-4.815-.057-9.617-.113-13.636-.158-9.824-.108-18.386-.252-19.037-.32l-1.184-.121ZM71.345 563.17c-.25-.102-.398-.01-.527.328-.098.26-.773 2.02-1.502 3.917-.73 1.9-2.767 7.167-4.537 11.732-1.77 4.565-4.153 10.857-5.309 14.014-2.345 6.408-2.73 7.459-3.327 8.344l-.108.156c-.086.121-.18.245-.284.386-.941 1.257-2.073 2.01-3.932 2.615-1.221.397-1.503.415-3.945.24-3.005-.216-10.901-1.727-13.074-2.502-3.681-1.314-8.341-2.232-11.326-2.232-2.31 0-3.156.11-3.156.413 0 .938 5.226 4.432 10.852 7.613l.677.38c3.73 2.08 7.55 3.973 10.073 4.855 1.946.68 5.428 2.073 11.439 4.575 3.877 1.615 5.303 2.198 6.438 2.574l.203.066c.1.033.2.063.3.094l.2.059.204.059c.172.049.35.098.544.15 2.987.813 5.358 1.222 6.105 1.052.995-.226 2.327-1.065 2.9-1.827.82-1.09 1.28-2.123 2.136-4.79l.14-.434.048-.148.152-.464.054-.164c.772-2.332 2.165-6.347 7.157-20.675 1.25-3.588 3.22-9.137 4.382-12.343 1.882-5.192 3.483-9.709 4.125-11.62l.084-.25c.14-.426.217-.675.217-.716 0-.054-.46-.203-1.154-.382l-.336-.085a40.183 40.183 0 0 0-.952-.221c-2.91-.641-7.795-2.13-11.759-3.582-1.578-.578-3.01-1.11-3.202-1.187Zm-16.24-7.695c-2.404-1.361-2.384-1.352-2.535-1.106-.354.574-3.969 9.825-6.827 17.47-4.04 10.802-5.04 13.3-5.529 13.808l-.045.045-.032.028-.034.026a.564.564 0 0 1-.018.013l-.04.024c-.317.171-1.083.226-4.403.23h-.97c-1.383-.001-3.128-.009-5.338-.019a1883.25 1883.25 0 0 1-6.288-.04l-1.196-.01a1492.3 1492.3 0 0 1-10.323-.115c-1.98-.033-3.467-.066-4.544-.07H6.64c-3.07.006-2.264.32-.07 1.817 2.77 1.893 10.405 5.563 15.947 7.665 7.776 2.95 18.162 5.703 23.95 6.35 2.272.253 3.646.046 5.24-.79.756-.397 1.024-.699 1.503-1.694.316-.658.693-1.573.825-2.001.563-1.827 11.926-33.495 12.72-35.448.102-.252-.134-.437-1.11-.871-1.1-.49-2.962-1.393-4.869-2.35l-.88-.444c-1.904-.964-3.74-1.924-4.79-2.518Zm112.6-51.978c-.084 0-.25.132-.356.282-.108.154-.836 1.033-1.603 1.935-3.228 3.796-7.064 9.299-9.756 13.995-8.425 14.697-12.995 30.226-13.793 46.87a98.925 98.925 0 0 0-.091 4.234v.911c.01 3.13.121 6.08.288 6.352.112.182 1.297.036 4.659-.574a900.78 900.78 0 0 1 9.53-1.631l1.956-.327a3568.1 3568.1 0 0 1 7.362-1.219l1.084-.178.542-.09 1.084-.177.541-.089 1.078-.176c3.763-.615 7.4-1.202 10.427-1.683 2.959-.47 6.057-.959 9.205-1.453l1.261-.198 2.535-.397 1.27-.199.635-.1 1.27-.197c15.652-2.442 30.916-4.768 35.01-5.321 1.616-.219 3.145-.454 3.382-.52.378-.107.643-.593.652-1.194.003-.243-6.757-6.054-16.337-14.044-14.088-11.75-42.457-36.269-49.27-42.583-1.315-1.22-2.477-2.229-2.564-2.229Zm355.349 70.127c.361-.432.874-.3.95.244.08.564-.482.81-.898.395-.263-.263-.272-.376-.052-.64Zm-272.821-15.405c-.638-.33-2.837-.543-3.607-.35-1.63.41-3.515 1.703-5.08 3.488-1.482 1.689-1.956 2.968-1.993 5.373-.025 1.69.016 1.888.663 3.156 1.147 2.249 2.804 3.197 5.246 3 3.194-.256 6.345-3.02 7.405-6.494.528-1.729.46-4.126-.157-5.505-.453-1.014-1.537-2.181-2.477-2.668Zm59.808-65.768c-.003 0-.01.005-.02.014l-.042.041c-.853.884-10.317 12.5-33.082 40.597a6155.257 6155.257 0 0 1-14.21 17.48c-2.675 3.269-5.102 6.259-5.391 6.641l-.526.695.479.958c.626 1.254.933 2.442 1.085 4.208l.126 1.465 11.937.141c6.561.078 18.418.236 26.326.35 22.728.332 44.335.589 49.246.593h.309c.47 0 .722-.005.73-.013.083-.083-.102-2.424-.356-4.91l-.084-.8-.057-.532a96.517 96.517 0 0 0-.38-3.075c-2.282-15.743-8.847-31.924-18.146-44.73-4.53-6.236-10.401-12.673-15.972-17.509-1.014-.88-1.91-1.614-1.972-1.614ZM43.216 537.65l-.132 1.164c-.116 1.033-.07 1.277.41 2.16 2.872 5.284 16.289 13.943 30.058 19.4 7.795 3.09 15.651 4.833 20.793 4.616 1.315-.056 2.731-.207 3.156-.337 1.23-.376 2.195-1.474 2.65-3.014.216-.733.325-1.334.243-1.334-.082 0-.639.096-1.221.21-1.562.308-6.612.253-9.298-.1-13.731-1.806-30.71-8.99-41.08-17.38-.984-.796-2.662-2.352-3.692-3.422l-1.887-1.963Zm.75-11.263c-.06-.005-.226 1.24-.365 2.762l-.254 2.77.65 1.072c1.735 2.862 5.549 6.76 9.587 9.798 5.572 4.193 14.22 8.592 21.846 11.115 8.02 2.653 14.971 3.791 21.94 3.592 2.01-.058 3.76-.198 3.982-.319.267-.146.557-.742.901-1.85.28-.902.507-1.69.507-1.757 0-.068-.375-.03-.845.083-1.168.284-6.386.265-8.64-.03-9.411-1.234-21.891-5.61-31.257-10.963-3.324-1.9-7.97-5.087-10.2-7-2.498-2.14-5.747-5.825-6.912-7.835-.456-.79-.877-1.432-.94-1.438Zm201.42-57.606-2.63.03c-8.831.102-18.652 1.639-27.593 4.318-15.61 4.678-30.024 13.079-41.7 24.303-1.371 1.318-2.454 2.45-2.424 2.533.032.083 1.88 1.688 4.096 3.559 3.484 2.94 9.07 7.677 14.875 12.613l1.587 1.35 1.06.901.53.45 1.056.9 4.653 3.965c6.168 5.258 15.553 13.23 26.73 22.701 2.442 2.07 6.319 5.373 8.631 7.354 2.31 1.98 4.262 3.593 4.34 3.588.077-.005.494-.46.937-1.024.708-.901 1.908-1.816 3.598-2.742l.583-.32.132-11.215c.156-13.206.45-28.793.724-38.416.108-3.776.196-8.613.196-10.765v-3.907l-7.551-.131c-4.152-.073-11.412-.216-16.126-.32-2.359-.052-5.601-.12-8.926-.19l-1.427-.03c-2.856-.06-5.688-.118-7.99-.165-5.372-.108-10.148-.249-10.613-.312-1.671-.227-1.847-1.72-.282-2.402.402-.175 1.353-.379 2.104-.45.196-.019.808-.029 1.756-.031h1.164c3.973.01 11.406.098 19.197.22l1.266.02c9.722.154 19.738.354 24.084.51l3.475.125.132-7.373c.072-4.058.182-7.885.244-8.51l.112-1.137Zm4.94.15-.112 2.743c-.062 1.504-.138 5.326-.169 8.463l-.056 5.72 4.733.133c6.969.197 30.41.741 35.99.837 4.658.08 4.84.097 5.174.514.57.71.442 1.518-.365 2.318l-.695.688-2.8-.123c-2.634-.116-6.968-.237-25.489-.713l-3.106-.08-.916-.025c-3.209-.085-6.398-.173-8.112-.223l-4.452-.132-.131 6.387c-.138 6.74-.38 20.965-.73 42.869-.115 7.27-.256 13.458-.313 13.742-.098.49-.056.523.845.657.516.077 1.437.364 2.02.63.864.394 1.113.44 1.294.244.196-.214 3.478-4.314 6.824-8.512l.752-.944c2.755-3.458 5.399-6.788 6.237-7.865 2.068-2.658 9.114-11.538 16.293-20.55l.707-.887 2.464-3.091.698-.875c3.245-4.067 6.335-7.931 8.8-11.003a9763.766 9763.766 0 0 0 9.037-11.272c.216-.28-5.207-3.947-9.265-6.264-11.72-6.692-24.7-11.017-38.206-12.73-1.616-.205-3.854-.437-4.95-.515l-2-.14Zm-95.328-38.022-1.324.029c-.554.011-1.815.09-3.1.19l-.592.048-.581.05c-3.131.276-6.593.566-10.156.852l-1.128.09-1.133.09c-1.136.09-2.276.18-3.415.268l-1.138.087c-10.799.828-21.206 1.533-25.03 1.665-7.026.242-9.765.89-15.385 3.643-5.11 2.502-9.98 6.056-14.614 10.663-13.809 13.73-25.28 36.578-30.646 61.037-1.491 6.8-1.65 7.836-1.416 9.186.517 2.969 2.607 8.12 4.116 10.145 8.68 11.648 36.793 23.691 51.576 22.095 1.259-.136 2.427-.348 2.593-.47.186-.139 3.577-9.883 7.12-20.265l.452-1.328.226-.665.679-1.995c1.277-3.761 2.523-7.456 3.593-10.66l.37-1.11c1.692-5.077 2.86-8.687 2.861-8.934.003-.712 1.846-4.527 2.985-6.18 5.022-7.29 17.065-14.31 29.162-17l2.46-.546.047-2.856c.026-1.571.14-6.049.254-9.956.088-3.034.27-9.326.445-15.464l.03-1.05.116-4.094c.212-7.42.428-14.421.48-15.536l.093-2.029Zm-16.644 10.53c.446 0 .907.002 1.373.006 5.485.037 5.97.136 6.38 1.3.264.75-.03 1.697-.632 2.027-.282.155-2.254.236-6.236.255-4.302.02-6.437.116-8.171.363-11.252 1.606-20.124 5.023-27.519 10.597-6.073 4.579-9.947 9.864-12.132 16.551-.301.921-.711 1.985-.913 2.367l-.007.016c-.284.63-4.627 13.442-9.732 28.708-5.158 15.423-9.782 29.151-10.281 30.526-1.277 3.513-2.172 4.36-3.356 3.175-.456-.455-.494-.601-.372-1.428.006-.044.014-.09.022-.138l.018-.1c.307-1.637 1.756-6.065 11.098-34.102l.31-.934.31-.926c.05-.154.102-.308.153-.461l.304-.915c.91-2.732 1.78-5.35 2.592-7.793l.268-.808c3.148-9.48 5.339-16.127 5.339-16.21 0-.315 1.94-4.846 2.862-6.688 3.014-6.012 8.145-11.634 14.363-15.733 7.315-4.824 17.318-8.265 27.049-9.304 1.09-.116 2.283-.248 2.667-.295.263-.032 1.548-.053 3.207-.056Zm455.21 45.95c-2.272-.086-2.83-.05-3.155.197-.376.286-.378.319-.037.695 1.002 1.106 5.09 2.67 9.203 3.519 2.837.586 6.12.724 6.875.29.432-.248.437-.274.112-.635-.937-1.037-4.094-2.39-7.776-3.333-1.992-.51-2.986-.65-5.221-.734Zm-387.07-87.398h-1.058c-3.75.004-8.02.06-13.246.166-2.352.048-6.622.12-11.038.19l-1.593.025c-1.77.027-3.53.053-5.166.076-9.054.128-11.342.212-11.515.423-.119.145-.385.263-.591.263-.662 0-1.882 1.334-2.665 2.912l-.754 1.521-.14 6.219c-.066 2.89-.221 11-.37 19.303l-.028 1.526-.054 3.038c-.17 9.712-.436 21.552-.591 26.328l-.07 2.147-.042 1.308c-.12 3.776-.236 7.456-.283 9.075-.062 2.123-.155 4.521-.206 5.344l-.095 1.494 3.795-.085c2.085-.046 4.416 0 5.175.104l1.38.187 1.578-1.409c16-14.291 36.742-23.15 60.071-25.659 6.711-.721 16.755-.588 23.968.318 16.06 2.018 30.718 7.83 42.02 16.664 1.052.822 1.93 1.45 1.972 1.408.094-.094.346-9.656.668-25.286.036-1.742.077-3.682.12-5.65l.039-1.773c.087-3.935.175-7.771.235-10.132.077-3.085.128-5.735.13-6.729v-.176c0-.154-.003-.238-.008-.243-.063-.062-16.248-.597-23.18-.766l-5.597-.136.131-1.183c.073-.658.132-1.372.132-1.606 0-.285.026-.377.783-.386h.249c.318.002.734.013 1.278.029 1.271.036 7.504.23 13.853.432 4.938.156 9.213.257 10.904.263h.321c.281-.003.437-.01.45-.02.281-.265.771-15.467.507-15.732-.146-.146-8.81-.55-29.247-1.367-24.024-.96-39.062-1.605-48.2-2.07l-1.356-.066-.899-.04a268.93 268.93 0 0 0-.896-.037l-.896-.034a282.462 282.462 0 0 0-9.974-.178Zm392.067 68.217c-1.409-.704-1.851-.744-2.517-.225-.41.32-.452.46-.328 1.118.6 3.193 4.719 8.473 7.823 10.028 2.254 1.13 3.141.845 2.86-.917-.489-3.06-4.701-8.435-7.838-10.004ZM228.904 353.09c-1.07-.113-1.147-.095-1.043.244.062.201.52 2.592 1.014 5.298.495 2.705.988 5.202 1.091 5.532.821 2.607-.903 5.232-4.133 6.297-.154.05-.29.094-.429.13l-.12.028c-.771.169-1.787.118-6.176-.15-6.294-.384-10.989-.252-18.033.507-1.953.21-4.927.472-6.612.58-1.69.109-3.852.325-4.827.482l-.214.035c-1.487.237-2.74.402-7.976 1.054-.663.083-2.708.272-4.907.457l-.602.05c-.302.024-.605.05-.905.073-2.705.217-5.66.526-6.547.686-.891.16-2.348.384-3.25.498-.898.113-2.432.38-3.409.591-.982.214-2.789.563-4.048.783-5.729 1.003-7.857 1.647-11.27 3.408-9.25 4.773-16.45 14.642-18.331 25.124-.593 3.307-.597 7.868-.009 10.69.076.366.166.746.263 1.127l.12.455c.473 1.738 1.071 3.348 1.315 3.414.442.12 1.476-2.48 1.89-4.752.562-3.081.615-3.235 1.134-3.314.913-.138 1.047.233.912 2.525-.132 2.254.156 3.988.864 5.203.494.849.752.846 1.575-.019 1.086-1.14 1.966-3.137 2.533-5.748.73-3.363.69-3.267 1.348-3.331.826-.081 1.282.757 1.29 2.373.003.666.138 1.785.298 2.46.305 1.297 1.766 4.585 2.037 4.585.244 0 .943-1.372 1.303-2.555.183-.602.41-2.367.508-3.945.2-3.213.714-5.26 1.89-7.515 1.992-3.82 5.841-6.834 10.443-8.18.244-.072.457-.133.658-.186l.198-.05c.943-.23 1.74-.27 4.39-.273h.574l.97.001h.536c2.961-.004 10.036-.07 16.875-.156l.91-.012.905-.012c36.528-.487 48.907-.708 59.89-1.12l.738-.027.736-.029 2.576-.105 6.537-.277 1.71-.705c9.579-3.956 14.895-11.562 14.895-21.311 0-4.494-.947-7.91-3.75-13.526-.994-1.991-1.827-3.643-1.848-3.663a10.991 10.991 0 0 0-.535-.064l-.224-.024c-1.62-.174-5.647-.584-10.314-1.049-1.967-.196-4.133-.413-6.284-.63l-1.074-.107c-4.104-.414-8.03-.813-10.29-1.047l-.66-.069c-3.395-.352-6.508-.676-7.106-.74Zm-62.924 63.148c.366-.375 3.482-.407 11.916-.125 2.979.1 8.255.245 11.693.322l6.264.141v3.325l-1.925-.113c-1.063-.062-3.785-.16-6.077-.22-2.444-.064-5.383-.155-8.28-.254l-.754-.025c-6.022-.208-11.653-.44-12.003-.513-.674-.14-.862-.397-1.017-1.392-.097-.62-.051-.907.183-1.146Zm10.128-49.05c-.23-3.757-.435-4.804-.655-3.325-.072.492-.18 1.362-.243 1.963-.063.602-.154 1.127-.207 1.184-.051.057-1.934.158-4.17.224-5 .147-7.626.538-14.52 2.16-1.822.428-4.016 1.049-4.855 1.373-.528.204-1.471.505-2.47.795l-.605.171c-.403.112-.804.22-1.18.315-6.63 1.676-11.077 3.25-17.638 6.241-3.61 1.646-8.012 5.45-10.677 9.226-2.546 3.606-4.534 8.077-5.397 12.135-.704 3.306-.375 8.325.742 11.328.538 1.446 2.061 4.067 2.784 4.79l.583.583.488-.454c.859-.799 1.043-1.5.818-3.116-.197-1.409.027-6.245.31-6.706.19-.31.639-.244.777.112.068.175.215 1.41.325 2.724.502 5.993 1.625 9.487 3.049 9.487.481 0 .694-.169 1.23-.977.46-.695.618-1.123.544-1.484-.056-.279-.188-1.84-.293-3.475-.344-5.373.323-9.757 2.284-15.01 3.43-9.186 9.896-16.456 18.4-20.684 2.778-1.382 5.09-2.18 8.302-2.867l.386-.082.868-.186c1.377-.296 3.033-.652 4.174-.9 2.887-.625 7.176-1.165 13.28-1.673 1.609-.133 2.995-.266 3.504-.332l.125-.018a.301.301 0 0 0 .081-.018c.037-.036-.028-1.606-.144-3.504Zm41.845 45.659c.166-.207.294-.231.441-.085.262.263-.131.712-.45.515-.16-.098-.158-.223.009-.43Zm38.103-141.184-.63 1.287c-.349.714-1.06 1.806-1.596 2.452-.53.638-.972 1.228-.977 1.305-.005.079.328.648.753 1.287 1.248 1.877 3.057 5.448 4.671 9.224 1.621 3.791 4.971 13.582 6.583 19.237 5.85 20.532 8.632 40.77 6.534 47.546-.372 1.202-.887 1.933-1.833 2.603-.334.236-.295.384.614 2.319 2.216 4.715 3.496 8.567 3.958 11.91.273 1.978.268 6.556-.01 9.317-.68 6.745-3.865 12.43-8.525 15.225-1.46.876-4.377 2.129-6.01 2.582-1.24.344-1.268.365-.64.481.33.061 1.822.116 3.446.13l.49.002c1.802.005 5.231.09 7.617.189.623.026 1.257.051 1.898.076l.772.03.388.015.78.03.783.028.787.029 1.181.041c9.456.329 18.835.539 18.975.398.104-.104.49-1.39.864-2.874 2.822-11.214 2.416-26.3-1.191-44.222-5.611-27.878-18.62-56.828-33.057-73.564a131.308 131.308 0 0 0-4.334-4.725l-2.291-2.358Zm455.623 115.945c.19-.493.806-.263.806.301 0 .3-.13.515-.338.557-.393.08-.648-.388-.468-.858ZM238.004 245.402c-1.634-.52-4.048-.82-4.414-.549-.113.084-.317.604-.452 1.15-.893 3.621-4.788 7.603-9.992 10.213-3.56 1.785-4.94 2.147-13.017 3.409-8.208 1.282-10.703 1.863-17.225 4.01-5.128 1.688-8.627 4.4-12.104 9.381-1.26 1.803-1.805 2.18-2.415 1.665-.155-.13-.282-.5-.282-.82 0-.82 1.444-4.903 2.26-6.387.526-.958.615-1.265.416-1.427-.14-.115-.46-.649-.713-1.193l-.46-.987-.564.293c-1.722.895-3.762 5.53-4.31 9.795-.22 1.71-.006 4.363.384 4.753.083.083.393-.169.693-.564.713-.939 2.018-1.815 2.294-1.54.26.26-.159 1.127-1.222 2.536-.98 1.298-3.173 5.241-4.138 7.44-1.666 3.792-3.073 8.64-3.854 13.28-.5 2.969-.507 9.999-.012 11.967.86 3.42 2.767 5.467 5.093 5.467 1.51 0 1.688.263 1.84 2.705.073 1.176.218 3.344.323 4.809.146 2.037.708 10.791 1.292 19.991l.078 1.229.038.615.117 1.845c.634 10.026 1.229 19.59 1.274 20.598l.053 1.183.686-.056a75.66 75.66 0 0 0 2.403-.288l.452-.06 2.098-.28.54-.073.377-.05c.676-.09.824-.18.741-.451-.33-1.07-.506-3.57-.399-5.655.254-4.96.877-8.391 1.97-10.858.523-1.183.632-2.283.308-3.137-.246-.649-1.136-.682-2.47-.092-1.699.753-3.078.11-3.8-1.768-.538-1.403-.442-4.96.222-8.19.557-2.706 2.102-7.589 2.722-8.604.288-.47.487-.588.913-.54.745.084.78.803.158 3.245-1.648 6.462-2.232 10.963-1.68 12.962.176.639.272.734.639.639.239-.063 1.146-.17 2.028-.242 1.804-.146 2.311.026 3.374 1.143 1.295 1.362 1.431 3.175.368 4.903-.748 1.217-1.523 3.964-1.993 7.064-.43 2.836-.324 8.545.168 9.036.134.134 6.273-.425 9.11-.831 3.113-.446 7.532-.847 11.871-1.08 3.28-.175 4.828-.154 8.772.117 2.63.18 5.104.338 5.485.35.845.026 1.912-.676 2.089-1.374.072-.288-.181-2.142-.586-4.283a260.57 260.57 0 0 1-1.137-6.472l-.422-2.696-.79-.103c-1.089-.142-2.496-1.07-2.947-1.944-.435-.845-3.26-12.004-8.33-32.913-.374-1.54-.768-3.163-1.17-4.812l-.267-1.102-.135-.553-.269-1.106a5871.708 5871.708 0 0 0-3.618-14.791c-1.947-7.89-1.984-8.083-1.675-8.726.542-1.127 1.867-1.364 2.629-.47l.108.13.052.068c.814 1.086 1.424 3.522 8.785 33.541 1.852 7.552 3.553 14.478 3.785 15.414l.423 1.7 2.085.132c1.15.072 3.278.258 4.743.413 1.46.154 5.73.553 9.467.883 2.785.246 8.29.751 13.736 1.26l1.019.095 4.46.42c6.82.645 12.442 1.142 12.483 1.103.05-.047-.168-1.888-.444-3.911l-.07-.509c-.177-1.276-.37-2.572-.526-3.493-3.425-20.138-10.633-43.452-16.508-53.389l-1.01-1.709-.996.113c-.77.087-1.085.227-1.39.62-.22.281-.59.728-.836 1.005l-.441.497.244-2.216-.761-.357c-.412-.193-1.114-.723-1.53-1.156l-.771-.798-.316.489c-.75 1.16-2.276 2.54-3.478 3.148-1.246.63-1.325.644-3.203.543-1.052-.057-2.403-.253-2.977-.432-1.184-.37-2.611-1.552-3.005-2.49-.134-.319-.292-.582-.348-.582-.057 0-.517.39-1.024.867-2.09 1.97-4.94 2.72-7.908 2.083-1.221-.262-2.5-1.334-3.046-2.555-.194-.432-.413-.79-.485-.79-.073 0-.658.265-1.315.595-2.442 1.226-4.586 1.509-6.5.857-1.728-.589-2.692-1.403-3.5-2.954l-.331-.639-.94.586c-1.269.791-3.437 1.235-5.466 1.119-3.193-.184-4.58-1.592-4.806-4.88-.105-1.521-.159-1.694-.603-1.918-.717-.363-1.597-.302-2.348.16-.357.22-.851.376-1.08.34-.347-.054-.42-.197-.402-.798.027-.922.43-1.388 1.726-1.998 1.897-.892 3.528-.79 4.289.27.194.27.486 1.277.653 2.254.465 2.705 1.603 4.015 3.66 4.212 1.59.153 3.195-.887 4.414-2.86 1.248-2.02 2.756-1.54 3.658 1.165.801 2.405 1.94 3.51 3.612 3.504 1.649-.006 3.168-1.118 4.12-3.015.594-1.184.948-1.522 1.59-1.522.892 0 1.636.883 2.027 2.405.385 1.502 1.207 2.934 1.975 3.44.394.26.77.312 1.69.229 2.078-.187 3.523-1.378 4.75-3.914.699-1.446 1.533-1.933 2.67-1.557.6.198.774.43 1.544 2.046 1.03 2.16 1.958 3.114 3.471 3.568 1.334.4 1.862.385 2.874-.076 1.046-.476 1.926-1.67 2.23-3.023.125-.563.303-1.212.39-1.428.09-.22.267-.676.403-1.033.264-.695.958-1.24 1.58-1.24.633 0 1.283.865 1.553 2.067.211.94.373 1.198 1.057 1.695 1.344.975 1.654.804 2.653-1.47.471-1.07.86-1.987.86-2.028 0-.042-.253.206-.573.563-.477.531-.714.639-1.409.639-.639 0-.922-.107-1.202-.451-1.013-1.246.216-2.992 1.888-2.683.774.143 1.055.41 1.264 1.199.125.47.26.216.99-1.87.467-1.333 1.06-2.665 1.324-2.977l.479-.563-.31-1.503c-1.654-8.022-7.606-15.234-14.342-17.376Zm84.653 56.619c-.313-.376-.863-.385-1.16-.019-.02.024-.038.04-.054.056l-.014.014c-.203.217-.243.842-1.82 19.561-.879 10.419-1.563 18.518-2.09 24.818l-.147 1.751c-1.067 12.775-1.429 17.512-1.447 19.326v.225c.006.868.113.905.26.985l.036.02a.467.467 0 0 1 .056.041c.507.424.987-.277 1.128-1.648.252-2.45 1.263-14.1 2.328-26.726l.091-1.084.046-.544.137-1.635.046-.545.137-1.639.182-2.18.09-1.085c.211-2.529.417-5.021.614-7.412a9087.853 9087.853 0 0 1 1.71-20.655c.086-.94.049-1.412-.129-1.625Zm-98.76 45.945c-.711-.11-.7-.127-.424.662.126.357.354.626.538.634.911.04 5.54.438 13.449 1.155l1.32.12 1.32.12 1.319.117c9 .807 17.712 1.553 22.751 1.947 3.457.27 4.14.28 4.28.059.284-.451.187-.958-.185-.958-.022 0-.082-.004-.178-.01l-.17-.014c-.908-.07-3.44-.295-6.301-.559-3.479-.32-9.28-.811-12.924-1.093-1.443-.111-2.93-.228-4.424-.348l-1.12-.09c-6.163-.497-12.256-1.022-15.55-1.344-1.69-.165-3.348-.344-3.7-.398Zm-.779-4.156c-.45-.066-.836-.062-.836.01 0 .412.483 2.008.64 2.11.103.07 1.126.184 2.29.258l.205.013c2.465.16 7.81.58 13.412 1.045l.963.08.482.04.965.082.481.04.96.082c1.596.137 3.163.272 4.641.403 1.777.158 3.732.325 5.714.492l.794.066 1.191.099.792.065c6.187.509 11.944.948 12.604.948h.1c.476-.008.5-.085.5-.79 0-.62-.074-.786-.347-.779-.191.005-5.137-.434-10.998-.977-1.507-.14-3.142-.29-4.804-.443l-1.11-.102c-4.446-.408-8.912-.815-11.442-1.042-3.682-.33-8.883-.822-11.533-1.09-2.649-.268-5.205-.543-5.664-.61Zm-1.108-3.926c-.62-.085-.742-.05-.658.187.035.099.09.313.144.55l.062.293.028.144c.156.832.02.798 4.528 1.102 1.735.117 11.928 1.008 22.635 1.978 10.707.971 19.665 1.766 19.892 1.766.38 0 .402-.065.272-.836-.076-.45-.15-.846-.163-.858-.026-.026-2.983-.298-12.75-1.171-7.176-.642-26.43-2.404-30.167-2.76a171.68 171.68 0 0 1-3.823-.395Zm84.466-41.292h-.023a.411.411 0 0 1-.065.018l-.135.027c-.108.02-.25.045-.401.068-.357.056-.577.234-.639.517-.052.238-.41 3.222-.798 6.64a1790.53 1790.53 0 0 1-1.376 11.732c-2.182 17.94-3.08 26.077-2.942 26.638.154.62.66.787 1.084.357.283-.288.655-2.686 1.938-12.492 2.772-21.19 4.16-32.074 4.16-32.612 0-.3-.156-.591-.385-.714-.206-.11-.41-.193-.441-.178Zm231.76-190.749c-.16.005-1.53.857-3.052 1.897-1.519 1.04-8.396 5.661-15.29 10.276l-2.424 1.625-.982.658c-1.64 1.1-3.302 2.216-4.96 3.331l-.995.669-.992.667c-9.743 6.557-19.017 12.84-22.744 15.419-1.56 1.078-3.296 2.159-3.888 2.419l-1.071.47-.507-.403c-.593-.47-.59-.819.021-2.829.541-1.777.491-6.142-.094-8.284-.734-2.686-2.94-6.667-3.928-7.09-.284-.122-.46.257-1.087 2.746l-.12.476-.199.806c-.882 3.588-1.686 7.967-1.977 10.764-.079.761-.233 2.27-.392 3.835l-.068.672a2701.15 2701.15 0 0 0-.185 1.842l-.102 1.052c-.498 5.263-.835 10.5-.841 13.207-.004 1.465-.095 3.463-.203 4.433-.223 2.008-.68 7.947-1.016 13.225-.294 4.602-.29 21.19.005 27.033.127 2.498.535 7.073.907 10.154a939.057 939.057 0 0 1 1.347 11.886l.08.742.079.743c.199 1.85.39 3.613.494 4.569.16 1.465.376 3.577.48 4.706.103 1.127.22 2.081.26 2.122.081.082 3.79.38 7.524.64l.7.047c3.025.206 5.919.376 6.749.373 1.747-.006 2.606-.36 4.057-1.67 1.825-1.648 3.732-4.743 4.45-7.223.178-.612.414-2.16.528-3.457.035-.398.076-.85.12-1.315l.067-.7c.079-.814.158-1.6.217-2.136.109-.996.176-2.321.15-2.96a9.836 9.836 0 0 1-.006-.312v-.285c.003-.992.05-2.796.119-4.521.087-2.18.104-4.184.037-4.452-.12-.482-.16-.49-2.695-.61-1.428-.069-2.808-.236-3.1-.377-.51-.246-.532-.328-.76-2.827-.312-3.428-.577-8.059-1.168-20.42-.272-5.692-.672-13.987-.889-18.429-1.2-24.598-1.295-27.15-.737-28.01l.037-.053.038-.05.04-.046c.48-.545 1.512-.432 2.064.225.4.475.493.855.596 2.414.067 1.019.39 5.533.719 10.041.29 3.973.759 10.73 1.232 17.68l.195 2.88c.52 7.672 1.015 15.142 1.249 18.927.046.752.101 1.586.16 2.435l.06.853c.132 1.848.274 3.667.376 4.78.166 1.804.301 3.693.301 4.2v.92l35.05-.131c19.273-.073 35.085-.162 35.127-.198.041-.036-.068-1.07-.245-2.31-.176-1.24-.319-2.598-.319-3.034 0-.428-.175-1.885-.395-3.43l-.084-.583a67.924 67.924 0 0 0-.505-3.05c-.11-.55-.46-2.762-.782-4.941-.32-2.167-.937-6.397-1.37-9.384-.434-2.987-1.192-7.5-1.682-10.012-.491-2.518-.989-5.572-1.108-6.791-.237-2.443-.84-6.112-1.304-7.928a71.507 71.507 0 0 1-.657-2.968c-.14-.7-.384-1.757-.658-2.87l-.151-.61c-.46-1.836-.958-3.673-1.155-4.185-.12-.312-.428-1.409-.69-2.46-.89-3.57-2.234-5.804-4.993-8.297-1.428-1.29-3.72-2.58-4.583-2.58-1.203 0-1.64-1.395-.677-2.158.421-.333.808-.416 1.935-.416 4.283 0 8.174 2.49 10.183 6.518.513 1.03 1.257 2.856 1.645 4.04.424 1.291 1.127 3.984 1.802 6.782l.212.885c.736 3.1 1.399 6.163 1.572 7.436.066.48.287 1.56.486 2.367.346 1.407.837 4.246 1.481 8.566.163 1.087.51 3.213.774 4.734.264 1.522.846 5.242 1.296 8.285A792.107 792.107 0 0 0 569.59 193l.12.715c.642 3.813 1.242 7.508 1.379 8.498.15 1.087.42 2.921.6 4.086.182 1.164.28 2.476.221 2.92-.244 1.823-2.147 3.532-3.93 3.532-.526 0-.94.054-.94.123 0 .067.3.93.668 1.925.827 2.236 1.29 4.447 1.299 6.2.003.736.136 2.094.297 3.033.166.968.28 2.668.263 3.945-.015 1.236.04 3.795.122 5.692.092 2.102.055 5.758-.093 9.365l-.04.942c-.12 2.92-.23 5.667-.256 6.347-.536 14.408-2.422 21.468-7.406 27.728-4.443 5.579-11.457 10.264-16.98 11.343-.902.176-2.37.487-3.231.685-2.094.482-7.439.745-15.13.76h-1.017a436.426 436.426 0 0 1-4.891-.034c-8.941-.109-12.66-.28-22.353-1.031-5.541-.43-16.495-1.563-18.972-1.964l-.639-.104-.006 1.334c-.006 1.206.416 10.854.933 21.42l.045.907.045.912.045.913.023.457c.168 3.363.36 8.323.427 11 .084 3.324.191 4.877.339 4.884.119.005 1.361.094 2.77.199 11.77.875 35.201.822 49.214-.11.576-.038 1.16-.08 1.748-.124l.707-.055c5.54-.434 11.154-1.08 12.009-1.406.198-.076 1.236-2.296 2.243-4.695l.207-.499c.413-1 .81-2.006 1.13-2.882.399-1.09.901-2.46 1.124-3.062.832-2.254 1.18-2.63 2.02-2.177.925.497 2.916 5.484 4.456 11.157.234.864.495 1.714.575 1.878.674 1.376 7.367 2.16 15.18 1.779 13.412-.655 27.187-2.877 38-6.131 5.016-1.509 7.16-2.407 8.303-3.477l.808-.756.15-5.71c.592-22.565-3.25-52.262-10.054-77.717-7.245-27.108-18.252-54.801-30.567-76.908-7.22-12.962-15.478-25.033-22.683-33.157-5.542-6.25-9.146-9.686-15.438-14.72-2.141-1.714-4.039-3.122-4.198-3.117Zm-74.9 177.89c-.153 0-.243.283-.24.752.008 1.562.413 7.89.88 13.751.267 3.365.755 9.637 1.083 13.92.636 8.341 1.094 11.4 1.822 12.174 1.199 1.274 3.067 1.98 6.373 2.407l.202.026.41.055a61.75 61.75 0 0 1 1.623.236l.657.112-.122-2.724c-.049-1.096-.139-3.37-.226-5.701l-.027-.737-.066-1.809c-.06-1.701-.156-4.23-.257-6.813l-.043-1.108c-.065-1.66-.13-3.296-.188-4.703l-.17-4.15-.044-1.106c-.112-2.77-.222-5.544-.293-7.368-.12-3.043-.275-5.573-.348-5.635-.072-.062-2.526-.442-5.457-.846l-.282-.038c-2.807-.386-5.157-.694-5.287-.694Zm-278.997-15.676c.44-.334.751-.352 1.277-.073.678.36.735.928.266 2.637-.793 2.892-1.138 5.993-1.114 10.013.049 8.116 1.528 17.635 3.945 25.398 1.908 6.125 4.86 12.1 7.39 14.954.966 1.09 1.146 1.76.615 2.292-.602.601-1.173.357-2.406-1.034-1.265-1.426-3.48-4.546-4.762-6.706-2.373-3.998-5.124-11.872-6.525-18.673-1.327-6.443-1.644-12.675-.969-19.03.473-4.452 1.595-9.257 2.283-9.778Zm-4.626 6.265c.296-.356.502-.32.639.113.11.351.014 1.428-.516 5.748-.352 2.866-.296 10.05.103 13.432.434 3.663 1.3 7.981 2.184 10.896 1.929 6.35 5.224 12.674 8.477 16.268.714.79 1.309 1.618 1.309 1.822 0 .498-.507.977-1.033.977-.755 0-3.579-3.362-5.412-6.443-5.194-8.731-8.535-23.238-7.773-33.758.293-4.058 1.184-8.046 2.022-9.055Zm-3.592 5.861c.271 0 .366.207.432.94.08.894-.352 4.846-.785 7.176-.924 4.978-1.625 10.772-1.62 13.394.007 2.968.721 5.801 1.892 7.495.714 1.034.833 1.547.447 1.926-.254.249-.939.308-1.427.122-.484-.184-1.434-1.841-1.96-3.419-1.459-4.376-1.507-13-.11-19.781.653-3.175 1.84-6.662 2.59-7.608.105-.132.353-.245.54-.245Zm305.814 19.2c.484-.736 2.142-.546 2.78.319.944 1.277.09 4.753-1.168 4.753-.62 0-1.472-1.053-1.823-2.255-.352-1.202-.288-2.06.211-2.818Zm-157.9-46.746c-1.86-.056-3.758.574-5.316 1.765-5.58 4.264-9.563 14.022-9.727 23.828l-.04 2.404 2.47 1.428c.922.533 2.79 1.636 4.775 2.818l.63.375c.737.44 1.479.883 2.183 1.306 2.818 1.69 5.14 3.055 5.165 3.034.027-.02.186-1.221.357-2.686 1.212-10.389 5.534-23.366 9.792-29.4l.756-1.07-.564-.358c-.487-.308-.704-.326-1.606-.131-.582.126-1.465.175-2 .112-1.296-.153-3.515-1.356-4.538-2.46l-.853-.92Zm228.425-41.792h-2.384a3328.537 3328.537 0 0 0-25.584.145l-.918.007c-6.864.058-13.257.108-15.363.121l-4.678.028v5.054c0 5.485-.258 9.933-.72 12.417-.162.868-.415 2.33-.564 3.25-1.049 6.48-5.938 12.7-10.85 13.8-1.252.281-7.157-.026-13.017-.676-2.39-.265-7.176-.617-10.65-.784-4.165-.199-8.557-.414-12.932-.632l-1.311-.065c-13.107-.656-25.841-1.327-31.609-1.672-3.194-.192-6.737-.387-10.323-.57l-2.393-.12c-.798-.04-1.595-.078-2.386-.115-1.225-.058-2.743-.14-4.298-.229l-.623-.036a701.83 701.83 0 0 1-.312-.018l-.622-.037c-3.308-.197-6.39-.404-6.75-.465l-.563-.097.132 1.531c.072.842.436 5.176.81 9.628.594 7.1 1.253 13.442 1.597 15.385.106.6.157.628 1.622.864.826.134 2.048.371 2.695.524 15.027 3.544 33.771 7.461 46.058 9.625 25.396 4.473 45.957 6.712 68.242 7.433 2.229.072 4.645.105 7.084.105l1.045-.003c.35-.001.698-.003 1.046-.006l1.042-.01c6.413-.077 12.478-.377 15.123-.812 3.944-.649 8.364-2.44 12.153-4.924 2.61-1.713 6.239-5.254 7.661-7.48 1.658-2.592 4.36-10.114 4.36-12.135 0-.422.14-1.822.31-3.1.17-1.277.306-2.952.301-3.71-.004-.567.09-1.916.224-3.332l.056-.568c.029-.284.059-.567.09-.843.446-3.95.695-10.48.71-16.338v-1.124c-.01-4.086-.14-7.726-.402-9.758-.727-5.655-1.378-7.983-2.61-9.337l-.82-.902-9.335-.018-.344-.001ZM238.4 270.385c.132-.047.934.433 1.07.64.239.362.17 1.296-.139 1.897-.416.808-1.23 1.371-1.983 1.371-.82 0-1.258-.45-1.258-1.296 0-1.183.772-2.21 1.878-2.495.207-.054.401-.106.432-.117Zm139.33-30.33h-.961l-.643.001c-2.457.01-4.81.05-5.75.122-8.416.65-12.243 1.454-16.53 3.47-3.438 1.618-6.213 4.074-7.35 6.506-.528 1.13-.615 1.54-.62 2.912-.009 3.057 1.302 6.518 3.786 9.994 1.504 2.104 4.98 6.011 5.348 6.011.155 0 .553-.526.882-1.165.646-1.252.653-1.352.402-5.09-.141-2.105-.122-2.368.2-2.725.695-.766 1.76-.375 2.048.752.103.4.289 1.54.411 2.517.405 3.231 1.409 6.404 2.312 7.308.468.468 1.36.357 1.816-.226.659-.844 1.228-2.648 1.392-4.414.129-1.39.228-1.73.587-2.018.6-.48 1.323-.44 1.878.108.448.442.485.545.488 3.172v.858c.008 3.093.13 3.801.78 4.85.526.85 1.249 1.149 2.226.923 1.747-.405 2.389-1.262 3.629-4.85.714-2.066.947-3.026.926-3.813-.033-1.278.38-1.804 1.418-1.804.868 0 5.73 1.055 7.363 1.598.677.225 1.274.38 1.315.341a.497.497 0 0 0 .01-.14v-.158c-.011-1.018-.178-4.486-.373-7.913l-.035-.622-.036-.618a351.977 351.977 0 0 0-.251-3.928c-.12-1.691-.343-4.997-.498-7.383-.156-2.386-.332-4.37-.395-4.432-.092-.09-2.801-.14-5.774-.144ZM224.63 269.372c.566 0 1.175.582 1.377 1.315.362 1.315-.166 2.646-1.189 2.994-.488.167-.668.125-1.117-.261-.473-.406-.536-.601-.536-1.653s.068-1.264.573-1.794c.322-.338.713-.601.892-.601Zm27.988-1.87c-.072-.566-.086-.554-.338.292a32.83 32.83 0 0 1-.626 1.789l-.184.488c-.255.672-.548 1.421-.854 2.184l-.231.573-.321.789.61-.695c.769-.877 1.469-2.348 1.777-3.738.134-.601.209-1.355.167-1.682Zm-40.188 1.268c.583 0 .833.11 1.069.47.75 1.146.46 2.918-.59 3.603-.99.646-2.202-.278-2.411-1.837-.09-.676-.015-.892.533-1.512.536-.607.76-.724 1.4-.724Zm-11.373-1.59c.695-.426 1.89-.499 2.248-.138.694.7-.088 2.57-1.347 3.217-1.202.618-2.367.144-2.367-.963 0-.579.77-1.692 1.466-2.117Zm187.472-28.673c-.563-.108-.758-.052-1.094.32-.54.594-.718 2.31-.47 4.526.09.818.28 3.664.441 6.594l.035.652.017.325.1 1.863.064 1.142c.134 2.407.273 4.728.353 5.871a92.499 92.499 0 0 1 .196 5.855v.465c.006 1.738.076 2.047.42 2.575.745 1.146 2.856 1.657 3.873.939.395-.279.437-.431.34-1.22-.107-.859-.72-9.9-1.405-20.74l-.019-.295-.036-.591c-.141-2.365-.247-4.673-.243-5.37v-.192c-.01-1.362-.246-1.727-1.38-2.322-.277-.145-.816-.325-1.192-.397Zm-233.512-69.434c-1.916-.291-7.808-.577-8.471-.411-.167.041-1.118.184-2.132.319-1.015.135-1.957.341-2.113.461-.38.292-1.225 4.517-1.507 7.523-.138 1.472-.183 4.33-.118 7.561l.103 5.194-.47.441c-.542.51-1.277.705-2.648.705-.51 0-1.615.176-2.48.395-3.662.926-6.386 3.057-6.386 4.997 0 1.072 3.193 3.163 5.73 3.751.713.166 1.352.44 1.507.645.282.377.275.507-.154 2.93-.164.927-.208 2.574-.133 4.94.094 2.95.2 3.901.63 5.618 1.96 7.833 5.133 13.9 9.656 18.466 6.381 6.442 12.611 7.608 20.37 3.815 2.122-1.038 2.637-1.392 4.15-2.857.958-.927 1.93-1.726 2.18-1.794.696-.188 1.427.404 1.427 1.155 0 .525-.216.84-1.212 1.766-.657.612-1.65 1.426-2.17 1.78-1.05.717-1.115.848-.659 1.357.092.103.372.618 1.102 2.079l.126.252c1.344 2.698 4.066 8.287 9.501 19.48.355.73.645 1.327.887 1.815l.172.347c.904 1.8 1.06 1.87 1.636 2.027.412.112 1.22.206 1.765.206.808 0 1.096-.095 1.466-.488.58-.615 3.446-2.022 5.963-2.929 1.346-.484 4.888-1.433 8.341-2.265l.794-.189c1.45-.343 2.851-.656 4.033-.897 2.558-.52 5.165-.937 8.17-1.304 3.157-.386 3.68-.555 6.8-2.187 2.612-1.365 4.968-2.998 6.725-4.658 1.672-1.58 2.508-2.983 2.696-4.526l.122-.995-1.221-.259c-6.578-1.394-13.47-9.378-17.53-20.312a74.443 74.443 0 0 1-.726-2.055l-.192-.577a34.002 34.002 0 0 1-.496-1.613 69.54 69.54 0 0 0-.516-1.86c-.06-.178-.356.113-.805.789-1.571 2.367-2.618 2.921-3.582 1.897-.65-.69-.542-1.202.656-3.1 2.252-3.569 3.13-6.307 3.13-9.768 0-3.531-.743-5.583-2.367-6.537-.762-.447-1.033-.499-2.292-.432-1.22.064-1.563.169-2.367.724-1.785 1.234-2.525 2.45-4.266 7.015-1.748 4.584-1.86 4.931-2.86 8.81a68.781 68.781 0 0 1-1.608 5.204c-.505 1.39-1.088 3.08-1.292 3.739-.673 2.179-2.22 3.418-2.767 2.217-.168-.371-.094-.696.418-1.823.93-2.044 1.193-3.419 1.32-6.875.214-5.855-.772-11.723-3.179-18.899-1.833-5.466-4.3-10.422-7.632-15.329-2.245-3.306-3.899-5.313-6.674-8.096l-.444-.445c-1.739-1.736-2.143-2.058-3.329-2.575l-.3-.13-.164-.068c-4.64-1.939-10.093-3.526-14.314-4.167Zm345.93 83.748c.328-.613 1.234-.52 2.83.292 1.776.901 3.231 1.89 5.692 3.87 2.066 1.66 2.348 1.996 2.348 2.789 0 .678-.488 1.108-1.258 1.108-.501 0-.996-.301-2.292-1.397-2.198-1.857-4.352-3.477-5.973-4.49-1.409-.882-1.745-1.425-1.346-2.172Zm-47.444-36.829c-.545-.066-1.05-.044-1.104.047-.119.204-.777 2.221-1.414 4.287l-.158.517a139.77 139.77 0 0 0-.65 2.184c-.963 3.363-1.198 4.003-1.549 4.222-.292.183-2.724-.01-6.048-.48-.899-.126-6.283-.332-11.837-.483l-1.25-.033a476.339 476.339 0 0 0-8.609-.156c-2.437-.014-9.091.089-14.783.229-15.904.392-21.525.528-26.862.948l-.5.04c-2.831.234-5.67.552-10.018 1.037-5.334.595-14.7 1.889-17.863 2.467-.926.17-2.686.481-3.945.699-1.157.2-2.968.593-4.843 1.035l-.805.192c-2.552.614-5.063 1.279-6.054 1.633-6.574 2.35-10.168 8.422-8.606 14.537.447 1.747.804 2.511 1.687 3.607.744.923 2.599 1.986 3.8 2.178l.828.133-.15-.667c-.083-.366-.151-1.738-.151-3.034 0-2.01.065-2.509.433-3.307.467-1.014.906-1.323 1.426-1.004.259.159.342.723.435 2.94.13 3.099.576 4.86 1.511 5.973l.553.658.958-.609c1.127-.715 1.784-.937 3.287-1.107l1.108-.125.104-2.104c.076-1.56.23-2.45.593-3.438 1.748-4.763 5.953-8.248 12.565-10.417 5.612-1.84 13.242-2.64 20.868-2.188 2.255.135 4.763.374 5.58.533 1.953.381 3.227.372 3.558-.026.481-.58 1.457-.932 2.546-.921 1.358.014 2.48.415 3.945 1.413l1.127.766 4.517.226 11.654.584.882.044.884.045a74714.128 74714.128 0 0 1 3.27.164l3.833.192c19.788.99 38.926 1.917 40.985 1.983l1.578.05.071-4.922c.063-4.348-.035-7.984-.48-17.77l-.117-2.593-2.893-.029c-1.596-.015-3.343-.082-3.897-.15Zm50.675 32.095c.557-.583 3.788.398 8.841 2.685 3.795 1.717 4.903 2.524 4.903 3.571 0 .338-.14.74-.32.92-.424.425-1.338.376-1.76-.093-.467-.52-6.88-3.867-9.453-4.935-2.198-.911-2.461-1.077-2.461-1.546 0-.188.111-.455.25-.602Zm-34.772-123.74c.013-.706-2.368 1.69-3.885 3.907-3.228 4.72-6.119 11.233-8.443 19.03-3.924 13.16-6.344 27.295-7.429 43.394-.156 2.322-.242 7.728-.25 12.538v1.457c.007 4.053.074 7.364.206 7.496.123.123 2.123.287 4.921.404 2.592.109 4.94.248 5.213.31l.498.113-.076-11.215-.008-1.323-.006-1.986v-1.325l.002-1.324c.002-.882.006-1.763.012-2.641l.01-1.316c.135-15.545.81-30.102 1.747-36.317.618-4.095 1.5-7.495 2.167-8.34.474-.602 1.183-.698 1.655-.226.333.332.322.488-.16 2.273-.392 1.452-.621 3.344-1.086 8.96-1.312 15.873-1.705 28.01-1.548 47.735.075 9.38.158 14.064.406 18.71l.036.648c.104 1.84.235 3.707.402 5.89.324 4.227.544 6.385.9 8.81l.224 1.522.948-.01c.382-.003 1.245.053 2.151.136l.497.048c.165.016.329.034.49.052 1.202.134 2.217.21 2.253.169.036-.042-.096-1.503-.291-3.231l-.115-1.021-.114-1.02c-.737-6.631-1.39-13.107-1.63-16.2-.024-.318-.05-.647-.078-.98l-.084-1.004c-.123-1.447-.252-2.83-.331-3.54-.1-.892-.255-3.74-.388-6.802l-.034-.802c-.13-3.084-.231-6.229-.231-7.687 0-4.147.142-11.092.349-18.166l.068-2.275c.189-6.06.419-12.005.642-16.153.975-18.147 3.185-33.569 5.336-37.233.21-.357.386-.71.386-.77 0-.063-.507-.071-1.127-.02-1.033.087-1.19.166-1.872.959-1.119 1.297-2 4.264-1.913 6.443.061 1.54-.323 2.088-1.4 1.995-.563-.049-.763-.192-1.055-.755-.798-1.543.01-6.2 1.444-8.303.32-.47.59-.933.59-1.015Zm-241.3 111.68c-.187 0 .132 1.277.468 1.879.828 1.478 3.1 2.451 5.054 2.164l.92-.136-.976-.425c-1.322-.574-2.593-1.352-4.095-2.503-.695-.533-1.32-.98-1.372-.98Zm249.855-1.428c.525-.775 1.388-.732 1.89.094.788 1.296.733 3.978-.098 4.81-.6.6-1.18.431-1.814-.527-.448-.678-.489-.901-.421-2.291.052-1.071.187-1.707.443-2.086Zm-252.147-5.673.327.639c1.022 1.991 2.386 2.911 4.312 2.911 1.334 0 2.487-.476 3.367-1.39l.578-.6-.592.159c-.327.088-1.427.16-2.46.16-1.841 0-1.897-.015-3.7-.94l-1.832-.939Zm-12.022-15.085v.714c0 .763 1.23 5.147 2.07 7.383.23.609.659 1.639 1.114 2.693l.196.452c.72 1.654 1.442 3.229 1.485 3.186.03-.031-.372-1.344-.892-2.903-.524-1.572-1.327-4.367-1.794-6.246-.687-2.762-.97-3.577-1.512-4.34l-.667-.939Zm-57.009-5.764c.985-.774 1.896.166 1.727 1.782-.536 5.104-7.268 11.513-13.035 12.408-2.705.42-4.696-.415-4.099-1.72.235-.512.493-.604 2.146-.764 2.514-.244 6.517-2.617 9.58-5.679 1.972-1.972 2.688-3.09 2.697-4.208.004-.6.426-1.38.984-1.819ZM200.09 119.8c.226-.59-.217-.388-1.644.752-1.841 1.47-2.8 2.955-2.8 4.339 0 .413-.15.83-.385 1.07-.402.413-.572.45-3.615.808-4.826.566-12.21 2.987-19.16 6.283-8.114 3.847-16.024 9.789-22.147 16.636-1.713 1.916-2.501 2.641-3.38 3.11-2.108 1.124-3.613 3.108-4.765 6.283-1.187 3.269-1.428 6.28-.57 7.139.46.459 1.372.485 3.25.09 2.413-.505 7.833-.32 12.078.413 9.109 1.573 18.333 5.49 27.857 11.83 7.476 4.978 13.254 10.183 18.484 16.653l1.351 1.672 1.24.14c1.634.184 2.72.745 3.947 2.039 1.214 1.28 1.908 2.743 2.228 4.696.22 1.346.322 1.531 2.269 4.124 1.114 1.484 2.28 3.11 2.573 3.588.295.482 1.376 2.122 2.413 3.663l1.879 2.79.95-1.052c2.234-2.477 5.05-7.515 6.218-11.121 3.3-10.194 3.264-25.624-.09-39.056-1.815-7.27-4.918-15.112-8.345-21.096-1.389-2.423-3.826-6.145-4.7-7.176l-.589-.695-.507.6c-.282.335-1.061.902-1.756 1.278-1.13.612-1.4.676-2.827.676-1.803 0-2.64-.318-3.813-1.451-.648-.626-.808-.686-1.728-.642-1.146.055-1.545-.106-2.611-1.05-.389-.344-1.296-.847-1.991-1.102-2.898-1.066-4.673-4.208-4.161-7.364.192-1.184.587-1.867.949-1.64.103.065.193.72.199 1.452.016 1.86.796 3.78 2.045 5.035.99.995 1.673 1.251 1.451.544-.165-.525.057-1.183.4-1.183.155 0 .595.658.98 1.465.736 1.54 1.821 2.668 2.57 2.668.389 0 .401-.057.214-.977-.23-1.127-.022-1.505.433-.79.646 1.015 2.33 2.477 3.128 2.715 2.498.747 5.04-.478 6.176-2.977.624-1.371.667-1.967.185-2.574-.523-.657-.369-1.184.307-1.054.53.102.695-.148.695-1.05 0-1.39-1.053-2.726-2.31-2.93-.827-.134-.987-.534-.357-.887a3.44 3.44 0 0 1 .432-.221c.121 0-.415-2.255-.638-2.687-.157-.303-.686-.82-1.193-1.165-.846-.575-.905-.67-.827-1.315l.085-.695-1.296.113c-.714.062-1.853.304-2.536.539-1.447.497-1.703.39-1.417-.595.109-.376.17-.702.14-.733-.12-.119-3.175.937-3.908 1.35-1.226.691-1.627.21-1.06-1.275Zm275.493 91.733c.31-.203.338-.198 1.014.214.412.25.724.704.99 1.437 1.327 3.663-1.062 6.565-2.614 3.174-.426-.931-.48-1.258-.376-2.254.12-1.146.559-2.291.986-2.57Zm-314.855-5.722c1.052-.731 1.646.159 3.63 5.438 1.244 3.306 1.3 3.897.408 4.304-.972.444-1.414-.19-2.92-4.192-1.584-4.208-1.765-5.101-1.118-5.55Zm31.456-15.94c-.867-1.315-1.842-2.553-1.85-2.349-.001.062.403 1.221.9 2.574 1.116 3.043 2.103 6.45 2.51 8.66.613 3.325.967 7.316.822 9.262-.077 1.033-.09 1.827-.027 1.765.061-.061.305-.995.54-2.066.658-3.013.62-7.063-.097-10.445-.641-3.024-1.623-5.62-2.798-7.401Zm-34.687-37.826c5.962-.527 11.665.041 18.577 1.85 19.911 5.209 38.45 20.672 45.201 37.704 1.4 3.532 3.111 10.515 2.74 11.177-.286.508-1.117.395-1.38-.187-.145-.32-.384-.489-.69-.489-.267 0-.686-.212-.968-.488-.47-.461-.526-.47-.996-.16-.45.298-.527.299-.807.01-.285-.294-.251-.386.422-1.137.522-.583.706-.939.639-1.24-.051-.23-.205-.986-.338-1.663-.133-.676-.3-1.23-.367-1.22-.066.01-.544.544-1.058 1.183-.952 1.183-1.461 1.425-1.905.902-.191-.226-.095-.47.48-1.221.922-1.203 1.685-2.7 1.685-3.307 0-.375-.892-2.837-1.11-3.062-.03-.03-.396.601-.806 1.39-.41.79-1.212 1.925-1.765 2.499-.834.864-1.115 1.04-1.578.985-.895-.106-.827-.658.206-1.677 1.076-1.06 2.483-3.76 2.615-5.019.08-.774-.033-1.07-1.094-2.855-3.003-5.05-7.832-10.632-13.035-15.069-1.465-1.249-1.697-1.383-1.875-1.087-.563.94-.874 1.185-1.224.967-.52-.322-.517-.535.011-1.305l.477-.695-.977-.727c-1.39-1.035-1.464-1.042-1.91-.175-.666 1.296-1.586 2.423-1.978 2.423-.567 0-.629-.47-.156-1.183 1.218-1.841 1.682-2.647 1.6-2.78-.13-.214-2.24-1.506-4.476-2.788l-.747-.426a80.31 80.31 0 0 0-3.34-1.806c-2.95-1.472-6.754-3.057-9.185-3.827l-.19-.06-.385-.121-1.342-.422c-.502-.156-.573-.112-.918.564-.653 1.277-.996 2.536-1.03 3.776-.037 1.315-.375 1.859-.852 1.371-.4-.409-.073-2.987.579-4.565.28-.676.533-1.325.557-1.427.04-.163-.947-.484-2.336-.76-.557-.11-.662-.048-1.024.61-.218.394-.473 1.053-.554 1.427-.166.77-.464 1.05-.808.757-.273-.232-.048-1.227.537-2.372l.365-.714-.639-.113a61.587 61.587 0 0 0-1.55-.244l-.91-.132-.696 1.259c-.588 1.063-1.306 3.193-1.804 5.354-.1.432-.231.548-.562.498-.37-.057-.426-.179-.384-.855.077-1.259 1.012-4.252 1.654-5.298.324-.526.547-1 .495-1.05-.134-.131-1.925-.205-3.942-.211h-.53c-1.6.005-3.262.052-4.3.147-3.005.274-3.838.149-4.082-.614-.414-1.291.814-2.042 3.763-2.302Zm-5.748 32.99c1.714-.338 5.579-.225 7.4.215 2.386.577 4.72 2.268 5.704 4.132 1.116 2.114-.237 4.222-3.787 5.904-6.763 3.204-16.456.312-16.074-4.795.197-2.626 2.718-4.662 6.757-5.457Zm30.693-3.235c-.39-.207.391 1.665 2.75 6.587.566 1.183 1.466 3.296 2.012 4.724.544 1.428 1.017 2.617 1.055 2.658.088.096-.057-1.052-.332-2.63-.343-1.966-3.084-8.19-4.542-10.313-.31-.45-.738-.917-.943-1.026Zm-23.48 5.677c-1.452-.503-4.395-.635-6.255-.28-.779.149-2.048.565-2.837.93-2.836 1.312-3.379 3.534-1.22 4.995l.23.154c.744.487.816.418.584-.25-.749-2.155 1.778-4.384 4.22-3.722 1.07.29 2.306 1.495 2.45 2.389.142.883-.332 1.939-1.192 2.657l-.62.518 1.879-.1c3.813-.201 7.012-2.282 6.635-4.315-.224-1.21-1.413-2.124-3.874-2.976Zm315.513 1.462c.511-.389 1.033-.29 1.634.312.636.636.895 1.822.742 3.4-.124 1.277-.587 1.807-1.512 1.731-.932-.076-1.5-.923-1.676-2.501-.143-1.278.184-2.465.812-2.942ZM147.34 172.644c.438-.56.333-.557 3.827-.098 3.57.468 11.401 3.495 14.99 5.793.581.373 1.458 1.06 1.962 1.538.77.73.911.977.911 1.596 0 .658-.073.764-.714 1.032-.957.4-2.63.217-5.729-.629-6.78-1.85-14.323-5.57-15.366-7.579-.39-.751-.37-1.027.12-1.653Zm71.674 1.879c.285-.4.986-.188 1.058.32.255 1.803-2.746 4.798-4.27 4.26-.376-.131-.526-.321-.526-.663 0-.384.132-.506.657-.61.766-.154 2.008-1.297 2.531-2.33.2-.395.446-.832.55-.977Zm255.573-5.842c.526-.369.6-.365 1.109.058.442.368 1.014 2.252 1.014 3.342 0 1.502-.88 2.497-1.784 2.014-.546-.291-.737-.718-.99-2.202-.262-1.54-.019-2.742.651-3.212Zm-264.345-24.074c.142-.17.323-.243.432-.175.397.247.973 1.987 1.454 4.392.406 2.03.505 3.128.528 5.852.015 1.84-.04 3.548-.123 3.785-.124.358-.037.48.508.708.826.346 1.851 1.49 2.027 2.26.113.497.245.598.903.687 1.014.138 1.868.779 2.391 1.793.592 1.148.689 3.513.222 5.448-.389 1.615-.812 2.102-1.354 1.559-.291-.29-.292-.413-.006-1.371.386-1.297.408-3.912.04-4.79-.314-.752-1.235-1.552-1.687-1.466-.2.037-.346.376-.437 1.014-.2 1.41-.286 1.552-.897 1.476l-.545-.067.068-1.615c.104-2.499-.403-3.504-2.04-4.042-.733-.242-.785-.31-.733-.946.031-.375.105-2.282.163-4.217.11-3.607-.064-5.396-.841-8.66-.25-1.052-.266-1.396-.073-1.625Zm264.162 5.081c.53-1.004 1.677-.808 2.084.357.367 1.052.278 3.419-.148 3.945-1.275 1.574-3.007-2.273-1.936-4.302Zm-303.909-11.661c.902-.489 1.749-.491 1.838-.005.04.215-.316.529-1.086.958-.694.387-2.022 1.522-3.363 2.874-1.918 1.936-2.326 2.254-3.033 2.367l-.817.132.884-1.146c.885-1.146 3.325-3.63 4.3-4.378.267-.205.845-.568 1.277-.802Zm360.03-29.592c-.152.01-.863.183-1.558.378-1.337.376-32.478 8.434-45.363 11.738-4.076 1.045-7.49 1.923-7.598 1.954-.109.031.235.247.76.479 2.893 1.276 5.193 3.464 6.567 6.247.887 1.797 1.62 5.635 1.688 8.848l.048 2.273.902-.678c1.356-1.021 6.916-4.931 12.394-8.728l.699-.484c1.046-.724 2.083-1.44 3.08-2.125a3088.066 3088.066 0 0 0 15.477-10.744 4068.91 4068.91 0 0 1 11.13-7.759c1.127-.777 1.93-1.41 1.775-1.4ZM450.019 29.93c-12.585-1.036-25.57 2.609-32.402 9.096-1.522 1.444-3.043 3.434-3.043 3.978 0 .156.271.827.607 1.503.677 1.36 1.388 3.945 1.794 6.519.35 2.217.351 11.309.002 13.6-.63 4.134-1.537 6.785-3.174 9.28-1.34 2.042-2.009 4.134-2.009 6.275 0 2.499 1.179 4.068 3.419 4.552 1.925.416 5.86-.47 7.795-1.754 1.713-1.137 2.325-.731 2.13 1.41-.218 2.386.602 8.962 1.277 10.238.31.589 2.303 1.073 4.332 1.052 1.559-.015 2.166-.119 3.569-.608 3.719-1.297 5.474-3.127 5.991-6.248.243-1.466 1.47-1.981 2.28-.958.567.717.419 1.822-.507 3.775-1.666 3.513-4.684 6.096-8.196 7.015-1.522.398-4.215.313-5.354-.168l-.732-.31.42.827c1.42 2.8 5.192 7.042 7.845 8.825 3.986 2.678 8.17 3.946 12.998 3.94 4.001-.007 6.894-.664 10.406-2.366 4.736-2.294 8.547-6.228 11.04-11.394.589-1.221 1.046-1.914 1.358-2.056 1.192-.547 2.123.534 1.674 1.943-.868 2.724-3.028 6.21-5.388 8.698-.98 1.033-1.603 1.849-1.548 2.029.224.732 4.276 10.82 4.619 11.497.209.413.485.713.615.666.129-.046 2.103-.593 4.376-1.211 1.492-.406 4.161-1.14 6.908-1.9l1.303-.36 2.938-.814a2239.52 2239.52 0 0 1 12.932-3.546l1.166-.316c8.734-2.366 17.143-4.596 20.802-5.505 1.578-.392 2.964-.746 3.1-.79.323-.108-.199-1.272-2.078-4.634-.82-1.466-1.795-3.329-2.164-4.133a50.623 50.623 0 0 0-.344-.74l-.073-.15-.073-.149c-.631-1.262-1.466-2.55-5.395-8.598-2.783-4.283-3.422-5.188-4.798-6.8-2.07-2.424-2.847-3.399-3.916-4.904-.503-.708-2.15-2.48-3.635-3.907l-2.714-2.611-1.014.338c-.845.282-1.143.3-1.785.106-.995-.3-1.54-.855-1.54-1.572 0-.65.77-1.395 1.446-1.4.83-.005 1.99-.873 2.824-2.112.663-.988.847-1.466.958-2.499.343-3.194-1.29-6.074-4.251-7.5-1.185-.57-1.428-.615-3.344-.615-1.559 0-2.303.092-3.033.375l-.968.376.132 1.005c.061.47.152 1.926.218 3.448l.022.539.01.268c.234 6.425-.757 10.176-2.974 11.252-1.029.5-1.54.501-2.63.006-2.693-1.224-5.701-5.697-8.292-12.329-1.534-3.926-3.61-10.857-4.37-14.596l-.317-1.56-1.973-.996c-2.498-1.262-4.26-2.52-6.022-4.3-1.488-1.504-3.508-4.397-4.041-5.787-.315-.821-.362-.854-1.639-1.144-2.056-.467-4.809-.864-7.57-1.091ZM434.39 53.276c1.585-.364 6.274-.242 7.89.206 2.46.681 4.007 1.723 4.664 3.142.81 1.745.388 3.267-1.396 5.048-3.61 3.603-10.538 5.044-16.06 3.34-1.485-.458-2.92-1.382-3.75-2.414-.466-.58-.607-.977-.674-1.897-.074-1.024-.004-1.316.578-2.405.738-1.382 1.91-2.418 3.676-3.249 1.462-.688 3.588-1.43 5.072-1.771Zm3.55 1.703c-2.329.008-3.948.332-6.18 1.24-2.61 1.06-3.75 2.004-4.185 3.467-.195.658-.174.876.147 1.494.217.417.732.933 1.22 1.22l.846.498-.51-.751c-1.256-1.848-.054-4.463 2.182-4.748.958-.122 2.444.498 2.916 1.216 1.015 1.547.352 3.781-1.357 4.572-.638.295 1.099.286 2.942.103l.382-.04c.892-.099 1.772-.236 2.386-.397 2.179-.569 4.63-1.803 5.508-2.772 1.659-1.832.315-3.928-3.104-4.84-.577-.153-1.953-.267-3.193-.262Zm-1.86-16.364c6.218-.64 10.839.583 10.839 2.868 0 1.406-1.165 2.65-3.72 3.971-4.763 2.464-13.242 3.742-18.37 2.768-1.277-.243-1.926-.555-2.855-1.374-.57-.502-.695-.753-.695-1.392 0-.432.098-.972.22-1.212.328-.638 1.596-1.916 1.902-1.916.146 0 .902-.321 1.69-.718 2.848-1.433 7.12-2.597 10.99-2.995Zm59.714.336c-2.366-2.024-2.793-2.064-1.84-.173.664 1.318 2.254 3.187 3.625 4.262 1.428 1.119 1.698 1.132 1.554.077-.145-1.066-1.084-2.239-3.339-4.166ZM406.76 23.298l-.453.996c-1.12 2.46-1.306 5.9-.45 8.284.42 1.165 1.87 3.483 2.575 4.114.334.3.408.245 1.183-.882l.827-1.203-.815-.92c-.895-1.011-1.969-3.137-2.353-4.66-.137-.544-.31-2.065-.383-3.362l-.131-2.367Zm68.626 1.278c-.829-2.53-.95-2.499-.969.244-.014 2.01-.09 2.612-.45 3.532-.89 2.273-2.458 3.98-4.168 4.537-1.07.348-1.1.487-.207 1.019.714.425.94.468 1.653.309 1.897-.422 4.006-2.034 4.772-3.649.321-.678.333-.93.121-2.583-.13-1.014-.465-2.535-.752-3.41Zm-65.837.31c-.574-1.334-.684-1.482-.791-1.062-.212.83.266 4.471.795 6.05.51 1.52 1.587 3.38 1.96 3.38.112 0 .694-.488 1.277-1.07l1.07-1.07-.901-.959c-.491-.521-1.321-1.587-1.822-2.339a22.374 22.374 0 0 1-1.588-2.93Zm60.916-5.495c-.186-.308-.265-.226-.573.6-1.17 3.138-4.99 8.036-7.288 9.345l-.976.556.732.311c.947.402 1.428.384 3.006-.108 1.904-.594 2.942-1.63 4.266-4.26l1.05-2.086v-2c0-1.109-.097-2.16-.217-2.358Zm-56.68.55c-.326-.197-.236 4.654.118 6.363.389 1.879.888 3.222 1.29 3.475.228.142.574.007 1.42-.554.619-.411 1.117-.78 1.117-.826 0-.047-.356-.536-.801-1.1-1.424-1.803-2.937-5.248-2.937-6.687 0-.3-.093-.601-.207-.67Zm5.147-4.627c-.322 0-1.218 1.165-1.489 1.935-.813 2.311-.473 6.532.704 8.736.922 1.728 1.042 1.79 2.306 1.213l1.052-.48-.474-.62c-1.906-2.49-2.919-6.763-2.261-9.544.16-.676.234-1.24.162-1.24Zm4.642.282c-.686-.751-1.19-.778-1.762-.094-.753.901-1.02 1.916-1.02 3.87 0 1.334.112 2.092.46 3.1.648 1.878 2.073 3.881 2.472 3.475.061-.063-.018-.789-.178-1.634-.399-2.104-.363-4.815.09-6.707l.368-1.54Zm8.826 4.753c-.722-1.09-1.007-1.298-1.157-.845-.361 1.095-.496 2.104-.496 3.72v1.878l1.352.225c.752.125 1.495.281 1.672.35.872.34-.088-3.393-1.37-5.328Zm-3.588-3.062c-1.133 0-2.402 1.916-2.81 4.245-.21 1.203-.168 3.54.068 3.776.052.052.591.023 1.211-.065l1.118-.16.047-2.564c.038-2.085.13-2.786.488-3.748.246-.657.442-1.25.442-1.334 0-.085-.244-.15-.564-.15Z"/>


</g></svg>