<svg class="headline" style="max-width:110px;" xmlns="http://www.w3.org/2000/svg" width="110" height="22" viewBox="0 0 110 22"><path fill="#FCD872" d="M22.392,17.328 C22.8,17.328 22.968,17.04 22.968,16.68 C22.968,16.344 22.8,16.032 22.392,16.032 C22.2,16.032 21.936,16.08 21.816,16.08 C21.216,16.08 21.096,15.672 21.048,14.544 C21,13.08 20.928,10.992 20.928,8.904 C20.928,7.536 20.976,6.144 21.048,4.968 C21.096,4.2 21.144,3.456 21.744,3.456 C21.984,3.456 22.224,3.528 22.392,3.528 C22.8,3.528 22.968,3.144 22.968,2.856 C22.968,2.496 22.8,2.208 22.392,2.208 C21.456,2.208 20.328,2.304 19.224,2.304 C17.112,2.304 16.272,2.208 15,2.208 C14.064,2.208 14.016,2.568 13.848,3.432 C13.416,5.712 13.008,7.56 12.504,9.264 C12.168,10.392 12,10.776 11.52,10.776 C11.136,10.776 10.944,10.512 10.536,9.24 C10.032,7.728 9.36,4.704 9.096,3.432 C8.904,2.448 8.712,2.208 7.92,2.208 C7.032,2.208 6.6,2.304 5.328,2.304 C3.984,2.304 2.064,2.208 0.552,2.208 C0.168,2.208 -4.97379915e-14,2.496 -4.97379915e-14,2.856 C-4.97379915e-14,3.144 0.168,3.528 0.552,3.528 C0.72,3.528 0.96,3.456 1.2,3.456 C1.992,3.456 2.112,4.296 2.112,5.232 C2.112,12.552 1.608,14.592 0.672,15.744 C0.264,16.272 -4.97379915e-14,16.416 -4.97379915e-14,16.824 C-4.97379915e-14,17.136 0.24,17.328 0.552,17.328 C1.10584615,17.328 2.04823669,17.2871006 3.24703505,17.2808084 L3.552,17.28 C4.752,17.28 5.424,17.328 5.808,17.328 C6.192,17.328 6.336,16.944 6.336,16.8 C6.336,16.464 6.312,16.248 5.616,15.792 C3.888,14.544 3.384,11.232 3.384,5.784 C3.384,5.16 3.48,4.776 3.816,4.776 C4.032,4.776 4.248,5.088 4.44,5.496 C5.448,7.584 7.152,13.416 7.92,16.296 C8.16,17.184 8.16,17.304 10.032,17.304 C11.76,17.304 12.192,17.232 12.36,16.296 C12.5089655,15.5213793 12.6743686,14.7025826 12.8489824,13.872556 L13.0263988,13.0400062 C13.6562283,10.121522 14.3693793,7.2 14.856,5.688 C15.072,5.04 15.384,4.752 15.6,4.752 C16.032,4.752 16.08,5.064 16.08,6 C16.08,10.776 16.032,13.2 15.912,14.544 C15.816,15.672 15.744,16.08 15.144,16.08 C15.024,16.08 14.736,16.032 14.52,16.032 C14.136,16.032 13.968,16.344 13.968,16.68 C13.968,17.04 14.136,17.328 14.52,17.328 C15.3264,17.328 16.38368,17.2861867 17.9650204,17.2806116 L18.312,17.28 C20.136,17.28 21.624,17.328 22.392,17.328 Z M30.336,17.688 C34.584,17.688 36.12,16.104 36.12,12.096 C36.12,11.688 35.904,11.52 35.64,11.52 C35.4,11.52 35.136,11.688 35.136,12.096 C35.136,13.608 33.648,14.16 31.728,14.16 C29.688,14.16 28.728,13.464 28.728,12.408 C28.728,11.616 29.448,11.448 30.576,11.448 C35.136,11.448 36.024,10.2 36.024,8.208 C36.024,5.904 34.752,3.888 30.48,3.888 C26.568,3.888 23.712,5.784 23.712,11.088 C23.712,16.224 26.832,17.688 30.336,17.688 Z M29.424,10.392 C29.016,10.392 28.68,10.272 28.584,9.816 C28.536,9.6 28.488,9.216 28.488,8.784 C28.488,6.288 29.016,5.208 30.48,5.208 C31.56,5.208 31.92,6 31.92,7.176 C31.92,9.96 30.168,10.392 29.424,10.392 Z M43.224,17.664 C47.232,17.664 49.344,16.2 49.344,13.488 C49.344,11.52 48.528,9.984 45.192,9.072 C41.952,8.184 41.4,7.392 41.4,6.528 C41.4,5.64 42,5.088 43.536,5.088 C44.688,5.088 45,5.328 45,5.688 C45,5.856 44.88,5.976 44.712,6.096 C44.4,6.312 44.184,6.624 44.184,7.08 C44.184,8.064 45.24,8.496 46.68,8.496 C48.144,8.496 48.912,7.848 48.912,6.768 C48.912,4.992 47.016,3.912 43.344,3.912 C39.072,3.912 37.536,5.832 37.536,8.136 C37.536,10.68 39.144,11.616 41.424,12.36 C43.944,13.176 45.024,13.632 45.024,14.904 C45.024,15.864 44.232,16.32 42.84,16.32 C41.712,16.32 41.256,16.104 41.256,15.744 C41.256,15.576 41.352,15.48 41.616,15.312 C41.88,15.12 42.024,14.832 42.024,14.304 C42.024,13.44 41.04,12.816 39.6,12.816 C38.016,12.816 37.2,13.488 37.2,14.64 C37.2,16.272 38.496,17.664 43.224,17.664 Z M56.088,17.664 C60.096,17.664 62.208,16.2 62.208,13.488 C62.208,11.52 61.392,9.984 58.056,9.072 C54.816,8.184 54.264,7.392 54.264,6.528 C54.264,5.64 54.864,5.088 56.4,5.088 C57.552,5.088 57.864,5.328 57.864,5.688 C57.864,5.856 57.744,5.976 57.576,6.096 C57.264,6.312 57.048,6.624 57.048,7.08 C57.048,8.064 58.104,8.496 59.544,8.496 C61.008,8.496 61.776,7.848 61.776,6.768 C61.776,4.992 59.88,3.912 56.208,3.912 C51.936,3.912 50.4,5.832 50.4,8.136 C50.4,10.68 52.008,11.616 54.288,12.36 C56.808,13.176 57.888,13.632 57.888,14.904 C57.888,15.864 57.096,16.32 55.704,16.32 C54.576,16.32 54.12,16.104 54.12,15.744 C54.12,15.576 54.216,15.48 54.48,15.312 C54.744,15.12 54.888,14.832 54.888,14.304 C54.888,13.44 53.904,12.816 52.464,12.816 C50.88,12.816 50.064,13.488 50.064,14.64 C50.064,16.272 51.36,17.664 56.088,17.664 Z M74.4,17.568 C76.824,17.568 77.64,16.416 77.64,12.888 C77.64,11.064 77.496,10.584 76.872,10.584 C76.464,10.584 76.272,10.896 76.272,11.256 C76.272,11.736 76.68,12.624 76.68,13.176 C76.68,13.824 76.488,14.256 75.936,14.256 C75.456,14.256 75.216,13.872 75.216,13.08 C75.216,12.408 75.312,10.296 75.312,8.4 C75.312,5.76 74.472,4.008 69.96,4.008 C65.424,4.008 63.576,5.592 63.576,7.512 C63.576,9.168 64.536,9.888 66.312,9.888 C68.016,9.888 69.072,9.24 69.072,7.872 C69.072,6.936 68.568,6.456 67.776,6.312 C67.368,6.24 67.224,6.024 67.224,5.832 C67.224,5.544 67.344,5.28 68.208,5.28 C70.032,5.28 71.04,5.856 71.04,7.656 C71.04,9.744 70.68,10.248 67.512,10.656 C65.136,10.944 63.12,11.616 63.12,14.256 C63.12,16.224 64.08,17.568 66.696,17.568 C69.408,17.568 70.656,16.224 70.776,14.784 C70.8,14.448 70.896,14.28 71.184,14.28 C71.424,14.28 71.52,14.448 71.568,14.784 C71.808,16.32 72.216,17.568 74.4,17.568 Z M68.856,14.208 C68.112,14.208 67.464,13.968 67.464,13.032 C67.464,11.904 68.808,11.112 70.44,11.112 C70.92,11.112 71.064,11.424 71.064,11.88 C71.064,13.248 70.08,14.208 68.856,14.208 Z M88.776,21 C91.104,21 91.992,19.872 91.992,17.472 C91.992,15.576 90.864,14.448 88.632,14.448 C86.544,14.448 83.472,15.672 81.936,15.672 C81.216,15.672 80.976,15.336 80.976,14.928 C80.976,14.064 81.792,13.584 85.056,13.584 C89.616,13.584 91.272,12.144 91.272,9 C91.272,6.72 89.976,5.808 89.04,5.544 C88.68,5.4 88.536,5.256 88.536,5.064 C88.536,4.872 88.632,4.728 88.944,4.728 C89.04,4.728 89.424,4.776 89.808,4.776 C90.912,4.776 91.512,3.936 91.512,2.784 C91.512,1.128 90.24,0 88.368,0 C86.592,0 85.704,0.672 85.704,1.656 C85.704,2.784 86.496,3.288 87.72,3.456 C88.152,3.504 88.32,3.648 88.32,3.864 C88.32,4.08 88.224,4.248 87.816,4.248 C87.12,4.248 85.896,4.008 84.504,4.008 C80.832,4.008 78.672,5.4 78.672,8.544 C78.672,10.872 79.776,12.12 81.72,12.312 C82.032,12.36 82.2,12.576 82.2,12.792 C82.2,12.984 82.032,13.176 81.744,13.176 L80.904,13.176 C79.056,13.176 77.832,14.4 77.832,16.632 C77.832,18.96 78.792,20.064 81,20.064 C83.448,20.064 85.68,18.672 87.816,18.672 C89.04,18.672 89.784,19.008 89.784,19.512 C89.784,19.752 89.592,20.016 89.088,20.016 C88.416,20.016 87.768,19.56 87.168,19.56 C86.808,19.56 86.592,19.8 86.592,20.088 C86.592,20.64 87.216,21 88.776,21 Z M85.08,12.12 C83.472,12.12 83.376,10.248 83.376,8.064 C83.376,5.592 84.024,5.16 85.008,5.16 C86.16,5.16 86.664,6.024 86.664,8.904 C86.664,11.544 86.28,12.12 85.08,12.12 Z M99.432,17.688 C103.68,17.688 105.216,16.104 105.216,12.096 C105.216,11.688 105,11.52 104.736,11.52 C104.496,11.52 104.232,11.688 104.232,12.096 C104.232,13.608 102.744,14.16 100.824,14.16 C98.784,14.16 97.824,13.464 97.824,12.408 C97.824,11.616 98.544,11.448 99.672,11.448 C104.232,11.448 105.12,10.2 105.12,8.208 C105.12,5.904 103.848,3.888 99.576,3.888 C95.664,3.888 92.808,5.784 92.808,11.088 C92.808,16.224 95.928,17.688 99.432,17.688 Z M98.52,10.392 C98.112,10.392 97.776,10.272 97.68,9.816 C97.632,9.6 97.584,9.216 97.584,8.784 C97.584,6.288 98.112,5.208 99.576,5.208 C100.656,5.208 101.016,6 101.016,7.176 C101.016,9.96 99.264,10.392 98.52,10.392 Z"/></svg>