<svg class="headline" style="max-width:110px;" xmlns="http://www.w3.org/2000/svg" width="110" height="18" viewBox="0 0 110 18"><path fill="#FCD872" d="M9.768,16.728 C10.152,16.728 10.368,16.368 10.368,16.08 C10.368,15.648 10.152,15.312 9.768,15.312 C9.24,15.312 8.304,15.48 7.992,15.48 C7.272,15.48 7.056,15.192 7.056,14.352 C7.056,13.344 7.248,13.248 10.392,12.6 C13.32,12 15.456,11.088 15.456,6.312 C15.456,2.976 13.512,1.512 10.344,1.512 C8.976,1.512 6.048,1.656 4.56,1.656 C3.12,1.656 1.872,1.608 0.552,1.608 C0.24,1.608 0,1.896 0,2.256 C0,2.64 0.168,2.928 0.552,2.928 C0.72,2.928 0.96,2.856 1.2,2.856 C1.8,2.856 1.848,3.6 1.896,4.368 C1.992,5.544 2.016,6.936 2.016,8.304 C2.016,10.392 1.968,12.456 1.896,13.944 C1.848,15.072 1.728,15.48 1.128,15.48 C1.032,15.48 0.72,15.408 0.552,15.408 C0.24,15.408 0,15.696 0,16.08 C0,16.44 0.168,16.728 0.552,16.728 C1.22964706,16.728 3.05530796,16.685481 4.46828414,16.6804787 L4.728,16.68 C5.17642105,16.68 5.6780277,16.6833241 6.18951917,16.6882228 L6.8052824,16.694745 C8.0352133,16.7088532 9.22231579,16.728 9.768,16.728 Z M7.896,11.928 C7.344,11.928 7.104,11.784 7.104,11.016 L7.10473115,10.2932151 C7.11881094,3.7509346 7.34813793,2.856 8.808,2.856 C10.104,2.856 10.44,3.84 10.44,6.384 C10.44,10.056 9.648,11.928 7.896,11.928 Z M31.008,16.728 C31.344,16.728 31.512,16.416 31.512,16.152 C31.512,15.816 31.344,15.504 31.008,15.504 C30.96,15.504 30.744,15.528 30.672,15.528 C30.072,15.528 29.808,15.048 29.808,14.16 C29.808,12.744 30.096,9.792 30.096,8.136 C30.096,4.992 29.256,3.36 26.136,3.36 C23.544,3.36 22.248,4.536 21.912,7.032 C21.864,7.272 21.744,7.392 21.576,7.392 C21.336,7.392 21.168,7.272 21.168,7.032 C21.168,4.68 22.176,2.52 22.176,0.96 C22.176,0.24 22.032,-1.15463195e-13 21.336,-1.15463195e-13 C20.232,-1.15463195e-13 18.432,0.72 16.152,0.72 C15.72,0.72 15.504,1.056 15.504,1.416 C15.504,1.752 15.696,2.016 16.056,2.016 C16.2,2.016 16.416,1.992 16.56,1.992 C17.04,1.992 17.136,2.184 17.184,3 C17.256,5.136 17.28,7.128 17.28,9.216 C17.28,10.8 17.256,12.456 17.232,14.472 C17.208,15 17.16,15.48 16.824,15.48 C16.752,15.48 16.44,15.456 16.368,15.456 C16.032,15.456 15.864,15.768 15.864,16.104 C15.864,16.392 16.032,16.728 16.368,16.728 C17.208,16.728 18.456,16.68 19.584,16.68 C20.904,16.68 22.344,16.704 23.232,16.728 C23.592,16.728 23.808,16.392 23.808,16.104 C23.808,15.768 23.592,15.456 23.232,15.456 C23.136,15.456 22.824,15.48 22.728,15.48 C22.368,15.48 22.152,15.192 22.128,14.496 C22.104,14.088 22.104,13.68 22.104,13.248 C22.104,12 22.128,10.752 22.248,9.456 C22.416,7.152 23.016,6.456 24.072,6.456 C24.912,6.456 25.224,7.176 25.224,7.992 C25.224,9.696 25.056,12.624 25.056,14.784 C25.056,16.104 25.32,16.728 26.184,16.728 C26.928,16.704 27.624,16.632 28.272,16.632 C29.232,16.632 30.288,16.704 31.008,16.728 Z M39.048,16.968 C44.016,16.968 45.816,14.472 45.816,10.848 C45.84,5.52 43.032,3.384 39.048,3.384 C35.064,3.384 32.28,5.4 32.28,10.848 C32.28,14.592 34.08,16.968 39.048,16.968 Z M39.096,15.216 C37.968,15.216 37.44,14.112 37.44,10.32 C37.44,5.424 38.04,4.584 39.096,4.584 C40.104,4.584 40.704,5.304 40.704,10.32 C40.704,14.28 40.224,15.216 39.096,15.216 Z M61.8,16.728 C62.136,16.728 62.304,16.416 62.304,16.152 C62.304,15.816 62.136,15.504 61.8,15.504 C61.752,15.504 61.536,15.528 61.464,15.528 C60.864,15.528 60.624,15.048 60.624,14.184 C60.624,12.792 60.888,10.032 60.888,8.112 C60.888,4.992 60.048,3.36 56.928,3.36 C54.432,3.36 53.016,4.56 52.704,7.08 C52.656,7.32 52.536,7.44 52.344,7.44 C52.128,7.44 51.96,7.344 51.96,7.08 C51.96,6.168 52.128,5.448 52.128,4.752 C52.128,3.888 51.936,3.648 51.144,3.648 C50.472,3.648 49.848,3.72 49.224,3.72 C48.48,3.72 47.64,3.648 47.184,3.648 C46.752,3.648 46.56,3.984 46.56,4.344 C46.56,4.68 46.728,4.944 47.088,4.944 C47.232,4.944 47.352,4.92 47.496,4.92 C47.904,4.92 47.976,5.088 48.024,5.904 C48.072,7.008 48.072,8.136 48.072,9.312 C48.072,10.872 48.048,12.576 48.024,14.544 C48,14.976 47.952,15.48 47.64,15.48 C47.568,15.48 47.232,15.456 47.16,15.456 C46.824,15.456 46.656,15.768 46.656,16.104 C46.656,16.392 46.824,16.728 47.16,16.728 C48.072,16.728 49.224,16.68 50.424,16.68 C51.744,16.68 53.112,16.704 54.024,16.728 C54.384,16.728 54.6,16.392 54.6,16.104 C54.6,15.768 54.384,15.456 54.024,15.456 C53.928,15.456 53.568,15.48 53.496,15.48 C53.184,15.48 52.92,15.216 52.92,14.568 C52.896,14.064 52.896,13.536 52.896,13.032 C52.896,11.856 52.92,10.68 53.04,9.384 C53.208,7.152 53.832,6.456 54.864,6.456 C55.728,6.456 56.016,7.224 56.016,7.992 C56.016,9.696 55.848,12.624 55.848,14.784 C55.848,16.104 56.112,16.728 56.976,16.728 C57.72,16.704 58.416,16.632 59.064,16.632 C60,16.632 61.08,16.704 61.8,16.728 Z M69.6,17.088 C73.848,17.088 75.384,15.504 75.384,11.496 C75.384,11.088 75.168,10.92 74.904,10.92 C74.664,10.92 74.4,11.088 74.4,11.496 C74.4,13.008 72.912,13.56 70.992,13.56 C68.952,13.56 67.992,12.864 67.992,11.808 C67.992,11.016 68.712,10.848 69.84,10.848 C74.4,10.848 75.288,9.6 75.288,7.608 C75.288,5.304 74.016,3.288 69.744,3.288 C65.832,3.288 62.976,5.184 62.976,10.488 C62.976,15.624 66.096,17.088 69.6,17.088 Z M68.688,9.792 C68.28,9.792 67.944,9.672 67.848,9.216 C67.8,9 67.752,8.616 67.752,8.184 C67.752,5.688 68.28,4.608 69.744,4.608 C70.824,4.608 71.184,5.4 71.184,6.576 C71.184,9.36 69.432,9.792 68.688,9.792 Z"/></svg>