<svg class="headline" style="max-width:235px" xmlns="http://www.w3.org/2000/svg" viewBox="0 0 235 27">

<title id="headline-denplan">Denplan</title>

<path fill="#FCD872" d="M12.32 23.032c6.912 0 9.664-2.784 9.664-8.32 0-7.136-2.784-11.904-9.76-11.904-1.984 0-3.904.096-6.112.096-1.856 0-3.488-.064-5.184-.064-.416 0-.736.384-.736.896s.224.896.736.896c.192 0 .448-.096.704-.096.72 0 .844.83.908 1.742l.02.306c.128 1.664.16 3.68.16 5.664 0 2.624-.096 5.216-.16 7.04-.064 1.504-.224 2.048-1.024 2.048-.128 0-.48-.064-.608-.064-.416 0-.736.256-.736.896 0 .544.32.832.736.832.825 0 3.311-.117 5.15-.127l.258-.001c2.016 0 4.96.16 5.984.16Zm-.96-1.696c-1.024.032-1.632-.544-1.696-2.048-.096-1.888-.224-4.544-.224-7.264 0-1.888.096-3.84.224-5.472.096-1.504.672-2.048 1.728-2.048 2.272 0 3.136 1.92 3.136 10.4 0 5.344-.192 6.4-3.168 6.432Zm21.376 2.144c5.664 0 7.712-2.112 7.712-7.456 0-.544-.288-.768-.64-.768-.32 0-.672.224-.672.768 0 2.016-1.984 2.752-4.544 2.752-2.72 0-4-.928-4-2.336 0-1.056.96-1.28 2.464-1.28 6.08 0 7.264-1.664 7.264-4.32 0-3.072-1.696-5.76-7.392-5.76-5.216 0-9.024 2.528-9.024 9.6 0 6.848 4.16 8.8 8.832 8.8Zm-1.216-9.728c-.544 0-.992-.16-1.12-.768a6.896 6.896 0 0 1-.128-1.376c0-3.328.704-4.768 2.656-4.768 1.44 0 1.92 1.056 1.92 2.624 0 3.712-2.336 4.288-3.328 4.288ZM61.92 23c.448 0 .672-.416.672-.768 0-.448-.224-.864-.672-.864-.064 0-.352.032-.448.032-.8 0-1.12-.64-1.12-1.792 0-1.856.352-5.536.352-8.096 0-4.16-1.12-6.336-5.28-6.336-3.328 0-5.216 1.6-5.632 4.96-.064.32-.224.48-.48.48-.288 0-.512-.128-.512-.48 0-1.216.224-2.176.224-3.104 0-1.152-.256-1.472-1.312-1.472-.896 0-1.728.096-2.56.096-.992 0-2.112-.096-2.72-.096-.576 0-.832.448-.832.928 0 .448.224.8.704.8.192 0 .352-.032.544-.032.544 0 .64.224.704 1.312.064 1.472.064 2.976.064 4.544 0 2.08-.032 4.352-.064 6.976-.032.576-.096 1.248-.512 1.248-.096 0-.544-.032-.64-.032-.448 0-.672.416-.672.864 0 .384.224.832.672.832 1.216 0 2.752-.064 4.352-.064 1.76 0 3.584.032 4.8.064.48 0 .768-.448.768-.832 0-.448-.288-.864-.768-.864-.128 0-.608.032-.704.032-.416 0-.768-.352-.768-1.216-.032-.672-.032-1.376-.032-2.048 0-1.568.032-3.136.192-4.864.224-2.976 1.056-3.904 2.432-3.904 1.152 0 1.536 1.024 1.536 2.048 0 2.272-.224 6.176-.224 9.056 0 1.76.352 2.592 1.504 2.592.992-.032 1.92-.128 2.784-.128 1.248 0 2.688.096 3.648.128Zm13.056 4.096c.416 0 .736-.256.736-.864 0-.512-.256-.896-.768-.896-.288 0-1.504.096-2.144.096-1.376 0-1.76-.64-1.76-1.472 0-.96.384-1.216.96-1.216.64 0 1.28.384 2.912.384 5.184 0 7.264-3.168 7.264-8.992 0-6.816-1.792-8.928-5.728-8.928-3.104 0-4.704 1.152-5.44 4.832-.096.384-.256.64-.576.64-.256 0-.416-.224-.416-.608 0-1.28.192-2.272.192-3.264 0-.736-.256-1.28-1.216-1.248-.96 0-1.888.096-2.88.096-1.024 0-1.856-.096-2.688-.096-.608 0-.736.416-.736.832s.128.864.736.864c.128 0 .288-.032.576-.032.544 0 .672.256.704 1.568.096 2.688.064 5.792.064 8.672 0 2.592-.032 4.96-.096 6.784-.032.768-.288 1.184-1.216 1.184-.16 0-.64-.064-.832-.064-.416 0-.736.288-.736.864 0 .48.32.864.736.864.608 0 3.392-.128 4.96-.128 2.304 0 5.248.096 7.392.128Zm-1.44-5.984c-1.664 0-2.304-.992-2.304-4.48 0-5.728.96-7.424 2.496-7.424 1.408 0 1.952 1.44 1.952 6.528 0 4.096-.8 5.376-2.144 5.376ZM92.736 23c.544 0 .768-.352.768-.864 0-.544-.352-.832-.768-.832-.096 0-.32.032-.48.032-.48 0-.576-.352-.608-1.28-.06-1.728-.093-4.863-.096-7.474v-.43c0-5.312.256-9.12.256-10.496 0-.608-.192-.96-.864-.96-1.856 0-4.032.96-7.36.96-.416 0-.768.256-.768.928 0 .448.256.8.64.8.192 0 .64-.064.8-.064.672 0 .8.576.832 1.888.064 2.272.096 4.64.096 6.976 0 2.56-.032 5.088-.096 7.648-.032 1.024-.128 1.504-.64 1.504-.256 0-.448-.032-.48-.032-.448 0-.672.448-.672.864s.224.832.672.832c.456 0 2.038-.058 3.677-.064h.259c1.568 0 4.096.064 4.832.064Zm16.672.32c3.232 0 4.32-1.536 4.32-6.24 0-2.432-.192-3.072-1.024-3.072-.544 0-.8.416-.8.896 0 .64.544 1.824.544 2.56 0 .864-.256 1.44-.992 1.44-.64 0-.96-.512-.96-1.568 0-.896.128-3.712.128-6.24 0-3.52-1.12-5.856-7.136-5.856-6.048 0-8.512 2.112-8.512 4.672 0 2.208 1.28 3.168 3.648 3.168 2.272 0 3.68-.864 3.68-2.688 0-1.248-.672-1.888-1.728-2.08-.544-.096-.736-.384-.736-.64 0-.384.16-.736 1.312-.736 2.432 0 3.776.768 3.776 3.168 0 2.784-.48 3.456-4.704 4-3.168.384-5.856 1.28-5.856 4.8 0 2.624 1.28 4.416 4.768 4.416 3.616 0 5.28-1.792 5.44-3.712.032-.448.16-.672.544-.672.32 0 .448.224.512.672.32 2.048.864 3.712 3.776 3.712Zm-7.392-4.48c-.992 0-1.856-.32-1.856-1.568 0-1.504 1.792-2.56 3.968-2.56.64 0 .832.416.832 1.024 0 1.824-1.312 3.104-2.944 3.104Zm32.32 4.16c.448 0 .672-.416.672-.768 0-.448-.224-.864-.672-.864-.064 0-.352.032-.448.032-.8 0-1.12-.64-1.12-1.792 0-1.856.352-5.536.352-8.096 0-4.16-1.12-6.336-5.28-6.336-3.328 0-5.216 1.6-5.632 4.96-.064.32-.224.48-.48.48-.288 0-.512-.128-.512-.48 0-1.216.224-2.176.224-3.104 0-1.152-.256-1.472-1.312-1.472-.896 0-1.728.096-2.56.096-.992 0-2.112-.096-2.72-.096-.576 0-.832.448-.832.928 0 .448.224.8.704.8.192 0 .352-.032.544-.032.544 0 .64.224.704 1.312.064 1.472.064 2.976.064 4.544 0 2.08-.032 4.352-.064 6.976-.032.576-.096 1.248-.512 1.248-.096 0-.544-.032-.64-.032-.448 0-.672.416-.672.864 0 .384.224.832.672.832 1.216 0 2.752-.064 4.352-.064 1.76 0 3.584.032 4.8.064.48 0 .768-.448.768-.832 0-.448-.288-.864-.768-.864-.128 0-.608.032-.704.032-.416 0-.768-.352-.768-1.216-.032-.672-.032-1.376-.032-2.048 0-1.568.032-3.136.192-4.864.224-2.976 1.056-3.904 2.432-3.904 1.152 0 1.536 1.024 1.536 2.048 0 2.272-.224 6.176-.224 9.056 0 1.76.352 2.592 1.504 2.592.992-.032 1.92-.128 2.784-.128 1.248 0 2.688.096 3.648.128Z"/></svg>