<svg class="headline" style="max-width:225px" xmlns="http://www.w3.org/2000/svg" viewBox="0 0 226 22">

<title id="headline-tel">01745 832279</title>

<path fill="#fff" d="M10.496 21.32c5.696 0 9.664-3.168 9.664-11.264 0-5.696-2.592-9.568-9.664-9.568C3.424.488.832 4.392.832 10.056c0 8.032 3.968 11.264 9.664 11.264Zm0-2.048c-1.696 0-2.72-1.248-2.72-10.176 0-5.6.832-6.944 2.72-6.944 1.888 0 2.752 1.408 2.752 6.944 0 8.896-1.024 10.176-2.752 10.176ZM32.86 21c.448 0 .704-.384.704-.864 0-.448-.256-.864-.704-.864-.128 0-.256.064-.416.064-.576 0-.672-.416-.704-1.696-.064-2.464-.128-4.896-.128-7.36v-.786c.011-5.352.128-7.611.128-8.558 0-.48-.352-.704-.704-.704-.32 0-.608.096-.928.672-.896 1.568-3.072 2.176-6.816 2.368-.416 0-.672.32-.672.8 0 .544.256.832.672.832.128 0 .384-.064.64-.064.736 0 .832.736.896 2.016.096 1.696.128 3.392.128 5.088 0 1.888-.064 3.776-.128 5.696-.032 1.184-.096 1.728-.64 1.728-.128 0-.32-.064-.48-.064-.448 0-.704.288-.704.864 0 .384.256.832.704.832.355 0 1.526-.054 2.733-.092l.483-.014c.48-.013.951-.022 1.36-.022 1.536 0 3.072.096 4.576.128Zm13.18 0c.608 0 1.184-.32 1.184-1.024 0-.576-.256-1.312-.256-2.976 0-8.256 6.4-5.024 6.4-15.008 0-.64-.288-1.184-1.024-1.184-.544 0-1.6.192-2.688.192C48.824.968 47.96.84 47.48.84c-.768 0-1.024.48-1.024 1.056 0 1.792 3.04 3.04 3.04 4.224 0 .608-.352.864-.864.864-2.624 0-3.456-6.464-7.328-6.464-2.368 0-2.944 1.248-3.328 5.376-.032.512-.352.736-.704.736-.384 0-.576-.256-.576-.704.032-1.376.192-2.56.192-3.392 0-1.344-.416-1.92-1.216-1.92-.64 0-1.088.352-1.088 1.184 0 .896.832 2.848.864 6.656 0 1.248-.064 2.112-.064 2.272 0 .576.416.768.928.768.544 0 .864-.192.864-.768 0-.128-.096-.672-.096-1.12 0-1.408 1.024-1.728 2.368-1.728 1.728 0 3.488.864 5.888.864.704 0 1.888-.192 2.272-.192.544 0 .864.32.864.704 0 .416-.192.736-.928.864-5.44.928-8.928 3.552-8.928 9.76 0 .736.352 1.12.992 1.12.576 0 1.824-.096 3.168-.096.992 0 2.528.096 3.264.096Zm28.38 0c.288 0 .512-.384.512-.864 0-.512-.128-.864-.512-.864-.128 0-.32.096-.608.096-1.312 0-1.504-.48-1.504-3.424 0-.192.064-.416.384-.416a.6.6 0 0 1 .416.224c.48.544.864 1.056 1.12 1.92.224.608.48.704.704.704.416 0 .704-.192.704-.768-.032-.8-.128-1.632-.128-2.496 0-1.536.032-3.104.128-4.608 0-.512-.288-.736-.704-.736-.224 0-.544.064-.704.704-.32 1.376-.672 2.24-.96 2.976-.128.416-.32.576-.512.576-.288 0-.448-.16-.448-.48-.032-.832-.032-1.664-.032-2.528 0-6.528.448-9.632.448-10.176 0-.416-.32-.736-.768-.736-.352 0-.736.224-1.056.48-1.152.864-2.24 1.536-3.808 1.952-.896.256-1.28.672-1.28 1.632 0 .768.608 3.744.608 6.656 0 3.232-1.056 4-7.36 4-.416 0-.64-.288-.64-.608s.128-.672.672-.736c4.864-.576 5.504-2.112 5.504-5.76 0-5.088-1.76-7.136-6.08-7.136-.576 0-1.12 0-1.664.064-.512.064-1.056.416-1.056 1.152 0 .576.096 1.856.096 2.72 0 .896-.064 1.6-.064 2.08 0 .832.288 1.248.832 1.248.32 0 .576-.032 1.088-.352 1.44-.864 2.624-1.44 3.968-1.44.704 0 1.12.288 1.12.96 0 1.088-.704 1.216-2.784 1.6-3.104.544-3.616 1.312-3.616 3.584 0 .896-.128 1.632-.768 2.496-.32.48-.544.768-.544 1.152 0 .448.256.8.736.8.896 0 2.368-.224 7.072-.224 2.304 0 2.528.192 2.528 1.568 0 1.056-.512 1.312-1.44 1.344-.384 0-.839-.018-1.302-.044l-.463-.029c-1.001-.065-1.945-.151-2.203-.151-.64 0-.864.48-.864.96 0 .512.32.928.864.928 1.664 0 4.928-.16 7.264-.16 2.56 0 4.672.032 7.104.16Zm12.156.128c5.984 0 9.248-1.216 9.248-5.312 0-4.16-2.784-5.952-6.688-5.952-4.736 0-5.984 1.12-7.616 1.12-.768 0-1.376-.48-1.376-1.44 0-1.6.928-2.048 1.824-2.048 1.6 0 3.552.832 8.704.832 3.936 0 5.568-2.016 5.568-6.336 0-.672-.32-1.152-1.024-1.152-.48 0-1.408.096-2.368.096-.832 0-1.664-.096-2.176-.096-.832 0-1.088.448-1.088 1.056 0 1.728 2.784 2.944 2.784 3.936 0 .672-.352.928-.864.928-2.368 0-3.136-6.272-6.848-6.272-1.952 0-2.976 1.12-3.264 4.928-.032.416-.352.672-.672.672-.32 0-.64-.224-.64-.736 0-1.792.224-2.944.224-3.648 0-.576-.352-1.088-1.056-1.088-.608 0-1.088.384-1.088 1.088 0 1.152.544 4.512.544 7.52 0 .928-.16 1.984-.16 2.528 0 .416.192 1.216 1.088 1.216.928 0 2.624-.832 5.376-.832 2.144 0 3.936.832 3.936 3.68 0 3.136-.864 3.68-2.08 3.68-.96 0-1.6-.16-2.176-2.336-.448-1.76-1.376-2.88-5.12-2.88-.864 0-1.088.48-1.088 1.088 0 .544.096 1.376.096 2.048 0 1.44-.256 2.08-.256 2.496 0 .736.288 1.152 1.152 1.152h.313l.312.003c1.407.012 2.912.061 6.479.061Zm28.28.192c6.592 0 8.96-1.92 8.96-5.44 0-3.456-1.6-4.768-5.344-5.184-.48-.032-.608-.288-.608-.544 0-.288.224-.544.608-.544 3.52-.288 4.928-1.536 4.928-4.224 0-3.04-2.272-4.864-8.544-4.864s-8.544 1.824-8.544 4.864c0 2.688 1.408 3.904 4.928 4.224.384 0 .608.256.608.544 0 .256-.128.512-.608.544-3.744.384-5.344 1.728-5.344 5.184 0 3.52 2.368 5.44 8.96 5.44Zm0-11.936c-1.6 0-2.048-.896-2.048-2.848 0-3.52.448-4.384 2.048-4.384s2.048.864 2.048 4.384c0 2.016-.448 2.848-2.048 2.848Zm0 10.304c-1.6 0-2.016-.704-2.016-3.456 0-4.256.416-5.216 2.016-5.216s2.016.96 2.016 5.216c0 2.752-.416 3.456-2.016 3.456Zm20.092 1.536c6.176 0 9.344-1.472 9.344-5.44 0-3.2-2.016-3.968-5.92-4.128-.544-.032-.8-.256-.8-.608 0-.288.288-.544.8-.608 3.744-.256 5.536-.992 5.536-3.936 0-4.32-3.008-5.888-8.832-5.888-4.032 0-5.376.224-6.976.224-.8 0-1.12.448-1.12.992 0 .672.352 1.568.352 3.68 0 .864-.128 1.856-.128 2.528 0 .704.224 1.28 1.216 1.28 3.552.032 4.416-1.696 4.832-4.448.32-2.304.896-2.624 1.952-2.624s1.728.576 1.728 2.784c0 4.224-.8 5.184-2.464 5.184-.416 0-1.344-.256-1.984-.256-.832 0-1.248.608-1.248 1.216 0 .576.448 1.12 1.248 1.12.64 0 1.472-.352 1.984-.352 1.664 0 2.496.896 2.496 4.384 0 2.56-.608 3.136-1.856 3.136-1.088 0-1.728-.256-2.048-2.4-.352-2.4-1.312-3.968-5.152-3.936-.992 0-1.184.576-1.184 1.312 0 .64.128 1.664.128 2.496 0 1.76-.352 2.496-.352 3.072 0 .544.32.992 1.088.992s3.104.224 7.36.224Zm26.364.096c2.4 0 3.36-2.048 3.36-6.688 0-.736-.16-2.752-1.216-2.752-.512 0-.896.288-.896.864 0 .448.48.672.48 1.408 0 .64-.352.832-1.504.832-2.08 0-3.52-.992-6.688-.992-.928 0-2.464.256-2.688.256-.32 0-.448-.16-.448-.416 0-.192.192-.448.544-.608 1.004-.403 2.132-.609 3.287-.76l.434-.053.218-.026.436-.05.217-.023.651-.073c3.603-.412 6.917-1.052 6.917-6.215 0-4.032-3.136-5.504-8.864-5.504-3.52 0-5.408.288-6.912.288-.864 0-1.216.544-1.216 1.152 0 .736.224 1.728.224 4.128V9c0 .64.192 1.12 1.056 1.184 3.424-.032 4.288-1.632 4.896-5.12.416-2.304.864-2.912 2.176-2.912 1.216 0 2.048.672 2.048 3.168 0 4.128-2.816 4.8-7.104 7.264-2.24 1.248-3.936 2.784-3.936 7.232 0 .672.288 1.184.96 1.184.608 0 1.728-.192 2.912-.192.992.032 2.016.192 2.624.192.768 0 1.056-.48 1.056-1.024 0-1.824-3.552-2.72-3.552-3.616 0-.448.352-.832 1.056-.832 4.064 0 4.032 5.792 9.472 5.792Zm20.54 0c2.4 0 3.36-2.048 3.36-6.688 0-.736-.16-2.752-1.216-2.752-.512 0-.896.288-.896.864 0 .448.48.672.48 1.408 0 .64-.352.832-1.504.832-2.08 0-3.52-.992-6.688-.992-.928 0-2.464.256-2.688.256-.32 0-.448-.16-.448-.416 0-.192.192-.448.544-.608 1.004-.403 2.132-.609 3.287-.76l.434-.053.218-.026.436-.05.217-.023.651-.073c3.603-.412 6.917-1.052 6.917-6.215 0-4.032-3.136-5.504-8.864-5.504-3.52 0-5.408.288-6.912.288-.864 0-1.216.544-1.216 1.152 0 .736.224 1.728.224 4.128V9c0 .64.192 1.12 1.056 1.184 3.424-.032 4.288-1.632 4.896-5.12.416-2.304.864-2.912 2.176-2.912 1.216 0 2.048.672 2.048 3.168 0 4.128-2.816 4.8-7.104 7.264-2.24 1.248-3.936 2.784-3.936 7.232 0 .672.288 1.184.96 1.184.608 0 1.728-.192 2.912-.192.992.032 2.016.192 2.624.192.768 0 1.056-.48 1.056-1.024 0-1.824-3.552-2.72-3.552-3.616 0-.448.352-.832 1.056-.832 4.064 0 4.032 5.792 9.472 5.792Zm17.116-.32c.608 0 1.184-.32 1.184-1.024 0-.576-.256-1.312-.256-2.976 0-8.256 6.4-5.024 6.4-15.008 0-.64-.288-1.184-1.024-1.184-.544 0-1.6.192-2.688.192-.832-.032-1.696-.16-2.176-.16-.768 0-1.024.48-1.024 1.056 0 1.792 3.04 3.04 3.04 4.224 0 .608-.352.864-.864.864-2.624 0-3.456-6.464-7.328-6.464-2.368 0-2.944 1.248-3.328 5.376-.032.512-.352.736-.704.736-.384 0-.576-.256-.576-.704.032-1.376.192-2.56.192-3.392 0-1.344-.416-1.92-1.216-1.92-.64 0-1.088.352-1.088 1.184 0 .896.832 2.848.864 6.656 0 1.248-.064 2.112-.064 2.272 0 .576.416.768.928.768.544 0 .864-.192.864-.768 0-.128-.096-.672-.096-1.12 0-1.408 1.024-1.728 2.368-1.728 1.728 0 3.488.864 5.888.864.704 0 1.888-.192 2.272-.192.544 0 .864.32.864.704 0 .416-.192.736-.928.864-5.44.928-8.928 3.552-8.928 9.76 0 .736.352 1.12.992 1.12.576 0 1.824-.096 3.168-.096.992 0 2.528.096 3.264.096Zm17.116.32c6.272 0 9.92-3.712 9.92-11.04 0-5.888-2.176-9.728-9.152-9.728-6.88 0-8.864 3.136-8.864 7.424 0 3.36 1.888 5.76 5.728 5.76 2.24 0 4.256-.48 4.768-2.368.16-.512.448-.608.768-.608.48 0 .64.32.64.864 0 5.344-.864 7.776-2.912 7.776-1.12 0-1.568-.736-2.272-2.688-.576-1.696-1.792-2.176-4.832-2.176-.928.064-1.12.544-1.12 1.184 0 .384.064.992.064 1.536 0 1.568-.16 2.304-.16 2.816 0 .544.288.992 1.056.992 1.44 0 3.616.256 6.368.256Zm.288-10.336c-1.568 0-2.24-1.472-2.24-4.224 0-3.008.672-4.576 2.304-4.576 1.632 0 2.016 1.536 2.048 4.224.032 3.008-.672 4.544-2.112 4.576Z"/></svg>